<svg width="466" height="149" viewBox="0 0 466 149" fill="none" xmlns="http://www.w3.org/2000/svg">
<path fill-rule="evenodd" clip-rule="evenodd" d="M144.459 1.77654C148.342 0.741331 152.226 0.741331 156.109 1.25894C160.51 2.03535 164.652 3.32936 168.277 5.65858C168.277 9.02302 168.277 12.3875 168.277 15.7519C165.947 13.9403 163.617 12.3875 160.769 11.3522C157.145 9.79943 153.261 9.28182 149.637 9.54063C147.825 9.79943 146.012 10.0582 144.459 11.0934C143.424 11.611 142.388 12.6463 141.87 13.6815C141.094 14.9755 141.094 16.5283 141.352 18.0811C141.611 19.3751 142.388 20.6691 143.424 21.4456C144.718 22.4808 146.53 23.2572 148.084 23.7748C151.449 25.0688 154.815 26.3628 158.439 27.398C161.287 28.4332 164.135 29.9861 166.465 32.0565C168.795 34.1269 170.348 36.7149 170.866 39.5618C171.384 42.6674 171.642 45.773 170.866 48.6198C170.089 51.2079 168.536 53.7959 166.465 55.6075C164.135 57.678 161.546 58.972 158.698 59.7484C154.815 60.7836 150.672 61.0424 146.789 60.5248C141.87 60.0072 136.692 58.4544 132.55 55.6075C132.55 52.2431 132.55 48.6199 132.55 45.2554C137.469 49.3963 143.941 51.9843 150.414 51.9843C153.261 51.9843 156.109 51.7255 158.439 50.4315C159.734 49.6551 161.028 48.6198 161.546 47.067C162.064 45.5142 162.064 43.7026 161.546 41.891C161.028 40.3382 159.734 39.0441 158.18 38.2677C155.591 36.7149 152.744 35.9385 149.896 34.9033C146.53 33.6093 143.165 32.5741 140.058 30.7625C137.728 29.4684 135.398 27.6568 134.104 25.3276C132.032 22.222 131.515 18.3399 132.032 14.7167C132.291 11.3522 134.104 7.98781 136.434 5.91739C138.764 3.84696 141.611 2.55295 144.459 1.77654Z" fill="#EFDDC7"/>
<path fill-rule="evenodd" clip-rule="evenodd" d="M373.834 4.36444C377.718 1.77641 382.637 1 387.297 1C392.992 1 398.947 2.55282 403.866 5.65845C403.866 9.02289 403.866 12.3873 403.866 15.7518C401.794 14.1989 399.464 12.6461 397.134 11.6109C392.992 9.7993 388.332 9.02289 383.672 9.7993C381.342 10.3169 378.753 11.3521 377.459 13.4225C376.165 16.0106 376.682 19.375 378.753 21.1866C380.307 22.7394 382.637 23.5158 384.708 24.0334C388.073 25.3275 391.439 26.3627 394.804 27.6567C397.911 28.9507 400.759 30.5035 402.83 32.8327C404.901 34.9032 406.196 37.75 406.713 40.5968C407.231 43.7025 406.972 47.0669 405.678 50.1725C404.642 52.7606 402.83 54.831 400.5 56.6426C397.911 58.4542 394.804 59.4894 391.439 60.2658C387.038 61.0423 382.378 60.7835 377.977 59.7482C374.352 58.9718 370.728 57.6778 367.621 55.3486C367.621 51.9842 367.621 48.3609 367.621 44.9965C371.505 48.1021 376.165 50.4313 381.342 51.2077C383.413 51.7254 385.743 51.7254 387.815 51.4665C390.145 51.2077 392.216 50.9489 394.287 49.6549C395.84 48.6197 396.876 47.3257 397.134 45.5141C397.393 43.4437 397.134 41.1144 395.84 39.5616C394.546 38.2676 392.992 37.2324 391.18 36.456C388.332 35.4208 385.743 34.3856 382.896 33.3504C380.307 32.3151 377.459 31.5387 375.129 29.9859C372.799 28.6919 370.728 26.8803 369.433 24.5511C368.139 22.2218 367.362 19.6338 367.362 17.0458C367.103 14.7165 367.621 12.3873 368.398 10.0581C369.433 8.24648 371.504 5.91725 373.834 4.36444Z" fill="#EFDDC7"/>
<path fill-rule="evenodd" clip-rule="evenodd" d="M437.003 2.55282C439.851 1.51761 442.699 1 445.547 1C451.501 1 457.456 2.29401 462.633 5.39965C462.892 5.39965 462.892 5.65845 462.892 5.91725C462.892 9.28169 462.892 12.3873 462.892 15.7518C460.562 13.9401 457.973 12.3873 455.384 11.3521C452.019 10.0581 448.136 9.28169 444.511 9.54049C442.699 9.7993 440.628 10.0581 439.074 11.0933C437.78 11.8697 436.744 12.9049 436.227 13.9401C435.191 16.5282 435.709 19.6338 437.78 21.1866C440.11 22.9982 442.958 23.7746 445.806 24.8099C448.912 26.1039 452.278 27.1391 455.384 28.4331C458.232 29.7271 461.08 31.5387 462.892 34.1268C464.963 36.9736 465.74 40.338 465.74 43.7025C465.74 46.8081 464.963 49.9137 463.41 52.243C461.598 54.831 459.268 56.6426 456.42 57.9366C453.313 59.2306 450.207 60.007 446.841 60.007C443.217 60.2658 439.592 59.7482 435.968 58.9718C432.602 58.1954 429.496 56.9014 426.648 55.0898C426.648 51.7254 426.648 48.1021 426.648 44.7377C431.567 48.8785 438.039 51.4665 444.511 51.4665C447.359 51.4665 450.207 51.2077 452.796 49.9137C454.09 49.1373 455.126 48.1021 455.643 46.5493C456.161 44.9965 456.161 42.9261 455.643 41.3732C455.126 39.8204 453.831 38.5264 452.278 37.75C449.689 36.1972 446.841 35.4208 443.993 34.3856C440.628 33.0915 437.262 32.0563 434.156 30.2447C431.567 28.9507 429.496 26.8803 427.942 24.2923C426.389 21.7042 425.871 18.3398 425.871 15.2342C425.871 12.3873 426.907 9.54049 428.719 7.21127C431.049 5.39965 433.897 3.58803 437.003 2.55282Z" fill="#EFDDC7"/>
<path fill-rule="evenodd" clip-rule="evenodd" d="M234.295 1C247.498 13.6813 260.702 26.3627 274.164 39.044C274.164 26.6215 274.164 14.4577 274.164 2.03521C277.27 2.03521 280.377 2.03521 283.743 2.03521C283.743 21.7042 283.743 41.3732 283.743 61.0423C274.94 52.243 265.879 43.7025 256.818 34.9032C252.417 30.7623 248.275 26.6215 243.874 22.4806C243.874 34.9032 243.874 47.5845 243.874 60.007C240.767 60.007 237.66 60.007 234.295 60.007C234.295 40.338 234.295 20.669 234.295 1Z" fill="#EFDDC7"/>
<path fill-rule="evenodd" clip-rule="evenodd" d="M0 2.03457C5.17778 2.03457 10.0967 2.03457 15.2744 2.03457C18.8989 2.03457 22.5233 1.77577 25.8889 2.55218C29.2544 3.06978 32.62 4.3638 35.2089 6.69302C37.28 8.50464 38.8333 11.0927 39.3511 13.6807C40.1278 16.7863 40.1278 19.892 39.0922 22.9976C38.0567 26.1032 35.7267 28.9501 32.62 30.2441C33.1378 30.5029 33.6556 30.7617 34.1733 31.0205C37.0211 32.5733 39.3511 35.1613 40.6456 38.0082C41.6811 40.3374 41.94 42.6666 41.6811 45.2546C41.4222 48.3603 40.3867 51.4659 38.3156 54.0539C35.9856 56.9008 32.62 58.7124 29.2544 59.4888C26.1478 60.2652 23.3 60.2652 20.1933 60.2652C13.4622 60.2652 6.73111 60.2652 0 60.2652C0 40.5962 0 21.186 0 2.03457ZM9.57889 10.5751C9.57889 15.7511 9.57889 21.186 9.57889 26.362C13.4622 26.362 17.3456 26.362 21.2289 26.362C23.5589 26.362 26.4067 25.8444 28.2189 24.0328C29.5133 22.7388 30.29 20.9272 30.5489 19.1156C30.8078 17.0451 30.29 14.9747 28.9956 13.4219C27.7011 11.8691 25.8889 11.3515 24.0767 10.8339C22.2644 10.5751 20.1933 10.5751 18.1222 10.5751C15.2744 10.5751 12.4267 10.5751 9.57889 10.5751ZM9.57889 34.3849C9.57889 40.0786 9.57889 45.7722 9.57889 51.2071C13.7211 51.2071 17.8633 51.2071 22.0056 51.2071C24.3356 51.2071 26.6656 50.6895 28.7367 49.3955C30.5489 48.3603 31.5844 46.5487 31.8433 44.4782C32.3611 42.4078 32.1022 40.0786 30.8078 38.0082C29.7722 36.4553 28.2189 35.4201 26.6656 34.9025C25.1122 34.3849 23.5589 34.1261 21.7467 34.1261C17.8633 34.3849 13.7211 34.3849 9.57889 34.3849Z" fill="#EFDDC7"/>
<path fill-rule="evenodd" clip-rule="evenodd" d="M62.9102 2.03613C66.2757 2.03613 69.3824 2.03613 72.7479 2.03613C72.7479 12.1294 72.7479 21.964 72.7479 32.0573C72.7479 35.6805 72.489 39.0449 73.5246 42.6682C74.3013 45.515 75.5957 48.103 77.9257 49.9147C80.2557 51.7263 83.1035 52.2439 86.2102 52.2439C89.0579 52.2439 92.1646 51.7263 94.4946 49.9147C96.5657 48.3618 97.8602 46.2914 98.6368 43.9622C99.4135 41.1154 99.6724 38.2685 99.6724 35.4217C99.6724 24.2932 99.6724 13.1647 99.6724 2.29494C103.038 2.29494 106.145 2.29494 109.51 2.29494C109.51 13.9411 109.51 25.3284 109.51 36.9745C109.51 41.633 108.733 46.5502 106.403 50.6911C104.332 54.3143 101.226 57.4199 97.3424 58.9728C92.9413 60.7844 88.0224 61.302 83.3624 61.0432C79.9968 60.7844 76.8902 60.008 73.7835 58.4552C71.7124 57.4199 69.6413 55.8671 68.0879 53.7967C66.2757 51.7263 64.9813 48.8794 64.2046 46.2914C63.169 43.1858 62.9102 39.8213 62.9102 36.7157C62.9102 24.8108 62.9102 13.4235 62.9102 2.03613Z" fill="#EFDDC7"/>
<path fill-rule="evenodd" clip-rule="evenodd" d="M196.496 2.03613C199.862 2.03613 202.968 2.03613 206.334 2.03613C206.334 21.4463 206.334 40.5978 206.334 60.008C202.968 60.008 199.862 60.008 196.496 60.008C196.496 40.5978 196.496 21.1875 196.496 2.03613Z" fill="#EFDDC7"/>
<path fill-rule="evenodd" clip-rule="evenodd" d="M309.89 2.03613C321.54 2.03613 333.19 2.03613 345.099 2.03613C345.099 4.88296 345.099 7.9886 345.099 10.8354C336.556 10.8354 328.013 10.8354 319.728 10.8354C319.728 15.4939 319.728 20.1523 319.728 24.8108C327.236 24.8108 335.003 24.8108 342.51 24.8108C342.51 27.6576 342.51 30.5044 342.51 33.3513C335.003 33.3513 327.236 33.3513 319.728 33.3513C319.728 39.3037 319.728 45.2562 319.728 51.2087C328.272 51.2087 336.815 51.2087 345.099 51.2087C345.099 54.0555 345.099 57.1611 345.099 60.008C333.449 60.008 321.799 60.008 309.89 60.008C309.89 44.221 309.89 28.6928 309.89 12.9059C309.89 9.28261 309.632 5.65937 309.89 2.03613Z" fill="#EFDDC7"/>
<path fill-rule="evenodd" clip-rule="evenodd" d="M76.6307 89.251C89.834 101.674 103.037 114.096 116.241 126.519C116.241 114.355 116.241 102.191 116.241 90.0274C119.347 90.0274 122.454 90.0274 125.561 90.0274C125.561 109.438 125.561 128.589 125.561 147.999C112.357 135.318 99.154 122.637 86.2096 109.955C86.2096 122.378 86.2096 134.541 86.2096 146.964C83.1029 146.964 79.9962 146.964 76.8896 146.964C76.6307 127.813 76.3718 108.402 76.6307 89.251Z" fill="#EFDDC7"/>
<path fill-rule="evenodd" clip-rule="evenodd" d="M158.956 91.3224C162.58 89.5107 166.722 88.9931 170.865 89.2519C176.301 89.5107 181.738 90.8048 186.398 93.9104C186.398 97.2748 186.398 100.639 186.398 104.004C184.068 102.192 181.738 100.639 178.89 99.6041C175.266 98.0512 171.382 97.5336 167.758 97.7924C165.946 98.0512 164.133 98.31 162.58 99.3453C161.286 100.122 160.509 101.157 159.991 102.451C159.215 104.78 159.732 107.368 161.286 108.921C162.58 110.215 164.392 110.991 166.205 111.768C169.57 113.062 173.195 114.356 176.56 115.391C179.408 116.426 181.997 117.72 184.327 119.532C186.657 121.343 188.21 123.932 188.987 126.778C189.763 129.625 189.763 132.472 189.246 135.578C188.728 138.424 187.175 141.013 185.103 142.824C183.032 144.895 180.185 146.189 177.337 147.224C173.712 148.259 170.088 148.518 166.205 148.259C162.321 148 158.438 147.224 155.072 145.671C153.519 144.895 151.966 144.377 150.671 143.342C150.671 139.977 150.671 136.613 150.671 133.248C155.59 137.389 162.062 139.719 168.535 139.977C171.382 139.977 174.23 139.718 176.56 138.424C178.113 137.648 179.149 136.354 179.667 134.801C180.185 133.248 180.185 131.437 179.408 129.884C178.89 128.331 177.337 127.037 176.042 126.261C173.453 124.967 170.865 123.932 168.017 123.155C164.91 122.12 161.803 121.085 158.956 119.532C156.367 118.238 154.037 116.167 152.483 113.838C150.93 111.25 150.153 108.145 150.412 105.298C150.412 102.451 151.189 99.6041 152.742 97.2748C154.037 94.1692 156.367 92.3576 158.956 91.3224Z" fill="#EFDDC7"/>
<path fill-rule="evenodd" clip-rule="evenodd" d="M38.834 90.0293C42.1995 90.0293 45.3062 90.0293 48.6718 90.0293C48.6718 109.181 48.6718 128.073 48.6718 147.225C45.3062 147.225 42.1995 147.225 38.834 147.225C38.834 128.073 38.834 109.181 38.834 90.0293Z" fill="#EFDDC7"/>
<path fill-rule="evenodd" clip-rule="evenodd" d="M214.361 90.0293C217.727 90.0293 220.834 90.0293 224.199 90.0293C224.199 109.181 224.199 128.073 224.199 147.225C220.834 147.225 217.727 147.225 214.361 147.225C214.361 128.073 214.361 109.181 214.361 90.0293Z" fill="#EFDDC7"/>
<path fill-rule="evenodd" clip-rule="evenodd" d="M252.675 90.0293C260.183 90.0293 267.69 90.0293 275.198 90.0293C281.153 90.0293 287.107 91.5821 291.767 95.2054C295.909 98.0522 298.757 102.193 300.569 106.851C301.864 110.734 302.64 114.874 302.382 119.015C302.382 124.968 301.087 130.92 297.722 135.837C295.133 139.978 290.99 143.343 286.33 145.154C282.706 146.707 278.823 147.225 274.939 147.225C267.432 147.225 259.924 147.225 252.416 147.225C252.675 128.073 252.675 109.181 252.675 90.0293ZM262.513 98.5698C262.513 111.769 262.513 125.226 262.513 138.425C265.619 138.425 268.726 138.425 271.833 138.425C273.645 138.425 275.716 138.425 277.528 138.167C281.153 137.649 284.777 136.355 287.366 133.767C289.696 131.697 291.249 128.591 292.026 125.485C292.803 122.38 293.062 119.274 292.803 116.168C292.544 113.322 292.026 110.475 290.732 107.887C289.696 105.299 287.884 103.228 285.554 101.675C282.965 99.8638 279.858 98.8286 276.752 98.5698C274.939 98.311 272.868 98.5698 271.056 98.311C268.208 98.5698 265.36 98.5698 262.513 98.5698Z" fill="#EFDDC7"/>
<path fill-rule="evenodd" clip-rule="evenodd" d="M323.094 90.0293C334.744 90.0293 346.394 90.0293 358.044 90.0293C358.044 92.8761 358.044 95.723 358.044 98.5698C349.5 98.5698 341.216 98.5698 332.673 98.5698C332.673 103.228 332.673 107.628 332.673 112.286C340.18 112.286 347.688 112.286 355.196 112.286C355.196 115.133 355.196 117.98 355.196 120.827C347.688 120.827 340.18 120.827 332.673 120.827C332.673 126.779 332.673 132.732 332.673 138.425C341.216 138.425 349.5 138.425 358.044 138.425C358.044 141.272 358.044 144.119 358.044 146.966C346.394 146.966 334.744 146.966 323.094 146.966C323.094 128.073 323.094 109.181 323.094 90.0293Z" fill="#EFDDC7"/>
<path fill-rule="evenodd" clip-rule="evenodd" d="M387.039 90.0293C394.288 90.0293 401.278 90.0293 408.527 90.0293C412.151 90.0293 415.776 90.5469 418.882 92.3585C421.471 93.6525 423.542 95.4642 425.096 97.7934C426.908 100.64 427.685 104.005 427.426 107.369C427.426 110.734 426.908 114.357 425.096 117.204C423.801 119.533 421.73 121.086 419.4 122.121C417.588 122.897 415.776 123.415 413.964 123.674C420.954 131.438 427.685 139.202 434.675 147.225C431.05 147.225 427.167 147.225 423.542 147.225C416.811 139.461 410.339 131.697 403.608 124.191C401.278 124.191 398.948 124.191 396.877 124.191C396.877 131.955 396.877 139.719 396.877 147.225C393.511 147.225 390.405 147.225 387.039 147.225C387.039 128.073 387.039 109.181 387.039 90.0293ZM396.877 98.5698C396.877 104.263 396.877 110.216 396.877 115.91C400.76 115.91 404.385 115.91 408.268 115.91C410.857 115.91 413.446 115.133 415.517 113.322C416.811 112.028 417.588 110.475 417.847 108.663C418.106 106.593 417.847 104.005 416.552 102.193C415.517 100.381 413.446 99.3462 411.375 98.8286C409.303 98.311 407.232 98.311 405.161 98.311C402.314 98.5698 399.725 98.5698 396.877 98.5698Z" fill="#EFDDC7"/>
</svg>
