<svg width="52" height="61" viewBox="0 0 52 61" fill="none" xmlns="http://www.w3.org/2000/svg">
<circle cx="19.5" cy="37.5" r="19.5" fill="#E6C9C9"/>
<path d="M21.632 48.5039C15.9653 48.5039 5.232 46.8039 7.632 40.0039C9.63239 35.0039 8.63239 34.5039 6.13239 31.5039C3.63239 28.5039 5.63239 24.5039 8.63239 22.0039C11.6324 19.5039 13.0326 17.981 12.6328 14.5039C12 9 17.6312 6.50393 21.632 10.5039C25.6328 14.5039 31.0732 0.0658596 36.6328 1.00389C45.5 2.5 37.6328 12.2365 42.1328 12.7365C46.6328 13.2365 51.5 15.5001 51.5 19C51.5 22.3541 47 24.2365 47.5 26.7365C48.0281 29.3768 49.5 37 42.5 36.5" stroke="#242E35" stroke-linecap="round" stroke-linejoin="round"/>
<path d="M19.1328 60.0039V43.5039C17.6328 43.1705 14.6328 41.8039 14.6328 39.0039C14.6328 35.5039 17.1328 34.0039 21.1328 34.0039C25.1328 34.0039 23.1328 29.0039 26.1328 28.0039C29.1328 27.0039 30.6328 28.0039 32.6328 24.0039C34.6328 20.0039 37.6328 18.0039 38.1328 21.5039C38.6328 25.0039 37.1328 29.0037 40.1328 29.0037C42.5328 29.0037 42.4661 39.6703 42.1328 45.0037C42.1328 47.837 40.6328 53.5037 34.6328 53.5037C27.1328 53.5037 37.1328 46.5037 37.1328 59.0037" stroke="#242E35" stroke-linecap="round" stroke-linejoin="round"/>
<path d="M38.6328 44.5037C38.1328 45.1703 36.1328 46.1037 32.1328 44.5037" stroke="#242E35" stroke-linecap="round" stroke-linejoin="round"/>
</svg>
