<svg width="55" height="59" viewBox="0 0 55 59" fill="none" xmlns="http://www.w3.org/2000/svg">
<circle cx="21.5" cy="37.5" r="19.5" fill="#C5D5E4"/>
<path d="M24.6406 57.2168V34.7168C23.3073 33.8835 20.6406 31.4168 20.6406 28.2168C20.6406 24.2168 23.1406 26.2168 28.1406 24.2168C33.1406 22.2168 41.1406 10.2168 44.6406 14.2168C47.4406 17.4168 47.8073 27.2168 47.6406 31.7168C47.6406 37.2168 45.4406 47.8168 36.6406 46.2168C25.6406 44.2168 39.6406 38.3608 44.6406 51.3608C49.6406 64.3608 53 53.8608 53.5 53.3608" stroke="#242E35" stroke-linecap="round" stroke-linejoin="round"/>
<path d="M46 8.36084C45.2 12.4785 40.88 21.2432 30 23.3608" stroke="#242E35" stroke-linecap="round" stroke-linejoin="round"/>
<path d="M47.6411 25.2167C50.3078 20.8834 56.7249 11.4767 52 4.86134C47 -2.13916 24.6168 1.40561 18 7.36106C13 11.8613 8.64112 17.2169 9.64112 32.2169C10.6411 47.2169 -0.359181 45.2169 1.14082 40.7169C2.64082 36.2169 8.49951 53.361 7.5 54.861" stroke="#242E35" stroke-linecap="round" stroke-linejoin="round"/>
<path d="M42.5 36.3608C42 37.0275 40 37.9608 36 36.3608" stroke="#242E35" stroke-linecap="round" stroke-linejoin="round"/>
</svg>
