<svg width="50" height="59" viewBox="0 0 50 59" fill="none" xmlns="http://www.w3.org/2000/svg">
<circle cx="19.5" cy="35.5" r="19.5" fill="#E0E5CD"/>
<path d="M30.1855 57.793C30.5189 58.793 31.3855 59.093 32.1855 52.293C33.1855 43.793 46.6855 46.793 37.1855 50.293C27.6855 53.793 24.1855 46.293 24.1855 41.793C24.1855 37.293 26.6855 32.793 33.6855 32.293C39.2855 31.893 41.0189 35.4594 41.1855 37.2926C41.3522 36.4594 42.3855 33.1929 41.1855 26.7926C39.6855 18.7922 46.1855 14.293 44.1855 19.293C42.1855 24.293 42.1855 15.7928 40.1855 13.2926C38.1855 10.7924 37.1855 15.2926 34.1855 13.2926C31.1855 11.2926 24.6855 24.2926 20.1855 26.7926C15.6855 29.2926 11.6855 25.7926 11.6855 30.7926C11.6855 34.7926 15.0189 36.7926 16.6855 37.2926V55.793" stroke="#242E35" stroke-linecap="round" stroke-linejoin="round"/>
<path d="M16.6855 41.7926C14.1855 40.6259 9.08552 37.0926 8.68552 32.2926C8.18552 26.2926 0.685547 11.293 13.1855 12.293C14.1856 9.29339 15.6856 1.793 26.1856 2.293C36.6856 2.793 44.6856 -2.70713 48.1856 5.79259C51.6217 14.1372 46.6856 18.1259 44.6856 17.7926" stroke="#242E35" stroke-linecap="round" stroke-linejoin="round"/>
<path d="M37.5 41C37 41.6667 35 42.6 31 41" stroke="#242E35" stroke-linecap="round" stroke-linejoin="round"/>
</svg>
