<svg width="163" height="130" viewBox="0 0 163 130" fill="none" xmlns="http://www.w3.org/2000/svg">
<circle cx="81.7267" cy="72.3634" r="8.16807" fill="#C5D5E4"/>
<path d="M141.171 106.988L90.3482 126.376C84.9953 128.418 79.0884 128.478 73.6952 126.544L39.2964 114.214C37.5335 113.582 37.5284 111.09 39.2887 110.451L63.5739 101.633M99.6496 101.633L114.284 106.988" stroke="#242E35" stroke-width="2" stroke-linecap="round" stroke-linejoin="round"/>
<path d="M12.7521 94.1449L9.79655 95.1309L3.16705 97.4521C2.27749 97.7636 2.27329 99.0201 3.16076 99.3375L18.4116 104.792C18.852 104.949 19.3336 104.948 19.7727 104.787L34.6641 99.335C35.5422 99.0135 35.538 97.7701 34.6577 97.4545L28.1747 95.1309L25.0042 93.918C24.5939 94.2602 23.7732 95.6995 23.7732 98.7187" stroke="#242E35" stroke-width="2" stroke-linecap="round" stroke-linejoin="round"/>
<path d="M28.1758 101.863L44.5299 108.153" stroke="#242E35" stroke-width="2" stroke-linecap="round" stroke-linejoin="round"/>
<path d="M144.337 105.036L159.908 99.335C160.786 99.0135 160.782 97.7701 159.902 97.4545L153.419 95.1309L150.248 93.918M137.996 94.1449L135.041 95.1309L128.411 97.4521C127.522 97.7636 127.517 99.0201 128.405 99.3375L135.041 101.711" stroke="#242E35" stroke-width="2" stroke-linecap="round" stroke-linejoin="round"/>
<path d="M93.9782 52.8493C92.39 53.6813 91.7093 53.53 86.2643 57.1603C80.8194 60.7905 77.6425 58.7485 76.0542 57.1603C74.7837 55.8897 73.7096 54.7401 71.9701 53.53C70.2306 57.009 65.9798 67.1435 66.5244 74.404C67.205 83.4796 73.3311 84.1603 76.0542 81.8914C78.7773 79.6224 77.0522 76.5821 74.6925 77.1266C71.7429 77.8073 66.5244 87.7905 74.6925 90.7401C82.8606 93.6897 104.113 82.4208 111.449 80.0762C118.104 77.7317 133.639 75.2208 142.533 83.9334C151.427 92.646 158.728 77.1266 156.373 71.6813C153.385 64.7697 130.961 72.4073 125.516 68.051C120.071 63.6947 139.356 52.093 146.844 48.9922" stroke="#242E35" stroke-width="2" stroke-linecap="round" stroke-linejoin="round"/>
<path d="M90.9448 44.6822C87.4349 34.441 86.6086 19.231 87.0457 17.9195C87.4995 16.5582 88.634 16.1044 88.1802 14.2893C87.7264 12.4741 87.4995 8.61699 88.1802 5.66741C88.8609 2.71783 85.4575 2.71783 80.239 2.49094C76.0642 2.30943 75.3231 4.53296 75.4743 5.66741C75.55 7.78506 75.4744 12.3834 74.5668 13.8355C73.6592 15.2876 75.3987 17.1632 76.3819 17.9195C77.0292 18.2185 79.3674 18.8166 83.5422 18.8166C88.7606 18.8166 73.7594 43.5372 75.4743 44.6822C76.8462 45.5981 86.3596 45.0638 90.9448 44.6822ZM90.9448 44.6822C91.0782 45.0713 91.2155 45.4533 91.3567 45.8271C95.2138 56.0372 99.5248 63.9783 99.5248 75.096C99.5248 83.9901 99.5248 103.76 99.5248 112.533C99.5248 114.046 98.7987 117.162 95.8945 117.525C92.2643 117.978 78.197 120.02 67.76 117.525C62.5415 115.936 63.9029 114.575 63.676 113.214C63.4945 112.125 63.6004 87.3481 63.676 75.096C63.8272 71.3901 64.8557 62.254 67.76 55.3565C71.1633 47.2741 74.9121 41.715 75.4743 24.262C75.4743 21.5393 74.0128 18.9981 72.1976 21.5393C69.9287 24.7158 70.3825 55.3565 52.9119 55.3565C35.4413 55.3565 17.1687 64.1229 15.9107 77.6465C14.6527 91.17 25.0043 89.1101 25.0043 80.7915V66.6389" stroke="#242E35" stroke-width="2" stroke-linecap="round" stroke-linejoin="round"/>
<path d="M64.3164 95.2044C71.0475 96.6414 87.55 98.4717 99.7114 94.2969" stroke="#242E35" stroke-width="2" stroke-linecap="round" stroke-linejoin="round"/>
<path d="M25.0041 66.3784C25.0041 64.1365 22.8953 62.2003 22.1924 61.7927C21.6301 61.4666 21.3556 60.5699 21.2887 60.1622V49.0546L21.5899 48.8508V46.8127L21.1882 46.6089V45.5898H16.4687V46.6089L16.1674 46.8127V48.8508L16.3682 49.0546V59.5508C16.4017 59.9924 16.3683 60.9775 15.9666 61.3851C13.3156 63.0156 12.7198 65.3934 12.7533 66.3784C12.7533 76.2972 12.7533 96.3588 12.7533 97.2556C12.7533 98.1524 13.5566 98.5804 13.9583 98.6823C16.6695 98.6823 22.3731 98.6823 23.4978 98.6823" stroke="#242E35" stroke-width="2" stroke-linecap="round" stroke-linejoin="round"/>
<path d="M141.412 46.8127V48.8508L141.612 49.0546V59.5508C141.646 59.9924 141.612 60.9775 141.211 61.3851C138.56 63.0156 137.964 65.3934 137.997 66.3784V97.2556C137.997 98.1524 138.801 98.5804 139.202 98.6823H148.742C149.867 98.6823 150.215 97.7312 150.248 97.2556V66.3784C150.248 64.1365 148.139 62.2003 147.437 61.7927C146.874 61.4666 146.6 60.5699 146.533 60.1622V49.0546L146.834 48.8508V46.8127L146.432 46.6089V45.5898H141.713V46.6089L141.412 46.8127Z" stroke="#242E35" stroke-width="2" stroke-linecap="round" stroke-linejoin="round"/>
<g style="mix-blend-mode:multiply">
<path d="M97.2422 39.0903C98.5755 39.8601 98.5755 41.7846 97.2422 42.5544L42.0086 74.4435C40.6753 75.2133 39.0086 74.2511 39.0086 72.7115L39.0086 8.93327C39.0086 7.39366 40.6753 6.43141 42.0086 7.20121L97.2422 39.0903Z" fill="#E6C9C9"/>
</g>
<g style="mix-blend-mode:multiply">
<path d="M141.398 70.6019C142.732 71.3717 142.732 73.2962 141.398 74.066L109.658 92.3913C108.325 93.1611 106.658 92.1988 106.658 90.6592L106.658 54.0087C106.658 52.4691 108.325 51.5069 109.658 52.2767L141.398 70.6019Z" fill="#E0E5CD"/>
</g>
</svg>
