<svg width="97" height="125" viewBox="0 0 97 125" fill="none" xmlns="http://www.w3.org/2000/svg">
<path d="M47.9439 21.2569C47.9439 21.2569 46.9448 22.7442 44.4513 22.2513C42.2738 21.8178 37.0391 15.9363 25.972 24.2231C23.1982 26.3279 20.7423 28.8181 18.6794 31.6176L11.7539 40.8819C11.6633 41.0059 11.538 41.1008 11.3937 41.1545C11.2494 41.2082 11.0923 41.2185 10.9421 41.1841C10.7919 41.1497 10.6553 41.0721 10.5491 40.9609C10.4429 40.8497 10.3719 40.7099 10.3449 40.5589C9.61908 36.4452 8.88469 25.5235 18.2012 14.8143C27.5177 4.10516 32.2741 1.09639 40.3182 0.866904C45.5688 0.758966 50.778 1.81275 55.5696 3.95217C57.2775 4.70011 59.3526 5.65204 61.7522 6.87595C71.1455 11.6441 84.6036 21.7498 93.4504 17.2537C93.9067 17.0304 94.2979 16.6944 94.5864 16.2778C94.875 15.8611 95.0513 15.3777 95.0985 14.8738C95.1668 13.7944 94.1677 11.6271 91.3241 13.174C86.6701 15.7238 85.6796 18.9365 90.4702 26.0505C93.8859 31.1501 96.2257 34.0059 95.517 37.6436" stroke="#242E35" stroke-width="2" stroke-linecap="round" stroke-linejoin="round"/>
<path d="M79.5057 93.6801C79.4867 94.2295 79.302 94.7605 78.9755 95.204C78.649 95.6474 78.1959 95.9827 77.6752 96.1661C77.1545 96.3496 76.5904 96.3727 76.0563 96.2325C75.5222 96.0922 75.043 95.7952 74.6809 95.38C73.622 94.1816 72.2045 92.6942 71.5299 92.4987C70.5991 92.2352 69.1389 93.8331 68.5923 94.4875C68.518 94.5813 68.4233 94.657 68.3153 94.7091C68.2074 94.7612 68.0889 94.7883 67.969 94.7883C67.849 94.7883 67.7306 94.7612 67.6226 94.7091C67.5146 94.657 67.4199 94.5813 67.3456 94.4875C66.9186 93.9266 66.5514 92.5922 66.7137 89.5409C67.0467 83.0899 63.7249 81.934 61.7267 84.0843C59.7284 86.2347 61.5644 89.8724 69.4121 88.7165C77.2598 87.5606 77.3879 83.7529 76.5596 81.917C75.8338 80.3361 74.1088 71.4968 73.8868 64.9778C73.8459 64.0064 74.0448 63.0399 74.4661 62.1627C74.8874 61.2855 75.5182 60.5245 76.3034 59.9462C78.1565 58.5948 80.8378 57.4899 83.468 59.4872C83.5582 59.5569 83.6301 59.6473 83.6777 59.7506C83.7253 59.8539 83.747 59.9672 83.7412 60.0807C83.7353 60.1942 83.702 60.3046 83.644 60.4026C83.586 60.5005 83.5051 60.583 83.4082 60.6431C82.819 60.9916 81.5466 61.3401 78.8823 61.4166C73.067 61.5781 73.4 55.96 77.2257 49.8405C80.3767 44.7918 88.1561 40.6442 90.7863 39.3523C91.5746 38.947 92.4672 38.7871 93.3481 38.8933C95.1328 39.1483 97.2335 40.5932 93.8007 46.8657C88.677 56.2915 90.6411 63.8644 90.6411 63.8644C90.6411 63.8644 96.7895 75.9335 85.9956 95.4395C75.2018 114.945 73.6989 113.467 66.2269 116.28C64.6434 116.87 62.9997 117.286 61.3253 117.521C52.598 118.762 44.8613 111.775 44.8613 102.995V87.1186" stroke="#242E35" stroke-width="2" stroke-linecap="round" stroke-linejoin="round"/>
<path d="M44.1357 46.5163C47.5001 46.5163 50.7889 47.5092 53.5862 49.3696C56.3836 51.23 58.5639 53.8742 59.8514 56.9679C61.1389 60.0616 61.4757 63.4658 60.8194 66.75C60.163 70.0342 58.5429 73.051 56.164 75.4188C53.785 77.7866 50.754 79.3991 47.4543 80.0524C44.1546 80.7057 40.7344 80.3704 37.6261 79.0889C34.5178 77.8075 31.8612 75.6374 29.992 72.8532C28.1229 70.0689 27.1252 66.7956 27.1252 63.447C27.1275 58.9574 28.9204 54.6523 32.11 51.4777C35.2996 48.303 39.625 46.5185 44.1357 46.5163V46.5163ZM44.1357 39.7168C39.4199 39.7151 34.8094 41.1054 30.8875 43.7119C26.9656 46.3184 23.9083 50.024 22.1025 54.3599C20.2966 58.6959 19.8233 63.4675 20.7422 68.0713C21.6612 72.6751 23.9313 76.9042 27.2653 80.2238C30.5993 83.5433 34.8476 85.8043 39.4727 86.7206C44.0978 87.6369 48.8921 87.1675 53.2492 85.3716C57.6062 83.5758 61.3303 80.5343 63.9505 76.6317C66.5707 72.7291 67.9692 68.1407 67.9692 63.447C67.9692 57.1548 65.4585 51.1202 60.9891 46.6702C56.5197 42.2202 50.4575 39.7191 44.1357 39.7168V39.7168Z" stroke="#242E35" stroke-width="2" stroke-linecap="round" stroke-linejoin="round"/>
<path d="M45.8358 124.149C54.2872 124.149 61.1384 117.33 61.1384 108.918C61.1384 100.507 54.2872 93.6875 45.8358 93.6875C37.3844 93.6875 30.5332 100.507 30.5332 108.918C30.5332 117.33 37.3844 124.149 45.8358 124.149Z" stroke="#242E35" stroke-width="2" stroke-linecap="round" stroke-linejoin="round"/>
<path d="M73.5294 100.793H65.3828C65.3828 100.793 68.0215 105.986 73.5294 100.793Z" fill="#242E35"/>
<path d="M49.9416 64.4478C49.9416 66.6982 48.1075 68.5305 45.8351 68.5305C43.5626 68.5305 41.7285 66.6982 41.7285 64.4478C41.7285 62.1975 43.5626 60.3652 45.8351 60.3652C48.1075 60.3652 49.9416 62.1975 49.9416 64.4478Z" stroke="#242E35" stroke-width="2"/>
<path d="M34.1797 62.4355C34.1797 62.4355 41.8139 55.9845 48.4661 56.6474C55.1183 57.3104 61.1044 62.4355 61.1044 62.4355" stroke="#242E35" stroke-width="2" stroke-miterlimit="10"/>
<path d="M31.6854 103.105C31.6854 103.105 18.8763 95.175 17.8686 82.2729C17.1086 72.4477 14.1369 60.0301 12.745 54.6755C12.6552 54.3298 12.4867 54.0093 12.2526 53.7388C12.0185 53.4682 11.725 53.2549 11.3949 53.1152C11.0647 52.9756 10.7067 52.9133 10.3485 52.9333C9.99034 52.9534 9.64158 53.0551 9.3292 53.2306C5.55478 55.2875 -0.602129 60.0301 1.88284 68.5295C5.36692 80.4286 16.4767 76.6549 16.4767 76.6549" stroke="#242E35" stroke-width="2" stroke-linecap="round" stroke-linejoin="round"/>
<g style="mix-blend-mode:multiply">
<path d="M44.136 63.4473L29.3457 63.5918C29.4555 67.4345 31.0712 71.082 33.8475 73.7546C36.6237 76.4272 40.3403 77.9128 44.2026 77.894C48.0649 77.8751 51.7666 76.3532 54.5164 73.6536C57.2661 70.954 58.8458 67.2909 58.9177 63.4473H44.136Z" fill="#EFDDC7"/>
</g>
</svg>
