<svg width="378" height="95" viewBox="0 0 378 95" fill="none" xmlns="http://www.w3.org/2000/svg">
<path d="M230.271 26.9335C224.189 26.9335 219.412 28.2382 214.633 30.8424C214.633 16.9404 214.633 4.34298 215.069 0L185.958 5.21108V7.81787L188.999 8.25192C192.905 9.12001 194.215 11.2902 195.075 16.5063C195.951 26.9335 195.512 82.5442 195.075 91.6693C202.896 93.408 211.153 94.7126 219.41 94.7126C242.437 94.7126 256.339 80.374 256.339 57.781C256.339 39.97 245.043 26.9335 230.271 26.9335V26.9335ZM220.278 89.9306C218.539 89.9306 216.364 89.9306 215.064 89.499C214.628 83.4174 214.196 57.781 214.628 35.1904C217.234 34.3198 218.971 33.8858 221.146 33.8858C230.71 33.8858 235.923 45.1811 235.923 59.0806C235.921 76.4651 229.403 89.9306 220.278 89.9306V89.9306ZM76.4676 1.73619H0V5.64512L4.34549 6.07917C9.99061 6.94727 12.1659 10.4222 13.0315 18.6766C14.3386 34.3173 13.9021 62.5605 13.0315 76.0235C12.1634 84.2804 9.99312 88.1919 4.34549 88.6209L0 89.494V92.9689H49.095V89.494L43.8814 88.6209C38.2338 88.1894 36.061 84.2804 35.1929 76.0235C34.7564 70.3734 34.3223 61.2483 34.3223 49.9556L44.7495 50.3896C51.2677 50.3896 54.3061 55.6032 55.6107 62.987H59.5222V32.1496H55.6107C54.3036 39.5359 51.2677 44.747 44.7495 44.747L34.3249 45.1836C34.3249 30.4109 34.7589 16.5088 35.1955 8.25442H50.3997C62.134 8.25442 68.2157 15.6382 72.5586 28.6747L76.9041 27.3701L76.4676 1.73619V1.73619Z" fill="#EFDDC7"/>
<path d="M101.234 26.0654C122.959 26.0654 133.82 40.8381 133.82 60.3878C133.82 79.0694 121.654 94.7152 99.9294 94.7152C78.2069 94.7152 67.3457 79.94 67.3457 60.3878C67.3457 41.7062 79.5091 26.0654 101.234 26.0654V26.0654ZM99.9294 30.4109C90.3703 30.4109 87.7635 43.4449 87.7635 60.3878C87.7635 76.8966 92.109 90.3646 100.8 90.3646C110.786 90.3646 113.397 77.3307 113.397 60.3878C113.397 43.8789 109.057 30.4109 99.9294 30.4109ZM261.985 60.8243C261.985 43.0109 273.28 26.0654 295.439 26.0654C313.681 26.0654 322.375 39.536 322.375 57.347H281.968C281.532 73.4218 289.352 85.1536 304.995 85.1536C311.948 85.1536 315.423 83.4199 319.771 80.3765L321.504 82.5468C317.159 88.6285 307.602 94.7152 295.439 94.7152C275.887 94.7126 261.985 80.8106 261.985 60.8243V60.8243ZM281.968 52.5699L302.389 52.1334C302.389 43.4449 301.084 30.4109 293.7 30.4109C286.316 30.4109 282.4 42.5743 281.968 52.5699V52.5699ZM374.084 29.5428C368.871 27.3676 361.921 26.0654 354.1 26.0654C338.028 26.0654 328.03 35.622 328.03 46.9198C328.03 58.2176 335.409 62.9946 345.848 66.472C356.707 70.3784 359.751 73.4218 359.751 78.6353C359.751 83.8489 355.839 88.6259 348.887 88.6259C340.635 88.6259 334.548 83.8489 329.771 70.8125L326.728 71.6856L327.164 90.8012C332.378 92.9714 341.935 94.7126 350.191 94.7126C367.137 94.7126 378.001 86.0192 378.001 72.5537C378.001 63.4286 373.219 58.2176 361.923 53.8696C349.755 49.0925 345.414 46.0517 345.414 40.4015C345.414 34.7539 349.331 30.8425 354.544 30.8425C362.36 30.8425 367.573 35.622 371.49 47.3538L374.528 46.4857L374.084 29.5428V29.5428ZM190.299 27.8041C182.915 23.4637 169.879 25.6314 162.929 41.2747L163.36 26.068L134.254 31.7156V34.3224L137.295 34.7564C141.209 35.193 142.943 37.3632 143.379 43.0134C144.247 53.4405 143.813 71.6906 143.379 80.8131C142.943 86.0217 141.209 88.6285 137.295 89.065L134.254 89.5016V92.9765H174.658V89.5016L169.445 89.065C165.102 88.6285 163.797 86.0217 163.36 80.8131C162.492 72.5562 162.492 56.0473 162.929 45.6202C165.099 42.5768 174.658 39.9725 183.347 45.6202L190.299 27.8041V27.8041Z" fill="#EFDDC7"/>
</svg>
