<svg width="139" height="93" viewBox="0 0 139 93" fill="none" xmlns="http://www.w3.org/2000/svg">
<path d="M51.4198 53.729C50.9156 52.5638 50.4847 51.3681 50.1298 50.1491C49.7021 48.6544 49.805 47.0577 50.4212 45.6303C51.0373 44.203 52.1287 43.0329 53.5098 42.319L72.5098 32.639C73.8624 31.9521 75.4325 31.8307 76.8746 32.3014C78.3168 32.7721 79.5129 33.7965 80.1998 35.1491L80.9998 36.729C81.5079 37.6704 81.7006 38.75 81.5498 39.809C80.8298 44.129 76.1198 41.809 73.0898 40.909C69.4298 39.779 74.1598 48.579 67.6598 46.199C63.3498 44.619 62.1098 46.479 61.7598 47.909C61.6498 48.369 60.5898 48.909 59.4498 49.419C58.1963 49.9356 57.0897 50.7534 56.2279 51.8C55.3662 52.8467 54.7761 54.0897 54.5098 55.419C54.4698 55.639 54.4398 55.8591 54.4198 56.0791C53.9498 60.8691 59.4198 64.749 63.7198 62.659L87.9398 50.349C87.9398 50.349 105.64 43.0291 104.28 26.9991L135.61 11.2491C136.223 10.9501 136.732 10.4737 137.071 9.88159C137.41 9.28951 137.563 8.60918 137.51 7.92905C137.316 5.57252 136.211 3.3844 134.43 1.82905C133.925 1.38935 133.302 1.10832 132.639 1.02115C131.975 0.933988 131.301 1.04458 130.7 1.33905L98.9898 16.479C86.8398 5.93905 70.7398 16.399 70.7398 16.399L14.3198 47.879C14.3198 47.879 -1.62024 54.879 6.98976 71.799C11.2798 80.239 15.2698 82.8691 17.9898 83.4691C18.5506 83.572 19.1274 83.5484 19.6779 83.4C20.2285 83.2516 20.739 82.9821 21.1721 82.6113C21.6052 82.2404 21.9501 81.7776 22.1815 81.2564C22.4129 80.7353 22.5251 80.1691 22.5098 79.5991C22.3498 60.7491 1.50977 47.599 1.50977 47.599" stroke="#2D373E" stroke-width="2" stroke-linecap="round" stroke-linejoin="round"/>
<path d="M25.7499 81.9998L41.9699 73.7498C45.1103 72.1834 47.8478 69.9148 49.9699 67.1198C50.4264 66.552 50.8001 65.9224 51.0799 65.2498C55.5699 51.7698 46.8299 44.9398 37.8799 45.4898C34.1499 45.7098 28.8799 49.0698 27.3299 51.1798C24.6399 54.9298 25.3299 59.5298 27.5599 63.5498" stroke="#2D373E" stroke-width="2" stroke-linecap="round" stroke-linejoin="round"/>
<path d="M128.74 2.33984C128.74 2.33984 134.22 5.71984 133.66 12.2498" stroke="#2D373E" stroke-width="2" stroke-linecap="round" stroke-linejoin="round"/>
<path d="M115.76 8.59961C116.376 12.4204 118.174 15.9523 120.9 18.6996" stroke="#2D373E" stroke-width="2" stroke-linecap="round" stroke-linejoin="round"/>
<path d="M33.4001 67.2884C36.7524 67.2884 39.4701 64.5708 39.4701 61.2184C39.4701 57.8661 36.7524 55.1484 33.4001 55.1484C30.0477 55.1484 27.3301 57.8661 27.3301 61.2184C27.3301 64.5708 30.0477 67.2884 33.4001 67.2884Z" stroke="#2D373E" stroke-width="2" stroke-linecap="round" stroke-linejoin="round"/>
<path d="M37.5105 72.1787C37.5105 72.1787 31.6505 73.1788 27.9805 63.9688" stroke="#2D373E" stroke-width="2" stroke-linecap="round" stroke-linejoin="round"/>
<g style="mix-blend-mode:multiply">
<path d="M106.039 86.0485L97.5894 92.1985L89.1494 86.0485C83.5593 81.9815 79.0107 76.6495 75.8754 70.4883C72.74 64.3271 71.1069 57.5116 71.1094 50.5985C76.0698 50.372 80.8681 48.7631 84.9623 45.9535C89.0566 43.1438 92.2838 39.2454 94.2794 34.6985L96.2794 30.2285L98.6694 35.2785C100.748 39.6745 103.99 43.4176 108.045 46.1023C112.099 48.787 116.811 50.3108 121.669 50.5085L124.119 50.6085C124.116 57.5233 122.476 64.3391 119.333 70.4987C116.191 76.6583 111.635 81.9867 106.039 86.0485Z" fill="#C5D5E4"/>
</g>
</svg>

