<svg width="62" height="113" viewBox="0 0 62 113" fill="none" xmlns="http://www.w3.org/2000/svg">
<g clip-path="url(#clip0)">
<path d="M5.46533 0.891357H56.7497" stroke="#242E35" stroke-width="2" stroke-linecap="round" stroke-linejoin="round"/>
<path d="M5.46533 7.66455H56.7497" stroke="#242E35" stroke-width="2" stroke-linecap="round" stroke-linejoin="round"/>
<path d="M29.683 53.7595L28.4376 53.5723C14.1023 51.1303 5.14278 36.7101 8.72659 22.6909L12.6151 7.65576" stroke="#242E35" stroke-width="2" stroke-linecap="round" stroke-linejoin="round"/>
<path d="M49.6179 7.65576L53.4974 22.6909C57.0812 36.7101 48.1217 51.1303 33.7864 53.5723L32.541 53.7595" stroke="#242E35" stroke-width="2" stroke-linecap="round" stroke-linejoin="round"/>
<path d="M56.7497 112.109H5.46533" stroke="#242E35" stroke-width="2" stroke-linecap="round" stroke-linejoin="round"/>
<path d="M5.46533 105.335H56.7497" stroke="#242E35" stroke-width="2" stroke-linecap="round" stroke-linejoin="round"/>
<path d="M12.6151 105.335L8.72659 90.3003C5.14278 76.2811 14.1023 61.8609 28.4376 59.4278C28.8497 59.3565 29.2619 59.2941 29.683 59.2406V53.7595" stroke="#242E35" stroke-width="2" stroke-linecap="round" stroke-linejoin="round"/>
<path d="M49.6179 105.335L53.4974 90.3003C57.0812 76.2811 48.1217 61.8609 33.7864 59.4278C33.3832 59.3565 32.9711 59.2941 32.541 59.2406V53.7595" stroke="#242E35" stroke-width="2" stroke-linecap="round" stroke-linejoin="round"/>
<path d="M41.7156 99.6136C36.1607 101.77 33.7416 98.9273 32.7023 96.5032C32.1963 95.264 31.9435 93.937 31.9587 92.5995V49.2676H29.8622L29.7367 92.6619C29.7476 93.9903 29.4949 95.3078 28.9931 96.5388C27.9627 98.963 25.5436 101.815 19.9798 99.6581C11.0829 96.218 14.2009 103.098 14.2009 103.098H47.4945C47.4945 103.098 50.6304 96.1734 41.7156 99.6136Z" fill="#E8CDCD"/>
<path d="M51.1231 31.1666C51.0687 36.3802 48.9356 41.3591 45.1925 45.009C41.4494 48.6589 36.4026 50.6811 31.1613 50.6312H31.0359C28.1364 50.6223 25.2733 49.9882 22.6438 48.7728C20.0144 47.5573 17.6811 45.7892 15.8046 43.5904C14.0071 41.4875 12.8042 38.9467 12.3194 36.2288L12.0506 34.6335C12.0506 34.6335 15.2402 30.7922 18.9942 33.6977C19.472 34.0779 19.9103 34.5049 20.3024 34.9721C23.2948 38.4836 25.1136 31.8885 28.1509 29.3484C28.7436 28.8148 29.5029 28.5002 30.3012 28.4572C30.9163 28.4852 31.5193 28.6371 32.0737 28.9036C32.6281 29.1702 33.1224 29.5459 33.5266 30.008C37.6211 33.8759 40.2731 28.4928 42.8445 24.2506C43.8928 22.3768 45.5949 20.95 47.6289 20.24C49.8933 23.4392 51.1132 27.254 51.1231 31.1666Z" fill="#E8CDCD"/>
<path d="M5.47423 7.65576L1.46037 33.3858C0.812027 37.5299 1.23146 41.7699 2.67935 45.7088C4.12724 49.6477 6.55623 53.1567 9.73898 55.9074V55.9074C10.2037 56.3112 10.7873 56.5546 11.4026 56.6012C12.0179 56.6478 12.6318 56.4951 13.1526 56.1658V56.1658C13.5597 55.9094 13.895 55.5547 14.1273 55.1347C14.3596 54.7148 14.4814 54.2433 14.4814 53.7639C14.4814 53.2846 14.3596 52.8131 14.1273 52.3931C13.895 51.9732 13.5597 51.6185 13.1526 51.362V51.362C12.6227 51.0212 11.9945 50.8644 11.3656 50.916C10.7368 50.9676 10.1428 51.2247 9.67625 51.6472L8.99537 52.2711C6.0208 54.9826 3.75129 58.3709 2.38126 62.1458C1.01123 65.9207 0.581481 69.9697 1.12887 73.946L5.47423 105.318" stroke="#242E35" stroke-width="2" stroke-linecap="round" stroke-linejoin="round"/>
<path d="M56.5347 7.65576L60.5486 33.3858C61.1969 37.5299 60.7775 41.7699 59.3296 45.7088C57.8817 49.6477 55.4527 53.1567 52.27 55.9074C51.8053 56.3112 51.2216 56.5546 50.6063 56.6012C49.9911 56.6478 49.3772 56.4951 48.8564 56.1658V56.1658C48.4493 55.9094 48.114 55.5547 47.8816 55.1347C47.6493 54.7148 47.5274 54.2433 47.5274 53.7639C47.5274 53.2846 47.6493 52.8131 47.8816 52.3931C48.114 51.9732 48.4493 51.6185 48.8564 51.362V51.362C49.3862 51.0212 50.0145 50.8644 50.6433 50.916C51.2721 50.9676 51.8662 51.2247 52.3327 51.6472L53.0136 52.2711C55.9881 54.9826 58.2576 58.3709 59.6277 62.1458C60.9977 65.9207 61.4275 69.9697 60.8801 73.946L56.5347 105.318" stroke="#242E35" stroke-width="2" stroke-linecap="round" stroke-linejoin="round"/>
<path d="M12.0327 34.5978C12.0327 34.5978 15.2222 30.7566 18.9763 33.662C19.4541 34.0423 19.8923 34.4692 20.2844 34.9365C23.2769 38.448 25.0957 31.8528 28.133 29.3128C28.7258 28.7792 29.4849 28.4645 30.2832 28.4216C30.8984 28.4496 31.5014 28.6014 32.0558 28.868C32.6102 29.1345 33.1045 29.5102 33.5087 29.9723C37.6032 33.8403 40.2552 28.4572 42.8266 24.2149C43.8748 22.3412 45.5769 20.9144 47.611 20.2043" stroke="#242E35" stroke-width="2" stroke-linecap="round" stroke-linejoin="round"/>
</g>
<defs>
<clipPath id="clip0">
<rect width="62" height="113" fill="white"/>
</clipPath>
</defs>
</svg>
