<svg width="96" height="125" viewBox="0 0 96 125" fill="none" xmlns="http://www.w3.org/2000/svg">
<g clip-path="url(#clip0)">
<path d="M47.4449 21.2569C47.4449 21.2569 46.4458 22.7442 43.9523 22.2513C41.7747 21.8178 36.5401 15.9363 25.473 24.2231C22.6992 26.3279 20.2432 28.8181 18.1804 31.6176L11.2549 40.8819C11.1643 41.0059 11.039 41.1008 10.8947 41.1545C10.7503 41.2082 10.5933 41.2185 10.4431 41.1841C10.2929 41.1497 10.1562 41.0721 10.05 40.9609C9.94386 40.8497 9.87287 40.7099 9.84591 40.5589C9.12006 36.4452 8.38567 25.5235 17.7022 14.8143C27.0187 4.10516 31.7751 1.09639 39.8192 0.866904C45.0698 0.758966 50.2789 1.81275 55.0706 3.95217C56.7785 4.70011 58.8536 5.65204 61.2531 6.87595C70.6465 11.6441 84.1046 21.7498 92.9514 17.2537C93.4077 17.0304 93.7989 16.6944 94.0874 16.2778C94.376 15.8611 94.5523 15.3777 94.5995 14.8738C94.6678 13.7944 93.6687 11.6271 90.8251 13.174C86.1711 15.7238 85.1805 18.9365 89.9712 26.0505C93.3869 31.1501 95.7267 34.0059 95.0179 37.6436" stroke="#242E35" stroke-width="2" stroke-linecap="round" stroke-linejoin="round"/>
<path d="M79.0066 93.6799C78.9876 94.2293 78.8028 94.7603 78.4763 95.2037C78.1498 95.6471 77.6967 95.9824 77.176 96.1659C76.6554 96.3493 76.0912 96.3724 75.5572 96.2322C75.0231 96.092 74.5438 95.7949 74.1818 95.3797C73.1229 94.1813 71.7054 92.6939 71.0308 92.4985C70.1 92.235 68.6397 93.8329 68.0932 94.4873C68.0189 94.581 67.9241 94.6568 67.8162 94.7089C67.7082 94.761 67.5898 94.788 67.4698 94.788C67.3498 94.788 67.2314 94.761 67.1234 94.7089C67.0155 94.6568 66.9208 94.581 66.8464 94.4873C66.4195 93.9263 66.0523 92.592 66.2145 89.5407C66.5476 83.0897 63.2257 81.9338 61.2275 84.0841C59.2293 86.2344 61.0653 89.8722 68.913 88.7163C76.7607 87.5603 76.8888 83.7526 76.0605 81.9168C75.3346 80.3359 73.6096 71.4966 73.3876 64.9776C73.3467 64.0062 73.5456 63.0396 73.9669 62.1625C74.3882 61.2853 75.0191 60.5243 75.8043 59.9459C77.6573 58.5945 80.3387 57.4896 82.9688 59.487C83.059 59.5567 83.131 59.647 83.1785 59.7504C83.2261 59.8537 83.2479 59.9669 83.242 60.0805C83.2361 60.194 83.2028 60.3044 83.1448 60.4023C83.0869 60.5002 83.006 60.5828 82.9091 60.6429C82.3198 60.9914 81.0475 61.3398 78.3832 61.4163C72.5678 61.5778 72.9009 55.9597 76.7265 49.8402C79.8776 44.7916 87.657 40.6439 90.2871 39.352C91.0755 38.9467 91.9681 38.7868 92.8489 38.893C94.6337 39.148 96.7344 40.5929 93.3015 46.8654C88.1779 56.2912 90.1419 63.8641 90.1419 63.8641C90.1419 63.8641 96.2903 75.9332 85.4965 95.4392C74.7027 114.945 73.1998 113.466 65.7278 116.28C64.1442 116.87 62.5006 117.286 60.8262 117.521C52.0989 118.761 44.3622 111.775 44.3622 102.995V87.1184" stroke="#242E35" stroke-width="2" stroke-linecap="round" stroke-linejoin="round"/>
<path d="M43.6363 46.517C47.0007 46.517 50.2895 47.51 53.0869 49.3704C55.8842 51.2307 58.0645 53.8749 59.352 56.9686C60.6395 60.0623 60.9763 63.4665 60.32 66.7507C59.6636 70.035 58.0435 73.0517 55.6646 75.4195C53.2856 77.7873 50.2546 79.3998 46.9549 80.0531C43.6552 80.7064 40.235 80.3711 37.1267 79.0897C34.0184 77.8082 31.3618 75.6382 29.4926 72.8539C27.6235 70.0697 26.6258 66.7963 26.6258 63.4477C26.6281 58.9581 28.421 54.653 31.6106 51.4784C34.8002 48.3038 39.1256 46.5193 43.6363 46.517V46.517ZM43.6363 39.7175C38.9205 39.7158 34.31 41.1062 30.3881 43.7127C26.4662 46.3191 23.409 50.0247 21.6031 54.3607C19.7972 58.6967 19.3239 63.4683 20.2429 68.072C21.1618 72.6758 23.4319 76.9049 26.7659 80.2245C30.0999 83.5441 34.3482 85.805 38.9733 86.7213C43.5984 87.6376 48.3927 87.1682 52.7498 85.3724C57.1068 83.5765 60.8309 80.535 63.4511 76.6324C66.0713 72.7298 67.4698 68.1415 67.4698 63.4477C67.4698 57.1556 64.9591 51.121 60.4897 46.6709C56.0203 42.2209 49.9582 39.7198 43.6363 39.7175V39.7175Z" stroke="#242E35" stroke-width="2" stroke-linecap="round" stroke-linejoin="round"/>
<path d="M45.3357 124.15C53.7871 124.15 60.6383 117.331 60.6383 108.919C60.6383 100.508 53.7871 93.6885 45.3357 93.6885C36.8843 93.6885 30.0331 100.508 30.0331 108.919C30.0331 117.331 36.8843 124.15 45.3357 124.15Z" stroke="#242E35" stroke-width="2" stroke-linecap="round" stroke-linejoin="round"/>
<path d="M73.0289 100.794H64.8823C64.8823 100.794 67.521 105.987 73.0289 100.794Z" fill="#242E35"/>
<path d="M49.4423 64.4476C49.4423 66.6979 47.6081 68.5302 45.3357 68.5302C43.0633 68.5302 41.2291 66.6979 41.2291 64.4476C41.2291 62.1973 43.0633 60.365 45.3357 60.365C47.6081 60.365 49.4423 62.1973 49.4423 64.4476Z" stroke="#242E35" stroke-width="2"/>
<path d="M33.6793 62.4362C33.6793 62.4362 41.3135 55.9852 47.9657 56.6481C54.6179 57.3111 60.6041 62.4362 60.6041 62.4362" stroke="#242E35" stroke-width="2" stroke-miterlimit="10"/>
<path d="M31.1859 103.106C31.1859 103.106 18.3767 95.1757 17.3691 82.2737C16.6091 72.4484 13.6374 60.0309 12.2454 54.6763C12.1556 54.3306 11.9872 54.0101 11.7531 53.7395C11.519 53.469 11.2255 53.2556 10.8953 53.116C10.5652 52.9763 10.2072 52.9141 9.849 52.9341C9.49082 52.9541 9.14207 53.0558 8.82969 53.2314C5.05527 55.2882 -1.10164 60.0309 1.38333 68.5302C4.8674 80.4293 15.9772 76.6556 15.9772 76.6556" stroke="#242E35" stroke-width="2" stroke-linecap="round" stroke-linejoin="round"/>
<g style="mix-blend-mode:multiply">
<path d="M43.6363 63.4478L28.8461 63.5922C28.9559 67.4349 30.5716 71.0825 33.3478 73.7551C36.1241 76.4277 39.8406 77.9133 43.703 77.8945C47.5653 77.8756 51.267 76.3537 54.0167 73.6541C56.7665 70.9545 58.3461 67.2913 58.418 63.4478H43.6363Z" fill="#EFDDC7"/>
</g>
</g>
<defs>
<clipPath id="clip0">
<rect width="96" height="125" fill="white"/>
</clipPath>
</defs>
</svg>
