<svg width="170" height="236" viewBox="0 0 170 236" fill="none" xmlns="http://www.w3.org/2000/svg">
<path opacity="0.6" d="M137.683 137.795L89.089 168.755L20.693 75.0441L70.2772 40.7783L137.683 137.795Z" fill="#C5D5E4"/>
<path d="M134.119 232.239C132.24 220.116 134.324 207.71 140.059 196.865C149.644 179.227 139.782 150.227 129.545 152.86C122.555 154.641 127.564 167.31 136.832 161.451C136.832 161.451 148 154.621 155.089 149.574C155.527 149.262 155.896 148.866 156.176 148.407C156.455 147.949 156.638 147.438 156.714 146.907C156.79 146.376 156.757 145.834 156.618 145.316C156.478 144.798 156.234 144.313 155.901 143.892L100.752 72.1541" stroke="#242E35" stroke-width="2" stroke-linecap="round" stroke-linejoin="round"/>
<path d="M137.109 117.287C137.109 117.287 137.307 112.952 155.703 106.063C174.099 99.1746 168.356 91.1179 161.069 90.7418C153.782 90.3657 135.663 97.9078 128.436 105.43" stroke="#242E35" stroke-width="2" stroke-linecap="round" stroke-linejoin="round"/>
<path d="M124.515 101.451C124.515 101.451 136.139 89.8709 149.545 84.5064C162.951 79.1418 162.198 61.801 142.654 70.2141C123.109 78.6271 114.158 87.1787 114.158 87.1787" stroke="#242E35" stroke-width="2" stroke-linecap="round" stroke-linejoin="round"/>
<path d="M110.871 83.378L117.743 78.053C123.822 73.3021 130.139 68.9075 136.634 64.7505C138.268 63.8007 139.801 62.6864 141.208 61.4249C144.455 57.7429 147.406 50.2999 137.604 49.0924C125.287 47.5484 100.752 72.0748 100.752 72.0748" stroke="#242E35" stroke-width="2" stroke-linecap="round" stroke-linejoin="round"/>
<path d="M136.832 161.451L104.218 181.84C104.218 181.84 102.574 163.292 80.2574 150.801C75.9268 148.41 72.2621 144.976 69.5959 140.811C66.9297 136.645 65.3465 131.88 64.99 126.947C64.3392 117.54 64.4055 108.097 65.1881 98.6994C66.6138 81.3587 58.0594 76.3703 51.3267 75.0836C50.4042 74.9167 49.4556 74.964 48.5543 75.2218C47.6529 75.4796 46.823 75.941 46.1283 76.5704C45.4337 77.1998 44.8929 77.9802 44.5479 78.8516C44.2029 79.723 44.0629 80.6621 44.1386 81.5962L48.3564 135.044L31.8613 115.129L40.7722 154.898C42.9537 164.667 48.1817 173.491 55.7029 180.098L67.9801 190.886C69.5157 192.24 70.7381 193.911 71.5622 195.784C72.3863 197.658 72.7925 199.688 72.7525 201.734L72.0791 234.02" stroke="#242E35" stroke-width="2" stroke-linecap="round" stroke-linejoin="round"/>
<path d="M44.3564 83.3977C44.3564 83.3977 52.6337 76.5485 54.2574 93.7903C54.2574 93.7903 52.5545 106.954 45.7426 99.9862" stroke="#242E35" stroke-width="2" stroke-linecap="round" stroke-linejoin="round"/>
<path d="M36.4357 120.851L2.99014 77.9343C2.56925 77.3901 2.26461 76.7653 2.09492 76.0987C1.92524 75.432 1.89416 74.7377 2.00367 74.0586C2.11318 73.3795 2.36086 72.7301 2.7315 72.1505C3.10214 71.5709 3.58788 71.0736 4.15851 70.6892L69.9406 26.6248C71.9208 15.3415 76.2971 10.4718 78.9308 8.49224C79.6681 7.90676 80.5571 7.54362 81.4936 7.44544C82.43 7.34727 83.3751 7.5182 84.2179 7.93803C93.2674 12.8473 79.1684 40.7982 79.1684 40.7982L89.0694 54.952L94.2377 82.0518L71.8615 53.8829L88.2971 125.938L71.5051 106.618L74.8516 146.921" stroke="#242E35" stroke-width="2" stroke-linecap="round" stroke-linejoin="round"/>
<path d="M46.3762 110.359L20.693 75.044L70.2772 40.7783L79.8415 54.3381" stroke="#242E35" stroke-width="2" stroke-linecap="round" stroke-linejoin="round"/>
<path d="M96.3564 164.44L137.683 137.795L102.02 90.0688" stroke="#242E35" stroke-width="2" stroke-linecap="round" stroke-linejoin="round"/>
<path d="M89.0891 54.9518L96.3564 13.6785L113.584 32.4643L122.04 1.97949L126.455 9.67988" stroke="#242E35" stroke-width="2" stroke-linecap="round" stroke-linejoin="round"/>
<path d="M113.584 5.36449L122.04 1.97949" stroke="#242E35" stroke-width="2" stroke-linecap="round" stroke-linejoin="round"/>
<path d="M69.9802 26.6248L83.2872 47.014" stroke="#242E35" stroke-width="2" stroke-linecap="round" stroke-linejoin="round"/>
</svg>
