<svg width="172" height="131" viewBox="0 0 172 131" fill="none" xmlns="http://www.w3.org/2000/svg">
<g clip-path="url(#clip0_5795_33168)">
<g clip-path="url(#clip1_5795_33168)">
<path d="M111.978 51.249L110.329 72.7588C110.093 75.2056 108.903 77.4372 107.01 79.0709L61.8593 117.641C58.8298 120.172 54.2862 119.793 51.8178 116.668L30.3737 89.8695C28.7072 87.8179 28.9697 84.7041 31.084 82.9418L34.3975 80.1861" stroke="#242E35" stroke-width="2" stroke-miterlimit="10" stroke-linecap="round" stroke-linejoin="round"/>
<path d="M57.8669 97.6336L65.7488 98.5589L61.76 91.6982L69.4648 90.1798L63.5829 84.9527L70.5394 81.0267L63.2761 77.9057L68.599 72.0866L60.75 71.3198L64.1253 64.0864L56.3577 65.7005L57.2202 57.9143L50.518 61.8702L48.9039 54.1026L43.614 60.0802L39.7837 53.1865L36.567 60.387L30.8107 54.9684L29.9811 62.9131L22.8434 59.6006L24.5203 67.2725L16.6384 66.3472L20.6273 73.2079L12.9224 74.7263L18.7415 80.0491L11.8478 83.8794L19.0483 87.0962L13.7255 92.9152L21.5744 93.6821L18.262 100.82L26.0296 99.2056L25.0085 107.025L31.8692 103.036L33.4833 110.803L38.7104 104.922L42.5407 111.815L45.7575 104.615L51.5765 109.938L52.3434 102.089L59.5438 105.305L57.8669 97.6336Z" fill="#E0E5CD"/>
<path d="M108.186 49.7211C108.186 49.7211 140 61.9621 140.432 30.6178C140.864 -0.726451 170.131 6.42129 156.06 27.0397C141.988 47.658 106.693 11.5006 99.007 40.9623" stroke="#242E35" stroke-width="2" stroke-miterlimit="10" stroke-linecap="round" stroke-linejoin="round"/>
<path d="M72.7653 94.1241C73.42 92.4998 73.0906 90.9145 71.9686 89.494C70.7508 88.0107 69.252 87.1646 67.218 86.9258C64.4212 86.5974 61.4124 87.6361 58.5085 89.9758C57.6562 90.649 57.0911 91.5106 56.6547 92.5935C56 94.2179 56.3294 95.8031 57.4514 97.2236C58.5734 98.6442 60.1679 99.5531 62.202 99.7919C64.9988 100.12 68.0076 99.0816 70.9114 96.7418C71.701 96.1643 72.3289 95.207 72.7653 94.1241ZM69.4363 94.8159C68.7426 95.4561 67.9201 95.8751 67.0348 96.3898C65.0101 97.3893 63.2365 98.0059 61.6811 98.0811C60.1257 98.1562 58.9471 97.657 58.1781 96.7419C57.4092 95.8268 57.4329 94.747 58.1864 93.5982C58.5631 93.0238 59.0984 92.4165 59.8879 91.839C60.5817 91.1987 61.4042 90.7798 62.2894 90.2651C64.3142 89.2655 66.0878 88.6489 67.6431 88.5738C69.1985 88.4986 70.4399 88.9021 71.1461 89.913C71.915 90.8281 71.8914 91.9079 71.1379 93.0567C70.6983 93.7268 70.1631 94.3341 69.4363 94.8159ZM77.4591 72.147C77.8328 71.1599 77.9522 70.1429 77.596 69.2247C77.563 69.0661 77.4673 69.0033 77.4344 68.8448C77.3057 68.6235 77.177 68.4022 77.0484 68.1809C76.9526 68.1181 76.9197 67.9596 76.9197 67.9596C76.8867 67.801 76.6953 67.6755 76.6623 67.5169C75.4446 66.0336 73.7873 65.2204 71.7533 64.9816C69.9735 64.7727 68.134 65.0722 66.3305 65.9431C65.9507 66.1047 65.5709 66.2663 65.224 66.5865C64.9399 66.8109 64.6228 66.8768 64.3387 67.1012C63.8961 67.3585 63.4864 67.7744 63.0438 68.0317C62.8225 68.1604 62.6341 68.4476 62.35 68.672C62.2872 68.7677 62.1616 68.9592 62.0988 69.0549C61.6264 69.5665 61.4081 70.108 61.1271 70.7451C60.6279 71.9238 60.6999 73.0664 61.2805 74.2687C61.4421 74.6485 61.7623 74.9954 61.9239 75.3752C62.0526 75.5966 62.244 75.7221 62.3727 75.9435C63.5246 77.1097 64.8947 77.7345 66.6744 77.9435C67.6915 78.0629 68.8341 77.9908 69.848 77.6975C70.0065 77.6645 70.165 77.6316 70.3863 77.5029C70.7662 77.3413 71.2417 77.2425 71.6216 77.0808C71.7801 77.0479 71.9386 77.015 72.0642 76.8235C72.6026 76.6289 73.108 76.2759 73.7091 75.9856C73.9304 75.8569 74.089 75.824 74.2146 75.6325C74.4359 75.5038 74.6572 75.3752 74.7828 75.1837C74.9413 75.1508 75.0669 74.9593 75.2882 74.8306C75.351 74.7349 75.5723 74.6062 75.6351 74.5105C75.9192 74.2861 76.0448 74.0946 76.2331 73.8074C76.2959 73.7117 76.4215 73.5202 76.4843 73.4245C77.0525 72.9757 77.3037 72.5928 77.4591 72.147ZM74.1301 72.8388C73.9088 72.9675 73.7832 73.1589 73.5619 73.2876C72.9937 73.7364 72.3298 74.1224 71.6658 74.5084C70.1794 75.3134 68.7857 75.7684 67.5175 76.0319C67.359 76.0649 67.0419 76.1308 66.8834 76.1637C66.7249 76.1966 66.4706 76.1668 66.3121 76.1997C64.7567 76.2749 63.5781 75.7757 62.8091 74.8606C62.0402 73.9454 62.0639 72.8656 62.8173 71.7169L62.8801 71.6211C63.2569 71.0467 63.7294 70.5351 64.4561 70.0534C64.6774 69.9247 64.803 69.7332 65.0243 69.6046C66.5406 68.5453 68.027 67.7404 69.7378 67.2195C69.8963 67.1866 70.0548 67.1536 70.2133 67.1207C70.5304 67.0548 70.7517 66.9261 71.0059 66.956C71.1645 66.923 71.4815 66.8572 71.64 66.8242C72.6869 66.6894 73.6082 66.746 74.2454 67.027C74.3411 67.0898 74.4368 67.1526 74.4368 67.1526C74.5326 67.2154 74.6283 67.2781 74.724 67.3409C75.0112 67.5293 75.2984 67.7177 75.6186 68.0646C75.7143 68.1274 75.7472 68.2859 75.8759 68.5072C76.0046 68.7285 76.1333 68.9498 76.1991 69.2669C76.3309 69.901 76.1456 70.6009 75.7061 71.2711C75.4549 71.654 74.9196 72.2613 74.1301 72.8388Z" fill="#242E35"/>
<path d="M76.8007 73.3599C76.9263 73.1684 77.1147 72.8812 77.1445 72.627C77.1147 72.8812 76.9263 73.1684 76.8007 73.3599Z" fill="#242E35"/>
<path d="M71.9859 66.5054C67.5885 77.1759 85.1948 79.1398 85.1948 79.1398L55.6767 85.1083C43.2398 86.5351 39.6288 83.482 38.8145 80.7573C38.2278 78.7294 39.0379 76.6594 40.584 75.3459L78.4563 44.3246C80.6334 42.4665 83.4869 41.8736 86.3166 42.3605L107.719 46.6775C107.719 46.6775 110.94 57.0051 102.835 60.1777C94.7298 63.3503 92.6195 57.1741 99.3392 51.3128C101.926 49.0389 104.151 49.4033 107.777 50.1382" stroke="#242E35" stroke-width="2" stroke-miterlimit="10" stroke-linecap="round" stroke-linejoin="round"/>
</g>
</g>
<defs>
<clipPath id="clip0_5795_33168">
<rect width="171" height="131" fill="white" transform="translate(0.5)"/>
</clipPath>
<clipPath id="clip1_5795_33168">
<rect width="96.1691" height="154.214" fill="white" transform="translate(85.0801 -38) rotate(33.2611)"/>
</clipPath>
</defs>
</svg>
