<svg width="325" height="210" viewBox="0 0 325 210" fill="none" xmlns="http://www.w3.org/2000/svg">
<g clip-path="url(#clip0)">
<path d="M270.106 85.5601C258.277 69.4723 225.787 43.7012 216.846 39.7023L234.021 11.4797C238.2 13.3337 274.914 22.6492 294.593 49.3856L270.106 85.5601Z" fill="#EFDDC7"/>
<path d="M229.028 208.272C229.028 208.272 248.384 187.189 255.481 140.688C256.226 135.511 256.611 130.289 256.634 125.059C256.634 119.283 258.17 110.427 267.387 112.971L267.924 113.262C270.814 114.831 273.072 117.348 274.315 120.386C274.958 121.971 275.252 123.674 275.178 125.382C275.104 127.089 274.663 128.761 273.885 130.284C272.881 132.275 271.287 133.91 269.319 134.965C267.351 136.02 265.105 136.446 262.886 136.183C260.448 135.946 258.148 134.949 256.311 133.333" stroke="#242E35" stroke-width="2" stroke-linecap="round" stroke-linejoin="round"/>
<path d="M183.373 61.3366L194.818 40.8822C197.453 36.0508 201.617 32.2256 206.662 30.0038C213.59 27.062 224.082 26.3419 238.261 35.3204C246.86 40.5242 254.627 46.9853 261.304 54.4878C264.231 57.9629 266.244 62.1116 267.158 66.558C268.073 71.0045 267.861 75.6083 266.542 79.9524L262.241 94.3855C262.241 94.3855 259.522 104.682 264.944 104.145L306.744 36.8679C309.901 31.8335 311.159 25.8429 310.292 19.9681C309.386 14.2224 306.437 8.21632 298.356 6.82205C293.407 6.03264 288.344 7.20978 284.254 10.1009C279.646 13.2725 272.072 17.8843 267.049 17.7617C266.467 17.735 265.898 17.5775 265.385 17.301C264.873 17.0244 264.429 16.636 264.088 16.1646C263.747 15.6933 263.517 15.1512 263.415 14.5788C263.313 14.0063 263.342 13.4184 263.5 12.8588C264.545 9.02837 265.405 1.9804 257.724 2.30215C255.8 2.41531 253.928 2.97067 252.254 3.92484C250.581 4.87902 249.151 6.20618 248.077 7.80264C243.699 14.2071 234.712 27.3225 227.108 38.446C216.862 53.4 195.862 57.7666 181.023 47.21C174.402 42.4909 169.762 35.5042 170.838 25.2081C171.034 23.1709 171.71 21.2086 172.809 19.4808C173.909 17.753 175.402 16.3083 177.167 15.2643C185.877 10.2694 206.692 5.78017 248.522 31.5819C308.295 68.4305 323.519 95.4886 322.428 118.548C321.337 141.607 299.601 135.095 283.302 123.726C270.935 115.085 247.647 100.223 237.109 93.5428C234.623 91.929 231.642 91.2538 228.701 91.6386C225.761 92.0235 223.055 93.4432 221.071 95.6418C218.306 98.7981 216.831 103.716 219.719 111.255C226.785 129.641 257.77 123.175 254.498 94.4008C251.226 65.6267 228.967 75.4325 228.967 75.4325C228.967 75.4325 218.091 78.6961 213.206 88.4407C213.206 88.4407 206.032 70.2845 200.164 74.36C193.02 79.3089 201.254 85.1925 194.188 96.5765C189.579 103.9 182.697 106.398 178.826 109.631C178.109 110.214 177.532 110.949 177.136 111.782C176.739 112.616 176.533 113.527 176.533 114.449C176.533 115.372 176.739 116.283 177.136 117.116C177.532 117.949 178.109 118.684 178.826 119.268C182.851 122.531 190.501 127.373 197.997 124.753C208.858 120.969 203.42 111.745 197.997 113.921C193.297 115.79 189.41 122.868 191.238 131.418C191.481 132.582 192.117 133.628 193.039 134.381C193.962 135.134 195.116 135.548 196.308 135.555H200.486C201.417 135.553 202.33 135.811 203.122 136.298C203.914 136.785 204.555 137.483 204.972 138.313C205.927 140.354 207.648 141.939 209.765 142.725C211.426 143.232 213.212 143.145 214.816 142.48C216.42 141.814 217.741 140.611 218.552 139.079C221.225 134.237 229.197 124.033 233.913 128.001C240.442 133.425 250.089 145.897 228.905 168.925C207.721 191.954 170.223 206.05 145.214 185.458C120.205 164.865 137.073 141.561 150.652 149.145C164.232 156.729 158.779 195.631 131.419 188.583C104.982 181.78 98.4529 160.866 113.646 109.692C114.698 106.164 116.007 102.718 117.563 99.3803L141.174 48.8188C141.174 48.8188 128.378 38.5226 72.3993 48.2825C72.3993 48.2825 39.2639 54.5491 10.9521 42.1539L6.15911 118.027C6.15911 118.027 4.62297 125.351 14.9307 112.879C25.2385 100.407 26.8822 117.751 16.5591 125.887C7.342 133.119 -0.784345 143.767 3.74739 145.667C4.32868 145.879 4.95803 145.924 5.56373 145.797C6.16943 145.67 6.72707 145.375 7.17304 144.947L29.7088 124.937C30.8299 123.913 32.2245 123.234 33.724 122.984C35.2235 122.734 36.7636 122.923 38.1578 123.527C40.969 124.845 42.8585 129.043 36.1146 135.601C25.7761 145.667 13.1795 150.677 8.6631 157.603C6.28201 161.28 8.04863 163.502 12.227 162.199C16.4055 160.897 21.0447 157.189 30.6612 149.237C41.9522 139.937 45.762 137.485 47.7283 139.155C48.2736 139.652 48.6626 140.295 48.8481 141.008C49.0335 141.721 49.0074 142.472 48.7729 143.17C47.7743 146.326 43.2272 152.271 31.1989 160.024C17.6805 168.803 15.6989 173.093 19.3857 175.085C20.3155 175.553 21.3714 175.71 22.3977 175.533C23.4239 175.357 24.366 174.856 25.0849 174.104C28.8639 170.335 38.0656 162.414 45.3779 156.101C46.0443 155.498 46.8356 155.048 47.6956 154.783C48.5557 154.518 49.4636 154.445 50.3551 154.569C52.7976 154.952 55.1787 158.721 47.2827 164.942C34.8857 174.794 29.4938 175.897 39.4329 179.176C41.5372 179.865 43.7111 180.323 45.9155 180.539C50.14 180.953 57.1604 182.945 63.7353 190.897C74.0584 203.353 95.2576 195.493 95.2576 195.493" stroke="#242E35" stroke-width="2" stroke-linecap="round" stroke-linejoin="round"/>
<path d="M150.407 142.695C150.407 142.695 148.625 121.244 158.211 117.169C159.035 116.844 159.918 116.691 160.804 116.721C161.69 116.75 162.561 116.961 163.362 117.341C164.163 117.72 164.877 118.259 165.46 118.926C166.044 119.592 166.483 120.371 166.752 121.214C167.305 122.884 167.996 125.151 168.841 128.246C171.406 137.746 179.41 126.101 181.883 129.687L186.645 135.601" stroke="#242E35" stroke-width="2" stroke-linecap="round" stroke-linejoin="round"/>
<path d="M180.669 100.146C180.669 100.146 166.352 111.898 160.207 96.0554C158.86 92.4165 158.384 88.5135 158.819 84.6586C159.254 80.8036 160.587 77.1036 162.711 73.8543C166.567 67.8175 172.635 62.1332 180.639 66.1934C195.309 73.8543 185.109 89.6356 179.671 87.9962C175.293 86.6938 171.176 83.7521 174.479 80.5652C175 80.1049 175.632 79.7869 176.313 79.6419C176.994 79.4969 177.701 79.53 178.365 79.7378C179.92 80.1426 181.304 81.034 182.313 82.2812L185.017 85.4834C185.017 85.4834 188.243 76.4896 180.086 74.8655" stroke="#242E35" stroke-width="2" stroke-linecap="round" stroke-linejoin="round"/>
<path d="M177.95 142.695L198.597 146.479C198.597 146.479 188.273 158.399 177.95 142.695Z" fill="#242E35"/>
<path d="M20.9065 55.4377C20.9065 55.4377 29.0636 60.8463 73.1367 59.7738C74.824 76.3703 73.1577 93.1358 68.2363 109.079C51.0642 110.938 33.6926 109.328 17.1582 104.345L20.9065 55.4377Z" fill="#E0E5CD"/>
<path d="M58.4047 125.351V160.391C58.4047 160.391 75.7943 169.247 100.235 164.911V129.166L58.4047 125.351Z" fill="#C5D5E4"/>
<path d="M116.549 67.2353H84.4891C84.1593 67.2617 83.8276 67.2197 83.5148 67.112C83.2021 67.0042 82.9152 66.8331 82.672 66.6092C82.4289 66.3854 82.2349 66.1138 82.1022 65.8115C81.9694 65.5092 81.9009 65.1828 81.9009 64.8528C81.9009 64.5228 81.9694 64.1964 82.1022 63.8941C82.2349 63.5918 82.4289 63.3202 82.672 63.0964C82.9152 62.8726 83.2021 62.7014 83.5148 62.5937C83.8276 62.4859 84.1593 62.4439 84.4891 62.4703H116.549C117.15 62.5184 117.71 62.7902 118.119 63.2317C118.527 63.6732 118.754 64.252 118.754 64.8528C118.754 65.4536 118.527 66.0324 118.119 66.4739C117.71 66.9154 117.15 67.1873 116.549 67.2353Z" fill="#C5D5E4"/>
<path d="M114.906 76.7808H84.4891C84.1593 76.8072 83.8276 76.7652 83.5148 76.6574C83.2021 76.5496 82.9152 76.3785 82.672 76.1547C82.4289 75.9308 82.2349 75.6592 82.1022 75.3569C81.9694 75.0547 81.9009 74.7282 81.9009 74.3982C81.9009 74.0682 81.9694 73.7418 82.1022 73.4395C82.2349 73.1372 82.4289 72.8656 82.672 72.6418C82.9152 72.418 83.2021 72.2468 83.5148 72.1391C83.8276 72.0313 84.1593 71.9893 84.4891 72.0157H114.906C115.235 71.9893 115.567 72.0313 115.88 72.1391C116.192 72.2468 116.479 72.418 116.723 72.6418C116.966 72.8656 117.16 73.1372 117.292 73.4395C117.425 73.7418 117.494 74.0682 117.494 74.3982C117.494 74.7282 117.425 75.0547 117.292 75.3569C117.16 75.6592 116.966 75.9308 116.723 76.1547C116.479 76.3785 116.192 76.5496 115.88 76.6574C115.567 76.7652 115.235 76.8072 114.906 76.7808Z" fill="#C5D5E4"/>
<path d="M114.921 86.9851H114.752L84.3354 85.0086C83.7039 84.9679 83.1145 84.6788 82.6967 84.2047C82.279 83.7305 82.0672 83.1103 82.1079 82.4805C82.1487 81.8506 82.4386 81.2627 82.914 80.8461C83.3893 80.4294 84.0112 80.2182 84.6427 80.2588L115.074 82.22C115.676 82.2836 116.232 82.5719 116.629 83.027C117.027 83.4822 117.237 84.0705 117.217 84.6737C117.198 85.277 116.95 85.8506 116.524 86.2794C116.098 86.7081 115.525 86.9602 114.921 86.9851Z" fill="#C5D5E4"/>
<path d="M108.392 96.3006H108.146L82.0312 93.5886C81.7195 93.5564 81.4173 93.4633 81.1417 93.3146C80.8661 93.1659 80.6226 92.9645 80.425 92.722C80.026 92.232 79.8384 91.6041 79.9036 90.9763C79.9688 90.3485 80.2814 89.7722 80.7726 89.3742C81.2638 88.9763 81.8933 88.7892 82.5228 88.8542L108.638 91.5508C109.244 91.6194 109.801 91.9159 110.196 92.38C110.59 92.8442 110.793 93.4409 110.761 94.0486C110.73 94.6563 110.467 95.2293 110.027 95.6505C109.587 96.0718 109.002 96.3098 108.392 96.3159V96.3006Z" fill="#C5D5E4"/>
<path d="M100.511 118.027H100.158L78.9741 114.962C78.3807 114.834 77.8582 114.486 77.5123 113.988C77.1664 113.49 77.0229 112.88 77.1106 112.281C77.1984 111.682 77.511 111.138 77.9852 110.76C78.4595 110.382 79.06 110.197 79.6654 110.243L100.865 113.308C101.48 113.372 102.046 113.673 102.443 114.147C102.84 114.621 103.036 115.23 102.99 115.846C102.944 116.461 102.66 117.035 102.197 117.445C101.734 117.855 101.13 118.069 100.511 118.042V118.027Z" fill="#C5D5E4"/>
<path d="M230.426 107.01C232.327 107.01 233.867 105.474 233.867 103.578C233.867 101.683 232.327 100.146 230.426 100.146C228.526 100.146 226.985 101.683 226.985 103.578C226.985 105.474 228.526 107.01 230.426 107.01Z" stroke="#242E35" stroke-width="2" stroke-linecap="round" stroke-linejoin="round"/>
<path d="M240.626 106.091C240.626 106.091 237.185 96.2545 229.735 96.3771" stroke="#242E35" stroke-width="2" stroke-linecap="round" stroke-linejoin="round"/>
<path d="M138.255 55.4377L146.919 57.7666C146.919 57.7666 99.9276 137.041 113.692 178.808" stroke="#242E35" stroke-width="2" stroke-linecap="round" stroke-linejoin="round"/>
</g>
<defs>
<clipPath id="clip0">
<rect x="0.920837" y="0.800537" width="323.166" height="208.988" fill="white"/>
</clipPath>
</defs>
</svg>
