<svg width="150" height="123" viewBox="0 0 150 123" fill="none" xmlns="http://www.w3.org/2000/svg">
<path d="M56.6907 30.3587C55.1057 24.7736 48.6301 14.1017 35.4071 16.0942C34.9543 19.0376 38.1242 34.2078 56.6907 30.3587Z" fill="#E0E5CD"/>
<path d="M60.4215 20.7577C66.2264 20.6723 78.2108 17.1794 79.7085 3.8913C76.9825 2.69207 61.5089 1.82761 60.4215 20.7577Z" fill="#E0E5CD"/>
<path d="M61.7094 38.5625C64.9104 40.7924 72.8194 43.5863 78.8478 36.923C77.8307 35.1996 69.7265 28.6597 61.7094 38.5625Z" fill="#E0E5CD"/>
<path d="M120.235 64.0334C93.0101 79.4544 95.8051 66.9529 98.3504 64.0334C107.295 53.7729 123.338 43.3108 125.041 42.9624C126.809 42.6006 128.016 43.5507 129.707 41.9154C131.399 40.2801 135.456 37.6081 139.096 36.495C142.736 35.3818 140.596 31.6759 137.562 25.8507C135.135 21.1906 132.248 21.7814 131.108 22.6593C128.849 24.073 123.795 26.8816 121.643 26.8063C119.491 26.7309 118.542 29.8043 118.337 31.3503C118.418 32.2431 119.237 35.1652 121.862 39.7112C105.307 43.8818 96.6007 25.6012 103.95 22.3811C111.3 19.1611 115.223 28.2131 110.86 34.3494C106.497 40.4857 83.0916 44.1224 72.151 45.4978C63.7314 46.5562 54.2886 50.4203 49.4858 52.7569M34.9153 112.758L29.8609 116.033C28.2139 116.984 24.3644 118.152 22.1432 115.218C19.3668 111.55 8.29936 97.5159 4.45547 84.5818C2.90412 77.9008 5.24237 78.5273 6.58211 77.4244C7.59455 76.5909 31.7843 62.7484 45.7458 54.7947" stroke="#242E35" stroke-width="2" stroke-linecap="round" stroke-linejoin="round"/>
<path d="M93.0104 69.4519C74.9528 82.7867 89.6869 88.9828 91.1303 100.53C92.2624 109.587 88.6397 121.814 61.9221 121.814C35.2045 121.814 30.6761 108.908 31.3553 100.53C31.8987 93.8282 40.9405 81.1335 45.3934 75.6239C46.0727 74.7183 47.8387 72.6805 49.469 71.7748C51.5068 70.6427 64 78 73.9707 76C75.992 75.5946 78.9707 72 72.4707 71.5C65.9707 71 59.5 72.9372 59 71C58.5 69.0628 62.6648 69.0628 65.4707 69C68.2766 68.9372 75.9528 68.0069 75.9707 66C75.9886 63.9931 58.6012 66.7935 51.7331 67.02C49.0916 62.9444 44.2613 54.431 46.0726 52.9819C48.3368 51.1705 54.2238 55.4725 56.9408 56.1518C59.6579 56.831 61.6956 54.3404 63.507 52.9819C65.3184 51.6234 67.5826 54.3404 68.0354 54.114C68.5637 54.3404 70.1185 54.5668 72.111 53.6612C74.6016 52.529 79.13 51.5 79.13 54.114C79.13 56.8498 61.1783 65.5818 61.1783 59C61.1783 54.8935 61.2452 49.102 61.1783 38.7262M61.1783 38.7262C62.5368 26.726 54.1614 9.05632 38.1479 12.679C38.1479 24.2265 48.2463 29.1172 56.9408 27.8492C67.809 26.2643 82.2999 17.4339 81.3942 5.43359C71.0695 5.43359 60.7145 21.3585 61.0164 27.8492C61.073 33.114 61.1381 32.4998 61.1783 38.7262ZM61.1783 38.7262C66.6884 39.1691 74.5061 36.343 76.413 26.4907C71.6582 25.8114 63.507 27.8492 61.1783 38.7262Z" stroke="#242E35" stroke-width="2" stroke-linecap="round" stroke-linejoin="round"/>
<path d="M66.9426 94.631H63.5959C63.5959 92.25 62.7588 91.6548 61.3647 91.6548C59.9706 91.6548 59.4122 93.7381 60.5277 94.9286C61.6432 96.119 67.5 99.0952 67.5 103.262C67.5 106.595 64.7113 108.024 63.317 108.321V111H59.6914V108.619C56.1218 108.143 55.4149 103.857 55.5077 101.774L59.4122 101.476C59.3192 102.468 59.468 104.571 60.8067 105.048C62.48 105.643 64.1536 103.56 61.3647 100.881C58.5758 98.2024 55.508 96.4167 55.7869 92.5476C56.01 89.4524 58.4828 88.6786 59.6914 88.6786V86H63.317V88.381C63.8748 88.6786 65.3102 88.986 66.2027 89.9384C67.0952 90.8907 67.0355 93.6389 66.9426 94.631Z" fill="#C5D5E4"/>
<g style="mix-blend-mode:multiply">
<path d="M88.8448 58.5075C88.8461 57.1744 89.3763 55.8964 90.319 54.9542C91.2617 54.012 92.5397 53.4827 93.8722 53.4827C92.5388 53.4827 91.2601 52.9528 90.3173 52.0096C89.3745 51.0664 88.8448 49.7871 88.8448 48.4531C88.8454 49.1134 88.716 49.7673 88.4639 50.3775C88.2118 50.9877 87.8419 51.5422 87.3754 52.0093C86.909 52.4764 86.3551 52.847 85.7454 53.0998C85.1357 53.3526 84.4822 53.4827 83.8223 53.4827C85.1543 53.4827 86.4318 54.0122 87.3737 54.9545C88.3157 55.8968 88.8448 57.1749 88.8448 58.5075Z" fill="#C5D5E4"/>
</g>
<g style="mix-blend-mode:multiply">
<path d="M106.625 84.4572C106.625 83.6544 106.783 82.8594 107.09 82.1177C107.398 81.376 107.848 80.702 108.416 80.1344C108.983 79.5667 109.657 79.1164 110.399 78.8092C111.141 78.5019 111.936 78.3438 112.738 78.3438C111.117 78.3438 109.562 77.6998 108.416 76.5533C107.269 75.4068 106.625 73.8518 106.625 72.2305C106.625 73.8518 105.981 75.4068 104.835 76.5533C103.688 77.6998 102.133 78.3438 100.512 78.3438C101.315 78.3438 102.109 78.5019 102.851 78.8092C103.593 79.1164 104.267 79.5667 104.835 80.1344C105.402 80.702 105.852 81.376 106.16 82.1177C106.467 82.8594 106.625 83.6544 106.625 84.4572Z" fill="#C5D5E4"/>
</g>
<g style="mix-blend-mode:multiply">
<path d="M45.3297 46.1857C45.3297 45.6507 45.4352 45.1209 45.64 44.6267C45.8447 44.1325 46.1449 43.6835 46.5233 43.3054C46.9016 42.9273 47.3508 42.6276 47.845 42.4233C48.3392 42.219 48.8689 42.1141 49.4036 42.1147C48.3232 42.1147 47.287 41.6854 46.523 40.921C45.759 40.1567 45.3297 39.12 45.3297 38.0391C45.3297 39.12 44.9005 40.1567 44.1365 40.921C43.3725 41.6854 42.3363 42.1147 41.2559 42.1147C41.7906 42.1141 42.3203 42.219 42.8145 42.4233C43.3087 42.6276 43.7579 42.9273 44.1362 43.3054C44.5146 43.6835 44.8148 44.1325 45.0195 44.6267C45.2243 45.1209 45.3297 45.6507 45.3297 46.1857Z" fill="#C5D5E4"/>
</g>
<g style="mix-blend-mode:multiply">
<path d="M33.2218 82.6691C33.2218 80.5941 34.0457 78.6041 35.5123 77.1368C36.9789 75.6696 38.968 74.8453 41.0421 74.8453C38.968 74.8453 36.9789 74.021 35.5123 72.5537C34.0457 71.0865 33.2218 69.0965 33.2218 67.0215C33.2218 69.0957 32.3985 71.0849 30.9329 72.552C29.4674 74.0191 27.4795 74.844 25.4062 74.8453C27.4795 74.8466 29.4674 75.6714 30.9329 77.1385C32.3985 78.6056 33.2218 80.5949 33.2218 82.6691Z" fill="#C5D5E4"/>
</g>
<g style="mix-blend-mode:multiply">
<path d="M96.5719 91.6182C96.5732 90.5176 97.0111 89.4626 97.7894 88.6848C98.5677 87.9071 99.6228 87.4702 100.723 87.4702C100.178 87.4708 99.6383 87.364 99.1347 87.1558C98.6311 86.9477 98.1735 86.6422 97.788 86.257C97.4025 85.8718 97.0966 85.4143 96.888 84.9107C96.6793 84.4072 96.5719 83.8674 96.5719 83.3223C96.5725 83.8672 96.4657 84.4068 96.2576 84.9103C96.0495 85.4139 95.7441 85.8714 95.359 86.2567C94.9738 86.642 94.5165 86.9475 94.0132 87.1558C93.5099 87.364 92.9704 87.4708 92.4258 87.4702C93.5254 87.4702 94.58 87.9072 95.3575 88.6851C96.1351 89.463 96.5719 90.5181 96.5719 91.6182Z" fill="#C5D5E4"/>
</g>
<path d="M110.512 62.7852C111.345 64.3594 115.623 65.0076 120.513 63.8964C117.457 66.3967 113.29 69.1748 115.234 74.731" stroke="#242E35" stroke-width="2" stroke-linecap="round" stroke-linejoin="round"/>
</svg>
