<svg width="402" height="57" viewBox="0 0 402 57" fill="none" xmlns="http://www.w3.org/2000/svg">
<path d="M150.735 22.2742V47.4963H141.592V22.2742H132.344V14.2441H159.957V22.2742H150.735Z" fill="#EFDDC7"/>
<path d="M181.325 37.4653H166.801C167.088 40.2297 168.681 41.4408 171.006 41.4408C173.175 41.4408 174.977 40.9669 177.407 39.6768L180.646 45.153C177.59 46.9696 174.429 47.9964 170.562 47.9964C163.117 47.9964 159.016 42.6782 159.016 35.0168C159.016 26.4075 163.822 22.0107 170.327 22.0107C177.119 22.0107 181.351 26.5128 181.351 35.7803C181.351 36.5174 181.351 37.044 181.325 37.4653ZM170.092 28.3558C168.159 28.3558 167.088 29.6985 166.801 32.147H173.88C173.436 29.6195 172.6 28.3558 170.092 28.3558Z" fill="#EFDDC7"/>
<path d="M197.103 48.0218C189.84 48.0218 185.504 43.3618 185.504 34.9632C185.504 27.3017 189.37 22.0361 197.286 22.0361C201.962 22.0361 204.626 24.2214 206.795 27.723L200.943 32.1987C199.767 30.0135 198.958 28.9604 197.129 28.9604C194.961 28.9604 193.864 31.1456 193.864 35.0948C193.864 39.044 195.039 41.0712 197.364 41.0712C198.958 41.0712 200.107 40.1761 201.648 37.8329L207.03 42.0717C204.156 46.3368 201.492 48.0218 197.103 48.0218Z" fill="#EFDDC7"/>
<path d="M226.023 47.4952V33.3308C226.023 30.0925 224.952 29.25 223.202 29.25C221.399 29.25 220.328 30.0925 220.328 33.2518V47.4952H211.838V16.2703L220.328 12.8477V24.2213C221.896 23.0366 223.62 22.0361 226.546 22.0361C231.979 22.0361 234.566 25.6957 234.566 32.2514V47.4952H226.023Z" fill="#EFDDC7"/>
<path d="M254.864 48.0221C245.067 48.0221 239.816 40.703 239.816 30.8827C239.816 20.1935 246.034 13.7432 254.89 13.7432C262.988 13.7432 266.201 17.2711 268.474 23.5372L260.193 26.7755C259.017 23.6951 257.894 21.7469 254.864 21.7469C251.05 21.7469 249.404 25.5907 249.404 30.8563C249.404 35.9376 250.997 39.9658 254.968 39.9658C257.842 39.9658 259.07 38.3861 260.846 35.2531L268.579 39.3866C266.384 43.7833 262.701 48.0221 254.864 48.0221Z" fill="#EFDDC7"/>
<path d="M289.451 31.9618C288.38 30.7771 287.152 29.8819 285.506 29.8819C283.442 29.8819 282.162 30.8824 282.162 33.9101V47.4953H273.672V22.5627H282.162V24.3794C283.625 22.9576 285.271 22.0625 287.439 22.0625C289.242 22.0625 290.443 22.4837 291.436 23.1156L289.451 31.9618Z" fill="#EFDDC7"/>
<path d="M309.619 47.4951V45.8364C308.104 47.0212 306.327 48.0216 303.454 48.0216C298.02 48.0216 295.434 44.362 295.434 37.8064V22.5625H303.976V36.7269C303.976 39.9653 305.047 40.8078 306.797 40.8078C308.548 40.8078 309.619 39.9653 309.619 36.8059V22.5625H318.161V47.4951H309.619Z" fill="#EFDDC7"/>
<path d="M338.461 47.4953V33.3308C338.461 30.0925 337.39 29.25 335.639 29.25C333.837 29.25 332.766 30.0925 332.766 33.2518V47.4953H324.275V22.5627H332.766V24.2214C334.333 23.0366 336.057 22.0361 338.983 22.0361C344.417 22.0361 347.003 25.6957 347.003 32.2514V47.4953H338.461Z" fill="#EFDDC7"/>
<path d="M363.538 48.0218C356.276 48.0218 351.939 43.3618 351.939 34.9632C351.939 27.3017 355.806 22.0361 363.721 22.0361C368.397 22.0361 371.062 24.2214 373.23 27.723L367.379 32.1987C366.203 30.0135 365.393 28.9604 363.565 28.9604C361.396 28.9604 360.299 31.1456 360.299 35.0948C360.299 39.044 361.475 41.0712 363.8 41.0712C365.393 41.0712 366.543 40.1761 368.084 37.8329L373.465 42.0717C370.592 46.3368 367.927 48.0218 363.538 48.0218Z" fill="#EFDDC7"/>
<path d="M392.459 47.4952V33.3308C392.459 30.0925 391.388 29.25 389.637 29.25C387.835 29.25 386.764 30.0925 386.764 33.2518V47.4952H378.273V16.2703L386.764 12.8477V24.2213C388.331 23.0366 390.055 22.0361 392.981 22.0361C398.415 22.0361 401.001 25.6957 401.001 32.2514V47.4952H392.459Z" fill="#EFDDC7"/>
<path d="M0 0V19.0088H18.8614V57H37.6966V19.0088H56.558V0H0Z" fill="#EFDDC7"/>
<path d="M75.3938 37.9912V19.0088H56.5586V57H113.09V37.9912H75.3938Z" fill="#EFDDC7"/>
<path d="M113.091 0H75.3945V19.0088H113.091V0Z" fill="#EFDDC7"/>
</svg>
