<svg width="373" height="136" viewBox="0 0 373 136" fill="none" xmlns="http://www.w3.org/2000/svg">
<path d="M153.964 0.00145952V30.5209C154.959 29.5738 155.85 28.6239 156.849 27.7965C159.836 25.3334 163.331 24.1237 167.158 23.8654C171.95 23.5415 176.459 24.4053 180.408 27.3121C184.072 30.0087 186.168 33.7457 187.351 38.0562C188.028 40.5701 188.367 43.1632 188.358 45.7667C188.382 57.5601 188.386 69.3539 188.368 81.1482C188.368 81.3613 188.345 81.5743 188.33 81.8224H168.384C168.368 81.5495 168.339 81.2708 168.339 80.9921C168.339 71.1191 168.365 61.246 168.319 51.3701C168.329 49.8428 168.132 48.3212 167.735 46.8465C166.624 42.9563 163.287 41.7305 159.928 42.3799C156.693 43.0044 155.113 45.2983 154.43 48.2897C154.152 49.5067 154.082 50.7937 154.078 52.0486C154.05 61.6532 154.063 71.2592 154.063 80.8651C154.063 81.1745 154.063 81.4838 154.063 81.8238H134.046V80.7455C134.046 54.1878 134.046 27.6336 134.046 1.08273C134.046 0.72231 134.001 0.360425 133.976 0L153.964 0.00145952Z" fill="#EFDDC7"/>
<path d="M0.892914 25.0999C1.25626 25.116 1.62252 25.1451 1.98149 25.1451C8.64425 25.1451 15.307 25.1451 21.9727 25.1262C22.5286 25.1262 22.7154 25.3553 22.892 25.8076C27.0274 36.4112 31.1701 47.0148 35.3201 57.6184C35.4062 57.8373 35.4996 58.0562 35.6586 58.4371C36.3226 56.7663 36.9267 55.2531 37.525 53.7355C41.1847 44.4568 44.84 35.1762 48.4909 25.8937C48.7054 25.3465 48.9564 25.1291 49.5766 25.132C56.0934 25.1597 62.6103 25.1481 69.13 25.151C69.365 25.151 69.5984 25.1729 69.9224 25.1875C69.2628 26.7838 68.6383 28.3029 68.0094 29.819C61.2386 46.1359 54.4713 62.4543 47.7073 78.7741C44.4591 86.5964 41.2129 94.4212 37.9686 102.248C37.7789 102.71 37.576 102.921 37.0303 102.92C30.3923 102.899 23.7515 102.908 17.115 102.907C16.9282 102.907 16.7429 102.88 16.4583 102.858C17.0303 101.503 17.5732 100.211 18.1175 98.9185C20.3656 93.5972 22.6177 88.2779 24.8736 82.9606C24.9691 82.7578 25.0177 82.5362 25.0157 82.3121C25.0136 82.088 24.9611 81.8672 24.8619 81.6662C17.4258 64.1479 9.99888 46.6276 2.58122 29.1054C2.03256 27.8126 1.45617 26.5328 0.892914 25.2458V25.0999Z" fill="#EFDDC7"/>
<path d="M372.116 0.147392C371.366 1.89845 370.602 3.6495 369.869 5.41952C363.886 19.857 357.903 34.2959 351.921 48.7362C351.642 49.4089 351.337 50.07 351.095 50.7587C350.924 51.2577 350.647 51.4022 350.132 51.4008C345.999 51.3789 341.866 51.3876 337.729 51.3876H327.1C327.235 51.0403 327.33 50.782 327.435 50.5267L348.2 0.344386C348.247 0.233486 348.28 0.116748 348.32 0.00292969C356.053 0.00292969 363.787 0.00292969 371.521 0.00292969C371.725 0.0270456 371.924 0.0755485 372.116 0.147392V0.147392Z" fill="#EFDDC7"/>
<path d="M228.092 136C227.45 135.899 226.805 135.818 226.167 135.694C220.256 134.542 216.545 130.869 214.692 125.313C212.908 119.963 213.233 114.66 216.052 109.708C218.93 104.659 223.31 102.018 229.216 102.161C232.572 102.243 235.463 103.41 237.679 106.016C237.788 106.12 237.902 106.217 238.022 106.308V103.098C238.371 103.073 238.606 103.042 238.844 103.042C242.125 103.042 245.41 103.057 248.687 103.029C249.327 103.029 249.51 103.209 249.509 103.852C249.489 113.964 249.489 124.076 249.509 134.188C249.509 134.849 249.297 135.002 248.674 134.999C245.393 134.984 242.108 135.015 238.831 135.024C238.594 135.024 238.358 134.977 238.054 134.945V131.701C237.803 131.93 237.662 132.038 237.545 132.17C235.559 134.398 233.049 135.553 230.103 135.837C229.866 135.875 229.632 135.929 229.403 136H228.092ZM238.371 119.096C238.392 117.383 237.742 115.728 236.56 114.487C235.377 113.246 233.757 112.516 232.044 112.454C228.266 112.308 225.04 115.081 225.007 118.937C224.972 122.86 228.095 125.448 231.447 125.574C235.451 125.726 238.467 122.511 238.371 119.096V119.096Z" fill="#EFDDC7"/>
<path d="M332.718 136C331.667 135.844 330.616 135.692 329.566 135.533C323.38 134.601 318.499 130.032 317.107 123.9C316.072 119.345 316.344 114.928 318.607 110.767C320.952 106.463 324.561 103.725 329.337 102.622C333.091 101.754 336.815 101.936 340.403 103.429C345.182 105.416 348.08 109.059 349.439 113.978C350.153 116.552 350.341 119.245 349.993 121.894H327.876C327.876 123.255 328.412 124.312 329.286 125.174C331.841 127.696 336.229 127.526 338.611 124.843C338.874 124.551 339.049 124.28 339.563 124.481C342.601 125.686 345.656 126.851 348.703 128.031C348.778 128.075 348.847 128.127 348.911 128.186C347.161 131.164 344.435 133.446 341.196 134.643C339.361 135.35 337.423 135.751 335.458 135.832C335.221 135.863 334.987 135.918 334.761 135.994L332.718 136ZM338.82 115.305C338.832 112.942 336.552 110.68 333.036 110.849C330.225 110.983 327.918 112.988 328.02 115.305H338.82Z" fill="#EFDDC7"/>
<path d="M305.576 136C304.847 135.888 304.104 135.791 303.372 135.663C296.545 134.459 291.886 130.67 290.101 123.91C288.654 118.428 289.388 113.155 292.905 108.508C295.336 105.298 298.625 103.39 302.543 102.572C306.312 101.787 310.017 101.999 313.595 103.506C313.841 103.61 314.143 103.966 314.146 104.207C314.183 107.486 314.171 110.764 314.171 114.161C313.869 114.016 313.643 113.91 313.423 113.797C310.577 112.337 307.646 111.9 304.698 113.373C302 114.717 301.114 116.962 301.229 119.21C301.384 122.212 303.087 124.31 305.712 125.103C308.314 125.889 310.784 125.552 313.154 124.29L314.105 123.788C314.133 123.948 314.152 124.11 314.162 124.272C314.162 127.359 314.152 130.446 314.173 133.532C314.173 134.021 314.027 134.272 313.571 134.459C311.766 135.202 309.923 135.749 307.955 135.834C307.643 135.867 307.334 135.92 307.03 135.994L305.576 136Z" fill="#EFDDC7"/>
<path d="M108.001 30.2757V25.202H127.275V81.8195H108.03V76.6509C107.909 76.7394 107.794 76.8369 107.688 76.9428C105.024 80.2304 101.492 82.0573 97.4213 82.8555C87.1528 84.8692 76.6494 80.3471 70.9424 71.5816C66.7778 65.1859 65.1712 58.1729 65.822 50.6244C66.4466 43.3897 69.1374 37.0187 74.2125 31.7773C79.6262 26.187 86.2729 23.4714 94.0709 23.8508C98.4967 24.0653 102.545 25.4559 105.974 28.3744C106.66 28.9508 107.284 29.5987 108.001 30.2757ZM108.447 53.6027C108.456 47.0012 103.376 41.8911 96.7909 41.8794C90.1573 41.8677 85.0004 46.9735 84.9902 53.5633C84.9786 60.1122 90.1164 65.2268 96.7135 65.237C103.334 65.2457 108.438 60.1852 108.447 53.6027Z" fill="#EFDDC7"/>
<path d="M317.349 53.7107C317.014 64.4884 312.636 73.1182 303.272 78.9434C299.186 81.4882 294.663 82.8015 289.864 83.1984C284.054 83.6785 278.452 82.8628 273.205 80.2888C264.282 75.9111 258.889 68.7698 257.154 58.9843C255.883 51.8341 256.888 44.9758 260.51 38.6297C264.793 31.1148 271.297 26.4832 279.688 24.6213C287.983 22.7754 295.959 23.7895 303.297 28.2066C310.794 32.7199 315.233 39.4294 316.821 48.0285C316.93 48.6253 317.044 49.2236 317.095 49.8277C317.193 51.0856 317.26 52.3434 317.349 53.7107ZM286.952 65.0035C293.433 65.0225 298.269 60.1225 298.305 53.5006C298.34 47.115 293.421 42.1523 287.043 42.1348C280.596 42.1187 275.661 47.0173 275.651 53.4436C275.636 60.0422 280.474 64.9846 286.952 65.0035Z" fill="#EFDDC7"/>
<path d="M253.265 53.2087C253.029 63.6698 249.163 71.9362 240.833 77.8811C236.343 81.0913 231.26 82.7534 225.769 83.1955C218.839 83.7544 212.304 82.4761 206.362 78.7858C198.997 74.2097 194.562 67.5746 193.083 59.0456C191.799 51.6853 192.839 44.6431 196.691 38.1788C201.383 30.3093 208.434 25.7609 217.403 24.2652C225.301 22.952 232.829 24.1631 239.659 28.4765C247.279 33.2919 251.635 40.2845 252.909 49.1973C253.107 50.6347 253.164 52.0953 253.265 53.2087ZM222.935 65.0021C229.316 64.986 234.235 60.0407 234.23 53.6581C234.23 47.0508 229.388 42.1304 222.906 42.1304C216.424 42.1304 211.568 47.064 211.577 53.6567C211.59 60.0947 216.518 65.0196 222.937 65.0035L222.935 65.0021Z" fill="#EFDDC7"/>
<path d="M286.131 134.999C282.37 134.999 278.727 134.999 275.083 134.999C274.488 134.999 274.514 134.634 274.516 134.22C274.516 128.723 274.516 123.227 274.516 117.731C274.516 116.457 274.336 115.206 273.544 114.138C271.88 111.895 268.356 112.171 266.922 114.656C266.28 115.768 266.153 117.005 266.148 118.246C266.129 123.621 266.129 128.995 266.148 134.369C266.148 134.878 266.017 135.025 265.487 135.019C262.108 134.987 258.727 134.977 255.347 135.009C254.737 135.009 254.543 134.884 254.545 134.261C254.559 124.096 254.559 113.93 254.545 103.763C254.545 103.169 254.755 103.022 255.308 103.025C258.688 103.043 262.068 103.043 265.448 103.025C265.991 103.025 266.178 103.194 266.156 103.737C266.119 104.652 266.145 105.571 266.145 106.628C266.28 106.547 266.406 106.452 266.521 106.344C269.099 102.726 272.731 101.675 276.913 102.27C281.594 102.943 284.793 106.073 285.668 110.706C285.954 112.205 286.105 113.726 286.122 115.251C286.172 121.501 286.144 127.751 286.144 134.001C286.131 134.325 286.131 134.636 286.131 134.999Z" fill="#EFDDC7"/>
<path d="M210.215 134.993C206.505 134.993 202.884 134.984 199.271 135.002C198.644 135.002 198.656 134.66 198.656 134.208C198.663 128.614 198.663 123.021 198.656 117.427C198.656 116.185 198.415 114.998 197.622 114.011C196.688 112.844 195.426 112.478 193.974 112.698C192.274 112.952 191.218 113.992 190.733 115.565C190.504 116.381 190.395 117.226 190.408 118.074C190.38 123.448 190.395 128.822 190.395 134.196C190.395 134.456 190.395 134.714 190.395 135C189.877 135 189.448 135 189.017 135C185.807 135.016 182.597 135.024 179.387 135.057C178.942 135.057 178.756 134.919 178.766 134.481C178.778 133.97 178.766 133.46 178.766 132.949C178.766 123.246 178.763 113.543 178.756 103.839C178.756 103.388 178.749 103.032 179.378 103.035C182.928 103.052 186.478 103.044 190.03 103.048C190.153 103.063 190.274 103.087 190.392 103.121V106.708C190.887 106.099 191.222 105.638 191.608 105.222C193.594 103.079 196.099 102.18 198.975 102.145C202.857 102.1 206.06 103.411 208.24 106.752C209.494 108.652 210.177 110.871 210.21 113.147C210.301 120.271 210.252 127.398 210.256 134.523C210.264 134.662 210.234 134.802 210.215 134.993Z" fill="#EFDDC7"/>
<path d="M158.316 97.8825C156.856 97.3543 155.469 97.1237 154.018 97.2827C150.92 97.6213 149.822 100.136 149.981 102.619C150.014 103.152 150.439 103.036 150.751 103.038C152.769 103.05 154.787 103.038 156.805 103.038H157.803V112.266C157.564 112.278 157.309 112.3 157.053 112.301C154.962 112.301 152.871 112.327 150.779 112.289C150.135 112.278 149.959 112.472 149.96 113.114C149.982 120.118 149.973 127.122 149.973 134.126C149.973 135.1 149.973 135.034 148.99 135.024C145.634 134.99 142.277 135.008 138.921 135.006H138.447C138.431 134.787 138.405 134.602 138.405 134.423C138.405 127.372 138.405 120.319 138.405 113.264C138.405 112.32 138.405 112.316 137.447 112.311C136.572 112.311 135.696 112.289 134.821 112.323C134.325 112.342 134.126 112.194 134.131 111.672C134.149 109.022 134.149 106.372 134.131 103.722C134.131 103.16 134.338 103.016 134.86 103.035C135.807 103.069 136.757 103.015 137.704 103.045C138.249 103.063 138.413 102.867 138.412 102.329C138.412 100.162 138.61 98.0226 139.343 95.9563C141.036 91.1774 144.481 88.5143 149.385 87.6155C152.072 87.1266 154.735 87.2025 157.374 87.9905C158.068 88.1977 158.342 88.4881 158.327 89.2425C158.279 91.7947 158.31 94.3497 158.31 96.9004C158.316 97.2069 158.316 97.5118 158.316 97.8825Z" fill="#EFDDC7"/>
<path d="M319.839 69.8539C319.849 62.3186 325.835 56.3956 333.409 56.4292C340.735 56.4613 346.294 62.107 346.281 69.5023C346.266 77.0055 340.298 82.8905 332.731 82.8701C325.496 82.8526 319.83 77.131 319.839 69.8539Z" fill="#EFDDC7"/>
<path d="M173.664 119.006C173.664 124.012 173.664 129.018 173.664 134.024C173.664 134.993 173.664 134.995 172.695 134.996C169.463 134.996 166.23 134.979 162.998 135.011C162.288 135.011 162.037 134.852 162.04 134.086C162.066 124.049 162.066 114.013 162.04 103.978C162.04 103.248 162.213 103.023 162.966 103.032C166.295 103.073 169.625 103.052 172.953 103.039C173.433 103.039 173.691 103.085 173.683 103.699C173.655 108.806 173.667 113.905 173.667 119.007L173.664 119.006Z" fill="#EFDDC7"/>
<path d="M174.358 93.5267C174.565 96.3868 171.878 100.038 167.646 99.902C164.349 99.797 161.383 97.2623 161.379 93.5092C161.379 89.8612 164.169 87.0435 167.958 87.0653C171.748 87.0872 174.574 90.3646 174.358 93.5267Z" fill="#EFDDC7"/>
</svg>
