<svg width="435" height="316" viewBox="0 0 435 316" fill="none" xmlns="http://www.w3.org/2000/svg">
<path d="M68.6465 177.538C70.602 184.836 54.0878 212.29 46.7896 214.246C39.4913 216.202 25.7209 201.592 23.7653 194.294C21.8098 186.996 26.1409 179.494 33.4391 177.538C40.7374 175.583 66.6909 170.24 68.6465 177.538Z" fill="#FAE8D1"/>
<path d="M162.933 164.545C172.089 155.388 195.97 164.424 216.272 184.727C236.575 205.029 225.428 232.533 216.272 241.689C207.116 250.845 159.737 292.572 139.435 272.27C119.132 251.967 153.777 173.701 162.933 164.545Z" fill="#FAE8D1"/>
<path d="M46.0745 249.926C62.3532 244.982 138.203 241.609 131.165 256.964C124.127 272.318 97.3515 178.052 107.181 154.469C102.789 160.883 85.2814 190.015 24.0692 210.781C22.138 212.695 21.5825 212.903 21.5461 212.767" stroke="#242E35" stroke-width="2" stroke-linecap="round" stroke-linejoin="round"/>
<path d="M148.385 217.041C151.441 228.443 157.348 255.376 155.312 255.921C152.056 256.794 143.619 229.665 141.01 220.471C148.168 218.407 161.458 210.453 157.355 195.142C154.596 184.843 146.62 181.116 139.471 180.241M139.471 180.241C135.992 179.816 132.708 180.066 130.317 180.564C127.864 172.493 118.98 144.761 122.97 144.998C125.822 144.234 133.595 167.907 133.19 174.996C132.785 182.085 104.084 152.68 113.769 144.848C118.79 140.787 124.026 140.79 126.31 142.797C128.593 144.803 134.651 163.335 139.471 180.241Z" stroke="#242E35" stroke-width="2" stroke-linecap="round" stroke-linejoin="round"/>
<path d="M151.246 214.676C154.417 224.883 160.898 247.441 158.958 259.746C152.959 261.789 143.081 263.773 139.863 255.26C121.882 207.705 127.596 194.826 121.568 195.132C115.54 195.438 115.484 216.402 97.9235 224.162C83.8749 230.371 46.7338 238.897 29.9193 242.384C27.3954 236.223 22.269 221.651 21.9541 212.658C17.2858 214.781 2.76378 220.855 7.67381 239.179C11.6018 253.839 26.6277 253.45 33.6497 251.423L35.4169 253.132L41.525 251.495C45.0822 266.399 54.7782 297.699 65.1047 303.661C83.6474 299.565 99.4994 293.572 91.885 284.701C84.2707 275.83 81.7982 274.747 78.6418 269.482C72.9408 271.01 72.0466 272.559 71.0938 270.632C70.3316 269.09 66.0052 261.957 63.9373 258.583L71.2671 256.619L76.1441 264.002L72.9452 265.281" stroke="#242E35" stroke-width="2" stroke-linecap="round" stroke-linejoin="round"/>
<path d="M166.149 213.931C251.243 228.708 251.479 131.514 196.366 120.239C133.737 107.427 2.55442 156.2 57.2603 98.0135" stroke="#242E35" stroke-width="2" stroke-linecap="round" stroke-linejoin="round" stroke-dasharray="6 6"/>
<path d="M64.096 73.4866L69.7589 81.0339L72.2525 94.8692L76.1008 86.5863L100.714 74.1496L73.1556 80.1237L88.9357 98.255L112.331 67.8138L64.096 73.4866Z" stroke="#242E35" stroke-width="2" stroke-linecap="round" stroke-linejoin="round"/>
<path d="M167.326 79.0236C173.249 83.3988 168.037 89.1423 166.305 91.4868C164.573 93.8312 158.368 92.185 152.445 87.8099C146.523 83.4347 143.125 77.9874 144.857 75.6429C146.589 73.2985 161.403 74.6485 167.326 79.0236Z" fill="#C5D5E4"/>
<path d="M304.015 146.856C295.976 147.898 293.967 141.215 293.967 137.744C297.735 113.877 308.202 97.3946 336.672 93.9224C365.143 90.4502 382.309 131.235 381.89 137.744C381.472 144.253 378.541 143.819 373.935 146.856C370.586 153.799 362.212 153.365 353.838 149.894C336.254 159.874 325.368 149.894 321.181 146.856C315.738 152.931 309.877 148.592 304.015 146.856Z" fill="#EFDDC7"/>
<path d="M341.971 229.659H333.188" stroke="#242E35" stroke-width="2" stroke-linecap="round" stroke-linejoin="round"/>
<path d="M334.328 204.438C330.15 210.93 319.136 223.951 323.721 229.758C329.121 235.211 351.043 258.649 361.328 269.685C364.367 272.256 366.85 271.061 370.954 266.547C372.046 265.346 376.122 260.234 377.541 258.203M366.123 243.392H347.829C344.936 235.925 338.572 218.851 336.257 210.281C333.943 201.711 338.018 200.676 342.043 204.438C342.043 204.438 354.149 214.287 363.488 222.633" stroke="#242E35" stroke-width="2" stroke-linecap="round" stroke-linejoin="round"/>
<path d="M357.78 243.712L362.171 263.912" stroke="#242E35" stroke-width="2" stroke-linecap="round" stroke-linejoin="round"/>
<path d="M336.351 88.2601C303.687 88.2739 286.64 122.071 289.276 142.091C290.28 149.715 295.041 151.703 297.923 151.703C311.373 182.464 323.862 194.96 334.43 204.573M336.351 88.2601C376.701 88.243 390.772 130.406 387.268 142.091C384.386 151.703 376.701 151.703 375.74 151.703M336.351 88.2601C342.851 88.2573 352.512 111.523 354.604 143.58C356.12 166.805 344.608 194.081 334.43 204.573M336.351 88.2601C328.602 88.2634 306.403 149.736 334.43 204.573M375.74 151.703C374.779 155.548 364.808 160.715 354.385 155.006C348.999 161.154 330.555 161.593 320.814 151.703C314.307 159.397 292.35 155.006 303.329 120.753C309.477 104.066 321.94 88.2573 336.351 88.2573C350.762 88.2573 375.74 115.175 375.74 151.703ZM375.74 151.703C375.74 165.098 354.604 191.885 334.43 204.573" stroke="#242E35" stroke-width="2" stroke-linecap="round" stroke-linejoin="round"/>
<ellipse cx="384.854" cy="237.663" rx="19.3551" ry="27.6501" transform="rotate(-30 384.854 237.663)" stroke="#242E35" stroke-width="2" stroke-linecap="round" stroke-linejoin="round"/>
<path d="M400.951 260.338C412.365 253.748 415.027 237.136 407.392 223.911C399.756 210.686 385 205.859 373.587 212.449" stroke="#242E35" stroke-width="2" stroke-linecap="round" stroke-linejoin="round"/>
<path d="M394.362 232.638C389.878 229.46 380.72 227.512 379.34 232.311C377.615 238.309 393.13 236.922 391.775 241.635C390.419 246.348 374.869 244.099 375.732 241.1" stroke="#242E35" stroke-width="2" stroke-linecap="round" stroke-linejoin="round"/>
<path d="M387.679 225.84L381.024 248.976" stroke="#242E35" stroke-width="2" stroke-linecap="round" stroke-linejoin="round"/>
<ellipse cx="417.35" cy="175.644" rx="9.3517" ry="13.3596" transform="rotate(-30 417.35 175.644)" fill="#C5D5E4"/>
<ellipse cx="424.857" cy="270.02" rx="6.32092" ry="9.02988" transform="rotate(-30 424.857 270.02)" fill="#FAE8D1"/>
<ellipse cx="299.263" cy="203.753" rx="6.32092" ry="9.02988" transform="rotate(-30 299.263 203.753)" fill="#E0E5CD"/>
<path d="M338.156 78.6571C355.917 47.3204 324.787 -2.92531 285.345 33.0092C256.788 59.0266 309.741 57.8644 315.846 40.0013C321.186 24.3762 298.107 4.16385 232.984 8.61853" stroke="#242E35" stroke-width="2" stroke-linecap="round" stroke-linejoin="round" stroke-dasharray="6 6"/>
</svg>
