<svg width="110" height="146" viewBox="0 0 110 146" fill="none" xmlns="http://www.w3.org/2000/svg">
<path d="M12.2154 44.7982C6.20714 45.5766 4.70508 40.5819 4.70508 37.9873C7.52145 20.1492 15.3447 7.82971 36.624 5.23453C57.9032 2.63935 70.7334 33.1225 70.4204 37.9873C70.1075 42.8522 67.917 42.5279 64.4748 44.7982C61.9713 49.9874 55.7127 49.6631 49.4541 47.0685C36.311 54.528 28.1748 47.0685 25.0455 44.7982C20.9775 49.3387 16.5964 46.0955 12.2154 44.7982Z" fill="#EFDDC7"/>
<path d="M40.5839 106.686H34.0195" stroke="#112D47" stroke-width="2" stroke-linecap="round" stroke-linejoin="round"/>
<path d="M34.8706 87.8353C31.7475 92.6877 23.5152 102.419 26.9428 106.76C30.9788 110.836 47.3631 128.353 55.0508 136.602C57.3216 138.523 59.1777 137.63 62.2449 134.257C63.0611 133.359 66.1076 129.538 67.1681 128.02M58.6345 116.95H44.9609C42.7988 111.37 38.0421 98.6077 36.3124 92.2025C34.5827 85.7972 37.6279 85.024 40.6366 87.8353C40.6366 87.8353 49.6849 95.1966 56.6652 101.435" stroke="#112D47" stroke-width="2" stroke-linecap="round" stroke-linejoin="round"/>
<path d="M52.3984 117.189L55.6806 132.287" stroke="#112D47" stroke-width="2" stroke-linecap="round" stroke-linejoin="round"/>
<path d="M36.3832 1.00206C11.9696 1.01239 -0.77186 26.2727 1.1989 41.2358C1.94943 46.9343 5.50718 48.4204 7.66132 48.4204C17.714 71.4111 27.0486 80.7511 34.9471 87.9357M36.3832 1.00206C66.5411 0.989294 77.0582 32.5024 74.4397 41.2358C72.2855 48.4204 66.5411 48.4204 65.8231 48.4204M36.3832 1.00206C41.2414 1 48.4622 18.3891 50.0261 42.349C51.1591 59.7075 42.5543 80.0939 34.9471 87.9357M36.3832 1.00206C30.5916 1.00451 13.9994 46.9504 34.9471 87.9357M65.8231 48.4204C65.105 51.2942 57.6523 55.1558 49.8623 50.889C45.8364 55.4841 32.0513 55.8123 24.7709 48.4204C19.9073 54.1712 3.49641 50.889 11.7018 25.2881C16.2969 12.8158 25.6125 1 36.3832 1C47.1539 1 65.8231 21.1189 65.8231 48.4204ZM65.8231 48.4204C65.8231 58.4316 50.0261 78.4529 34.9471 87.9357" stroke="#112D47" stroke-width="2" stroke-linecap="round" stroke-linejoin="round"/>
<ellipse cx="72.6346" cy="112.668" rx="14.4662" ry="20.6661" transform="rotate(-30 72.6346 112.668)" stroke="#112D47" stroke-width="2" stroke-linecap="round" stroke-linejoin="round"/>
<path d="M84.6666 129.617C93.1973 124.692 95.1871 112.275 89.4803 102.391C83.7735 92.5065 72.7445 88.899 64.2138 93.8241" stroke="#112D47" stroke-width="2" stroke-linecap="round" stroke-linejoin="round"/>
<path d="M79.7435 108.912C76.3916 106.537 69.5472 105.082 68.5156 108.668C67.2261 113.151 78.8225 112.114 77.8094 115.637C76.7962 119.159 65.1743 117.479 65.819 115.237" stroke="#112D47" stroke-width="2" stroke-linecap="round" stroke-linejoin="round"/>
<path d="M74.748 103.833L69.7743 121.124" stroke="#112D47" stroke-width="2" stroke-linecap="round" stroke-linejoin="round"/>
<ellipse cx="96.9227" cy="66.3152" rx="6.9896" ry="9.98514" transform="rotate(-30 96.9227 66.3152)" fill="#C5D5E4"/>
<ellipse cx="102.534" cy="136.852" rx="4.72434" ry="6.74906" transform="rotate(-30 102.534 136.852)" fill="#E6C9C9"/>
<ellipse cx="8.6632" cy="87.3225" rx="4.72434" ry="6.74906" transform="rotate(-30 8.6632 87.3225)" fill="#E0E5CD"/>
</svg>
