<svg width="160" height="148" viewBox="0 0 160 148" fill="none" xmlns="http://www.w3.org/2000/svg">
<circle cx="68.6407" cy="124.781" r="20.4005" fill="#FAE8D1"/>
<g style="mix-blend-mode:multiply">
<path d="M84.963 35.4722C51.5969 35.4722 27.8416 56.326 20.1348 66.7529C29.2016 60.8594 42.3486 59.9528 54.5889 61.7661C84.5096 48.6191 117.604 60.8594 123.951 64.4862C134.831 61.2221 144.502 65.2418 147.978 67.6596C140.875 56.9305 118.329 35.4722 84.963 35.4722Z" fill="#C5D5E4"/>
</g>
<path d="M13.3616 68.8706C21.6934 55.3535 44.9215 33.8888 84.2147 32.9912C126.613 32.0228 151.097 63.072 158.032 78.1122C154.655 76.6626 146.272 75.6841 139.759 83.3673C133.607 81.3741 121.581 77.7499 106.022 84.9982M106.022 84.9982C94.2614 81.9177 81.6818 77.2063 61.0563 84.9982C55.2667 82.2801 48.7533 77.9311 28.3088 82.0989C26.4995 80.468 14.3775 69.0518 4.96939 72.4948C-4.43874 75.9377 10.9399 77.5686 17.4532 73.582C23.9666 69.5955 30.1184 65.2464 47.4872 68.8706C51.2866 66.5149 85.3578 52.743 120.638 68.8706C129.142 67.4209 144.644 67.421 150.434 73.582M106.022 84.9982C99.4571 61.7701 82.4058 47.0173 82.4058 59.266C82.4058 64.4848 99.9621 101.498 99.9621 125.538M42.801 17.3381C32.4272 21.4185 89.0421 28.2314 97.6556 14.6246C106.269 1.01771 77.1309 -7.59653 74.0817 14.6231C73.4826 21.7238 77.0126 41.456 104.002 52.6989C137.74 66.7526 120.942 120.701 84.2147 111.18" stroke="#112D47" stroke-width="2" stroke-linecap="round" stroke-linejoin="round"/>
<path d="M48.4551 68.73C49.2669 59.4854 56.4001 43.1791 78.614 33.2056" stroke="#112D47" stroke-width="2" stroke-linecap="round" stroke-linejoin="round"/>
<path d="M61.0801 84.8885C61.0801 80.0914 61.686 69.0833 64.1098 63.4277" stroke="#112D47" stroke-width="2" stroke-linecap="round" stroke-linejoin="round"/>
<path d="M28.5117 82.3636C29.69 79.0813 33.0059 71.507 36.8435 67.4673" stroke="#112D47" stroke-width="2" stroke-linecap="round" stroke-linejoin="round"/>
<path d="M139.602 83.3724C137.414 79.8377 132.028 71.8593 127.988 68.2236" stroke="#112D47" stroke-width="2" stroke-linecap="round" stroke-linejoin="round"/>
<path d="M150.457 73.5275C151.635 73.3592 156.264 74.5374 157.526 77.0622" stroke="#112D47" stroke-width="2" stroke-linecap="round" stroke-linejoin="round"/>
<path d="M99.9598 128.821C99.9598 138.861 91.821 147 81.7812 147" stroke="#112D47" stroke-width="2" stroke-linecap="round" stroke-linejoin="round"/>
<circle cx="78.7508" cy="128.821" r="18.1785" stroke="#112D47" stroke-width="2" stroke-linecap="round" stroke-linejoin="round"/>
<circle cx="78.7538" cy="128.821" r="12.119" stroke="#112D47" stroke-width="2" stroke-linecap="round" stroke-linejoin="round"/>
<path d="M84.038 125.676C82.0616 124.378 77.8223 122.277 76.676 124.262C75.2432 126.744 82.1957 128.867 80.7628 131.349C79.6166 133.334 75.2407 131.47 73.1961 130.289" stroke="#112D47" stroke-width="2" stroke-linecap="round" stroke-linejoin="round"/>
<line x1="81.5086" y1="122.614" x2="75.1307" y2="133.661" stroke="#112D47" stroke-width="2" stroke-linecap="round" stroke-linejoin="round"/>
</svg>
