<svg width="148" height="196" viewBox="0 0 148 196" fill="none" xmlns="http://www.w3.org/2000/svg">
<circle cx="90.1214" cy="78.5873" r="25.1635" fill="#E6C9C9"/>
<path d="M105.062 159.583C102.441 160.632 100.344 167.533 100.344 170.067C101.479 170.504 105.062 171.012 109.256 171.641C114.498 172.427 114.498 167.185 114.498 165.874C114.498 164.564 111.091 160.107 105.062 159.583Z" stroke="#4F1C28" stroke-width="2" stroke-linecap="round" stroke-linejoin="round"/>
<path d="M90.1219 169.543C89.5976 168.494 88.8637 165.453 90.1219 161.679" stroke="#4F1C28" stroke-width="2" stroke-linecap="round" stroke-linejoin="round"/>
<path d="M113.973 160.105C117.817 157.222 127.236 150.721 134.156 147.786C142.806 144.116 147 143.33 147 139.66C147 135.99 137.302 131.013 120.526 142.807C107.682 149.36 106.896 150.146 101.653 152.766" stroke="#4F1C28" stroke-width="2" stroke-linecap="round" stroke-linejoin="round"/>
<path d="M140.448 134.68C140.273 133.631 138.875 131.429 134.681 131.01C129.439 130.486 117.381 138.351 108.469 142.544C103.29 144.981 97.2856 148.223 94.0527 150.408C91.3442 151.107 87.2376 151.508 92.48 147.524C99.033 142.544 126.556 127.865 129.439 135.729M84.0922 168.231C82.9564 165.96 81.3662 160.525 84.0922 156.96" stroke="#4F1C28" stroke-width="2" stroke-linecap="round" stroke-linejoin="round"/>
<path d="M1 144.117C7.64037 142.631 23.4899 138.56 33.765 134.156C46.6089 128.652 54.9967 128.914 67.8406 136.515C80.6845 144.117 94.839 151.456 101.916 153.291C108.993 155.126 121.837 164.824 114.498 171.901C108.469 176.095 77.539 166.921 59.1906 158.009" stroke="#4F1C28" stroke-width="2" stroke-linecap="round" stroke-linejoin="round"/>
<path d="M99.2963 171.378C77.2782 191.037 66.5313 180.29 49.4935 171.378C35.8632 164.248 21.4466 175.397 15.9421 181.863C14.1946 183.96 11.2239 188.993 13.3209 192.348C15.9421 196.542 55.7839 196.804 38.484 148.312C21.1841 99.8196 110.043 129.963 110.043 81.4712" stroke="#4F1C28" stroke-width="2" stroke-linecap="round" stroke-linejoin="round"/>
<path d="M96.123 13.9574L97.7222 13.0461L97.4486 2.04848C97.4486 2.04848 93.3404 1 90.1578 1C86.9753 1 82.867 2.04848 82.867 2.04848L82.2292 13.3196L84.1926 13.9574C83.7507 27.6306 82.867 55.6387 82.867 58.2851C82.867 61.5932 82.2025 64.2396 79.5513 66.2244C70.9349 70.1941 70.2738 76.8101 70.2738 80.1182C69.611 97.9816 73.5878 120.476 74.2506 123.123C74.7808 125.24 76.6809 125.769 77.5646 125.769C84.8554 125.769 100.1 125.769 102.751 125.769C105.402 125.769 106.065 124.005 106.065 123.123C107.391 112.537 110.042 89.2484 110.042 80.7798C110.042 70.1941 101.425 66.2244 99.437 64.9012C97.8463 63.8426 97.4486 60.0494 97.4486 58.2851L96.3478 21.4757M96.123 13.9574C95.2626 14.5841 92.6007 15.8375 88.8368 15.8375M96.123 13.9574L96.3478 21.4757M96.3478 21.4757C95.7879 22.2671 93.6205 23.731 89.4303 23.2562" stroke="#4F1C28" stroke-width="2" stroke-linecap="round" stroke-linejoin="round"/>
<circle cx="90.1212" cy="78.5879" r="30.9302" stroke="#4F1C28" stroke-width="2" stroke-linecap="round" stroke-linejoin="round"/>
<g style="mix-blend-mode:multiply">
<circle cx="130.631" cy="28.5477" r="2.6212" fill="#E0E5CD"/>
</g>
<circle cx="33.3509" cy="67.1799" r="4.45604" fill="#E6C9C9"/>
<circle cx="137.807" cy="97.4477" r="4.45604" stroke="#4F1C28" stroke-width="2" stroke-linecap="round" stroke-linejoin="round"/>
<path d="M107.159 71.5098C93.2663 79.8976 87.4765 85.597 87.4765 85.597L79.8031 79.1649L75.9664 83.4529L87.4765 100.605C96.3008 82.1665 114.333 72.7327 114.333 72.7327C118.901 70.4975 126.818 70.1553 126.818 79.7351" stroke="#4F1C28" stroke-width="2" stroke-linecap="round" stroke-linejoin="round"/>
</svg>
