<svg width="200" height="436" viewBox="0 0 200 436" fill="none" xmlns="http://www.w3.org/2000/svg">
<path d="M108 1.99999C103.333 1.83332 93 2.49999 89 6.49999C88 11.5 86.6666 21.5 88 23.5C89 25 89 27 89 28.5C89 29.7 88 79.3333 87.5 104C87.1667 108.667 86.5 117.5 74.5 126.5C62.5 135.5 56.5 149 56 160C55.6 168.8 55.1667 327.333 55 405.5C55.1667 411.5 55 422 57 426.5C58.3622 429.565 60 431.5 79.5 433.5C94.6207 435.051 104.5 435 107.5 435" stroke="#CACCCE" stroke-width="2" stroke-linecap="round" stroke-linejoin="round"/>
<path d="M108 1.99999C112.667 1.83332 123 2.49999 127 6.49999C128 12.5 129.5 21.25 128 23.5C127 25 127 27 127 28.5C127 29.7 128 79.3333 128.5 104C128.833 108.667 130.5 116.5 141.5 126.5C152.5 136.5 159.5 149 160 160C160.4 168.8 160.833 327.333 161 405.5C160.833 411.5 161 422.5 159 426.5C157.5 429.5 155.412 431.67 136.5 433.5C121 435 111.5 435 108.5 435" stroke="#CACCCE" stroke-width="2" stroke-linecap="round" stroke-linejoin="round"/>
<path d="M56 416.5C56.1667 417.833 57.4 420.7 61 421.5C65.5 422.5 69.9172 422.583 76 416.5C83.5 409 90.5 397 109.5 397C134 397 147 431.5 165 418.5C179.4 408.1 176 390.5 168 397C163.077 401 176.6 413.9 199 399.5" stroke="#CACCCE" stroke-width="2" stroke-linecap="round" stroke-linejoin="round"/>
<path d="M55 339C88.5 315.5 152 262 160 163" stroke="#CACCCE" stroke-width="2" stroke-linecap="round" stroke-linejoin="round"/>
</svg>
