<svg width="160" height="167" viewBox="0 0 160 167" fill="none" xmlns="http://www.w3.org/2000/svg">
<rect x="70.6032" y="53.2024" width="81.2039" height="81.2039" fill="#E0E5CD"/>
<path d="M48.5623 1C22.2944 1 1 3.59687 1 6.80028C1 10.0037 22.2944 12.6006 48.5623 12.6006C74.8302 12.6006 96.1246 10.0037 96.1246 6.80028C96.1246 5.1992 90.8051 3.74963 82.2039 2.70008" stroke="#242E35" stroke-width="2" stroke-linecap="round" stroke-linejoin="round"/>
<ellipse cx="48.5623" cy="159.927" rx="47.5623" ry="5.80028" stroke="#242E35" stroke-width="2" stroke-linecap="round" stroke-linejoin="round"/>
<path d="M96.1245 6.80029V43.9221" stroke="#242E35" stroke-width="2" stroke-linecap="round" stroke-linejoin="round"/>
<path d="M10.2806 23.041V70.6033" stroke="#242E35" stroke-width="2" stroke-linecap="round" stroke-linejoin="round"/>
<path d="M10.2806 84.5242L10.2806 97.2848" stroke="#242E35" stroke-width="2" stroke-linecap="round" stroke-linejoin="round"/>
<path d="M150.067 94.3845L144.267 94.3845" stroke="#242E35" stroke-width="2" stroke-linecap="round" stroke-linejoin="round"/>
<path d="M150.067 84.5242L144.267 84.5242" stroke="#242E35" stroke-width="2" stroke-linecap="round" stroke-linejoin="round"/>
<path d="M150.067 75.2434L144.267 75.2434" stroke="#242E35" stroke-width="2" stroke-linecap="round" stroke-linejoin="round"/>
<path d="M1 6.80029V158.768" stroke="#242E35" stroke-width="2" stroke-linecap="round" stroke-linejoin="round"/>
<path d="M53.3791 37.8293V32.4246H54.4252V28.5262H53.3791V26.0454C53.3791 26.0454 51.5039 25.3613 48.3226 25.3613C45.1413 25.3613 43.2661 26.0454 43.2661 26.0454V28.5262H42.2199V32.4246H43.2661V54.0432C43.2661 54.2795 43.2661 56.1689 42.2199 57.2328C40.343 59.1415 38.7327 61.1312 35.9429 63.9664C33.7111 66.2346 33.3856 72.4721 33.5018 75.3073C33.5919 90.4038 35.4441 118.189 35.5115 131.615C35.5312 135.525 34.089 137.882 33.8505 138.745C32.6694 143.023 35.8374 143.081 37.6865 143.707C39.5356 144.333 44.5987 144.847 48.5047 144.847C52.296 144.847 57.0253 143.973 59.0433 143.023C62.8552 141.228 63.7245 140.399 63.492 138.745C63.492 136.921 61.4968 134.202 61.4968 131.214C61.4968 126.935 61.4968 122.329 61.4968 118.785L63.492 75.3073C63.492 67.5105 62.0971 66.0929 61.7484 65.384C61.3997 64.6752 55.8201 59.0048 54.7739 57.9416C53.937 57.091 53.3791 55.3922 53.3791 54.0432C53.3782 51.6998 55.2441 47.0131 65.963 45.4093H152.767C156.081 45.4093 158.767 48.0956 158.767 51.4093V136.527C158.767 139.841 156.081 142.527 152.767 142.527H83.3639" stroke="#242E35" stroke-width="2" stroke-linecap="round" stroke-linejoin="round"/>
<path d="M83.3639 142.527C78.8791 142.527 75.2435 138.891 75.2435 134.406C75.2435 129.922 78.8791 126.286 83.3639 126.286H102.505C108.885 126.286 128.026 118.746 105.985 87.4241" stroke="#242E35" stroke-width="2" stroke-linecap="round" stroke-linejoin="round"/>
<circle cx="134.407" cy="112.366" r="8.12039" stroke="#242E35" stroke-width="2" stroke-linecap="round" stroke-linejoin="round"/>
<path d="M107.725 97.7321C107.725 104.742 101.493 111.205 93.8045 111.205C86.1163 111.205 79.8838 104.742 79.8838 97.7321C79.8838 79.5358 105.405 65.9631 93.8045 65.9631C86.7992 65.9631 96.811 75.4802 103.085 83.364" stroke="#242E35" stroke-width="2" stroke-linecap="round" stroke-linejoin="round"/>
<path d="M137.886 104.245V68.5852C137.886 68.5852 137.389 65.9631 134.406 65.9631C131.423 65.9631 130.926 68.5852 130.926 68.5852V104.245" stroke="#242E35" stroke-width="2" stroke-linecap="round" stroke-linejoin="round"/>
<line x1="97.6122" y1="88.22" x2="89.3799" y2="101.597" stroke="#242E35" stroke-width="2" stroke-linecap="round" stroke-linejoin="round"/>
<circle cx="99.6047" cy="98.4446" r="2.32011" stroke="#242E35" stroke-width="2" stroke-linecap="round" stroke-linejoin="round"/>
<circle cx="89.1644" cy="89.1644" r="2.32011" stroke="#242E35" stroke-width="2" stroke-linecap="round" stroke-linejoin="round"/>
</svg>
