<svg xmlns="http://www.w3.org/2000/svg" width="950.29" height="393.692" viewBox="0 0 950.29 393.692">
    <defs>
        <style>
            .cls-1 {
            fill: #f9f8f7;
            }

            .cls-2 {
            fill: #eee;
            }

            .cls-3 {
            fill: none;
            stroke: #636363;
            }
        </style>
    </defs>
    <g id="chart-placeholder" transform="translate(-0.915 -81)">
        <path id="Path_4" data-name="Path 4" class="cls-1" d="M127,35h0Z" transform="translate(48 46)"/>
        <path id="Path_2" data-name="Path 2" class="cls-2"
              d="M13.759,382.281,1,380.1V481H951V254.818l-14.177,6.362-14.176-4.363-11.342,12-14.176-2.545L884.37,271.9,870.193,261.18l-12.759,2.544-14.177-4.18-9.923,4.18-17.012-7.816-14.177.909L792.221,253,675.81,296.3l-11.342-19.268-19.847-3.272-9.924-6-12.759,19.086-14.176-5.817L595,316.845l-12.759-3.636-14.177,13.633-12.759-1.454-11.341,10.36-15.595-6L514.2,331.022l-12.759-5.271-14.177,6.362L473.083,326.3l-9.923,19.086-15.6-5.816-14.176.727-11.342-1.818-11.341,6.362-14.177-5.271-14.176,2.363-12.759-3.454-12.759,1.091-25.518-12.179-14.177-2.908-14.177,20.358L290.2,343.2l-11.341,9.634c-8.034-1.273-25.518-4.072-31.189-5.09s-8.978-2.363-9.924-2.908l-7.088,14.178-19.847-4.908-19.848-1.272v-5.09H173.955L161.2,343.2l-18.429,4.544c-6.143-1.333-20.131-4.108-26.936-4.544s-8.506-5.15-8.506-7.453L95.984,359.015l-15.594-6.18L67.63,377.919l-31.189-1.636-9.924-2Z"
              transform="translate(0 -6.308)"/>
        <path id="Path_3" data-name="Path 3" class="cls-3"
              d="M1,379.807,13.759,382l12.759-8.042,9.924,2.01,31.189,1.645L80.389,352.39,95.984,358.6l11.341-23.395c0,2.315,1.7,7.055,8.506,7.493s20.793,3.23,26.936,4.57L161.2,342.7l12.759,4.57h17.012v5.118l19.848,1.279,19.847,4.935,7.088-14.256c.946.548,4.253,1.9,9.924,2.924s23.155,3.838,31.189,5.118L290.2,342.7l12.759,1.646,14.177-20.472,14.177,2.925,25.518,12.246,12.759-1.1,12.759,3.473,14.176-2.376,14.177,5.3,11.341-6.4,11.342,1.828,14.176-.731,15.6,5.849,9.923-19.192,14.177,5.849,14.177-6.4,12.759,5.3,14.176-1.279,15.595,6.032,11.341-10.419,12.759,1.462,14.177-13.708L595,316.2l12.759-36.008,14.176,5.849L634.7,266.849l9.924,6.032,19.847,3.29,11.342,19.375L792.221,252l9.924,3.838,14.177-.914,17.012,7.86,9.923-4.2,14.177,4.2,12.759-2.559,14.177,10.784,12.759-5.666L911.3,267.9l11.342-12.064,14.176,4.387,14.177-6.4"
              transform="translate(0 -3.995)"/>
    </g>
</svg>
