<svg width="34" height="34" viewBox="0 0 34 34" fill="none" xmlns="http://www.w3.org/2000/svg">
<path fill-rule="evenodd" clip-rule="evenodd" d="M17 1C25.8364 1 33 8.16364 33 17C33 25.8364 25.8364 33 17 33C8.16364 33 1 25.8364 1 17C1 8.16364 8.16364 1 17 1V1Z" stroke="#242E35" stroke-linecap="round" stroke-linejoin="round"/>
<path d="M12.8859 10.4271H18.6987C20.5138 10.4271 21.9852 11.8985 21.9852 13.7136V13.7136C21.9852 15.5286 20.5138 17.0001 18.6987 17.0001H12.8859V10.4271Z" stroke="#242E35" stroke-linecap="round" stroke-linejoin="round"/>
<path d="M12.8859 17H18.6987C20.5138 17 21.9852 18.4714 21.9852 20.2865V20.2865C21.9852 22.1016 20.5138 23.573 18.6987 23.573H12.8859V17Z" stroke="#242E35" stroke-linecap="round" stroke-linejoin="round"/>
<path d="M15.2802 10.427V8.31427" stroke="#242E35" stroke-linecap="round" stroke-linejoin="round"/>
<path d="M15.2802 25.6859V23.5731" stroke="#242E35" stroke-linecap="round" stroke-linejoin="round"/>
<path d="M18.6327 10.427V8.31427" stroke="#242E35" stroke-linecap="round" stroke-linejoin="round"/>
<path d="M18.6327 25.6859V23.5731" stroke="#242E35" stroke-linecap="round" stroke-linejoin="round"/>
</svg>
