<svg width="25" height="25" viewBox="0 0 25 25" fill="none" xmlns="http://www.w3.org/2000/svg">
<path d="M18.2175 16.6781C18.8205 15.6731 19.1363 14.5245 19.1363 13.3473C19.1363 9.72931 16.2075 6.8005 12.5896 6.8005C8.97164 6.77179 6.01411 9.72931 6.01411 13.3473C6.01411 14.5245 6.32996 15.6731 6.93296 16.6781L3.14273 20.4683C3.05658 20.5544 3.02787 20.698 3.0853 20.8129C3.14272 20.9277 3.25758 20.9851 3.40115 20.9564L6.64582 20.4109L6.10025 23.6555C6.07154 23.7704 6.12897 23.914 6.24382 23.9714C6.27254 24.0001 6.32996 24.0001 6.38739 24.0001C6.47353 24.0001 6.53096 23.9714 6.58839 23.914L10.838 19.6643C11.4123 19.8366 12.0153 19.894 12.5896 19.894C13.1926 19.894 13.7669 19.8079 14.3411 19.6643L18.5908 23.914C18.6482 23.9714 18.7056 24.0001 18.7918 24.0001C18.8492 24.0001 18.8779 24.0001 18.9354 23.9714C19.0502 23.914 19.1076 23.7991 19.0789 23.6555L18.5334 20.4109L21.778 20.9564C21.8929 20.9851 22.0364 20.9277 22.0939 20.8129C22.1513 20.698 22.1226 20.5544 22.0364 20.4683L18.2175 16.6781ZM6.78939 22.8515L7.24881 20.095C7.27752 20.0089 7.24881 19.9227 7.16267 19.8366C7.10524 19.7792 7.04781 19.7505 6.96167 19.7505C6.93296 19.7505 6.93296 19.7505 6.90424 19.7505L4.20514 20.2386L7.27752 17.1662C8.02408 18.1999 9.02907 18.9752 10.2063 19.4346L6.78939 22.8515ZM10.8093 19.0613C9.45978 18.6593 8.31122 17.7692 7.53595 16.5632C6.93296 15.5869 6.58839 14.4958 6.58839 13.3473C6.58839 10.0452 9.25878 7.37478 12.5609 7.37478C15.863 7.37478 18.5621 10.0452 18.5621 13.3473C18.5621 14.4958 18.2462 15.6157 17.6145 16.5919C16.868 17.7692 15.6907 18.6593 14.3411 19.09C13.1926 19.4059 11.9579 19.4059 10.8093 19.0613ZM18.2175 19.7792C18.1314 19.7505 18.0452 19.7792 17.9591 19.8653C17.8729 19.9514 17.8729 20.0376 17.8729 20.1237L18.3324 22.8803L14.9441 19.4346C16.1214 18.9752 17.1551 18.1712 17.8729 17.1662L20.9453 20.2386L18.2175 19.7792Z" fill="#FAE8D1" stroke="#FAE8D1" stroke-width="0.460519"/>
<circle cx="12.6044" cy="13.2794" r="4.97326" fill="#FAE8D1"/>
<path d="M12.2973 11.9973H12.9112C13.1291 11.9973 13.3271 12.1778 13.3865 12.4033C13.4063 12.4935 13.4855 12.5612 13.5647 12.5612H14.0598C14.1588 12.5612 14.2578 12.4484 14.238 12.3357C14.139 11.6365 13.6439 11.0952 13.0102 11.0501V10.4862C13.0102 10.3734 12.931 10.2832 12.832 10.2832H12.3568C12.2577 10.2832 12.1785 10.3734 12.1785 10.4862V11.0501C11.4656 11.1177 10.8914 11.8169 10.9508 12.6514C10.9904 13.4634 11.6241 14.0949 12.3369 14.0949H12.832C13.1687 14.0949 13.4063 14.2979 13.4261 14.5911C13.4657 14.9294 13.2281 15.2001 12.931 15.2001H12.2775C12.0597 15.2001 11.8617 15.0196 11.8023 14.7941C11.7825 14.7039 11.7033 14.6362 11.6241 14.6362H11.129C11.03 14.6362 10.931 14.749 10.9508 14.8618C11.0498 15.5609 11.5448 16.0797 12.1785 16.1474V16.7112C12.1785 16.824 12.2577 16.9142 12.3568 16.9142H12.8518C12.9508 16.9142 13.03 16.824 13.03 16.7112V16.1474C13.7429 16.0797 14.3172 15.3805 14.2578 14.546C14.2182 13.734 13.5845 13.1025 12.8716 13.1025H12.2775C11.9805 13.1025 11.7627 12.8093 11.7825 12.4935C11.8023 12.2003 12.0399 11.9973 12.2973 11.9973Z" fill="#242E35"/>
<path d="M12.5894 3.72782C12.7617 3.72782 12.8765 3.61296 12.8765 3.44068V1.28714C12.8765 1.11486 12.7617 1 12.5894 1C12.4171 1 12.3022 1.11486 12.3022 1.28714V3.44068C12.3022 3.61296 12.4171 3.72782 12.5894 3.72782Z" fill="#FAE8D1" stroke="#FAE8D1" stroke-width="0.460519"/>
<path d="M18.3325 5.62317C18.4187 5.62317 18.5048 5.59446 18.5622 5.50831L19.8544 3.75677C19.9405 3.64191 19.9118 3.44092 19.7969 3.35477C19.6821 3.26863 19.4811 3.29735 19.3949 3.4122L18.1028 5.16375C18.0167 5.2786 18.0454 5.4796 18.1602 5.56574C18.2177 5.59446 18.2751 5.62317 18.3325 5.62317Z" fill="#FAE8D1" stroke="#FAE8D1" stroke-width="0.460519"/>
<path d="M24.1905 9.49935C24.1331 9.35578 23.9895 9.26964 23.8172 9.32707L21.7498 9.98749C21.6063 10.0449 21.5201 10.1885 21.5776 10.3608C21.6063 10.4756 21.7211 10.5618 21.8647 10.5618C21.8934 10.5618 21.9221 10.5618 21.9508 10.5618L24.0182 9.90135C24.1618 9.78649 24.248 9.64292 24.1905 9.49935Z" fill="#FAE8D1" stroke="#FAE8D1" stroke-width="0.460519"/>
<path d="M3.34381 10.3321C3.45867 10.3321 3.57352 10.2459 3.60224 10.1311C3.65966 9.98752 3.57352 9.81523 3.42995 9.75781L1.39127 9.03996C1.2477 8.98253 1.07542 9.06867 1.01799 9.21224C0.96056 9.35581 1.0467 9.5281 1.19027 9.58552L3.22896 10.3034C3.28638 10.3034 3.3151 10.3321 3.34381 10.3321Z" fill="#FAE8D1" stroke="#FAE8D1" stroke-width="0.460519"/>
<path d="M6.76138 5.36445C6.81881 5.45059 6.90495 5.47931 6.99109 5.47931C7.04852 5.47931 7.10594 5.45059 7.16337 5.42188C7.30694 5.33574 7.33566 5.16346 7.2208 5.01989L5.9861 3.23963C5.89996 3.09606 5.72768 3.06734 5.58411 3.1822C5.44054 3.26834 5.41183 3.44062 5.52668 3.58419L6.76138 5.36445Z" fill="#FAE8D1" stroke="#FAE8D1" stroke-width="0.460519"/>
</svg>