<svg width="319" height="319" viewBox="0 0 319 319" fill="none" xmlns="http://www.w3.org/2000/svg">
<circle opacity="0.2" cx="159.5" cy="159.5" r="159.5" fill="#C5D5E4"/>
<g style="mix-blend-mode:multiply">
<path d="M106.634 196.841C106.902 195.4 128.463 175.681 139.21 166.002C140.4 165.447 146.713 170.343 154.704 163.854C164.693 155.742 166.742 157.859 179.081 156.148C191.419 154.437 200.766 133.254 206.417 133.933C212.068 134.611 203.563 138.654 201.194 146.879C198.825 155.105 201.765 157.329 194.637 167.091C187.509 176.854 169.46 192.225 162.994 200.433C156.528 208.641 137.953 222.33 134.837 223.055C131.72 223.78 129.236 210.085 124.343 204.33C119.451 198.574 106.299 198.642 106.634 196.841Z" fill="#E6C9C9"/>
</g>
<path d="M199.996 123.861C202.683 123.861 210.167 127.211 212.102 134.839" stroke="#242E35" stroke-width="1.5" stroke-linecap="round" stroke-linejoin="round"/>
<path d="M105.176 195.908C101.04 200.42 104.288 204.166 105.495 206.713C106.701 209.259 125.215 228.404 129.639 230.372C133.178 231.946 137.835 228.678 139.722 226.847C158.69 208.426 197.653 170.199 201.759 164.655C206.89 157.725 205.883 150.976 205.598 146.788C205.313 142.6 208.919 138.781 210.325 137.126C211.451 135.801 221.675 125.386 226.647 120.343C227.076 120.277 228.224 120.071 229.379 119.779C230.824 119.413 235.518 114.11 234.972 112.028C232.007 104.691 225.449 101.656 223.82 101.22C222.516 100.871 221.144 101.891 220.622 102.444C219.778 103.061 217.995 104.394 217.619 104.793C217.148 105.291 214.777 107.136 214.687 109.56C204.062 122.139 192.483 129.743 187.147 129.739C176.123 128.773 170.573 132.488 168.354 134.006C166.135 135.524 110.346 190.268 105.176 195.908Z" stroke="#242E35" stroke-width="1.5" stroke-linecap="round" stroke-linejoin="round"/>
<path d="M214.766 158.266C214.573 161.549 212.332 169.39 204.916 174.489" stroke="#242E35" stroke-width="1.5" stroke-linecap="round" stroke-linejoin="round"/>
<path d="M106.674 202.461C107.146 202.074 108.613 201.509 110.701 202.342C113.311 203.384 126.443 211.307 131.666 224.416C132.377 228.495 136.074 231.542 145.172 211.094C156.544 185.535 140.745 191.82 131.929 193.628C123.113 195.435 137.017 181.808 151.285 179.245C165.553 176.682 197.491 141.252 165.005 130.548C132.52 119.844 99.2772 143.756 94.2628 147.668C89.2483 151.58 94.5871 158.444 112.347 153.642C130.106 148.84 97.2403 160.709 107.809 160.998C118.378 161.288 127.458 155.057 133.317 155.122C139.175 155.187 114.582 162.399 119.023 163.83C123.464 165.262 159.071 148.919 153.744 159.016C148.418 169.114 186.602 149.196 169.921 140.688" stroke="#242E35" stroke-width="1.5" stroke-linecap="round" stroke-linejoin="round"/>
<path d="M221.68 112.209C223.383 113.36 226.788 116.634 226.785 120.52" stroke="#242E35" stroke-width="1.5" stroke-linecap="round" stroke-linejoin="round"/>
<path d="M214.953 109.291C215.962 109.48 218.177 109.986 218.962 110.49" stroke="#242E35" stroke-width="1.5" stroke-linecap="round" stroke-linejoin="round"/>
<path d="M187.282 128.921C188.19 127.963 198.855 107.342 187.532 103.711C176.209 100.079 136.275 107.696 142.749 113.873C149.224 120.05 172.577 111.402 170.467 114.191C168.357 116.981 145.68 117.004 154.525 120.771C163.37 124.538 179.51 119.388 176.992 122.234C174.473 125.08 166.291 123.093 170.356 126.899C174.421 130.705 177.403 125.506 181.543 125.348C185.682 125.19 190.663 121.794 186.406 115.102" stroke="#242E35" stroke-width="1.5" stroke-linecap="round" stroke-linejoin="round"/>
<path d="M97.5488 134.911C99.3872 132.562 113.364 125.131 121.685 123.977" stroke="#242E35" stroke-width="1.5" stroke-linecap="round" stroke-linejoin="round"/>
<path d="M197.032 105.797C197.314 100.01 191.789 96.7237 185.218 98.2593" stroke="#242E35" stroke-width="1.5" stroke-linecap="round" stroke-linejoin="round"/>
</svg>
