<svg width="11" height="11" viewBox="0 0 11 11" fill="none" xmlns="http://www.w3.org/2000/svg">
<path d="M5.3595 0C3.92395 0 2.58411 0.560547 1.57239 1.57227C0.560669 2.58398 0.00012207 3.93066 0.00012207 5.35938C0.00012207 8.3125 2.40637 10.7188 5.3595 10.7188C6.78821 10.7188 8.13489 10.1582 9.14661 9.14648C10.1583 8.13477 10.7189 6.78809 10.7189 5.35938C10.7189 2.40625 8.31262 0 5.3595 0ZM8.40833 8.4082C7.59485 9.22168 6.51477 9.66602 5.3595 9.66602C2.98059 9.66602 1.05286 7.73828 1.05286 5.35938C1.05286 4.21094 1.49719 3.12402 2.31067 2.31055C3.12415 1.49707 4.21106 1.05273 5.3595 1.05273C7.7384 1.05273 9.66614 2.98047 9.66614 5.35938C9.66614 6.50781 9.2218 7.59473 8.40833 8.4082ZM4.81262 3.71875H5.90637V2.625H4.81262V3.71875ZM4.81262 8.09375H5.90637V4.375H4.81262V8.09375Z" fill="#767A7F"/>
</svg>
