<svg width="19" height="19" viewBox="0 0 19 19" fill="none" xmlns="http://www.w3.org/2000/svg">
<path fill-rule="evenodd" clip-rule="evenodd" d="M18.4927 9.99612C18.4927 11.2363 18.5026 12.4666 18.4334 13.7117C18.3643 15.1545 18.0332 16.4293 16.9808 17.4866C15.9284 18.5391 14.6486 18.8701 13.2059 18.9393C11.9657 19.0085 10.7354 18.9986 9.49026 18.9986C8.24513 18.9986 7.01977 19.0085 5.77464 18.9393C4.33188 18.8701 3.0571 18.5391 1.99973 17.4866C0.947304 16.4342 0.616258 15.1545 0.547084 13.7117C0.477911 12.4716 0.487793 11.2412 0.487793 9.99612C0.487793 8.75593 0.477911 7.52563 0.547084 6.2805C0.616258 4.83774 0.947304 3.56296 1.99973 2.50559C3.05216 1.45316 4.33188 1.12212 5.77464 1.05294C7.01977 0.988712 8.25008 0.998594 9.49026 0.998594C10.7304 0.998594 11.9608 0.988712 13.2059 1.05789C14.6486 1.12706 15.9234 1.45811 16.9808 2.51053C18.0332 3.56296 18.3643 4.84268 18.4334 6.28544C18.5026 7.52563 18.4927 8.75593 18.4927 9.99612ZM9.49026 2.61429C8.17596 2.61429 5.36454 2.51053 4.18365 2.97993C3.77355 3.14298 3.47215 3.34062 3.15098 3.65684C2.83476 3.97801 2.63712 4.27941 2.47407 4.68951C2.00467 5.87534 2.10843 8.68676 2.10843 9.99612C2.10843 11.3104 2.00467 14.1218 2.47407 15.3027C2.63712 15.7128 2.8397 16.0192 3.15592 16.3354C3.47215 16.6516 3.77849 16.8493 4.18859 17.0173C5.37442 17.4866 8.18584 17.3829 9.4952 17.3829C10.8046 17.3829 13.6209 17.4866 14.8018 17.0173C15.2119 16.8542 15.5183 16.6516 15.8345 16.3354C16.1507 16.0192 16.3483 15.7128 16.5163 15.3027C16.9857 14.1169 16.882 11.3055 16.882 9.99612C16.882 8.68182 16.9857 5.8704 16.5163 4.68951C16.3533 4.27941 16.1507 3.97306 15.8345 3.65684C15.5183 3.34062 15.2119 3.14298 14.8018 2.97499C13.616 2.51053 10.8046 2.61429 9.49026 2.61429ZM15.375 5.19349C15.375 5.79135 14.8957 6.27062 14.2978 6.27062C13.7 6.27062 13.2207 5.79135 13.2207 5.19349C13.2207 4.59563 13.7 4.11635 14.2978 4.11635C14.8957 4.11635 15.375 4.59563 15.375 5.19349ZM14.1101 9.99612C14.1101 12.5506 12.0497 14.611 9.4952 14.611C6.94072 14.611 4.88033 12.5506 4.88033 9.99612C4.88033 7.44163 6.94072 5.38124 9.4952 5.38124C12.0448 5.38124 14.1101 7.44163 14.1101 9.99612ZM12.4944 9.99612C12.4944 8.34583 11.1455 6.99695 9.4952 6.99695C7.84491 6.99695 6.49603 8.34583 6.49603 9.99612C6.49603 11.6464 7.84491 12.9953 9.4952 12.9953C11.1455 12.9953 12.4944 11.6513 12.4944 9.99612Z" fill="#fae8d1"/>
</svg>
