<svg width="16" height="16" viewBox="0 0 16 16" fill="none" xmlns="http://www.w3.org/2000/svg">
<path d="M3.58143 16H0.264286V5.31762H3.58143V16ZM1.92107 3.86044C0.860357 3.86044 0 2.98185 0 1.92111C7.59214e-09 1.4116 0.202398 0.92296 0.562669 0.562681C0.92294 0.202403 1.41157 0 1.92107 0C2.43057 0 2.9192 0.202403 3.27947 0.562681C3.63974 0.92296 3.84214 1.4116 3.84214 1.92111C3.84214 2.98185 2.98143 3.86044 1.92107 3.86044ZM15.9964 16H12.6864V10.7999C12.6864 9.56057 12.6614 7.97125 10.9618 7.97125C9.23714 7.97125 8.97286 9.31771 8.97286 10.7106V16H5.65929V5.31762H8.84071V6.77479H8.88714C9.33 5.93549 10.4118 5.04976 12.0257 5.04976C15.3829 5.04976 16 7.26052 16 10.132V16H15.9964Z" fill="#fae8d1"/>
</svg>
