<svg width="243" height="256" viewBox="0 0 243 256" fill="none" xmlns="http://www.w3.org/2000/svg">
<path d="M66.6465 119.538C68.602 126.836 52.0878 154.29 44.7896 156.246C37.4913 158.202 23.7209 143.592 21.7653 136.294C19.8098 128.996 24.1409 121.494 31.4391 119.538C38.7374 117.583 64.6909 112.24 66.6465 119.538Z" fill="#FAE8D1"/>
<path d="M160.933 106.545C170.089 97.3885 193.97 106.424 214.272 126.727C234.575 147.029 223.428 174.533 214.272 183.689C205.116 192.845 157.737 234.572 137.435 214.27C117.132 193.967 151.777 115.701 160.933 106.545Z" fill="#FAE8D1"/>
<path d="M44.0745 191.926C60.3532 186.982 136.203 183.609 129.165 198.964C122.127 214.318 95.3515 120.052 105.181 96.4688C100.789 102.883 83.2814 132.015 22.0692 152.781C20.138 154.695 19.5825 154.903 19.5461 154.767" stroke="#242E35" stroke-width="2" stroke-linecap="round" stroke-linejoin="round"/>
<path d="M146.385 159.041C149.441 170.443 155.348 197.376 153.312 197.921C150.056 198.794 141.619 171.665 139.01 162.471C146.168 160.407 159.458 152.453 155.355 137.142C152.596 126.843 144.62 123.116 137.471 122.241M137.471 122.241C133.992 121.816 130.708 122.066 128.317 122.564C125.864 114.493 116.98 86.7607 120.97 86.9985C123.822 86.2342 131.595 109.907 131.19 116.996C130.785 124.085 102.084 94.68 111.769 86.8477C116.79 82.7866 122.026 82.7904 124.31 84.7967C126.593 86.8029 132.651 105.335 137.471 122.241Z" stroke="#242E35" stroke-width="2" stroke-linecap="round" stroke-linejoin="round"/>
<path d="M149.246 156.676C152.417 166.883 158.898 189.441 156.958 201.746C150.959 203.789 141.081 205.773 137.863 197.26C119.882 149.705 125.596 136.826 119.568 137.132C113.54 137.438 113.484 158.402 95.9235 166.162C81.8749 172.371 44.7338 180.897 27.9193 184.384C25.3954 178.223 20.269 163.651 19.9541 154.658C15.2858 156.781 0.763783 162.855 5.67381 181.179C9.60184 195.839 24.6277 195.45 31.6497 193.423L33.4169 195.132L39.525 193.495C43.0822 208.399 52.7782 239.699 63.1047 245.661C81.6474 241.565 97.4994 235.572 89.885 226.701C82.2707 217.83 79.7982 216.747 76.6418 211.482C70.9408 213.01 70.0466 214.559 69.0938 212.632C68.3316 211.09 64.0052 203.957 61.9373 200.583L69.2671 198.619L74.1441 206.002L70.9452 207.281" stroke="#242E35" stroke-width="2" stroke-linecap="round" stroke-linejoin="round"/>
<path d="M164.149 155.931C249.243 170.708 249.479 73.5139 194.366 62.2391C131.737 49.4265 0.554421 98.2001 55.2603 40.0135" stroke="#242E35" stroke-width="2" stroke-linecap="round" stroke-linejoin="round" stroke-dasharray="6 6"/>
<path d="M62.096 15.4866L67.7589 23.0339L70.2525 36.8692L74.1008 28.5863L98.7139 16.1496L71.1556 22.1237L86.9357 40.255L110.331 9.81379L62.096 15.4866Z" stroke="#242E35" stroke-width="2" stroke-linecap="round" stroke-linejoin="round"/>
<path d="M165.326 21.0236C171.249 25.3988 166.037 31.1423 164.305 33.4868C162.573 35.8312 156.368 34.185 150.445 29.8099C144.523 25.4347 141.125 19.9874 142.857 17.6429C144.589 15.2985 159.403 16.6485 165.326 21.0236Z" fill="#C5D5E4"/>
</svg>
