<svg width="319" height="319" viewBox="0 0 319 319" fill="none" xmlns="http://www.w3.org/2000/svg">
<circle opacity="0.2" cx="159.5" cy="159.5" r="159.5" fill="#C5D5E4"/>
<g style="mix-blend-mode:multiply">
<path d="M222.853 183.819C226.489 194.081 207.891 209.062 192.925 214.365C177.958 219.667 168.303 223.299 164.667 213.037C161.032 202.776 180.077 180.044 195.044 174.741C210.01 169.439 219.217 173.558 222.853 183.819Z" fill="#E6C9C9"/>
</g>
<path d="M86.1755 226.197C78.1182 222.544 56.9516 212.045 61.6811 184.298C66.5155 155.936 116.471 144.978 136.453 114.36" stroke="#242E35" stroke-width="1.5" stroke-linecap="round" stroke-linejoin="round" stroke-dasharray="6 6"/>
<path d="M259.892 223.941C265.156 219.859 274.365 212.841 269.883 199.769C266.016 188.488 253.339 184.728 249.901 186.877C247.215 171.514 235.398 145.945 210.903 153.358" stroke="#242E35" stroke-width="1.5" stroke-linecap="round" stroke-linejoin="round" stroke-dasharray="6 6"/>
<path d="M250.866 190.188L249.372 190.311C249.22 188.481 248.347 186.785 246.945 185.598C245.543 184.411 243.727 183.83 241.897 183.982L241.835 183.234L241.773 182.487C242.68 182.411 243.563 182.158 244.372 181.741C245.181 181.325 245.9 180.752 246.488 180.058C247.075 179.363 247.52 178.559 247.797 177.692C248.074 176.827 248.177 175.916 248.102 175.01C248.102 175.008 248.102 175.006 248.101 175.004L249.596 174.88C249.596 174.88 249.596 174.88 249.596 174.88C249.748 176.713 250.622 178.41 252.026 179.598C253.429 180.787 255.247 181.369 257.079 181.217L257.141 181.964L257.203 182.712C255.372 182.864 253.676 183.736 252.488 185.138C251.3 186.54 250.716 188.356 250.866 190.187L250.866 190.188ZM250.866 190.188C250.866 190.188 250.866 190.187 250.866 190.187L250.866 190.188Z" fill="#C5D5E4" stroke="white" stroke-width="1.5"/>
<g style="mix-blend-mode:multiply">
<path d="M130.502 166.254C125.158 171.598 121.072 174.341 115.453 168.721C109.833 163.102 109.21 152.775 113.024 149.91C115.93 147.727 125.376 147.78 130.157 152.561C135.777 158.181 135.846 160.91 130.502 166.254Z" fill="#E6C9C9"/>
</g>
<path d="M163.204 243.842C165.259 245.303 172.274 248.528 173.481 234.198C174.859 217.833 198.732 234.198 209.89 235.659C221.047 237.12 232.241 234.145 228.952 226.196C224.841 216.26 218.639 234.898 244.1 232.642" stroke="#242E35" stroke-width="1.5" stroke-linecap="round" stroke-linejoin="round"/>
<path d="M120.805 236.905C122.174 236.512 125.204 234.548 126.377 229.832C127.844 223.938 134.589 224.527 133.416 229.832C132.243 235.137 125.497 248.105 109.074 246.336C92.65 244.568 98.2226 227.769 104.968 223.348C110.364 219.812 109.074 231.011 92.9434 228.359" stroke="#242E35" stroke-width="1.5" stroke-linecap="round" stroke-linejoin="round"/>
<path d="M131.619 212.338C131.343 213.726 130.791 215.253 129.686 216.205" stroke="#242E35" stroke-width="1.5" stroke-linecap="round" stroke-linejoin="round"/>
<path d="M149.748 211.048C149.456 211.958 149.806 214.264 153.536 216.205" stroke="#242E35" stroke-width="1.5" stroke-linecap="round" stroke-linejoin="round"/>
<ellipse cx="185.257" cy="98.5239" rx="7.33933" ry="9.33068" transform="rotate(147.822 185.257 98.5239)" fill="#FAE8D1" stroke="#242E35" stroke-width="1.5" stroke-linecap="round" stroke-linejoin="round"/>
<path d="M185.698 95.7256C184.619 96.1665 182.582 97.3034 183.069 98.3233C183.678 99.5982 186.481 97.3648 187.09 98.6397C187.577 99.6596 185.598 100.918 184.548 101.42" stroke="#242E35" stroke-width="1.5" stroke-linecap="round" stroke-linejoin="round"/>
<line x1="184.09" y1="96.0205" x2="186.579" y2="101.231" stroke="#242E35" stroke-width="1.5" stroke-linecap="round" stroke-linejoin="round"/>
<ellipse cx="162.868" cy="79.1955" rx="5.7138" ry="10.0971" transform="rotate(-46.5216 162.868 79.1955)" fill="#FAE8D1" stroke="#242E35" stroke-width="1.5" stroke-linecap="round" stroke-linejoin="round"/>
<path d="M165.782 85.6755C166.749 85.6755 168.747 85.2243 169.005 83.4194C169.327 81.1634 167.394 77.9404 166.104 76.6512C164.815 75.3621 159.659 71.1722 156.113 74.3952" stroke="#242E35" stroke-width="1.5" stroke-linecap="round" stroke-linejoin="round"/>
<path d="M155.468 72.4619L153.212 75.0403C152.568 76.8666 152.503 81.5506 157.402 85.676C163.526 90.8327 168.038 88.2543 169.327 86.9652" stroke="#242E35" stroke-width="1.5" stroke-linecap="round" stroke-linejoin="round"/>
<path d="M152.701 48.5809C153.498 48.6891 155.278 49.1345 156.029 50.0498C156.967 51.1939 156.377 54.6353 156.231 55.1962C156.084 55.7572 154.105 63.3302 148.516 66.9634C147.355 67.6188 145.572 66.3938 144.825 65.6993" stroke="#242E35" stroke-width="1.5" stroke-linecap="round" stroke-linejoin="round"/>
<path d="M134.842 90.1881C135.809 89.5435 137.42 88.8989 139.032 88.8989C141.288 88.8989 144.511 91.155 145.8 93.0888C147.089 95.0225 148.194 98.2455 147.734 101.468C147.411 103.724 145.155 107.592 140.643 107.914" stroke="#242E35" stroke-width="1.5" stroke-linecap="round" stroke-linejoin="round"/>
<path d="M190.598 106.295C189.792 107.132 188.355 108.106 186.781 108.451C184.577 108.933 180.946 107.419 179.273 105.806C177.6 104.192 175.832 101.28 175.592 98.0336C175.424 95.7608 176.801 91.5002 181.14 90.2203" stroke="#242E35" stroke-width="1.5" stroke-linecap="round" stroke-linejoin="round"/>
<path d="M155.915 148.523C160.298 145.172 166.336 143.259 168.807 142.722C171.063 143.044 175.365 144.011 173.044 144.011C170.143 144.011 164.02 147.234 161.764 148.846C159.508 150.457 157.527 150.78 155.915 150.78C154.304 150.78 154.626 149.49 155.915 148.523Z" stroke="#242E35" stroke-width="1.5" stroke-linecap="round" stroke-linejoin="round"/>
<path d="M119.052 162.727C117.012 159.513 111.473 147.004 115.554 143.735C119.635 140.466 129.287 142.375 137.098 144.978C147.733 148.523 172.872 119.839 204.779 154.325M119.052 162.727C121.093 165.941 113.513 180.258 115.554 195.744C117.443 210.076 120.218 225.255 117.886 232.56C115.554 238.696 125.757 238.695 127.507 234.021C128.899 230.299 131.879 226.716 137.127 228.761C142.374 230.806 154.618 231.683 158.7 234.021C162.781 236.358 160.74 241.325 162.781 243.371C164.822 245.416 172.11 247.753 175.608 243.371C178.815 239.572 177.649 230.806 184.937 228.761C192.225 226.716 196.307 223.21 199.222 219.703C202.137 216.197 191.351 215.321 194.849 222.333C197.901 228.451 203.303 228.761 203.595 224.963C203.886 221.164 203.886 218.242 206.218 212.107C208.551 205.971 221.669 189.316 211.757 165.941M119.052 162.727C120.218 165.064 123.892 168.571 128.09 165.064C133.337 160.682 140.334 156.299 134.503 151.916C128.673 147.533 122.259 145.78 119.635 145.78C117.012 145.78 116.828 148.118 117.886 152.5C118.945 156.883 119.052 162.727 119.052 162.727Z" stroke="#242E35" stroke-width="1.5" stroke-linecap="round" stroke-linejoin="round"/>
<ellipse rx="10.7633" ry="10.0811" transform="matrix(0.750429 0.660951 -0.684897 0.72864 138.742 198.931)" stroke="#242E35" stroke-width="1.5" stroke-linecap="round" stroke-linejoin="round"/>
<ellipse cx="134.455" cy="197.646" rx="1.5941" ry="1.49764" transform="rotate(33.9877 134.455 197.646)" fill="#E6C9C9" stroke="#242E35" stroke-width="1.5" stroke-linecap="round" stroke-linejoin="round"/>
<ellipse cx="141.453" cy="199.194" rx="1.5941" ry="1.49764" transform="rotate(33.9877 141.453 199.194)" fill="#E6C9C9" stroke="#242E35" stroke-width="1.5" stroke-linecap="round" stroke-linejoin="round"/>
<path d="M147.434 205.406C151.868 200.395 151.429 194.135 146.968 190.206C142.507 186.277 135.679 186.685 131.866 190.742" stroke="#242E35" stroke-width="1.5" stroke-linecap="round" stroke-linejoin="round"/>
<path d="M155.039 176.943C153.873 176.651 152.633 178.164 152.244 179.646C151.855 181.128 152.291 182.527 153.217 182.77C154.144 183.013 155.21 182.008 155.599 180.526C155.914 179.324 155.331 177.446 154.456 178.692" stroke="#242E35" stroke-width="1.5" stroke-linecap="round" stroke-linejoin="round"/>
<path d="M134.046 174.027C132.297 173.444 131.126 174.862 130.783 176.169C130.44 177.476 130.824 178.709 131.641 178.923C132.458 179.138 133.542 178.281 133.741 176.945C134.046 174.902 132.88 174.027 131.422 175.485" stroke="#242E35" stroke-width="1.5" stroke-linecap="round" stroke-linejoin="round"/>
<ellipse cx="138.395" cy="98.9219" rx="7.33933" ry="9.33068" transform="rotate(-19.8275 138.395 98.9219)" fill="#FAE8D1" stroke="#242E35" stroke-width="1.5" stroke-linecap="round" stroke-linejoin="round"/>
<path d="M139.836 96.5188C138.697 96.7666 136.494 97.5343 136.798 98.623C137.177 99.9839 140.324 98.2687 140.703 99.6296C141.007 100.718 138.84 101.616 137.719 101.928" stroke="#242E35" stroke-width="1.5" stroke-linecap="round" stroke-linejoin="round"/>
<line x1="138.201" y1="96.5313" x2="139.752" y2="102.094" stroke="#242E35" stroke-width="1.5" stroke-linecap="round" stroke-linejoin="round"/>
<ellipse cx="148.706" cy="57.1614" rx="3.7505" ry="9.46901" transform="rotate(25.4824 148.706 57.1614)" fill="#FAE8D1"/>
<ellipse cx="148.706" cy="57.1614" rx="3.7505" ry="9.46901" transform="rotate(25.4824 148.706 57.1614)" stroke="#242E35" stroke-width="1.5" stroke-linecap="round" stroke-linejoin="round"/>
<ellipse cx="162.746" cy="118.88" rx="4.11058" ry="10.3781" transform="rotate(10.8382 162.746 118.88)" fill="#FAE8D1" stroke="#242E35" stroke-width="1.5" stroke-linecap="round" stroke-linejoin="round"/>
<path d="M164.473 108.546C165.332 108.439 167.309 108.417 168.341 109.191C169.63 110.158 169.952 114.025 169.952 114.67C169.952 115.314 169.952 124.016 165.118 129.495C164.086 130.527 161.895 129.71 160.928 129.173" stroke="#242E35" stroke-width="1.5" stroke-linecap="round" stroke-linejoin="round"/>
<path d="M163.506 110.48C161.894 112.091 160.59 114.914 159.978 118.107C159.266 121.828 159.432 125.234 160.271 127.239" stroke="#242E35" stroke-width="1.5" stroke-linecap="round" stroke-linejoin="round"/>
<path d="M151.316 49.921C149.521 50.9718 147.719 53.1623 146.442 55.8407C144.956 58.9605 144.317 62.0055 144.594 63.9692" stroke="#242E35" stroke-width="1.5" stroke-linecap="round" stroke-linejoin="round"/>
<path d="M136.782 91.4269C133.268 92.6937 131.599 96.9919 133.054 101.027C133.875 103.304 135.516 105.011 137.42 105.838" stroke="#242E35" stroke-width="1.5" stroke-linecap="round" stroke-linejoin="round"/>
<path d="M188.437 105.5C191.598 103.511 192.309 98.9553 190.025 95.3247C188.736 93.276 186.769 91.9596 184.731 91.5588" stroke="#242E35" stroke-width="1.5" stroke-linecap="round" stroke-linejoin="round"/>
<path d="M211.548 165.605C201.557 143.689 183.886 173.409 188.585 172.237C193.283 171.065 185.648 158.757 182.124 155.241C180.362 153.483 176.544 151.139 171.258 153.19C165.972 155.241 160.098 162.274 162.448 164.911C164.797 167.549 172.433 172.823 173.607 179.27C175.957 182.493 181.83 176.047 181.83 166.376C181.83 156.706 176.544 152.018 170.377 156.413" stroke="#242E35" stroke-width="1.5" stroke-linecap="round" stroke-linejoin="round"/>
<path d="M130.975 214.271C134.247 217.783 143.47 219.289 150.312 214.271" stroke="#242E35" stroke-width="1.5" stroke-linecap="round" stroke-linejoin="round"/>
<g style="mix-blend-mode:multiply">
<path d="M107.798 73.844C107.8 71.7805 108.62 69.8022 110.077 68.3438C111.534 66.8854 113.51 66.0661 115.569 66.0661C113.508 66.0661 111.532 65.2458 110.074 63.7858C108.617 62.3258 107.798 60.3456 107.798 58.2808C107.799 59.3028 107.599 60.315 107.209 61.2595C106.819 62.2041 106.248 63.0623 105.527 63.7854C104.806 64.5084 103.949 65.082 103.007 65.4733C102.065 65.8647 101.054 66.0661 100.034 66.0661C102.093 66.0661 104.068 66.8856 105.524 68.3442C106.98 69.8029 107.798 71.7812 107.798 73.844Z" fill="#E6C9C9"/>
</g>
<g style="mix-blend-mode:multiply">
<path d="M76.8254 204.603C76.8272 202.723 77.5753 200.92 78.9055 199.591C80.2357 198.262 82.039 197.516 83.9192 197.516C82.0378 197.516 80.2335 196.768 78.9031 195.438C77.5727 194.108 76.8254 192.303 76.8254 190.422C76.8263 191.353 76.6436 192.275 76.2878 193.136C75.9321 193.997 75.4102 194.779 74.752 195.438C74.0938 196.096 73.3122 196.619 72.452 196.976C71.5917 197.332 70.6695 197.516 69.7383 197.516C71.6179 197.516 73.4205 198.262 74.7496 199.592C76.0787 200.921 76.8254 202.723 76.8254 204.603Z" fill="#E6C9C9"/>
</g>
<g style="mix-blend-mode:multiply">
<path d="M72.9582 153.68C72.96 151.8 73.7082 149.997 75.0383 148.668C76.3685 147.339 78.1718 146.593 80.052 146.593C78.1706 146.593 76.3663 145.845 75.0359 144.515C73.7056 143.185 72.9582 141.38 72.9582 139.499C72.9591 140.43 72.7764 141.353 72.4207 142.213C72.0649 143.074 71.543 143.856 70.8848 144.515C70.2266 145.174 69.4451 145.696 68.5848 146.053C67.7245 146.409 66.8024 146.593 65.8711 146.593C67.7507 146.593 69.5533 147.34 70.8824 148.669C72.2115 149.998 72.9582 151.8 72.9582 153.68Z" fill="#E6C9C9"/>
</g>
<g style="mix-blend-mode:multiply">
<path d="M250.578 233.066C251.101 231.776 252.115 230.745 253.397 230.202C254.679 229.658 256.125 229.645 257.416 230.167C256.124 229.645 255.092 228.631 254.547 227.349C254.003 226.066 253.99 224.62 254.512 223.328C254.254 223.967 253.873 224.55 253.39 225.042C252.907 225.535 252.331 225.927 251.697 226.197C251.062 226.467 250.38 226.609 249.69 226.615C249.001 226.622 248.316 226.492 247.677 226.234C248.968 226.755 249.999 227.768 250.543 229.049C251.087 230.331 251.1 231.776 250.578 233.066Z" fill="#C5D5E4"/>
</g>
<g style="mix-blend-mode:multiply">
<path d="M115.356 117.954C115.356 117.125 115.519 116.305 115.835 115.539C116.152 114.774 116.616 114.078 117.201 113.493C117.785 112.907 118.48 112.442 119.244 112.125C120.008 111.808 120.826 111.645 121.653 111.645C119.983 111.645 118.382 110.98 117.201 109.797C116.02 108.614 115.356 107.009 115.356 105.336C115.356 107.009 114.693 108.614 113.512 109.797C112.331 110.98 110.729 111.645 109.059 111.645C109.886 111.645 110.704 111.808 111.469 112.125C112.233 112.442 112.927 112.907 113.512 113.493C114.096 114.078 114.56 114.774 114.877 115.539C115.193 116.305 115.356 117.125 115.356 117.954Z" fill="#C5D5E4"/>
</g>
<g style="mix-blend-mode:multiply">
<path d="M210.737 96.0383C210.737 92.8264 212.011 89.7461 214.278 87.4749C216.545 85.2038 219.62 83.9279 222.826 83.9279C219.62 83.9279 216.545 82.6519 214.278 80.3808C212.011 78.1096 210.737 75.0293 210.737 71.8174C210.737 75.028 209.465 78.1072 207.199 80.3781C204.934 82.6491 201.861 83.9259 198.656 83.9279C201.861 83.9298 204.934 85.2066 207.199 87.4776C209.465 89.7485 210.737 92.8277 210.737 96.0383Z" fill="#C5D5E4"/>
</g>
</svg>
