<svg width="329" height="324" viewBox="0 0 329 324" fill="none" xmlns="http://www.w3.org/2000/svg">
<g style="mix-blend-mode:multiply">
<path d="M247.5 221C244.852 242.097 233.275 258.33 219.301 256.576C205.328 254.822 196.146 236.298 198.794 215.2C201.442 194.103 214.917 178.422 228.89 180.176C242.864 181.929 250.148 199.903 247.5 221Z" fill="#E6C9C9"/>
</g>
<path d="M40.5001 278.5C28.0001 272.833 -4.83726 256.545 2.5 213.5C10 169.5 87.4998 152.5 118.5 105" stroke="#242E35" stroke-width="2" stroke-linecap="round" stroke-linejoin="round" stroke-dasharray="6 6"/>
<path d="M310 275.001C318.167 268.668 332.453 257.781 325.5 237.501C319.5 220 299.833 214.167 294.5 217.501C290.333 193.667 272 154 234 165.5" stroke="#242E35" stroke-width="2" stroke-linecap="round" stroke-linejoin="round" stroke-dasharray="6 6"/>
<path d="M293.349 217.879C292.662 216.656 291.757 215.553 290.666 214.629C289.576 213.706 288.34 212.996 287.022 212.519L293.349 217.879ZM293.349 217.879C292.882 219.491 292.705 221.19 292.845 222.896L294.838 222.732L296.831 222.567C296.69 220.861 296.236 219.214 295.51 217.7C295.988 216.38 296.7 215.143 297.625 214.051C298.549 212.961 299.651 212.057 300.872 211.37L293.349 217.879ZM294.861 198.818L290.874 199.151L292.2 204.029C292.113 203.848 292.03 203.665 291.951 203.48C291.369 202.121 291.002 200.666 290.876 199.165C290.875 199.161 290.875 199.157 290.875 199.153L292.868 198.986L294.861 198.82C295.078 201.442 296.328 203.87 298.336 205.57C300.344 207.271 302.945 208.103 305.567 207.886C303.859 208.028 302.209 208.482 300.693 209.21C299.373 208.732 298.136 208.021 297.044 207.097C295.953 206.173 295.049 205.071 294.361 203.85C294.833 202.218 295.003 200.513 294.861 198.818ZM281.82 209.856L281.986 211.849L282.151 213.843C284.77 213.625 287.368 214.457 289.373 216.155C291.379 217.854 292.627 220.279 292.845 222.898L296.831 222.569C296.616 219.948 297.451 217.35 299.151 215.344C300.851 213.338 303.277 212.09 305.898 211.872L305.732 209.879L281.82 209.856Z" fill="#C5D5E4" stroke="white" stroke-width="4"/>
<g style="mix-blend-mode:multiply">
<path d="M67.0182 294.631C67.7473 282.05 86.4416 268.633 148.639 272.238C210.837 275.842 266.932 286.572 266.203 299.152C265.474 311.733 198.972 319.901 146.055 316.834C83.857 313.23 66.2892 307.211 67.0182 294.631Z" fill="#C5D5E4"/>
</g>
<g style="mix-blend-mode:multiply">
<path d="M109.266 185.507C100.976 193.798 94.6375 198.053 85.9196 189.335C77.2017 180.617 76.2351 164.596 82.1517 160.152C86.6596 156.765 101.315 156.847 108.732 164.264C117.45 172.982 117.557 177.217 109.266 185.507Z" fill="#E6C9C9"/>
</g>
<g style="mix-blend-mode:multiply">
<path d="M173.5 199C164.408 194.35 155.316 192.159 160 183C164.684 173.841 176 171 183.5 173.5C188.155 175.051 195.5 187 192 197.5C188.747 207.26 182.592 203.65 173.5 199Z" fill="#E6C9C9"/>
</g>
<path d="M160 305.875C163.189 308.142 174.07 313.146 175.943 290.914C178.082 265.526 215.117 290.914 232.427 293.181C249.737 295.447 267.102 290.831 262 278.5C255.623 263.086 246 292 285.5 288.5" stroke="#242E35" stroke-width="2" stroke-linecap="round" stroke-linejoin="round"/>
<path d="M94.2241 295.114C96.3474 294.504 101.049 291.456 102.869 284.141C105.144 274.996 115.609 275.911 113.789 284.141C111.969 292.371 101.503 312.488 76.0242 309.745C50.5449 307.002 59.19 280.94 69.6548 274.082C78.0265 268.595 76.0242 285.97 51 281.855" stroke="#242E35" stroke-width="2" stroke-linecap="round" stroke-linejoin="round"/>
<path d="M111 257C110.571 259.154 109.714 261.523 108 263" stroke="#242E35" stroke-width="2" stroke-linecap="round" stroke-linejoin="round"/>
<path d="M139.123 255C138.671 256.412 139.214 259.988 145 263" stroke="#242E35" stroke-width="2" stroke-linecap="round" stroke-linejoin="round"/>
<ellipse cx="194.214" cy="80.4324" rx="11.3861" ry="14.4754" transform="rotate(147.822 194.214 80.4324)" fill="#FAE8D1" stroke="#242E35" stroke-width="2" stroke-linecap="round" stroke-linejoin="round"/>
<path d="M194.897 76.091C193.223 76.7751 190.063 78.5389 190.819 80.1211C191.763 82.0989 196.112 78.6341 197.057 80.6119C197.812 82.1942 194.742 84.1462 193.113 84.9245" stroke="#242E35" stroke-width="2" stroke-linecap="round" stroke-linejoin="round"/>
<line x1="192.184" y1="76.4714" x2="196.186" y2="84.8507" stroke="#242E35" stroke-width="2" stroke-linecap="round" stroke-linejoin="round"/>
<ellipse cx="159.479" cy="50.4465" rx="8.86425" ry="15.6644" transform="rotate(-46.5216 159.479 50.4465)" fill="#FAE8D1" stroke="#242E35" stroke-width="2" stroke-linecap="round" stroke-linejoin="round"/>
<path d="M164 60.5C165.5 60.5 168.6 59.8 169 57C169.5 53.5 166.5 48.5 164.5 46.5C162.5 44.5 154.5 38 149 43" stroke="#242E35" stroke-width="2" stroke-linecap="round" stroke-linejoin="round"/>
<path d="M148 40L144.5 44C143.5 46.8333 143.4 54.1 151 60.5C160.5 68.5 167.5 64.5 169.5 62.5" stroke="#242E35" stroke-width="2" stroke-linecap="round" stroke-linejoin="round"/>
<path d="M143.707 2.95166C144.943 3.11963 147.706 3.81055 148.87 5.23048C150.326 7.00539 149.411 12.3443 149.183 13.2145C148.956 14.0848 145.886 25.8334 137.215 31.4699C135.414 32.4867 132.647 30.5862 131.489 29.5089" stroke="#242E35" stroke-width="2" stroke-linecap="round" stroke-linejoin="round"/>
<path d="M116 67.5C117.5 66.5 120 65.5 122.5 65.5C126 65.5 131 69 133 72C135 75 136.714 80 136 85C135.5 88.5 132 94.5 125 95" stroke="#242E35" stroke-width="2" stroke-linecap="round" stroke-linejoin="round"/>
<path d="M202.499 92.4884C201.248 93.7861 199.019 95.2977 196.577 95.8325C193.158 96.5811 187.525 94.2316 184.93 91.7288C182.334 89.226 179.59 84.7084 179.219 79.6714C178.958 76.1454 181.094 69.5357 187.825 67.5499" stroke="#242E35" stroke-width="2" stroke-linecap="round" stroke-linejoin="round"/>
<path d="M148.693 158C155.493 152.8 164.859 149.833 168.693 149C172.193 149.5 178.866 151 175.266 151C170.766 151 161.266 156 157.766 158.5C154.266 161 151.193 161.5 148.693 161.5C146.193 161.5 146.693 159.5 148.693 158Z" stroke="#242E35" stroke-width="2" stroke-linecap="round" stroke-linejoin="round"/>
<path d="M91.505 180.035C88.3391 175.049 79.7461 155.643 86.0778 150.571C92.4095 145.5 107.383 148.461 119.5 152.5C136 158 175 113.5 224.5 167M91.505 180.035C94.6708 185.022 82.9119 207.233 86.0778 231.257C89.0078 253.492 93.314 277.04 89.6959 288.372C86.0778 297.891 101.907 297.891 104.621 290.639C106.781 284.866 111.405 279.306 119.545 282.479C127.686 285.652 146.681 287.012 153.013 290.639C159.345 294.265 156.179 301.971 159.345 305.144C162.511 308.317 173.817 311.943 179.245 305.144C184.219 299.251 182.41 285.652 193.717 282.479C205.024 279.306 211.355 273.867 215.878 268.427C220.401 262.988 203.667 261.628 209.094 272.507C213.829 281.998 222.21 282.479 222.662 276.587C223.114 270.694 223.114 266.161 226.732 256.642C230.351 247.123 250.703 221.285 235.326 185.022M91.505 180.035C93.314 183.662 99.0125 189.101 105.525 183.662C113.666 176.862 124.52 170.063 115.475 163.263C106.43 156.464 96.4799 153.744 92.4095 153.744C88.3391 153.744 88.0538 157.371 89.6959 164.17C91.338 170.969 91.505 180.035 91.505 180.035Z" stroke="#242E35" stroke-width="2" stroke-linecap="round" stroke-linejoin="round"/>
<ellipse rx="16.698" ry="15.6396" transform="matrix(0.750429 0.660951 -0.684897 0.72864 122.051 236.201)" stroke="#242E35" stroke-width="2" stroke-linecap="round" stroke-linejoin="round"/>
<ellipse cx="115.401" cy="234.207" rx="2.47305" ry="2.3234" transform="rotate(33.9877 115.401 234.207)" fill="#E6C9C9" stroke="#242E35" stroke-width="2" stroke-linecap="round" stroke-linejoin="round"/>
<ellipse cx="126.258" cy="236.61" rx="2.47305" ry="2.3234" transform="rotate(33.9877 126.258 236.61)" fill="#E6C9C9" stroke="#242E35" stroke-width="2" stroke-linecap="round" stroke-linejoin="round"/>
<path d="M135.536 246.247C142.416 238.473 141.734 228.762 134.814 222.666C127.894 216.571 117.301 217.203 111.385 223.497" stroke="#242E35" stroke-width="2" stroke-linecap="round" stroke-linejoin="round"/>
<path d="M147.335 202.089C145.526 201.637 143.602 203.985 142.999 206.284C142.396 208.583 143.072 210.753 144.509 211.13C145.946 211.507 147.6 209.948 148.203 207.649C148.692 205.785 147.787 202.871 146.43 204.803" stroke="#242E35" stroke-width="2" stroke-linecap="round" stroke-linejoin="round"/>
<path d="M114.766 197.566C112.052 196.661 110.236 198.861 109.704 200.889C109.172 202.916 109.768 204.83 111.035 205.162C112.303 205.495 113.984 204.166 114.293 202.093C114.766 198.923 112.957 197.566 110.695 199.828" stroke="#242E35" stroke-width="2" stroke-linecap="round" stroke-linejoin="round"/>
<ellipse cx="121.514" cy="81.0492" rx="11.3861" ry="14.4754" transform="rotate(-19.8275 121.514 81.0492)" fill="#FAE8D1" stroke="#242E35" stroke-width="2" stroke-linecap="round" stroke-linejoin="round"/>
<path d="M123.748 77.3213C121.981 77.7057 118.563 78.8967 119.034 80.5857C119.623 82.697 124.505 80.036 125.094 82.1473C125.564 83.8364 122.203 85.2285 120.464 85.7134" stroke="#242E35" stroke-width="2" stroke-linecap="round" stroke-linejoin="round"/>
<line x1="121.01" y1="77.227" x2="123.504" y2="86.1719" stroke="#242E35" stroke-width="2" stroke-linecap="round" stroke-linejoin="round"/>
<ellipse cx="137.51" cy="16.2635" rx="5.81844" ry="14.69" transform="rotate(25.4824 137.51 16.2635)" fill="#FAE8D1"/>
<ellipse cx="137.51" cy="16.2635" rx="5.81844" ry="14.69" transform="rotate(25.4824 137.51 16.2635)" stroke="#242E35" stroke-width="2" stroke-linecap="round" stroke-linejoin="round"/>
<ellipse cx="159.291" cy="112.012" rx="6.37705" ry="16.1003" transform="rotate(10.8382 159.291 112.012)" fill="#FAE8D1" stroke="#242E35" stroke-width="2" stroke-linecap="round" stroke-linejoin="round"/>
<path d="M161.97 95.9798C163.303 95.8131 166.37 95.7798 167.97 96.9798C169.97 98.4798 170.47 104.48 170.47 105.48C170.47 106.48 170.47 119.98 162.97 128.48C161.37 130.08 157.97 128.813 156.47 127.98" stroke="#242E35" stroke-width="2" stroke-linecap="round" stroke-linejoin="round"/>
<path d="M160.47 98.9797C157.97 101.48 155.946 105.858 154.998 110.813C153.893 116.585 154.151 121.868 155.451 124.98" stroke="#242E35" stroke-width="2" stroke-linecap="round" stroke-linejoin="round"/>
<path d="M141.558 5.03086C138.774 6.66109 135.978 10.0594 133.997 14.2145C131.69 19.0545 130.699 23.7784 131.13 26.8249" stroke="#242E35" stroke-width="2" stroke-linecap="round" stroke-linejoin="round"/>
<path d="M119.009 69.4219C113.559 71.3873 110.97 78.0553 113.227 84.3154C114.501 87.8478 117.045 90.4956 120 91.7792" stroke="#242E35" stroke-width="2" stroke-linecap="round" stroke-linejoin="round"/>
<path d="M199.148 91.2549C204.052 88.1692 205.155 81.1017 201.611 75.4693C199.611 72.2911 196.559 70.2489 193.398 69.627" stroke="#242E35" stroke-width="2" stroke-linecap="round" stroke-linejoin="round"/>
<path d="M235 184.5C219.5 150.5 192.085 196.607 199.375 194.789C206.664 192.971 194.819 173.877 189.351 168.421C186.618 165.694 180.695 162.057 172.494 165.239C164.293 168.421 155.182 179.332 158.826 183.423C162.471 187.515 174.317 195.698 176.139 205.699C179.784 210.7 188.896 200.699 188.896 185.696C188.896 170.694 180.695 163.421 171.127 170.24" stroke="#242E35" stroke-width="2" stroke-linecap="round" stroke-linejoin="round"/>
<path d="M110 260C115.077 265.448 129.385 267.783 140 260" stroke="#242E35" stroke-width="2" stroke-linecap="round" stroke-linejoin="round"/>
<g style="mix-blend-mode:multiply">
<path d="M74.0447 42.1444C74.0477 38.9432 75.3193 35.8741 77.5799 33.6115C79.8406 31.349 82.9054 30.078 86.1009 30.078C82.9034 30.078 79.8368 28.8054 77.5758 26.5404C75.3149 24.2753 74.0447 21.2033 74.0447 18C74.0462 19.5856 73.7358 21.1559 73.1311 22.6212C72.5265 24.0865 71.6396 25.418 70.521 26.5397C69.4024 27.6614 68.074 28.5513 66.612 29.1584C65.1499 29.7655 63.5827 30.078 62 30.078C65.1944 30.078 68.2581 31.3493 70.5169 33.6122C72.7757 35.8751 74.0447 38.9442 74.0447 42.1444Z" fill="#E6C9C9"/>
</g>
<g style="mix-blend-mode:multiply">
<path d="M25.9947 245C25.9975 242.083 27.1582 239.287 29.2218 237.225C31.2854 235.163 34.083 234.005 37 234.005C34.0812 234.005 31.282 232.846 29.2181 230.782C27.1542 228.718 25.9947 225.919 25.9947 223C25.9961 224.445 25.7128 225.876 25.1608 227.211C24.6089 228.546 23.7993 229.759 22.7782 230.781C21.7571 231.803 20.5446 232.614 19.2099 233.167C17.8753 233.721 16.4447 234.005 15 234.005C17.916 234.005 20.7125 235.164 22.7744 237.226C24.8364 239.287 25.9947 242.084 25.9947 245Z" fill="#E6C9C9"/>
</g>
<g style="mix-blend-mode:multiply">
<path d="M19.9947 166C19.9975 163.083 21.1582 160.287 23.2218 158.225C25.2854 156.163 28.083 155.005 31 155.005C28.0812 155.005 25.282 153.846 23.2181 151.782C21.1542 149.718 19.9947 146.919 19.9947 144C19.9961 145.445 19.7128 146.876 19.1608 148.211C18.6089 149.546 17.7993 150.759 16.7782 151.781C15.7571 152.803 14.5446 153.614 13.2099 154.167C11.8753 154.721 10.4447 155.005 9 155.005C11.916 155.005 14.7125 156.164 16.7744 158.226C18.8364 160.287 19.9947 163.084 19.9947 166Z" fill="#E6C9C9"/>
</g>
<g style="mix-blend-mode:multiply">
<path d="M295.551 289.158C296.362 287.156 297.935 285.557 299.924 284.714C301.913 283.87 304.155 283.851 306.158 284.66C304.154 283.85 302.553 282.278 301.708 280.288C300.863 278.298 300.843 276.054 301.653 274.05C301.253 275.042 300.662 275.946 299.912 276.71C299.163 277.474 298.27 278.083 297.286 278.501C296.301 278.92 295.243 279.14 294.173 279.15C293.103 279.16 292.042 278.959 291.05 278.558C293.052 279.367 294.651 280.938 295.496 282.926C296.34 284.914 296.36 287.156 295.551 289.158Z" fill="#C5D5E4"/>
</g>
<g style="mix-blend-mode:multiply">
<path d="M85.7697 110.575C85.7697 109.289 86.0224 108.017 86.5134 106.829C87.0044 105.642 87.724 104.563 88.6312 103.654C89.5384 102.745 90.6154 102.024 91.8007 101.532C92.986 101.04 94.2564 100.787 95.5394 100.787C92.9483 100.787 90.4634 99.7562 88.6312 97.9207C86.799 96.0853 85.7697 93.5958 85.7697 91C85.7697 93.5958 84.7404 96.0853 82.9082 97.9207C81.0761 99.7562 78.5911 100.787 76 100.787C77.283 100.787 78.5534 101.04 79.7387 101.532C80.924 102.024 82.001 102.745 82.9082 103.654C83.8154 104.563 84.5351 105.642 85.026 106.829C85.517 108.017 85.7697 109.289 85.7697 110.575Z" fill="#C5D5E4"/>
</g>
<g style="mix-blend-mode:multiply">
<path d="M233.743 76.5758C233.743 71.5929 235.718 66.8142 239.236 63.2908C242.753 59.7673 247.523 57.7879 252.497 57.7879C247.523 57.7879 242.753 55.8085 239.236 52.285C235.718 48.7616 233.743 43.9829 233.743 39C233.743 43.9809 231.768 48.7579 228.254 52.2809C224.739 55.804 219.972 57.7848 215 57.7879C219.972 57.791 224.739 59.7718 228.254 63.2948C231.768 66.8179 233.743 71.5949 233.743 76.5758Z" fill="#C5D5E4"/>
</g>
</svg>
