<svg width="177" height="158" viewBox="0 0 177 158" fill="none" xmlns="http://www.w3.org/2000/svg">
<g style="mix-blend-mode:multiply">
<path d="M120.454 111.701C114.861 134.197 86.1258 152.33 45.5824 135.408C7.35617 118.605 -3.43044 59.5929 16.5108 51.3685C36.452 43.1441 29.745 135.512 73.0111 78.3554C116.277 21.1987 126.047 89.206 120.454 111.701Z" fill="#E6C9C9"/>
</g>
<path d="M92.7499 2.00005L96.8934 25.0692" stroke="#513011" stroke-width="2" stroke-linecap="round" stroke-linejoin="round" stroke-dasharray="4 4"/>
<path d="M141.791 51.3153C139.979 47.6901 135.752 39.8361 135.75 35.6079C135.75 30.1713 140.76 31.3792 142.574 33.7957C144.025 35.7289 148.235 44.8714 150.249 49.503" stroke="#513011" stroke-width="2" stroke-linecap="round" stroke-linejoin="round"/>
<path d="M154.646 101.459C140.631 107.741 129.475 98.8407 125.649 93.605H115.983C109.337 93.605 103.9 79.7102 105.109 76.6896C122.628 47.6919 163.104 48.296 167.333 48.9001C171.562 49.5043 175.79 60.3784 175.186 65.2114C174.703 69.0777 169.749 73.669 167.333 75.4814C168.944 81.5226 168.662 95.1757 154.646 101.459Z" stroke="#513011" stroke-width="2" stroke-linecap="round" stroke-linejoin="round"/>
<path d="M121.426 89.9776C122.836 85.7487 128.676 76.2036 140.758 71.854C155.861 66.4169 164.923 73.0622 167.339 71.854C169.756 70.6458 174.589 65.2079 172.172 63.3956C169.756 61.5832 153.444 59.7709 143.174 63.3956C132.904 67.0203 123.671 73.6683 120.046 79.1054C116.421 84.5424 129.712 67.023 126.259 57.959C122.806 48.8949 120.993 45.2702 119.613 42.856C118.234 40.4417 111.156 41.0436 114.176 48.2931C116.593 54.0926 118.808 58.968 119.613 60.9818" stroke="#513011" stroke-width="2" stroke-linecap="round" stroke-linejoin="round"/>
<ellipse cx="71.1161" cy="72.4607" rx="15.7071" ry="35.643" transform="rotate(-13.2347 71.1161 72.4607)" stroke="#513011" stroke-width="2" stroke-linecap="round" stroke-linejoin="round"/>
<ellipse cx="68.875" cy="63.1728" rx="2.29068" ry="5.19808" transform="rotate(-13.2347 68.875 63.1728)" stroke="#513011" stroke-width="2" stroke-linecap="round" stroke-linejoin="round"/>
<path d="M67.4999 66C66.3332 64 65.2013 56.1 68.0013 52.5" stroke="#513011" stroke-width="2" stroke-linecap="round" stroke-linejoin="round"/>
<ellipse cx="75.3144" cy="86.5888" rx="2.29068" ry="5.19808" transform="rotate(-13.2347 75.3144 86.5888)" stroke="#513011" stroke-width="2" stroke-linecap="round" stroke-linejoin="round"/>
<path d="M63.0037 37.802L51.202 40.5305C42.7576 42.5165 39.5655 59.6606 44.0722 78.8228C48.579 97.9851 59.0779 111.909 67.5223 109.923L79.968 107.014" stroke="#513011" stroke-width="2" stroke-linecap="round" stroke-linejoin="round"/>
<path d="M41.8739 55.7518C29.3262 59.1975 21.9113 72.0304 25.3122 84.415C28.5715 96.284 40.5819 103.434 52.6211 100.976" stroke="#513011" stroke-width="2" stroke-linecap="round" stroke-linejoin="round"/>
<path d="M135.922 74.2729C132.7 79.3073 131.805 88.0488 141.471 92.8818C153.553 98.923 154.41 102.74 154.41 111.982C154.41 121.224 129.342 144.663 163.421 138.331C197.5 132 34.0006 105.669 75.4998 123C116.999 140.331 62.0006 128 68.9997 129.5" stroke="#513011" stroke-width="2" stroke-linecap="round" stroke-linejoin="round"/>
<path d="M81.2639 28.0063L68.052 13.56" stroke="#513011" stroke-width="2" stroke-linecap="round" stroke-linejoin="round"/>
<path d="M127.923 24.713L135.836 13.0346" stroke="#513011" stroke-width="2" stroke-linecap="round" stroke-linejoin="round"/>
<path d="M112.99 23.2251L114.294 7.2542" stroke="#513011" stroke-width="2" stroke-linecap="round" stroke-linejoin="round"/>
</svg>
