<svg width="44" height="44" viewBox="0 0 44 44" fill="none" xmlns="http://www.w3.org/2000/svg">
<circle cx="22" cy="22" r="21.25" stroke="#242E35" stroke-width="1.5"/>
<path d="M22.001 21.8553C23.9931 21.8553 25.501 20.0428 25.501 17.6444C25.501 15.7303 23.8994 14.1053 22.001 14.1053C20.1025 14.1053 18.501 15.7303 18.501 17.6444C18.501 20.0428 20.0088 21.8553 22.001 21.8553ZM22.001 15.3163C23.2119 15.3163 24.2822 16.41 24.2822 17.6444C24.2822 19.3553 23.3056 20.6444 22.001 20.6444C20.6963 20.6444 19.7197 19.3553 19.7197 17.6444C19.7197 16.41 20.79 15.3163 22.001 15.3163ZM16.7588 28.1053L16.8681 26.9413C17.1103 24.5975 19.7822 24.0819 22.001 24.0819C24.2197 24.0819 26.8916 24.5975 27.1338 26.9335L27.2431 28.1053H28.4931L28.3838 26.8163C28.1103 24.2616 25.8603 22.8553 22.001 22.8553C18.1416 22.8553 15.8916 24.2616 15.6181 26.8241L15.5088 28.1053H16.7588Z" fill="#242E35"/>
</svg>

