<svg width="104" height="104" viewBox="0 0 104 104" fill="none" xmlns="http://www.w3.org/2000/svg">
<rect width="104" height="104" fill="#242E35"/>
<path d="M81.7978 66.1685C81.7978 67.1911 80.9624 68.0278 79.9413 68.0278C78.9202 68.0278 78.0847 67.1911 78.0847 66.1685V58.1732H81.7978V54.4545H78.0847V48.8765H74.3716V54.4545V58.1732V66.0755C74.3716 69.1434 76.8779 71.6536 79.9413 71.6536C83.0046 71.6536 85.511 69.1434 85.511 66.0755H81.7978V66.1685Z" fill="#FAE8D1"/>
<path d="M48.2861 53.9902C45.8726 53.9902 43.5519 54.9199 41.881 56.6863C40.21 58.4527 39.3746 60.7769 39.4674 63.194C39.6531 67.8424 43.6447 71.6541 48.2861 71.6541C50.6068 71.6541 52.8347 70.7244 54.5056 69.051L51.9064 66.4479C50.9781 67.3776 49.6785 67.9354 48.2861 67.9354C46.1511 67.9354 44.2945 66.5409 43.5519 64.6815H57.1976V62.8222C57.1048 57.9878 53.1132 53.9902 48.2861 53.9902ZM43.459 61.0558C43.7375 60.405 44.016 59.8472 44.573 59.3824C45.5941 58.3597 46.8937 57.8019 48.2861 57.8019C50.4212 57.8019 52.2777 59.1964 53.0204 61.0558H43.459Z" fill="#FAE8D1"/>
<path d="M44.573 33.2446H40.8599V50.0718H44.573V33.2446Z" fill="#FAE8D1"/>
<path d="M29.9066 45.8882L24.9867 33.2446H20.8095H18.4888V36.9633H22.2947L27.3075 50.0718H28.2357H31.4847H32.5058L39.0038 33.2446H34.8265L29.9066 45.8882Z" fill="#FAE8D1"/>
<path d="M29.8138 67.0987L24.9867 54.4551H20.8095H18.4888V58.1738H22.2019L27.3075 71.2822H28.2357H31.4847H32.413L38.911 54.4551H34.7337L29.8138 67.0987Z" fill="#FAE8D1"/>
<path d="M44.573 25.8071H40.8599V29.5258H44.573V25.8071Z" fill="#FAE8D1"/>
<path d="M76.6927 32.7803C71.7728 32.7803 67.874 36.7779 67.874 41.6122C67.874 46.4465 71.8656 50.4441 76.6927 50.4441C81.5198 50.4441 85.5114 46.4465 85.5114 41.6122C85.5114 36.7779 81.6126 32.7803 76.6927 32.7803ZM76.6927 46.8184C73.9079 46.8184 71.5872 44.4942 71.5872 41.7052C71.5872 38.9161 73.9079 36.5919 76.6927 36.5919C79.4776 36.5919 81.7983 38.9161 81.7983 41.7052C81.7983 44.4942 79.5704 46.8184 76.6927 46.8184Z" fill="#FAE8D1"/>
<path d="M66.1092 61.2423C65.4594 61.0564 64.8097 60.8704 64.4383 60.5915C64.067 60.4056 63.4172 60.0337 63.2316 59.4759C63.0459 58.8251 63.4172 58.1744 63.9742 57.8025C65.181 57.1517 67.5017 57.9884 68.6156 59.197L71.2148 56.5939C68.9869 54.3627 65.0881 53.0611 62.2105 54.5486C59.9826 55.7572 58.8686 58.3603 59.7041 60.6845C60.1682 62.079 61.2822 63.1946 62.7674 63.9384C63.4172 64.3102 64.2527 64.4962 64.9953 64.7751C66.2021 65.1469 67.5017 65.6118 67.873 66.1696C67.9658 66.3555 67.9658 66.5414 67.9658 66.7274C67.873 67.0993 67.5017 67.4711 67.0375 67.6571C66.3877 67.843 65.7379 68.0289 64.9025 67.936C63.6029 67.936 62.3033 67.3782 61.4678 66.4485L58.8687 69.0516C60.4467 70.632 62.6746 71.5617 64.9025 71.6547C64.9953 71.6547 65.0881 71.6547 65.2738 71.6547C66.4806 71.6547 67.5017 71.4687 68.5228 71.0969C70.008 70.5391 71.2148 69.3305 71.6789 67.936C72.1431 66.6344 71.9574 65.3329 71.2148 64.2173C69.9152 62.4509 67.7802 61.8001 66.1092 61.2423Z" fill="#FAE8D1"/>
<path d="M56.6409 32.7803C54.6916 32.7803 52.9278 33.431 51.5354 34.4537V33.2451H47.8223V41.6122V49.9793H51.5354V41.6122C51.5354 38.8232 53.8561 36.499 56.6409 36.499C59.4258 36.499 61.7465 38.8232 61.7465 41.6122V49.9793H65.4596V41.6122C65.5525 36.7779 61.5608 32.7803 56.6409 32.7803Z" fill="#FAE8D1"/>
</svg>
