<svg width="90" height="90" viewBox="0 0 90 90" fill="none" xmlns="http://www.w3.org/2000/svg">
<rect width="90" height="90" fill="#EFDDC7"/>
<path d="M70.7859 57.2621C70.7859 58.147 70.063 58.8711 69.1793 58.8711C68.2956 58.8711 67.5727 58.147 67.5727 57.2621V50.3431H70.7859V47.125H67.5727V42.2979H64.3594V47.125V50.3431V57.1816C64.3594 59.8366 66.5283 62.0088 69.1793 62.0088C71.8303 62.0088 73.9992 59.8366 73.9992 57.1816H70.7859V57.2621Z" fill="#242E35"/>
<path d="M41.786 46.7227C39.6974 46.7227 37.6891 47.5272 36.2431 49.0558C34.7971 50.5844 34.0741 52.5957 34.1545 54.6875C34.3151 58.7101 37.7694 62.0087 41.786 62.0087C43.7943 62.0087 45.7223 61.2042 47.1683 59.756L44.919 57.5033C44.1157 58.3079 42.991 58.7906 41.786 58.7906C39.9384 58.7906 38.3317 57.5838 37.6891 55.9747H49.4979V54.3657C49.4176 50.1821 45.9633 46.7227 41.786 46.7227ZM37.6088 52.8371C37.8497 52.2739 38.0907 51.7912 38.5727 51.3889C39.4564 50.5039 40.581 50.0212 41.786 50.0212C43.6337 50.0212 45.2403 51.228 45.883 52.8371H37.6088Z" fill="#242E35"/>
<path d="M38.5727 28.7695H35.3594V43.3315H38.5727V28.7695Z" fill="#242E35"/>
<path d="M25.8809 39.7111L21.6233 28.7695H18.0083H16V31.9876H19.2936L23.6316 43.3315H24.4349H27.2465H28.1302L33.7534 28.7695H30.1385L25.8809 39.7111Z" fill="#242E35"/>
<path d="M25.8005 58.0666L21.6233 47.125H18.0083H16V50.3431H19.2133L23.6316 61.687H24.4349H27.2465H28.0498L33.6731 47.125H30.0581L25.8005 58.0666Z" fill="#242E35"/>
<path d="M38.5727 22.3335H35.3594V25.5516H38.5727V22.3335Z" fill="#242E35"/>
<path d="M66.3679 28.3677C62.1103 28.3677 58.7363 31.8271 58.7363 36.0107C58.7363 40.1942 62.1906 43.6537 66.3679 43.6537C70.5452 43.6537 73.9994 40.1942 73.9994 36.0107C73.9994 31.8271 70.6255 28.3677 66.3679 28.3677ZM66.3679 40.516C63.9579 40.516 61.9496 38.5047 61.9496 36.0911C61.9496 33.6776 63.9579 31.6662 66.3679 31.6662C68.7778 31.6662 70.7861 33.6776 70.7861 36.0911C70.7861 38.5047 68.8582 40.516 66.3679 40.516Z" fill="#242E35"/>
<path d="M57.2112 52.9978C56.6489 52.8369 56.0866 52.676 55.7652 52.4346C55.4439 52.2737 54.8816 51.9519 54.7209 51.4692C54.5603 50.906 54.8816 50.3428 55.3636 50.021C56.4079 49.4579 58.4162 50.1819 59.3802 51.2278L61.6295 48.9751C59.7015 47.0443 56.3276 45.9179 53.8373 47.2052C51.9093 48.2511 50.9453 50.5037 51.6683 52.5151C52.07 53.7219 53.0339 54.6873 54.3193 55.3309C54.8816 55.6527 55.6046 55.8136 56.2472 56.055C57.2915 56.3768 58.4162 56.7791 58.7375 57.2618C58.8179 57.4227 58.8179 57.5836 58.8179 57.7445C58.7375 58.0663 58.4162 58.3881 58.0145 58.549C57.4522 58.7099 56.8899 58.8708 56.1669 58.7904C55.0423 58.7904 53.9176 58.3077 53.1946 57.5031L50.9453 59.7558C52.311 61.1235 54.2389 61.928 56.1669 62.0085C56.2472 62.0085 56.3276 62.0085 56.4882 62.0085C57.5325 62.0085 58.4162 61.8476 59.2998 61.5258C60.5852 61.0431 61.6295 59.9972 62.0311 58.7904C62.4328 57.664 62.2721 56.5377 61.6295 55.5723C60.5048 54.0437 58.6572 53.4805 57.2112 52.9978Z" fill="#242E35"/>
<path d="M49.0163 28.3677C47.3293 28.3677 45.803 28.9308 44.598 29.8158V28.7699H41.3848V36.0107V43.2514H44.598V36.0107C44.598 33.5971 46.6064 31.5858 49.0163 31.5858C51.4263 31.5858 53.4346 33.5971 53.4346 36.0107V43.2514H56.6479V36.0107C56.7282 31.8271 53.2739 28.3677 49.0163 28.3677Z" fill="#242E35"/>
</svg>
