<svg width="290" height="160" viewBox="0 0 290 160" fill="none" xmlns="http://www.w3.org/2000/svg">
<ellipse cx="177.291" cy="58.069" rx="45.814" ry="14.6262" transform="rotate(4.36293 177.291 58.069)" fill="#E0E5CD"/>
<path d="M68.2507 68.4094C58.5238 81.6653 82.9653 89.5043 91.355 88.1591C101.842 86.4777 121.623 73.8668 132.949 74.7075C144.275 75.5482 145.345 75.6613 156.375 75.9687C171.477 76.3896 194.549 77.2303 193.29 88.1591C192.663 93.6038 179.028 93.2034 167.702 90.6813C156.375 88.1591 143.791 91.1017 149.244 92.7831C154.697 94.4645 161.409 94.465 166.443 96.9872C171.477 99.5093 193.314 105.814 191.636 111.699C189.958 117.584 188.676 120.107 176.93 114.642C165.185 109.178 142.113 101.611 141.693 104.973C141.274 108.336 155.117 110.018 159.312 111.699C163.507 113.381 176.93 120.106 184.481 122.208C192.032 124.31 190.354 136.08 181.545 133.138C172.735 130.195 172.735 128.094 154.697 122.208C142.41 118.199 134.143 117.584 137.918 120.527C141.693 123.469 159.312 126.412 160.99 130.615C162.668 134.819 158.892 138.603 151.761 136.501C144.63 134.399 151.93 153.196 175.32 146.564C194.5 141.124 195.359 126.415 195.359 121.371C195.359 116.327 198.324 57.4729 197.485 55.7915C196.646 54.1101 183.642 50.3268 176.93 50.7472C170.218 51.1676 150.083 49.9074 154.697 52.8495C159.312 55.7915 189.095 58.3146 191.193 57.0531C193.29 55.7915 175.672 52.8495 170.638 52.8495" stroke="#242E35" stroke-width="2" stroke-linecap="round"/>
<path d="M186.198 125.95C185.833 124.872 183.103 123.796 182.19 123.946C181.886 124.245 181.203 124.866 180.472 127.381C179.559 130.525 178.928 130.328 183.035 131.676C187.599 132.125 186.654 127.298 186.198 125.95Z" stroke="#242E35" stroke-width="2" stroke-linecap="round"/>
<path d="M175.56 53.3084C173.471 47.3457 172.302 34.5685 184.33 31.1613C199.366 26.9022 204.794 31.1613 203.124 32.439" stroke="#242E35" stroke-width="2" stroke-linecap="round"/>
<path d="M179.328 33.4836C180.54 29.3088 183.171 21.5855 184.002 24.0904C185.04 27.2214 183.483 30.3526 185.04 28.0043C186.598 25.656 190.753 17.8283 192.83 20.1766C194.907 22.5249 188.156 28.0041 190.233 27.2213C192.311 26.4385 199.581 17.8279 201.658 20.9592" stroke="#242E35" stroke-width="2" stroke-linecap="round"/>
<path d="M174.504 49.5145C170.774 45.0521 162.666 32.0155 166.247 23.6006C170.723 13.0821 178.18 11.1696 172.96 7.3447C167.741 3.51977 168.487 8.77905 169.233 11.6477C169.979 14.5164 164.012 7.3447 164.012 10.6915C164.012 14.0383 169.228 18.8195 166.247 18.8195C163.266 18.8195 164.758 16.907 155.806 14.9946C146.855 13.0821 153.568 21.6882 161.774 21.6882C169.979 21.6882 157.297 23.6006 152.822 23.6006C148.346 23.6006 154.313 35.5535 161.027 28.8599" stroke="#242E35" stroke-width="2" stroke-linecap="round"/>
<path d="M152.828 76.0057L154.774 52.0098" stroke="#242E35" stroke-width="2" stroke-linecap="round"/>
<path d="M183.875 90.2741C181.039 87.6799 183.06 82.2956 184.478 81.8633C188.735 82.728 190.492 84.7084 190.492 87.3026C190.492 89.8967 188.605 90.2741 183.875 90.2741Z" stroke="#242E35" stroke-width="2" stroke-linecap="round"/>
<path d="M182.66 114.28C183.911 112.269 185.19 109.658 185.051 107.917C186.719 107.381 189.791 109.92 189.345 111.638C187.937 117.069 184.328 115.486 182.66 114.28Z" stroke="#242E35" stroke-width="2" stroke-linecap="round"/>
</svg>
