<svg width="200" height="200" viewBox="0 0 200 200" fill="none" xmlns="http://www.w3.org/2000/svg">
<path d="M95.414 157.23C73.2407 125.88 47.127 149.945 36.736 166.035C36.6692 166.138 36.6103 166.255 36.5646 166.369C27.3149 189.5 61.6535 175.144 72.1852 175.144C82.7444 175.144 123.218 196.542 95.414 157.23Z" fill="#879EB4"/>
<path d="M144.144 22.2022C171.626 61.343 119.542 70.499 109.001 70.499C98.4421 70.499 56.4969 59.8869 65.9996 36.4984C81.1404 7.68443 86.813 33.1384 102.84 31.6526L104 31.5C120.337 28.7214 137.721 17.0543 143.818 21.8474C143.942 21.9449 144.054 22.0732 144.144 22.2022Z" fill="#9CA591"/>
<path d="M172.562 131.96V96.265C172.562 94.7649 170.971 93.7987 169.64 94.49L143.008 108.318V96.1613C143.008 94.6862 141.465 93.7186 140.137 94.3606L111.265 108.318V96.5652C111.265 94.9978 109.543 94.0395 108.211 94.8651L86.5008 108.318L79.5214 56.957H64.1972C57.0737 76.3901 44.8586 118.079 53.7423 123.631C62.626 129.183 74.2858 115.303 57.0737 115.303C39.8615 115.303 6.88223 169.957 18.3803 169.957C29.8783 169.957 40.9628 153.957 71.4628 153.957C101.963 153.957 124.399 166.411 124.399 166.411V150.873C124.399 149.769 125.294 148.873 126.399 148.873C129.382 148.873 131.606 148.873 136.692 148.873C137.796 148.873 138.693 149.769 138.693 150.874C138.693 154.468 138.693 157.421 138.693 166.411C138.693 182.852 188.663 160.276 183.111 144.73C177.559 129.183 114.04 136.401 88.7218 136.401C63.4033 136.401 70.6551 117.99 82.5 110.957" stroke="#E6C9C9" stroke-width="2" stroke-linecap="round" stroke-linejoin="round"/>
<path d="M65.9967 56.7989C64.6634 49.6322 65.4978 24.7985 83.4978 24.7985C96.5 24.7985 97.4981 32.2995 105 32.2995C112.502 32.2995 114.5 21.7988 126.5 20.3002C137.426 18.9357 148.5 21.9047 148.5 35.7985C148.5 42.2987 145 45.7985 138.5 46.7993C132 47.8 138.5 65.2993 121.5 61.2993C109.962 58.5844 117.5 71.2995 102.5 71.2995C90.4066 71.2995 76.4981 40.298 76.4981 56.7989" stroke="#E6C9C9" stroke-width="2" stroke-linecap="round" stroke-linejoin="round"/>
<path d="M96.797 53.5079C100.267 53.5079 102.471 51.3916 102.675 48.3588H100.226C99.9608 50.1261 98.7157 51.1734 96.8991 51.1734H96.6949C94.0823 51.1734 92.4494 48.9261 92.4494 45.6534C92.4494 42.3806 94.0823 40.1334 96.6949 40.1334H96.8991C98.7157 40.1334 99.9608 41.2025 100.226 42.9479H102.675C102.471 39.9588 100.267 37.7988 96.797 37.7988C92.4902 37.7988 90 41.0497 90 45.6534C90 50.257 92.4902 53.5079 96.797 53.5079Z" fill="#E6C9C9"/>
<path d="M112.412 53.5079C116.413 53.5079 119.27 50.5625 119.27 45.6534C119.27 40.7443 116.413 37.7988 112.412 37.7988C108.432 37.7988 105.574 40.7443 105.574 45.6534C105.574 50.5625 108.432 53.5079 112.412 53.5079ZM112.31 51.1734C109.718 51.1734 108.023 49.1225 108.023 45.6534C108.023 42.1843 109.718 40.1334 112.31 40.1334H112.514C115.106 40.1334 116.821 42.1843 116.821 45.6534C116.821 49.1225 115.106 51.1734 112.514 51.1734H112.31Z" fill="#E6C9C9"/>
<path d="M122.101 55.7988H128V54.0534H124.489L126.49 52.177C127.245 51.457 127.959 50.737 127.959 49.6025C127.959 48.2279 126.816 47.0716 125.142 47.0716C123.469 47.0716 122.183 48.1406 122.081 49.8643H123.999C124.04 49.2316 124.469 48.7952 125 48.7952H125.102C125.632 48.7952 126.041 49.1443 126.041 49.6679C126.061 50.2788 125.469 50.7806 125 51.2388L122.101 53.9879V55.7988Z" fill="#E6C9C9"/>
<rect x="93" y="114.457" width="11" height="11" rx="2" fill="#C5D5E4"/>
<rect x="122" y="114.457" width="10" height="11" rx="2" fill="#E0E5CD"/>
<rect x="150" y="114.457" width="11" height="11" rx="2" fill="#E6C9C9"/>
<line x1="66" y1="74.457" x2="81" y2="74.457" stroke="#E6C9C9" stroke-width="2" stroke-linecap="round"/>
<line x1="70" y1="67.457" x2="81" y2="67.457" stroke="#E6C9C9" stroke-width="2" stroke-linecap="round"/>
</svg>
