<svg width="290" height="160" viewBox="0 0 290 160" fill="none" xmlns="http://www.w3.org/2000/svg">
<path d="M147.869 64.3373L173.8 38.1801C175.789 36.1747 179.173 36.8051 180.305 39.392L213.848 116.004C214.536 117.576 214.145 119.413 212.874 120.568L184.718 146.165C182.667 148.03 179.385 147.293 178.329 144.728L147.011 68.6765C146.398 67.1892 146.736 65.4796 147.869 64.3373Z" fill="#E0E5CD"/>
<path d="M76.8687 64.3353L102.8 38.1782C104.789 36.1727 108.173 36.8032 109.305 39.39L142.848 116.002C143.536 117.574 143.145 119.411 141.874 120.566L113.718 146.163C111.667 148.028 108.385 147.291 107.329 144.726L76.0107 68.6746C75.3982 67.1872 75.7362 65.4776 76.8687 64.3353Z" fill="#E6C9C9"/>
<path d="M135.766 145.967L107.748 71.6549C107.378 70.6728 106.826 69.0111 109.227 66.6103C111.628 64.2095 130.481 46.2579 139.608 37.5822C140.544 36.6923 142.198 35.4841 143.637 35.3153C145.215 35.1302 147.394 35.3153 147.914 36.694C148.284 37.6761 168.567 91.4732 178.771 118.535C179.251 119.476 179.545 121.983 176.881 124.483C174.217 126.983 156.668 142.947 146.993 151.829C146.431 152.664 142.446 155.712 140.866 151.522C139.286 147.332 120.377 97.1793 111.12 72.6269C110.791 71.754 110.56 69.5477 112.27 67.7064C113.98 65.8651 141.13 39.6258 142.651 38.6783C144.172 37.7309 144.706 37.1555 145.652 38.6683C146.598 40.1811 136.033 49.0255 134.553 51.079C132.14 53.7081 147.189 44.7371 148.807 55.0066C149.691 94.1621 148.32 167.172 135.766 145.967Z" stroke="#242E35" stroke-width="2" stroke-linecap="round" stroke-linejoin="round"/>
<path d="M137.731 141.558C138.473 140.374 162.51 118.023 174.435 106.996" stroke="#242E35" stroke-width="2" stroke-linecap="round" stroke-linejoin="round"/>
<ellipse cx="161.843" cy="128.843" rx="3.05253" ry="4.4614" transform="rotate(9.34163 161.843 128.843)" stroke="#242E35" stroke-width="2" stroke-linecap="round" stroke-linejoin="round"/>
<path d="M132.27 69.3661L132.585 69.1698L135.464 76.1511C137.341 80.7042 138.104 85.76 138.786 89.3398C139.469 92.9196 140.36 97.3235 141.608 101.314C142.857 105.305 148.325 117.263 149.119 118.867C149.754 120.15 150.572 119.933 150.902 119.665C152.621 118.596 156.021 115.458 157.369 114.204C158.782 112.892 158.776 112.058 158.533 111.574C157.477 108.799 154.988 102.337 153.487 98.6948C151.609 94.1418 149.331 90.2195 145.522 85.1513C142.475 81.0967 139.862 76.022 138.937 73.9915L136.058 67.0102L136.374 66.8138L135.623 64.9926L135.413 65.1235L134.787 63.6058L131.209 65.8309L131.834 67.3486L131.519 67.5449L132.27 69.3661Z" stroke="#242E35" stroke-width="2" stroke-linecap="round" stroke-linejoin="round"/>
<path d="M138.201 85.1278C138.201 85.1278 140.593 86.119 141.646 85.4645C142.698 84.8101 143.358 81.9211 143.358 81.9211" stroke="#242E35" stroke-width="2" stroke-linecap="round" stroke-linejoin="round"/>
<path d="M161.904 93.4137L161.903 66.1489C161.903 62.8425 162.498 55.8422 161.903 45.0223C160.86 26.0212 141.926 1.81616 129.819 18.2281C121.354 29.7036 152.959 29.1396 164.247 13.525" stroke="#242E35" stroke-width="2" stroke-linecap="round" stroke-linejoin="round"/>
</svg>
