<svg width="290" height="160" viewBox="0 0 290 160" fill="none" xmlns="http://www.w3.org/2000/svg">
<ellipse cx="185.532" cy="55.5526" rx="9.82868" ry="11.1268" fill="#C5D5E4"/>
<path d="M218.171 98.4856C218.171 103.197 214.581 112.669 210.382 112.669C206.183 112.669 201.48 103.197 201.48 98.4856C201.48 93.7743 204.885 89.9551 209.084 89.9551C213.283 89.9551 218.171 93.7744 218.171 98.4856Z" fill="#E0E5CD"/>
<path d="M65.8841 71.866C68.9566 77.1879 68.0261 91.5981 63.3251 94.3122C58.6241 97.0263 51.9329 87.0166 48.8603 81.6947C45.7877 76.3728 47.1078 69.8584 51.8088 67.1443C56.5098 64.4301 62.8115 66.5441 65.8841 71.866Z" fill="#E6C9C9"/>
<path d="M135.774 44.9909C137.068 51.435 141.616 47.8222 143.766 40.1422C145.915 32.4622 137.623 29.8923 133.966 32.7941C130.309 35.6958 133.724 38.6239 135.774 44.9909Z" fill="#FAE8D1"/>
<path d="M135.774 44.9909C137.068 51.435 141.616 47.8222 143.766 40.1422C145.915 32.4622 137.623 29.8923 133.966 32.7941C130.309 35.6958 133.724 38.6239 135.774 44.9909Z" stroke="#242E35" stroke-width="2" stroke-linecap="round" stroke-linejoin="round"/>
<path d="M100.449 114.615C99.8149 121.157 92.4576 115.496 89.5409 108.073C86.6242 100.65 94.614 97.2533 98.5462 99.7695C102.478 102.286 101.844 108.073 100.449 114.615Z" fill="#FAE8D1"/>
<path d="M129.898 102.471C126.04 105.438 124.952 102.595 124.891 100.802C122.109 99.133 119.513 103.769 117.473 105.438C115.433 107.107 119.513 111.187 121.182 113.969C122.851 116.75 124.891 116.194 129.898 115.081C134.905 113.969 131.752 116.009 137.501 119.532C143.25 123.056 138.984 124.539 137.501 128.805C136.017 133.07 140.283 132.143 144.177 133.812C148.071 135.481 146.959 133.812 149.555 131.215C152.151 128.619 150.853 126.579 152.893 121.572C154.933 116.565 156.787 120.459 158.827 119.532C160.867 118.605 160.682 116.194 160.311 113.969C159.94 111.743 154.933 111.558 151.78 109.518C148.628 107.478 150.668 107.478 149.555 103.769C148.442 100.06 148.071 102.471 144.177 102.471C140.283 102.471 138.799 100.802 137.501 99.6893C136.203 98.5767 134.719 98.7621 129.898 102.471Z" stroke="#242E35" stroke-width="2" stroke-linecap="round" stroke-linejoin="round"/>
<path d="M98.373 94.1245C98.8181 91.8991 93.1187 89.3647 90.2133 88.3756C88.9152 86.892 91.6969 84.6667 94.8495 85.5939C98.0021 86.5212 99.3002 84.1103 101.526 82.0704C103.751 80.0305 103.936 80.7723 106.718 82.0704C109.5 83.3686 109.129 81.6995 114.692 79.2887C120.256 76.8779 116.547 80.9577 115.99 83.3685C115.434 85.7794 113.58 84.6667 106.718 86.5211C99.8566 88.3756 104.307 89.1174 103.936 91.7137C103.566 94.3099 103.009 95.2371 101.526 96.1644C100.042 97.0916 97.8167 96.9062 98.373 94.1245Z" stroke="#242E35" stroke-width="2" stroke-linecap="round" stroke-linejoin="round"/>
<path d="M254.331 127.445C247.408 120.522 237.381 109.605 252.662 121.325C267.943 133.045 271.392 132.019 271.207 130.041C253.542 110.181 230.641 88.2093 195.173 76.2753C193.257 83.3177 187.83 91.3941 181.45 67.3601C173.476 37.3177 189.239 36.7613 198.882 43.4374C206.597 48.7783 200.551 63.404 196.842 72.9236M34.7617 100.115C40.9143 95.6755 47.7062 91.3537 55.1609 87.3825C52.6883 86.849 47.2608 83.5937 45.3322 74.8406C42.9214 63.8992 75.56 57.4086 69.8112 84.2984C65.2121 105.81 59.488 96.3524 57.2008 88.9345M175.516 71.0288C163.884 68.6822 151.085 67.3601 136.939 67.3601C112.672 67.3601 91.6675 71.9362 73.7056 78.8866" stroke="#242E35" stroke-width="2" stroke-linecap="round" stroke-linejoin="round"/>
<path d="M71.298 114.71C68.7018 109.518 86.3192 101.544 86.6901 98.9473C83.7233 99.689 85.3917 97.6492 83.5372 96.1656C80.3843 93.3839 73.3376 103.583 67.9597 102.842C62.5817 102.1 65.7343 98.9473 57.5746 105.809C49.415 112.67 48.1169 109.332 39.4009 110.816C30.6849 112.299 26.7905 120.83 23.4525 123.055C20.1144 125.281 22.7107 130.659 29.3868 128.99C36.0629 127.321 32.9103 123.055 37.361 118.605C41.8117 114.154 45.3352 123.055 45.3352 116.936C45.3352 110.816 49.2296 120.83 55.5348 123.055C61.84 125.281 60.9128 126.393 71.298 120.83C81.6833 115.267 74.6358 123.055 78.5302 128.99C82.4246 134.924 85.0208 129.175 88.5443 133.44C92.0678 137.706 85.0208 143.455 95.5913 150.131C106.162 156.807 102.267 144.011 100.042 136.778C97.8167 129.546 107.46 130.844 107.089 123.055C106.718 115.267 93.7368 118.79 88.5443 124.539C83.3518 130.288 80.7556 120.645 78.5302 116.936C76.3048 113.227 73.8943 119.903 71.298 114.71Z" stroke="#242E35" stroke-width="2" stroke-linecap="round" stroke-linejoin="round"/>
<path d="M254.52 127.691C262.123 132.698 256.374 133.254 254.52 131.771C252.666 130.287 249.884 129.36 246.546 128.247C243.208 127.134 239.313 128.433 235.048 126.764C230.783 125.095 233.565 123.24 233.379 119.902C233.194 116.564 228.557 116.379 225.405 119.346C222.252 122.313 220.583 122.313 218.729 121.571C216.874 120.829 219.1 119.346 219.1 117.491C219.1 115.637 210.198 113.597 208.715 116.008C207.231 118.418 217.616 119.346 204.82 119.346C201.482 125.095 193.323 121.942 193.323 126.764C193.323 131.585 192.581 130.843 190.912 133.254C189.243 135.665 188.872 132.142 189.428 126.764C189.873 122.461 190.603 121.757 190.912 121.942C188.748 119.655 184.124 115.451 182.938 116.935C181.454 118.789 178.672 121.386 176.632 121.942C174.592 122.498 175.149 119.16 176.632 113.597C178.116 108.033 172.738 112.67 170.883 108.961C169.029 105.252 163.466 105.437 161.24 108.961C159.015 112.484 158.644 108.219 156.789 105.437C154.935 102.655 155.306 97.463 154.008 95.6085C149.927 93.9396 145.663 97.092 138.802 95.9793C131.94 94.8667 132.311 94.8667 127.489 93.3832C122.668 91.8996 132.867 90.6014 135.278 89.8597C137.689 89.1179 138.616 90.7868 143.623 91.7141C148.63 92.6413 147.888 91.5286 148.63 89.8597C149.372 88.1907 143.623 88.7469 141.212 87.2634C138.801 85.7798 142.325 85.038 143.623 83.9253C144.921 82.8126 146.219 83.1835 151.041 82.8127C155.862 82.4418 154.008 84.2962 158.829 87.2634C163.651 90.2305 164.393 89.1178 171.44 89.4887C178.487 89.8596 185.163 91.1578 189.428 89.8597C193.693 88.5615 192.21 90.2306 199.257 93.3832C206.922 93.1359 220.398 94.4958 217.431 103.212C213.896 113.597 208.716 112.855 206.304 106.735C203.893 100.616 206.304 91.7141 211.497 91.7141C216.69 91.7141 232.267 103.212 226.704 105.437" stroke="#242E35" stroke-width="2" stroke-linecap="round" stroke-linejoin="round"/>
<circle cx="190.721" cy="54.2543" r="6.49064" stroke="#242E35" stroke-width="2" stroke-linecap="round" stroke-linejoin="round"/>
<circle cx="211.125" cy="100.989" r="3.1526" stroke="#242E35" stroke-width="2" stroke-linecap="round" stroke-linejoin="round"/>
<circle cx="94.6645" cy="104.696" r="2.7817" stroke="#242E35" stroke-width="2" stroke-linecap="round" stroke-linejoin="round"/>
<path d="M135.567 37.5831C135.723 39.1115 137.088 40.2243 138.617 40.0686C140.145 39.9129 141.258 38.5477 141.102 37.0193C140.947 35.491 139.581 34.3782 138.053 34.5338C136.525 34.6895 135.412 36.0547 135.567 37.5831Z" stroke="#242E35" stroke-width="2" stroke-linecap="round" stroke-linejoin="round"/>
<circle cx="59.058" cy="76.5092" r="4.63617" stroke="#242E35" stroke-width="2" stroke-linecap="round" stroke-linejoin="round"/>
<path d="M100.449 114.615C99.8149 121.157 92.4576 115.496 89.5409 108.073C86.6242 100.65 94.614 97.2533 98.5462 99.7695C102.478 102.286 101.844 108.073 100.449 114.615Z" stroke="#242E35" stroke-width="2" stroke-linecap="round" stroke-linejoin="round"/>
</svg>
