<svg width="287" height="168" viewBox="0 0 287 168" fill="none" xmlns="http://www.w3.org/2000/svg">
<path d="M212.05 130.578C212.05 141.308 199.708 157.682 192.1 157.682C184.492 157.682 175.475 145.625 175.475 134.895C175.475 124.165 184.492 108.75 192.1 108.75C199.708 108.75 212.05 119.847 212.05 130.578Z" fill="#E6C9C9"/>
<g style="mix-blend-mode:multiply">
<path d="M137.665 114.711C158.547 114.711 175.476 98.2765 175.476 78.0038C175.476 57.7311 158.547 41.2969 137.665 41.2969C116.782 41.2969 99.8535 57.7311 99.8535 78.0038C99.8535 98.2765 116.782 114.711 137.665 114.711Z" fill="#E0E5CD"/>
</g>
<path d="M101.625 115.695C107.398 119.901 114.035 122.859 121.089 124.37C134.234 127.386 148.072 125.406 159.757 118.838C174.29 110.602 183.265 90.0452 181.08 72.736C178.226 49.8737 156.47 33.6962 132.767 35.7079C131.212 35.8512 129.706 36.3122 128.349 37.0605C126.992 37.8087 125.813 38.8272 124.892 40.0489C123.97 41.2706 123.326 42.6676 123.002 44.148C122.679 45.6284 122.682 47.1585 123.013 48.6374C123.145 49.2067 123.422 49.7352 123.819 50.1743C124.216 50.6135 124.719 50.9496 125.284 51.152C135.297 54.903 148.078 51.4035 136.097 59.8904C127.577 65.9046 146.24 60.8334 141.396 68.084C136.552 75.3346 145.375 73.8677 145.375 73.8677C145.375 73.8677 165.531 67.7277 160.406 60.4352C155.28 53.1428 149.96 61.6926 149.96 61.6926L167.694 69.7814C181.21 78.1635 165.855 86.3152 165.855 86.3152C169.402 94.844 158.438 102.807 158.438 102.807L154.112 105.657C152.642 109.303 149.289 116.554 146.565 113.641C137.719 104.211 135.903 81.6421 135.903 81.6421L128.333 87.0486L125.782 85.8541C125.25 85.6021 124.64 85.555 124.074 85.7222C123.508 85.8895 123.028 86.2586 122.732 86.7552C121.218 89.2908 119.748 94.5087 126.711 101.424C130.864 105.615 130.712 108.968 129.134 111.65C127.804 113.732 125.687 115.228 123.234 115.82C120.782 116.411 118.188 116.05 116.006 114.814C110.227 111.623 105.276 107.196 101.528 101.871C97.7797 96.5458 95.3342 90.4628 94.3771 84.0843C93.42 77.7059 93.9766 71.1999 96.0045 65.0612C98.0324 58.9225 101.478 53.3127 106.08 48.6583C106.387 48.3393 106.767 48.0935 107.189 47.9403C107.611 47.7871 108.064 47.7307 108.512 47.7753C108.96 47.82 109.392 47.9644 109.773 48.1976C110.154 48.4308 110.474 48.7464 110.708 49.1194C112.07 51.3826 112.871 55.1755 109.454 60.5191C104.761 67.8116 116.439 65.9256 121.932 64.7102C123.054 64.4296 124.24 64.5205 125.302 64.9686C126.364 65.4167 127.241 66.1962 127.793 67.1829C128.1 67.6723 128.22 68.2504 128.133 68.8169C128.047 69.3834 127.758 69.9026 127.317 70.2843C126.858 70.6884 126.308 70.9846 125.712 71.1501C125.115 71.3155 124.487 71.3456 123.877 71.2382C123.266 71.1308 122.69 70.8888 122.191 70.5308C121.693 70.1727 121.286 69.7085 121.002 69.1737L119.164 65.8418" stroke="#4F1C28" stroke-width="2" stroke-linecap="round" stroke-linejoin="round"/>
<path d="M83.0469 82.3066C83.0469 48.5943 110.376 21.2651 144.088 21.2651C164.847 21.2651 183.185 31.6272 194.213 47.4611" stroke="#4F1C28" stroke-width="2" stroke-linecap="round" stroke-linejoin="round"/>
<path d="M83.5281 89.4727C88.2469 104.071 92.6243 133.206 72.3838 132.966C52.1434 132.726 26.401 132.866 16.0599 132.966C11.0399 132.666 1 129.487 1 119.168C0.999036 108.85 10.9238 104.795 14.8394 104.795C20.2763 104.795 23.891 108.67 25.0958 109.57C25.6982 108.07 25.9994 94.8719 41.6617 94.8719C54.1915 94.8719 57.3239 104.67 57.3239 109.57C57.6251 112.169 56.1192 117.369 47.6856 117.369C37.1437 117.369 53.1072 107.17 60.0347 113.169C66.9623 119.168 81.4198 122.768 77.5042 111.669C73.5886 100.571 66.3599 114.969 73.2874 111.669C78.8295 109.03 81.0182 100.171 81.4198 96.0717" stroke="#4F1C28" stroke-width="2" stroke-linecap="round" stroke-linejoin="round"/>
<path d="M41.7376 42.0231H57.4861C65.3603 42.0231 68.3136 30.6148 58.7989 28.1348C49.2842 25.6547 47.3148 34.2521 47.1512 36.2364C46.0024 32.5989 39.523 31.2765 38.2927 36.2364C37.2428 40.4689 40.1519 41.8578 41.7376 42.0231Z" stroke="#4F1C28" stroke-width="2" stroke-linecap="round" stroke-linejoin="round"/>
<path d="M207.217 12.6183H236.514C238.156 12.4487 231.274 20.4429 227.232 9.76577C225.959 4.67887 219.251 6.0352 218.061 9.76577C217.892 7.73066 215.853 -1.08681 206.003 1.45673C198.402 3.41943 199.065 12.6183 207.217 12.6183Z" stroke="#4F1C28" stroke-width="2" stroke-linecap="round" stroke-linejoin="round"/>
<path d="M189.314 51.5787L199.694 44V55.3681L189.314 51.5787Z" stroke="#4F1C28" stroke-width="2" stroke-linecap="round" stroke-linejoin="round"/>
<path d="M104.224 111.614L98.9976 118.322L96.8866 111.215L104.224 111.614Z" stroke="#4F1C28" stroke-width="2" stroke-linecap="round" stroke-linejoin="round"/>
<path d="M262.024 59.1822H226.044C222.862 58.4441 216.498 55.639 216.498 50.3241C216.498 43.6805 221.651 39.2225 226.044 38.8823C230.817 38.5126 233.754 39.989 235.957 43.3108C237.792 38.5126 239.995 25.226 256.149 28.9169C272.304 32.6078 273.405 55.4906 259.821 52.1688C246.237 48.847 253.498 38.8823 259.821 41.4652C266.143 44.0481 261.657 61.0284 276.709 59.1822C279.54 58.6468 285.201 55.8297 285.201 48.8446C285.201 40.1133 279.797 12.3672 236.954 12.3672" stroke="#4F1C28" stroke-width="2" stroke-linecap="round" stroke-linejoin="round"/>
<path d="M194.215 101.83C194.215 135.542 166.886 162.872 133.173 162.872C112.415 162.872 94.0763 152.51 83.0483 136.676" stroke="#4F1C28" stroke-width="2" stroke-linecap="round" stroke-linejoin="round"/>
<path d="M194.752 99.3594C194.752 91.0742 184.102 88.5562 191.344 82.5544" stroke="#4F1C28" stroke-width="2" stroke-linecap="round" stroke-linejoin="round"/>
<path d="M230.275 76.964C222.396 80.6957 227.319 86.3372 225.714 88.5739C223.309 91.9243 216.843 90.9203 214.518 93.9642C212.733 96.3016 223.226 98.5252 217.421 101.428C211.616 104.33 202.457 101.749 194.616 99.7691" stroke="#4F1C28" stroke-width="2" stroke-linecap="round" stroke-linejoin="round"/>
<path d="M210.786 74.0602C221.569 71.987 223.191 73.4004 230.399 76.763" stroke="#4F1C28" stroke-width="2" stroke-linecap="round" stroke-linejoin="round"/>
<path d="M195.246 99.357C199.423 93.7491 211.202 81.5486 224.902 77.6094" stroke="#4F1C28" stroke-width="2" stroke-linecap="round" stroke-linejoin="round"/>
<path d="M82.8197 82.5527C82.8197 77.4354 74.1489 69.2076 68.4648 69.2076" stroke="#4F1C28" stroke-width="2" stroke-linecap="round" stroke-linejoin="round"/>
<path d="M193.762 79.3839C195.647 78.5512 199.336 77.885 199.013 81.8822C198.609 86.8786 192.29 76.6605 201.176 72.9132C204.636 71.9256 205.021 76.1391 207.848 74.89" stroke="#4F1C28" stroke-width="2" stroke-linecap="round" stroke-linejoin="round"/>
<path d="M194.258 101.83C196.786 105.876 203.547 112.588 210.372 107.062C213.453 104.76 198.76 104.342 203.974 109.783C209.187 115.225 217.718 112.504 217.007 110.83C216.297 109.155 208.002 111.039 210.372 113.76C212.742 116.48 221.273 117.736 224.117 115.015C226.96 112.295 218.903 113.341 218.429 115.853C217.955 118.364 224.591 120.248 228.856 118.364" stroke="#4F1C28" stroke-width="2" stroke-linecap="round" stroke-linejoin="round"/>
<ellipse cx="201.109" cy="123.072" rx="6.61225" ry="5.83434" transform="rotate(-75 201.109 123.072)" stroke="#4F1C28" stroke-width="2" stroke-linecap="round" stroke-linejoin="round"/>
<ellipse cx="213.548" cy="128.66" rx="5.08477" ry="4.48656" transform="rotate(-75 213.548 128.66)" stroke="#4F1C28" stroke-width="2" stroke-linecap="round" stroke-linejoin="round"/>
<ellipse cx="201.906" cy="150.36" rx="4.21562" ry="3.71967" transform="rotate(-105 201.906 150.36)" stroke="#4F1C28" stroke-width="2" stroke-linecap="round" stroke-linejoin="round"/>
<ellipse cx="212.286" cy="151.348" rx="4.21562" ry="3.71967" transform="rotate(-60 212.286 151.348)" stroke="#4F1C28" stroke-width="2" stroke-linecap="round" stroke-linejoin="round"/>
<ellipse cx="217.495" cy="140.008" rx="4.65226" ry="4.10493" transform="rotate(-75 217.495 140.008)" stroke="#4F1C28" stroke-width="2" stroke-linecap="round" stroke-linejoin="round"/>
<ellipse cx="195.177" cy="138.887" rx="5.15873" ry="4.55182" transform="rotate(-75 195.177 138.887)" stroke="#4F1C28" stroke-width="2" stroke-linecap="round" stroke-linejoin="round"/>
<ellipse cx="206.497" cy="138.688" rx="4.78911" ry="4.22569" transform="rotate(-75 206.497 138.688)" stroke="#4F1C28" stroke-width="2" stroke-linecap="round" stroke-linejoin="round"/>
<ellipse cx="205.511" cy="161.425" rx="4.78911" ry="4.22569" transform="rotate(-75 205.511 161.425)" stroke="#4F1C28" stroke-width="2" stroke-linecap="round" stroke-linejoin="round"/>
<path d="M80.3302 67.7252C81.9119 69.3068 81.3188 74.9744 80.8245 77.6104C78.9298 78.4341 74.5474 79.8837 72.1749 79.0928C69.2093 78.1043 71.4335 76.1273 69.4564 75.1387C67.4794 74.1502 64.2667 76.6215 62.5368 72.4203C61.1528 69.0593 57.5941 67.6428 56.1113 67.7252C57.0999 65.9952 62.7839 63.0293 64.7609 63.2764C66.738 63.5235 68.715 65.2535 70.9392 64.0177C75.091 60.2613 76.788 65.9127 77.1175 69.208C77.5294 68.0547 78.7486 66.1435 80.3302 67.7252Z" stroke="#4F1C28" stroke-width="2" stroke-linecap="round" stroke-linejoin="round"/>
</svg>
