<svg width="290" height="160" viewBox="0 0 290 160" fill="none" xmlns="http://www.w3.org/2000/svg">
<path d="M205.001 97.8951C205.001 112.197 193.453 123.79 179.207 123.79C164.962 123.79 153.414 112.197 153.414 97.8951C153.414 84.676 169.854 65.3424 177.516 54.3768C178.34 53.1977 180.11 53.1751 180.952 54.3408C188.875 65.3001 205.001 84.6616 205.001 97.8951Z" fill="#C5D5E4"/>
<path d="M128.696 67.8647C112.538 67.144 97.4803 77.6886 93.1212 93.957C88.0841 112.756 99.2401 132.078 118.039 137.116C136.837 142.153 156.16 130.997 161.197 112.198C165.456 96.306 156.684 84.1903 145.058 74.3816" stroke="#242E35" stroke-width="2" stroke-linecap="round" stroke-linejoin="round"/>
<path d="M128.533 68.469L140.58 33.3345L139.628 27.0618C139.628 27.0618 143.162 26.5044 147.724 27.7268C152.286 28.9491 155.593 32.2408 155.593 32.2408L151.458 36.2493L148.327 48.2254C144.694 62.7569 152.686 68.469 154.139 62.0303C155.667 55.26 141.306 61.3038 142.878 70.0227" stroke="#242E35" stroke-width="2" stroke-linecap="round" stroke-linejoin="round"/>
<ellipse cx="127.253" cy="102.727" rx="35.2388" ry="5.08602" transform="rotate(15 127.253 102.727)" stroke="#242E35" stroke-width="2" stroke-linecap="round" stroke-linejoin="round"/>
<path d="M159.438 117.368C158.711 120.081 143.39 118.333 124.785 113.348" stroke="#242E35" stroke-width="2" stroke-linecap="round" stroke-linejoin="round"/>
<path d="M155.989 123.213C153.928 125.293 144.146 125.305 130.109 121.544" stroke="#242E35" stroke-width="2" stroke-linecap="round" stroke-linejoin="round"/>
<circle cx="107.641" cy="112.891" r="2.90629" fill="#E0E5CD" stroke="#242E35" stroke-width="2" stroke-linecap="round" stroke-linejoin="round"/>
<circle cx="118.539" cy="126.695" r="4.35944" fill="#E6C9C9" stroke="#242E35" stroke-width="2" stroke-linecap="round" stroke-linejoin="round"/>
<circle cx="142.152" cy="90.004" r="4.72273" fill="#E0E5CD" stroke="#242E35" stroke-width="2" stroke-linecap="round" stroke-linejoin="round"/>
<circle cx="120.355" cy="78.3789" r="1.81643" stroke="#242E35" stroke-width="2" stroke-linecap="round" stroke-linejoin="round"/>
<path d="M149.418 27.8809C150.577 23.9047 157.41 12.9862 172.668 14.076C187.163 15.1113 204.616 36.1383 190.888 58.8923C179.571 77.6512 165.261 68.8908 164.313 60.5768C163.364 52.2627 172.022 42.0853 187.2 49.3149C199.342 55.0985 197.107 76.4843 195.631 85.2803" stroke="#242E35" stroke-width="2" stroke-linecap="round" stroke-linejoin="round"/>
</svg>
