<svg width="290" height="160" viewBox="0 0 290 160" fill="none" xmlns="http://www.w3.org/2000/svg">
<g style="mix-blend-mode:multiply">
<path d="M93.9749 106.406C94.209 105.148 113.033 87.9319 122.416 79.4811C123.456 78.9965 128.968 83.2712 135.945 77.6054C144.666 70.523 146.454 72.3707 157.227 70.8771C168.001 69.3834 176.161 50.8884 181.095 51.4811C186.029 52.0738 178.603 55.6036 176.535 62.7849C174.466 69.9662 177.034 71.9084 170.81 80.4319C164.587 88.9553 148.828 102.376 143.183 109.542C137.537 116.709 121.319 128.661 118.598 129.293C115.877 129.926 113.708 117.97 109.437 112.944C105.165 107.919 93.6823 107.979 93.9749 106.406Z" fill="#E6C9C9"/>
</g>
<path d="M175.488 42.6875C177.834 42.6873 184.368 45.6117 186.058 52.272" stroke="#242E35" stroke-width="2" stroke-linecap="round" stroke-linejoin="round"/>
<path d="M92.7017 105.593C89.0908 109.532 91.9263 112.803 92.9799 115.026C94.0334 117.25 110.197 133.965 114.06 135.683C117.15 137.057 121.216 134.204 122.863 132.605C139.425 116.522 173.443 83.1459 177.028 78.3055C181.508 72.2549 180.628 66.3623 180.379 62.7059C180.13 59.0494 183.279 55.7155 184.507 54.2701C185.49 53.1138 194.417 44.0199 198.758 39.6174C199.133 39.5594 200.134 39.3796 201.143 39.1244C202.404 38.8053 206.503 34.1752 206.026 32.3573C203.437 25.9515 197.712 23.302 196.289 22.9212C195.151 22.6166 193.953 23.5068 193.497 23.99C192.76 24.5284 191.204 25.6922 190.875 26.0401C190.464 26.475 188.394 28.0861 188.315 30.2021C179.039 41.1853 168.929 47.8246 164.27 47.821C154.645 46.9775 149.799 50.2205 147.862 51.5459C145.924 52.8712 97.2154 100.669 92.7017 105.593Z" stroke="#242E35" stroke-width="2" stroke-linecap="round" stroke-linejoin="round"/>
<path d="M188.381 72.7266C188.212 75.5931 186.256 82.4392 179.781 86.8908" stroke="#242E35" stroke-width="2" stroke-linecap="round" stroke-linejoin="round"/>
<path d="M94.01 111.313C94.4223 110.975 95.7028 110.482 97.526 111.209C99.8051 112.119 111.27 119.036 115.831 130.482C116.452 134.043 119.679 136.703 127.623 118.85C137.552 96.5348 123.757 102.022 116.06 103.6C108.363 105.178 120.502 93.2809 132.96 91.043C145.417 88.8051 173.302 57.8715 144.939 48.5257C116.576 39.1798 87.5521 60.0573 83.174 63.4731C78.7959 66.889 83.4572 72.8819 98.9631 68.6892C114.469 64.4965 85.7738 74.8589 95.0015 75.1116C104.229 75.3643 112.157 69.9242 117.272 69.9811C122.387 70.0379 100.915 76.3346 104.792 77.5844C108.67 78.8343 139.758 64.5652 135.107 73.3813C130.457 82.1974 163.795 64.8075 149.231 57.3787" stroke="#242E35" stroke-width="2" stroke-linecap="round" stroke-linejoin="round"/>
<path d="M194.418 32.5156C195.905 33.5206 198.878 36.3787 198.876 39.7714" stroke="#242E35" stroke-width="2" stroke-linecap="round" stroke-linejoin="round"/>
<path d="M188.547 29.9668C189.428 30.1325 191.361 30.574 192.047 31.0139" stroke="#242E35" stroke-width="2" stroke-linecap="round" stroke-linejoin="round"/>
<path d="M164.388 47.1058C165.181 46.2693 174.493 28.2652 164.607 25.0944C154.72 21.9235 119.854 28.5743 125.507 33.9671C131.16 39.3599 151.549 31.8097 149.707 34.2451C147.865 36.6805 128.066 36.7006 135.788 39.9898C143.511 43.2789 157.603 38.7819 155.404 41.2667C153.205 43.7515 146.061 42.0171 149.61 45.3399C153.159 48.6628 155.763 44.1235 159.377 43.9857C162.991 43.848 167.341 40.8833 163.624 35.0405" stroke="#242E35" stroke-width="2" stroke-linecap="round" stroke-linejoin="round"/>
<path d="M86.043 52.3359C87.6481 50.2853 99.851 43.7969 107.117 42.7896" stroke="#242E35" stroke-width="2" stroke-linecap="round" stroke-linejoin="round"/>
<path d="M172.901 26.9157C173.147 21.863 168.324 18.994 162.586 20.3347" stroke="#242E35" stroke-width="2" stroke-linecap="round" stroke-linejoin="round"/>
</svg>
