<svg width="200" height="200" viewBox="0 0 200 200" fill="none" xmlns="http://www.w3.org/2000/svg">
<path d="M135.498 110L142.498 110.5C142.498 110.5 147.494 135.5 131.997 140.5C116.499 145.5 81.9972 157 96.4969 168.5C110.997 180 159.622 182.5 164 164.5C168.378 146.5 151.998 143 151.998 133.5V110H159.498L147.498 96L135.498 110Z" fill="#9CA591"/>
<path d="M58.5 131.5L59 148C59 148 59 139.5 63.5 139.5C68 139.5 68 149 68 149V131.5L73 130.5L63.5 116.5L53 131L58.5 131.5Z" fill="#9CA591"/>
<path d="M94 38.5V52C94 52 99.9322 50.2 101.576 49C103.22 47.8 107.5 46.5 107.5 46.5V39L116 38L101.576 23L86 38.5H94Z" fill="#879EB4"/>
<path d="M109.758 103.083C104.351 93.1097 100.651 78.6844 105.593 81.463C108.192 82.9246 109.024 91.8869 109.758 103.083C111.183 124.828 112.235 155 125.137 155C131.091 156.393 143 149.343 143 110H134.5L147 96L160 110H152V126.113C155.952 123.861 161.69 128.395 161 131.5C160 136 152.167 130.5 152 126.5V126.113V110H160L147 96L134.5 110H143C143 149.343 131.091 156.393 125.137 155C112.235 155 111.183 124.828 109.758 103.083Z" fill="#879EB4"/>
<path d="M59 148.5V131H53L63.5 116L73.5 131H67.5C67.5 134 67.5 141.7 67.5 148.5C67.5 155.3 71.651 155.667 73.7266 155C81.2328 152.276 96.2452 137.626 96.2452 100.814C96.2452 54.7996 91.9956 99.5242 87.3219 102.535C82.2234 105.819 77.9852 101.277 76.275 96.0839C74.1506 89.6332 58.4426 99.3914 66.0776 84.9027C69.477 78.4521 62.786 77.1619 64.3783 72.002C66.0776 66.4954 70.7516 68.9911 74.1506 65.1207C77.1715 61.6809 71.6022 54.7996 78.8251 50.0685C85.7142 45.5562 89.0222 53.9395 96.2452 51.3593C103.468 48.779 102.194 47.0584 108.142 47.0584C114.94 46.4326 115.79 50.9294 119.189 56.0901C122.588 61.2508 128.111 54.8014 132.36 60.8209C136.609 66.8403 131.51 69.4218 133.21 72.002C134.909 74.5823 140.237 72.4321 141.707 80.1729C143.178 87.9137 138.733 85.7635 136.609 94.3644C135.05 100.677 132.398 98.6648 128.536 100.814C120.039 105.545 126.412 111.996 118.339 111.996C110.266 111.996 98.1633 77.2855 105.593 81.463C113.24 85.7635 105.593 155 125.137 155C131.091 156.393 143 149.343 143 110C140 110 137.391 110 134.5 110L147 96L160 110H152V126.5C152.167 130.5 160 136 161 131.5C162 127 149.5 119.5 148.5 134C147.5 148.5 162.5 151 160 159.5C154.5 178.2 118.339 159.5 30 164" stroke="#E6C9C9" stroke-width="2" stroke-linecap="round" stroke-linejoin="round"/>
<path d="M94.5 58V38.5H86L101.5 23L117 38.5H107.5V52" stroke="#E6C9C9" stroke-width="2" stroke-linecap="round" stroke-linejoin="round"/>
</svg>
