<svg width="358" height="376" viewBox="0 0 358 376" fill="none" xmlns="http://www.w3.org/2000/svg">
<g style="mix-blend-mode:multiply">
<path d="M158.578 188.019C177.31 190.653 201.316 160.687 224.322 149.207C247.327 137.727 239.938 160.407 229.157 192.595C218.376 224.783 342.62 184.166 341.772 240.218C340.923 296.27 170.799 360.069 128.262 318.52C85.7249 276.97 125.595 247.127 107.708 228.56C89.8203 209.993 135.163 184.726 158.578 188.019Z" fill="#E6C9C9"/>
</g>
<path d="M323.997 218.312C319.341 224.297 308.941 242.521 301.285 233.389C291.715 221.974 284.345 219.869 276.095 201.029C267.845 182.189 243.095 169.334 193.925 175.983C144.755 182.632 152.015 179.529 139.915 179.086C127.815 178.643 97.3455 187.509 106.475 201.029C115.605 214.549 136.945 216.766 146.075 214.992C155.205 213.219 193.925 217.067 193.925 226C193.925 240.801 169.615 277.275 127.375 249.237C85.1353 221.199 62.4753 207.9 43.7753 204.464C28.8153 201.716 21.922 195.414 20.3453 192.606C23.1686 184.923 34.6453 171.861 57.9653 181.081C87.1153 192.606 101.558 208.11 109.478 204.674C61.342 211.59 47.3686 152.526 45.3153 122.234C62.3252 122.234 85.1684 122.234 109.555 122.234M247.055 280.156C241.372 267.522 228.201 241.922 220.985 240.592C211.965 238.93 145.635 266.303 109.555 246.577C73.4753 226.85 14.0753 207.9 13.0853 204.464C12.0953 201.029 13.6353 185.625 28.7053 187.73C43.7753 189.836 86.1253 168.226 100.975 173.656C115.825 179.086 157.515 210.56 195.795 195.82C234.075 181.081 250.025 161.687 250.025 122.234C237.478 122.234 205.809 122.234 172.15 122.234" stroke="#112D47" stroke-width="2" stroke-linecap="round" stroke-linejoin="round"/>
<path d="M56.9861 137.519C57.5066 134.688 53.1758 131.621 50.9453 130.442C51.9676 128.952 55.3133 131.28 65.7221 132.956C73.4357 135.098 73.8075 135.656 81.2423 135.656C88.6772 135.656 87.469 133.794 92.6734 131.28C97.8778 128.765 97.6919 131.932 103.268 135.656C108.844 139.381 104.755 146.272 97.6919 149.159C90.6288 152.045 96.5767 144.968 94.3462 141.709C92.1158 138.45 88.956 140.592 87.469 141.709C85.982 142.827 82.9152 146.272 87.469 149.159C92.0228 152.045 92.0228 148.786 93.3239 150.369C94.625 151.952 96.3908 152.325 104.755 152.511C113.119 152.697 104.29 160.147 104.755 159.123C105.22 158.098 97.2272 156.422 94.3462 157.446C91.4652 158.471 92.0228 159.123 85.4244 160.147C78.826 161.171 84.4021 157.726 84.1233 156.422C83.8445 155.118 81.8929 152.325 77.5249 153.535C73.1569 154.746 73.3428 158.471 69.6254 159.123C65.9079 159.774 67.5808 155.025 67.7667 153.535C67.9525 152.045 66.7444 148.972 65.7221 146.272C64.6998 143.571 63.5846 145.248 59.0307 146.272C54.4769 147.296 56.3356 141.057 56.9861 137.519Z" stroke="#112D47" stroke-width="2" stroke-linecap="round" stroke-linejoin="round"/>
<path d="M126.164 159.903C128.139 160.683 136.478 154.662 138.124 153.658C141.087 151.985 140.867 153.658 139.66 159.903C138.453 166.147 145.037 159.903 150.524 150.982C156.01 142.061 159.741 153.658 156.01 154.885C152.279 156.111 152.828 159.903 152.06 163.136C151.292 166.37 149.426 168.154 145.037 169.827C140.648 171.5 141.087 168.154 139.66 165.143C138.234 162.133 133.735 163.136 128.797 168.154C123.859 173.172 122.213 167.597 118.592 163.136C114.971 158.676 124.188 159.122 126.164 159.903Z" stroke="#112D47" stroke-width="2" stroke-linecap="round" stroke-linejoin="round"/>
<path d="M172.83 142.764C168.667 138.91 170.091 134.174 172.83 131.531C177.978 127.897 186.96 131.531 193.314 131.531C199.667 131.531 199.667 131.531 209.307 126.906C218.946 122.281 218.727 127.236 222.561 129.329C226.395 131.421 233.734 135.386 241.95 129.329C250.165 123.272 241.293 137.588 236.801 142.764C232.31 147.94 232.529 155.209 231.324 159.063C230.119 162.917 227.162 162.807 226.505 162.807C225.847 162.807 218.07 158.182 214.455 162.807C210.84 167.433 210.512 168.864 201.748 170.076C192.985 171.287 202.077 166.662 205.692 162.807C209.307 158.953 207.554 155.209 205.692 149.041C203.83 142.874 201.42 152.455 197.586 155.209C193.752 157.962 193.314 153.006 193.314 149.041C193.314 145.077 195.395 144.526 193.314 141.222C191.233 137.919 188.823 140.892 183.346 144.526C177.869 148.16 176.992 146.619 172.83 142.764Z" stroke="#112D47" stroke-width="2" stroke-linecap="round" stroke-linejoin="round"/>
<path d="M168.007 122.472H157.994C144.588 121.153 148.764 83.6485 148.544 76.9395C148.324 70.2306 156.687 67.0178 166.675 71.3304C183.488 78.5893 180.961 67.151 187.334 62.5318C193.708 57.9125 179.313 55.9328 183.598 51.8634C187.884 47.794 187.884 41.415 185.247 37.5656C182.609 33.7162 175.357 37.6756 180.961 29.0969C186.565 20.5182 178.433 18.0986 174.258 13.9192C170.082 9.73988 156.456 22.278 162.39 11.4996C168.324 0.721311 144.511 -0.308439 132.28 2.92095C114.369 7.65024 130.962 20.8482 123.27 22.6079C115.578 24.3676 113.819 15.679 106.127 22.6079C98.4348 29.5368 117.776 44.6045 109.534 43.2847C101.293 41.9649 90.5234 48.4539 98.4348 62.5318C101.257 67.5541 101.951 67.151 111.292 67.151C120.632 67.151 113.929 67.151 121.621 67.151C129.313 67.151 130.083 69.1307 132.28 78.5893C134.478 88.0478 134.918 82.1087 140.852 88.5977C146.786 95.0867 141.071 104.545 140.852 110.044C140.676 114.444 133.599 122.949 130.083 126.652C126.346 129.979 119.313 133.974 121.072 123.339C123.27 110.044 143.809 130.241 142.331 133.002C140.852 135.763 120.633 122.472 109.534 122.472" stroke="#112D47" stroke-width="2" stroke-linecap="round" stroke-linejoin="round"/>
<g style="mix-blend-mode:multiply">
<path d="M217.847 71.9269C217.847 69.6992 218.286 67.4933 219.137 65.4352C219.989 63.3771 221.238 61.5071 222.811 59.9319C224.385 58.3567 226.254 57.1072 228.31 56.2547C230.366 55.4022 232.57 54.9633 234.796 54.9633C230.301 54.9633 225.99 53.1763 222.811 49.9951C219.633 46.8138 217.847 42.499 217.847 38C217.847 42.499 216.062 46.8138 212.883 49.9951C209.705 53.1763 205.394 54.9633 200.898 54.9633C203.124 54.9633 205.328 55.4022 207.384 56.2547C209.441 57.1072 211.309 58.3567 212.883 59.9319C214.457 61.5071 215.705 63.3771 216.557 65.4352C217.409 67.4933 217.847 69.6992 217.847 71.9269Z" fill="#C5D5E4"/>
</g>
<g style="mix-blend-mode:multiply">
<path d="M16.9488 137.907C16.9488 135.68 17.3874 133.475 18.2394 131.418C19.0914 129.361 20.3401 127.492 21.9142 125.919C23.4883 124.345 25.3569 123.098 27.4131 122.247C29.4693 121.397 31.6729 120.961 33.8977 120.963C29.4025 120.963 25.0915 119.176 21.913 115.995C18.7345 112.814 16.9488 108.499 16.9488 104C16.9488 108.499 15.1631 112.814 11.9846 115.995C8.8061 119.176 4.49511 120.963 0 120.963C2.22481 120.961 4.42831 121.397 6.48452 122.247C8.54073 123.098 10.4093 124.345 11.9834 125.919C13.5575 127.492 14.8063 129.361 15.6583 131.418C16.5103 133.475 16.9488 135.68 16.9488 137.907Z" fill="#C5D5E4"/>
</g>
<g style="mix-blend-mode:multiply">
<path d="M88.2494 103.528C88.2547 98.9477 90.0765 94.5566 93.3145 91.3195C96.5526 88.0825 100.942 86.2641 105.519 86.2641C103.252 86.2668 101.007 85.822 98.9115 84.9556C96.8164 84.0892 94.9125 82.818 93.3087 81.2146C91.7048 79.6112 90.4324 77.7073 89.5643 75.6114C88.6962 73.5155 88.2494 71.2688 88.2494 69C88.252 71.2679 87.8076 73.5139 86.9417 75.6097C86.0758 77.7055 84.8053 79.6097 83.203 81.2134C81.6007 82.817 79.6981 84.0887 77.6042 84.9554C75.5102 85.822 73.266 86.2668 71 86.2641C75.5748 86.2641 79.9623 88.0831 83.1971 91.3208C86.432 94.5584 88.2494 98.9495 88.2494 103.528Z" fill="#C5D5E4"/>
</g>
<path d="M140.078 80.8129C139.017 80.5326 134.842 70.6129 132.668 66.7977C132.668 64.4618 133.667 69.0168 136.32 66.7977C138.972 64.5786 143.82 66.935 143.71 69.5044C143.599 72.0739 141.404 81.1633 140.078 80.8129Z" stroke="#112D47" stroke-width="2" stroke-linecap="round" stroke-linejoin="round"/>
<path d="M145.814 62.0926C144.516 63.3229 146.354 68.0978 147.436 70.3314C148.121 69.3794 150.204 66.8162 153.059 64.1797C156.628 60.8842 156.952 58.541 153.059 58.2115C149.166 57.8819 147.436 60.5547 145.814 62.0926Z" stroke="#112D47" stroke-width="2" stroke-linecap="round" stroke-linejoin="round"/>
<path d="M123.006 209.479C113.067 205.338 107.566 199.264 109.478 195.122C112.791 187.944 124.387 189.049 129.908 189.325C135.43 189.601 132.945 213.62 123.006 209.479Z" stroke="#112D47" stroke-width="2" stroke-linecap="round" stroke-linejoin="round"/>
</svg>
