<svg width="200" height="200" viewBox="0 0 200 200" fill="none" xmlns="http://www.w3.org/2000/svg">
<rect x="84.625" y="56.5098" width="38.2061" height="86.5255" rx="19.103" fill="#879EB4"/>
<path d="M130.598 60.3336C129.265 55.0002 124.598 45 102.598 45C80.5975 45 75.2641 57.6669 75.2641 69.0004V90.9956C75.2641 100.287 73.3894 110.575 64.4352 113.056C61.6128 113.838 58.1473 114.335 53.9304 114.335V114.335C47.5415 114.335 40.1424 109.781 42.606 103.886C43.3204 102.176 44.7426 101.001 47.2636 101.001C55.9304 101.001 55.9325 119.001 48.5991 121.001" stroke="#E6C9C9" stroke-width="2" stroke-linecap="round" stroke-linejoin="round"/>
<path d="M65.9297 111.001V67.6673V67.6673C65.9297 49.6256 80.5553 35 98.5969 35H103.93C124.918 35 141.931 52.0135 141.931 73.0007V127.668C141.931 148.656 124.918 165.669 103.93 165.669H98.5969C80.5553 165.669 65.9297 151.043 65.9297 133.002V133.002V133.002C65.9297 127.452 68.1341 122.13 72.0581 118.207L118.571 71.6935C124.567 65.6979 133.931 67.1884 133.931 75.6674V75.6674C133.931 82.1127 133.931 103.703 133.931 119.522C133.931 126.272 133.584 133.193 130.415 139.153C126.132 147.208 118.011 155.669 104.597 155.669C80.5966 155.669 75.9299 144.335 75.9299 124.335" stroke="#E6C9C9" stroke-width="2" stroke-linecap="round" stroke-linejoin="round"/>
</svg>
