<svg width="42" height="42" viewBox="0 0 42 42" fill="none" xmlns="http://www.w3.org/2000/svg">
<circle cx="21" cy="21" r="21" fill="#EEEEEE"/>
<path d="M20.4445 18.585H21.5555C21.9497 18.585 22.308 18.8571 22.4155 19.1973C22.4514 19.3333 22.5947 19.4354 22.7381 19.4354H23.634C23.8132 19.4354 23.9923 19.2653 23.9565 19.0952C23.7773 18.0408 22.8814 17.2245 21.7346 17.1565V16.3061C21.7346 16.1361 21.5913 16 21.4121 16H20.552C20.3729 16 20.2295 16.1361 20.2295 16.3061V17.1565C18.9394 17.2585 17.9001 18.3129 18.0077 19.5714C18.0793 20.7959 19.2261 21.7483 20.5162 21.7483H21.4121C22.0213 21.7483 22.4514 22.0544 22.4872 22.4966C22.5589 23.0068 22.1288 23.415 21.5913 23.415H20.4087C20.0145 23.415 19.6561 23.1429 19.5486 22.8027C19.5128 22.6667 19.3694 22.5646 19.2261 22.5646H18.3302C18.151 22.5646 17.9718 22.7347 18.0077 22.9048C18.1868 23.9592 19.0827 24.7415 20.2295 24.8435V25.6939C20.2295 25.8639 20.3729 26 20.552 26H21.448C21.6271 26 21.7705 25.8639 21.7705 25.6939V24.8435C23.0606 24.7415 24.0999 23.6871 23.9923 22.4286C23.9207 21.2041 22.7739 20.2517 21.4838 20.2517H20.4087C19.8712 20.2517 19.4769 19.8095 19.5128 19.3333C19.5486 18.8912 19.9787 18.585 20.4445 18.585Z" fill="#242E35"/>
<path d="M32.75 21C32.75 14.3726 27.3775 9 20.75 9C17.3647 9 14.3067 10.4019 12.125 12.6568C11.1543 13.6601 10.357 14.8323 9.78162 16.125" stroke="#242E35" stroke-width="1.5" stroke-linecap="round" stroke-linejoin="round"/>
<path d="M13.2856 15.3396L9.65675 16.4231L8.4621 12.6025" stroke="#242E35" stroke-width="1.5" stroke-linecap="round" stroke-linejoin="round"/>
<path d="M8.75 21C8.75 27.6274 14.1226 33 20.75 33C26.3415 33 31.0398 29.1757 32.3719 24" stroke="#242E35" stroke-width="1.5" stroke-linecap="round" stroke-linejoin="round" stroke-dasharray="2 3"/>
</svg>
