<svg width="42" height="42" viewBox="0 0 42 42" fill="none" xmlns="http://www.w3.org/2000/svg">
<circle cx="21" cy="21" r="21" fill="#EEEEEE"/>
<path d="M21.5681 15.6792L21.5681 9.84084" stroke="#242E35" stroke-width="1.5" stroke-linecap="round" stroke-linejoin="round"/>
<path d="M24.6819 12.1763L21.5681 9.06248L18.4543 12.1763" stroke="#242E35" stroke-width="1.5" stroke-linecap="round" stroke-linejoin="round"/>
<rect x="11.2046" y="18.375" width="20.5" height="11.5" rx="1.25" stroke="#242E35" stroke-width="1.5"/>
<path d="M21.7597 25.6898L21.0394 25.6898C20.7839 25.6898 20.5515 25.504 20.4818 25.2716C20.4586 25.1787 20.3657 25.109 20.2727 25.109L19.6919 25.109C19.5757 25.109 19.4596 25.2252 19.4828 25.3413C19.599 26.0616 20.1798 26.6192 20.9233 26.6656L20.9233 27.2465C20.9233 27.3626 21.0162 27.4556 21.1324 27.4556L21.69 27.4556C21.8061 27.4556 21.8991 27.3626 21.8991 27.2465L21.8991 26.6656C22.7355 26.5959 23.4092 25.8757 23.3395 25.0161C23.2931 24.1797 22.5496 23.5292 21.7132 23.5292L21.1324 23.5292C20.7374 23.5292 20.4586 23.3201 20.4354 23.018C20.3889 22.6695 20.6677 22.3907 21.0162 22.3907L21.7829 22.3907C22.0385 22.3907 22.2708 22.5766 22.3405 22.8089C22.3637 22.9019 22.4567 22.9716 22.5496 22.9716L23.1304 22.9716C23.2466 22.9716 23.3628 22.8554 23.3395 22.7392C23.2234 22.019 22.6425 21.4846 21.8991 21.4149L21.8991 20.8341C21.8991 20.718 21.8061 20.625 21.69 20.625L21.1091 20.625C20.993 20.625 20.9 20.718 20.9 20.8341L20.9 21.4149C20.0636 21.4846 19.3899 22.2049 19.4596 23.0645C19.506 23.9009 20.2495 24.5514 21.0859 24.5514L21.7829 24.5514C22.1314 24.5514 22.387 24.8535 22.3637 25.1787C22.3405 25.4807 22.0617 25.6898 21.7597 25.6898Z" fill="#242E35"/>
</svg>
