<svg width="42" height="42" viewBox="0 0 42 42" fill="none" xmlns="http://www.w3.org/2000/svg">
<circle cx="21" cy="21" r="21" fill="#C5D5E4"/>
<rect x="11.75" y="11.75" width="18.5" height="18.5" rx="9.25" stroke="#242E35" stroke-width="1.5"/>
<path d="M21.463 23.1202L20.5373 23.1202C20.2088 23.1202 19.9102 22.8813 19.8206 22.5827C19.7907 22.4632 19.6713 22.3736 19.5518 22.3736L18.8053 22.3736C18.656 22.3736 18.5067 22.5229 18.5365 22.6723C18.6858 23.598 19.4324 24.3147 20.388 24.3744L20.388 25.121C20.388 25.2703 20.5074 25.3897 20.6567 25.3897L21.3734 25.3897C21.5227 25.3897 21.6422 25.2703 21.6422 25.121L21.6422 24.3744C22.7172 24.2848 23.5832 23.3591 23.4936 22.2542C23.4339 21.1792 22.4783 20.343 21.4033 20.343L20.6567 20.343C20.1491 20.343 19.7907 20.0743 19.7609 19.6861C19.7011 19.2381 20.0595 18.8798 20.5074 18.8798L21.4929 18.8798C21.8213 18.8798 22.12 19.1187 22.2096 19.4173C22.2394 19.5367 22.3589 19.6263 22.4783 19.6263L23.2249 19.6263C23.3742 19.6263 23.5235 19.477 23.4936 19.3277C23.3443 18.402 22.5978 17.7152 21.6422 17.6256L21.6422 16.879C21.6422 16.7297 21.5227 16.6103 21.3734 16.6103L20.6269 16.6103C20.4776 16.6103 20.3581 16.7297 20.3581 16.879L20.3581 17.6256C19.2831 17.7152 18.4171 18.6409 18.5067 19.7458C18.5664 20.8208 19.522 21.6569 20.597 21.6569L21.4929 21.6569C21.9408 21.6569 22.2693 22.0452 22.2394 22.4632C22.2096 22.8514 21.8512 23.1202 21.463 23.1202Z" fill="#242E35"/>
</svg>
