<svg width="42" height="42" viewBox="0 0 42 42" fill="none" xmlns="http://www.w3.org/2000/svg">
<circle cx="21" cy="21" r="21" fill="#FAE8D1"/>
<path fill-rule="evenodd" clip-rule="evenodd" d="M17.8409 28.2217C18.674 28.2217 19.3487 28.8964 19.3487 29.7295C19.3487 30.5626 18.674 31.2374 17.8409 31.2374C17.0078 31.2374 16.333 30.5626 16.333 29.7295C16.333 28.8964 17.0078 28.2217 17.8409 28.2217Z" fill="#242E35"/>
<path fill-rule="evenodd" clip-rule="evenodd" d="M25.0782 28.2217C25.9113 28.2217 26.586 28.8964 26.586 29.7295C26.586 30.5626 25.9113 31.2374 25.0782 31.2374C24.2451 31.2374 23.5703 30.5626 23.5703 29.7295C23.5703 28.8964 24.2451 28.2217 25.0782 28.2217Z" fill="#242E35"/>
<path d="M13.5662 17.4518H29.6022L27.8215 26.3554H15.3565L12.6711 13H10" stroke="#242E35" stroke-width="1.5" stroke-linecap="round" stroke-linejoin="round"/>
<path d="M17.679 20.4756L18.1426 23.2531" stroke="#242E35" stroke-width="1.5" stroke-linecap="round" stroke-linejoin="round"/>
<line x1="22.042" y1="20.7739" x2="22.042" y2="22.7364" stroke="#242E35" stroke-width="1.5" stroke-linecap="round" stroke-linejoin="round"/>
<path d="M25.8105 20.4756L25.3806 23.2531" stroke="#242E35" stroke-width="1.5" stroke-linecap="round" stroke-linejoin="round"/>
</svg>
