<svg width="42" height="42" viewBox="0 0 42 42" fill="none" xmlns="http://www.w3.org/2000/svg">
<circle cx="21" cy="21" r="21" fill="#EEEEEE"/>
<path d="M20.9329 26V31.8384" stroke="#242E35" stroke-width="1.5" stroke-linecap="round" stroke-linejoin="round"/>
<path d="M17.8191 29.5029L20.9329 32.6167L24.0467 29.5029" stroke="#242E35" stroke-width="1.5" stroke-linecap="round" stroke-linejoin="round"/>
<rect x="10.5691" y="11.75" width="20.5" height="11.5" rx="1.25" stroke="#242E35" stroke-width="1.5"/>
<path d="M21.3051 19.0648L20.5848 19.0648C20.3293 19.0648 20.097 18.8789 20.0273 18.6466C20.004 18.5537 19.9111 18.484 19.8182 18.484L19.2373 18.484C19.1212 18.484 19.005 18.6002 19.0282 18.7163C19.1444 19.4365 19.7252 19.9941 20.4687 20.0406L20.4687 20.6214C20.4687 20.7376 20.5616 20.8305 20.6778 20.8305L21.2354 20.8305C21.3515 20.8305 21.4445 20.7376 21.4445 20.6214L21.4445 20.0406C22.2809 19.9709 22.9546 19.2507 22.8849 18.3911C22.8385 17.5547 22.095 16.9041 21.2586 16.9041L20.6778 16.9041C20.2828 16.9041 20.004 16.695 19.9808 16.393C19.9343 16.0445 20.2131 15.7657 20.5616 15.7657L21.3283 15.7657C21.5839 15.7657 21.8162 15.9516 21.8859 16.1839C21.9091 16.2768 22.0021 16.3465 22.095 16.3465L22.6758 16.3465C22.792 16.3465 22.9082 16.2304 22.8849 16.1142C22.7688 15.394 22.1879 14.8596 21.4445 14.7899L21.4445 14.2091C21.4445 14.0929 21.3515 14 21.2354 14L20.6545 14C20.5384 14 20.4454 14.0929 20.4454 14.2091L20.4454 14.7899C19.6091 14.8596 18.9353 15.5798 19.005 16.4395C19.0515 17.2759 19.7949 17.9264 20.6313 17.9264L21.3283 17.9264C21.6768 17.9264 21.9324 18.2284 21.9091 18.5537C21.8859 18.8557 21.6071 19.0648 21.3051 19.0648Z" fill="#242E35"/>
</svg>
