<svg width="415" height="287" viewBox="0 0 415 287" fill="none" xmlns="http://www.w3.org/2000/svg">
<path d="M382.896 102.229C382.896 135.084 346.247 215.948 287.254 215.948C228.261 215.948 122.921 225.15 122.921 179.466C122.921 138.382 185.534 91.3838 244.528 91.3838C303.521 91.3838 368.435 69.6911 382.896 102.229Z" fill="#FAE8D1"/>
<g style="mix-blend-mode:multiply">
<path d="M173.682 176.179C179.78 203.13 151.515 271.164 98.5999 276.752C54.2991 276.752 0 243.293 0 209.046C0 178.249 35.3828 212.281 79.6836 212.281C123.984 212.281 159.403 153.173 173.682 176.179Z" fill="#FAE8D1"/>
</g>
<path d="M96.2859 221.816C103.611 219.435 125.952 216.94 130.896 221.816C135.841 226.691 121.224 234.182 107.548 236.444C93.8723 238.706 92.1657 237.656 89.1441 237.473" stroke="#242E35" stroke-width="2" stroke-linecap="round" stroke-linejoin="round"/>
<path d="M93.2632 228.962C97.5667 225.758 130.346 219.962 125.951 229.85" stroke="#242E35" stroke-width="2" stroke-linecap="round" stroke-linejoin="round"/>
<path d="M104.251 211.447C104.8 214.743 107.162 218.039 112.216 219.138" stroke="#242E35" stroke-width="2" stroke-linecap="round" stroke-linejoin="round"/>
<path d="M101.23 165.299C102.237 165.848 102.658 167.332 102.878 168.87C103.976 168.595 107.547 168.595 107.547 166.398" stroke="#242E35" stroke-width="2" stroke-linecap="round" stroke-linejoin="round"/>
<path d="M77.0574 129.867C75.7756 128.86 75.4093 125.197 75.4093 119.978C71.8384 119.978 66.3447 119.978 61.675 116.887C60.3016 122.655 58.3788 131.515 63.8726 135.361" stroke="#242E35" stroke-width="2" stroke-linecap="round" stroke-linejoin="round"/>
<path d="M78.9806 87.7682C80.354 90.0573 82.6064 95.4045 80.6287 98.481C78.1565 102.327 94.363 111.736 92.7149 118.533C101.505 118.533 107.823 116.885 110.02 122.928C114.69 114.757 109.471 98.7557 90.7921 87.0139" stroke="#242E35" stroke-width="2" stroke-linecap="round" stroke-linejoin="round"/>
<path d="M59.7513 141.881C60.2091 138.127 65.9043 130.234 85.0224 128.696C104.141 127.158 112.491 131.329 114.414 133.709" stroke="#242E35" stroke-width="2" stroke-linecap="round" stroke-linejoin="round"/>
<path d="M103.153 91.9575C106.815 96.7187 113.354 104.044 115.239 111.665C117.124 119.287 120.733 134.739 100.681 151.495C96.2857 156.439 95.4616 162.207 96.2857 166.328" stroke="#242E35" stroke-width="2" stroke-linecap="round" stroke-linejoin="round"/>
<path d="M56.7303 100.13C52.61 110.018 47.7755 132.488 61.3999 143.255C76.233 154.792 85.5723 157.264 87.4951 163.857C89.0334 169.131 88.777 168.871 88.5939 168.322" stroke="#242E35" stroke-width="2" stroke-linecap="round" stroke-linejoin="round"/>
<path d="M83.1003 193.797C86.1218 193.156 92.9341 191.435 96.0106 189.677C99.0871 187.919 103.519 191.691 105.35 193.797M89.9674 203.136C92.5312 201.58 98.263 197.917 100.68 195.72C103.702 192.973 107.547 193.797 110.02 193.797C112.492 193.797 119.634 198.192 118.26 203.136C116.063 205.883 115.513 205.883 111.118 205.609C106.723 205.334 100.955 209.18 103.702 211.102C106.449 213.025 113.041 212.159 112.766 208.425C112.492 204.691 99.3068 208.905 97.6587 214.673C96.0106 220.442 95.833 225.313 93.3608 228.609C90.8887 231.905 85.9959 244.111 85.0021 246.441C83.1003 250.899 74.7345 258.154 68.142 254.857C60.4743 251.024 58.1728 246.683 54.558 250.13C50.9432 253.576 66.0613 304.688 122.592 277.738C179.123 250.787 250.115 266.892 221.192 241.913C160.158 189.202 202.787 185.054 206.731 155.474" stroke="#242E35" stroke-width="2" stroke-linecap="round" stroke-linejoin="round"/>
<path d="M94.9118 179.239C95.4612 178.964 97.3839 177.207 100.68 176.767C106.723 175.668 110.294 168.801 109.47 165.505C108.646 162.209 95.7359 167.153 87.2206 168.801C78.7053 170.449 77.6067 172.372 71.5636 176.767C65.5205 181.162 59.2026 182.535 54.533 189.128C49.8633 195.72 48.0965 227.883 44.8002 241.892C31.0971 300.13 35.496 144.628 14.79 165.335C9.75044 169.97 2.69507 179.239 14.79 179.239C26.8849 179.239 60.8031 162.301 76.2503 153.832" stroke="#242E35" stroke-width="2" stroke-linecap="round" stroke-linejoin="round"/>
<path d="M75.4093 186.107C79.8043 183.544 89.3634 178.471 92.4398 178.691C96.2854 178.965 102.878 181.437 105.075 184.184C108.097 187.48 111.393 192.974 110.569 193.798" stroke="#242E35" stroke-width="2" stroke-linecap="round" stroke-linejoin="round"/>
<ellipse cx="79.9056" cy="97.9381" rx="24.1092" ry="10.0093" transform="rotate(-11.9151 79.9056 97.9381)" stroke="#242E35" stroke-width="2" stroke-linecap="round" stroke-linejoin="round"/>
<path d="M108.043 134.435C83.9696 127.302 68.2924 135.921 63.4629 141.122C65.6919 142.794 72.2674 147.252 80.7375 151.71C89.2077 156.168 90.5822 162.483 90.2107 165.084L94.1114 163.969C94.6687 158.954 97.0091 148.143 101.913 145.023C108.043 141.122 109.157 137.221 108.043 134.435Z" fill="#E6C9C9"/>
<path d="M205.416 160.694C172.355 155.836 146.914 126.066 146.914 90.0683C146.914 50.679 177.374 18.7477 214.948 18.7477C252.522 18.7477 282.982 50.679 282.982 90.0683C282.982 129.458 252.522 161.389 214.948 161.389C213.513 161.389 212.088 161.342 210.675 161.25" stroke="#242E35" stroke-width="2" stroke-linecap="round" stroke-linejoin="round"/>
<path d="M204.759 150.872C179.63 144.224 161.375 119.506 161.375 89.7397C161.375 54.8883 186.979 26.6357 218.563 26.6357C250.147 26.6357 275.751 54.8883 275.751 89.7397C275.751 124.591 250.147 152.844 218.563 152.844C216.81 152.844 215.076 152.757 213.364 152.586" stroke="#242E35" stroke-width="2" stroke-linecap="round" stroke-linejoin="round"/>
<path d="M175.179 32.3774C188.2 17.9075 229.29 -4.08698 267.739 2.0587C289.094 5.12899 330.161 10.5806 341.604 60.5403C346.318 81.1211 342.711 138.507 275.587 156.57M213.633 161.389C225.535 162.181 234.991 162.225 244.915 161.526" stroke="#242E35" stroke-width="2" stroke-linecap="round" stroke-linejoin="round"/>
<path d="M215.073 132.574C210.248 131.109 201.839 129.056 198.531 136.441C194.884 144.582 202.147 148.392 205.03 148.979M205.03 148.979C205.416 149.057 205.724 149.078 205.916 149.043C207.541 148.75 214.039 149.19 215.073 146.259C216.107 143.328 212.858 142.889 212.858 150.069C212.858 154.318 214.335 155.051 212.858 155.344C211.676 155.579 207.147 155.442 205.03 155.344V148.979Z" stroke="#242E35" stroke-width="2" stroke-linecap="round" stroke-linejoin="round"/>
<path d="M218.707 143.641C222.789 140.411 227.163 132.515 216.515 129.219M216.515 129.219C201.649 124.617 201.795 134.266 201.503 123.43C200.92 115.749 208.793 112.52 213.6 116.304C216.631 118.204 216.806 125.706 216.515 129.219Z" stroke="#242E35" stroke-width="2" stroke-linecap="round" stroke-linejoin="round"/>
<ellipse cx="205.088" cy="140.354" rx="4.92999" ry="5.91599" stroke="#242E35" stroke-width="2" stroke-linecap="round" stroke-linejoin="round"/>
<path d="M163.347 136.739L160.389 138.711L186.189 166.812L195.885 177.493M211.99 194.913L202.458 184.724" stroke="#242E35" stroke-width="2" stroke-linecap="round" stroke-linejoin="round"/>
<path d="M210.018 164.018L225.715 180.963M225.715 180.963L162.69 244.213L181.971 246.55L185.769 244.213L221.996 207.402L263.042 255.168L282.324 257.359L288.898 253.269L237.626 193.671L288.898 142.984L285.538 139.04C275.582 146.254 261.487 160.326 245.477 161.261L225.715 180.963Z" stroke="#242E35" stroke-width="2" stroke-linecap="round" stroke-linejoin="round"/>
<path d="M238.283 194.255L277.032 174.823C279.249 173.229 282.381 170.787 280.357 166.453C278.333 162.117 271.682 164.509 268.067 166.453C265.176 168.007 263.323 168.817 261.925 169.615" stroke="#242E35" stroke-width="2" stroke-linecap="round" stroke-linejoin="round"/>
<path d="M330.503 119.383L333.803 117.348L336.883 122.045L290.68 167.988L335.27 221.124L329.696 223.179L312.388 222.151L276.745 179.144L248.358 206.246" stroke="#242E35" stroke-width="2" stroke-linecap="round" stroke-linejoin="round"/>
<path d="M198.843 15.3721C205.804 12.1174 224.927 8.82945 246.889 19.2056C270.254 31.1556 289.822 50.6835 291.72 79.3926C293.618 103.001 290.406 132.002 268.648 151.53" stroke="#242E35" stroke-width="2" stroke-linecap="round" stroke-linejoin="round"/>
<path d="M227.109 4.51374C251.405 2.41426 308.747 16.8449 315.422 75.4337C319.943 115.118 298.868 143.687 285.554 153.501" stroke="#242E35" stroke-width="2" stroke-linecap="round" stroke-linejoin="round"/>
<path d="M289.628 6.15881C317.75 16.5595 360.842 77.4628 314.476 137.068" stroke="#242E35" stroke-width="2" stroke-linecap="round" stroke-linejoin="round"/>
<path d="M211.004 155.474C210.894 165.553 204.962 190.575 182.087 211.347C177.985 215.071 178.935 219.155 183.591 223.179M340.83 98.2856C475.91 107.817 382.898 119.649 376.652 200.172C373.858 236.196 328.902 247.421 282.627 246.501M198.186 231.332C211.988 236.977 232.095 241.829 253.885 244.457" stroke="#242E35" stroke-width="2" stroke-linecap="round" stroke-linejoin="round"/>
<path d="M115.033 133.781L150.858 116.033" stroke="#242E35" stroke-width="2" stroke-linecap="round" stroke-linejoin="round"/>
</svg>
