<svg width="333" height="288" viewBox="0 0 333 288" fill="none" xmlns="http://www.w3.org/2000/svg">
<ellipse cx="166.452" cy="87.889" rx="166.452" ry="30.3592" fill="#E0E5CD"/>
<path d="M164.645 71.5128C150.752 66.9548 35.5963 77.7702 35.5963 85.4834C35.5963 93.193 108.793 99.4078 180.064 99.4078C251.336 99.4078 293.694 93.1937 293.694 85.4834C293.694 79.9365 263.813 75.1425 220.522 72.8872C214.535 72.8872 203.892 78.3031 214.535 88.1428C229.834 102.287 234.491 119.407 209.878 125.394C185.266 131.381 164.645 146.68 164.645 177.945" stroke="#242E35" stroke-width="2" stroke-linecap="round" stroke-linejoin="round"/>
<path d="M36.9275 87.4775C36.9275 87.4775 58.6283 109.876 81.6594 126.626C104.691 143.376 142.11 165.76 142.11 165.76V183.94C142.11 183.94 142.446 184.141 143.238 184.471C145.604 185.398 151.97 187.257 164.646 187.257C169.944 187.257 174.109 186.927 177.377 186.493C184.535 185.502 187.181 183.94 187.181 183.94V165.76C187.181 165.76 228.221 142.329 239.737 131.861C251.252 121.392 292.364 87.4775 292.364 87.4775" stroke="#242E35" stroke-width="2" stroke-linecap="round" stroke-linejoin="round"/>
<path d="M154.001 26.9236V33.3958C154.001 42.6895 146.853 50.2235 138.036 50.2235C129.219 50.2235 122.071 42.6895 122.071 33.3958V26.2764" stroke="#242E35" stroke-width="2" stroke-linecap="round" stroke-linejoin="round"/>
<path d="M204.559 62.6627V67.3371C204.559 74.0492 199.198 79.4905 192.586 79.4905C185.973 79.4905 180.612 74.0492 180.612 67.3371V62.1953" stroke="#242E35" stroke-width="2" stroke-linecap="round" stroke-linejoin="round"/>
<path d="M208.542 230.992V242.993C208.542 267.298 188.801 287 164.45 287C140.099 287 120.358 267.298 120.358 242.993V230.992" stroke="#242E35" stroke-width="2" stroke-linecap="round" stroke-linejoin="round"/>
<circle cx="138.036" cy="26.2768" r="15.9648" stroke="#242E35" stroke-width="2" stroke-linecap="round" stroke-linejoin="round"/>
<circle cx="192.586" cy="62.1977" r="11.9736" stroke="#242E35" stroke-width="2" stroke-linecap="round" stroke-linejoin="round"/>
<path d="M139.097 191.667C127.763 199.613 120.358 212.744 120.358 227.597C120.358 251.848 140.099 271.508 164.45 271.508C188.801 271.508 208.542 251.848 208.542 227.597C208.542 212.744 201.137 199.613 189.803 191.667" stroke="#242E35" stroke-width="2" stroke-linecap="round" stroke-linejoin="round"/>
<ellipse cx="234.494" cy="46.235" rx="5.98679" ry="6.65199" stroke="#242E35" stroke-width="2" stroke-linecap="round" stroke-linejoin="round"/>
<ellipse cx="88.3505" cy="54.2143" rx="7.31719" ry="7.98239" stroke="#242E35" stroke-width="2" stroke-linecap="round" stroke-linejoin="round"/>
<ellipse cx="185.262" cy="8.98239" rx="7.31719" ry="7.98239" stroke="#242E35" stroke-width="2" stroke-linecap="round" stroke-linejoin="round"/>
<circle cx="163.854" cy="225.629" r="30.3875" fill="#E0E5CD"/>
<path d="M175.119 215.412C169.307 213.379 158.266 213.989 157.53 219.422C156.61 226.212 174.462 220.262 173.739 225.598C173.017 230.934 154.462 233.081 154.922 229.685" stroke="#242E35" stroke-width="2" stroke-linecap="round" stroke-linejoin="round"/>
<path d="M167.451 209.962L163.715 236.382" stroke="#242E35" stroke-width="2" stroke-linecap="round" stroke-linejoin="round"/>
<circle cx="137.637" cy="26.6211" r="11.3208" fill="#E0E5CD"/>
<path d="M142.962 22.9999C140.059 21.984 134.543 22.2889 134.175 25.0029C133.716 28.3954 142.634 25.4229 142.273 28.0885C141.912 30.754 132.643 31.8267 132.872 30.1305" stroke="#242E35" stroke-width="2" stroke-linecap="round" stroke-linejoin="round"/>
<path d="M139.132 20.2764L137.266 33.4746" stroke="#242E35" stroke-width="2" stroke-linecap="round" stroke-linejoin="round"/>
<circle cx="192.454" cy="61.1787" r="8.9375" fill="#E0E5CD"/>
<path d="M195.288 58.9316C193.384 58.2655 189.768 58.4654 189.527 60.245C189.225 62.4694 195.073 60.5203 194.836 62.2681C194.6 64.0158 188.522 64.7192 188.672 63.607" stroke="#242E35" stroke-width="2" stroke-linecap="round" stroke-linejoin="round"/>
<path d="M192.777 57.146L191.553 65.7986" stroke="#242E35" stroke-width="2" stroke-linecap="round" stroke-linejoin="round"/>
<path d="M236.615 45.0647C235.462 44.6617 233.272 44.7828 233.126 45.8597C232.944 47.2057 236.485 46.0261 236.342 47.0837C236.199 48.1414 232.518 48.5672 232.609 47.8941" stroke="#242E35" stroke-width="2" stroke-linecap="round" stroke-linejoin="round"/>
<path d="M235.091 43.9829L234.35 49.2185" stroke="#242E35" stroke-width="2" stroke-linecap="round" stroke-linejoin="round"/>
<path d="M187.521 7.16175C186.107 6.66766 183.422 6.81612 183.243 8.13626C183.02 9.78643 187.361 8.34035 187.186 9.63692C187.01 10.9335 182.498 11.4555 182.609 10.6304" stroke="#242E35" stroke-width="2" stroke-linecap="round" stroke-linejoin="round"/>
<path d="M185.654 5.83545L184.746 12.2555" stroke="#242E35" stroke-width="2" stroke-linecap="round" stroke-linejoin="round"/>
<path d="M91.0424 52.4777C89.6288 51.9836 86.9438 52.132 86.765 53.4521C86.5414 55.1022 90.8828 53.6562 90.7071 54.9527C90.5315 56.2492 86.0192 56.7711 86.131 55.9461" stroke="#242E35" stroke-width="2" stroke-linecap="round" stroke-linejoin="round"/>
<path d="M89.1758 51.1514L88.2679 57.5714" stroke="#242E35" stroke-width="2" stroke-linecap="round" stroke-linejoin="round"/>
</svg>
