<svg width="17" height="16" viewBox="0 0 17 16" fill="none" xmlns="http://www.w3.org/2000/svg">
<path fill-rule="evenodd" clip-rule="evenodd" d="M5.42866 16.0001C4.22866 16.0001 3.12866 15.5001 2.22866 14.7001C0.428662 12.9001 0.428662 10.1001 2.22866 8.3001L2.92866 7.6001L4.32866 9.0001L3.62866 9.7001C2.62866 10.7001 2.62866 12.3001 3.62866 13.3001C4.62866 14.3001 6.22866 14.3001 7.22866 13.3001L10.2287 10.3001C11.2287 9.3001 11.2287 7.7001 10.2287 6.7001L9.52866 6.0001L10.9287 4.6001L11.6287 5.3001C13.4287 7.1001 13.4287 9.9001 11.6287 11.7001L8.62866 14.7001C7.82866 15.5001 6.62866 16.0001 5.42866 16.0001Z" fill="white"/>
<path fill-rule="evenodd" clip-rule="evenodd" d="M6.92866 11.4L6.22866 10.7C4.42866 8.9 4.42866 6.1 6.22866 4.3L9.22866 1.3C10.1287 0.4 11.2287 0 12.4287 0C13.6287 0 14.7287 0.5 15.6287 1.3C17.4287 3.1 17.4287 5.9 15.6287 7.7L14.9287 8.4L13.5287 7L14.2287 6.3C15.2287 5.3 15.2287 3.7 14.2287 2.7C13.2287 1.7 11.6287 1.7 10.6287 2.7L7.62866 5.7C6.62866 6.7 6.62866 8.3 7.62866 9.3L8.32866 10L6.92866 11.4Z" fill="white"/>
</svg>
