<svg width="149" height="175" viewBox="0 0 149 175" fill="none" xmlns="http://www.w3.org/2000/svg">
<path d="M69.8553 34.0143C69.8553 34.0143 71.4436 35.991 74.558 35.0431C77.2772 34.2111 82.8363 25.4427 98.7752 35.8855C102.776 38.5417 106.444 41.7699 109.669 45.4714L120.467 57.7105C120.609 57.8747 120.789 57.9943 120.986 58.0545C121.183 58.1147 121.388 58.1128 121.574 58.0491C121.761 57.9854 121.921 57.8626 122.036 57.6961C122.15 57.5297 122.213 57.3268 122.218 57.1128C122.322 51.2842 121.063 35.9331 106.891 21.921C92.719 7.90892 85.9804 4.19389 75.5655 4.70671C68.776 5.09998 62.2745 7.11371 56.5305 10.6025C54.4802 11.8256 51.9979 13.3721 49.1522 15.3325C38.0078 22.9748 22.7024 38.5035 10.3911 33.1322C9.75782 32.8673 9.18579 32.4379 8.72969 31.8851C8.27358 31.3323 7.94867 30.6745 7.78602 29.9747C7.47991 28.4721 8.32988 25.3373 12.3077 27.206C18.8215 30.2898 20.7473 34.6804 16.0095 45.1265C12.6369 52.6128 10.1979 56.8494 11.8463 61.8636" stroke="#242E35" stroke-width="2" stroke-linecap="round" stroke-linejoin="round"/>
<path d="M40.2306 133.716C40.3605 134.453 40.6919 135.148 41.1817 135.712C41.6714 136.275 42.2968 136.681 42.9763 136.876C43.6558 137.071 44.3579 137.046 44.9912 136.804C45.6246 136.562 46.1597 136.115 46.527 135.521C47.6043 133.804 49.0691 131.663 49.8655 131.333C50.9656 130.886 53.0812 132.889 53.884 133.714C53.9941 133.833 54.1259 133.925 54.2695 133.984C54.4131 134.044 54.5648 134.068 54.7132 134.056C54.8616 134.044 55.0028 133.996 55.1262 133.915C55.2497 133.835 55.3521 133.723 55.4259 133.59C55.8452 132.793 56.0407 130.962 55.2486 126.876C53.5864 118.236 57.4705 116.351 60.3586 119.043C63.2466 121.735 61.6811 126.809 51.7516 126.037C41.822 125.264 40.9255 120.158 41.5941 117.607C42.1854 115.409 42.6054 103.353 41.6165 94.566C41.4788 93.2559 41.0454 91.9762 40.3544 90.8389C39.6634 89.7015 38.7357 88.7412 37.6525 88.0419C35.0988 86.4096 31.5685 85.1912 28.7029 88.1387C28.6048 88.2414 28.5334 88.37 28.4946 88.5137C28.4558 88.6574 28.4508 88.8118 28.4801 88.9638C28.5093 89.1158 28.5719 89.261 28.6626 89.3869C28.7533 89.5127 28.8693 89.6156 29.0008 89.6868C29.7971 90.0966 31.4382 90.4384 34.7481 90.2757C41.9714 89.9134 40.4706 82.3932 34.5531 74.5467C29.6776 68.0728 19.2527 63.2715 15.7495 61.7966C14.6959 61.3303 13.561 61.2042 12.4922 61.4348C10.3344 61.9554 8.01646 64.1074 13.4777 72.1987C21.6413 84.361 20.6801 94.7385 20.6801 94.7385C20.6801 94.7385 15.4154 111.578 32.5452 136.728C49.675 161.878 51.2471 159.74 61.0333 162.778C63.1061 163.414 65.2195 163.809 67.3358 163.958C78.3696 164.757 86.5837 154.593 84.8819 142.788L81.8046 121.442" stroke="#242E35" stroke-width="2" stroke-linecap="round" stroke-linejoin="round"/>
<path d="M77.6369 65.8391C73.3921 66.1779 69.4389 67.8582 66.2774 70.6675C63.1158 73.4769 60.8878 77.289 59.8751 81.622C58.8624 85.955 59.1105 90.6141 60.5881 95.0103C62.0656 99.4064 64.7062 103.342 68.176 106.32C71.6457 109.297 75.7888 111.183 80.0812 111.738C84.3736 112.294 88.6227 111.494 92.291 109.44C95.9593 107.386 98.8822 104.17 100.69 100.198C102.498 96.2274 103.109 91.6794 102.447 87.1298C101.556 81.03 98.443 75.3613 93.7909 71.3692C89.1388 67.377 83.3286 65.388 77.6369 65.8391V65.8391ZM76.2924 56.6008C82.2421 56.1237 88.334 57.5484 93.7978 60.6949C99.2615 63.8414 103.851 68.5682 106.987 74.2776C110.123 79.987 111.664 86.4224 111.415 92.77C111.166 99.1176 109.138 105.092 105.588 109.938C102.037 114.784 97.1246 118.284 91.4702 119.995C85.8158 121.705 79.6741 121.55 73.8216 119.549C67.9692 117.548 62.6691 113.79 58.5915 108.752C54.5139 103.713 51.8421 97.6198 50.914 91.2425C49.6698 82.6934 51.6443 74.2415 56.4034 67.7453C61.1626 61.2491 68.3166 57.2404 76.2924 56.6008V56.6008Z" stroke="#242E35" stroke-width="2" stroke-linecap="round" stroke-linejoin="round"/>
<path d="M88.2121 169.673C77.549 170.524 67.5564 161.949 65.893 150.52C64.2297 139.091 71.5255 129.136 82.1887 128.285C92.8519 127.434 102.844 136.009 104.508 147.438C106.171 158.867 98.8753 168.822 88.2121 169.673Z" stroke="#242E35" stroke-width="2" stroke-linecap="round" stroke-linejoin="round"/>
<path d="M47.5679 141.923L58.1562 141.053C58.1562 141.053 55.7845 148.819 47.5679 141.923Z" fill="#242E35"/>
<path d="M73.4421 90.8369C73.9282 94.177 76.812 96.5527 79.7492 96.3183C82.6864 96.0839 84.8204 93.3078 84.3343 89.9676C83.8482 86.6275 80.9644 84.2519 78.0272 84.4863C75.09 84.7207 72.956 87.4968 73.4421 90.8369Z" stroke="#242E35" stroke-width="2"/>
<path d="M93.9541 86.985C93.9541 86.985 82.6833 78.3357 74.1462 80.0345C65.6092 81.7334 58.8522 89.9176 58.8522 89.9176" stroke="#242E35" stroke-width="2" stroke-miterlimit="10"/>
<path d="M105.586 139.312C105.586 139.312 119.843 127.388 118.592 109.962C117.631 96.6917 118.895 79.7202 119.577 72.3909C119.62 71.9178 119.766 71.4706 120.002 71.0839C120.239 70.6973 120.559 70.3816 120.939 70.1612C121.319 69.9408 121.749 69.8216 122.194 69.8128C122.639 69.804 123.089 69.9059 123.508 70.1106C128.557 72.4971 137.063 78.2533 135.642 89.9145C133.646 106.241 119.223 102.279 119.223 102.279" stroke="#242E35" stroke-width="2" stroke-linecap="round" stroke-linejoin="round"/>
<g style="mix-blend-mode:multiply">
<path d="M80.5523 88.2743L99.6307 86.9458C100.265 92.3217 98.9203 97.5809 95.884 101.599C92.8478 105.617 88.3609 108.076 83.3826 108.449C78.4043 108.822 73.3294 107.081 69.2429 103.597C65.1564 100.112 62.3825 95.162 61.514 89.8037L80.5523 88.2743Z" fill="#EFDDC7"/>
</g>
</svg>
