<svg width="403" height="317" viewBox="0 0 403 317" fill="none" xmlns="http://www.w3.org/2000/svg">
<g style="mix-blend-mode:multiply">
<path d="M101.454 170.534C122.4 214.803 190.916 187.67 176.24 140.945C173.205 131.282 166.978 120.684 156.066 109.4C120.163 72.2492 83.1969 132.001 101.454 170.534Z" fill="#EFDDC7"/>
</g>
<g style="mix-blend-mode:multiply">
<path d="M159.876 259.333C159.876 259.333 203.742 286.379 275.851 227.687C347.96 168.995 330.15 114.901 295.056 63.2796C275.046 33.8337 186.381 27.0596 183.064 82.4297C181.863 102.091 184.783 121.78 191.637 140.24C195.013 149.642 195.176 159.899 192.102 169.412C189.029 178.926 182.89 187.161 174.644 192.834C150.914 209.377 129.041 234.37 159.876 259.333Z" fill="#E6C9C9"/>
</g>
<path d="M9.78125 160.553C9.78125 160.553 107.09 147.529 179.018 120.456" stroke="#513011" stroke-width="2" stroke-linecap="round" stroke-linejoin="round"/>
<path d="M377.829 107.999C377.829 107.999 384 153.387 343.638 149.01C303.275 144.633 295.845 175.139 278.151 184.512C260.457 193.885 247.634 196.382 221.433 175.485C205.018 162.431 201.316 162.888 198.715 166.268C197.114 168.407 197.906 172.047 204.703 174.123C212.963 176.633 236.472 187.377 248.673 187.828C262.888 188.263 272.869 182.562 237.37 160.867C201.87 139.172 207.426 150.671 212.872 154.528C233.894 169.403 248.923 172.894 259.286 173.388C260.938 173.455 262.576 173.067 264.023 172.267C265.469 171.467 266.667 170.285 267.487 168.851C268.306 167.417 268.715 165.786 268.668 164.136C268.621 162.487 268.12 160.883 267.221 159.5C251.884 136.843 221.549 129.892 209.922 128.026C208.572 127.808 207.188 128.006 205.952 128.591C204.716 129.176 203.686 130.122 202.999 131.304L187.02 159.169C184.073 164.377 180.369 169.122 176.029 173.246C160.116 188.12 158.227 172.743 158.227 172.743C160.521 156.08 176.647 125.855 181.564 116.801C182.482 115.118 183.941 113.791 185.704 113.034L201.479 106.232C247.046 85.8851 311.353 80.7076 352.462 46.984" stroke="#513011" stroke-width="2" stroke-linecap="round" stroke-linejoin="round"/>
<path d="M74.046 220.782C74.046 220.782 94.8233 216.851 100.493 206.025C106.163 195.199 89.0725 185.016 85.3234 195.767C81.5743 206.519 100.26 217.806 113.72 219.367C127.18 220.928 160.8 205.537 160.8 205.537C167.335 204.523 174.022 205.378 180.087 208.002C189.151 212.394 232.879 228.206 226.55 209.986C221.243 194.864 183.671 180.768 183.677 186.985C183.683 193.202 225.38 214.677 244.1 202.66C244.1 202.66 252.666 196.843 231.06 183.293" stroke="#513011" stroke-width="2" stroke-linecap="round" stroke-linejoin="round"/>
<path d="M121.034 219.583C121.034 219.583 109.206 246.11 115.75 254.164C122.295 262.217 130.961 242.988 130.961 242.988L144.389 212.713" stroke="#513011" stroke-width="2" stroke-linecap="round" stroke-linejoin="round"/>
<path d="M153.027 208.918L133.185 252.667C132.681 253.709 132.509 254.88 132.693 256.022C132.878 257.164 133.409 258.221 134.216 259.05C136.449 261.211 140.878 261.345 149.389 250.074C159.005 236.695 167.336 222.441 174.269 207.501" stroke="#513011" stroke-width="2" stroke-linecap="round" stroke-linejoin="round"/>
<path d="M180.936 210.251C180.936 210.251 156.451 244.414 159.603 254.514C161.337 260.08 166.581 256.881 171.011 252.861C174.537 249.602 177.595 245.874 180.099 241.781L196.201 216.031" stroke="#513011" stroke-width="2" stroke-linecap="round" stroke-linejoin="round"/>
<path d="M219.157 219.874C219.157 219.874 201.668 247.562 192.395 251.053C183.121 254.543 185.219 239.467 201.933 216.368" stroke="#513011" stroke-width="2" stroke-linecap="round" stroke-linejoin="round"/>
<path d="M159.277 167.474C159.277 167.474 161.138 179.451 169.371 166.292C171.104 163.626 172.204 160.6 172.586 157.446C173.042 153.288 172.004 148.997 163.889 153.516" stroke="#242E35" stroke-width="2" stroke-linecap="round" stroke-linejoin="round"/>
</svg>
