<svg width="461" height="381" viewBox="0 0 461 381" fill="none" xmlns="http://www.w3.org/2000/svg">
<circle cx="279.856" cy="205.02" r="122.302" fill="#FAE8D1"/>
<path d="M141.528 85.5063C174.497 45.1023 223.991 20 280.206 20C308.468 20 335.207 26.5208 359 38.1399M141.18 314.082C174.149 354.486 223.991 379.588 280.206 379.588C379.504 379.588 460 299.091 460 199.794C460 157.814 445.613 119.195 421.5 88.5976" stroke="#242E35" stroke-width="2" stroke-linecap="round" stroke-linejoin="round"/>
<path d="M141.528 126.97C167.595 76.5444 219.527 42.9961 280.206 42.9961C366.803 42.9961 437.003 113.197 437.003 199.793C437.003 286.39 367.151 357.51 280.555 357.51C219.876 357.51 167.247 323.042 141.18 272.617" stroke="#242E35" stroke-width="2" stroke-linecap="round" stroke-linejoin="round"/>
<path d="M141.574 295C154.038 313.208 170.003 328.83 188.499 340.895" stroke="#242E35" stroke-width="2" stroke-linecap="round" stroke-linejoin="round"/>
<path d="M142.266 103C147.588 95.3436 153.533 88.1525 160.028 81.5" stroke="#242E35" stroke-width="2" stroke-linecap="round" stroke-linejoin="round"/>
<path d="M280.902 357.287C327.276 357.287 368.636 334.344 395.586 298.5C415.83 271.575 427.943 237.37 427.943 200.142C427.943 113.353 362.111 42.9961 280.902 42.9961" stroke="#242E35" stroke-width="2" stroke-linecap="round" stroke-linejoin="round"/>
<path d="M141.529 158.33V48.2234L130.031 42.6484H83.3399L78.4617 50.6625V65.6453H72.8867V335.336H77.068V348.228L82.2945 356.939H127.591L141.181 352.758V183.766" stroke="#242E35" stroke-width="2" stroke-linecap="round" stroke-linejoin="round"/>
<path d="M127.59 42.9961L127.59 356.59" stroke="#242E35" stroke-width="2" stroke-linecap="round" stroke-linejoin="round"/>
<path d="M83.6875 42.9961L83.6875 356.59" stroke="#242E35" stroke-width="2" stroke-linecap="round" stroke-linejoin="round"/>
<ellipse cx="104.244" cy="53.1" rx="9.40782" ry="4.52969" fill="#E0E5CD"/>
<ellipse cx="104.244" cy="339.516" rx="9.40782" ry="4.52969" fill="#E0E5CD"/>
<ellipse cx="104.244" cy="99.0938" rx="9.40782" ry="8.71095" fill="#E6C9C9"/>
<ellipse cx="104.244" cy="297.008" rx="9.40782" ry="8.71095" fill="#E6C9C9"/>
<circle cx="104.244" cy="163.904" r="9.40782" fill="#C5D5E4"/>
<circle cx="104.244" cy="232.197" r="9.40782" fill="#C5D5E4"/>
<path d="M141.179 175.403C141.179 164.811 138.74 162.859 135.604 162.859H73.2336C68.7039 162.859 65.2195 171.919 65.2195 180.281C65.2195 190.734 66.6133 232.895 63.4774 238.122C60.3414 243.349 55.8117 239.864 55.8117 221.397C55.8117 204.951 53 181.686 53 171.582C53 169.027 53.5 164.357 56.5 163.5C59.5 162.643 64.5 166 59.5 170C54.5 174 37.5 170 32.5 152" stroke="#242E35" stroke-width="2" stroke-linecap="round" stroke-linejoin="round"/>
<ellipse cx="200.088" cy="227.668" rx="4.66966" ry="7.33804" stroke="#242E35" stroke-width="2" stroke-linecap="round" stroke-linejoin="round"/>
<path d="M199.418 220.33C206.311 220.775 222.9 220.33 234.107 214.993C248.116 208.322 254.787 202.318 261.458 202.318" stroke="#242E35" stroke-width="2" stroke-linecap="round" stroke-linejoin="round"/>
<path d="M199.418 235.137C206.311 234.692 222.9 235.137 234.107 240.474C248.116 247.145 254.787 253.148 261.458 253.148" stroke="#242E35" stroke-width="2" stroke-linecap="round" stroke-linejoin="round"/>
<path d="M340.179 253.686H264.797M340.179 201.652H269.467" stroke="#242E35" stroke-width="2" stroke-linecap="round" stroke-linejoin="round"/>
<ellipse cx="236.111" cy="175.635" rx="4.66966" ry="7.33804" stroke="#242E35" stroke-width="2" stroke-linecap="round" stroke-linejoin="round"/>
<path d="M263.461 185.642C265.671 185.642 267.464 181.162 267.464 175.635C267.464 170.109 265.671 165.629 263.461 165.629" stroke="#242E35" stroke-width="2" stroke-linecap="round" stroke-linejoin="round"/>
<path d="M235.441 168.297C242.335 168.741 258.923 168.297 270.13 162.96C284.139 156.289 290.81 150.285 297.481 150.285" stroke="#242E35" stroke-width="2" stroke-linecap="round" stroke-linejoin="round"/>
<path d="M235.441 183.104C242.335 182.659 258.923 183.104 270.13 188.44C284.139 195.111 290.81 201.115 297.481 201.115" stroke="#242E35" stroke-width="2" stroke-linecap="round" stroke-linejoin="round"/>
<path d="M300.82 149.619H376.202C390.571 149.619 401.5 151.272 401.5 175.636C401.5 200 390.571 201.653 376.202 201.653H300.82" stroke="#242E35" stroke-width="2" stroke-linecap="round" stroke-linejoin="round"/>
<path d="M312.824 201.654C314.603 198.541 318.161 189.246 318.161 176.971C318.161 164.697 314.603 156.291 312.824 153.623" stroke="#242E35" stroke-width="2" stroke-linecap="round" stroke-linejoin="round"/>
<path d="M318.832 178.971H380.872C382.428 183.863 382.873 194.314 377.536 201.652" stroke="#242E35" stroke-width="2" stroke-linecap="round" stroke-linejoin="round"/>
<ellipse cx="266.802" cy="227.668" rx="4.66966" ry="7.33804" stroke="#242E35" stroke-width="2" stroke-linecap="round" stroke-linejoin="round"/>
<path d="M294.152 237.675C296.363 237.675 298.155 233.195 298.155 227.669C298.155 222.142 296.363 217.662 294.152 217.662" stroke="#242E35" stroke-width="2" stroke-linecap="round" stroke-linejoin="round"/>
<path d="M266.133 220.33C273.026 220.775 289.615 220.33 300.822 214.993C314.831 208.322 321.502 202.318 328.173 202.318" stroke="#242E35" stroke-width="2" stroke-linecap="round" stroke-linejoin="round"/>
<path d="M266.133 235.137C273.026 234.692 289.615 235.137 300.822 240.474C314.831 247.145 321.502 253.148 328.173 253.148" stroke="#242E35" stroke-width="2" stroke-linecap="round" stroke-linejoin="round"/>
<path d="M406.893 253.686H331.512M421.324 201.652H331.512" stroke="#242E35" stroke-width="2" stroke-linecap="round" stroke-linejoin="round"/>
<path d="M343.516 253.687C345.295 250.574 348.852 241.279 348.852 229.005C348.852 216.73 345.295 208.325 343.516 205.656" stroke="#242E35" stroke-width="2" stroke-linecap="round" stroke-linejoin="round"/>
<path d="M349.523 231.004H411.563C413.12 235.896 413.565 246.347 408.228 253.685" stroke="#242E35" stroke-width="2" stroke-linecap="round" stroke-linejoin="round"/>
<ellipse cx="167.795" cy="279.699" rx="4.66966" ry="7.33804" stroke="#242E35" stroke-width="2" stroke-linecap="round" stroke-linejoin="round"/>
<path d="M167.125 272.361C174.018 272.806 190.607 272.361 201.814 267.024C215.823 260.353 222.494 254.35 229.165 254.35" stroke="#242E35" stroke-width="2" stroke-linecap="round" stroke-linejoin="round"/>
<path d="M167.125 287.168C174.018 286.723 190.607 287.168 201.814 292.505C215.823 299.176 222.494 305.18 229.165 305.18" stroke="#242E35" stroke-width="2" stroke-linecap="round" stroke-linejoin="round"/>
<path d="M307.887 305.717H253.852M307.887 253.684H236.508" stroke="#242E35" stroke-width="2" stroke-linecap="round" stroke-linejoin="round"/>
<ellipse cx="233.943" cy="279.699" rx="4.66966" ry="7.33804" stroke="#242E35" stroke-width="2" stroke-linecap="round" stroke-linejoin="round"/>
<path d="M233.273 272.361C240.167 272.806 256.755 272.361 267.962 267.024C281.971 260.353 288.642 254.35 295.313 254.35" stroke="#242E35" stroke-width="2" stroke-linecap="round" stroke-linejoin="round"/>
<path d="M233.273 287.168C240.167 286.723 256.755 287.168 267.962 292.505C281.971 299.176 288.642 305.18 295.313 305.18" stroke="#242E35" stroke-width="2" stroke-linecap="round" stroke-linejoin="round"/>
<path d="M374.034 305.717H305.323M374.034 253.684H298.652" stroke="#242E35" stroke-width="2" stroke-linecap="round" stroke-linejoin="round"/>
<ellipse cx="300.334" cy="279.699" rx="4.66966" ry="7.33804" stroke="#242E35" stroke-width="2" stroke-linecap="round" stroke-linejoin="round"/>
<path d="M327.684 289.706C329.894 289.706 331.686 285.226 331.686 279.7C331.686 274.173 329.894 269.693 327.684 269.693" stroke="#242E35" stroke-width="2" stroke-linecap="round" stroke-linejoin="round"/>
<path d="M299.664 272.361C306.557 272.806 323.146 272.361 334.353 267.024C348.362 260.353 355.033 254.35 361.704 254.35" stroke="#242E35" stroke-width="2" stroke-linecap="round" stroke-linejoin="round"/>
<path d="M299.664 287.168C306.557 286.723 323.146 287.168 334.353 292.505C348.362 299.176 355.033 305.18 361.704 305.18" stroke="#242E35" stroke-width="2" stroke-linecap="round" stroke-linejoin="round"/>
<path d="M388.565 305.717H371.047M418.531 253.684H385.056" stroke="#242E35" stroke-width="2" stroke-linecap="round" stroke-linejoin="round"/>
<path d="M377.047 305.718C378.826 302.605 382.384 293.31 382.384 281.036C382.384 268.761 378.826 260.356 377.047 257.688" stroke="#242E35" stroke-width="2" stroke-linecap="round" stroke-linejoin="round"/>
<path d="M383.055 283.035H405.639" stroke="#242E35" stroke-width="2" stroke-linecap="round" stroke-linejoin="round"/>
<path d="M54 196H26" stroke="#242E35" stroke-width="2" stroke-linecap="round" stroke-linejoin="round"/>
<path d="M26 205L32.377 207L36.9321 205H41.9426L43.7646 207L47.8642 206.6V205H55" stroke="#242E35" stroke-width="2" stroke-linecap="round" stroke-linejoin="round"/>
<path d="M26 195.865V193C26 187.477 21.5228 183 16 183H11C5.47715 183 1 187.477 1 193V207C1 212.523 5.47715 217 11 217H16C21.5228 217 26 212.523 26 207V205.054" stroke="#242E35" stroke-width="2" stroke-linecap="round" stroke-linejoin="round"/>
<rect x="10" y="192" width="7" height="17" rx="3.5" stroke="#242E35" stroke-width="2" stroke-linecap="round" stroke-linejoin="round"/>
<g style="mix-blend-mode:multiply">
<path d="M327.24 98.7469C327.243 96.1598 328.309 93.6795 330.205 91.851C332.101 90.0225 334.67 88.9953 337.35 88.9953C334.669 88.9953 332.097 87.9669 330.201 86.1364C328.306 84.3058 327.24 81.8231 327.24 79.2344C327.242 80.5158 326.981 81.7849 326.474 82.969C325.967 84.1532 325.224 85.2293 324.286 86.1358C323.348 87.0423 322.234 87.7615 321.008 88.2521C319.782 88.7427 318.468 88.9953 317.141 88.9953C319.819 88.9953 322.388 90.0228 324.282 91.8515C326.176 93.6803 327.24 96.1606 327.24 98.7469Z" fill="#C5D5E4"/>
</g>
<g style="mix-blend-mode:multiply">
<path d="M378.195 32.2661C376.297 28.9712 375.832 25.0305 376.901 21.31C377.97 17.5895 380.486 14.3934 383.897 12.4243C380.484 14.3947 376.455 14.9753 372.697 14.0386C368.938 13.1019 365.758 10.7244 363.856 7.42928C364.799 9.05936 365.4 10.8661 365.625 12.746C365.85 14.6259 365.694 16.5421 365.167 18.3853C364.639 20.2285 363.75 21.9624 362.55 23.4879C361.35 25.0134 359.862 26.3006 358.173 27.2759C361.583 25.3074 365.608 24.7273 369.363 25.6632C373.117 26.599 376.295 28.9741 378.195 32.2661Z" fill="#C5D5E4"/>
</g>
<g style="mix-blend-mode:multiply">
<path d="M217.838 92.4738C217.838 89.9787 218.829 87.5858 220.593 85.8215C222.357 84.0572 224.75 83.066 227.245 83.066C224.75 83.066 222.357 82.0748 220.593 80.3105C218.829 78.5462 217.838 76.1533 217.838 73.6582C217.838 76.1533 216.846 78.5462 215.082 80.3105C213.318 82.0748 210.925 83.066 208.43 83.066C210.925 83.066 213.318 84.0572 215.082 85.8215C216.846 87.5858 217.838 89.9787 217.838 92.4738Z" fill="#C5D5E4"/>
</g>
<g style="mix-blend-mode:multiply">
<path d="M338.397 132.893C338.397 131.841 338.604 130.799 339.007 129.826C339.41 128.854 340 127.971 340.744 127.227C341.488 126.482 342.372 125.892 343.344 125.489C344.316 125.087 345.359 124.879 346.411 124.879C344.285 124.879 342.247 124.035 340.744 122.532C339.241 121.029 338.397 118.991 338.397 116.865C338.397 118.991 337.553 121.029 336.05 122.532C334.547 124.035 332.508 124.879 330.383 124.879C331.435 124.879 332.477 125.087 333.45 125.489C334.422 125.892 335.305 126.482 336.05 127.227C336.794 127.971 337.384 128.854 337.787 129.826C338.19 130.799 338.397 131.841 338.397 132.893Z" fill="#C5D5E4"/>
</g>
<g style="mix-blend-mode:multiply">
<path d="M262.08 154.496C262.08 148.859 264.283 143.452 268.205 139.466C272.127 135.48 277.446 133.241 282.992 133.241C277.446 133.241 272.127 131.002 268.205 127.016C264.283 123.03 262.08 117.623 262.08 111.986C262.08 117.621 259.878 123.025 255.959 127.011C252.04 130.997 246.724 133.238 241.18 133.241C246.724 133.245 252.04 135.485 255.959 139.471C259.878 143.457 262.08 148.861 262.08 154.496Z" fill="#C5D5E4"/>
</g>
<g style="mix-blend-mode:multiply">
<path d="M294.834 197.006C294.837 194.787 295.719 192.661 297.288 191.093C298.857 189.525 300.984 188.644 303.202 188.644C302.103 188.645 301.015 188.43 300 188.01C298.985 187.59 298.063 186.974 297.286 186.198C296.508 185.421 295.892 184.499 295.471 183.484C295.051 182.468 294.834 181.38 294.834 180.281C294.835 181.38 294.62 182.468 294.201 183.483C293.781 184.498 293.165 185.42 292.389 186.197C291.613 186.974 290.691 187.59 289.676 188.01C288.662 188.43 287.574 188.645 286.477 188.644C288.693 188.644 290.819 189.525 292.386 191.093C293.954 192.661 294.834 194.788 294.834 197.006Z" fill="#C5D5E4"/>
</g>
<path d="M411 72C401.557 61.2056 382.002 43.1385 376.002 49.0689C370.002 54.9994 397.649 60.1379 404.575 49.0689C411.5 38 391 26.4984 385.5 24.998" stroke="#242E35" stroke-width="2" stroke-linecap="round" stroke-linejoin="round"/>
</svg>
