<svg width="269" height="148" viewBox="0 0 269 148" fill="none" xmlns="http://www.w3.org/2000/svg">
<path d="M53.8223 69.2453C54.7625 67.6827 56.1696 66.455 57.8449 65.7358C59.2143 65.1222 60.7475 64.9764 62.2078 65.3211C63.8199 65.7402 65.1855 66.8074 66.3853 67.962C76.3437 77.565 77.2752 93.4036 85.7109 104.364C89.4696 109.246 94.5655 112.944 98.5183 117.678C102.471 122.411 105.281 128.896 103.202 134.701C100.942 141.03 93.1802 144.304 86.6228 142.79C80.0653 141.275 74.9127 135.899 72.1357 129.771C70.6436 126.477 69.6226 122.774 66.922 120.371C64.3435 118.077 60.6852 117.424 57.2319 117.437C53.7787 117.451 50.3298 118.027 46.8852 117.782C39.2501 117.237 32.0905 112.326 28.814 105.423C25.5374 98.5194 26.2791 89.8548 30.6857 83.5975C34.3069 78.4599 40.2841 75.1097 46.5187 74.5008C47.8797 74.3602 49.1896 73.9058 50.3456 73.1735C51.5015 72.4411 52.472 71.4506 53.1809 70.2798L53.8223 69.2453Z" fill="#F3DDC4"/>
<path d="M208.759 66.2948C208.512 63.5427 204.762 65.0377 202.786 63.7566C196.73 60.8385 197.404 66.0635 188.98 65.0093C184.313 64.3917 183.026 62.8268 181.868 62.2986C179.595 61.4933 177.699 62.6544 176.414 65.424C172.488 73.3094 174.108 87.8625 174.639 96.8959C174.892 99.9864 175.169 102.789 175.404 105.011C175.45 106.163 175.734 108.341 177.293 109.463C178.319 110.321 179.608 110.447 180.906 110.772C184.75 111.96 186.85 110.181 191.41 110.482C196.039 110.849 202.345 111.792 206.174 110.207C206.785 109.953 207.318 109.543 207.721 109.018C208.125 108.494 208.384 107.873 208.473 107.217C209.573 99.205 208.957 74.2239 208.759 66.2948Z" fill="#C0D5E5"/>
<path d="M125.846 29.4755C124.358 27.9194 124.221 26.2934 122.526 25.8045C119.553 24.9468 119.947 26.7627 116.837 28.0438C114.771 28.8319 112.607 29.3313 110.406 29.5279C104.845 29.9841 103.224 27.5331 100.761 28.9103C98.4709 30.1914 97.5525 33.6092 97.9823 36.1366C98.4186 38.7054 100.046 39.1419 102.369 42.2694C106.826 48.2714 104.769 51.9402 108.551 54.3933C111.034 55.9975 114.919 56.3576 116.824 54.7534C117.797 53.9394 117.657 53.1035 118.813 52.4116C120.432 51.4535 122.899 51.7568 124.467 52.9769C125.722 53.9459 125.606 54.5396 127.085 57.1455C127.897 58.5772 128.983 59.9828 130.543 60.5109C132.587 61.1984 134.945 60.0744 136.103 58.2455C137.543 55.9844 137.214 53.4985 136.921 51.9904C136.561 50.1309 135.798 48.8454 134.886 47.3394C133.174 44.5022 132.268 44.2555 131.483 43.2079C131.277 42.9073 131.092 42.5931 130.929 42.2673C129.805 39.9822 131.865 34.515 129.941 31.8763C128.867 30.4053 127.753 31.4703 125.846 29.4755Z" fill="#C0D5E5"/>
<path d="M45.6179 145.323H74.8692" stroke="#2A373F" stroke-width="1.5" stroke-miterlimit="10" stroke-linecap="round"/>
<path d="M91.6317 121.493C92.7224 129.327 93.6183 137.184 94.3192 145.064" stroke="#2A373F" stroke-width="1.5" stroke-miterlimit="10" stroke-linecap="round"/>
<path d="M123.778 135.262C125.466 136.75 128.477 136.266 129.613 134.323C130.486 132.835 130.268 130.984 130.285 129.26C130.303 127.536 130.817 125.537 132.403 124.86C134.803 123.839 137.556 126.639 139.977 125.681C141.435 125.104 142.089 123.321 141.871 121.774C141.653 120.227 140.791 118.858 139.94 117.549" stroke="#2A373F" stroke-width="1.5" stroke-miterlimit="10" stroke-linecap="round"/>
<path d="M137.478 118.132C138.021 118.804 138.509 119.557 138.666 120.406C138.824 121.255 138.588 122.224 137.899 122.748C137.081 123.372 135.896 123.204 134.969 122.759C134.042 122.314 133.237 121.633 132.288 121.231C131.479 120.897 130.475 120.814 129.788 121.358C129.046 121.945 128.942 123.012 128.889 123.957C128.789 125.784 128.636 127.683 127.713 129.263C126.791 130.843 124.856 131.995 123.11 131.419" stroke="#2A373F" stroke-width="1.5" stroke-miterlimit="10" stroke-linecap="round"/>
<path d="M140.045 117.51L137.573 118.038" stroke="#2A373F" stroke-width="1.5" stroke-miterlimit="10" stroke-linecap="round"/>
<path d="M107.258 110.154C114.302 120.522 117.922 132.839 117.609 145.371" stroke="#2A373F" stroke-width="1.5" stroke-miterlimit="10" stroke-linecap="round"/>
<path d="M82.0552 145.323H138.594" stroke="#2A373F" stroke-width="1.5" stroke-miterlimit="10" stroke-linecap="round"/>
<path d="M152.962 145.323H155.117H157.802" stroke="#2A373F" stroke-width="1.5" stroke-miterlimit="10" stroke-linecap="round"/>
<path d="M159.988 145.323H240.948V134.976H148.096V145.323H151.617" stroke="#2A373F" stroke-width="1.5" stroke-miterlimit="10" stroke-linecap="round"/>
<path d="M157.763 124.627H229.435V134.976H157.763V124.627Z" stroke="#2A373F" stroke-width="1.5" stroke-miterlimit="10" stroke-linecap="round"/>
<path d="M208.331 70.1835C208.55 69.5287 207.594 69.0071 206.988 69.3236C206.381 69.64 206.132 70.3668 205.965 71.0281C205.467 72.969 205.164 74.9548 205.061 76.9558C205.029 77.5713 205.011 78.2086 204.625 78.7346C204.538 78.8612 204.426 78.9692 204.296 79.052C204.167 79.1348 204.022 79.1909 203.87 79.2169C203.111 79.326 202.616 78.584 202.343 77.9074C201.305 75.3462 201.243 72.4928 202.169 69.8888C202.225 69.7262 202.332 69.5856 202.473 69.4872C202.614 69.3888 202.783 69.3377 202.955 69.341C203.127 69.3444 203.294 69.4022 203.431 69.5061C203.569 69.61 203.67 69.7546 203.72 69.9194C203.83 70.2732 203.842 70.6505 203.755 71.0106C203.691 71.2757 203.546 71.5143 203.341 71.6931C203.135 71.8719 202.878 71.982 202.607 72.0081C201.584 72.0823 201.623 70.8841 200.788 70.7749C200.586 70.7553 200.383 70.7979 200.206 70.897C200.029 70.996 199.886 71.1469 199.798 71.3293C199.429 72.0342 199.675 72.7894 199.867 73.5118C200.306 75.1569 200.454 76.8661 200.304 78.5622C200.256 79.1034 200.127 79.7233 199.571 79.9197C199.403 79.9738 199.224 79.9844 199.051 79.9504C198.879 79.9165 198.717 79.839 198.582 79.7254C198.026 79.2758 197.902 78.5752 197.793 77.9118L197.021 73.1779C196.938 72.665 196.802 72.0692 196.253 71.9273C196.089 71.8904 195.918 71.9001 195.76 71.9553C195.601 72.0104 195.461 72.1088 195.356 72.2394C194.92 72.7523 194.957 73.4223 195.003 74.0487L195.291 77.9118C195.358 78.8088 195.162 80.0397 194.213 80.0288C194.022 80.0228 193.835 79.9698 193.669 79.8747C193.504 79.7795 193.364 79.6451 193.262 79.4832C191.65 77.0383 190.685 74.2248 190.454 71.3053C190.435 71.086 190.491 70.8666 190.614 70.6838C190.736 70.501 190.918 70.366 191.128 70.3013C191.844 70.0984 192.245 70.9059 192.426 71.5563C192.806 72.9182 193.168 74.3259 193.011 75.7314C192.854 77.137 192.069 78.5687 190.751 79.075C189.093 79.7298 187.16 78.7018 186.181 77.2155C185.075 75.5372 184.894 73.418 184.628 71.4515C184.594 71.2289 184.622 71.0014 184.706 70.7929C184.791 70.5844 184.931 70.4025 185.11 70.2664C185.867 69.7164 186.659 70.4541 187.088 71.1394C188.489 73.4225 188.997 76.1433 188.513 78.7782C188.295 79.9721 187.686 81.3034 186.362 81.3841C186.063 81.395 185.766 81.3423 185.489 81.2294C185.212 81.1166 184.962 80.9461 184.756 80.7294C183.81 79.78 183.666 78.4639 183.565 77.2046C183.471 76.037 183.386 74.8235 182.68 73.8479C182.582 73.7089 182.456 73.5921 182.31 73.5056C182.165 73.419 182.002 73.3646 181.833 73.3459C181.089 73.2783 180.742 73.9701 180.655 74.5943C180.494 75.7445 180.899 76.8991 180.873 78.0602C180.847 79.2213 180.123 80.5635 178.962 80.5308C177.872 80.5024 177.217 79.3304 176.929 78.2872C176.273 75.9203 176.344 73.4105 177.134 71.0849C177.245 70.7429 177.458 70.4433 177.745 70.2271C178.631 69.5724 179.436 70.3079 179.617 71.087C179.701 71.4819 179.667 71.8928 179.521 72.2689C179.374 72.6451 179.121 72.9702 178.792 73.2041C178.411 73.459 177.956 73.5784 177.499 73.5432C177.042 73.508 176.61 73.3201 176.273 73.0098C176.146 72.8817 175.992 72.7826 175.823 72.7196C174.876 72.3813 174.541 73.4944 174.514 74.3062L174.353 78.2108C174.346 78.3794 174.302 78.5446 174.226 78.6951C174.15 78.8456 174.042 78.978 173.91 79.0833C173.778 79.1885 173.625 79.2643 173.461 79.3054C173.298 79.3466 173.127 79.3521 172.961 79.3217L172.512 79.2387" stroke="#2A373F" stroke-width="1.5" stroke-miterlimit="10" stroke-linecap="round"/>
<path d="M114.205 32.8717C114.986 32.6906 115.802 32.7313 116.561 32.9893C117.32 33.2473 117.992 33.7123 118.501 34.3319" stroke="#2A373F" stroke-width="1.5" stroke-miterlimit="10" stroke-linecap="round"/>
<path d="M120.809 35.7199C122.131 38.1577 123.464 40.6283 124.142 43.3194C124.821 46.0104 124.781 48.9939 123.446 51.4165C122.111 53.8391 119.289 55.5633 116.562 55.057C113.933 54.5768 111.064 52.1193 109.625 49.8669C107.417 46.4164 106.653 42.6166 107.018 38.5353C107.382 34.454 110.373 30.4076 114.435 29.9733C116.756 29.7245 119.092 30.6542 120.914 32.1143C122.735 33.5745 124.097 35.5256 125.277 37.5423C127.166 40.7899 128.662 44.594 127.772 48.2366C127.336 50.0721 126.3 51.7286 125.911 53.586C125.523 55.4433 126.04 57.7327 127.781 58.4704" stroke="#2A373F" stroke-width="1.5" stroke-miterlimit="10" stroke-linecap="round"/>
<path d="M127.94 58.6167C128.481 58.0885 129.225 57.5254 129.914 57.8244C130.425 58.0427 130.632 58.6604 130.732 59.2103C131.094 61.2008 130.785 63.2611 130.233 65.2079C129.681 67.1547 128.891 69.0251 128.269 70.9501C128.051 71.594 127.929 72.4342 128.487 72.8293C128.666 72.9364 128.87 72.993 129.079 72.993C129.287 72.993 129.491 72.9364 129.67 72.8293C130.022 72.6082 130.34 72.3361 130.612 72.0217C132.066 70.5546 133.891 69.5098 135.891 68.9989C136.528 68.8374 137.2 68.7349 137.835 68.9357C138.47 69.1364 139.004 69.7214 138.961 70.3783C138.929 70.623 138.84 70.8568 138.702 71.0611C138.564 71.2653 138.38 71.4344 138.164 71.5547C137.732 71.7929 137.266 71.9672 136.784 72.0719C135.411 72.4535 134.065 72.9252 132.754 73.484C132.259 73.6642 131.802 73.9384 131.411 74.2916C131.219 74.4722 131.078 74.6998 131.002 74.9516C130.925 75.2035 130.916 75.471 130.974 75.7276C131.065 75.9705 131.219 76.1851 131.419 76.3498C131.619 76.5146 131.859 76.6237 132.115 76.6661C132.627 76.7412 133.149 76.7002 133.642 76.5461C134.886 76.2231 136.061 75.6731 137.283 75.2868C138.505 74.9005 139.82 74.6451 141.072 74.9354C141.727 75.086 142.449 75.5378 142.42 76.2078C142.394 76.8015 141.801 77.1899 141.26 77.4366C139.627 78.1758 137.854 78.5525 136.061 78.5409C135.239 78.5409 134.39 78.4514 133.612 78.7221C132.833 78.9927 132.146 79.7566 132.303 80.5663C132.367 80.823 132.49 81.0613 132.662 81.2624C132.834 81.4635 133.05 81.6219 133.293 81.7252C133.78 81.9267 134.295 82.0511 134.82 82.0941L138.797 82.6222C139.545 82.7204 140.448 82.954 140.632 83.6851C140.815 84.4163 140.069 85.0885 139.334 85.298C137.469 85.8262 135.575 84.7698 133.714 84.2286C130.531 83.2988 127.013 83.9121 124.116 85.5184" stroke="#2A373F" stroke-width="1.5" stroke-miterlimit="10" stroke-linecap="round"/>
<path d="M124.362 85.2976C122.105 87.3167 120.445 89.9166 119.563 92.8142" stroke="#2A373F" stroke-width="1.5" stroke-miterlimit="10" stroke-linecap="round"/>
<path d="M128.651 59.2886C128.363 63.0534 127.244 67.5036 125.523 70.8559C124.997 71.8773 123.98 73.0275 122.927 72.5757C122.165 72.2484 121.956 71.2662 122.024 70.4325C122.261 67.5647 124.458 65.2992 125.719 62.7129C126.173 61.7832 126.328 60.3558 125.359 59.9957C124.487 59.6749 123.695 60.5872 123.282 61.41C121.166 65.6222 121.007 70.5023 120.433 75.1817C119.86 79.861 118.636 84.824 115.082 87.921" stroke="#2A373F" stroke-width="1.5" stroke-miterlimit="10" stroke-linecap="round"/>
<path d="M115.1 87.8713L118.747 93.7466" stroke="#2A373F" stroke-width="1.5" stroke-miterlimit="10" stroke-linecap="round"/>
<path d="M139.158 86.3596C140.97 89.5627 142.301 93.0154 143.108 96.6065C143.39 97.8549 143.597 99.2016 143.108 100.38C142.883 100.91 142.526 101.373 142.071 101.725C141.615 102.077 141.077 102.307 140.508 102.391C139.939 102.476 139.358 102.413 138.82 102.208C138.282 102.003 137.806 101.664 137.437 101.223C137.202 100.956 137.025 100.644 136.917 100.306C136.808 99.9682 136.772 99.6114 136.808 99.2583C136.855 98.9046 137.009 98.5737 137.25 98.3103C137.491 98.0469 137.806 97.8636 138.154 97.7851C139.291 97.5974 140.181 98.7345 140.678 99.7756C141.306 101.089 141.767 102.476 142.048 103.905C142.417 105.786 142.345 108.028 140.864 109.241C139.908 110.025 138.551 110.177 137.345 109.911C136.139 109.645 135.048 109.008 134.007 108.34C128.684 104.918 124.099 100.465 120.521 95.2447" stroke="#2A373F" stroke-width="1.5" stroke-miterlimit="10" stroke-linecap="round"/>
<path d="M88.5098 84.9421L90.3639 103.766" stroke="#2A373F" stroke-width="1.5" stroke-miterlimit="10" stroke-linecap="round"/>
<path d="M135.763 78.5735C136.462 79.7427 136.951 81.0248 137.209 82.3624" stroke="#2A373F" stroke-width="1.5" stroke-miterlimit="10" stroke-linecap="round"/>
<path d="M133.442 73.2107L134.473 76.2182" stroke="#2A373F" stroke-width="1.5" stroke-miterlimit="10" stroke-linecap="round"/>
<path d="M130.558 67.3359L132.154 70.7167" stroke="#2A373F" stroke-width="1.5" stroke-miterlimit="10" stroke-linecap="round"/>
<path d="M118.655 93.6963C115.756 100.857 110.726 107.025 104.827 112.014C98.9283 117.003 92.1745 120.88 85.2374 124.286C79.9539 126.884 74.3432 129.271 68.4576 129.256C61.1169 129.239 54.0424 125.29 49.6032 119.435C45.1639 113.579 43.2616 106.023 43.6805 98.7008C43.9226 94.5169 44.9894 90.1758 47.8253 87.0985C50.5172 84.187 54.4787 82.7662 58.3945 82.1289C62.3102 81.4916 66.3066 81.5309 70.2376 80.9984C72.4846 80.695 74.8733 80.1101 76.3567 78.3924C78.0604 76.4282 78.08 73.4119 77.0875 71.0024C76.0949 68.5929 74.2646 66.6374 72.4715 64.7473" stroke="#2A373F" stroke-width="1.5" stroke-miterlimit="10" stroke-linecap="round"/>
<path d="M88.0539 123.156C87.5742 126.648 87.9731 130.206 89.2144 133.505C89.8449 133.086 90.3881 132.473 90.5233 131.729C90.6586 130.984 90.2921 130.122 89.5787 129.869C88.7651 129.581 87.851 130.181 87.4846 130.96C87.1181 131.74 87.1595 132.65 87.2075 133.514L87.5784 140.149C87.6198 140.897 87.6809 141.698 88.1543 142.277C88.6276 142.855 89.6813 143.006 90.0718 142.373C90.508 141.687 89.6856 140.727 88.885 140.845C88.0845 140.963 87.5522 141.803 87.5042 142.613C87.4562 143.423 87.7747 144.202 88.0866 144.948" stroke="#2A373F" stroke-width="1.5" stroke-miterlimit="10" stroke-linecap="round"/>
<path d="M168.07 114.278H217.506V124.627H168.07V114.278Z" stroke="#2A373F" stroke-width="1.5" stroke-miterlimit="10" stroke-linecap="round"/>
<path d="M160.588 97.8514L162.121 93.757L158.613 96.6815L153.277 92.5129L157.006 98.5105L155.69 104.139L159.124 100.337L163.29 103.044L160.588 97.8514Z" stroke="#2A373F" stroke-width="1.5" stroke-miterlimit="10" stroke-linecap="round"/>
<path d="M115.508 88.4969C112.982 90.8606 110.536 93.0344 107.984 95.0248C102.312 99.4488 96.4987 103.954 89.6598 106.186C82.8209 108.419 74.6644 107.969 69.2805 103.207C68.6937 102.69 68.1266 102.09 67.939 101.33C67.7514 100.571 68.0895 99.6343 68.8355 99.403C69.6514 99.1498 70.5392 99.9377 70.5589 100.791C70.5785 101.644 69.9045 102.41 69.1104 102.709C67.1471 103.441 64.9656 101.599 64.6253 99.5317C64.285 97.4649 65.2296 95.4111 66.3269 93.6389C68.0284 90.8693 70.2775 88.2656 73.3075 87.0739C76.3376 85.8823 80.2337 86.4934 82.1119 89.1451C82.7293 90.0181 83.0979 91.0483 83.6804 91.9453C84.2628 92.8423 85.1725 93.6389 86.2436 93.6608C87.3147 93.6826 88.3662 92.5346 87.9342 91.5546C87.535 90.6489 86.1454 90.5507 85.419 91.2207C84.6926 91.8907 84.5617 93.0169 84.7951 93.9772C85.0285 94.9375 85.5652 95.7909 86.0124 96.6726C86.7374 98.097 87.2448 99.6221 87.5176 101.197C87.7357 102.434 87.5394 104.087 86.3221 104.392C85.3121 104.643 84.3021 103.373 84.7755 102.445C85.2489 101.518 86.8697 101.592 87.258 102.559" stroke="#2A373F" stroke-width="1.5" stroke-miterlimit="10" stroke-linecap="round"/>
<path d="M117.63 75.791C110.457 82.655 105.32 90.5099 101.642 98.3277" stroke="#2A373F" stroke-width="1.5" stroke-miterlimit="10" stroke-linecap="round"/>
<path d="M85.1894 74.9265C87.5344 75.0553 89.356 77.1439 90.1348 79.3636C90.9135 81.5832 90.931 83.9818 91.3498 86.2952C91.888 89.1628 93.0348 91.8815 94.7129 94.2678C96.3909 96.6541 98.5611 98.6525 101.077 100.128" stroke="#2A373F" stroke-width="1.5" stroke-miterlimit="10" stroke-linecap="round"/>
<path d="M87.0023 75.4438C88.5424 75.8977 89.5808 78.8834 88.8086 80.2933C88.0363 81.7032 86.313 82.3776 84.7096 82.3252C83.1062 82.2729 81.5857 81.6247 80.1285 80.9306C74.43 78.2044 69.1427 74.6904 64.4219 70.4916C63.6235 69.7801 62.7771 69.0184 61.7213 68.8569C60.6655 68.6954 59.4024 69.468 59.5049 70.5331C59.6271 71.7902 61.6515 72.0718 62.3823 71.0416C63.1131 70.0115 62.6266 68.4772 61.6427 67.6849C60.3993 66.6788 58.3007 66.7421 57.3758 68.0494C56.5163 69.2651 56.9177 70.9871 57.7183 72.2442C58.5189 73.5013 59.6642 74.5184 60.3949 75.8148C60.8934 76.7172 61.1785 77.7219 61.2284 78.7518C61.2783 79.7816 61.0917 80.8092 60.6829 81.7556" stroke="#2A373F" stroke-width="1.5" stroke-miterlimit="10" stroke-linecap="round"/>
<path d="M84.9503 71.3364C83.3666 74.4378 83.4866 77.7225 84.8543 80.9264" stroke="#2A373F" stroke-width="1.5" stroke-miterlimit="10" stroke-linecap="round"/>
<path d="M52.3462 65.7383C51.2555 66.2293 50.4789 66.6637 49.3816 67.1547" stroke="#2A373F" stroke-width="1.5" stroke-miterlimit="10" stroke-linecap="round"/>
<path d="M246.631 145.324H267.7C267.7 145.324 262.146 83.3553 214.662 61.6829" stroke="#2A373F" stroke-width="1.5" stroke-miterlimit="10" stroke-linecap="round"/>
<path d="M221.466 95.5862C219.808 95.5862 218.464 94.2416 218.464 92.583C218.464 90.9244 219.808 89.5798 221.466 89.5798C223.124 89.5798 224.468 90.9244 224.468 92.583C224.468 94.2416 223.124 95.5862 221.466 95.5862Z" stroke="#2A373F" stroke-width="1.5" stroke-miterlimit="10" stroke-linecap="round"/>
<path d="M242.776 70.9826C240.032 70.9826 237.807 68.7567 237.807 66.0108C237.807 63.265 240.032 61.0391 242.776 61.0391C245.521 61.0391 247.746 63.265 247.746 66.0108C247.746 68.7567 245.521 70.9826 242.776 70.9826Z" stroke="#2A373F" stroke-width="1.5" stroke-miterlimit="10" stroke-linecap="round"/>
<path d="M123.961 55.9844C125.706 58.3371 126.865 60.6179 128.071 63.2915" stroke="#2A373F" stroke-width="1.5" stroke-miterlimit="10" stroke-linecap="round"/>
<path d="M11.6698 53.3347C12.6253 54.247 13.0572 55.5652 13.7596 56.6849C14.4621 57.8045 15.723 58.8128 16.9948 58.4702C18.0855 58.1733 18.6919 57.0363 19.1762 56.017C19.8307 54.6682 20.5353 53.2932 21.6849 52.3351C22.8345 51.377 24.547 50.9361 25.8537 51.6651C26.9444 52.2674 27.4876 53.4831 28.0351 54.5918C29.0568 56.6323 30.3005 58.5536 31.7436 60.3209C33.1027 61.9884 34.9809 63.6406 37.11 63.3437C39.2391 63.0469 40.6003 60.9299 42.4393 59.771C43.453 59.1289 44.6252 58.7817 45.8249 58.7683C47.0246 58.755 48.2042 59.0759 49.2319 59.6952C50.2596 60.3145 51.0948 61.2078 51.6439 62.275C52.193 63.3422 52.4344 64.5413 52.341 65.738" stroke="#2A373F" stroke-width="1.5" stroke-miterlimit="10" stroke-linecap="round"/>
<path d="M21.3087 59.9978V145.323" stroke="#2A373F" stroke-width="1.5" stroke-miterlimit="10" stroke-linecap="round"/>
<path d="M49.2888 67.0828C49.6674 66.4276 49.7951 65.6572 49.6482 64.9148C49.5013 64.1725 49.0899 63.5089 48.4904 63.0474C47.891 62.5859 47.1444 62.3581 46.3896 62.4062C45.6347 62.4544 44.9231 62.7753 44.3871 63.3092C43.2964 64.3895 43.1371 66.1072 42.2231 67.3381C40.96 69.0383 38.4492 69.4311 36.4597 68.7109C34.4702 67.9907 32.9257 66.3865 31.6757 64.6754C30.4257 62.9643 29.3917 61.0939 27.9912 59.505C27.3368 58.7674 26.5645 58.0689 25.5916 57.8747C24.6187 57.6805 23.4712 58.189 23.2574 59.1471" stroke="#2A373F" stroke-width="1.5" stroke-miterlimit="10" stroke-linecap="round"/>
<path d="M72.6116 64.6182C76.0817 67.1177 79.8235 69.216 83.7654 70.8733C84.878 71.3404 86.0363 71.7791 87.2427 71.7922C88.449 71.8053 89.7252 71.3142 90.3578 70.2862C91.2565 68.8174 90.5759 66.923 89.8212 65.3734C89.0664 63.8238 88.244 62.0407 88.9202 60.4562C89.3107 59.5417 90.1527 58.8695 90.5105 57.9397C90.9621 56.7677 90.5585 55.4648 90.4952 54.212C90.432 52.9592 91.0166 51.4184 92.2666 51.3114C92.8425 51.2634 93.438 51.5428 93.9856 51.3594C94.6793 51.1259 94.9389 50.2224 94.7404 49.5174C94.5418 48.8124 94.0205 48.2515 93.5536 47.6863C90.6327 44.1506 89.3849 39.5695 88.0214 35.1892L83.0957 25.1758C80.961 21.4273 78.2355 18.0482 75.0243 15.1689C74.0252 14.2719 72.9563 13.4098 71.7019 12.9318C70.4476 12.4539 68.9664 12.4037 67.8102 13.0912C66.3072 13.986 65.6963 15.9022 65.7531 17.6504C65.8098 19.3986 66.3944 21.0835 66.726 22.8034C66.9441 23.8946 67.0379 25.0404 66.6475 26.0771C66.257 27.1138 65.2448 27.9759 64.1453 27.8865C62.1209 27.7206 61.3923 24.8178 59.4443 24.2395C57.8998 23.7811 56.279 25.1125 55.847 26.6621C55.4151 28.2116 55.847 29.866 56.3597 31.3959C58.2016 36.9583 60.9559 42.1752 64.5096 46.8329C65.0201 47.5051 65.5611 48.1861 65.7814 49.0001C66.0017 49.8142 65.8076 50.8073 65.0986 51.2656C64.3896 51.7239 63.2073 51.2656 63.2007 50.4253C62.1624 50.5279 61.7544 51.9531 62.1973 52.9068C62.6401 53.8606 63.5738 54.4521 64.3591 55.1396C66.3857 56.9118 67.5702 59.4871 68.1352 62.1236C68.7002 64.7601 68.698 67.4708 68.6937 70.1618" stroke="#2A373F" stroke-width="1.5" stroke-miterlimit="10" stroke-linecap="round"/>
<path d="M90.761 52.7961C92.2082 54.5779 94.1639 55.876 96.3674 56.5173C96.6806 56.5728 96.9718 56.7158 97.2073 56.9298C97.4254 57.1699 97.408 57.6173 97.1156 57.7396C97.0044 57.7753 96.8865 57.785 96.771 57.7679L92.6632 57.4711" stroke="#2A373F" stroke-width="1.5" stroke-miterlimit="10" stroke-linecap="round"/>
<path d="M74.4337 70.0527C72.5926 67.8091 70.662 65.3341 70.5704 62.4313C70.5202 60.8403 71.0306 59.1707 70.4242 57.6996C69.9879 56.6324 68.9757 55.7354 69.0302 54.5808C69.0804 53.4896 70.0599 52.706 70.9499 52.0753L77.7364 47.2738C78.4956 46.7369 79.3006 46.1825 80.2255 46.0865C81.1504 45.9904 82.2128 46.5426 82.3372 47.4658C82.4768 48.5003 81.0828 49.3581 80.2211 48.7753C79.3595 48.1926 79.6583 46.5754 80.6749 46.3331" stroke="#2A373F" stroke-width="1.5" stroke-miterlimit="10" stroke-linecap="round"/>
<path d="M90.6737 52.6956C88.1901 54.4555 85.3667 55.6775 82.3841 56.2836C82.0349 56.3269 81.6985 56.4421 81.3959 56.6219C81.247 56.7147 81.1324 56.8536 81.0694 57.0174C81.0065 57.1812 80.9985 57.3611 81.0469 57.5298C81.1756 57.855 81.5508 57.9925 81.8889 58.0798C84.101 58.6458 86.4284 58.5701 88.5991 57.8616" stroke="#2A373F" stroke-width="1.5" stroke-miterlimit="10" stroke-linecap="round"/>
<path d="M67.1597 63.6825C66.0107 60.3439 63.8187 57.4637 60.9076 55.4674C59.7383 54.6708 58.436 54.0008 57.5634 52.8877C56.6908 51.7746 56.4029 50.0199 57.3932 49.0072C57.9779 48.4092 58.8505 48.2128 59.6707 48.0447L73.9419 45.1201" stroke="#2A373F" stroke-width="1.5" stroke-miterlimit="10" stroke-linecap="round"/>
<path d="M53.4871 49.4848C51.7179 49.3255 49.495 48.7624 49.2376 47.0033C49.0085 45.4362 50.5814 44.2577 51.9644 43.4872C65.4123 36.0073 80.0253 30.8511 95.188 28.2358C96.366 28.0328 97.9127 28.0328 98.3708 29.1394C98.8551 30.3048 97.6247 31.4201 96.5514 32.0879L84.2589 39.753" stroke="#2A373F" stroke-width="1.5" stroke-miterlimit="10" stroke-linecap="round"/>
<path d="M83.6656 43.3017C79.384 42.6508 75.0506 42.4052 70.7229 42.5684" stroke="#2A373F" stroke-width="1.5" stroke-miterlimit="10" stroke-linecap="round"/>
<path d="M84.2799 42.1824C83.9579 42.5238 83.7439 42.9528 83.6647 43.4155" stroke="#2A373F" stroke-width="1.5" stroke-miterlimit="10" stroke-linecap="round"/>
<path d="M70.727 42.8089L71.2549 40.4299" stroke="#2A373F" stroke-width="1.5" stroke-miterlimit="10" stroke-linecap="round"/>
<path d="M71.348 40.2988L84.2186 42.1671" stroke="#2A373F" stroke-width="1.5" stroke-miterlimit="10" stroke-linecap="round"/>
<path d="M54.2388 32.8713H21.3074V49.0482" stroke="#2A373F" stroke-width="1.5" stroke-miterlimit="10" stroke-linecap="round"/>
<path d="M106.659 32.8713H98.6228" stroke="#2A373F" stroke-width="1.5" stroke-miterlimit="10" stroke-linecap="round"/>
<path d="M138.594 60.3951V32.8713H124.267" stroke="#2A373F" stroke-width="1.5" stroke-miterlimit="10" stroke-linecap="round"/>
<path d="M169.139 54.6833C153.651 55.9034 141.299 59.8865 131.43 65.5065" stroke="#2A373F" stroke-width="1.5" stroke-miterlimit="10" stroke-linecap="round"/>
<path d="M79.3548 55.2752C76.2572 55.2752 73.7462 52.763 73.7462 49.664C73.7462 46.565 76.2572 44.0527 79.3548 44.0527C82.4523 44.0527 84.9633 46.565 84.9633 49.664C84.9633 52.763 82.4523 55.2752 79.3548 55.2752Z" stroke="#2A373F" stroke-width="1.5" stroke-miterlimit="10" stroke-linecap="round"/>
<path d="M155.189 43.928C152.137 43.928 149.663 41.4529 149.663 38.3997C149.663 35.3465 152.137 32.8713 155.189 32.8713C158.24 32.8713 160.714 35.3465 160.714 38.3997C160.714 41.4529 158.24 43.928 155.189 43.928Z" stroke="#2A373F" stroke-width="1.5" stroke-miterlimit="10" stroke-linecap="round"/>
<path d="M221.501 26.3501L219.346 31.7933L223.283 37.7057L216.344 34.0457L212.592 37.7057L214.468 31.5118L210.434 26.3501L216.859 29.6348L221.501 26.3501Z" stroke="#2A373F" stroke-width="1.5" stroke-miterlimit="10" stroke-linecap="round"/>
<path d="M60.853 21.7344H1.48653V145.324" stroke="#2A373F" stroke-width="1.5" stroke-miterlimit="10" stroke-linecap="round"/>
<path d="M11.9932 82.1987V119.452" stroke="#2A373F" stroke-width="1.5" stroke-miterlimit="10" stroke-linecap="round"/>
<path d="M44.2575 106.571C44.2575 106.571 44.0677 111.857 46.332 119.788C48.5964 127.719 50.8629 146.598 37.0848 145.655C23.3067 144.712 24.2534 132.997 29.1595 132.997C34.0656 132.997 34.8314 151.878 8.59051 145.836" stroke="#2A373F" stroke-width="1.5" stroke-miterlimit="10" stroke-linecap="round"/>
<path d="M103.3 32.8718V21.7344H85.5582" stroke="#2A373F" stroke-width="1.5" stroke-miterlimit="10" stroke-linecap="round"/>
<path d="M164.288 8.42773L165.695 4.6738L162.131 7.67695L155.848 1.67065L159.692 10.2109L158.474 19.0304L162.506 11.5247L169.166 14.2463L164.288 8.42773Z" stroke="#2A373F" stroke-width="1.5" stroke-miterlimit="10" stroke-linecap="round"/>
<path d="M202.367 46.6563C200.701 45.5651 200.033 42.4877 200.502 40.5453C200.971 38.6028 201.894 36.7215 201.75 34.7332C201.612 32.817 200.487 30.9269 201.004 29.0783C201.479 27.3891 203.222 26.2411 203.55 24.519C203.842 22.9913 202.928 21.5115 202.282 20.0864C201.144 17.5654 200.778 14.764 201.228 12.035C201.527 10.2563 202.171 8.44043 201.711 6.6966C201.039 4.1627 198.305 2.78117 195.753 2.17661C193.201 1.57205 190.448 1.38872 188.279 -0.0822988C187.315 -0.737054 186.523 -1.61006 185.6 -2.32156C184.678 -3.03306 183.541 -3.58742 182.385 -3.43683C181.229 -3.28624 180.23 -2.40668 179.678 -1.36125C179.126 -0.315828 178.956 0.882375 178.851 2.05875C178.622 4.90719 178.853 7.77394 179.536 10.5487C179.868 11.891 180.304 13.2136 180.452 14.5864C180.601 15.9592 180.435 17.4237 179.652 18.563C178.711 19.927 177.001 20.6691 176.257 22.1488C175.404 23.8425 176.105 25.8831 176.925 27.592C177.745 29.3009 178.716 31.1255 178.36 32.9872C178.068 34.5281 176.925 35.7416 176.137 37.0969C175.307 38.5674 174.873 40.2287 174.878 41.9178C174.883 43.6068 175.328 45.2654 176.168 46.7305" stroke="#2A373F" stroke-width="1.5" stroke-miterlimit="10" stroke-linecap="round"/>
<path d="M185.533 41.1606C185.533 41.73 185.402 42.2917 185.15 42.8023C184.898 43.3129 184.532 43.7585 184.08 44.1049C184.08 44.1049 177.455 48.3346 176.495 48.9872C174.558 50.3076 172.597 51.7175 172.597 54.1794" stroke="#2A373F" stroke-width="1.5" stroke-miterlimit="10" stroke-linecap="round"/>
<path d="M185.533 41.1604V15.7122C185.533 15.5329 185.589 15.3582 185.694 15.2128C185.799 15.0675 185.947 14.9589 186.117 14.9025C189.608 13.748 194.189 14.6057 195.801 14.9724C195.969 15.0119 196.119 15.1081 196.224 15.2448C196.33 15.3815 196.385 15.5504 196.381 15.7231L195.709 41.0403C195.695 41.5779 195.827 42.1093 196.092 42.5775C196.356 43.0458 196.743 43.4333 197.21 43.6987L204.027 47.6097C204.027 47.6097 207.422 49.6067 208.229 50.2593C209.861 51.5688 211.512 52.9896 211.512 55.4515L211.549 55.517V108.871C211.549 109.581 211.41 110.284 211.138 110.939C210.867 111.595 210.469 112.191 209.968 112.693C209.466 113.195 208.871 113.594 208.215 113.865C207.56 114.137 206.857 114.277 206.148 114.277H178.007C176.574 114.277 175.199 113.707 174.186 112.693C173.173 111.68 172.603 110.305 172.603 108.871V54.1791" stroke="#2A373F" stroke-width="1.5" stroke-miterlimit="10" stroke-linecap="round"/>
<path d="M209.573 82.33V66.9934" stroke="#2A373F" stroke-width="1.5" stroke-miterlimit="10" stroke-linecap="round"/>
<path d="M209.573 64.5507V61.6829" stroke="#2A373F" stroke-width="1.5" stroke-miterlimit="10" stroke-linecap="round"/>
<path d="M194.202 40.4756V43.3347" stroke="#2A373F" stroke-width="1.5" stroke-miterlimit="10" stroke-linecap="round"/>
<path d="M114.43 37.9327L110.866 36.4661C110.866 36.4661 107.858 47.3612 116.101 50.9645L118.719 48.1534C118.719 48.1534 112.133 45.4275 114.43 37.9327Z" stroke="#2A373F" stroke-width="1.5" stroke-miterlimit="10" stroke-linecap="round"/>
<path d="M194.202 27.4871V38.3691" stroke="#2A373F" stroke-width="1.5" stroke-miterlimit="10" stroke-linecap="round"/>
<path d="M194.357 24.9466C194.357 24.9466 193.17 24.2744 186.85 24.7654" stroke="#2A373F" stroke-width="1.5" stroke-miterlimit="10" stroke-linecap="round"/>
<path d="M196.189 23.3012C196.189 23.3012 188.862 22.4282 185.542 23.2117" stroke="#2A373F" stroke-width="1.5" stroke-miterlimit="10" stroke-linecap="round"/>
<path d="M195.467 14.9007V12.0897C195.467 11.8813 195.385 11.6814 195.237 11.5341C195.09 11.3867 194.89 11.304 194.682 11.304H187.047C186.822 11.3045 186.607 11.3942 186.448 11.5534C186.29 11.7125 186.2 11.9282 186.2 12.153V14.9029" stroke="#2A373F" stroke-width="1.5" stroke-miterlimit="10" stroke-linecap="round"/>
</svg>
