<svg width="247" height="138" viewBox="0 0 247 138" fill="none" xmlns="http://www.w3.org/2000/svg">
<path d="M170.808 115.348C171.114 115.252 171.396 115.092 171.634 114.878C171.873 114.663 172.062 114.4 172.188 114.106C173.47 111.091 176.959 109.087 180.225 109.649C183.804 110.273 186.587 113.899 186.252 117.505C185.997 120.264 184.149 122.691 181.845 124.242C179.541 125.793 176.812 126.587 174.101 127.199C166.292 128.96 158.125 129.41 150.26 127.91C147.405 127.364 144.531 126.533 142.196 124.808C141.433 124.242 140.719 123.565 140.312 122.707C139.905 121.848 139.865 120.781 140.366 119.981C140.867 119.181 141.876 118.766 142.838 118.706C143.799 118.646 144.75 118.876 145.694 119.074C148.023 119.566 150.521 119.869 152.734 118.989C154.425 118.321 155.778 117.019 157.328 116.07C158.821 115.169 160.485 114.588 162.216 114.364C163.947 114.141 165.705 114.279 167.379 114.77C168.168 115.007 168.945 115.325 169.754 115.439C170.083 115.487 170.418 115.459 170.734 115.357L170.808 115.348Z" fill="#DEE5C8"/>
<path d="M110.644 57.9247C110.576 57.9188 110.507 57.9378 110.452 57.9782C109.083 59.0546 107.875 58.892 106.477 58.1565C106.117 57.9671 105.775 57.7108 105.343 57.7308C105.235 57.7317 105.13 57.7583 105.035 57.8083C104.94 57.8584 104.858 57.9304 104.797 58.0183C104.555 58.395 104.851 58.8318 104.974 59.2419C105.276 60.2381 104.448 61.2989 103.45 61.6042C102.453 61.9095 101.372 61.651 100.388 61.31C99.8221 61.1139 99.1421 60.9044 98.6903 61.339C98.5869 61.4429 98.5078 61.5684 98.4587 61.7063C98.4096 61.8442 98.3916 61.9912 98.4062 62.1368C98.4509 62.7185 98.8334 63.1576 99.2226 63.5543C100.366 64.7154 101.73 65.7093 103.294 66.1818C104.857 66.6543 106.649 66.5562 108.018 65.687C109.24 64.9159 110.049 63.6189 110.501 62.2505C110.953 60.8821 111.004 60.2715 111.159 58.5688C111.173 58.416 111.128 58.2634 111.032 58.1433C110.936 58.0232 110.797 57.9448 110.644 57.9247Z" fill="#F3C6C7"/>
<path d="M29.5362 46.8356C29.5787 46.898 29.6526 47.0807 29.6704 47.1119C31.8335 50.5507 30.4109 53.9873 29.6056 57.9787C28.8003 61.9702 27.617 66.0998 28.458 70.1047C28.7086 71.2903 29.0821 72.6832 28.2746 73.588C27.5006 74.4572 26.1406 74.3101 24.9819 74.426C21.8211 74.7469 19.4813 77.4168 17.6001 79.9619C15.7188 82.507 13.6698 85.3106 10.5985 86.1129C9.50916 86.4004 8.2945 86.3982 7.34605 85.7073C6.97703 85.4452 6.69443 85.0799 6.53405 84.6576C6.05759 83.3494 6.98145 82.2307 8.02608 81.5688C8.87611 81.0294 9.84917 80.6773 10.6299 80.0399C12.7191 78.3372 12.6431 74.6399 10.4643 73.0376C9.50245 72.3244 8.12226 71.8163 7.96344 70.6306C7.78673 69.3068 9.30558 68.4466 10.5806 68.0321C11.8937 67.6064 13.2381 67.2275 14.4371 66.5433C15.6361 65.8592 16.6964 64.8095 17.0587 63.4812C17.5956 61.5156 16.3877 59.3293 14.5556 58.4178C13.7593 58.0211 12.6833 57.5553 12.7907 56.675C12.9093 55.7234 14.229 55.6052 15.1887 55.6832C17.137 55.8392 19.2285 55.6676 20.81 54.5177C22.3915 53.3677 23.1789 50.992 22.0649 49.3918C21.0919 47.9945 19.1927 47.6981 17.5665 47.1833C15.9403 46.6684 14.1686 45.3446 14.5064 43.6776C14.7502 42.4786 15.994 41.761 17.1706 41.4133C21.8234 40.036 27.2993 42.3939 29.4736 46.7108C29.4866 46.7347 29.4963 46.7601 29.5027 46.7866L29.5362 46.8356Z" fill="#F3C6C7"/>
<path d="M155.911 40.5319C155.848 40.038 155.611 39.5824 155.242 39.2461C154.874 38.9099 154.397 38.7148 153.898 38.6956C153.19 38.6859 152.494 38.8709 151.885 39.2304C151.142 39.6578 150.47 40.1976 149.894 40.8306C149.017 41.8825 147.97 42.9723 146.608 43.1216C144.91 43.3066 143.322 41.9605 141.624 42.1477C139.611 42.3706 138.474 44.5992 138.242 46.605C137.871 49.8298 139.244 53.5137 142.255 54.7506C144.407 55.642 146.952 55.1027 148.907 53.8391C150.863 52.5755 152.308 50.6744 153.547 48.7132C155.406 45.7715 156.406 42.6737 155.911 40.5319Z" fill="#DEE5C8"/>
<path d="M212.223 21.8219C212.068 21.7191 211.946 21.5736 211.872 21.4029C211.534 20.6318 211.154 19.8607 210.53 19.3147C209.825 18.7041 208.707 18.4634 207.957 19.0183C207.3 19.5064 206.991 20.5204 206.168 20.6296C205.345 20.7388 204.797 19.8451 204.486 19.0696C204.175 18.294 203.669 17.3981 202.846 17.4516C201.504 17.5407 201.332 20.0257 200.025 20.0569C199.805 20.0531 199.59 19.9845 199.409 19.8595C199.227 19.7346 199.087 19.559 199.005 19.3548C198.757 18.7776 198.9 18.1492 199.133 17.5898C200.227 14.9444 203.356 13.449 206.201 13.8479C209.206 14.2669 211.771 16.5223 213.026 19.2635C213.273 19.7976 213.323 20.4016 213.165 20.9684C212.999 21.5523 212.753 22.0961 212.223 21.8108V21.8219Z" fill="#F3C6C7"/>
<path d="M1.71832 136.869H13.3212" stroke="#2A373F" stroke-width="1.5" stroke-miterlimit="10" stroke-linecap="round"/>
<path d="M80.2558 136.869H18.0807" stroke="#2A373F" stroke-width="1.5" stroke-miterlimit="10" stroke-linecap="round"/>
<path d="M193.603 136.869H84.7191" stroke="#2A373F" stroke-width="1.5" stroke-miterlimit="10" stroke-linecap="round"/>
<path d="M157.318 133.982H149.285" stroke="#2A373F" stroke-width="1.5" stroke-miterlimit="10" stroke-linecap="round"/>
<path d="M160.82 133.982H189.613" stroke="#2A373F" stroke-width="1.5" stroke-miterlimit="10" stroke-linecap="round"/>
<path d="M123.14 136.868V131.091" stroke="#2A373F" stroke-width="1.5" stroke-miterlimit="10" stroke-linecap="round"/>
<path d="M159.168 76.6306C161.143 75.8863 163.244 75.0439 164.416 73.2877C165.588 71.5315 165.181 68.621 163.163 68.0014C161.821 67.5936 160.401 68.3312 159.387 69.2873C155.972 72.5055 155.652 77.7695 156.032 82.4362C156.412 87.103 157.231 92.0193 155.361 96.3116C153.299 101.027 148.512 103.831 144.4 106.951C140.289 110.071 136.332 114.649 137.164 119.726C137.658 122.732 139.828 125.275 142.449 126.844C145.071 128.413 148.113 129.144 151.133 129.614C160.894 131.154 170.877 130.477 180.338 127.635C182.472 126.991 184.611 126.22 186.4 124.896C188.19 123.572 189.615 121.613 189.852 119.402C190.255 115.491 187.016 112.229 183.904 109.819C178.723 105.79 173.057 102.22 168.917 97.1318C164.776 92.0438 162.407 84.8743 165.022 78.857" stroke="#2A373F" stroke-width="1.5" stroke-miterlimit="10" stroke-linecap="round"/>
<path d="M43.5856 69.7508C45.2565 70.7648 46.9588 71.7922 48.8535 72.2825C50.7482 72.7728 53.6629 72.3249 55.1169 71.0501C56.8728 69.5123 56.4836 70.2433 56.0743 66.37C55.9669 65.3559 57.318 65.688 58.1345 65.0729C58.8257 64.5514 57.6871 60.0273 58.1009 60.0563C59.4923 60.1588 63.0221 60.4373 62.8298 59.0601C62.6374 57.6828 60.3848 55.6413 59.3469 54.5671C58.3828 53.5643 57.1502 52.2382 56.3874 51.0771C54.6315 48.4028 55.8304 44.6141 58.2217 42.4768C60.613 40.3396 63.8632 39.5061 66.9971 38.8286C70.1311 38.1511 73.388 37.5337 76.0276 35.7085C78.2309 34.2042 79.9109 31.1465 78.4546 28.9089C77.1326 26.8831 74.1172 26.8608 71.8334 27.6765C69.5495 28.4922 67.5094 29.8918 65.3217 30.9548C63.134 32.0179 60.6242 32.7533 58.2732 32.1204C55.9222 31.4875 53.938 29.0783 54.5196 26.7204C55.8081 27.0324 57.139 27.3444 58.4454 27.1171C59.7518 26.8898 61.0313 25.9716 61.246 24.6656C61.4697 23.2817 60.4989 22.0225 60.0828 20.6831C59.6668 19.3437 60.4407 17.3624 61.8075 17.6856C63.7961 18.158 62.6598 22.2231 64.6618 22.6242C66.5744 20.8413 65.8764 17.7212 65.1718 15.2163C64.4672 12.7113 64.1965 9.39508 66.4558 8.06904C67.2745 8.24288 67.6883 9.18336 67.7666 10.0035C67.8673 11.071 67.6391 12.2098 68.4377 13.1236C68.6073 13.3225 68.8383 13.4597 69.0945 13.5137C69.3508 13.5678 69.6178 13.5356 69.8537 13.4222C70.5069 13.0924 70.5248 12.3079 70.4778 11.6237C70.3361 9.32673 70.1967 7.02902 70.0595 4.73056C69.9812 3.46693 69.9812 2.00049 71.1623 1.29847C71.451 1.13483 71.772 1.03572 72.1031 1.00801C72.4341 0.980304 72.7672 1.02466 73.0793 1.13801C74.3499 1.56813 75.0925 2.71365 75.5757 3.89928C77.1058 7.71469 76.1685 12.163 74.0994 15.711C72.0302 19.259 68.9544 22.1049 65.9078 24.8863L59.1836 31.0417C57.8772 32.2385 56.3539 33.5177 54.5823 33.3996C52.4818 33.2615 51.0882 31.2802 49.6745 29.7269C48.1875 28.094 46.3851 26.7769 44.3752 25.8544C42.3653 24.9319 40.1893 24.423 37.9773 24.3581C35.7654 24.2931 33.563 24.6736 31.5021 25.4766C29.4412 26.2796 27.5641 27.4887 25.9833 29.0315C23.9365 31.0373 22.3818 34.0794 23.5227 36.6935C24.6993 39.3679 28.0815 40.2593 31.0141 40.2415C39.7694 40.188 48.3368 35.1023 56.8818 36.9989C59.4229 37.5627 62.19 39.2944 62.1497 41.8885C62.1229 43.6023 60.7919 45.0799 59.2417 45.8064C57.6916 46.5329 55.9177 46.6533 54.1997 46.7625L29.1463 48.3649" stroke="#2A373F" stroke-width="1.5" stroke-miterlimit="10" stroke-linecap="round"/>
<path d="M51.7723 51.7589C51.6659 51.5983 51.5221 51.4656 51.3531 51.3722C51.1842 51.2787 50.9951 51.2272 50.802 51.2221C50.6088 51.217 50.4173 51.2583 50.2436 51.3427C50.0699 51.427 49.9192 51.5519 49.8043 51.7067C49.6894 51.8614 49.6136 52.0415 49.5835 52.2317C49.5533 52.4218 49.5697 52.6164 49.6311 52.7989C49.6925 52.9814 49.7972 53.1465 49.9363 53.2801C50.0755 53.4137 50.2449 53.5119 50.4302 53.5663C51.325 53.8427 52.2667 52.8621 52.1526 51.9305C52.0385 50.999 51.1572 50.3014 50.2311 50.1276C49.305 49.9537 48.3543 50.2056 47.4708 50.5309C44.3274 51.6991 41.6291 53.817 39.7534 56.5884C39.1785 57.4464 38.635 58.4047 37.7111 58.8683C36.7873 59.3318 35.3601 58.9351 35.2505 57.9099C35.1454 56.9249 36.2773 56.0401 35.9797 55.093C35.7359 54.3152 34.6242 54.1324 33.9218 54.5469C33.2194 54.9615 32.8369 55.7459 32.4924 56.4836" stroke="#2A373F" stroke-width="1.5" stroke-miterlimit="10" stroke-linecap="round"/>
<path d="M32.5073 48.3897C31.7154 52.379 31.0242 56.8875 33.3842 60.2015C35.375 63.0051 39.104 64.2286 40.9897 67.1102C41.7577 68.2785 42.1644 69.6457 42.1596 71.0422C42.1547 72.4387 41.7384 73.8031 40.9622 74.966C40.1861 76.129 39.0844 77.0393 37.7937 77.5841C36.503 78.1288 35.0802 78.284 33.7018 78.0305C30.5813 77.46 27.7158 74.848 24.6512 75.6637C21.9938 76.3679 20.7075 79.2562 19.1238 81.496C17.5538 83.7076 15.4372 85.4778 12.979 86.6352C11.3259 87.4086 9.4357 87.8944 7.67301 87.4219C5.91031 86.9495 4.38474 85.2824 4.56816 83.4728C4.76501 81.545 6.61719 80.2992 8.12487 79.0757C9.63255 77.8522 11.0463 75.8063 10.0978 74.1148C9.22321 72.5547 6.72681 72.1848 6.35325 70.4398C6.16087 69.535 6.68207 68.6012 7.41354 68.0306C8.14502 67.4601 9.05097 67.1748 9.93232 66.8896C11.6995 66.3168 13.536 65.6259 14.7193 64.1996C15.9026 62.7733 16.1174 60.3887 14.6925 59.203C13.4979 58.2135 11.3595 58.0887 11.0396 56.5777C10.7622 55.2606 12.2833 54.2354 13.6277 54.1262C14.9721 54.017 16.3724 54.3847 17.6542 53.9546C18.2057 53.7691 18.6991 53.4432 19.0852 53.0092C19.4714 52.5752 19.737 52.0482 19.8557 51.4804C19.9744 50.9126 19.942 50.3237 19.7619 49.7722C19.5817 49.2207 19.2599 48.7257 18.8285 48.3362C17.7347 47.3467 16.1442 47.1907 14.7059 46.8765C13.2676 46.5622 11.6749 45.8491 11.2834 44.425C10.9725 43.2906 11.5831 42.0604 12.4891 41.3049C13.3951 40.5494 14.5493 40.1661 15.6767 39.8117C27.4599 36.0967 39.5521 33.4356 51.8097 31.86" stroke="#2A373F" stroke-width="1.5" stroke-miterlimit="10" stroke-linecap="round"/>
<path d="M41.9803 72.7592C44.5791 76.2525 46.2663 80.3343 46.8903 84.6378" stroke="#2A373F" stroke-width="1.5" stroke-miterlimit="10" stroke-linecap="round"/>
<path d="M36.6249 63.2014C37.5928 65.1387 38.0835 67.2778 38.0565 69.4416C38.0431 70.4712 37.8686 71.5877 37.1215 72.2987C36.2267 73.1545 34.775 73.1344 33.6073 72.7132C31.7977 72.0624 30.3012 70.5292 29.8292 68.6705C29.3572 66.8118 29.9791 64.6901 31.4666 63.4755C32.9541 62.2609 34.6609 61.9044 36.2446 62.9919" stroke="#2A373F" stroke-width="1.5" stroke-miterlimit="10" stroke-linecap="round"/>
<path d="M36.2508 62.998C36.5595 63.7267 36.4633 64.6182 36.2061 65.3692C35.9488 66.1203 35.1838 66.7287 34.3964 66.6172C33.316 66.4657 32.8104 64.9881 33.3719 64.0565C33.9334 63.125 35.1816 62.784 36.2508 62.998" stroke="#2A373F" stroke-width="1.5" stroke-miterlimit="10" stroke-linecap="round"/>
<path d="M36.25 62.9951C36.9726 64.2365 37.742 65.6494 37.3864 67.0423C37.0307 68.4352 35.749 69.6387 34.3084 69.5874C33.049 69.5428 31.9327 68.5221 31.6442 67.3008C31.3556 66.0795 31.8343 64.7424 32.7403 63.8687C33.6462 62.9951 34.9906 63.0085 36.25 62.9951" stroke="#2A373F" stroke-width="1.5" stroke-miterlimit="10" stroke-linecap="round"/>
<path d="M60.4536 46.6161C60.4715 51.0087 63.4645 54.8442 66.8244 57.6901C70.1842 60.5361 74.0697 62.8004 76.9732 66.1054C78.5883 67.9463 79.9125 70.2641 79.7023 72.6999C79.492 75.1358 77.1992 77.4625 74.7967 76.9655C73.5038 76.6981 72.4882 75.7353 71.3273 75.1113C70.1663 74.4873 68.4976 74.3179 67.7169 75.3721C66.8512 76.5399 67.7169 78.1512 68.4886 79.3836C69.65 81.2124 70.6399 83.1439 71.4458 85.1535C71.9089 86.3057 72.316 87.5136 72.2847 88.755C72.2533 89.9963 71.7031 91.2822 70.6249 91.9241C68.7257 93.0562 66.2428 91.6611 64.9521 89.8693C64.281 88.9377 63.7598 87.81 63.9365 86.6779C64.1132 85.5458 65.2317 84.5206 66.3479 84.7903C66.934 85.4011 67.3371 86.163 67.5118 86.9899C67.6865 87.8168 67.6258 88.676 67.3366 89.4704C66.8378 90.7719 65.7551 91.7725 65.1534 93.0362C64.0797 95.2849 64.7261 98.0484 66.1466 100.096C67.567 102.145 69.6541 103.629 71.6919 105.073" stroke="#2A373F" stroke-width="1.5" stroke-miterlimit="10" stroke-linecap="round"/>
<path d="M53.8499 71.9069C53.875 75.6144 54.6849 79.2749 56.2267 82.6494C57.7686 86.0238 60.0076 89.0362 62.7976 91.4898C66.5354 94.7369 71.1301 96.8675 74.9686 99.9965" stroke="#2A373F" stroke-width="1.5" stroke-miterlimit="10" stroke-linecap="round"/>
<path d="M55.5157 86.2081C52.2565 86.6984 48.9683 87.1909 45.6733 86.9881C42.3783 86.7853 39.0476 85.8247 36.5266 83.712C36.0389 83.3019 35.5692 82.8206 35.379 82.2211C35.1889 81.6216 35.379 80.8527 35.9338 80.5563C36.3431 80.3334 36.8285 80.4069 37.2916 80.5095C41.6603 81.4901 45.5145 85.0135 49.9637 84.492C52.4243 84.2045 54.6411 82.6801 57.1218 82.6579C58.0166 82.6579 59.0523 82.9743 59.3006 83.8234C59.5981 84.8419 58.5042 85.7623 57.4618 85.9807C56.4194 86.1992 55.2876 86.0521 54.3302 86.4956" stroke="#2A373F" stroke-width="1.5" stroke-miterlimit="10" stroke-linecap="round"/>
<path d="M42.4407 86.6992C39.0182 86.0863 35.5688 85.4712 32.0904 85.5024C28.612 85.5336 25.0598 86.2446 22.125 88.1055C21.1922 88.6983 20.3041 89.4293 19.7896 90.4076C19.2751 91.386 19.1991 92.6474 19.8254 93.5567C20.6016 94.671 22.2055 94.9473 23.5298 94.6019C24.854 94.2565 25.9904 93.4341 27.1558 92.7276C31.6609 90.0206 36.9509 88.9072 42.17 89.5674C44.946 89.9262 47.6862 90.7887 50.4824 90.6416C53.2785 90.4945 56.2983 88.9635 56.9694 86.2557" stroke="#2A373F" stroke-width="1.5" stroke-miterlimit="10" stroke-linecap="round"/>
<path d="M20.2277 94.5459C17.2571 105.003 20.353 116.946 28.0323 124.664C35.7117 132.381 47.6724 135.566 58.1926 132.709C68.7129 129.852 77.3809 121.031 80.0451 110.494C81.2038 105.916 81.4655 100.753 84.7247 97.3272C87.0958 94.8356 90.6816 93.7881 94.1197 93.7614C97.5579 93.7346 100.942 94.6305 104.278 95.493C105.206 95.7337 106.414 95.8674 106.91 95.0473C107.62 93.8773 105.924 92.7072 104.564 92.52C103.204 92.3328 101.394 91.9384 101.349 90.5722L111.017 90.7237C111.523 90.7237 112.152 90.6613 112.33 90.1889C112.554 89.5782 111.798 89.0746 111.178 88.8673L100.844 85.2636L111.337 83.1954C111.865 83.0929 112.483 82.9124 112.648 82.4043C112.928 81.5418 111.7 81.0292 110.794 80.9534L100.54 80.0999L110.959 77.9626C111.961 77.7576 113.113 77.4367 113.509 76.494C113.894 75.5847 113.312 74.4882 112.458 73.9912C111.603 73.4942 110.563 73.4385 109.57 73.4541C102.155 73.5789 94.9877 76.7124 89.2008 81.3345C83.4139 85.9567 78.9109 92.003 75.2044 98.4036C72.2114 103.574 69.677 109.05 65.9793 113.743C62.2817 118.437 57.1391 122.388 51.1866 123.043C44.1224 123.823 36.8145 119.306 34.3762 112.656C33.6872 110.775 33.3718 108.629 34.1928 106.799C35.0137 104.969 37.2663 103.699 39.114 104.492C40.9617 105.286 41.2726 108.446 39.4115 109.206" stroke="#2A373F" stroke-width="1.5" stroke-miterlimit="10" stroke-linecap="round"/>
<path d="M78.0929 115.965C81.4004 121.858 83.2364 128.458 83.4458 135.207" stroke="#2A373F" stroke-width="1.5" stroke-miterlimit="10" stroke-linecap="round"/>
<path d="M20.9664 112.563C16.3092 116.824 15.4524 124.119 17.4947 130.082C17.8638 131.166 18.3537 132.267 19.253 132.98C20.1522 133.693 21.5637 133.871 22.4182 133.113C23.3599 132.271 23.1474 130.582 22.1497 129.808C21.1521 129.035 19.6534 129.129 18.5908 129.808C17.5283 130.488 16.8639 131.667 16.5239 132.879C16.2398 133.885 16.1369 134.977 15.5285 135.828C14.92 136.679 13.5331 137.098 12.8442 136.314" stroke="#2A373F" stroke-width="1.5" stroke-miterlimit="10" stroke-linecap="round"/>
<path d="M107.682 90.6984L107.76 98.3872" stroke="#2A373F" stroke-width="1.5" stroke-miterlimit="10" stroke-linecap="round"/>
<path d="M107.812 98.5563C105.142 98.1569 102.434 98.0709 99.7438 98.3C99.0033 98.3624 98.0929 98.5897 97.9296 99.314C97.7373 100.159 98.7282 100.758 99.5536 101.032C103.211 102.246 107.036 102.887 110.89 102.931C112.367 102.949 113.915 102.858 115.174 102.093C115.718 101.763 116.228 101.215 116.154 100.584C116.08 99.9537 115.469 99.5458 114.903 99.2606C113.615 98.6137 112.24 98.1537 110.821 97.8944" stroke="#2A373F" stroke-width="1.5" stroke-miterlimit="10" stroke-linecap="round"/>
<path d="M106.76 84.1006L106.938 87.2741" stroke="#2A373F" stroke-width="1.5" stroke-miterlimit="10" stroke-linecap="round"/>
<path d="M106.213 79.0856L106.291 80.5899" stroke="#2A373F" stroke-width="1.5" stroke-miterlimit="10" stroke-linecap="round"/>
<path d="M98.5136 64.8129C97.8783 63.8323 97.2206 62.7759 97.2296 61.6081C97.2385 60.4403 98.2451 59.2101 99.3972 59.4263C100.63 59.6492 101.654 61.3429 102.737 60.7122C103.424 60.3133 103.354 59.3104 103.133 58.5482C102.911 57.786 102.661 56.8723 103.186 56.2772C103.712 55.6822 104.752 55.8315 105.452 56.2772C106.153 56.723 106.743 57.3492 107.531 57.581C109.054 58.0267 110.638 56.6895 111.045 55.1629C111.452 53.6363 111.018 52.0183 110.586 50.494C105.074 51.3599 99.5057 51.8254 93.9257 51.8868C94.0397 54.4342 94.1605 57.0127 94.9233 59.4464C95.6861 61.88 97.1781 64.1844 99.4307 65.4035C101.032 66.2615 103.01 66.5757 104.209 67.9285C105.551 69.444 105.488 71.7172 105.327 73.7363" stroke="#2A373F" stroke-width="1.5" stroke-miterlimit="10" stroke-linecap="round"/>
<path d="M200.996 49.8829H133.98V131.094" stroke="#2A373F" stroke-width="1.5" stroke-miterlimit="10" stroke-linecap="round"/>
<path d="M123.14 131.091H195.766" stroke="#2A373F" stroke-width="1.5" stroke-miterlimit="10" stroke-linecap="round"/>
<path d="M195.766 131.091V136.868" stroke="#2A373F" stroke-width="1.5" stroke-miterlimit="10" stroke-linecap="round"/>
<path d="M231.78 136.871H246V49.8829H226.313V136.871" stroke="#2A373F" stroke-width="1.5" stroke-miterlimit="10" stroke-linecap="round"/>
<path d="M210.537 30.184H226.312V136.866H200.995V30.184" stroke="#2A373F" stroke-width="1.5" stroke-miterlimit="10" stroke-linecap="round"/>
<path d="M220.821 108.9V116.37" stroke="#2A373F" stroke-width="1.5" stroke-miterlimit="10" stroke-linecap="round"/>
<path d="M173.797 51.0463L171.008 54.153L174.16 56.9588L177.423 53.3217" stroke="#2A373F" stroke-width="1.5" stroke-miterlimit="10" stroke-linecap="round"/>
<path d="M220.821 48.7781V103.268" stroke="#2A373F" stroke-width="1.5" stroke-miterlimit="10" stroke-linecap="round"/>
<path d="M181.342 48.9573L184.388 45.5631L181.239 42.7573L176.57 47.9611" stroke="#2A373F" stroke-width="1.5" stroke-miterlimit="10" stroke-linecap="round"/>
<path d="M146.093 46.9758C143.753 46.9758 141.856 45.086 141.856 42.7548C141.856 40.4236 143.753 38.5338 146.093 38.5338C148.432 38.5338 150.329 40.4236 150.329 42.7548C150.329 45.086 148.432 46.9758 146.093 46.9758Z" stroke="#2A373F" stroke-width="1.5" stroke-miterlimit="10" stroke-linecap="round"/>
<path d="M205.528 30.1849C200.832 30.1849 197.025 26.3923 197.025 21.7139C197.025 17.0355 200.832 13.2429 205.528 13.2429C210.223 13.2429 214.03 17.0355 214.03 21.7139C214.03 26.3923 210.223 30.1849 205.528 30.1849Z" stroke="#2A373F" stroke-width="1.5" stroke-miterlimit="10" stroke-linecap="round"/>
<path d="M75.4113 21.7258C75.4113 21.7258 118.074 -15.7642 197.026 13.257" stroke="#2A373F" stroke-width="1.5" stroke-miterlimit="10" stroke-linecap="round"/>
</svg>
