<svg width="296" height="138" viewBox="0 0 296 138" fill="none" xmlns="http://www.w3.org/2000/svg">
<path d="M188.552 104.602C190.28 107.607 190.108 111.825 188.306 114.771C186.505 117.717 183.244 119.316 180.123 119.012C177.003 118.708 174.097 116.611 172.319 113.642C171.602 112.442 171.043 110.964 171.36 109.553C171.677 108.143 173.23 107.1 174.27 107.922C174.786 108.328 175.037 109.041 175.379 109.643C175.72 110.246 176.305 110.812 176.908 110.638C177.586 110.444 177.881 109.453 178.536 109.171C179.565 108.727 180.42 110.246 181.486 110.552C182.579 110.864 183.625 109.812 184.162 108.674C184.699 107.536 184.983 106.216 185.724 105.246C186.465 104.275 187.981 103.876 188.659 104.915" fill="#C0D1E3"/>
<path d="M204.609 95.3971C204.471 95.322 204.321 95.2797 204.168 95.2729C204.016 95.2661 203.864 95.2949 203.721 95.3576C203.505 95.4519 203.295 95.5706 203.081 95.6619C202.695 95.8354 202.241 95.9328 201.881 95.6984C201.639 95.5463 201.484 95.2602 201.284 95.0319C201.085 94.8037 200.804 94.615 200.541 94.72C200.175 94.8722 200.094 95.4717 199.747 95.668C199.444 95.8384 199.086 95.6239 198.845 95.3454C198.604 95.0669 198.43 94.7185 198.14 94.5191C197.85 94.3198 197.39 94.367 197.276 94.7322L197.34 97.6142C197.463 98.5835 197.771 99.5452 198.354 100.257C199.509 101.67 201.577 101.752 202.999 100.714C204.164 99.8633 204.912 98.4116 205.226 96.8519C205.283 96.5646 205.253 96.2637 205.142 95.9986C205.03 95.7336 204.843 95.5204 204.611 95.3941L204.609 95.3971Z" fill="#C0D1E3"/>
<path d="M140.236 99.1231C139.773 98.1188 139.301 97.0901 139.335 95.9002C139.341 95.578 139.4 95.26 139.508 94.9628C140.093 93.3864 141.652 93.289 142.982 93.3346C145.137 93.4117 147.289 93.5685 149.437 93.8048C150.18 93.8855 150.974 93.9981 151.36 95.0222C151.567 95.5882 151.583 96.2222 151.405 96.801C151.141 97.6745 150.518 98.9116 149.913 99.5066C149.582 99.8342 149.189 100.071 148.766 100.197L147.945 100.442C147.232 100.654 146.547 99.9767 145.907 99.5583C145.651 99.3784 145.373 99.2464 145.081 99.1672C144.481 99.0242 143.864 99.2418 143.287 99.4837C142.711 99.7257 142.123 99.995 141.511 99.9615C140.898 99.9281 140.253 99.4898 140.143 98.7959" fill="#C0D1E3"/>
<path d="M235.462 107.13L235.643 86.4637L235.504 85.9219C235.125 85.225 234.092 85.5841 233.416 85.8504C232.74 86.1167 232.175 86.6584 231.543 87.0404C230.91 87.4223 230.11 87.6323 229.499 87.2062C228.713 86.6584 228.541 85.2828 227.696 84.8689C227.136 84.5935 226.488 84.8583 225.959 85.2083C225.531 85.4913 225.115 85.8398 224.652 86.0193C224.461 86.0929 224.253 86.0781 224.072 85.9782C223.951 85.9152 223.818 85.888 223.686 85.899C223.554 85.91 223.426 85.9588 223.315 86.0411C223.203 86.1234 223.112 86.2365 223.048 86.3702C222.984 86.5038 222.95 86.6536 222.95 86.806L223.146 107.143C223.146 107.345 223.215 107.539 223.339 107.681C223.463 107.824 223.632 107.904 223.807 107.904L234.786 107.89C234.874 107.893 234.962 107.875 235.044 107.837C235.126 107.8 235.2 107.744 235.263 107.674C235.326 107.603 235.376 107.518 235.41 107.425C235.445 107.331 235.462 107.231 235.462 107.13Z" fill="#C0D1E3"/>
<path d="M245.838 107.4C245.598 107.392 245.37 107.277 245.204 107.077C245.038 106.878 244.947 106.611 244.952 106.334L245.251 79.515L245.244 78.637C245.243 78.4935 245.272 78.3519 245.328 78.2236C245.384 78.0953 245.465 77.9839 245.565 77.8986C245.666 77.8132 245.782 77.7562 245.905 77.7322C246.028 77.7082 246.154 77.7179 246.273 77.7605C247.146 78.0648 248.062 78.3813 248.876 78.6933C249.45 78.9124 250.085 79.13 250.644 78.8637C251.051 78.6689 251.357 78.2413 251.78 78.1028C252.424 77.8913 253.076 78.4224 253.5 79.0158C253.923 79.6093 254.247 80.3351 254.822 80.7399C255.67 81.3486 256.792 81.064 257.673 80.5269C258.554 79.9897 259.303 79.2426 260.214 78.8256C260.679 78.6191 261.183 78.5605 261.674 78.6561C262.166 78.7517 262.625 78.998 263.005 79.3689C263.042 79.4048 263.072 79.4494 263.093 79.4998C263.114 79.5503 263.125 79.6053 263.125 79.661L263.401 106.838C263.403 106.98 263.38 107.12 263.334 107.251C263.288 107.382 263.219 107.501 263.132 107.601C263.045 107.7 262.941 107.778 262.826 107.83C262.712 107.882 262.59 107.907 262.467 107.903L245.838 107.4Z" fill="#C0D1E3"/>
<path d="M208.601 68.8201C207.364 68.8201 206.362 67.6667 206.362 66.2439C206.362 64.8211 207.364 63.6677 208.601 63.6677C209.838 63.6677 210.841 64.8211 210.841 66.2439C210.841 67.6667 209.838 68.8201 208.601 68.8201Z" fill="#F5D9C0"/>
<path d="M96.891 58.103C96.891 59.827 97.2878 61.2985 97.4333 63.0073C97.5777 64.7151 97.1594 66.423 96.2614 67.793C95.2203 69.4014 93.3512 70.0223 91.6118 70.0405C90.9742 70.0481 90.3141 69.9812 89.7599 69.6327C89.2056 69.2843 88.7585 68.598 88.8061 67.8661C88.863 66.9896 89.531 67.3624 90.2744 67.163C91.0178 66.9637 90.9358 65.2914 91.7004 65.337C92.465 65.3827 93.2018 65.3918 93.7957 64.841C94.6542 64.0451 95.7362 63.2752 95.6291 62.0122C95.5219 60.7492 95.3063 59.4055 95.7904 58.2673C95.9095 57.9889 96.0894 57.7134 96.3513 57.6389C96.6132 57.5643 96.9386 57.8032 96.8976 58.1091" fill="#C0D1E3"/>
<path d="M97.7046 43.7565C96.817 43.7565 96.0974 42.9288 96.0974 41.9077C96.0974 40.8866 96.817 40.0588 97.7046 40.0588C98.5922 40.0588 99.3118 40.8866 99.3118 41.9077C99.3118 42.9288 98.5922 43.7565 97.7046 43.7565Z" fill="#F5D9C0"/>
<path d="M190.606 17.0277C188.791 17.7703 186.886 16.3354 185.426 14.8883C183.966 13.4412 182.306 11.7962 180.399 12.061C179.02 12.2527 177.857 13.4792 177.305 14.9522C176.754 16.4252 176.738 18.0868 176.962 19.6694C177.226 21.4954 177.806 23.2864 178.851 24.6909C179.896 26.0954 181.438 27.0571 183.042 27.0404C184.894 27.0206 186.654 25.7378 188.5 25.9539C191.205 26.2704 192.793 29.4933 194.926 31.4319C197.999 34.2318 202.768 34.1953 205.81 31.3513C208.853 28.5073 209.857 23.1449 208.103 19.1109C206.349 15.077 202.018 12.7868 198.214 13.8809C195.002 14.8046 192.159 17.8373 188.876 17.3427" fill="#F5D9C0"/>
<path d="M156.271 67.6727C165.023 77.7158 164.688 54.8602 171.44 55.6849C178.276 55.5906 180.191 65.4069 185.836 68.0349C188.057 69.1 190.262 69.2035 192.231 68.5903C199.451 66.3443 201.644 55.4186 196.095 49.5419C190.018 43.1052 182.324 55.8173 174.117 32.8354C172.747 30.0325 171.288 27.5537 168.729 25.9301C159.146 21.8672 163.174 34.7238 155.089 35.6003C133.231 35.4634 136.26 58.5168 147.496 60.8815C149.269 61.2444 150.958 62.0258 152.456 63.1766C153.953 64.3273 155.228 65.8224 156.198 67.5677" fill="#F5D9C0"/>
<path d="M36.249 134.389C31.2026 137.685 20.0079 132.411 10.0578 133.821C8.11823 134.059 6.15822 133.713 4.36985 132.817C2.60658 131.913 1.11316 129.926 1.21105 127.712C1.36449 124.266 5.11192 122.466 8.05777 123.107C11.0036 123.748 13.5249 125.902 16.3636 127.015C19.2023 128.127 22.9775 127.747 24.3506 124.677C25.127 122.937 24.9445 121.034 24.4961 118.53C23.7738 114.494 22.5397 112.96 21.4894 110.071C18.9853 103.182 22.1799 101.361 19.8346 95.3638C18.1057 90.9418 16.0593 91.1411 14.2233 85.7026C13.2286 82.7521 12.3066 80.3768 13.1915 78.1201C14.8093 74.0116 19.9999 73.6571 22.4722 70.1481C24.5411 67.2128 24.1455 62.9855 23.7315 59.2376C23.3175 55.4898 23.1561 51.1651 25.4908 48.5083C27.7144 45.9778 31.2463 46.0538 34.1974 44.8563C38.9184 42.9481 42.2307 37.1825 41.9053 31.4381C41.7373 28.4648 40.7055 25.6055 40.6724 22.6261C40.6724 22.2731 41.6738 17.1663 44.7215 15.9855C46.7798 15.1866 47.9676 16.8894 50.0669 15.7329C51.7759 14.791 52.6185 12.7611 52.7799 12.3715C53.7667 9.99619 53.2164 8.64798 54.0075 7.51738C54.9334 6.18743 57.1306 5.95309 57.7033 7.52803L59.5804 13.3697C60.9852 17.7446 59.8304 22.7174 56.6213 25.566C56.5433 25.6345 56.4652 25.7029 56.3845 25.7684C54.6371 27.2246 52.5365 27.9991 50.6582 29.2241C48.7798 30.449 47.0165 32.3679 46.7811 34.836C46.5549 37.2068 47.797 39.4422 49.2415 41.1525C50.6859 42.8629 52.4029 44.307 53.5405 46.3034C54.6781 48.2998 55.0842 51.1317 53.7773 52.982C52.0233 55.4669 48.1052 55.0804 46.8155 57.9168C45.5588 60.6832 47.707 63.016 46.1369 65.723C44.9702 67.7347 43.4384 66.9404 41.9899 69.0935C40.5097 71.3015 41.3828 73.2203 40.5349 76.2454C39.7002 79.2386 37.9792 80.4437 35.4157 83.1234C30.6722 88.081 26.1099 92.8469 25.8321 98.3995C25.6879 101.301 27.0226 104.074 29.6907 109.62C32.4381 115.328 34.7821 117.28 34.1299 120.729C33.7662 122.658 32.6669 124.603 33.2675 126.452C33.4725 127.082 33.7278 127.021 35.7384 129.236C37.5017 131.179 37.8245 131.733 37.7888 132.348C37.7385 133.413 36.6459 134.13 36.249 134.389Z" fill="#F5D9C0"/>
<path d="M71.1853 135.874L44.3895 135.924" stroke="#2A373F" stroke-width="1.8" stroke-miterlimit="10" stroke-linecap="round"/>
<path d="M272.012 135.642H280.28" stroke="#2A373F" stroke-width="1.8" stroke-miterlimit="10" stroke-linecap="round"/>
<path d="M200.821 102.838L200.864 118.041" stroke="#2A373F" stroke-width="1.8" stroke-miterlimit="10" stroke-linecap="round"/>
<path d="M205.115 120.042C205.115 118.963 204.177 118.14 203.247 118.005C202.317 117.869 201.395 118.241 200.501 118.568C199.606 118.895 198.649 119.187 197.744 118.904C197.202 118.719 196.725 118.343 196.381 117.828C196.036 117.312 195.842 116.685 195.826 116.036" stroke="#2A373F" stroke-width="1.8" stroke-miterlimit="10" stroke-linecap="round"/>
<path d="M264.446 65.3754L264.474 109.577" stroke="#2A373F" stroke-width="1.8" stroke-miterlimit="10" stroke-linecap="round"/>
<path d="M249.689 60.6006C247.667 61.2275 246.027 62.4677 244.397 63.9878" stroke="#2A373F" stroke-width="1.8" stroke-miterlimit="10" stroke-linecap="round"/>
<path d="M244.403 63.9878C244.113 78.9413 243.816 94.3209 243.531 109.273" stroke="#2A373F" stroke-width="1.8" stroke-miterlimit="10" stroke-linecap="round"/>
<path d="M264.447 92.1362C257.665 91.0054 250.795 90.7456 243.964 91.3617" stroke="#2A373F" stroke-width="1.8" stroke-miterlimit="10" stroke-linecap="round"/>
<path d="M236.616 84.3751C236.408 92.44 236.557 101.206 236.616 109.274" stroke="#2A373F" stroke-width="1.8" stroke-miterlimit="10" stroke-linecap="round"/>
<path d="M261.309 83.5112C261.009 84.5048 261.342 85.5883 261.373 86.6382C261.407 87.784 260.735 89.2114 259.679 88.799C259.454 88.7034 259.254 88.5401 259.102 88.3261C258.949 88.1121 258.849 87.8551 258.812 87.5817C258.625 86.3614 258.782 85.1046 259.259 83.9936C259.297 83.9043 259.357 83.8294 259.431 83.7775C259.505 83.7256 259.59 83.6988 259.676 83.7003C259.763 83.7017 259.848 83.7313 259.92 83.7856C259.993 83.8399 260.051 83.9168 260.087 84.0073C260.173 84.2277 260.207 84.4705 260.186 84.7111C260.164 84.9516 260.088 85.1813 259.964 85.3768C259.533 85.9961 258.671 86.0767 258.091 85.6507C257.51 85.2246 257.917 83.7044 257.235 83.601C256.148 83.4366 256.733 86.0569 256.482 87.2834C256.405 87.6638 256.314 88.0701 255.944 88.236C255.788 88.2998 255.62 88.3117 255.459 88.2702C255.297 88.2288 255.15 88.1357 255.032 88.0016C254.62 87.5558 254.567 86.868 254.624 86.2426C254.684 85.5883 254.847 84.94 254.748 84.2781C254.714 84.0203 254.603 83.7841 254.434 83.6101C253.949 83.1323 253.4 83.6101 253.294 84.1594C253.214 84.5748 253.329 85.0085 253.485 85.395C253.688 85.9048 253.972 86.3978 253.882 86.9958C253.864 87.1368 253.813 87.2697 253.735 87.3803C253.657 87.4909 253.555 87.5752 253.438 87.6243C252.957 87.8053 252.591 87.2606 252.416 86.7615C252.232 86.2335 252.073 85.6004 251.536 85.4787C251.369 85.4473 251.198 85.471 251.042 85.5473C250.886 85.6235 250.752 85.749 250.655 85.9093C250.24 86.5652 250.355 87.358 250.473 88.0945L249.309 84.1701C249.249 83.9553 249.132 83.7678 248.974 83.6344C248.454 83.2145 247.998 83.7714 247.925 84.3146C247.868 84.7377 247.97 85.1652 247.994 85.5913C248.018 86.0174 247.938 86.5043 247.627 86.7417C247.317 86.9791 246.777 86.7174 246.834 86.2959" stroke="#2A373F" stroke-width="1.8" stroke-miterlimit="10" stroke-linecap="round"/>
<path d="M236.616 84.3746C235.467 82.4588 233.882 81.2567 231.987 80.928" stroke="#2A373F" stroke-width="1.8" stroke-miterlimit="10" stroke-linecap="round"/>
<path d="M226.538 80.6881C224.786 80.9483 222.827 82.753 221.762 84.3751" stroke="#2A373F" stroke-width="1.8" stroke-miterlimit="10" stroke-linecap="round"/>
<path d="M221.762 84.3751C221.722 92.8159 222.054 100.835 222.014 109.274" stroke="#2A373F" stroke-width="1.8" stroke-miterlimit="10" stroke-linecap="round"/>
<path d="M236.51 100.885L221.954 100.625" stroke="#2A373F" stroke-width="1.8" stroke-miterlimit="10" stroke-linecap="round"/>
<path d="M234.743 93.9831C234.533 94.7074 234.645 95.5047 234.611 96.2656C234.577 97.0264 234.307 97.8846 233.685 98.1388C233.145 98.3579 232.53 98.0216 232.17 97.5073C231.811 96.9929 231.652 96.3401 231.501 95.7041C231.369 95.1471 231.237 94.5674 231.32 93.9983C231.403 93.4292 231.778 92.8738 232.278 92.8251C232.939 92.7612 233.442 93.7168 233.176 94.4122C232.91 95.1076 232.083 95.3708 231.487 95.0452C231.006 94.785 230.461 94.2204 230.043 94.5978C229.435 95.1487 230.471 96.468 229.93 97.104C229.706 97.3673 229.297 97.3201 229.066 97.066C228.957 96.9312 228.876 96.7701 228.828 96.5945C228.78 96.4189 228.767 96.2332 228.789 96.051C228.836 95.485 229.1 94.9691 229.162 94.4061C229.225 93.8431 228.95 93.1431 228.456 93.1431C227.963 93.1431 227.686 93.8613 227.766 94.4259C227.845 94.9904 228.135 95.491 228.222 96.0586C228.309 96.6262 228.061 97.3444 227.561 97.3718C227.108 97.3962 226.795 96.824 226.754 96.3067C226.713 95.7893 226.834 95.2598 226.754 94.7454C226.673 94.2311 226.271 93.7076 225.834 93.8507C225.469 93.9694 225.314 94.4807 225.334 94.9159C225.354 95.3511 225.489 95.7802 225.467 96.2154C225.444 96.6506 225.158 97.1284 224.78 97.0873C224.402 97.0462 224.213 96.5866 224.183 96.1743C224.154 95.7619 224.235 95.3328 224.137 94.9341C224.039 94.5354 223.646 94.1733 223.329 94.3772C223.086 94.5293 223.037 94.9006 223.014 95.2202C222.992 95.5397 222.932 95.911 222.682 96.0495C222.432 96.188 222.095 95.733 222.333 95.5702" stroke="#2A373F" stroke-width="1.8" stroke-miterlimit="10" stroke-linecap="round"/>
<path d="M143.73 101.552C144.021 102.148 144.779 102.145 145.336 101.903C145.893 101.661 146.435 101.26 147.028 101.324C147.154 101.343 147.277 101.392 147.387 101.466C147.497 101.54 147.593 101.64 147.669 101.757C147.731 101.849 147.807 101.925 147.895 101.982C147.982 102.039 148.078 102.076 148.178 102.089C148.278 102.102 148.379 102.092 148.475 102.06C148.572 102.028 148.662 101.973 148.74 101.9C150.767 100.011 152.115 97.3251 152.523 94.3605C152.543 94.186 152.504 94.0091 152.414 93.8671C152.323 93.7251 152.188 93.6292 152.037 93.5996C149.337 93.0549 146.626 92.5345 143.888 92.4173C142.395 92.3549 140.856 92.4173 139.532 93.3151C138.916 93.7144 138.415 94.3128 138.092 95.0361C137.118 97.3186 138.536 99.6285 140.133 101.073C141.55 102.354 143.234 103.355 144.205 105.108C145.66 107.725 145.086 111.116 144.759 114.199C144.433 117.281 144.667 120.996 146.964 122.629C149.964 124.759 154.351 121.776 157.245 124.094" stroke="#2A373F" stroke-width="1.8" stroke-miterlimit="10" stroke-linecap="round"/>
<path d="M142.935 123.03C141.719 124.338 139.838 124.314 138.191 124.026C136.544 123.739 134.81 123.282 133.259 123.978" stroke="#2A373F" stroke-width="1.8" stroke-miterlimit="10" stroke-linecap="round"/>
<path d="M115.708 99.2731C116.077 99.3401 116.422 99.5273 116.701 99.8127C116.981 100.098 117.183 100.469 117.285 100.883C117.375 101.3 117.363 101.738 117.249 102.147C117.135 102.556 116.924 102.921 116.641 103.201C116.355 103.474 116.008 103.651 115.64 103.71C115.272 103.77 114.897 103.71 114.557 103.537C114.216 103.364 113.925 103.086 113.715 102.733C113.505 102.38 113.385 101.966 113.369 101.539C113.352 101.111 113.44 100.687 113.621 100.314C113.803 99.941 114.072 99.6337 114.397 99.4268C114.723 99.2199 115.092 99.1216 115.463 99.1432C115.835 99.1647 116.193 99.3051 116.499 99.5486L116.367 99.6231" stroke="#2A373F" stroke-width="1.8" stroke-miterlimit="10" stroke-linecap="round"/>
<path d="M157.061 126.187C157.654 121.478 156.668 116.686 154.304 112.782C152.982 110.628 151.189 108.552 151.155 105.92C151.132 104.263 151.84 102.709 152.652 101.339C153.464 99.9699 154.409 98.6795 154.97 97.1533C155.531 95.627 155.644 93.7508 154.816 92.3935C153.687 90.5416 151.396 90.3818 149.429 90.4016L142.344 90.4746C141.153 90.4868 139.943 90.502 138.801 90.8901C137.66 91.2781 136.571 92.0952 136.054 93.3247C135.174 95.4277 136.164 97.8898 137.174 99.9166C138.185 101.944 139.272 104.302 138.562 106.489C138.181 107.663 137.341 108.543 136.644 109.505C135 111.771 134.078 114.634 133.62 117.536C133.162 120.438 133.142 123.408 133.124 126.362" stroke="#2A373F" stroke-width="1.8" stroke-miterlimit="10" stroke-linecap="round"/>
<path d="M236.357 90.674L221.786 90.1262" stroke="#2A373F" stroke-width="1.8" stroke-miterlimit="10" stroke-linecap="round"/>
<path d="M198.442 87.9695C199.633 87.834 200.848 87.6971 202.036 87.8979C203.224 88.0988 204.409 88.6725 205.176 89.7361C205.944 90.7998 206.212 92.2302 206.29 93.5997C206.401 95.5596 206.158 97.5956 205.294 99.2907C204.43 100.986 202.888 102.288 201.182 102.387C199.392 102.491 197.047 101.138 196.364 99.2329C195.893 97.9228 195.917 96.4559 195.947 95.0392L196.019 91.7737C196.031 91.2182 196.63 90.637 196.97 90.2428C197.352 89.8 197.994 89.8107 198.494 90.0542C198.994 90.2976 199.403 90.7283 199.858 91.0691C200.549 91.5755 201.338 91.8779 202.155 91.9495C202.973 92.0212 203.793 91.8599 204.543 91.48" stroke="#2A373F" stroke-width="1.8" stroke-miterlimit="10" stroke-linecap="round"/>
<path d="M182.586 85.9789C181.232 85.7907 179.858 85.9823 178.582 86.5373C177.686 86.9284 176.731 87.709 176.75 88.8122C176.765 89.8333 177.676 90.6094 178.571 90.6246C179.465 90.6398 180.28 90.0829 180.958 89.424C181.79 88.6144 182.524 87.598 183.547 87.1673C184.569 86.7367 186.007 87.2525 186.143 88.4973C186.236 89.3403 185.711 90.0829 185.367 90.8361C184.509 92.7123 184.739 95.0405 185.481 96.9806C186.223 98.9207 187.425 100.57 188.543 102.256C189.661 103.942 190.731 105.744 191.144 107.81C191.797 111.084 190.615 114.649 188.462 116.913C186.31 119.177 183.303 120.204 180.383 120.101C177.313 119.993 174.166 118.579 172.297 115.776C170.427 112.973 170.134 108.704 172.054 105.946C172.926 104.694 174.159 103.827 175.028 102.573C176.219 100.847 176.615 98.5297 176.5 96.3339C176.385 94.1381 175.803 92.0032 175.226 89.8987" stroke="#2A373F" stroke-width="1.8" stroke-miterlimit="10" stroke-linecap="round"/>
<path d="M150.38 84.7285C147.094 86.5286 143.415 87.1556 139.816 86.5287C138.229 86.2487 136.684 85.7267 135.09 85.5715C133.496 85.4163 131.791 85.6689 130.516 86.7889C128.929 88.1721 128.323 90.5931 128.201 92.8756C128.079 95.1581 128.348 97.4634 128.078 99.7231C127.808 101.983 126.846 104.341 125.036 105.283C123.639 106.011 121.891 105.83 120.718 106.957C119.476 108.155 119.403 110.285 119.432 112.149C119.509 117.285 119.586 127.314 119.662 132.45" stroke="#2A373F" stroke-width="1.8" stroke-miterlimit="10" stroke-linecap="round"/>
<path d="M130.873 126.864C130.526 127.807 130.74 128.469 130.973 129.256C131.206 130.043 131.524 130.843 131.43 131.666C131.336 132.49 130.592 133.279 129.93 132.948C129.165 132.566 129.468 130.994 130.292 130.842C131.116 130.689 131.849 131.718 131.758 132.668C131.666 133.617 130.964 134.381 130.186 134.717C129.408 135.054 128.55 135.391 127.715 135.382L109.252 135.198" stroke="#2A373F" stroke-width="1.8" stroke-miterlimit="10" stroke-linecap="round"/>
<path d="M165.883 126.815H130.922" stroke="#2A373F" stroke-width="1.8" stroke-miterlimit="10" stroke-linecap="round"/>
<path d="M41.5557 120.928C40.778 120.728 39.9663 120.8 39.2243 121.134C38.4823 121.468 37.8438 122.049 37.3906 122.803C36.9374 123.557 36.6901 124.449 36.6804 125.366C36.6706 126.282 36.8989 127.181 37.336 127.948C38.3029 129.644 40.2659 130.705 40.4591 132.721C40.6085 134.272 39.7553 135.091 38.4934 135.663C37.2315 136.235 35.8293 136.049 34.4721 136.058C24.2867 136.125 14.1779 135.841 4.03081 135.145" stroke="#2A373F" stroke-width="1.8" stroke-miterlimit="10" stroke-linecap="round"/>
<path d="M209.624 120.27L166.994 119.924" stroke="#2A373F" stroke-width="1.8" stroke-miterlimit="10" stroke-linecap="round"/>
<path d="M166.897 120.191C166.995 124.786 166.995 130.903 166.995 135.491" stroke="#2A373F" stroke-width="1.8" stroke-miterlimit="10" stroke-linecap="round"/>
<path d="M104.797 135.337C96.4636 135.563 88.13 135.793 79.8097 135.875C78.6192 135.887 77.3863 135.957 76.2487 135.528C75.1111 135.099 74.0582 134.1 73.8108 132.751C73.6455 131.838 73.8531 130.913 73.9682 129.997C74.0833 129.081 74.0767 128.058 73.5714 127.339C73.0661 126.619 71.9007 126.517 71.5396 127.339C71.0925 128.364 72.4272 129.443 73.3359 128.973C74.2447 128.503 74.6256 127.26 74.791 126.129C75.1359 123.935 75.0087 121.678 74.4206 119.554" stroke="#2A373F" stroke-width="1.8" stroke-miterlimit="10" stroke-linecap="round"/>
<path d="M280.28 129.997V109.578H209.622V135.642H267.862" stroke="#2A373F" stroke-width="1.8" stroke-miterlimit="10" stroke-linecap="round"/>
<path d="M209.624 135.642H134.328" stroke="#2A373F" stroke-width="1.8" stroke-miterlimit="10" stroke-linecap="round"/>
<path d="M293.399 135.642H280.28" stroke="#2A373F" stroke-width="1.8" stroke-miterlimit="10" stroke-linecap="round"/>
<path d="M142.599 131.173H136.969" stroke="#2A373F" stroke-width="1.8" stroke-miterlimit="10" stroke-linecap="round"/>
<path d="M161.209 131.173H145.961" stroke="#2A373F" stroke-width="1.8" stroke-miterlimit="10" stroke-linecap="round"/>
<path d="M270.03 120.825H213.281" stroke="#2A373F" stroke-width="1.8" stroke-miterlimit="10" stroke-linecap="round"/>
<path d="M107.15 83.4974L110.289 86.9562" stroke="#2A373F" stroke-width="1.8" stroke-miterlimit="10" stroke-linecap="round"/>
<path d="M110.163 87.1076C109.935 87.9004 109.326 88.4528 108.88 89.1117C108.434 89.7706 108.159 90.7703 108.633 91.4033C109.15 92.0942 110.128 91.8294 110.827 91.4033C112.404 90.4313 113.693 88.9418 114.531 87.1244C114.796 86.5325 114.998 85.7244 114.582 85.2542C114.251 84.8799 113.675 84.9499 113.302 85.2725C112.929 85.5951 112.708 86.0866 112.509 86.5659" stroke="#2A373F" stroke-width="1.8" stroke-miterlimit="10" stroke-linecap="round"/>
<path d="M46.3125 82.6431C47.0162 86.0045 44.5545 89.1741 41.938 90.8753C39.3215 92.5766 36.2685 93.6144 34.2579 96.186C32.5555 98.362 31.8478 101.416 32.0091 104.339C32.1705 107.262 33.1216 110.067 34.4008 112.599C37 117.745 41.3679 122.128 46.5255 122.596C50.0877 122.92 53.6024 121.355 56.6435 119.195C65.5326 112.885 71.2338 101.033 71.1597 89.0174" stroke="#2A373F" stroke-width="1.8" stroke-miterlimit="10" stroke-linecap="round"/>
<path d="M276.509 102.536V80.6881" stroke="#2A373F" stroke-width="1.8" stroke-miterlimit="10" stroke-linecap="round"/>
<path d="M264.385 76.3136C257.716 74.9958 250.921 74.7484 244.193 75.5787" stroke="#2A373F" stroke-width="1.8" stroke-miterlimit="10" stroke-linecap="round"/>
<path d="M226.298 67.709L226.563 80.66" stroke="#2A373F" stroke-width="1.8" stroke-miterlimit="10" stroke-linecap="round"/>
<path d="M231.992 80.9399L231.727 67.6161" stroke="#2A373F" stroke-width="1.8" stroke-miterlimit="10" stroke-linecap="round"/>
<path d="M231.824 74.2489C230.077 73.7998 228.256 73.922 226.566 74.6019" stroke="#2A373F" stroke-width="1.8" stroke-miterlimit="10" stroke-linecap="round"/>
<path d="M231.671 67.4926C229.894 66.6801 228.07 66.884 226.299 67.7087" stroke="#2A373F" stroke-width="1.8" stroke-miterlimit="10" stroke-linecap="round"/>
<path d="M264.447 65.3744C263.626 63.967 262.553 62.7774 261.3 61.8852C260.047 60.993 258.643 60.4187 257.181 60.2007" stroke="#2A373F" stroke-width="1.8" stroke-miterlimit="10" stroke-linecap="round"/>
<path d="M257.481 38.4067L257.1 60.1667" stroke="#2A373F" stroke-width="1.8" stroke-miterlimit="10" stroke-linecap="round"/>
<path d="M257.372 41.0123C255.022 39.2517 251.772 39.2076 249.268 40.6608" stroke="#2A373F" stroke-width="1.8" stroke-miterlimit="10" stroke-linecap="round"/>
<path d="M249.218 38.6302C249.382 46.0256 249.52 53.2049 249.684 60.6002" stroke="#2A373F" stroke-width="1.8" stroke-miterlimit="10" stroke-linecap="round"/>
<path d="M257.372 44.5909C254.766 43.3735 252.035 43.3461 249.344 44.2865" stroke="#2A373F" stroke-width="1.8" stroke-miterlimit="10" stroke-linecap="round"/>
<path d="M257.372 38.3352C255.803 37.5987 254.396 37.3827 252.703 37.2944C251.406 37.2274 250.02 37.3431 249.223 38.5193" stroke="#2A373F" stroke-width="1.8" stroke-miterlimit="10" stroke-linecap="round"/>
<path d="M156.852 58.9401C154.794 60.1711 155.044 64.1305 157.011 65.5441C158.978 66.9578 161.72 66.0934 163.334 64.1746C164.947 62.2558 165.639 59.5563 165.998 56.9269C166.356 54.2974 166.44 51.5904 167.093 49.0309C167.746 46.4714 169.098 43.9744 171.227 42.9122C172.449 42.3036 173.844 42.2047 175.014 41.4712C176.28 40.6799 177.19 38.615 176.043 37.3885C175.345 36.6429 174.264 36.681 173.53 37.3885C172.15 38.7231 172.305 40.8488 172.815 42.6216C173.225 44.0474 173.874 45.4336 174.903 46.3543C175.932 47.2749 177.407 47.6446 178.581 46.9858C180.216 46.0804 180.71 43.7339 181.71 41.9931C184.091 37.842 189.549 37.4281 193.369 39.7624C195.785 40.8784 197.908 42.6974 199.529 45.0411C201.15 47.3847 202.215 50.1727 202.618 53.1318L202.743 54.0448L202.325 83.261" stroke="#2A373F" stroke-width="1.8" stroke-miterlimit="10" stroke-linecap="round"/>
<path d="M161.829 75.4089L160.242 81.7498L162.616 84.4584L158.261 83.3932L155.473 87.208L156.611 81.1381C156.611 81.1381 154.689 78.2469 154.767 78.2727C154.845 78.2986 158.406 79.4901 158.406 79.4901L161.829 75.4089Z" stroke="#2A373F" stroke-width="1.8" stroke-miterlimit="10" stroke-linecap="round"/>
<path d="M125.387 71.6086L127.019 75.0065L128.985 74.9974L126.79 76.6393L127.011 79.5594L125.292 76.4887C125.292 76.4887 123.448 76.2071 123.487 76.1843C123.527 76.1615 125.442 74.9487 125.442 74.9487L125.387 71.6086Z" stroke="#2A373F" stroke-width="1.8" stroke-miterlimit="10" stroke-linecap="round"/>
<path d="M156.936 59.1455C157.321 58.861 157.862 59.1455 158.101 59.602C158.341 60.0585 158.341 60.6109 158.341 61.1389L158.333 73.676" stroke="#2A373F" stroke-width="1.8" stroke-miterlimit="10" stroke-linecap="round"/>
<path d="M53.6055 107.778C55.3156 105.678 56.5746 103.146 57.2816 100.386C57.7393 98.593 57.6149 96.0624 56.0316 95.6044C55.6815 95.5122 55.316 95.5332 54.9756 95.6651C54.6353 95.7969 54.3332 96.0345 54.1029 96.3516C53.251 97.4776 53.2722 98.9962 53.5487 100.358C54.558 105.348 58.7261 108.88 63.0886 109.902C67.4512 110.925 71.9738 109.902 76.261 108.522C81.777 106.745 87.2943 104.276 91.5021 99.8058C97.7073 93.2123 100.192 82.4084 97.788 73.1216C97.6574 72.6217 97.3941 72.1814 97.0349 71.8624C96.6758 71.5434 96.2388 71.3617 95.7853 71.3428L93.8395 71.2576C93.7633 71.253 93.6869 71.253 93.6107 71.2576C91.6902 71.4029 89.7647 71.0795 87.9605 70.3085C86.1564 69.5375 84.5143 68.3363 83.1421 66.7838C82.494 66.0413 81.863 65.0461 82.3484 63.9733C82.4604 63.734 82.6134 63.5233 82.7982 63.354C83.408 62.7834 84.1673 62.6266 84.8935 62.3847C86.2686 61.9192 87.5492 61.1428 88.6603 60.1011C89.7714 59.0594 90.6908 57.7732 91.3646 56.3177" stroke="#2A373F" stroke-width="1.8" stroke-miterlimit="10" stroke-linecap="round"/>
<path d="M88.2877 69.9194C87.4014 69.1083 87.5456 67.4132 88.2745 66.4195C89.0034 65.4258 90.1171 64.9374 91.1727 64.4672C92.2283 63.997 93.3355 63.4477 93.985 62.381C94.6623 61.2671 94.7059 59.8215 94.9017 58.4809C95.0975 57.1403 95.5962 55.6673 96.702 55.1849" stroke="#2A373F" stroke-width="1.8" stroke-miterlimit="10" stroke-linecap="round"/>
<path d="M255.724 53.4049L255.605 55.8974" stroke="#2A373F" stroke-width="1.8" stroke-miterlimit="10" stroke-linecap="round"/>
<path d="M52.6522 76.6607C51.8019 76.7959 50.9617 77.0049 50.1389 77.2861C43.4204 79.5808 37.9586 84.4532 37.1173 94.2574C36.4202 102.392 39.7973 116.524 52.8929 121.369C59.9553 123.982 68.6976 121.41 75.8341 119.103C83.1676 116.733 90.1374 111.824 94.0886 104.328L97.2818 96.581C97.4524 95.7821 97.5873 94.933 97.3744 94.1463C97.0463 92.9381 95.6336 91.981 94.6812 93.8572C94.4166 96.6464 96.9114 97.9657 98.8294 97.3281C100.31 96.8336 101.445 95.423 102.176 93.8633C102.908 92.3035 103.308 90.5704 103.823 88.898C104.338 87.2257 104.999 85.5504 106.129 84.3482C108.061 82.2833 111.023 81.9135 112.987 79.8973C113.524 79.3434 113.989 78.6435 114.01 77.767C114.019 77.5162 113.977 77.2664 113.887 77.0377C113.797 76.8091 113.661 76.608 113.491 76.4507C113.175 76.1662 112.926 76.2057 112.613 76.3746C112.132 76.6411 111.716 77.0418 111.404 77.5402C110.441 79.0467 109.598 79.7315 108.137 80.8453C107.95 80.9922 107.731 81.0732 107.505 81.0783C107.28 81.0835 107.058 81.0125 106.867 80.8742C105.748 80.0221 107.518 77.9922 108.414 77.3744C109.065 76.9285 109.613 76.2605 109.869 75.5164C109.95 75.2843 109.969 75.0298 109.924 74.7854C109.878 74.5409 109.771 74.3174 109.615 74.1433C109.459 73.9692 109.262 73.8523 109.048 73.8074C108.834 73.7625 108.614 73.7917 108.414 73.8913C107.32 74.4238 106.872 75.8086 106.224 77.0868C105.816 77.8887 105.327 79.1273 104.636 79.6173C103.741 80.258 102.032 79.3556 103.181 77.7791C104.828 76.7804 106.141 75.1842 106.917 73.2385C106.957 73.1388 106.972 73.0282 106.96 72.9192C106.948 72.8102 106.91 72.7074 106.849 72.6224C106.789 72.5374 106.709 72.4737 106.618 72.4387C106.528 72.4037 106.43 72.3987 106.338 72.4244C105.521 72.6484 104.815 73.2355 104.373 74.0571C104.098 74.5806 103.644 74.9853 103.338 75.486C102.929 76.1555 102.499 76.9011 101.761 76.0292C101.322 75.1953 101.628 74.3447 102.125 73.7589C102.621 73.173 103.08 72.3026 103.648 71.8385C104.177 71.4109 104.664 70.8296 104.786 70.1145C104.809 69.9868 104.81 69.8551 104.788 69.7272C104.765 69.5993 104.721 69.4779 104.657 69.3704C104.592 69.2628 104.51 69.1714 104.414 69.1015C104.318 69.0317 104.211 68.9849 104.099 68.9641C103.519 68.8697 103.173 69.3658 102.876 69.8253L100.548 72.7835C99.0027 72.2539 98.1032 70.3488 97.9022 68.503C97.7011 66.6572 98.0239 64.8084 98.0728 62.9565C98.1461 59.8347 97.4405 56.7541 96.0397 54.079C95.3783 52.8099 94.4894 51.5896 93.2724 51.0996C91.5885 50.4209 89.7458 51.2944 88.2008 52.3169C84.884 54.515 81.9838 57.4554 79.6715 60.9646" stroke="#2A373F" stroke-width="1.8" stroke-miterlimit="10" stroke-linecap="round"/>
<path d="M255.634 47.1698L255.729 51.324" stroke="#2A373F" stroke-width="1.8" stroke-miterlimit="10" stroke-linecap="round"/>
<path d="M55.3657 73.726C58.1237 74.3529 60.5338 75.6129 64.5141 74.0212C65.5855 73.5936 66.8541 74.1734 67.743 73.0412C67.9076 72.8398 68.0312 72.5987 68.1048 72.3355C68.1785 72.0724 68.2004 71.7937 68.1689 71.5196C67.9798 70.0953 66.4374 69.7057 65.2138 69.6159C61.1767 69.3192 61.3195 71.0965 53.105 68.7242C52.4701 68.5401 51.437 67.7641 50.8801 68.1597C50.1512 68.6801 51.2108 70.5244 51.1447 71.5074C51.0785 72.4904 51.1248 73.5282 50.7293 74.3986C50.6264 74.621 50.4893 74.82 50.3245 74.9859C49.7491 75.5703 48.6909 76.6857 49.216 77.3293L51.9912 80.7303C52.471 81.3131 52.8723 81.9753 53.1817 82.6948C53.7982 84.1388 54.8127 84.7003 56.1038 83.9258C57.0297 83.3673 57.9398 82.8439 58.842 82.2291C59.7679 81.5976 61.2481 81.5139 61.6277 82.7115C61.7135 83.0123 61.7174 83.3361 61.639 83.6396C61.5605 83.943 61.4034 84.2117 61.1886 84.4097C60.4915 85.0914 59.5377 85.0397 58.7097 84.7475C56.8234 84.081 55.367 82.2824 54.4768 80.2586C53.5865 78.2347 53.1778 75.9811 52.7823 73.7579L51.1354 64.5259C50.9661 63.5764 50.7968 62.5995 50.9476 61.6454C51.2756 59.5653 53.0495 58.1668 54.826 57.6267C56.6025 57.0865 58.4795 57.1701 60.2812 56.7486C62.0828 56.3271 63.9479 55.227 64.5948 53.2488C65.1014 51.7012 64.7403 49.9209 63.9902 48.5103C63.2402 47.0997 62.1384 45.9873 61.0603 44.8978" stroke="#2A373F" stroke-width="1.8" stroke-miterlimit="10" stroke-linecap="round"/>
<path d="M74.9256 110.455L79.6559 100.838C81.2578 97.5836 82.8835 94.2541 83.492 90.5808C84.6376 83.6907 82.3756 79.2717 76.681 73.4833C75.6691 72.4561 73.9534 71.0486 73.382 69.6425C72.7933 68.1939 73.8767 65.9312 75.2101 66.5992C76.1889 67.0907 76.3834 68.3187 75.7048 69.2682C74.6465 70.7549 72.9018 70.3227 71.6689 69.4052C68.6265 67.1409 67.6371 61.9155 69.5789 58.4004C70.7602 56.2594 71.0181 55.1805 76.722 54.336C78.1003 54.1321 77.1188 50.8483 78.1916 49.9536C78.7578 49.4773 79.058 49.7755 79.5779 49.6066C79.6849 49.569 79.7787 49.4934 79.8459 49.3906C79.9132 49.2878 79.9504 49.1631 79.9522 49.0345C79.9774 48.2919 80.1388 47.6497 80.1546 46.9422C80.1567 46.9064 80.167 46.8719 80.1846 46.8422C80.2021 46.8125 80.2261 46.7887 80.2542 46.7732C80.2824 46.7577 80.3136 46.7511 80.3446 46.7541C80.3757 46.757 80.4055 46.7694 80.4311 46.79C80.9509 47.1887 81.9325 47.0943 82.5978 47.0411C83.3597 46.9756 82.7407 45.0386 82.5713 44.1803C82.402 43.3221 82.0224 42.543 81.7539 41.7198C80.5806 38.1332 81.5753 34.1418 82.5727 30.4852C83.5992 26.7318 84.6248 22.9753 85.6495 19.2157" stroke="#2A373F" stroke-width="1.8" stroke-miterlimit="10" stroke-linecap="round"/>
<path d="M85.5969 19.4297C86.5282 15.8416 84.7953 12.9657 82.282 10.5782C79.7687 8.19064 75.9988 7.72958 73.1085 9.45668C71.7486 10.2693 70.5595 11.5231 69.0687 11.9294C66.6744 12.5822 64.2696 10.8642 62.5473 8.83736C60.825 6.81048 59.3978 4.37732 57.272 2.94694C55.1463 1.51657 51.9531 1.56831 50.6859 3.99386C49.3631 6.52289 50.6528 10.464 48.6488 12.3053C47.2096 13.6261 45.0944 12.8424 43.2796 13.2015C40.7292 13.7082 38.9448 16.5492 38.3746 19.4526C37.8045 22.3559 38.1722 25.378 38.3257 28.3513C38.4791 31.3247 38.3773 34.4776 37.0122 37.0082C35.647 39.5387 33.2105 41.0558 30.8175 42.2321C28.4246 43.4083 25.8994 44.4126 23.9258 46.3619C21.9522 48.3112 20.64 51.5356 21.5659 54.3401" stroke="#2A373F" stroke-width="1.8" stroke-miterlimit="10" stroke-linecap="round"/>
<path d="M21.1405 53.8615C21.6484 57.095 22.159 60.3925 21.7754 63.6474C21.3918 66.9022 19.9618 70.1708 17.4512 71.7351C15.68 72.8368 13.5146 73.027 11.906 74.4208C9.66788 76.3579 9.19697 80.1484 10.0224 83.2268C10.8478 86.3051 12.6971 88.857 14.4617 91.3601C16.2263 93.8633 17.9988 96.5156 18.6179 99.6593C19.5015 104.139 17.9036 108.698 16.8983 113.144C16.6033 114.453 16.3572 115.832 16.6337 117.145C16.9102 118.458 17.8454 119.682 19.0147 119.732C20.741 119.815 21.8362 117.058 20.8812 115.401C19.9261 113.744 17.6814 113.549 16.2779 114.709C14.967 115.792 14.3691 117.655 13.5 119.222C12.6309 120.789 11.0833 122.235 9.54356 121.675C8.64009 121.346 8.021 120.417 7.435 119.558C6.84901 118.7 6.15587 117.811 5.22198 117.63C4.28809 117.449 3.18226 118.447 3.49311 119.478" stroke="#2A373F" stroke-width="1.8" stroke-miterlimit="10" stroke-linecap="round"/>
<path d="M81.7376 33.8485C82.0974 32.4988 81.9136 30.9482 80.9916 30.265C80.0696 29.5818 78.6516 30.1296 78.2759 31.315C78.0669 31.9738 78.1224 32.791 77.5007 33.1638C77.264 33.2977 76.9944 33.3342 76.7371 33.2672C76.4798 33.2002 76.2502 33.0337 76.0867 32.7955C75.293 31.6817 75.6303 30.3472 75.5867 29.0766C75.5523 28.0783 75.1118 26.9234 74.2506 26.7941C73.4371 26.6693 72.7731 27.5321 72.3855 28.3644C71.9979 29.1968 71.6514 30.1646 70.9066 30.5648C69.9542 31.076 68.8193 30.3761 68.138 29.4539C67.4568 28.5318 67.0229 27.3799 66.265 26.5415C65.507 25.703 64.208 25.2815 63.4302 26.0956C62.6736 26.8869 62.8416 28.3218 62.323 29.3337C61.741 30.4689 60.2608 30.5617 59.364 29.8359C58.5848 29.2059 57.5451 30.1661 57.9367 31.1658C57.9792 31.2775 58.0319 31.3836 58.0941 31.4823C58.6695 32.3953 59.6457 32.8168 60.4301 33.4894C61.1894 34.1422 61.8005 35.3459 61.368 36.2893C61.3005 36.4343 61.1931 36.5494 61.0627 36.6166C60.9322 36.6838 60.786 36.6993 60.6471 36.6606C59.7502 36.4065 59.2211 35.7369 58.8428 34.9381C58.4936 34.2001 57.7264 33.9764 57.1576 34.5029C55.0292 36.481 59.4446 44.4577 62.831 46.6337" stroke="#2A373F" stroke-width="1.8" stroke-miterlimit="10" stroke-linecap="round"/>
<path d="M59.6137 40.6355C60.8199 40.6054 62.0153 40.9015 63.1039 41.4998C64.1925 42.0982 65.1437 42.9821 65.8811 44.0805C66.1854 44.537 66.4592 45.1457 66.2621 45.6798C66.1863 45.8551 66.0743 46.0064 65.936 46.1205C65.7976 46.2346 65.6371 46.3079 65.4684 46.3342C65.1295 46.3805 64.7858 46.3432 64.4604 46.2246C63.2865 45.8453 62.2173 45.1247 61.3557 44.1322C60.4941 43.1397 59.8691 41.9088 59.541 40.5579" stroke="#2A373F" stroke-width="1.8" stroke-miterlimit="10" stroke-linecap="round"/>
<path d="M64.4432 44.8321L63.705 44.2448" stroke="#2A373F" stroke-width="1.8" stroke-miterlimit="10" stroke-linecap="round"/>
<path d="M59.0499 41.2142C59.5313 43.6029 59.3461 46.1053 58.5208 48.366C58.4049 48.7221 58.2331 49.0506 58.0142 49.3354C57.9084 49.4873 57.7705 49.6056 57.6138 49.679C57.457 49.7524 57.2866 49.7784 57.1186 49.7546C56.9506 49.7308 56.7908 49.658 56.6542 49.5431C56.5176 49.4281 56.4088 49.2749 56.3382 49.098C56.1828 48.7496 56.0926 48.3675 56.0736 47.9765C55.973 46.6441 56.1742 45.3045 56.6575 44.0882C57.1409 42.8719 57.8899 41.8203 58.8316 41.0361" stroke="#2A373F" stroke-width="1.8" stroke-miterlimit="10" stroke-linecap="round"/>
<path d="M57.5138 47.316L57.1725 48.229" stroke="#2A373F" stroke-width="1.8" stroke-miterlimit="10" stroke-linecap="round"/>
<path d="M60.9366 44.3536C61.6956 45.2005 62.1939 46.3091 62.3559 47.5111C62.4459 48.1928 62.389 48.9856 61.9287 49.43C61.3228 50.0173 60.3268 49.6369 59.8678 48.8958C59.4088 48.1548 59.3387 47.1946 59.2818 46.2846" stroke="#2A373F" stroke-width="1.8" stroke-miterlimit="10" stroke-linecap="round"/>
<path d="M61.1079 48.2365L60.7324 47.1044" stroke="#2A373F" stroke-width="1.8" stroke-miterlimit="10" stroke-linecap="round"/>
<path d="M58.3642 40.8417C57.3841 42.1352 56.1193 43.1013 54.7027 43.6386C53.9646 43.917 53.1154 44.0616 52.4434 43.6127C51.6987 43.1166 51.3984 41.9556 51.6683 41.0137C51.9381 40.0718 52.6841 39.3733 53.5122 39.0994C54.3403 38.8255 55.2318 38.932 56.0585 39.2288C56.8853 39.5255 57.6459 40.0018 58.4012 40.475" stroke="#2A373F" stroke-width="1.8" stroke-miterlimit="10" stroke-linecap="round"/>
<path d="M55.866 46.4847C55.5575 46.5072 55.2482 46.4552 54.9582 46.332C54.6682 46.2088 54.4038 46.0171 54.182 45.7693C53.9603 45.5215 53.7861 45.2231 53.6706 44.8932C53.5551 44.5633 53.5009 44.2092 53.5115 43.8538" stroke="#2A373F" stroke-width="1.8" stroke-miterlimit="10" stroke-linecap="round"/>
<path d="M54.7877 42.0228L53.9345 42.4139" stroke="#2A373F" stroke-width="1.8" stroke-miterlimit="10" stroke-linecap="round"/>
<path d="M74.6218 35.364C73.2896 34.0054 71.5862 33.2258 69.8067 33.1605C68.0273 33.0952 66.2841 33.7482 64.8794 35.0064" stroke="#2A373F" stroke-width="1.8" stroke-miterlimit="10" stroke-linecap="round"/>
<path d="M64.8805 35.014C67.2272 35.1662 69.6889 36.1157 71.9059 37.0166C72.435 37.2296 72.98 37.4868 73.3253 37.9935C73.6705 38.5002 73.7142 39.331 73.275 39.7297C72.8358 40.1284 72.189 39.9108 71.7022 39.5943C71.3559 39.3925 71.0555 39.1001 70.8252 38.7406C70.7116 38.5598 70.6381 38.3498 70.6111 38.1289C70.5842 37.908 70.6045 37.6829 70.6704 37.4731C70.8212 37.0637 71.2498 36.7868 71.6136 36.9374" stroke="#2A373F" stroke-width="1.8" stroke-miterlimit="10" stroke-linecap="round"/>
<path d="M284.503 39.6392C283.212 39.6392 282.166 38.4354 282.166 36.9504C282.166 35.4654 283.212 34.2616 284.503 34.2616C285.794 34.2616 286.841 35.4654 286.841 36.9504C286.841 38.4354 285.794 39.6392 284.503 39.6392Z" stroke="#2A373F" stroke-width="1.8" stroke-miterlimit="10" stroke-linecap="round"/>
<path d="M83.1371 30.9406C84.1252 29.3885 85.1411 27.8044 86.5274 26.7301C87.9137 25.6558 89.7695 25.1735 91.2775 26.0013C92.7855 26.829 93.6215 29.2348 92.6717 30.8174C92.3726 31.2948 91.9526 31.6544 91.4692 31.847C90.9857 32.0395 90.4623 32.0557 89.9706 31.8932C88.9745 31.5386 88.2602 29.9972 88.9587 29.1085C89.3462 28.6155 90.0275 28.5303 90.5553 28.7966C91.0831 29.0629 91.4667 29.6198 91.7021 30.2239C92.2312 31.5767 92.0381 33.2855 91.173 34.375C90.3079 35.4646 88.7695 35.8085 87.6465 35.0841C86.8528 34.5789 86.3832 33.1455 87.1174 32.5536C87.6134 32.158 88.3608 32.479 88.661 33.0816C88.9613 33.6842 88.9018 34.4511 88.6888 35.0963C88.0751 36.9695 86.1755 38.1518 84.4744 37.7151" stroke="#2A373F" stroke-width="1.8" stroke-miterlimit="10" stroke-linecap="round"/>
<path d="M270.662 109.577V51.3557C270.662 34.0649 258.476 20.0472 243.445 20.0472H242.075C227.043 20.0472 214.859 34.0649 214.859 51.3557V109.577" stroke="#2A373F" stroke-width="1.8" stroke-miterlimit="10" stroke-linecap="round"/>
<path d="M84.8899 22.3658C85.4111 19.8581 85.9482 18.0215 87.4284 16.7463C88.1756 16.1142 89.0383 15.6866 89.9508 15.4959C90.8634 15.3053 91.8017 15.3567 92.6944 15.6461C94.0582 16.1026 95.3399 17.253 95.6521 18.8416C95.9643 20.4303 94.9696 22.3415 93.5502 22.3765C92.6481 22.3993 91.7592 21.5898 91.6586 20.5596C91.5581 19.5294 92.3531 18.4749 93.246 18.5373" stroke="#2A373F" stroke-width="1.8" stroke-miterlimit="10" stroke-linecap="round"/>
<path d="M114.907 4.36243C114.775 7.6599 115.172 11.1354 117.614 12.0317C119.156 12.5993 121.421 11.5873 122.893 12.3619C126.738 14.3903 125.491 19.7572 125.494 19.7024" stroke="#2A373F" stroke-width="1.8" stroke-miterlimit="10" stroke-linecap="round"/>
<path d="M125.389 19.6546L122.837 18.9774" stroke="#2A373F" stroke-width="1.8" stroke-miterlimit="10" stroke-linecap="round"/>
<path d="M23.8503 14.8596L23.9945 22.4787L27.0687 24.7733L22.4839 24.9514L20.7643 30.1083L20.2471 22.9352C20.2471 22.9352 17.5697 20.295 17.6544 20.295C17.7391 20.295 21.5752 20.5203 21.5752 20.5203L23.8503 14.8596Z" stroke="#2A373F" stroke-width="1.8" stroke-miterlimit="10" stroke-linecap="round"/>
<path d="M122.694 18.9216C123.204 17.7713 122.959 16.6391 122.235 15.6607C121.863 15.1757 121.376 14.8245 120.835 14.6491C120.293 14.4737 119.719 14.4815 119.181 14.6716C118.3 15.0018 117.583 15.8448 116.668 16.0046C115.227 16.2541 113.873 14.6899 113.373 13.2382C112.873 11.7865 112.881 9.93766 112.989 8.38098" stroke="#2A373F" stroke-width="1.8" stroke-miterlimit="10" stroke-linecap="round"/>
<path d="M276.509 71.9631V2.60657H158.178V53.4823" stroke="#2A373F" stroke-width="1.8" stroke-miterlimit="10" stroke-linecap="round"/>
<path d="M231.728 70.2551C231.728 70.2551 228.782 69.6313 226.377 70.4256" stroke="#2A373F" stroke-width="1.8" stroke-miterlimit="10" stroke-linecap="round"/>
</svg>
