<svg width="12" height="12" viewBox="0 0 12 12" fill="none" xmlns="http://www.w3.org/2000/svg">
<path d="M6 0C4.39286 0 2.89286 0.627551 1.7602 1.7602C0.627551 2.89286 0 4.40051 0 6C0 9.30612 2.69388 12 6 12C7.59949 12 9.10714 11.3724 10.2398 10.2398C11.3724 9.10714 12 7.59949 12 6C12 2.69388 9.30612 0 6 0ZM9.41327 9.41327C8.50255 10.324 7.29337 10.8214 6 10.8214C3.33673 10.8214 1.17857 8.66327 1.17857 6C1.17857 4.71429 1.67602 3.49745 2.58673 2.58673C3.49745 1.67602 4.71429 1.17857 6 1.17857C8.66327 1.17857 10.8214 3.33673 10.8214 6C10.8214 7.28571 10.324 8.50255 9.41327 9.41327ZM5.38776 4.16327H6.61225V2.93878H5.38776V4.16327ZM5.38776 9.06122H6.61225V4.89796H5.38776V9.06122Z" fill="#767A7F"/>
</svg>
