<svg width="21" height="23" viewBox="0 0 21 23" fill="none" xmlns="http://www.w3.org/2000/svg">
<path d="M4.85162 13.9452H3.89209V15.3762H4.85162C5.23687 15.3762 5.54162 15.037 5.54162 14.6805C5.5409 14.2787 5.23687 13.9452 4.85162 13.9452Z" fill="#A86D37"/>
<path d="M8.71355 13.9739H7.75977V16.5484H8.71355C10.2653 16.5484 10.3336 13.9739 8.71355 13.9739Z" fill="#A86D37"/>
<path d="M16.5312 10.7812H0.71875C0.323437 10.7812 0 11.1047 0 11.5V18.6875C0 19.0828 0.323437 19.4062 0.71875 19.4062H16.5312C16.9273 19.4062 17.25 19.0828 17.25 18.6875V11.5C17.25 11.1047 16.9273 10.7812 16.5312 10.7812ZM4.85156 16.095H3.89203V16.854C3.89203 17.107 3.73103 17.25 3.52403 17.25C3.33428 17.25 3.13375 17.107 3.13375 16.8533V13.6182C3.13375 13.4284 3.28325 13.2207 3.52403 13.2207H4.85156C5.59906 13.2207 6.27181 13.7209 6.27181 14.6805C6.27109 15.589 5.59906 16.095 4.85156 16.095ZM8.76516 17.25H7.39738C7.20762 17.25 7.00062 17.1458 7.00062 16.8935V13.6297C7.00062 13.4227 7.20762 13.2732 7.39738 13.2732H8.71341C11.3397 13.2732 11.2822 17.25 8.76516 17.25ZM13.8862 14.0199H12.213V14.9335H13.6785C13.8863 14.9335 14.0925 15.1405 14.0925 15.3417C14.0925 15.5315 13.8863 15.686 13.6785 15.686H12.213V16.8928C12.213 17.094 12.07 17.2493 11.8687 17.2493C11.6157 17.2493 11.4605 17.094 11.4605 16.8928V13.6289C11.4605 13.4219 11.6164 13.2724 11.8687 13.2724H13.8862C14.1392 13.2724 14.288 13.4219 14.288 13.6289C14.288 13.8137 14.1392 14.0199 13.8862 14.0199Z" fill="#A86D37"/>
<path d="M19.4062 5.45244L14.6726 0.71875C14.2571 0.301875 13.5269 0 12.9375 0H5.03125C3.84244 0 2.875 0.967437 2.875 2.15625V9.34375C2.875 9.74122 3.19628 10.0625 3.59375 10.0625C3.99122 10.0625 4.3125 9.74122 4.3125 9.34375V2.15625C4.3125 1.76022 4.6345 1.4375 5.03125 1.4375H11.5C12.2942 1.4375 12.9375 2.0815 12.9375 2.875V5.57031C12.9375 6.46012 13.6663 7.1875 14.5547 7.1875H17.25C18.0442 7.1875 18.6875 7.8315 18.6875 8.625V20.8438C18.6875 21.2398 18.3662 21.5625 17.9688 21.5625H5.03125C4.6345 21.5625 4.3125 21.2398 4.3125 20.8438C4.3125 20.4463 3.99122 20.125 3.59375 20.125C3.19628 20.125 2.875 20.4463 2.875 20.8438C2.875 22.0326 3.84244 23 5.03125 23H17.9688C19.1576 23 20.125 22.0326 20.125 20.8438V7.1875C20.125 6.59884 19.8231 5.86859 19.4062 5.45244Z" fill="#A86D37"/>
</svg>
