<svg width="141" height="48" viewBox="0 0 141 48" fill="none" xmlns="http://www.w3.org/2000/svg">
<path d="M129.26 0.000155999H11.1904C10.7601 0.000155999 10.3348 0.000156 9.9056 0.00255599C9.54628 0.00495598 9.18983 0.011928 8.82707 0.0177959C8.03897 0.0272781 7.25273 0.0981672 6.47518 0.229847C5.69871 0.364394 4.94658 0.618053 4.2442 0.982245C3.54268 1.34952 2.90168 1.82675 2.34446 2.39663C1.78431 2.96491 1.31739 3.62176 0.961635 4.34193C0.604903 5.06067 0.357543 5.83086 0.2281 6.62591C0.0974263 7.41995 0.0271096 8.22315 0.0177809 9.0283C0.00688936 9.39622 0.00573918 9.76536 0 10.1333V37.8703C0.00573918 38.2429 0.00688936 38.6039 0.0177809 38.9766C0.0271124 39.7817 0.0974291 40.5849 0.2281 41.3789C0.357186 42.1744 0.60456 42.945 0.961635 43.664C1.31722 44.3819 1.78422 45.0361 2.34446 45.6012C2.89957 46.1736 3.54098 46.6512 4.2442 47.0156C4.94657 47.3808 5.69863 47.636 6.47518 47.7726C7.25286 47.9032 8.03902 47.9741 8.82707 47.9848C9.18983 47.9929 9.54628 47.9976 9.9056 47.9976C10.3348 48 10.7601 48 11.1904 48H129.26C129.682 48 130.111 48 130.533 47.9976C130.89 47.9976 131.257 47.9929 131.615 47.9848C132.401 47.9747 133.186 47.9038 133.962 47.7726C134.741 47.635 135.496 47.3799 136.201 47.0156C136.904 46.651 137.545 46.1734 138.099 45.6012C138.658 45.0339 139.126 44.3802 139.486 43.664C139.841 42.9445 140.086 42.1739 140.213 41.3789C140.344 40.5848 140.417 39.7818 140.431 38.9766C140.435 38.6039 140.435 38.2429 140.435 37.8703C140.444 37.4344 140.444 37.0008 140.444 36.5578V11.4435C140.444 11.004 140.444 10.5681 140.435 10.1333C140.435 9.76536 140.435 9.39622 140.431 9.02825C140.417 8.22304 140.344 7.42001 140.213 6.62586C140.085 5.83127 139.84 5.06114 139.486 4.34189C138.762 2.89838 137.613 1.72338 136.201 0.982137C135.496 0.618835 134.741 0.365243 133.962 0.229739C133.186 0.097479 132.401 0.0265652 131.615 0.0176279C131.257 0.011772 130.89 0.00473998 130.533 0.00239999C130.111 0 129.682 0 129.26 0V0.000155999Z" fill="#A6A6A6"/>
<path d="M9.91015 46.9497C9.55256 46.9497 9.20361 46.945 8.84882 46.9368C8.11386 46.927 7.38061 46.8616 6.6551 46.7411C5.97859 46.622 5.32324 46.4004 4.71065 46.0836C4.10369 45.7695 3.55009 45.3576 3.07106 44.8637C2.58509 44.3756 2.18051 43.8096 1.87333 43.1879C1.56277 42.5622 1.34784 41.8915 1.23603 41.1993C1.11529 40.4554 1.04997 39.7033 1.04062 38.9493C1.03318 38.6962 1.02344 37.8536 1.02344 37.8536V10.133C1.02344 10.133 1.03381 9.30329 1.04068 9.05954C1.04963 8.30676 1.11457 7.55577 1.23495 6.81306C1.34697 6.11889 1.56206 5.44629 1.87279 4.81855C2.17884 4.19733 2.58118 3.63083 3.06421 3.14101C3.54671 2.64655 4.10208 2.23253 4.71008 1.91405C5.32125 1.59832 5.97537 1.37828 6.65051 1.26133C7.37841 1.13961 8.1142 1.0738 8.85171 1.06446L9.91072 1.0498H130.526L131.597 1.06504C132.328 1.07392 133.057 1.13914 133.778 1.26015C134.46 1.37857 135.121 1.60014 135.74 1.91757C136.958 2.55938 137.949 3.57479 138.574 4.82148C138.88 5.44488 139.091 6.112 139.202 6.80017C139.324 7.54897 139.392 8.30587 139.406 9.06482C139.409 9.40466 139.409 9.7697 139.409 10.133C139.419 10.583 139.419 11.0113 139.419 11.4431V36.5574C139.419 36.9934 139.419 37.4188 139.409 37.8477C139.409 38.2379 139.409 38.5954 139.405 38.9633C139.391 39.7087 139.324 40.4521 139.204 41.1875C139.095 41.8848 138.881 42.5607 138.57 43.1915C138.261 43.8064 137.859 44.3676 137.379 44.8543C136.899 45.3509 136.344 45.7652 135.736 46.0813C135.12 46.4005 134.46 46.6229 133.778 46.7411C133.053 46.8622 132.32 46.9277 131.585 46.9368C131.241 46.945 130.881 46.9497 130.531 46.9497L129.259 46.9521L9.91015 46.9497Z" fill="#242E35"/>
<path d="M29.0701 24.3608C29.0827 23.3592 29.3429 22.3771 29.8265 21.506C30.3101 20.6348 31.0013 19.9029 31.8359 19.3783C31.3057 18.6041 30.6062 17.967 29.7931 17.5175C28.98 17.0681 28.0755 16.8187 27.1516 16.7891C25.1808 16.5776 23.2701 17.9949 22.2658 17.9949C21.2421 17.9949 19.6958 16.8101 18.0307 16.8451C16.9536 16.8807 15.904 17.2009 14.984 17.7746C14.064 18.3483 13.305 19.1558 12.781 20.1186C10.5112 24.1366 12.2043 30.0419 14.3786 33.2898C15.4664 34.8802 16.7378 36.6568 18.4014 36.5938C20.0294 36.5247 20.6374 35.5324 22.6024 35.5324C24.5492 35.5324 25.1197 36.5938 26.817 36.5537C28.5639 36.5247 29.6645 34.9562 30.7142 33.3507C31.4958 32.2175 32.0972 30.9651 32.4963 29.6397C31.4814 29.2009 30.6153 28.4663 30.0061 27.5275C29.3968 26.5888 29.0713 25.4874 29.0701 24.3608Z" fill="white"/>
<path d="M25.865 14.6536C26.8175 13.4845 27.2867 11.9819 27.1731 10.4648C25.718 10.6211 24.3738 11.3322 23.4085 12.4564C22.9365 13.0056 22.575 13.6445 22.3447 14.3366C22.1144 15.0287 22.0197 15.7605 22.0662 16.49C22.794 16.4977 23.514 16.3364 24.1721 16.0183C24.8301 15.7002 25.4089 15.2336 25.865 14.6536Z" fill="white"/>
<path d="M49.6488 32.5672H44.0934L42.7593 36.5949H40.4062L45.6682 21.6934H48.113L53.3749 36.5949H50.9818L49.6488 32.5672ZM44.6688 30.7086H49.0723L46.9015 24.1719H46.8408L44.6688 30.7086Z" fill="white"/>
<path d="M64.7379 31.1637C64.7379 34.5399 62.9705 36.709 60.3034 36.709C59.6278 36.7451 58.9559 36.586 58.3646 36.2499C57.7733 35.9137 57.2866 35.4141 56.9601 34.8082H56.9096V40.1895H54.7285V25.7309H56.8398V27.5379H56.8799C57.2214 26.935 57.7163 26.438 58.3121 26.0997C58.9079 25.7615 59.5822 25.5948 60.2633 25.6172C62.9601 25.6172 64.7379 27.7969 64.7379 31.1637ZM62.496 31.1637C62.496 28.9641 61.3842 27.518 59.6879 27.518C58.0214 27.518 56.9005 28.9946 56.9005 31.1637C56.9005 33.3528 58.0214 34.8188 59.6879 34.8188C61.3842 34.8188 62.496 33.3832 62.496 31.1637Z" fill="white"/>
<path d="M76.4351 31.1637C76.4351 34.5399 74.6678 36.709 72.0007 36.709C71.3251 36.7451 70.6531 36.586 70.0619 36.2498C69.4706 35.9137 68.9838 35.4141 68.6574 34.8082H68.6069V40.1894H66.4258V25.7309H68.537V27.5379H68.5771C68.9186 26.935 69.4135 26.4379 70.0093 26.0997C70.6051 25.7615 71.2794 25.5948 71.9605 25.6172C74.6575 25.6172 76.4351 27.7969 76.4351 31.1637ZM74.1933 31.1637C74.1933 28.9641 73.0815 27.518 71.3852 27.518C69.7187 27.518 68.5978 28.9946 68.5978 31.1637C68.5978 33.3528 69.7187 34.8188 71.3852 34.8188C73.0815 34.8188 74.1933 33.3832 74.1933 31.1637H74.1933Z" fill="white"/>
<path d="M84.1644 32.4434C84.326 33.9211 85.73 34.8914 87.6487 34.8914C89.4871 34.8914 90.8098 33.9211 90.8098 32.5886C90.8098 31.432 90.012 30.7394 88.1232 30.2648L86.2343 29.7996C83.5581 29.1387 82.3156 27.859 82.3156 25.7824C82.3156 23.2113 84.5071 21.4453 87.6189 21.4453C90.6986 21.4453 92.8098 23.2113 92.8809 25.7824H90.6791C90.5473 24.2953 89.345 23.3977 87.5879 23.3977C85.8309 23.3977 84.6285 24.3059 84.6285 25.6277C84.6285 26.6812 85.3965 27.3012 87.275 27.7757L88.8808 28.1788C91.8711 28.9019 93.1135 30.13 93.1135 32.3097C93.1135 35.0976 90.9415 36.8437 87.487 36.8437C84.2549 36.8437 82.0726 35.1386 81.9316 32.4433L84.1644 32.4434Z" fill="white"/>
<path d="M97.8204 23.1602V25.7312H99.8411V27.4973H97.8204V33.4867C97.8204 34.4172 98.225 34.8507 99.1133 34.8507C99.3532 34.8465 99.5927 34.8292 99.8308 34.7991V36.5546C99.4314 36.6309 99.0255 36.6655 98.6193 36.6577C96.468 36.6577 95.629 35.8316 95.629 33.7245V27.4973H94.084V25.7312H95.629V23.1602H97.8204Z" fill="white"/>
<path d="M101.012 31.164C101.012 27.7457 102.981 25.5977 106.051 25.5977C109.132 25.5977 111.092 27.7456 111.092 31.164C111.092 34.5918 109.143 36.7304 106.051 36.7304C102.961 36.7304 101.012 34.5918 101.012 31.164ZM108.87 31.164C108.87 28.8191 107.819 27.4352 106.051 27.4352C104.284 27.4352 103.234 28.8297 103.234 31.164C103.234 33.5183 104.284 34.8918 106.051 34.8918C107.819 34.8918 108.87 33.5183 108.87 31.164H108.87Z" fill="white"/>
<path d="M112.891 25.7308H114.971V27.58H115.021C115.162 27.0025 115.493 26.4921 115.958 26.1346C116.424 25.7771 116.996 25.5944 117.577 25.6171C117.829 25.6162 118.079 25.6441 118.325 25.7003V27.7863C118.007 27.6871 117.676 27.6416 117.345 27.6515C117.028 27.6384 116.712 27.6955 116.419 27.8189C116.125 27.9424 115.862 28.1293 115.646 28.3668C115.43 28.6042 115.267 28.8867 115.168 29.1947C115.069 29.5027 115.036 29.8289 115.072 30.1511V36.5952H112.891L112.891 25.7308Z" fill="white"/>
<path d="M128.38 33.4047C128.087 35.3769 126.208 36.7304 123.805 36.7304C120.714 36.7304 118.795 34.6128 118.795 31.2156C118.795 27.8078 120.724 25.5977 123.713 25.5977C126.653 25.5977 128.502 27.6625 128.502 30.9566V31.7207H120.997V31.8554C120.962 32.2553 121.011 32.6581 121.14 33.0371C121.27 33.4161 121.476 33.7626 121.747 34.0537C122.017 34.3447 122.345 34.5737 122.708 34.7252C123.072 34.8768 123.463 34.9475 123.855 34.9328C124.371 34.9821 124.888 34.8601 125.33 34.5848C125.772 34.3094 126.116 33.8955 126.309 33.4046L128.38 33.4047ZM121.007 30.1621H126.319C126.339 29.8026 126.286 29.4428 126.163 29.1054C126.04 28.7679 125.85 28.4601 125.605 28.2011C125.361 27.9422 125.066 27.7378 124.741 27.6008C124.415 27.4637 124.065 27.3969 123.713 27.4047C123.358 27.4025 123.006 27.4723 122.677 27.61C122.348 27.7477 122.05 27.9505 121.798 28.2069C121.547 28.4633 121.347 28.768 121.211 29.1036C121.076 29.4392 121.006 29.7989 121.007 30.1621V30.1621Z" fill="white"/>
<path d="M44.3948 10.4769C44.8521 10.4433 45.3109 10.514 45.7383 10.6837C46.1656 10.8534 46.5508 11.118 46.866 11.4583C47.1812 11.7987 47.4187 12.2063 47.5611 12.6518C47.7036 13.0974 47.7476 13.5697 47.69 14.0347C47.69 16.3222 46.4808 17.6371 44.3948 17.6371H41.8652V10.4769H44.3948ZM42.9529 16.6245H44.2733C44.6 16.6444 44.927 16.5896 45.2305 16.4641C45.5339 16.3386 45.8062 16.1454 46.0274 15.8988C46.2486 15.6521 46.4132 15.3581 46.5093 15.0381C46.6054 14.7182 46.6305 14.3804 46.5828 14.0493C46.627 13.7195 46.5994 13.3837 46.5018 13.0661C46.4043 12.7485 46.2392 12.4569 46.0185 12.2122C45.7978 11.9675 45.5269 11.7757 45.2251 11.6507C44.9234 11.5256 44.5984 11.4703 44.2733 11.4887H42.9529V16.6245Z" fill="white"/>
<path d="M48.918 14.9325C48.8848 14.5774 48.9245 14.2192 49.0347 13.8807C49.1448 13.5422 49.3229 13.231 49.5576 12.967C49.7923 12.703 50.0783 12.4921 50.3973 12.3478C50.7164 12.2035 51.0614 12.1289 51.4103 12.1289C51.7592 12.1289 52.1043 12.2035 52.4233 12.3478C52.7424 12.4921 53.0284 12.703 53.2631 12.967C53.4977 13.231 53.6759 13.5422 53.786 13.8807C53.8961 14.2192 53.9359 14.5774 53.9026 14.9325C53.9365 15.288 53.8972 15.6468 53.7874 15.9858C53.6775 16.3248 53.4995 16.6366 53.2648 16.9011C53.0301 17.1656 52.7438 17.377 52.4245 17.5216C52.1051 17.6663 51.7596 17.741 51.4103 17.741C51.061 17.741 50.7156 17.6663 50.3962 17.5216C50.0768 17.377 49.7906 17.1656 49.5559 16.9011C49.3211 16.6366 49.1431 16.3248 49.0333 15.9858C48.9234 15.6468 48.8842 15.288 48.918 14.9325ZM52.8298 14.9325C52.8298 13.7613 52.3152 13.0763 51.4121 13.0763C50.5055 13.0763 49.9955 13.7613 49.9955 14.9326C49.9955 16.1132 50.5055 16.7929 51.4121 16.7929C52.3152 16.7929 52.8298 16.1085 52.8298 14.9325H52.8298Z" fill="white"/>
<path d="M60.5291 17.6369H59.4472L58.3549 13.6572H58.2724L57.1847 17.6369H56.113L54.6562 12.2334H55.7142L56.6609 16.3566H56.7388L57.8254 12.2334H58.826L59.9125 16.3566H59.995L60.9372 12.2334H61.9801L60.5291 17.6369Z" fill="white"/>
<path d="M63.2051 12.2336H64.2091V13.092H64.287C64.4193 12.7837 64.6423 12.5253 64.925 12.3527C65.2077 12.1802 65.536 12.1021 65.8642 12.1293C66.1213 12.1096 66.3795 12.1492 66.6196 12.2453C66.8598 12.3414 67.0757 12.4916 67.2513 12.6846C67.427 12.8776 67.558 13.1085 67.6345 13.3603C67.711 13.6121 67.7311 13.8783 67.6934 14.1391V17.6371H66.6504V14.4069C66.6504 13.5385 66.2814 13.1067 65.51 13.1067C65.3354 13.0984 65.1611 13.1288 64.9991 13.1958C64.8371 13.2628 64.6911 13.3648 64.5712 13.4948C64.4514 13.6249 64.3604 13.7799 64.3047 13.9493C64.2489 14.1186 64.2296 14.2983 64.2481 14.476V17.6371H63.2051L63.2051 12.2336Z" fill="white"/>
<path d="M69.3555 10.124H70.3985V17.6369H69.3555V10.124Z" fill="white"/>
<path d="M71.8497 14.9326C71.8165 14.5775 71.8562 14.2192 71.9664 13.8807C72.0765 13.5422 72.2547 13.231 72.4894 12.967C72.724 12.703 73.0101 12.4921 73.3292 12.3478C73.6483 12.2035 73.9933 12.1289 74.3422 12.1289C74.6912 12.1289 75.0362 12.2035 75.3553 12.3478C75.6744 12.4921 75.9604 12.703 76.1951 12.967C76.4298 13.231 76.6079 13.5422 76.7181 13.8807C76.8283 14.2192 76.868 14.5775 76.8348 14.9326C76.8686 15.2881 76.8293 15.6469 76.7195 15.9859C76.6096 16.325 76.4316 16.6367 76.1968 16.9012C75.9621 17.1657 75.6758 17.3771 75.3564 17.5217C75.037 17.6663 74.6916 17.7411 74.3422 17.7411C73.9929 17.7411 73.6475 17.6663 73.3281 17.5217C73.0087 17.3771 72.7224 17.1657 72.4877 16.9012C72.2529 16.6367 72.0749 16.325 71.965 15.9859C71.8551 15.6469 71.8158 15.2881 71.8497 14.9326ZM75.7614 14.9326C75.7614 13.7614 75.2468 13.0764 74.3437 13.0764C73.4371 13.0764 72.9271 13.7614 72.9271 14.9327C72.9271 16.1133 73.4371 16.793 74.3437 16.793C75.2468 16.793 75.7615 16.1086 75.7615 14.9326H75.7614Z" fill="white"/>
<path d="M77.9316 16.1086C77.9316 15.1359 78.64 14.5752 79.8973 14.4955L81.3288 14.4111V13.9447C81.3288 13.374 80.9598 13.0518 80.2469 13.0518C79.6646 13.0518 79.2612 13.2703 79.1454 13.6523H78.1357C78.2422 12.7242 79.0961 12.1289 80.295 12.1289C81.62 12.1289 82.3672 12.8033 82.3672 13.9447V17.6367H81.3632V16.8773H81.2807C81.1132 17.1497 80.878 17.3718 80.5991 17.5208C80.3202 17.6699 80.0076 17.7406 79.6933 17.7257C79.4714 17.7493 79.2472 17.7251 79.035 17.6547C78.8229 17.5842 78.6275 17.4691 78.4615 17.3168C78.2956 17.1644 78.1627 16.9782 78.0714 16.7701C77.9801 16.562 77.9325 16.3366 77.9316 16.1086ZM81.3288 15.6469V15.1951L80.0383 15.2795C79.3105 15.3293 78.9804 15.5824 78.9804 16.0588C78.9804 16.5451 79.393 16.8281 79.9604 16.8281C80.1266 16.8453 80.2945 16.8281 80.4542 16.7776C80.6138 16.7271 80.7618 16.6443 80.8895 16.5341C81.0172 16.4239 81.1219 16.2885 81.1974 16.1361C81.2728 15.9837 81.3175 15.8173 81.3288 15.6469Z" fill="white"/>
<path d="M83.7383 14.9328C83.7383 13.2254 84.5968 12.1438 85.932 12.1438C86.2623 12.1282 86.5901 12.2091 86.8771 12.377C87.1641 12.5448 87.3984 12.7928 87.5527 13.0918H87.6306V10.124H88.6736V17.6369H87.6742V16.7832H87.5916C87.4254 17.0802 87.183 17.325 86.8904 17.4912C86.5979 17.6574 86.2664 17.7385 85.932 17.7259C84.5876 17.726 83.7383 16.6443 83.7383 14.9328ZM84.8157 14.9328C84.8157 16.0789 85.3441 16.7686 86.2278 16.7686C87.1068 16.7686 87.6501 16.069 87.6501 14.9375C87.6501 13.8113 87.1011 13.1018 86.2278 13.1018C85.3498 13.1018 84.8157 13.7961 84.8157 14.9328H84.8157Z" fill="white"/>
<path d="M92.9884 14.9325C92.9551 14.5774 92.9949 14.2192 93.105 13.8807C93.2151 13.5422 93.3932 13.231 93.6279 12.967C93.8626 12.703 94.1486 12.4921 94.4676 12.3478C94.7867 12.2035 95.1318 12.1289 95.4806 12.1289C95.8295 12.1289 96.1746 12.2035 96.4936 12.3478C96.8127 12.4921 97.0987 12.703 97.3334 12.967C97.568 13.231 97.7462 13.5422 97.8563 13.8807C97.9664 14.2192 98.0062 14.5774 97.9729 14.9325C98.0068 15.288 97.9675 15.6468 97.8577 15.9858C97.7478 16.3248 97.5698 16.6366 97.3351 16.9011C97.1004 17.1656 96.8141 17.377 96.4948 17.5216C96.1754 17.6663 95.83 17.741 95.4806 17.741C95.1313 17.741 94.7859 17.6663 94.4665 17.5216C94.1471 17.377 93.8609 17.1656 93.6262 16.9011C93.3914 16.6366 93.2134 16.3248 93.1036 15.9858C92.9937 15.6468 92.9545 15.288 92.9884 14.9325ZM96.9001 14.9325C96.9001 13.7613 96.3855 13.0763 95.4824 13.0763C94.5758 13.0763 94.0658 13.7613 94.0658 14.9326C94.0658 16.1132 94.5758 16.7929 95.4824 16.7929C96.3855 16.7929 96.9001 16.1085 96.9001 14.9325Z" fill="white"/>
<path d="M99.373 12.2336H100.377V13.092H100.455C100.587 12.7837 100.81 12.5253 101.093 12.3527C101.376 12.1802 101.704 12.1021 102.032 12.1293C102.289 12.1096 102.547 12.1492 102.788 12.2453C103.028 12.3414 103.244 12.4916 103.419 12.6846C103.595 12.8776 103.726 13.1085 103.802 13.3603C103.879 13.6121 103.899 13.8783 103.861 14.1391V17.6371H102.818V14.4069C102.818 13.5385 102.449 13.1067 101.678 13.1067C101.503 13.0984 101.329 13.1288 101.167 13.1958C101.005 13.2628 100.859 13.3648 100.739 13.4948C100.619 13.6249 100.528 13.7799 100.473 13.9493C100.417 14.1186 100.398 14.2983 100.416 14.476V17.6371H99.373V12.2336Z" fill="white"/>
<path d="M109.754 10.8877V12.2576H110.899V13.1559H109.754V15.9344C109.754 16.5004 109.982 16.7482 110.502 16.7482C110.634 16.7478 110.767 16.7396 110.899 16.7236V17.6119C110.712 17.6461 110.522 17.6644 110.332 17.6664C109.172 17.6664 108.71 17.2492 108.71 16.2074V13.1558H107.871V12.2576H108.71V10.8877H109.754Z" fill="white"/>
<path d="M112.324 10.124H113.358V13.1018H113.441C113.579 12.7906 113.808 12.5307 114.097 12.3574C114.385 12.1842 114.719 12.1061 115.052 12.1338C115.308 12.1196 115.564 12.1632 115.801 12.2617C116.038 12.3601 116.252 12.5109 116.425 12.7033C116.599 12.8957 116.729 13.125 116.807 13.3748C116.884 13.6245 116.906 13.8886 116.872 14.1482V17.6369H115.828V14.4113C115.828 13.5482 115.435 13.1111 114.698 13.1111C114.519 13.0961 114.338 13.1213 114.17 13.1849C114.001 13.2486 113.848 13.3492 113.721 13.4797C113.594 13.6102 113.497 13.7674 113.436 13.9404C113.375 14.1133 113.351 14.2979 113.367 14.481V17.6369H112.324L112.324 10.124Z" fill="white"/>
<path d="M122.953 16.1778C122.811 16.6717 122.504 17.0988 122.086 17.3846C121.667 17.6704 121.163 17.7966 120.663 17.7411C120.315 17.7505 119.969 17.6823 119.649 17.5413C119.329 17.4002 119.043 17.1897 118.811 16.9244C118.579 16.659 118.406 16.3451 118.304 16.0045C118.202 15.664 118.174 15.3048 118.222 14.952C118.175 14.5982 118.204 14.2383 118.305 13.8967C118.407 13.555 118.579 13.2397 118.81 12.972C119.041 12.7044 119.326 12.4905 119.645 12.3451C119.964 12.1996 120.309 12.126 120.658 12.129C122.129 12.129 123.016 13.1562 123.016 14.853V15.2251H119.284V15.2849C119.268 15.4831 119.292 15.6827 119.356 15.8708C119.419 16.0589 119.521 16.2314 119.653 16.3771C119.786 16.5229 119.946 16.6387 120.125 16.7172C120.304 16.7957 120.497 16.8351 120.692 16.8328C120.941 16.8635 121.194 16.8175 121.418 16.7009C121.642 16.5842 121.827 16.4022 121.949 16.1778L122.953 16.1778ZM119.284 14.4364H121.954C121.967 14.2551 121.943 14.0729 121.883 13.9016C121.823 13.7304 121.729 13.5738 121.606 13.442C121.484 13.3101 121.336 13.206 121.171 13.1362C121.007 13.0664 120.831 13.0324 120.653 13.0366C120.472 13.0343 120.293 13.0689 120.126 13.1385C119.959 13.208 119.807 13.311 119.68 13.4415C119.552 13.5719 119.452 13.7272 119.384 13.898C119.316 14.0689 119.282 14.252 119.284 14.4364H119.284Z" fill="white"/>
</svg>
