<svg width="160" height="48" viewBox="0 0 160 48" fill="none" xmlns="http://www.w3.org/2000/svg">
<path d="M154.074 48H5.92593C2.66667 48 0 45.3 0 42V6.00001C0 2.70001 2.66667 7.94729e-06 5.92593 7.94729e-06H154.074C157.333 7.94729e-06 160 2.70001 160 6.00001V42C160 45.3 157.333 48 154.074 48Z" fill="#242E35"/>
<path d="M154.074 7.94729e-06H5.92593C2.66667 7.94729e-06 0 2.70001 0 6.00001V42C0 45.3 2.66667 48 5.92593 48H154.074C157.333 48 160 45.3 160 42V6.00001C160 2.70001 157.333 7.94729e-06 154.074 7.94729e-06ZM154.074 0.96001C156.819 0.96001 159.052 3.22129 159.052 6.00001V42C159.052 44.7792 156.819 47.0405 154.074 47.0405H5.92593C3.18151 47.0405 0.948148 44.7792 0.948148 42V6.00001C0.948148 3.22129 3.18151 0.96001 5.92593 0.96001H154.074Z" fill="#A6A6A6"/>
<path d="M56.1996 12.292C56.1996 13.2974 55.9055 14.098 55.3166 14.6953C54.6477 15.4054 53.7759 15.7607 52.7041 15.7607C51.6777 15.7607 50.8051 15.4007 50.0874 14.6798C49.3685 13.9593 49.0098 13.0659 49.0098 11.9999C49.0098 10.9335 49.3685 10.0406 50.0874 9.31962C50.8051 8.59915 51.6777 8.23867 52.7041 8.23867C53.2134 8.23867 53.701 8.33946 54.1639 8.54058C54.6268 8.74218 54.9981 9.00979 55.2759 9.34495L54.6509 9.97819C54.1801 9.40867 53.5319 9.12415 52.7041 9.12415C51.9555 9.12415 51.3083 9.39043 50.7621 9.92335C50.2157 10.4569 49.9426 11.1487 49.9426 11.9999C49.9426 12.8512 50.2157 13.543 50.7621 14.0765C51.3083 14.6095 51.9555 14.8757 52.7041 14.8757C53.4982 14.8757 54.1602 14.608 54.6902 14.0719C55.0343 13.7225 55.2333 13.237 55.2865 12.6135H52.7041V11.7487H56.15C56.1833 11.9367 56.1996 12.1172 56.1996 12.292Z" fill="white"/>
<path d="M56.199 12.2921H56.0804C56.0795 13.2746 55.7961 14.0377 55.2322 14.6105L55.2309 14.6115L55.2304 14.6125C54.5827 15.2981 53.7502 15.6394 52.7035 15.6409C51.7045 15.6394 50.8683 15.2944 50.1701 14.5951C49.4735 13.8943 49.129 13.0388 49.1277 12.0001C49.129 10.9609 49.4735 10.1059 50.1701 9.40553C50.8683 8.70569 51.7045 8.36021 52.7035 8.35877C53.1975 8.35877 53.6679 8.45633 54.1165 8.65085C54.5655 8.84681 54.9203 9.10361 55.1846 9.42245L55.2753 9.34505L55.1916 9.26021L54.5665 9.89394L54.6503 9.9783L54.7415 9.90149C54.2489 9.30377 53.5573 9.00245 52.7035 9.00425C51.9272 9.00329 51.2443 9.28409 50.6794 9.83729C50.1091 10.3923 49.8225 11.123 49.8235 12.0001C49.8225 12.8771 50.1091 13.6078 50.6794 14.1628C51.2443 14.716 51.9272 14.9968 52.7035 14.9959C53.5239 14.9973 54.223 14.7155 54.7734 14.1568C55.1411 13.7836 55.3494 13.2667 55.4041 12.6239L55.4151 12.4936H52.822V11.8688H56.1494V11.7488L56.0327 11.7699C56.0652 11.9518 56.0804 12.1247 56.0804 12.2921H56.199H56.3175C56.3175 12.1097 56.3008 11.9223 56.266 11.7273L56.2485 11.6288H52.585V12.6136V12.7336H55.2859V12.6136L55.1678 12.6033C55.1156 13.2071 54.9257 13.6618 54.6058 13.9871C54.0966 14.5009 53.4716 14.7544 52.7035 14.7559C51.9827 14.7549 51.3711 14.5036 50.8438 13.9904C50.3216 13.4789 50.0618 12.826 50.0605 12.0001C50.0618 11.1741 50.3216 10.5212 50.8438 10.0097C51.3711 9.49649 51.9827 9.24521 52.7035 9.24425C53.5049 9.24617 54.1101 9.51425 54.5596 10.0557L54.6429 10.156L55.3591 9.42989L55.4359 9.35213L55.366 9.26814C55.0748 8.91666 54.6869 8.63765 54.21 8.43053C53.7322 8.22281 53.2281 8.11877 52.7035 8.11877C51.6499 8.11781 50.7406 8.49281 50.003 9.23489C49.2628 9.97553 48.8897 10.9065 48.8906 12.0001C48.8897 13.0931 49.2628 14.0246 50.0035 14.7657C50.7406 15.5073 51.6499 15.8818 52.7035 15.8809C53.8007 15.8818 54.711 15.5128 55.4017 14.7783L55.316 14.6954L55.3998 14.7802C56.0137 14.1591 56.3183 13.3201 56.3175 12.2921H56.199Z" fill="white"/>
<path d="M61.6631 9.28412H58.4247V11.567H61.3451V12.4322H58.4247V14.7151H61.6631V15.5996H57.5117V8.3996H61.6631V9.28412Z" fill="white"/>
<path d="M61.6625 9.28425V9.16425H58.3055V11.6871H61.226V12.312L58.3055 12.3123V14.8352H61.5439V15.4797H57.6296V8.51973H61.5439V9.28425H61.6625V9.16425V9.28425H61.781V8.39973V8.27973H57.3926V15.7197H61.781V14.7152V14.5952H58.5426V12.5523H61.463V11.5671V11.4471H58.5426V9.40425H61.781V9.28425H61.6625Z" fill="white"/>
<path d="M65.5157 15.5996H64.6014V9.28412H62.6152V8.3996H67.5019V9.28412H65.5157V15.5996Z" fill="white"/>
<path d="M65.5151 15.5997V15.4797H64.7193V9.16425H62.7331V8.51973H67.3827V9.16425H65.3966V15.5997H65.5151V15.4797V15.5997H65.6336V9.40425H67.6198V8.39973V8.27973H62.4961V9.28425V9.40425H64.4822V15.7197H65.5151H65.6336V15.5997H65.5151Z" fill="white"/>
<path d="M71.0371 15.5996V8.3996H71.9505V15.5996H71.0371Z" fill="white"/>
<path d="M71.0384 15.5997H71.157V8.51973H71.8333V15.4797H71.0384V15.5997H71.157H71.0384V15.7197H71.9518H72.0704V8.27973H71.0384H70.9199V15.7197H71.0384V15.5997Z" fill="white"/>
<path d="M76.0039 15.5996H75.0895V9.28412H73.1035V8.3996H77.99V9.28412H76.0039V15.5996Z" fill="white"/>
<path d="M76.0052 15.5997V15.4797H75.2094V9.16425H73.2234V8.51973H77.8728V9.16425H75.8867V15.5997H76.0052V15.4797V15.5997H76.1237V9.40425H78.1099V8.39973V8.27973H72.9863V9.28425V9.40425H74.9723V15.7197H76.0052H76.1237V15.5997H76.0052Z" fill="white"/>
<path d="M82.7007 14.0667C83.227 14.6062 83.8711 14.8757 84.6327 14.8757C85.3943 14.8757 86.0386 14.6062 86.5642 14.0667C87.091 13.5272 87.3549 12.8375 87.3549 11.9999C87.3549 11.1623 87.091 10.4727 86.5642 9.93319C86.0386 9.39367 85.3943 9.12415 84.6327 9.12415C83.8711 9.12415 83.227 9.39367 82.7007 9.93319C82.1752 10.4727 81.9114 11.1623 81.9114 11.9999C81.9114 12.8375 82.1752 13.5272 82.7007 14.0667ZM87.2401 14.6695C86.5409 15.3974 85.6715 15.7607 84.6327 15.7607C83.5928 15.7607 82.7238 15.3974 82.0262 14.6695C81.3266 13.9424 80.9785 13.0523 80.9785 11.9999C80.9785 10.9475 81.3266 10.0574 82.0262 9.33042C82.7238 8.60238 83.5928 8.23867 84.6327 8.23867C85.666 8.23867 86.5331 8.60431 87.2354 9.33511C87.9368 10.0659 88.2878 10.9541 88.2878 11.9999C88.2878 13.0523 87.9377 13.9424 87.2401 14.6695Z" fill="white"/>
<path d="M82.7001 14.0668L82.6158 14.1512C83.1617 14.7123 83.8427 14.9973 84.6321 14.9959C85.4209 14.9973 86.1029 14.7123 86.6478 14.1512C87.1973 13.5896 87.4737 12.863 87.4728 12.0001C87.4737 11.1371 87.1973 10.4105 86.6478 9.84893C86.1029 9.28781 85.4209 9.00281 84.6321 9.00425C83.8427 9.00281 83.1617 9.28781 82.6158 9.84893C82.0677 10.4105 81.7908 11.1371 81.7922 12.0001C81.7908 12.863 82.0677 13.5896 82.6158 14.1512L82.7001 14.0668L82.7844 13.9825C82.2816 13.4644 82.0302 12.8128 82.0293 12.0001C82.0302 11.1873 82.2816 10.5357 82.7844 10.0177C83.2917 9.49974 83.8977 9.24569 84.6321 9.24425C85.3658 9.24569 85.9732 9.49974 86.4793 10.0177C86.983 10.5357 87.2344 11.1873 87.2353 12.0001C87.2344 12.8128 86.983 13.4644 86.4793 13.9825C85.9732 14.5004 85.3658 14.7544 84.6321 14.7559C83.8977 14.7544 83.2917 14.5004 82.7844 13.9825L82.7001 14.0668ZM87.2395 14.6696L87.1547 14.5862C86.4751 15.2912 85.6441 15.6394 84.6321 15.6409C83.6196 15.6394 82.7885 15.2912 82.1102 14.5862L82.107 14.5825L82.1102 14.5862C81.4321 13.8788 81.0974 13.0257 81.0964 12.0001C81.0974 10.9744 81.4321 10.1213 82.1102 9.41393C82.7885 8.70893 83.6196 8.36021 84.6321 8.35877C85.6376 8.36021 86.4667 8.71037 87.1501 9.41909C87.8306 10.1297 88.1672 10.9815 88.1687 12.0001C88.1672 13.0257 87.8316 13.8788 87.1547 14.5862L87.2395 14.6696L87.3247 14.753C88.0431 14.0059 88.4065 13.0791 88.4057 12.0001C88.4065 10.9271 88.0417 10.0023 87.3199 9.25181C86.5978 8.49845 85.6932 8.11745 84.6321 8.11877C83.5654 8.11745 82.658 8.49665 81.9404 9.24713V9.24665C81.2205 9.99425 80.8584 10.921 80.8594 12.0001C80.8584 13.0791 81.2205 14.0059 81.9404 14.7535L81.9436 14.7568L81.9404 14.753C82.658 15.5035 83.5654 15.8818 84.6321 15.8809C85.6982 15.8818 86.6056 15.5035 87.3247 14.753L87.2395 14.6696Z" fill="white"/>
<path d="M89.5703 15.5996V8.3996H90.6824L94.1384 14.0007H94.1777L94.1384 12.6132V8.3996H95.0527V15.5996H94.099L90.4833 9.72704H90.4439L90.4833 11.1151V15.5996H89.5703Z" fill="white"/>
<path d="M89.5716 15.5997H89.6902V8.51973H90.6179L94.0739 14.1208H94.179H94.3008L94.2582 12.6115V8.51973H94.9355V15.4797H94.1661L90.5504 9.60717H90.4452H90.3235L90.3661 11.1171V15.4797H89.5716V15.5997H89.6902H89.5716V15.7197H90.4846H90.6031V11.1133L90.5638 9.72393L90.4452 9.72717V9.84717H90.4846V9.72717L90.3841 9.79101L94.0346 15.7197H95.0541H95.1726V8.27973H94.1397H94.0212V12.6147L94.0605 14.0041L94.179 14.0008V13.8808H94.1397V14.0008L94.2402 13.9371L90.7494 8.27973H89.5716H89.4531V15.7197H89.5716V15.5997Z" fill="white"/>
<path d="M126.739 36.0002H128.951V20.9987H126.739V36.0002ZM146.659 26.4026L144.124 32.9064H144.048L141.417 26.4026H139.035L142.98 35.4929L140.731 40.5494H143.038L149.118 26.4026H146.659ZM134.117 34.2963C133.392 34.2963 132.382 33.9297 132.382 33.0222C132.382 31.8644 133.641 31.4205 134.726 31.4205C135.699 31.4205 136.156 31.6328 136.747 31.9226C136.575 33.3119 135.394 34.2963 134.117 34.2963ZM134.384 26.0744C132.783 26.0744 131.125 26.7887 130.438 28.3713L132.401 29.201C132.821 28.3713 133.602 28.1008 134.422 28.1008C135.566 28.1008 136.728 28.796 136.747 30.0311V30.1853C136.347 29.9537 135.49 29.6064 134.441 29.6064C132.325 29.6064 130.171 30.7834 130.171 32.9837C130.171 34.991 131.906 36.2842 133.849 36.2842C135.337 36.2842 136.156 35.6087 136.671 34.8176H136.747V35.9753H138.882V30.2237C138.882 27.5608 136.919 26.0744 134.384 26.0744ZM120.716 28.2287H117.571V23.0866H120.716C122.37 23.0866 123.308 24.4726 123.308 25.6576C123.308 26.8202 122.37 28.2287 120.716 28.2287ZM120.659 20.9987H115.36V36.0002H117.571V30.3166H120.659C123.11 30.3166 125.52 28.5198 125.52 25.6576C125.52 22.7955 123.11 20.9987 120.659 20.9987ZM91.7634 34.299C90.2356 34.299 88.9564 33.0039 88.9564 31.225C88.9564 29.4274 90.2356 28.1126 91.7634 28.1126C93.2718 28.1126 94.4556 29.4274 94.4556 31.225C94.4556 33.0039 93.2718 34.299 91.7634 34.299ZM94.3028 27.2426H94.2263C93.7301 26.6434 92.775 26.1021 91.5722 26.1021C89.0518 26.1021 86.7417 28.3445 86.7417 31.225C86.7417 34.0863 89.0518 36.3095 91.5722 36.3095C92.775 36.3095 93.7301 35.7681 94.2263 35.1498H94.3028V35.8844C94.3028 37.8372 93.2718 38.8811 91.6106 38.8811C90.255 38.8811 89.4149 37.8948 89.0708 37.0637L87.1426 37.8756C87.6963 39.2289 89.1667 40.8916 91.6106 40.8916C94.2074 40.8916 96.4032 39.3447 96.4032 35.575V26.4114H94.3028V27.2426ZM97.9305 36.0002H100.145V20.9982H97.9305V36.0002ZM103.411 31.0511C103.353 29.079 104.919 28.074 106.045 28.074C106.924 28.074 107.669 28.5184 107.916 29.1569L103.411 31.0511ZM110.284 29.35C109.865 28.209 108.585 26.1021 105.969 26.1021C103.372 26.1021 101.215 28.1706 101.215 31.2058C101.215 34.0671 103.353 36.3095 106.217 36.3095C108.528 36.3095 109.865 34.8789 110.418 34.0478L108.7 32.8876C108.127 33.7384 107.344 34.299 106.217 34.299C105.091 34.299 104.289 33.7769 103.773 32.7526L110.513 29.9298L110.284 29.35ZM56.5857 27.6681V29.8332H61.7027C61.55 31.0511 61.149 31.9403 60.5379 32.559C59.7935 33.3132 58.6287 34.1444 56.5857 34.1444C53.4351 34.1444 50.9722 31.5732 50.9722 28.3834C50.9722 25.1936 53.4351 22.6221 56.5857 22.6221C58.2851 22.6221 59.5259 23.2989 60.4425 24.1689L61.9509 22.6418C60.6717 21.4042 58.9722 20.4569 56.5857 20.4569C52.2703 20.4569 48.6426 24.0142 48.6426 28.3834C48.6426 32.7526 52.2703 36.3095 56.5857 36.3095C58.9153 36.3095 60.6717 35.5366 62.0463 34.0863C63.4593 32.6556 63.8986 30.6452 63.8986 29.0214C63.8986 28.5184 63.8606 28.0548 63.7838 27.6681H56.5857ZM69.7162 34.299C68.1884 34.299 66.8708 33.0231 66.8708 31.2058C66.8708 29.3692 68.1884 28.1126 69.7162 28.1126C71.2435 28.1126 72.561 29.3692 72.561 31.2058C72.561 33.0231 71.2435 34.299 69.7162 34.299ZM69.7162 26.1021C66.9282 26.1021 64.656 28.2479 64.656 31.2058C64.656 34.1444 66.9282 36.3095 69.7162 36.3095C72.5037 36.3095 74.7759 34.1444 74.7759 31.2058C74.7759 28.2479 72.5037 26.1021 69.7162 26.1021ZM80.7541 34.299C79.2269 34.299 77.9092 33.0231 77.9092 31.2058C77.9092 29.3692 79.2269 28.1126 80.7541 28.1126C82.2815 28.1126 83.599 29.3692 83.599 31.2058C83.599 33.0231 82.2815 34.299 80.7541 34.299ZM80.7541 26.1021C77.9662 26.1021 75.6944 28.2479 75.6944 31.2058C75.6944 34.1444 77.9662 36.3095 80.7541 36.3095C83.5417 36.3095 85.8139 34.1444 85.8139 31.2058C85.8139 28.2479 83.5417 26.1021 80.7541 26.1021Z" fill="white"/>
<path d="M12.4549 38.8672L12.3669 38.7819C12.022 38.4124 11.8184 37.8387 11.8184 37.0957V37.2706V10.7314C11.8184 10.729 11.8184 10.7272 11.8184 10.7253C11.8184 10.7275 11.8184 10.7295 11.8184 10.7319V10.9072C11.8184 10.1027 12.0558 9.4967 12.4535 9.13334L27.1377 24.0007L12.4549 38.8672ZM11.8184 10.7238C11.8184 10.6577 11.8201 10.5935 11.8235 10.5303C11.8201 10.593 11.8184 10.6577 11.8184 10.7238ZM11.8235 10.5274C11.8235 10.5265 11.8235 10.5256 11.8238 10.5246C11.8235 10.5256 11.8235 10.5265 11.8235 10.5274ZM11.8238 10.519C11.8238 10.5185 11.8238 10.518 11.8238 10.5175C11.8238 10.518 11.8238 10.5185 11.8238 10.519Z" fill="url(#paint0_linear_1777_2876)"/>
<path d="M32.0327 29.1338L32.1443 29.0696L37.9433 25.7335C38.4962 25.4152 38.8646 25.0294 39.0485 24.6212C38.8651 25.0294 38.4965 25.4157 37.9433 25.734L32.1443 29.0701L32.0327 29.1338ZM32.0341 28.958L27.1387 24.0005L32.0336 19.044L37.9433 22.4433C38.6937 22.8751 39.1151 23.4315 39.1855 24.0001C39.1855 24.0006 39.1855 24.0015 39.1855 24.0024C39.1151 24.5696 38.6937 25.1265 37.9433 25.5582L32.0341 28.958Z" fill="url(#paint1_linear_1777_2876)"/>
<path d="M13.5043 39.4336C13.0941 39.4336 12.7362 39.2986 12.4571 39.0436L12.4575 39.0431C12.7367 39.2981 13.0951 39.4336 13.5053 39.4336C13.5408 39.4336 13.577 39.4326 13.6136 39.4308C13.5765 39.4326 13.5399 39.4336 13.5043 39.4336ZM13.5048 39.2578C13.0946 39.2583 12.7367 39.1228 12.4575 38.8678V38.8674L27.1403 24.001L32.0357 28.9584L14.8325 38.8552C14.3566 39.1284 13.9056 39.2578 13.5048 39.2578ZM12.4534 39.0404C12.4274 39.0165 12.402 38.9912 12.377 38.9649L12.4534 39.0404Z" fill="url(#paint2_linear_1777_2876)"/>
<path d="M27.1393 24.001L12.4551 9.13358C12.7342 8.87906 13.0916 8.74406 13.5014 8.74406C13.9033 8.74406 14.3546 8.8739 14.8315 9.14762L32.0342 19.0444L27.1393 24.001ZM32.1449 18.9324L14.8315 8.97242C14.3546 8.69858 13.9033 8.56874 13.5014 8.56874C13.4995 8.56874 13.4982 8.56874 13.4963 8.56874C13.4986 8.56874 13.5004 8.56874 13.5033 8.56874C13.9042 8.56874 14.355 8.6981 14.8315 8.97194L32.1449 18.9324Z" fill="url(#paint3_linear_1777_2876)"/>
<path d="M13.6113 39.4307C13.9839 39.4091 14.3965 39.2792 14.8302 39.0303L32.032 29.1341L14.8302 39.0303C14.3968 39.2797 13.9839 39.4091 13.6113 39.4307ZM12.4548 39.0434L12.4511 39.0402C12.4524 39.0411 12.4538 39.0425 12.4548 39.0434ZM12.3747 38.9647L12.3672 38.9573V38.9568C12.37 38.9595 12.3723 38.9623 12.3747 38.9647Z" fill="black"/>
<path d="M32.0332 29.1338L32.1448 29.0696L32.0332 29.1338Z" fill="url(#paint4_linear_1777_2876)"/>
<path d="M13.503 39.4336C13.0928 39.4336 12.7344 39.2981 12.4552 39.0431L12.4548 39.0436C12.4538 39.0426 12.4524 39.0413 12.4511 39.0404L12.3747 38.9649C12.3723 38.9625 12.37 38.9597 12.3672 38.957L12.4552 38.8678C12.7344 39.1228 13.0923 39.2583 13.5025 39.2578C13.9033 39.2578 14.3543 39.1284 14.8302 38.8552L32.0334 28.9584L32.1436 29.07L32.032 29.1342L14.8302 39.0305C14.3965 39.2794 13.9839 39.4092 13.6113 39.4308C13.5747 39.4326 13.5385 39.4336 13.503 39.4336Z" fill="url(#paint5_linear_1777_2876)"/>
<path d="M12.3669 38.957C12.022 38.5876 11.8184 38.0138 11.8184 37.2709V37.2704C11.8184 38.0138 12.022 38.5871 12.3669 38.9566V38.957Z" fill="black"/>
<path d="M12.3669 38.957C12.022 38.5876 11.8184 38.0143 11.8184 37.2709V37.0961C11.8184 37.839 12.022 38.4127 12.3669 38.7822L12.4549 38.8675L12.3669 38.957Z" fill="url(#paint6_linear_1777_2876)"/>
<path d="M12.3672 38.957L12.4552 38.8675V38.8679L12.3672 38.957Z" fill="url(#paint7_linear_1777_2876)"/>
<path d="M39.0488 24.6221C39.14 24.4195 39.1858 24.2114 39.1858 24.0032C39.1858 24.0029 39.1858 24.0024 39.1858 24.0024C39.1858 24.2109 39.14 24.419 39.0488 24.6221Z" fill="black"/>
<path d="M32.1454 29.0703L32.0352 28.9587L37.9444 25.5589C38.6948 25.1272 39.1162 24.5703 39.1866 24.0031C39.1866 24.2113 39.1407 24.4193 39.0496 24.6219C38.8657 25.0301 38.4973 25.4159 37.9444 25.7342L32.1454 29.0703Z" fill="url(#paint8_linear_1777_2876)"/>
<path d="M39.1862 24.001V24.0005C39.1857 23.3728 38.7714 22.7452 37.944 22.2689L32.145 18.9328H32.1445L32.145 18.9324L37.944 22.2684C38.7723 22.7447 39.1871 23.3733 39.1862 24.001Z" fill="#404040"/>
<path d="M39.1851 24C39.1147 23.4314 38.6933 22.875 37.9429 22.4432L32.0332 19.0439L32.1434 18.9323H32.1439L37.9429 22.2684C38.7703 22.7447 39.1846 23.3723 39.1851 24Z" fill="url(#paint9_linear_1777_2876)"/>
<path d="M11.8184 10.7256C11.8184 10.7251 11.8184 10.7246 11.8184 10.7241C11.8184 10.7246 11.8184 10.7251 11.8184 10.7256ZM11.8235 10.5306C11.8235 10.5296 11.8235 10.5287 11.8235 10.5277C11.8235 10.5287 11.8235 10.5296 11.8235 10.5306ZM11.8238 10.5249C11.8238 10.523 11.8238 10.5212 11.8238 10.5193C11.8238 10.5212 11.8238 10.523 11.8238 10.5249ZM11.8238 10.5179C11.8924 9.28511 12.5545 8.57303 13.491 8.56883C13.085 8.57123 12.7313 8.70623 12.4544 8.95883V8.95835L12.4511 8.96171C12.422 8.98835 12.3942 9.01655 12.3669 9.04559C12.0558 9.37883 11.8595 9.87803 11.8238 10.5179Z" fill="#404040"/>
<path d="M11.8184 10.9072V10.7319C11.8184 10.7295 11.8184 10.7276 11.8184 10.7253C11.8184 10.7248 11.8184 10.7243 11.8184 10.7239C11.8184 10.6577 11.8201 10.5931 11.8235 10.5303C11.8235 10.5293 11.8235 10.5284 11.8235 10.5274C11.8235 10.5266 11.8235 10.5256 11.8238 10.5247C11.8238 10.5227 11.8238 10.5209 11.8238 10.519C11.8238 10.5185 11.8238 10.5181 11.8238 10.5176C11.8595 9.87775 12.0558 9.37855 12.3669 9.04531L12.4535 9.13339C12.0558 9.49675 11.8184 10.1027 11.8184 10.9072ZM12.4511 8.96143L12.4544 8.95807C12.4535 8.95951 12.4521 8.96047 12.4511 8.96143Z" fill="url(#paint10_linear_1777_2876)"/>
<path d="M32.033 19.0439L14.8302 9.14718C14.3533 8.87346 13.902 8.74362 13.5001 8.74362C13.0904 8.74362 12.7329 8.87862 12.4538 9.13314L12.3672 9.04506C12.3946 9.01602 12.4223 8.98782 12.4515 8.96118C12.4524 8.96022 12.4538 8.95926 12.4548 8.9583C12.7316 8.7057 13.0853 8.5707 13.4913 8.5683C13.4923 8.5683 13.4936 8.5683 13.495 8.5683C13.4969 8.5683 13.4982 8.5683 13.5001 8.5683C13.902 8.5683 14.3533 8.69814 14.8302 8.97198L32.1436 18.932L32.1432 18.9323L32.033 19.0439Z" fill="url(#paint11_linear_1777_2876)"/>
<defs>
<linearGradient id="paint0_linear_1777_2876" x1="25.8357" y1="10.4514" x2="5.69821" y2="30.3403" gradientUnits="userSpaceOnUse">
<stop stop-color="#00A0FF"/>
<stop offset="0.00657445" stop-color="#00A1FF"/>
<stop offset="0.2601" stop-color="#00BEFF"/>
<stop offset="0.5122" stop-color="#00D2FF"/>
<stop offset="0.7604" stop-color="#00DFFF"/>
<stop offset="1" stop-color="#00E3FF"/>
</linearGradient>
<linearGradient id="paint1_linear_1777_2876" x1="40.0998" y1="24.0013" x2="11.422" y2="24.0013" gradientUnits="userSpaceOnUse">
<stop stop-color="#FFE000"/>
<stop offset="0.4087" stop-color="#FFBD00"/>
<stop offset="0.7754" stop-color="#FFA500"/>
<stop offset="1" stop-color="#FF9C00"/>
</linearGradient>
<linearGradient id="paint2_linear_1777_2876" x1="29.4261" y1="26.7553" x2="2.11821" y2="53.7261" gradientUnits="userSpaceOnUse">
<stop stop-color="#FF3A44"/>
<stop offset="1" stop-color="#C31162"/>
</linearGradient>
<linearGradient id="paint3_linear_1777_2876" x1="8.64909" y1="0.21146" x2="20.8431" y2="12.255" gradientUnits="userSpaceOnUse">
<stop stop-color="#32A071"/>
<stop offset="0.0685" stop-color="#2DA771"/>
<stop offset="0.4762" stop-color="#15CF74"/>
<stop offset="0.8009" stop-color="#06E775"/>
<stop offset="1" stop-color="#00F076"/>
</linearGradient>
<linearGradient id="paint4_linear_1777_2876" x1="40.1005" y1="24.0011" x2="11.4222" y2="24.0011" gradientUnits="userSpaceOnUse">
<stop stop-color="#CCB300"/>
<stop offset="0.4087" stop-color="#CC9700"/>
<stop offset="0.7754" stop-color="#CC8400"/>
<stop offset="1" stop-color="#CC7D00"/>
</linearGradient>
<linearGradient id="paint5_linear_1777_2876" x1="29.4238" y1="26.7553" x2="2.11588" y2="53.726" gradientUnits="userSpaceOnUse">
<stop stop-color="#CC2E36"/>
<stop offset="1" stop-color="#9C0E4E"/>
</linearGradient>
<linearGradient id="paint6_linear_1777_2876" x1="25.8357" y1="10.4518" x2="5.69827" y2="30.3407" gradientUnits="userSpaceOnUse">
<stop stop-color="#008DE0"/>
<stop offset="0.00657445" stop-color="#008DE0"/>
<stop offset="0.2601" stop-color="#00A7E0"/>
<stop offset="0.5122" stop-color="#00B8E0"/>
<stop offset="0.7604" stop-color="#00C4E0"/>
<stop offset="1" stop-color="#00C7E0"/>
</linearGradient>
<linearGradient id="paint7_linear_1777_2876" x1="29.4231" y1="26.7549" x2="2.11411" y2="53.7246" gradientUnits="userSpaceOnUse">
<stop stop-color="#E0333C"/>
<stop offset="1" stop-color="#AB0F56"/>
</linearGradient>
<linearGradient id="paint8_linear_1777_2876" x1="40.1009" y1="24.002" x2="11.423" y2="24.002" gradientUnits="userSpaceOnUse">
<stop stop-color="#E0C500"/>
<stop offset="0.4087" stop-color="#E0A600"/>
<stop offset="0.7754" stop-color="#E09100"/>
<stop offset="1" stop-color="#E08900"/>
</linearGradient>
<linearGradient id="paint9_linear_1777_2876" x1="40.0994" y1="24.0012" x2="11.4216" y2="24.0012" gradientUnits="userSpaceOnUse">
<stop stop-color="#FFE840"/>
<stop offset="0.4087" stop-color="#FFCE40"/>
<stop offset="0.7754" stop-color="#FFBC40"/>
<stop offset="1" stop-color="#FFB540"/>
</linearGradient>
<linearGradient id="paint10_linear_1777_2876" x1="25.8357" y1="10.4515" x2="5.6983" y2="30.3404" gradientUnits="userSpaceOnUse">
<stop stop-color="#40B8FF"/>
<stop offset="0.00657445" stop-color="#40B9FF"/>
<stop offset="0.2601" stop-color="#40CEFF"/>
<stop offset="0.5122" stop-color="#40DDFF"/>
<stop offset="0.7604" stop-color="#40E7FF"/>
<stop offset="1" stop-color="#40EAFF"/>
</linearGradient>
<linearGradient id="paint11_linear_1777_2876" x1="8.64784" y1="0.211013" x2="20.8419" y2="12.2545" gradientUnits="userSpaceOnUse">
<stop stop-color="#65B895"/>
<stop offset="0.0685" stop-color="#62BD95"/>
<stop offset="0.4762" stop-color="#50DB97"/>
<stop offset="0.8009" stop-color="#44ED98"/>
<stop offset="1" stop-color="#40F498"/>
</linearGradient>
</defs>
</svg>
