<svg width="224" height="266" viewBox="0 0 224 266" fill="none" xmlns="http://www.w3.org/2000/svg">
<path d="M92.8099 161.957C87.9797 110.816 163.999 74.9948 182.465 92.2944C200.931 109.594 166.208 147.699 197.92 213.813C229.631 279.926 98.8476 225.885 92.8099 161.957Z" fill="#E6C9C9"/>
<path d="M81.3166 201.455C90.0193 224.862 58.8304 251.247 47.9826 245.447C37.1348 239.647 48.6452 217.385 25.4364 190.331C2.22748 163.276 70.4382 172.197 81.3166 201.455Z" fill="#C5D5E4"/>
<path d="M29.5365 25.8808C31.9679 27.1448 31.3879 30.437 33.3706 33.1702C34.9568 35.3569 37.5354 41.5586 38.6265 44.3861L51.8311 75.0303" stroke="#242E35" stroke-width="2" stroke-linecap="round" stroke-linejoin="round"/>
<path d="M85.3782 242.848C79.6933 228.471 75.051 216.546 69.6496 204.189C67.7035 201.391 66.5866 195.562 79.8178 185.397C96.3567 172.691 88.442 166.977 77.3333 175.104C66.0355 183.37 55.6658 186.87 60.8652 179.079C66.0646 171.289 86.9337 162.984 88.5485 153.88C90.1633 144.777 69.6846 152.443 57.2627 164.155C47.3222 173.528 65.3304 150.771 68.8328 146.658C72.3352 142.545 69.9684 133.313 51.3357 150.881C49.561 152.555 47.2008 154.058 51.123 146.031C62.1958 125.931 48.1416 133.68 47.3295 141.447C45.4722 134.154 45.9092 108.382 46.0548 99.7913C46.1714 92.9188 45.0248 88.6559 40.8437 84.475C36.6627 81.1302 15.7577 79.4577 9.06807 106.216" stroke="#242E35" stroke-width="2" stroke-linecap="round" stroke-linejoin="round"/>
<path d="M18.2495 102.629C16.3921 102.574 10.2891 102.396 8.55023 107.364C7.87653 103.162 6.35786 100.608 1.63055 98.7961" stroke="#242E35" stroke-width="2" stroke-linecap="round" stroke-linejoin="round"/>
<path d="M30.413 26.9486C34.129 24.8478 42.2011 21.0303 44.7611 22.5668C45.9669 25.1369 48.0895 27.9785 46.4887 29.5955C44.8878 31.2125 59.8029 62.3559 66.153 72.8211C72.503 83.2863 104.444 110.401 111.859 128.647C112.256 130.292 90.7419 120.129 89.1448 127.05C88.3463 130.51 91.2566 135.799 104.051 141.424C114.287 145.924 120.676 150.845 122.591 152.742C131.926 174.777 145.567 206.558 153.08 224.002C154.586 227.577 157.026 235.379 154.731 237.987C151.863 241.247 130.441 251.241 116.456 256.12C102.471 260.998 94.9359 263.094 91.8582 257.903C89.396 253.75 87.2743 247.418 86.5212 244.771C89.0155 244.294 96.8004 242.204 107.985 237.658C121.966 231.976 150.888 221.073 157.92 212.578C164.258 203.839 150.034 206.243 145.249 209.154C140.465 212.065 111.859 224.002 91.3832 231.962C83.9952 213.412 78.4348 202.291 80.2883 204.145C125.393 183.054 128.06 203.273 150.719 193.025C173.377 182.776 171.107 152.742 120.974 133.144" stroke="#242E35" stroke-width="2" stroke-linecap="round" stroke-linejoin="round"/>
<path d="M43.8029 22.3857C43.4474 20.9805 42.4307 18.134 41.2077 17.9899C39.6789 17.8096 35.7907 18.5883 30.7939 20.6191C25.7971 22.6499 22.6627 24.8857 22.3311 25.6617C21.9996 26.4377 22.8404 29.3022 23.3975 29.8773C22.8443 30.9037 23.5463 33.8247 24.4969 36.1636C25.2574 38.0348 25.8356 38.1311 26.0296 37.9454C30.0075 47.0696 35.5931 64.7898 37.1852 70.2987C39.9021 78.9735 27.9336 68.5675 35.315 64.4454C42.6963 60.3233 85.2696 64.5283 86.0105 46.6622" stroke="#242E35" stroke-width="2" stroke-linecap="round" stroke-linejoin="round"/>
</svg>
