<svg width="112" height="127" viewBox="0 0 112 127" fill="none" xmlns="http://www.w3.org/2000/svg">
<path d="M39.1573 19.7609C51.4187 31.6106 3.95529 26.8643 13.5411 22.8428C14.0413 21.207 12.9254 16.7505 12.3049 14.7268C11.8657 13.6713 12.0059 11.3342 16.0811 10.4299C21.1751 9.29964 24.459 8.41972 24.5649 11.4417C24.6707 14.4638 25.8868 18.1269 26.794 19.7609C27.7011 21.395 26.7238 22.1262 26.6379 23.5571C26.5552 24.9356 31.2849 39.398 37.3195 48.3722C37.5488 48.7132 37.78 49.0463 38.0129 49.3704C44.3744 58.2249 50.5872 64.7727 53.4616 75.5001C55.7611 84.082 60.8724 103.158 63.1406 111.623C63.5317 113.082 63.6368 116.277 60.9283 117.378C57.5428 118.754 44.4972 124.362 33.7813 124.652C28.3353 124.469 29.2969 122.803 28.726 121.548C28.2693 120.544 21.9657 96.6102 18.871 84.7686C18.0587 81.1537 16.6891 72.0724 17.7082 64.6661C18.9023 55.9875 20.9242 37.2787 17.1124 32.6686C13.3006 28.0585 5.54736 29.2083 6.50718 35.5103C8.13309 43.2093 18.4237 55.2685 46.5788 41.9141C66.902 32.2744 73.6233 53.726 62 52.7434" stroke="#242E35" stroke-linecap="round" stroke-linejoin="round"/>
<circle cx="86" cy="51.7432" r="5" fill="#EFDDC7"/>
<path d="M67 51.3681C77.9952 38.3204 95.8219 38.3204 106.817 51.3681" stroke="#242E35" stroke-linecap="round" stroke-linejoin="round"/>
<path d="M106.817 51.3682C95.822 64.4159 77.9952 64.4159 66.9999 51.3682" stroke="#242E35" stroke-linecap="round" stroke-linejoin="round"/>
<path d="M106.817 51.3682C95.822 64.4159 77.9952 64.4159 66.9999 51.3682" stroke="#242E35" stroke-linecap="round" stroke-linejoin="round"/>
<circle cx="86" cy="51.7432" r="7" stroke="#242E35" stroke-linecap="round" stroke-linejoin="round"/>
<path fill-rule="evenodd" clip-rule="evenodd" d="M71 77.4211L52.9046 89.7432L42 82.3178L45.9327 79.6399L52.9046 84.3873L67.0673 74.7432L71 77.4211Z" fill="#E0E5CD"/>
<ellipse cx="56.9652" cy="82.2251" rx="25.9652" ry="13.4819" stroke="#242E35" stroke-linecap="round" stroke-linejoin="round"/>
<ellipse cx="56.9652" cy="82.2251" rx="25.9652" ry="13.4819" stroke="#242E35" stroke-linecap="round" stroke-linejoin="round"/>
<path d="M33.6405 82.386C33.6405 76.3096 44.0833 71.3838 56.9651 71.3838" stroke="#242E35" stroke-linecap="round" stroke-linejoin="round"/>
<path d="M82.9303 82.7244V87.2183C82.9303 89.4416 81.8938 91.5393 80.0581 93.388M31 82.7244V87.2183C31 94.6642 42.625 100.7 56.9652 100.7C63.1309 100.7 68.7948 99.5844 73.2484 97.7203" stroke="#242E35" stroke-linecap="round" stroke-linejoin="round"/>
<path d="M79.4335 93.0457L106.707 108.525C109.092 109.879 109.159 113.292 106.829 114.738V114.738C105.696 115.442 104.267 115.463 103.113 114.795L72.3921 97.0065" stroke="#242E35" stroke-linecap="round" stroke-linejoin="round"/>
<path d="M79 97.7432L99.5 109.743" stroke="#242E35" stroke-linecap="round" stroke-linejoin="round"/>
</svg>
