<svg width="114" height="120" viewBox="0 0 114 120" fill="none" xmlns="http://www.w3.org/2000/svg">
<path d="M49.1328 101.204C33.168 101.544 33.5077 94.2976 33.5077 91.6934C34.64 92.6747 37.7877 94.343 41.3204 93.1654C45.7362 91.6934 47.8874 96.6754 55.1339 96.3357C62.3803 95.996 72.6838 89.3245 75.288 89.3245C76.1122 90.1907 76.6114 90.9862 76.6467 91.6934C76.8732 96.2225 72.6838 99.2796 70.759 100.525C68.8342 101.771 62.1538 101.204 49.1328 101.204Z" fill="#FAE8D1"/>
<path d="M54.5655 60.5638C54.339 52.8644 49.8125 50.3664 44.7173 45.7242C51.5864 45.7619 66.5246 44.3428 71.3253 38.3645C70.9857 42.5538 57.3986 48.7813 56.2663 54.2161C55.1341 59.6509 54.7919 68.2631 54.5655 60.5638Z" fill="#FAE8D1"/>
<path d="M88.196 13.6813V7.34063C88.196 3.8388 73.495 1 55.3605 1C37.2261 1 22.5251 3.8388 22.5251 7.34063V13.568" stroke="#242E35" stroke-linecap="round" stroke-linejoin="round"/>
<path d="M22.5257 106.299L22.5257 112.64C22.5257 116.142 37.2266 118.98 55.3611 118.98C73.4956 118.98 88.1965 116.142 88.1965 112.64L88.1965 106.412" stroke="#242E35" stroke-linecap="round" stroke-linejoin="round"/>
<path d="M88.1959 13.6812C88.1959 10.1794 73.495 7.34058 55.3605 7.34058C37.226 7.34058 22.5251 10.1794 22.5251 13.6812" stroke="#242E35" stroke-linecap="round" stroke-linejoin="round"/>
<path d="M22.5256 106.3C22.5256 109.801 37.2265 112.64 55.361 112.64C73.4955 112.64 88.1964 109.801 88.1964 106.3" stroke="#242E35" stroke-linecap="round" stroke-linejoin="round"/>
<path d="M88.1959 13.6817C88.1959 14.6915 86.9736 15.6461 84.7991 16.4934" stroke="#242E35" stroke-linecap="round" stroke-linejoin="round"/>
<path d="M22.5254 106.3C22.5254 105.29 23.7477 104.336 25.9222 103.488" stroke="#242E35" stroke-linecap="round" stroke-linejoin="round"/>
<path d="M22.525 13.6817C22.525 14.6915 23.7473 15.6461 25.9217 16.4934" stroke="#242E35" stroke-linecap="round" stroke-linejoin="round"/>
<path d="M88.1957 106.3C88.1957 105.29 86.9734 104.335 84.799 103.488" stroke="#242E35" stroke-linecap="round" stroke-linejoin="round"/>
<path d="M36.0765 26.0974C35.7368 20.0964 40.0394 19.7568 40.379 19.7568C41.0961 19.4548 41.8962 20.3003 40.7186 22.0213C39.2467 24.1726 39.6996 28.2487 40.379 30.1735C41.0584 32.0983 42.1906 34.1364 40.379 34.929C38.5675 35.7216 36.4161 32.0983 36.0765 26.0974Z" fill="#FAE8D1"/>
<path d="M41.398 24.5453C41.398 22.1902 43.1341 21.0731 44.0022 20.8089C45.927 20.4692 45.0212 22.8469 44.6816 23.6395C44.3419 24.4321 44.908 25.904 44.0022 26.923C43.0964 27.9421 41.398 27.4892 41.398 24.5453Z" fill="#FAE8D1"/>
<path d="M37.9236 16.965C34.8439 17.1462 33.3946 18.7766 33.0549 19.5692C28.1862 31.005 36.2253 39.1572 40.9808 44.3656C45.7363 49.574 53.0959 53.6501 52.4166 60.1039C51.7372 66.5578 34.4719 75.8469 33 90.0001C31.8225 101.323 40.7543 103.092 46.0759 102.677C50.9068 102.714 61.4519 102.767 64.9845 102.677C69.4003 102.563 82.6477 101.884 78.5716 87.5045C74.4955 73.1249 58.6439 64.18 57.5116 60.1039C56.3794 56.0278 57.5116 56.7072 70.5326 42.7804C83.5535 28.8537 77.779 21.2676 76.8732 19.5692C76.1486 18.2105 73.6274 17.267 72.4574 16.965C62.2294 16.8895 41.0034 16.7839 37.9236 16.965Z" stroke="#242E35" stroke-linecap="round" stroke-linejoin="round"/>
<path d="M26.3754 17.0769C26.7528 16.8882 27.3944 16.2617 26.9415 15.2653C26.3754 14.0199 23.9976 13.0008 26.3754 12.095C28.7531 11.1892 32.0367 12.2082 30.3383 14.0199C28.6399 15.8315 29.9986 16.8505 30.6779 17.9828C31.3573 19.115 28.8663 19.3415 28.9796 21.1531C29.0701 22.6024 29.0173 27.2673 28.9796 29.4185C29.8099 29.6073 31.2441 30.3696 30.3383 31.9095C29.4325 33.4494 29.206 33.306 29.206 33.0418C29.2438 35.5327 29.591 41.194 30.6779 43.9114C32.0367 47.3082 31.697 52.1769 30.3383 55.5736C26.9415 55.6869 26.3754 55.3472 26.7151 56.253C27.0547 57.1588 33.0557 56.8191 31.697 57.3852C30.3383 57.9514 26.0357 56.9323 26.3754 59.0836C26.7151 61.2349 33.8483 61.0085 32.2631 62.2539C30.6779 63.4994 25.696 61.9143 25.4696 63.4994C25.2431 65.0846 24.2241 69.1607 26.7151 78.2187C28.0738 83.0874 27.9605 85.1255 26.7151 86.0313C25.4696 86.9371 25.6961 87.6165 26.7151 88.9752C27.734 90.3339 27.3944 98.4861 26.2621 99.3919C25.1299 100.298 24.677 101.09 26.2621 101.883C26.2621 104.034 25.1299 103.808 25.1299 105.166C25.1299 106.525 27.3944 108.79 29.7721 106.978C31.1308 105.619 30.1118 103.581 30.225 102.336C30.3382 101.09 32.2631 101.317 31.4705 99.8448C30.6779 98.3729 29.7721 99.6184 29.7721 97.4671C29.7721 95.3158 29.3192 90.2206 30.225 88.9752C31.1308 87.7297 31.1308 86.0313 30.225 85.1255C29.3192 84.2197 30.1119 76.1807 31.697 69.6136C32.9651 64.3599 32.2253 63.3485 31.697 63.4994" stroke="#242E35" stroke-linecap="round" stroke-linejoin="round"/>
<path d="M26.3753 55.1212C25.6582 53.3473 24.5863 48.9617 26.0356 45.6102C27.8472 41.4209 28.1868 35.0803 27.281 33.7215C26.3753 32.3628 24.7901 31.3438 26.9414 29.5322C27.281 27.4941 27.5075 21.1535 26.9414 19.7948C26.3752 18.4361 24.9033 18.5493 26.3752 17.0774" stroke="#242E35" stroke-linecap="round" stroke-linejoin="round"/>
<path d="M85.0285 17.0789C84.6511 16.8902 84.0095 16.2637 84.4624 15.2673C85.0285 14.0218 87.4063 13.0028 85.0285 12.097C82.6508 11.1912 79.3673 12.2102 81.0657 14.0218C82.764 15.8334 81.4053 16.8525 80.726 17.9847C80.0466 19.117 82.5376 19.3434 82.4244 21.155C82.3338 22.6043 82.3866 27.2692 82.4244 29.4205C81.594 29.6092 80.1599 30.3716 81.0657 31.9115C81.9715 33.4513 82.1979 33.3079 82.1979 33.0437C82.1602 35.5347 81.813 41.1959 80.726 43.9134C79.3673 47.3101 79.707 52.1788 81.0657 55.5756C84.4624 55.6888 85.0286 55.3491 84.6889 56.2549C84.3492 57.1607 78.3482 56.8211 79.707 57.3872C81.0657 57.9533 85.3682 56.9343 85.0286 59.0856C84.6889 61.2369 77.5557 61.0104 79.1408 62.2559C80.726 63.5014 85.7079 61.9162 85.9344 63.5014C86.1608 65.0865 87.1798 69.1627 84.6889 78.2207C83.3302 83.0894 83.4434 85.1275 84.6889 86.0333C85.9344 86.9391 85.7079 87.6184 84.6889 88.9771C83.6699 90.3358 84.0096 98.4881 85.1418 99.3939C86.2741 100.3 86.727 101.092 85.1418 101.885C85.1418 104.036 86.2741 103.81 86.2741 105.168C86.2741 106.527 84.0096 108.792 81.6318 106.98C80.2731 105.621 81.2922 103.583 81.1789 102.338C81.0657 101.092 79.1409 101.319 79.9334 99.8468C80.726 98.3748 81.6318 99.6203 81.6318 97.469C81.6318 95.3177 82.0847 90.2226 81.1789 88.9771C80.2731 87.7316 80.2731 86.0333 81.1789 85.1275C82.0847 84.2216 81.2921 76.1826 79.707 69.6156C78.4389 64.3619 79.1786 63.3504 79.707 63.5014" stroke="#242E35" stroke-linecap="round" stroke-linejoin="round"/>
<path d="M85.0283 55.1226C85.7454 53.3488 86.8173 48.9632 85.368 45.6117C83.5564 41.4223 83.2168 35.0817 84.1226 33.723C85.0283 32.3643 86.6135 31.3453 84.4623 29.5337C84.1226 27.4956 83.8961 21.155 84.4623 19.7963C85.0284 18.4376 86.5003 18.5508 85.0284 17.0789" stroke="#242E35" stroke-linecap="round" stroke-linejoin="round"/>
<ellipse cx="14.9137" cy="36.8613" rx="2.83651" ry="5.01253" transform="rotate(-43.0081 14.9137 36.8613)" fill="#E0E5CD" stroke="#242E35" stroke-linecap="round" stroke-linejoin="round"/>
<path d="M11.4528 33.3L10.2565 34.5089C9.88155 35.3942 9.70711 37.7132 12.009 39.9063C14.8863 42.6478 17.2005 41.5075 17.8786 40.9079" stroke="#242E35" stroke-linecap="round" stroke-linejoin="round"/>
<ellipse cx="106.487" cy="65.5506" rx="2.06039" ry="5.20193" transform="rotate(101.029 106.487 65.5506)" fill="#E0E5CD" stroke="#242E35" stroke-linecap="round" stroke-linejoin="round"/>
<path d="M111.664 66.4337C111.717 66.8646 111.724 67.8555 111.335 68.3711C110.848 69.0157 108.909 69.1708 108.586 69.1697C108.263 69.1687 103.901 69.1542 101.163 66.7218C100.648 66.2032 101.061 65.106 101.331 64.6223" stroke="#242E35" stroke-linecap="round" stroke-linejoin="round"/>
<path d="M90.6257 74.8349C91.2591 74.9609 92.6649 75.4056 93.2217 76.1764C93.9177 77.1398 93.2753 79.8699 93.1301 80.3125C92.985 80.755 91.0257 86.7292 86.3657 89.367C85.4025 89.8354 84.0331 88.7654 83.4687 88.1719" stroke="#242E35" stroke-linecap="round" stroke-linejoin="round"/>
<ellipse cx="87.0005" cy="81.5176" rx="3.01262" ry="7.60606" transform="rotate(28.9959 87.0005 81.5176)" fill="#E0E5CD"/>
<ellipse cx="87.0005" cy="81.5176" rx="3.01262" ry="7.60606" transform="rotate(28.9959 87.0005 81.5176)" stroke="#242E35" stroke-linecap="round" stroke-linejoin="round"/>
<path d="M6.30905 57.6167C7.12904 57.1399 8.47421 56.6954 9.78714 56.776C11.6252 56.8889 14.1382 58.8882 15.0918 60.5282C16.0454 62.1682 16.7845 64.8493 16.2482 67.4521C15.8727 69.2741 13.8411 72.3123 10.1488 72.3491" stroke="#242E35" stroke-linecap="round" stroke-linejoin="round"/>
<ellipse cx="8.76729" cy="64.9098" rx="5.99088" ry="7.61636" transform="rotate(-16.314 8.76729 64.9098)" fill="#E0E5CD" stroke="#242E35" stroke-linecap="round" stroke-linejoin="round"/>
<path d="M10.0616 63.0241C9.12097 63.1689 7.28795 63.6842 7.48077 64.5864C7.72179 65.7142 10.3715 64.4742 10.6125 65.6019C10.8053 66.5042 8.99527 67.1269 8.06613 67.3254" stroke="#242E35" stroke-linecap="round" stroke-linejoin="round"/>
<line x1="8.59492" y1="62.8661" x2="9.62699" y2="67.6953" stroke="#242E35" stroke-linecap="round" stroke-linejoin="round"/>
<path d="M7.82701 58.7231C4.9011 59.5795 3.3265 62.9978 4.31004 66.3582C4.86503 68.2544 6.11596 69.727 7.62641 70.4964" stroke="#242E35" stroke-linecap="round" stroke-linejoin="round"/>
<ellipse cx="101.339" cy="39.5752" rx="7.24904" ry="9.21588" transform="rotate(151.335 101.339 39.5752)" fill="#E0E5CD" stroke="#242E35" stroke-linecap="round" stroke-linejoin="round"/>
<path d="M101.942 36.8433C100.851 37.2127 98.7746 38.2102 99.1931 39.2451C99.7162 40.5388 102.615 38.5068 103.138 39.8004C103.556 40.8354 101.529 41.9561 100.464 42.387" stroke="#242E35" stroke-linecap="round" stroke-linejoin="round"/>
<line x1="100.025" y1="36.9043" x2="102.344" y2="42.6385" stroke="#242E35" stroke-linecap="round" stroke-linejoin="round"/>
<path d="M106.133 47.5594C105.287 48.3352 103.812 49.2089 102.24 49.4534C100.038 49.7957 96.5498 48.0829 94.9982 46.3912C93.4466 44.6996 91.8791 41.7217 91.8394 38.5064C91.8116 36.2556 93.4266 32.1387 97.7814 31.1394" stroke="#242E35" stroke-linecap="round" stroke-linejoin="round"/>
<path d="M104.051 46.6449C107.288 44.8754 108.265 40.4273 106.232 36.7098C105.086 34.6122 103.226 33.1954 101.241 32.6769" stroke="#242E35" stroke-linecap="round" stroke-linejoin="round"/>
</svg>
