<svg width="145" height="100" viewBox="0 0 145 100" fill="none" xmlns="http://www.w3.org/2000/svg">
<path d="M23.0216 42.8032L17.2769 38.9734" stroke="#C5D5E4" stroke-linecap="round" stroke-linejoin="round"/>
<path d="M26.373 39.9306L21.1069 30.356" stroke="#C5D5E4" stroke-linecap="round" stroke-linejoin="round"/>
<path d="M30.6814 38.0159L28.7665 29.3987" stroke="#C5D5E4" stroke-linecap="round" stroke-linejoin="round"/>
<path d="M112.066 39.4523L121.162 38.4949" stroke="#C5D5E4" stroke-linecap="round" stroke-linejoin="round"/>
<path d="M91.6897 48.3232C111.307 32.3977 103.075 14.1971 96.9443 8.77198C88.5982 1.38609 73.9988 -0.503316 61.5626 2.12177C41.2445 6.74191 37.3327 26.3309 37.9165 35.5478C41.8867 35.5478 52.1743 35.5478 61.5626 35.5478C61.5626 22.2474 71.7299 24.7987 73.4733 26.2725C75.7504 28.1976 76.6037 31.8595 73.8237 36.5979C70.846 41.673 69.0944 42.023 64.0149 48.3232C59.9512 53.3634 59.9863 61.0403 60.5117 64.2487C68.1602 64.2487 83.4572 64.2487 83.4572 64.2487C82.4647 61.9737 82.2311 56.0935 89.2374 50.7733C93.266 52.6984 95.8993 53.7862 101.149 58.598C104.945 62.078 107.804 65.6488 109.731 67.0488C110.782 66.6405 114.215 65.9638 116.737 65.8238C119.89 65.6488 121.641 65.2988 122.342 63.0237C123.043 60.7486 121.903 56.515 117.963 57.4235C115.686 57.9485 114.635 59.8736 113.759 60.9236L104.126 53.0484C105.76 50.2483 111.772 45.0375 117.963 45.0375C124.619 45.0375 129.582 47.2246 133.956 53.0484C138.331 58.8721 143.184 73.6811 127.947 77.0241C113.062 80.2902 131.8 88.0495 138.106 89.4495C144.412 90.8496 146.036 83.7068 140.08 83.5318C134.125 83.3568 126.721 95.7803 116.737 94.0302" stroke="#242E35" stroke-linecap="round" stroke-linejoin="round"/>
<path d="M66.1076 45.4166C57.7873 44.306 38.354 46.8545 27.1827 65.9336C27.7063 68.0379 28.7536 68.9147 28.23 72.5972C27.7063 76.2797 29.9755 79.9623 32.5938 78.5594C35.212 77.1565 36.783 75.0522 33.292 70.8436C35.8055 67.8976 40.0413 63.6539 41.845 61.9003C43.6487 63.2447 47.3608 67.1961 47.7797 72.2465C48.3034 78.5594 45.5105 86.8012 38.7031 91.8866C31.8956 96.972 22.4698 96.446 18.9788 85.3984C15.4877 74.3508 20.0261 73.8247 14.7895 68.3886C20.2355 63.198 20.7728 62.6017 21.4128 61.9003C22.4601 62.7771 22.5315 67.0008 22.2839 68.3886C18.9675 86.9766 3.44372 92.9388 1 67.6871" stroke="#242E35" stroke-linecap="round" stroke-linejoin="round"/>
<circle cx="70.895" cy="85.4099" r="13.8832" stroke="#242E35" stroke-linecap="round" stroke-linejoin="round"/>
<circle cx="70.5281" cy="85.2817" r="8.31128" fill="#C5D5E4"/>
<ellipse cx="11.2929" cy="55.7293" rx="7.42035" ry="7.18098" stroke="#242E35" stroke-linecap="round" stroke-linejoin="round"/>
<path d="M117.334 76.4728C115.797 76.4728 114.283 77.0327 112.864 79.2726C110.736 77.7327 105.96 73.8213 103.773 71.7214C102.473 73.063 100.275 75.3529 102.403 76.4728C105.063 77.8727 109.672 82.0724 107.9 86.447C106.127 90.8217 99.5661 93.2715 95.3109 88.7219C91.0557 84.1722 92.6514 78.5726 98.6797 76.4728" stroke="#242E35" stroke-linecap="round" stroke-linejoin="round"/>
<path d="M107.757 33.2282L110.151 27.0046" stroke="#C5D5E4" stroke-linecap="round" stroke-linejoin="round"/>
<path d="M110.151 36.1007L119.247 30.356" stroke="#C5D5E4" stroke-linecap="round" stroke-linejoin="round"/>
<path d="M40.4956 32.7498H58.2087C61.3205 15.7548 76.1612 21.2602 78.3155 25.0901C80.4698 28.9199 79.991 38.7339 71.6132 45.4362C63.2354 52.1385 63.9535 59.7982 63.9535 61.2344C66.3471 61.2344 68.9802 60.995 79.7517 61.2344C81.4272 51.6597 82.1453 53.5746 92.4381 43.5212C104.691 31.553 102.491 16.4729 93.6349 10.2494C84.7783 4.02588 68.0227 2.58963 57.2512 6.65885C46.4798 10.7281 40.8945 26.0475 40.4956 32.7498Z" fill="#C5D5E4"/>
</svg>
