<svg width="67" height="126" viewBox="0 0 67 126" fill="none" xmlns="http://www.w3.org/2000/svg">
<g style="mix-blend-mode:multiply">
<ellipse cx="34.2494" cy="98" rx="29.75" ry="12.5" fill="#C5D5E4"/>
<path d="M53.4995 121.788V109.337L44.0641 104.352C42.8702 104.63 39.536 105.199 35.7498 105.25C35.6986 110.128 35.5064 120.162 35.5278 124.997" stroke="#242E35" stroke-linecap="round" stroke-linejoin="round"/>
<path d="M10.4063 120.501V108.456L18.7504 103.251C17.6005 102.935 14.9554 101.519 13.5004 99.5007C10.4397 99.5512 4.469 99.5218 1.50037 99.5007" stroke="#242E35" stroke-linecap="round" stroke-linejoin="round"/>
<path d="M21.2494 93.4922C17.7098 94.4954 15.4994 95.9197 15.4994 97.4995C15.4994 100.537 23.6702 103 33.7494 103C43.8286 103 51.9994 100.537 51.9994 97.4995C51.9994 95.9197 49.789 94.4954 46.2494 93.4922" stroke="#242E35" stroke-linecap="round" stroke-linejoin="round"/>
<path d="M21.25 84.0005C9.36381 86.2503 1 91.6124 1 97.8692C1 106.153 15.6627 112.869 33.75 112.869C51.8373 112.869 66.4999 106.153 66.4999 97.8692C66.4999 91.6124 58.1361 86.2503 46.25 84.0005" stroke="#242E35" stroke-linecap="round" stroke-linejoin="round"/>
<path d="M66.4999 97.9998V109.986C66.4999 118.278 51.8373 125 33.75 125C15.6627 125 1 118.278 1 109.986V97.9998" stroke="#242E35" stroke-linecap="round" stroke-linejoin="round"/>
<path d="M55.2499 86.7505L48.2499 92.0005C50.2499 92.5005 52.9999 93.7505 54.2499 95.5005C57.0695 95.5005 62.895 95.5005 65.9999 95.5005" stroke="#242E35" stroke-linecap="round" stroke-linejoin="round"/>
<path d="M46.2028 80.3585C46.2028 85.3287 46.2028 90.9676 46.2028 94.6314C46.398 95.9971 45.668 96.6813 42.4669 98.1637C40.7722 98.9485 36.8006 99.6701 33.6167 99.6701C30.3365 99.6701 26.0533 99.0169 24.5005 98.4999C22.9477 97.9829 21.3105 97.1998 21.3105 94.6314C21.3105 93.0964 21.2676 86.0614 21.2121 76.2757M21.2121 76.2757C21.149 65.165 21.0695 50.8034 21.0176 42.2449C20.92 39.9036 21.1933 34.7527 23.0676 32.8797C25.4104 30.5384 26.7627 28.8953 28.3389 27.3191C29.2174 26.4406 29.2174 24.8803 29.2174 24.6852V6.83282H28.3389V3.61354H29.2174V1.56491C29.2174 1.56491 30.7922 1 33.4638 1C36.1354 1 37.7101 1.56491 37.7101 1.56491V3.61354H38.5887V6.83282H37.7101V24.6852C37.7101 25.7992 38.1787 27.2021 38.8815 27.9045C39.7601 28.7824 44.4457 33.465 44.7386 34.0504C45.0314 34.6357 46.2028 35.8063 46.2028 42.2449V76.2757C42.4511 77.8918 32.2007 80.1543 21.2121 76.2757Z" stroke="#242E35" stroke-linecap="round" stroke-linejoin="round"/>
<path d="M29.2827 14.2688C29.2827 14.2688 31.5423 14.6454 33.4254 14.6454C35.3084 14.6454 37.568 14.2688 37.568 14.2688" stroke="#242E35" stroke-linecap="round" stroke-linejoin="round"/>
<ellipse cx="34.0875" cy="54.5764" rx="7.41304" ry="7.74999" fill="#C5D5E4"/>
<path d="M34.0145 54.5859C29.082 54.5859 25.0835 58.5845 25.0835 63.517C25.0835 68.4494 29.082 72.448 34.0145 72.448C38.947 72.448 44.7317 67.8549 40.9042 67.0894C37.0766 66.3238 22.5005 87.75 46.2505 93.5" stroke="#242E35" stroke-linecap="round" stroke-linejoin="round"/>
</g>
</svg>
