<svg width="151" height="114" viewBox="0 0 151 114" fill="none" xmlns="http://www.w3.org/2000/svg">
<path d="M91.1982 27.4943L67.7052 18.9822C64.6408 19.7766 55.1755 22.3189 41.8288 26.1324C35.7001 54.3928 39.1049 72.4385 55.4479 83.3341C81.0519 66.446 89.9498 39.0709 91.1982 27.4943Z" fill="#F3DDC4"/>
<path d="M97.5279 67.5107C150.507 29.516 175.505 -18.8819 111.267 9.56093C126.316 3.20426 152.599 -4.60537 137.343 15.0095C118.273 39.5281 -20.6661 132.543 6.96598 94.7917C1.15129 99.5157 -13.8244 121.204 46.6266 91.4284" stroke="#242E35" stroke-linecap="round" stroke-linejoin="round"/>
<path d="M100.759 20.4583L106.986 23.5717C106.986 49.3143 92.664 83.5061 60.2839 97.5167C56.8591 95.96 53.6678 94.533 52.8894 94.0141" stroke="#242E35" stroke-linecap="round" stroke-linejoin="round"/>
<path d="M77.4863 76.4283C102.08 54.2744 100.229 27.0126 100.763 20.4566L68.85 8.39185L34.2126 17.7323C26.8488 45.6205 27.2073 79.2234 52.8935 94.0124C60.8726 91.2471 84.0815 77.269 94.2056 69.6206" stroke="#242E35" stroke-linecap="round" stroke-linejoin="round"/>
<rect x="3" y="59" width="16" height="13" fill="#C0D5E5"/>
<rect x="1.00006" y="54.0452" width="15.8797" height="14.9456" stroke="#242E35" stroke-linecap="round" stroke-linejoin="round"/>
<rect x="114.961" y="85.8032" width="6.3297" height="5.80222" stroke="#242E35" stroke-linecap="round" stroke-linejoin="round"/>
<circle cx="47.6305" cy="110.013" r="2.72429" stroke="#242E35" stroke-linecap="round" stroke-linejoin="round"/>
<path d="M67.1986 59.8218C66.7601 62.02 66.0513 65.5734 65.7281 67.1937C65.7189 67.8039 65.2423 68.0837 63.286 68.6393C62.2503 68.9335 59.9218 69.1286 58.1061 69.0292C56.2355 68.9267 53.8482 68.6062 53.0083 68.3291C52.1684 68.0519 51.2436 67.866 51.5328 66.4163C51.8219 64.9667 54.623 50.3601 55.9874 43.2381C56.1382 42.1996 56.7485 39.93 57.9826 39.1602C59.5252 38.1978 60.4413 37.5134 61.4792 36.8655C62.0577 36.5044 62.1954 35.8143 62.2126 35.728L63.7876 27.8324L63.2866 27.805L63.5706 26.3812L64.0716 26.4086L64.2523 25.5026C64.2523 25.5026 65.2002 25.3019 66.7237 25.3853C68.2472 25.4688 69.0954 25.7678 69.0954 25.7678L68.9147 26.6738L69.4157 26.7013L69.1317 28.1251L68.6307 28.0976L67.0557 35.9933C66.9574 36.486 67.1009 37.121 67.4397 37.4536C67.8633 37.8694 70.1222 40.0867 70.2376 40.3547C70.353 40.6227 70.9177 41.1771 70.3497 44.0247L69.8013 46.7737L58.5257 45.8045L55.9874 58.9529L64.2523 59.8218L66.079 49.721L61.0435 49.1615L60.2042 54.4769" stroke="#242E35" stroke-linecap="round" stroke-linejoin="round"/>
<path d="M84.3408 88.7762C93.5716 83.941 116.042 68.6229 138.407 43.7261" stroke="#242E35" stroke-linecap="round" stroke-linejoin="round"/>
</svg>
