<svg width="146" height="119" viewBox="0 0 146 119" fill="none" xmlns="http://www.w3.org/2000/svg">
<path d="M143.885 71.3966C143.36 75.5095 120.544 84.6129 95.4839 82.9174C70.4237 81.222 70.2273 72.6002 57.5917 71.3966C44.5429 70.1535 32.7116 103.304 22.4169 101.306C2.50498 97.4417 4.71748 62.2353 5.23401 58.1886C6.01761 52.0497 37.6909 50.0299 75.9784 53.6772C114.266 57.3244 144.669 65.2577 143.885 71.3966Z" fill="#FAE8D1"/>
<path d="M20.7973 72.3082C20.2611 71.9655 19.3123 71.1155 19.8073 70.4574C20.3023 69.7993 20.3436 67.7154 20.3023 66.7557C20.2198 66.2416 20.6241 65.2339 22.9011 65.3162C25.7474 65.419 27.6037 65.419 27.2324 66.7557C26.8612 68.0925 26.9849 69.8405 27.2324 70.6631C27.48 71.4857 26.8612 71.6913 26.6137 72.3082C26.3752 72.9026 26.8259 79.7956 28.7404 84.4368C28.8131 84.6131 28.888 84.7862 28.965 84.9556C31.0688 89.5827 33.4201 93.1816 33.4201 98.2199C33.4201 102.251 33.4201 111.21 33.4201 115.186C33.4201 115.871 33.0241 117.284 31.44 117.448C29.46 117.654 21.7873 118.579 16.0947 117.448C13.2484 116.728 13.9909 116.111 13.8672 115.494C13.7682 115.001 13.8259 103.772 13.8672 98.2199C13.9496 96.5405 14.5106 92.4001 16.0947 89.2742C17.9509 85.6114 21.1662 79.4088 19.8073 76.9411C18.4485 74.4733 14.6919 74.0667 14.3075 76.9411C13.6523 86.1412 17.4399 100.081 37.8318 89.2742C63.3217 75.7655 74.7205 74.4654 74.7205 82.9994" stroke="#242E35" stroke-width="1.5" stroke-linecap="round" stroke-linejoin="round"/>
<path d="M74.7202 82.9993L74.8137 91.2138C74.8442 91.5161 74.8138 92.1904 74.448 92.4694C72.0337 93.5855 71.4911 95.2131 71.5216 95.8874C71.5216 102.677 71.5216 116.41 71.5216 117.023C71.5216 117.637 72.2532 117.93 72.619 118C75.0881 118 80.2825 118 81.3067 118C82.3309 118 82.648 117.349 82.6785 117.023C82.6785 114.711 82.6785 111.542 82.6785 108.358C79.6744 109.965 73.6662 112.215 73.6662 108.358C73.6662 104.501 73.6662 100.323 73.6662 98.7161C88.4005 104.123 116.523 110.719 123.389 97.7413M75.8119 81.6573H79.2034V82.3549L79.5692 82.4944V83.8895L79.2948 84.029V91.6323C79.3558 91.9114 79.6057 92.5252 80.1179 92.7484C80.758 93.0275 82.6785 94.3528 82.6785 95.8874C82.6785 98.7161 82.6785 98.0424 82.6785 102.588C82.6785 105.819 87.8113 109.018 93.905 105.415C102.059 100.594 153.489 66.8236 118.728 68.6778C90.9183 70.1611 57.2154 69.4195 66.3708 63.486" stroke="#242E35" stroke-width="1.5" stroke-linecap="round" stroke-linejoin="round"/>
<path d="M87.8048 20.982C88.4089 21.1271 89.6171 21.4171 88.3724 22.2519C87.8529 22.6003 86.8238 23.1227 85.8907 23.9231C83.2942 29.3447 87.6032 32.1656 92.1407 32.7914C97.4373 33.522 96.9855 35.9381 95.5716 37.299C95.8137 34.5233 85.4226 33.4458 84.1907 29.1827C83.4731 26.6992 84.5884 25.0403 85.8907 23.9231C86.3251 23.0162 86.9527 22.0365 87.8048 20.982Z" fill="#E6C9C9" stroke="#242E35" stroke-width="1.5" stroke-linecap="round" stroke-linejoin="round"/>
<path d="M89.1378 10.1621C87.9567 9.97623 85.5933 9.0697 87.5978 11.6291C89.1222 13.5754 92.1352 13.3041 91.6104 14.9356C91.0856 16.567 93.7382 17.7896 93.897 15.1916C94.0559 12.5935 90.2375 5.52584 87.2996 13.6078C84.9493 20.0734 88.3671 18.3553 90.3698 16.6881L88.5527 19.181C83.5832 19.5502 74.0266 17.6271 75.5559 6.98088C76.4466 6.31598 77.5479 3.94419 75.2256 4.85125C72.9033 5.75831 64.53 23.373 84.1509 23.3966C82.2981 27.0525 77.2646 36.3889 80.4223 39.1972C83.58 42.0056 94.4757 37.5914 91.2431 42.3806C88.0105 47.1699 72.995 51.7667 63.3076 50.32C60.6871 53.2058 63.9485 57.7965 43.2388 67.4704C37.1305 65.4183 33.7621 64.3168 37.7945 64.406C41.8269 64.4953 41.5124 64.4198 45.5129 60.4007C49.5133 56.3816 58.4954 42.135 67.1367 41.5732C75.778 41.0114 82.0613 42.5198 80.2728 54.3925C78.4843 66.2653 100.917 64.9134 103.025 70.9847C104.191 76.8298 104.032 79.4278 106.779 69.8355C107.478 67.6602 105.208 69.4584 104.162 67.4499C103.116 65.4413 92.6287 59.1161 87.479 59.3444C90.9614 46.4137 86.347 29.1961 96.1056 28.3167C97.8157 29.3131 108.601 33.6595 107.373 42.7378C106.812 45.5323 106.498 45.4569 109.135 44.6252C111.771 43.7936 113.063 42.9322 111.58 42.2832C110.097 41.6342 112.84 37.3134 106.926 31.5001C101.013 25.6869 92.2239 23.5479 92.3227 20.086C92.4017 17.3164 92.7188 15.6996 92.8675 15.2373" stroke="#242E35" stroke-width="1.5" stroke-linecap="round" stroke-linejoin="round"/>
<path d="M103.799 47.5261L117.653 41.1263L120.491 45.7862L123.329 50.4461L109.796 56.9232L106.798 52.2247L103.799 47.5261Z" fill="#E0E5CD"/>
<path d="M120.491 45.7862L123.329 50.4461L109.796 56.9232L106.798 52.2247M120.491 45.7862L117.653 41.1263L103.799 47.5261L106.798 52.2247M120.491 45.7862L106.798 52.2247" stroke="#242E35" stroke-width="1.5" stroke-linecap="round" stroke-linejoin="round"/>
<path d="M112.59 49.4878L113.292 51.005L116.205 49.7293L115.185 48.3107" stroke="#242E35" stroke-width="1.5" stroke-linecap="round" stroke-linejoin="round"/>
<path d="M119.981 91.1809V92.6979C119.792 92.9688 119.792 93.4564 119.981 93.6731C120.17 93.8898 120.297 94.1607 120.297 94.865C120.233 95.7319 120.17 97.8449 119.666 99.3619C119.035 101.963 116.764 103.371 116.574 105.213C116.07 109.006 117.521 115.887 117.773 116.862C117.975 117.642 119.371 117.945 120.044 118H123.199C124.839 118 125.722 117.512 125.848 117.024C126.984 111.498 127.741 105.809 126.038 103.209C123.312 99.6545 123.199 97.3947 123.199 94.6483C123.219 94.4691 123.136 94.3449 123.388 93.9982C123.703 93.5647 123.64 93.2938 123.514 92.752C123.388 92.2102 123.514 91.831 123.514 91.2892C123.514 90.7474 123.325 90.6932 122.757 90.4765C122.189 90.2598 120.991 90.3682 120.549 90.4765C120.107 90.5849 119.981 90.91 119.981 91.1809Z" stroke="#242E35" stroke-width="1.5" stroke-linecap="round" stroke-linejoin="round"/>
<path d="M116.926 112.262C119.04 113.001 122.272 114.036 126.619 112.262" stroke="#242E35" stroke-width="1.5" stroke-linecap="round" stroke-linejoin="round"/>
<path d="M13.8115 111.218C15.7854 112.203 22.4136 113.58 33.135 111.218" stroke="#242E35" stroke-width="1.5" stroke-linecap="round" stroke-linejoin="round"/>
</svg>
