<svg width="136" height="117" viewBox="0 0 136 117" fill="none" xmlns="http://www.w3.org/2000/svg">
<path d="M75.9169 1C53.0978 1 121.921 27.6872 132.122 31.5952C132.898 31.8926 133.368 32.6204 133.368 33.4519V38.5709C133.368 39.6755 132.473 40.5709 131.368 40.5709H21.9314C20.8268 40.5709 19.9314 39.6755 19.9314 38.5709V33.443C19.9314 32.616 20.3957 31.8914 21.1662 31.5908C31.2219 27.6671 98.7274 1 75.9169 1Z" stroke="#242E35" stroke-width="1.5" stroke-linecap="round" stroke-linejoin="round"/>
<g style="mix-blend-mode:multiply">
<path d="M21.6322 95.0615L16.3991 98.9013L11.1722 95.0615C7.71024 92.5222 4.89331 89.1931 2.95159 85.3463C1.00987 81.4996 -0.00153969 77.2442 1.75931e-06 72.928C3.072 72.7865 6.04358 71.782 8.57917 70.0278C11.1148 68.2736 13.1133 65.8396 14.3492 63.0007L15.5878 60.2098L17.068 63.3628C18.3553 66.1074 20.3632 68.4445 22.874 70.1207C25.3849 71.7969 28.303 72.7483 31.3119 72.8718L32.8292 72.9342C32.8269 77.2515 31.8112 81.507 29.8652 85.3528C27.9191 89.1986 25.0979 92.5255 21.6322 95.0615Z" fill="#C5D5E4"/>
</g>
<circle cx="77.0897" cy="22.3975" r="7.32794" stroke="#242E35" stroke-width="1.5" stroke-linecap="round" stroke-linejoin="round"/>
<path d="M28.1392 41.1572V44.7264C28.1392 45.831 29.0346 46.7264 30.1392 46.7264H43.7262C44.8308 46.7264 45.7262 45.831 45.7262 44.7264V41.1572" stroke="#242E35" stroke-width="1.5" stroke-linecap="round" stroke-linejoin="round"/>
<path d="M125.454 106.229L125.454 102.66C125.454 101.556 124.558 100.66 123.454 100.66L109.867 100.66C108.762 100.66 107.867 101.556 107.867 102.66L107.867 106.229" stroke="#242E35" stroke-width="1.5" stroke-linecap="round" stroke-linejoin="round"/>
<path d="M68.0037 41.1572V44.7264C68.0037 45.831 68.8991 46.7264 70.0037 46.7264H83.5907C84.6953 46.7264 85.5907 45.831 85.5907 44.7264V41.1572" stroke="#242E35" stroke-width="1.5" stroke-linecap="round" stroke-linejoin="round"/>
<path d="M85.5911 106.229L85.5911 102.66C85.5911 101.556 84.6956 100.66 83.5911 100.66L70.004 100.66C68.8994 100.66 68.004 101.556 68.004 102.66L68.004 106.229" stroke="#242E35" stroke-width="1.5" stroke-linecap="round" stroke-linejoin="round"/>
<path d="M107.866 41.1572V44.7264C107.866 45.831 108.762 46.7264 109.866 46.7264H123.454C124.558 46.7264 125.454 45.831 125.454 44.7264V41.1572" stroke="#242E35" stroke-width="1.5" stroke-linecap="round" stroke-linejoin="round"/>
<path d="M45.7266 106.229L45.7266 102.66C45.7266 101.556 44.8311 100.66 43.7266 100.66L30.1395 100.66C29.0349 100.66 28.1395 101.556 28.1395 102.66L28.1395 106.229" stroke="#242E35" stroke-width="1.5" stroke-linecap="round" stroke-linejoin="round"/>
<line x1="31.2349" y1="47.4763" x2="31.2349" y2="64.1496" stroke="#242E35" stroke-width="1.5" stroke-linecap="round" stroke-linejoin="round"/>
<line x1="71.6838" y1="75.6156" x2="71.6838" y2="99.91" stroke="#242E35" stroke-width="1.5" stroke-linecap="round" stroke-linejoin="round"/>
<line x1="111.548" y1="72.0982" x2="111.548" y2="99.91" stroke="#242E35" stroke-width="1.5" stroke-linecap="round" stroke-linejoin="round"/>
<line x1="42.9587" y1="77.3743" x2="42.9587" y2="99.9099" stroke="#242E35" stroke-width="1.5" stroke-linecap="round" stroke-linejoin="round"/>
<line x1="83.4092" y1="47.4763" x2="83.4092" y2="99.9099" stroke="#242E35" stroke-width="1.5" stroke-linecap="round" stroke-linejoin="round"/>
<line x1="123.274" y1="47.4763" x2="123.274" y2="99.9099" stroke="#242E35" stroke-width="1.5" stroke-linecap="round" stroke-linejoin="round"/>
<path d="M111.385 71.3483C111.385 60.3402 102.462 51.4163 91.4535 51.4163C80.4453 51.4163 71.5215 60.3402 71.5215 71.3483" stroke="#242E35" stroke-width="1.5" stroke-linecap="round" stroke-linejoin="round"/>
<g style="mix-blend-mode:multiply">
<path d="M91.4532 57.2786C83.359 57.2786 76.7974 63.8403 76.7974 71.9345V96.2633H106.109V71.9345C106.109 63.8403 99.5475 57.2786 91.4532 57.2786Z" fill="#C5D5E4"/>
</g>
<path d="M76.7974 33.2428C76.7974 46.1936 66.2987 56.6922 53.3479 56.6922C51.8824 56.7899 48.9512 56.4577 48.9512 54.3473C48.9512 51.7092 52.1755 50.2438 55.6929 52.0025C59.2103 53.7612 58.0378 59.9164 51.2961 63.141" stroke="#242E35" stroke-width="1.5" stroke-linecap="round" stroke-linejoin="round"/>
<path d="M42.7959 71.9346C42.7959 60.9264 33.872 52.0026 22.8639 52.0026C11.8557 52.0026 2.93188 60.9264 2.93188 71.9346V104.229C2.93188 105.334 3.82732 106.229 4.93188 106.229H133.128C134.233 106.229 135.128 107.125 135.128 108.229V113.316C135.128 114.421 134.233 115.316 133.128 115.316H18.7084C17.6038 115.316 16.7084 114.421 16.7084 113.316V93.6253" stroke="#242E35" stroke-width="1.5" stroke-linecap="round" stroke-linejoin="round"/>
<circle cx="16.4148" cy="81.3142" r="7.62106" stroke="#242E35" stroke-width="1.5" stroke-linecap="round" stroke-linejoin="round"/>
<path d="M19.0526 78.4028C17.3916 78.3051 14.0696 78.5201 14.0696 80.1615C14.0696 82.2133 19.0526 81.0411 19.0526 83.0929C19.0526 84.7344 15.7306 85.1447 14.0696 85.1447" stroke="#242E35" stroke-width="1.5" stroke-linecap="round" stroke-linejoin="round"/>
<line x1="16.5776" y1="77.3743" x2="16.5776" y2="86.4265" stroke="#242E35" stroke-width="1.5" stroke-linecap="round" stroke-linejoin="round"/>
</svg>
