<svg width="115" height="120" viewBox="0 0 115 120" fill="none" xmlns="http://www.w3.org/2000/svg">
<path d="M107.457 103.107H41.456C37.5803 103.107 35.9698 98.1463 39.1062 95.8695L60.4153 80.4005C61.9386 79.2947 64.0335 79.4307 65.401 80.7242C66.9091 82.1507 69.2688 82.1507 70.7768 80.7242L77.7875 74.0928C79.0704 72.8792 81.0779 72.8792 82.3608 74.0928C83.6438 75.3063 85.6512 75.3063 86.9341 74.0928L104.708 57.2804C107.258 54.8682 111.457 56.6761 111.457 60.1863V99.1065C111.457 101.316 109.666 103.107 107.457 103.107Z" fill="#E0E5CD"/>
<path d="M21.9946 115.195V118.34" stroke="#242E35" stroke-width="1.5" stroke-linecap="round" stroke-linejoin="round"/>
<path d="M6.66626 104.187L3.33348 104.187" stroke="#242E35" stroke-width="1.5" stroke-linecap="round" stroke-linejoin="round"/>
<path d="M6.66626 92.8643L3.33348 92.8643" stroke="#242E35" stroke-width="1.5" stroke-linecap="round" stroke-linejoin="round"/>
<path d="M6.66626 82.4856L3.33348 82.4856" stroke="#242E35" stroke-width="1.5" stroke-linecap="round" stroke-linejoin="round"/>
<path d="M6.66626 71.7914L3.33348 71.7914" stroke="#242E35" stroke-width="1.5" stroke-linecap="round" stroke-linejoin="round"/>
<path d="M6.66626 61.4122L3.33348 61.4122" stroke="#242E35" stroke-width="1.5" stroke-linecap="round" stroke-linejoin="round"/>
<path d="M35.9944 115.195V118.34" stroke="#242E35" stroke-width="1.5" stroke-linecap="round" stroke-linejoin="round"/>
<path d="M49.9922 115.195V118.34" stroke="#242E35" stroke-width="1.5" stroke-linecap="round" stroke-linejoin="round"/>
<path d="M63.99 115.195V118.34" stroke="#242E35" stroke-width="1.5" stroke-linecap="round" stroke-linejoin="round"/>
<path d="M77.6536 115.195V118.34" stroke="#242E35" stroke-width="1.5" stroke-linecap="round" stroke-linejoin="round"/>
<path d="M91.6514 115.195V118.34" stroke="#242E35" stroke-width="1.5" stroke-linecap="round" stroke-linejoin="round"/>
<path d="M104.385 115.381V105.14L113.501 110.465L104.385 115.381Z" stroke="#242E35" stroke-width="1.5" stroke-linecap="round" stroke-linejoin="round"/>
<path d="M17.5245 53.3456L6.67212 53.3456L12.3154 44.7427L17.5245 53.3456Z" stroke="#242E35" stroke-width="1.5" stroke-linecap="round" stroke-linejoin="round"/>
<path d="M104.316 109.908C98.1254 109.908 83.3536 110.394 73.7918 112.336C61.8396 114.763 51.7261 112.336 32.7864 109.908C17.6346 107.966 6.9818 110.717 3.54936 112.336C2.07831 113.145 -0.312138 115.214 1.89443 117.018C4.65264 119.272 21.5702 121.006 16.0538 101.237C11.6407 85.4223 11.6407 62.8558 12.1923 53.5494" stroke="#242E35" stroke-width="1.5" stroke-linecap="round" stroke-linejoin="round"/>
<path d="M63.4906 63.7862V61.6665H63.92V60.1375H63.4906V59.1645C63.4906 59.1645 62.721 58.8962 61.4153 58.8962C60.1096 58.8962 59.34 59.1645 59.34 59.1645V60.1375H58.9107V61.6665H59.34V70.1454C59.34 70.238 59.34 70.9791 58.9107 71.3964C58.1403 72.145 57.4794 72.9254 56.3344 74.0373C55.4185 74.9269 55.2849 77.3733 55.3326 78.4853C55.3695 84.4062 56.1297 95.3036 56.1574 100.57C56.1655 102.103 55.5736 103.027 55.4757 103.366C54.9909 105.044 56.2912 105.067 57.0501 105.312C57.809 105.558 59.887 105.759 61.4901 105.759C63.0461 105.759 64.9871 105.417 65.8153 105.044C67.3798 104.34 67.7366 104.015 67.6412 103.366C67.6412 102.651 66.8223 101.584 66.8223 100.412C66.8223 98.7342 66.8223 96.9274 66.8223 95.5374L67.6412 78.4853C67.6412 75.4273 67.0687 74.8713 66.9256 74.5933C66.7824 74.3153 64.4925 72.0914 64.0631 71.6744C63.7196 71.3408 63.4906 70.6745 63.4906 70.1454C63.4902 69.2263 64.2561 67.3881 68.6553 66.7591" stroke="#242E35" stroke-width="1.5" stroke-linecap="round" stroke-linejoin="round"/>
<path d="M83.1078 74.8502C84.0744 71.6255 85.6858 67.1722 85.6858 62.5653C85.6858 58.8799 85.6858 56.3205 85.6858 55.5015H85.2025V53.6588H85.6858V52.1232C85.6858 52.1232 86.7653 51.6625 88.4245 51.6625C90.0837 51.6625 91.1633 52.1232 91.1633 52.1232V53.6588H91.4855V55.5015H91.0022V62.5653C91.1096 64.664 91.7433 70.0591 93.4187 74.8502C95.5131 80.8391 96.3186 85.1389 96.3186 89.7457C96.3186 93.4312 96.1038 99.8808 95.9964 102.645C96.0501 103.157 95.5775 104.18 93.2576 104.18C90.9377 104.18 85.0951 104.18 82.4638 104.18C81.9267 104.232 80.8205 103.996 80.6916 102.645C80.5305 100.956 80.0472 89.7457 80.5305 85.9067C81.1273 81.9355 80.8878 73.5529 75.1554 71.7916C67.99 69.59 63.4907 67.5456 63.4907 63.7714" stroke="#242E35" stroke-width="1.5" stroke-linecap="round" stroke-linejoin="round"/>
<path d="M37.7225 84.0578H34.6678C33.5231 84.0578 33.9035 84.7844 34.2853 85.1478C33.8271 85.5838 34.2217 85.935 34.4762 86.0561V89.8709C34.4762 90.5976 34.0944 90.5976 33.3307 90.9609C30.8488 91.6876 28.1767 93.5042 27.7948 95.6841C27.0311 100.335 29.7676 103.919 31.2313 105.13H41.159C43.641 102.587 44.9774 98.409 44.5956 95.6841C44.2137 92.9592 39.8226 91.1426 38.868 90.9609C38.1044 90.8156 37.7862 90.1737 37.7225 89.8709V86.0561C38.6771 85.6927 37.9134 85.3294 37.7225 85.1478C39.0971 84.7118 38.2953 84.2395 37.7225 84.0578Z" stroke="#242E35" stroke-width="1.5" stroke-linecap="round" stroke-linejoin="round"/>
<path d="M39.0018 24.1729C27.1778 38.5647 10.6241 67.4621 39.0018 67.9166C43.8218 67.9938 48.1423 68.0395 51.9949 68.0067M48.0206 11.6744C51.0267 16.7873 49.8243 19.6278 42.6097 16.2199C35.395 12.812 34.7938 5.42602 37.7999 2.01742C40.806 -1.39118 42.0084 9.40272 47.4194 4.85792C52.8304 0.313118 54.0328 3.15362 56.4377 7.13032C58.8426 11.107 60.0451 5.99408 64.2536 2.58547C68.4621 -0.823128 67.8609 7.13028 63.0512 16.2199C58.2414 25.3095 47.4194 19.0604 42.0084 19.0604C36.5974 19.0604 38.4011 23.0367 52.2292 22.4686C66.0573 21.9005 72.0695 29.8539 76.8792 45.7607C80.5771 59.0386 78.8161 64.5796 68.6588 66.7457" stroke="#242E35" stroke-width="1.5" stroke-linecap="round" stroke-linejoin="round"/>
<ellipse cx="50.9914" cy="46.9447" rx="11.3314" ry="10.6936" stroke="#242E35" stroke-width="1.5" stroke-linecap="round" stroke-linejoin="round"/>
<path d="M54.9913 42.8835C52.5473 42.7472 47.6592 43.0472 47.6592 45.3377C47.6592 48.2009 54.9913 46.5651 54.9913 49.4282C54.9913 51.7188 50.1032 52.2914 47.6592 52.2914" stroke="#242E35" stroke-width="1.5" stroke-linecap="round" stroke-linejoin="round"/>
<line x1="50.7422" y1="41.09" x2="50.7422" y2="54.3723" stroke="#242E35" stroke-width="1.5" stroke-linecap="round" stroke-linejoin="round"/>
<path d="M46.9927 22.5695C45.7829 23.3378 42.2847 26.3832 40.8323 30.5319C39.3798 34.6805 47.4893 28.035 51.7255 24.1937C53.5405 27.4588 57.7757 33.4129 60.1964 31.1081C63.2223 28.2271 59.4556 23.7219 55.8245 22.5695" stroke="#242E35" stroke-width="1.5" stroke-linecap="round" stroke-linejoin="round"/>
<path d="M57.8232 92.3928C57.6898 92.1412 57.4343 84.5299 57.3232 80.7557L65.4885 80.2839L64.822 92.3928C62.5446 92.4977 57.9565 92.6445 57.8232 92.3928Z" stroke="#242E35" stroke-width="1.5" stroke-linecap="round" stroke-linejoin="round"/>
<ellipse cx="35.9956" cy="95.3804" rx="2.66622" ry="2.51614" stroke="#242E35" stroke-width="1.5" stroke-linecap="round" stroke-linejoin="round"/>
<path d="M92.9868 84.0578C89.4926 84.0578 82.2012 84.0578 80.9888 84.0578" stroke="#242E35" stroke-width="1.5" stroke-linecap="round" stroke-linejoin="round"/>
<path d="M89.6513 96.6382C87.0307 96.6382 81.5622 96.6382 80.6528 96.6382" stroke="#242E35" stroke-width="1.5" stroke-linecap="round" stroke-linejoin="round"/>
<g style="mix-blend-mode:multiply">
<path d="M34.5362 84.4863C34.5362 81.0996 35.9593 77.8516 38.4923 75.4569C41.0253 73.0621 44.4609 71.7167 48.0431 71.7167C44.4609 71.7167 41.0253 70.3714 38.4923 67.9766C35.9593 65.5818 34.5362 62.3338 34.5362 58.9471C34.5362 62.3325 33.1143 65.5793 30.5831 67.9738C28.0518 70.3683 24.6184 71.7146 21.0376 71.7167C24.6184 71.7188 28.0518 73.0651 30.5831 75.4596C33.1143 77.8542 34.5362 81.101 34.5362 84.4863Z" fill="#E0E5CD"/>
</g>
</svg>
