<svg width="166" height="95" viewBox="0 0 166 95" fill="none" xmlns="http://www.w3.org/2000/svg">
<g style="mix-blend-mode:multiply">
<path d="M27.2849 70.1508L47.9349 29.0462L155.558 32.5347L160.122 77.5481C118.151 76.8137 33.3602 75.3132 29.9606 75.1873C26.5609 75.0614 26.7603 71.7772 27.2849 70.1508Z" fill="#FAE8D1"/>
</g>
<path d="M72.4546 36.6268L77.0189 39.932" stroke="#242E35" stroke-width="1.5" stroke-linecap="round" stroke-linejoin="round"/>
<path d="M72.9267 35.6824L71.825 37.4137" stroke="#242E35" stroke-width="1.5" stroke-linecap="round" stroke-linejoin="round"/>
<path d="M62.8542 27.6556C64.2183 28.6524 66.9779 30.7089 67.1038 30.9608C67.1935 31.1401 67.232 31.2684 67.2195 31.4329M67.2195 31.4329C67.2101 31.5571 67.1715 31.702 67.1038 31.9051C66.726 32.2828 65.6873 33.4265 65.2151 33.9512C64.8479 34.0561 64.0504 34.1086 63.7986 33.479C63.4838 32.692 68.9924 35.9972 70.5663 37.099C70.9441 36.5953 71.8779 35.4201 72.2976 34.8955C72.9272 35.63 74.3122 37.1304 74.8159 37.2564C75.4454 37.4137 76.2324 37.2564 76.3898 37.5711C76.5472 37.8859 79.2228 41.5059 79.3802 41.6633C79.5376 41.8207 74.8159 40.2468 74.1863 40.0894C73.5567 39.932 74.0289 38.9876 73.3994 38.5155C72.7698 38.0433 69.3072 36.312 68.5203 34.8955C67.7333 33.479 68.5944 32.9693 67.2195 31.4329Z" stroke="#242E35" stroke-width="1.5" stroke-linecap="round" stroke-linejoin="round"/>
<path d="M55.1416 19.4714C55.299 20.0485 55.8656 21.2341 56.8729 21.3601C56.9988 20.9823 57.2401 20.783 57.3451 20.7305" stroke="#242E35" stroke-width="1.5" stroke-linecap="round" stroke-linejoin="round"/>
<path d="M54.8271 34.4233C54.1976 35.4726 52.6552 37.5711 51.522 37.5711C50.1055 37.5711 45.3838 37.5711 43.0229 37.5711C40.6621 37.5711 41.9212 37.7285 39.0882 36.7842C36.2552 35.8398 34.3665 34.4233 32.0056 34.8955C29.6448 35.3676 34.3665 36.7842 37.1995 37.5711C40.0325 38.3581 44.2822 38.5154 45.3839 38.0433C46.4856 37.5711 49.0039 38.0433 48.5317 38.6728C48.0595 39.3024 46.3282 40.2467 44.9117 41.0337C43.4952 41.8206 43.6526 42.765 39.5605 42.2928C35.4683 41.8206 36.0979 43.0797 31.0614 40.5615C26.025 38.0433 25.7102 38.5154 24.1363 38.0433C22.5624 37.5711 20.6737 31.4329 12.4894 29.5442C6.19386 28.0914 5.87908 28.2851 1 27.026" stroke="#242E35" stroke-width="1.5" stroke-linecap="round" stroke-linejoin="round"/>
<path d="M60.179 31.7478C60.1265 32.5347 59.3606 34.0457 56.7164 33.7939C53.4112 33.4791 49.1617 33.3217 46.9582 33.1643C44.7548 33.0069 43.3383 32.8495 41.607 31.7478C39.8757 30.6461 32.0062 27.3409 32.4784 28.2852C32.9506 29.2296 44.1251 34.8956 45.699 30.0165" stroke="#242E35" stroke-width="1.5" stroke-linecap="round" stroke-linejoin="round"/>
<path d="M48.532 21.36C48.532 22.4617 48.3116 24.8855 47.4303 25.7669C46.3285 26.8687 40.6625 23.6235 35.1539 21.9896C29.6452 20.3556 33.1078 20.5731 35.1539 21.36C37.1999 22.147 40.5051 23.4061 42.7086 24.6652C44.912 25.9243 46.8007 25.9243 48.532 26.7113C50.2633 27.4982 57.5032 30.9608 60.0214 31.5903C62.5397 32.2199 63.1692 29.8591 62.8544 28.1278C62.5397 26.3965 51.0502 20.8878 49.7911 20.5731C48.532 20.2583 44.2825 18.8418 39.7182 15.0644C35.1539 11.2871 33.58 11.2871 21.1462 12.074C14.568 12.4904 0.3319 4.80053 8.33971 3.51404C16.3475 2.22755 1.22236 12.0742 3.44605 16.1449" stroke="#242E35" stroke-width="1.5" stroke-linecap="round" stroke-linejoin="round"/>
<path d="M59.3915 27.6556C58.1323 27.9074 58.3422 29.3344 58.6045 30.0165C59.0766 30.4362 60.2413 31.2441 61.1226 31.1182C62.004 30.9923 62.2244 29.3869 62.2244 28.6C61.8047 28.1803 60.6506 27.4038 59.3915 27.6556Z" stroke="#242E35" stroke-width="1.5" stroke-linecap="round" stroke-linejoin="round"/>
<path d="M33.7366 11.9166C31.6905 10.605 27.5984 7.66707 27.5984 6.40796C27.5984 4.83406 29.3297 3.88972 31.3757 5.14884C30.274 5.7784 29.6445 7.50968 29.8018 7.66707C30.274 6.88012 31.3757 5.30623 32.3201 5.14884C33.2644 4.99145 42.393 11.287 43.3374 12.3888C44.1243 13.0183 44.7539 14.907 46.3278 14.4348C47.9017 13.9627 51.2068 14.4348 51.8364 14.907C52.466 15.3792 52.6234 18.0548 54.0399 18.8417C55.4564 19.6287 57.8172 20.573 57.8172 21.5174C57.8172 22.4617 57.8172 23.2487 56.8729 23.2487C56.1174 23.2487 57.0827 23.9831 57.6598 24.3504" stroke="#242E35" stroke-width="1.5" stroke-linecap="round" stroke-linejoin="round"/>
<path d="M33.1072 5.77844C39.3503 10.4477 52.5291 20.3213 55.2991 22.4618" stroke="#242E35" stroke-width="1.5" stroke-linecap="round" stroke-linejoin="round"/>
<path d="M58.9202 24.98C70.9342 22.147 99.7471 13.522 118.886 1.68634C123.607 5.46369 153.984 58.9762 165.001 67.6326C156.187 67.6326 112.905 76.6038 95.1198 93.6019C88.5724 81.6403 70.2522 47.8015 61.9106 32.3773C62.75 31.6953 64.1455 29.7961 63.0123 27.6556" stroke="#242E35" stroke-width="1.5" stroke-linecap="round" stroke-linejoin="round"/>
<path d="M79.3801 41.6632C79.7579 41.4114 81.741 39.3549 82.5279 38.5154C84.2592 39.0925 88.3199 42.2928 88.8235 42.2928C89.3272 42.2928 89.0334 36.7317 88.8235 33.9511L98.1095 39.6172L95.906 23.0912" stroke="#242E35" stroke-width="1.5" stroke-linecap="round" stroke-linejoin="round"/>
<ellipse cx="135.015" cy="55.5677" rx="9.41895" ry="3.82254" transform="rotate(-18.8785 135.015 55.5677)" stroke="#242E35" stroke-width="1.5" stroke-linecap="round" stroke-linejoin="round"/>
<path d="M135.902 58.1646C140.068 56.74 143.048 54.4224 142.558 52.9883C142.236 52.0464 140.497 51.7198 138.162 52.0099L134.856 55.0414L134.126 52.971C129.96 54.3956 126.981 56.7131 127.471 58.1473C127.961 59.5815 131.736 59.5892 135.902 58.1646Z" fill="#E0E5CD"/>
<path d="M143.985 52.6097L144.946 54.9675C145.629 56.965 142.193 59.9488 137.271 61.632C132.349 63.3151 127.805 63.0603 127.122 61.0627L126.042 58.5905" stroke="#242E35" stroke-width="1.5" stroke-linecap="round" stroke-linejoin="round"/>
<path d="M90.24 69.6076C91.2473 68.978 108.602 62.2103 117.154 58.9051" stroke="#242E35" stroke-width="1.5" stroke-linecap="round" stroke-linejoin="round"/>
<path d="M92.2866 73.0702C93.2939 72.4406 110.649 65.6729 119.2 62.3677" stroke="#242E35" stroke-width="1.5" stroke-linecap="round" stroke-linejoin="round"/>
<path d="M94.1743 76.2181C95.1816 75.5885 112.536 68.8207 121.088 65.5156" stroke="#242E35" stroke-width="1.5" stroke-linecap="round" stroke-linejoin="round"/>
<path d="M96.6931 79.6806C97.7004 79.0511 115.055 72.2833 123.607 68.9781" stroke="#242E35" stroke-width="1.5" stroke-linecap="round" stroke-linejoin="round"/>
<path d="M124.963 36.6875C125.587 35.8654 127.674 34.0172 131.032 33.2005" stroke="#242E35" stroke-width="1.5" stroke-linecap="round" stroke-linejoin="round"/>
<path d="M128.088 42.474C128.712 41.652 130.799 39.8038 134.156 38.987" stroke="#242E35" stroke-width="1.5" stroke-linecap="round" stroke-linejoin="round"/>
<path d="M122.129 21.7225C122.836 23.0704 124.65 26.0948 126.247 27.4098C128.243 29.0536 129.336 30.0038 130.279 31.7556C131.032 33.1571 133.62 37.9668 134.776 40.1168" stroke="#242E35" stroke-width="1.5" stroke-linecap="round" stroke-linejoin="round"/>
<path d="M128.617 43.7293L123.815 34.7835C123.528 34.1517 122.925 32.5962 122.805 31.4291C122.655 29.9702 122.306 27.7466 121.53 25.9085C120.754 24.0704 120.102 23.3463 120.402 22.824C120.701 22.3017 121.35 21.6418 122.011 21.6937C122.539 21.7352 122.251 21.2894 122.04 21.0613C122.045 20.939 122.012 20.6555 121.845 20.5001C121.635 20.3059 121.688 19.815 121.46 19.7844C121.233 19.7539 120.512 19.7861 119.981 20.0744C119.45 20.3628 118.535 21.1161 119.351 21.7514C119.481 22.0916 119.51 22.5382 119.799 22.5863C120.031 22.6248 120.052 22.8939 120.034 23.0236" stroke="#242E35" stroke-width="1.5" stroke-linecap="round" stroke-linejoin="round"/>
<path d="M119.398 48.6098C117.997 46.5859 114.997 42.1651 114.197 40.6725C113.197 38.8069 112.811 37.8893 112.638 36.2915C112.465 34.6938 112.881 31.5454 111.633 28.4309C110.384 25.3163 109.104 22.7316 108.646 22.366C108.373 22.053 108.102 21.8416 108.075 21.4973C108.048 21.153 107.88 20.937 107.667 20.54C107.454 20.1431 106.798 19.1156 107.938 18.4956C109.201 17.8091 109.794 18.819 110.156 19.4938C110.518 20.1686 110.661 20.1419 110.744 20.1992C110.828 20.2564 110.978 20.6358 110.817 20.8259C110.656 21.016 112.745 25.1091 113.829 25.9549C112.592 26.8841 112.351 27.22 110.69 27.4569C109.029 27.6937 111.874 25.8391 112.619 27.2284C113.363 28.6177 114.069 26.6961 115.406 27.9166C116.744 29.1371 116.976 29.4722 118.972 30.7446C120.969 32.0169 122.872 33.8015 126.289 42.0421C126.635 43.0021 126.969 44.0304 127.093 44.4246" stroke="#242E35" stroke-width="1.5" stroke-linecap="round" stroke-linejoin="round"/>
<path d="M121.682 35.6758C118.665 36.7493 115.791 38.6493 114.731 39.4652L119.489 47.5822L125.889 43.8378C125.565 43.1986 124.269 40.6713 121.682 35.6758Z" stroke="#242E35" stroke-width="1.5" stroke-linecap="round" stroke-linejoin="round"/>
<path d="M93.8594 25.7669C95.3703 25.8928 95.853 24.0356 95.9054 23.0912C96.0628 24.1405 96.7553 26.239 98.2663 26.239" stroke="#242E35" stroke-width="1.5" stroke-linecap="round" stroke-linejoin="round"/>
</svg>
