<svg width="105" height="114" viewBox="0 0 105 114" fill="none" xmlns="http://www.w3.org/2000/svg">
<rect x="33.0791" y="91.3213" width="19.6554" height="1.40396" rx="0.701979" fill="#C5D5E4"/>
<path d="M34.9118 83.8852C33.2171 84.8609 29.9202 87.9216 30.2899 92.3585C30.6597 96.7955 33.5252 98.8291 34.9118 99.2913" stroke="#242E35" stroke-width="1.5" stroke-linecap="round" stroke-linejoin="round"/>
<path d="M34.9118 101.602C33.5253 103.759 22.4329 104.838 19.5057 104.529C19.0127 102.311 15.6028 100.935 13.9595 100.524C13.9595 98.6238 13.9595 93.437 13.9595 87.8908C17.4105 87.7676 19.0949 84.5528 19.5057 82.9609C23.0491 83.1663 30.8446 83.1149 34.9118 80.6499" stroke="#242E35" stroke-width="1.5" stroke-linecap="round" stroke-linejoin="round"/>
<path d="M92.2221 73.5625C96.4912 56.2224 85.7275 23.6973 54.6064 22.7614" stroke="#242E35" stroke-width="1.5" stroke-linecap="round" stroke-linejoin="round" stroke-dasharray="5 5"/>
<ellipse cx="28.4386" cy="24.4458" rx="5.56683" ry="6.07183" transform="rotate(7.55182 28.4386 24.4458)" stroke="#242E35" stroke-width="1.5" stroke-linecap="round" stroke-linejoin="round"/>
<ellipse cx="28.4394" cy="24.5044" rx="3.83637" ry="4.18439" transform="rotate(7.55182 28.4394 24.5044)" fill="#EFDDC7"/>
<ellipse cx="64.376" cy="54.1595" rx="9.60801" ry="10.2094" transform="rotate(7.55182 64.376 54.1595)" stroke="#242E35" stroke-width="1.5" stroke-linecap="round" stroke-linejoin="round"/>
<ellipse cx="64.3755" cy="54.1596" rx="7.83524" ry="8.32564" transform="rotate(7.55182 64.3755 54.1596)" fill="#E0E5CD"/>
<path d="M61.2554 63.8571C55.9951 63.1597 52.3493 58.0461 53.0904 52.4566C53.8314 46.867 58.1522 42.6695 63.4125 43.3669L66.9557 44.2913" stroke="#242E35" stroke-width="1.5" stroke-linecap="round" stroke-linejoin="round"/>
<ellipse cx="26.7762" cy="22.9423" rx="5.56683" ry="6.07183" transform="rotate(7.55182 26.7762 22.9423)" stroke="#242E35" stroke-width="1.5" stroke-linecap="round" stroke-linejoin="round"/>
<ellipse cx="9.73636" cy="41.3412" rx="6.31279" ry="6.16889" transform="rotate(7.55182 9.73636 41.3412)" stroke="#242E35" stroke-width="1.5" stroke-linecap="round" stroke-linejoin="round"/>
<ellipse cx="10.3182" cy="40.3999" rx="4.97206" ry="4.85872" transform="rotate(7.55182 10.3182 40.3999)" fill="#EFDDC7"/>
<ellipse cx="7.35395" cy="62.1291" rx="6.31279" ry="3.30916" transform="rotate(-0.721284 7.35395 62.1291)" stroke="#242E35" stroke-width="1.5" stroke-linecap="round" stroke-linejoin="round"/>
<ellipse cx="7.35479" cy="62.1296" rx="5.30312" ry="2.41192" transform="rotate(-0.721284 7.35479 62.1296)" fill="#EFDDC7"/>
<ellipse cx="7.35395" cy="64.4578" rx="6.31279" ry="3.30916" transform="rotate(-0.721284 7.35395 64.4578)" stroke="#242E35" stroke-width="1.5" stroke-linecap="round" stroke-linejoin="round"/>
<ellipse cx="11.1275" cy="39.8161" rx="6.31279" ry="6.16889" transform="rotate(7.55182 11.1275 39.8161)" stroke="#242E35" stroke-width="1.5" stroke-linecap="round" stroke-linejoin="round"/>
<path d="M72.3896 95.4659V89.7657C72.3896 89.3959 72.5437 89.1494 72.8518 89.1494C74.4438 88.9953 77.6894 88.6564 78.5521 88.5332C79.4149 88.4099 79.6305 88.8926 79.6305 89.1494V94.8497C79.6305 95.5892 79.0143 95.7741 78.7062 95.7741C77.2169 95.9795 74.0535 96.3903 73.314 96.3903C72.5745 96.3903 72.3896 95.7741 72.3896 95.4659Z" fill="#C5D5E4"/>
<path d="M64.7988 85.6088C64.7988 83.76 66.5449 83.2978 67.4179 83.2978C77.8427 81.8599 99.1854 78.9225 101.157 78.676C103.129 78.4295 103.622 79.8058 103.622 80.5247V103.48C103.622 104.959 101.979 105.534 101.157 105.637C90.1676 107.126 67.8492 110.135 66.4935 110.259C65.1378 110.382 64.7988 109.283 64.7988 108.718V85.6088Z" stroke="#242E35" stroke-width="1.5" stroke-linecap="round" stroke-linejoin="round"/>
<path d="M68.178 107.701C68.178 101.653 68.178 89.1542 68.178 87.5414C68.178 85.9287 69.7062 85.5255 70.4703 85.5255C79.5947 84.2711 98.275 81.7086 100.001 81.4936" stroke="#242E35" stroke-width="1.5" stroke-linecap="round" stroke-linejoin="round"/>
<ellipse cx="98.6918" cy="100.986" rx="2.15686" ry="2.31092" fill="#C5D5E4"/>
<circle cx="24.8736" cy="38.3974" r="1.07843" fill="#EFDDC7"/>
<circle cx="2.94611" cy="53.1644" r="1.38996" fill="#EFDDC7"/>
<circle cx="22.4053" cy="59.8362" r="1.38996" fill="#EFDDC7"/>
<path d="M28.5937 63.0868C25.4098 64.422 19.5348 67.8627 23.3555 70.3277C28.1315 73.4089 37.992 75.7198 30.9052 78.1848C23.8183 80.6498 11.3383 80.6498 8.87384 78.1848C6.40937 75.7198 9.95227 74.4873 10.8766 78.1848C11.801 81.8823 10.2604 98.3668 9.95227 107.148C13.2903 107.508 20.9831 108.011 25.0503 107.148C30.1343 106.07 34.1399 104.375 34.9102 103.143C34.787 100.062 34.8589 82.7553 34.9102 74.4873C33.6777 75.2576 29.9803 76.1512 25.0503 73.5629C20.1203 70.9747 25.0502 67.4518 28.1315 66.0139" stroke="#242E35" stroke-width="1.5" stroke-linecap="round" stroke-linejoin="round"/>
<path d="M22.1243 68.6331V79.8796" stroke="#242E35" stroke-width="1.5" stroke-linecap="round" stroke-linejoin="round"/>
<rect x="37.0681" y="86.3499" width="11.7087" height="3.08123" rx="1.54061" fill="#C5D5E4"/>
<rect x="38.8062" y="94.2352" width="8.2779" height="3.04975" rx="1.52488" fill="#C5D5E4"/>
<path d="M38.1529 28.448C38.0077 31.2073 37.1498 37.1748 36.4102 39.5578C34.816 44.6947 30.3412 49.9756 28.7245 62.7789C28.1323 66.1683 28.1323 72.4848 28.1323 72.4848M28.1323 106.435C28.2049 107.959 29.0037 111.096 31.6178 111.445C34.2318 111.793 44.0346 112.026 48.3914 111.881C51.7037 111.881 55.1444 109.789 55.1444 105.781C55.1444 101.773 55.1444 82.7627 55.1444 73.7586H51.4412C50.4246 72.2338 47.3893 69.184 43.3811 69.184C39.3728 69.184 36.9972 71.5761 35.8354 73.101" stroke="#242E35" stroke-width="1.5" stroke-linecap="round" stroke-linejoin="round"/>
<path d="M40.7675 1H49.0454V8.40654C48.755 8.55177 48.3484 9.01649 49.0454 9.71358C49.0454 11.1078 49.0454 22.7839 49.0454 28.4478H37.9356V9.71358C38.1535 9.49574 38.4584 8.92936 37.9356 8.40654C37.9356 7.70946 37.9356 4.77588 37.9356 3.39623C39.5331 2.96056 42.7281 2.39417 42.7281 3.61407C42.7281 5.13895 39.4615 6.91444 40.3328 7.7858C41.2042 8.65715 43.1638 7.75302 43.5995 8.62438C43.8173 9.49574 43.5559 11.8048 40.7675 14.0704C37.2821 16.9023 43.8173 29.0491 42.7281 34.2773C40.9197 48.909 33.8222 52.5294 34.9114 63.8571M37.3763 108.073C38.7629 109.151 43.0766 111.462 49.0453 109.484C54.927 106.87 55.8637 110.23 57.7124 109.484C59.5612 108.739 59.2838 106.994 59.2838 102.731C59.2838 97.1544 59.2838 78.7687 59.2838 70.273C59.2838 68.6742 59.1691 66.0325 58.8273 63.2408M49.0454 31.5042C49.0454 38.5907 51.614 43.8012 54.015 48.9131" stroke="#242E35" stroke-width="1.5" stroke-linecap="round" stroke-linejoin="round"/>
<circle cx="43.5995" cy="78.5512" r="5.22815" stroke="#242E35" stroke-width="1.5" stroke-linecap="round" stroke-linejoin="round"/>
<path d="M68.6504 109.922C74.0425 107.97 85.9053 99.9385 90.219 83.4231" stroke="#242E35" stroke-width="1.5" stroke-linecap="round" stroke-linejoin="round"/>
<path d="M77.4326 112.848C82.8248 110.897 89.4494 103.913 93.1469 94.3609" stroke="#242E35" stroke-width="1.5" stroke-linecap="round" stroke-linejoin="round" stroke-dasharray="5 5"/>
<path d="M68.8989 50.6175C69.1315 50.5799 69.3642 50.655 69.5193 50.8051C69.8294 51.1053 69.7907 51.6683 69.4417 52.0436L64.7887 57.1254C64.1547 57.8178 63.1244 57.976 62.3118 57.5058L59.9421 56.1343C59.5543 55.9091 59.438 55.3837 59.7094 54.9333C59.8645 54.6706 60.136 54.483 60.4074 54.4455C60.5625 54.4079 60.7176 54.4454 60.8727 54.5205L63.5481 56.0592L68.3173 50.9177C68.5111 50.7676 68.705 50.655 68.8989 50.6175Z" fill="#9CA591"/>
</svg>
