<svg width="105" height="109" viewBox="0 0 105 109" fill="none" xmlns="http://www.w3.org/2000/svg">
<rect x="46.2112" y="34.9084" width="52.7465" height="52.7465" fill="#E0E5CD"/>
<path d="M31.8944 1C14.8319 1 1 2.68681 1 4.76761C1 6.8484 14.8319 8.53521 31.8944 8.53521C48.9569 8.53521 62.7887 6.8484 62.7887 4.76761C62.7887 3.72761 59.3334 2.78604 53.7465 2.1043" stroke="#242E35" stroke-width="1.5" stroke-linecap="round" stroke-linejoin="round"/>
<ellipse cx="31.8944" cy="104.232" rx="30.8944" ry="3.76761" stroke="#242E35" stroke-width="1.5" stroke-linecap="round" stroke-linejoin="round"/>
<path d="M62.7888 4.76758V28.8803" stroke="#242E35" stroke-width="1.5" stroke-linecap="round" stroke-linejoin="round"/>
<path d="M7.02832 15.3169V46.2113" stroke="#242E35" stroke-width="1.5" stroke-linecap="round" stroke-linejoin="round"/>
<path d="M7.02832 55.2535L7.02832 63.5423" stroke="#242E35" stroke-width="1.5" stroke-linecap="round" stroke-linejoin="round"/>
<path d="M97.8274 61.6584L94.0598 61.6584" stroke="#242E35" stroke-width="1.5" stroke-linecap="round" stroke-linejoin="round"/>
<path d="M97.8274 55.2535L94.0598 55.2535" stroke="#242E35" stroke-width="1.5" stroke-linecap="round" stroke-linejoin="round"/>
<path d="M97.8274 49.2253L94.0598 49.2253" stroke="#242E35" stroke-width="1.5" stroke-linecap="round" stroke-linejoin="round"/>
<path d="M1 4.76758V103.479" stroke="#242E35" stroke-width="1.5" stroke-linecap="round" stroke-linejoin="round"/>
<path d="M35.0232 24.9225V21.4119H35.7028V18.8797H35.0232V17.2683C35.0232 17.2683 33.8052 16.8239 31.7388 16.8239C29.6723 16.8239 28.4543 17.2683 28.4543 17.2683V18.8797H27.7748V21.4119H28.4543V35.4544C28.4543 35.6079 28.4543 36.8352 27.7748 37.5262C26.5556 38.766 25.5096 40.0585 23.6975 41.9001C22.2478 43.3734 22.0364 47.425 22.1119 49.2666C22.1703 59.0726 23.3735 77.1204 23.4173 85.8419C23.4301 88.3813 22.4933 89.9122 22.3384 90.4732C21.5712 93.2517 23.629 93.2893 24.8301 93.696C26.0311 94.1027 29.3199 94.4366 31.8571 94.4366C34.3197 94.4366 37.3917 93.869 38.7025 93.2517C41.1785 92.0856 41.7432 91.5474 41.5922 90.4732C41.5922 89.2883 40.2962 87.5222 40.2962 85.5815C40.2962 82.802 40.2962 79.8097 40.2962 77.5077L41.5922 49.2666C41.5922 44.2021 40.6861 43.2813 40.4596 42.8209C40.2331 42.3605 36.6088 38.6772 35.9293 37.9866C35.3857 37.4341 35.0232 36.3307 35.0232 35.4544C35.0227 33.9322 36.2347 30.888 43.1972 29.8462H97.4789C100.793 29.8462 103.479 32.5325 103.479 35.8462V86.9296C103.479 90.2433 100.793 92.9295 97.4789 92.9295H54.5" stroke="#242E35" stroke-width="1.5" stroke-linecap="round" stroke-linejoin="round"/>
<path d="M54.5 92.9296C51.5869 92.9296 49.2253 90.568 49.2253 87.6549C49.2253 84.7418 51.5869 82.3803 54.5 82.3803H66.9331C71.0775 82.3803 83.5106 77.4824 69.1937 57.1373" stroke="#242E35" stroke-width="1.5" stroke-linecap="round" stroke-linejoin="round"/>
<circle cx="87.655" cy="73.338" r="5.27465" stroke="#242E35" stroke-width="1.5" stroke-linecap="round" stroke-linejoin="round"/>
<path d="M70.324 63.8329C70.324 68.3863 66.2757 72.5845 61.2818 72.5845C56.2879 72.5845 52.2395 68.3863 52.2395 63.8329C52.2395 52.0134 68.817 43.1972 61.2818 43.1972C56.7315 43.1972 63.2346 49.3791 67.3099 54.5" stroke="#242E35" stroke-width="1.5" stroke-linecap="round" stroke-linejoin="round"/>
<path d="M89.9154 68.0634V44.9004C89.9154 44.9004 89.5925 43.1972 87.6549 43.1972C85.7172 43.1972 85.3943 44.9004 85.3943 44.9004V68.0634" stroke="#242E35" stroke-width="1.5" stroke-linecap="round" stroke-linejoin="round"/>
<line x1="63.7879" y1="57.7924" x2="58.5459" y2="66.3107" stroke="#242E35" stroke-width="1.5" stroke-linecap="round" stroke-linejoin="round"/>
<circle cx="65.0493" cy="64.2957" r="1.50704" stroke="#242E35" stroke-width="1.5" stroke-linecap="round" stroke-linejoin="round"/>
<circle cx="58.2675" cy="58.2676" r="1.50704" stroke="#242E35" stroke-width="1.5" stroke-linecap="round" stroke-linejoin="round"/>
</svg>
