<svg width="670" height="428" viewBox="0 0 670 428" fill="none" xmlns="http://www.w3.org/2000/svg">
<path d="M609.214 297.774C609.214 323.745 484.574 427.091 330.823 427.091C177.072 427.091 52.4316 311.008 52.4316 285.037C52.4316 259.067 177.072 333.042 330.823 333.042C484.574 333.042 609.214 271.804 609.214 297.774Z" fill="#C5D5E4"/>
<path d="M356.483 169.794C338.029 141.281 337.26 124.892 337.26 102.859H319.64C319.213 109.814 319.704 126.763 316.286 138.934C312.014 159.797 294.986 162.905 292.406 185.876C288.988 216.301 298.814 271.502 300.522 279.326C301.889 285.585 311.344 288.019 315.901 288.453H337.26C348.367 288.453 354.347 284.542 355.202 280.63C362.891 236.295 368.017 190.657 356.483 169.794Z" fill="#E6C9C9"/>
<path d="M314.343 43.7005V58.1878C312.791 60.7752 312.79 65.4311 314.343 67.5007C315.895 69.5703 316.93 72.1573 316.93 78.8836C316.412 87.1621 315.895 107.341 311.756 121.828C306.582 146.664 287.955 160.116 286.403 177.708C282.264 213.926 294.164 279.637 296.234 288.95C297.889 296.401 309.341 299.298 314.86 299.816H340.73C354.183 299.816 361.427 295.159 362.462 290.502C371.775 237.727 377.984 183.399 364.014 158.564C341.662 124.622 340.73 103.042 340.73 76.814C340.898 75.1021 340.213 73.9165 342.283 70.6051C344.87 66.4659 344.352 63.8788 343.318 58.7048C342.283 53.5307 343.318 49.9089 343.318 44.7349C343.318 39.5608 341.765 39.0438 337.109 36.9742C332.452 34.9046 322.621 35.9394 318.999 36.9742C315.378 38.009 314.343 41.1134 314.343 43.7005Z" stroke="#242E35" stroke-width="2" stroke-linecap="round" stroke-linejoin="round"/>
<path d="M317.099 105.631C317.789 110.805 317.616 127.051 311.407 150.645C303.646 180.137 298.99 176.515 295.885 189.968C292.781 203.42 302.612 209.112 308.303 202.904C313.994 196.696 323.653 192.383 327.964 192.556C338.312 192.556 349.178 203.938 353.835 203.938C358.491 203.938 366.77 203.421 366.77 206.526C366.77 209.63 359.526 272.753 357.974 278.445C356.422 284.136 352.282 285.689 349.178 285.689C346.074 285.689 323.308 287.758 306.751 285.689C300.024 285.689 298.472 279.997 297.955 275.858C297.437 271.719 295.885 243.668 311.407 220.902C326.93 198.136 363.377 216.552 345.268 249.666C317.463 300.509 273.741 217.511 267.09 203.938C257.028 187.617 240.481 173.912 254.792 249.666C272.68 344.358 198.89 327.587 206.716 353.302C214.543 379.017 400.136 304.109 423.615 372.309" stroke="#242E35" stroke-width="2" stroke-linecap="round" stroke-linejoin="round"/>
<path d="M317.098 105.633C318.132 105.978 319.892 106.875 320.719 105.633C321.754 104.081 323.824 101.494 327.446 101.494C334.172 101.494 333.655 106.151 336.759 106.151C339.243 106.151 341.243 105.806 342.451 105.633" stroke="#242E35" stroke-width="2" stroke-linecap="round" stroke-linejoin="round"/>
<path d="M513.498 173.295C515.361 169.941 521.548 165.022 531.387 172.177C528.033 176.649 515.734 177.765 513.498 173.295Z" stroke="#242E35" stroke-width="2" stroke-linecap="round" stroke-linejoin="round"/>
<path d="M458.711 175.529C474.736 174.039 507.457 170.163 510.141 166.585C512.824 163.007 517.967 159.132 520.203 157.641C518.712 156.523 516.178 152.498 517.967 145.342C520.203 136.398 523.557 62.6078 528.029 67.0799C532.501 71.5521 541.446 149.817 544.8 147.58" stroke="#242E35" stroke-width="2" stroke-linecap="round" stroke-linejoin="round"/>
<path d="M529.151 156.524C535.487 157.269 548.605 154.511 550.394 137.517C552.63 116.274 563.81 49.1921 567.164 57.0184C570.518 64.8446 582.817 149.814 579.463 156.524C576.109 163.233 560.456 167.706 562.692 172.178C564.928 176.65 586.171 164.352 587.289 154.289C588.407 144.227 596.233 152.055 601.823 154.289C607.414 156.524 627.538 173.296 634.246 200.129C640.955 226.962 632.01 223.607 647.663 232.552C663.315 241.496 674.496 266.093 664.433 275.037C654.371 283.981 549.276 324.231 522.443 319.759C495.61 315.286 456.479 290.69 441.944 267.211C427.41 243.732 411.757 235.906 408.403 216.899C405.049 197.893 406.167 191.184 403.931 184.476C401.695 177.768 415.111 184.476 415.111 192.302C415.111 200.129 410.639 205.719 415.111 211.309C419.583 216.899 425.173 214.663 422.937 203.483C420.701 192.302 420.701 176.65 400.577 169.942C393.868 168.824 397.222 164.352 401.695 165.47C400.577 162.115 402.812 158.761 406.166 160.997C405.048 156.524 407.284 153.171 411.757 155.407C412.875 150.935 411.756 147.581 417.347 153.171C422.937 158.761 436.353 162.115 439.708 180.004C443.062 197.893 439.708 213.545 444.18 223.607C448.652 233.67 462.068 242.614 479.957 252.676C497.845 262.739 513.497 285.099 517.97 289.572C525.322 287.121 557.185 279.298 583.934 270.519M583.934 270.519C605.997 263.278 624.582 255.386 623.066 249.322C619.711 235.906 585.052 215.781 583.934 226.962C583.04 235.906 583.562 259.727 583.934 270.519Z" stroke="#242E35" stroke-width="2" stroke-linecap="round" stroke-linejoin="round"/>
<path d="M564.924 183.358C567.16 187.83 569.173 198.563 559.334 205.718C549.495 212.874 550.017 240.005 551.508 252.676C548.899 253.421 543.682 251.781 543.682 239.259C543.682 223.607 534.737 238.141 534.737 223.607C534.737 209.072 543.682 206.836 517.967 201.246C492.252 195.656 469.891 196.774 466.537 186.712C463.854 178.662 460.202 175.904 458.711 175.531" stroke="#242E35" stroke-width="2" stroke-linecap="round" stroke-linejoin="round"/>
<path d="M535.858 228.08C513.87 228.825 468.105 232.552 460.949 241.497" stroke="#242E35" stroke-width="2" stroke-linecap="round" stroke-linejoin="round"/>
<path d="M661.08 278.391C661.452 285.472 660.409 301.422 653.253 308.578C644.309 317.522 633.129 298.515 625.302 306.342C617.476 314.168 607.414 337.647 606.296 342.119C605.178 346.591 621.948 387.958 600.706 386.84C579.463 385.722 522.443 404.729 512.381 381.25C502.318 357.771 487.784 298.515 478.84 316.404C469.895 334.292 441.944 283.981 438.59 295.161C435.236 306.342 429.646 325.348 443.062 329.82C456.479 334.292 478.839 338.765 474.367 349.945C470.789 358.889 468.404 378.269 467.659 386.84C456.106 390.94 433.232 395.561 426.971 381.25" stroke="#242E35" stroke-width="2" stroke-linecap="round" stroke-linejoin="round"/>
<path d="M45.7732 75.4223C47.575 82.9135 53.7731 97.682 64.1514 96.8258C77.1242 95.7557 146.313 92.5451 152.799 94.6855C159.286 96.8258 147.394 121.44 152.799 130.001C158.204 138.563 164.691 140.703 163.61 130.001C162.529 119.3 156.042 112.879 163.61 108.598C171.177 104.317 180.907 103.247 176.583 108.598C172.258 113.949 173.339 112.879 173.339 123.58C173.339 134.282 171.177 148.194 158.204 141.773C152.799 149.265 166.853 168.528 170.096 176.019C173.339 183.51 168.705 180.3 163.61 180.3C156.004 180.3 162.529 186.721 165.772 187.791C169.015 188.861 164.691 191.002 161.448 192.072C158.204 193.142 166.853 193.142 165.772 196.352C164.691 199.563 160.367 198.493 162.529 205.984C164.691 213.475 143.069 215.616 131.178 205.984C119.286 196.352 117.124 178.159 109.556 180.3C101.989 182.44 98.7456 176.019 93.3403 164.247C87.9349 152.475 97.6645 135.352 101.989 144.984C106.313 154.615 99.8267 155.686 101.989 159.966C104.151 164.247 108.475 162.107 109.556 167.458C110.637 172.808 112.8 176.019 116.043 164.247C119.286 152.475 137.664 142.843 151.718 143.914C148.475 134.282 126.853 135.352 106.313 137.493C85.7728 139.633 69.5567 149.265 86.8538 173.879C101.989 187.791 87.9349 202.773 82.5296 205.984C77.1242 209.195 69.5567 182.44 59.8271 159.966C50.0975 137.493 10.0979 33.6853 42.53 66.8608C29.5572 110.738 73.8812 103.247 36.0438 123.58" stroke="#242E35" stroke-width="2" stroke-linecap="round" stroke-linejoin="round"/>
<path d="M82.928 205.84C85.4335 211.52 87.0083 223.944 73.2641 228.204C56.0838 233.529 15.2805 231.399 10.9855 242.048C6.69038 252.698 -23.3752 291.036 47.4936 303.815C118.362 316.595 118.363 330.439 143.06 315.53C167.756 300.621 190.305 276.127 202.117 259.088C213.928 242.048 227.887 227.139 228.961 216.489C230.035 205.84 230.035 191.996 228.961 187.736C227.887 183.476 223.592 188.801 223.592 196.255C223.592 203.71 219.297 217.555 217.15 216.489C215.002 215.424 209.633 191.995 221.445 183.476C233.256 174.956 238.625 173.891 239.699 170.696C240.773 167.501 240.773 165.371 235.404 168.566C230.035 171.761 240.773 163.242 237.551 162.177C234.974 161.325 232.182 163.952 231.109 165.372C232.54 162.532 234.545 157.065 231.109 157.917C227.673 158.769 226.098 160.401 225.74 161.11C227.529 157.205 229.82 150.035 224.666 152.591C218.223 155.786 219.297 157.92 210.707 162.177C202.117 166.434 190.305 174.953 193.527 214.357C194.6 225.006 195.674 231.396 179.568 242.045C163.461 252.695 138.764 270.799 131.248 284.643C112.994 278.254 43.1989 268.675 36.7563 259.088C30.3137 249.5 28.1662 238.85 33.535 237.785C38.9039 236.72 66.8211 232.461 73.2641 242.045C79.7071 251.63 124.805 265.471 139.838 235.656C133.396 226.071 126.965 217.664 135.543 216.489C166.682 212.227 141.986 226.071 153.797 242.045H170.978L159.166 212.227" stroke="#242E35" stroke-width="2" stroke-linecap="round" stroke-linejoin="round"/>
<path d="M16.6523 292.93C35.511 316.239 69.8125 368.451 56.1488 390.828C91.3754 380.07 90.3079 390.828 114.86 390.828C134.501 390.828 146.528 385.808 150.086 383.298C155.424 350.306 167.166 289.057 171.436 307.991C175.706 326.925 201.681 320.183 214.135 314.446L210.932 295.081L177.841 300.46C175.35 305.839 171.863 322.837 177.841 347.796C183.818 372.755 186.025 386.884 186.38 390.828C198.834 391.904 224.809 391.904 229.079 383.298C268.211 319.761 335.293 325.353 359.89 325.353C384.486 325.353 403.493 324.235 403.493 292.93C403.493 253.798 368.834 317.691 426.972 347.796" stroke="#242E35" stroke-width="2" stroke-linecap="round" stroke-linejoin="round"/>
<path d="M159.761 163.714C157.525 161.663 150.37 158.791 139.637 163.714C142.991 166.791 154.171 170.895 159.761 163.714Z" stroke="#242E35" stroke-width="2" stroke-linecap="round" stroke-linejoin="round"/>
<path d="M361.008 44.7232L390.077 15.6543" stroke="#879EB4" stroke-width="4" stroke-linecap="round" stroke-linejoin="round"/>
<path d="M369.953 73.7924L428.091 51.4316" stroke="#879EB4" stroke-width="4" stroke-linecap="round" stroke-linejoin="round"/>
<path d="M372.189 105.099L419.147 100.627" stroke="#879EB4" stroke-width="4" stroke-linecap="round" stroke-linejoin="round"/>
<path d="M296.166 44.7232L267.097 15.6543" stroke="#879EB4" stroke-width="4" stroke-linecap="round" stroke-linejoin="round"/>
<path d="M287.221 73.7924L229.083 51.4316" stroke="#879EB4" stroke-width="4" stroke-linecap="round" stroke-linejoin="round"/>
<path d="M284.984 105.099L238.027 100.627" stroke="#879EB4" stroke-width="4" stroke-linecap="round" stroke-linejoin="round"/>
<line x1="327.703" y1="22.5977" x2="327.703" y2="2.00085" stroke="#879EB4" stroke-width="4" stroke-linecap="round" stroke-linejoin="round"/>
</svg>
