<svg width="152" height="191" viewBox="0 0 152 191" fill="none" xmlns="http://www.w3.org/2000/svg">
<path fill-rule="evenodd" clip-rule="evenodd" d="M87.8609 127.981C80.6645 127.981 74.8317 122.149 74.8317 114.952C74.8317 107.756 80.6645 101.923 87.8609 101.923C95.0573 101.923 100.89 107.756 100.89 114.952C100.89 122.149 95.0573 127.981 87.8609 127.981ZM118.849 109.671C113.19 108.255 110.506 101.775 113.507 96.7763C114.905 94.4484 114.484 92.4419 113.099 91.0608L111.752 89.7145C110.371 88.3334 108.365 87.9121 106.037 89.3062C101.034 92.3073 94.5537 89.6233 93.1423 83.9643C92.4865 81.3281 90.7666 80.2076 88.8122 80.2076L86.91 80.2076C84.9556 80.2076 83.2401 81.3281 82.58 83.9643C81.1641 89.6233 74.6843 92.3073 69.6854 89.3062C67.3576 87.9078 65.3467 88.3291 63.9656 89.7101L62.6193 91.0565C61.2382 92.4376 60.8169 94.4484 62.2154 96.7763C65.2164 101.779 62.5324 108.259 56.8734 109.671C54.2459 110.327 53.1167 112.042 53.1167 114.001L53.1167 115.903C53.1167 117.857 54.2372 119.573 56.8734 120.233C62.5324 121.649 65.2164 128.129 62.2154 133.128C60.8169 135.455 61.2382 137.462 62.6236 138.843L63.97 140.189C65.3554 141.575 67.3662 141.992 69.6854 140.598C74.6886 137.597 81.1685 140.281 82.58 145.94C83.2358 148.576 84.9556 149.696 86.91 149.696L88.8122 149.696C90.7666 149.696 92.4821 148.576 93.1422 145.94C94.5581 140.281 101.038 137.597 106.037 140.598C108.36 141.992 110.367 141.575 111.752 140.189L113.099 138.843C114.48 137.462 114.901 135.455 113.507 133.128C110.506 128.124 113.19 121.645 118.849 120.233C121.485 119.577 122.606 117.857 122.606 115.903L122.606 114.001C122.606 112.042 121.476 110.327 118.849 109.671Z" fill="#E0E5CD"/>
<path d="M57.2613 36.3122C76.5984 51.0301 8.62962 52.2587 21.5229 44.9623C21.9571 42.5635 19.6317 36.4432 18.4147 33.6829C17.6163 32.2625 17.4236 28.9314 23.0398 26.9694C30.06 24.5169 34.5604 22.7218 35.2161 26.9811C35.8718 31.2404 38.2062 36.2211 39.7637 38.382C41.3211 40.5428 40.0603 41.7412 40.1783 43.7807C40.292 45.7455 49.4071 65.4221 59.4501 77.1129C59.8317 77.5571 60.2147 77.9898 60.5986 78.4096C71.0843 89.8761 80.9733 98.1031 86.8373 112.804C91.5285 124.565 101.956 150.707 106.583 162.308C107.381 164.308 108.065 168.811 104.416 170.823C99.8548 173.338 82.3303 183.458 67.2128 185.663C59.4746 186.315 60.5567 183.797 59.5386 182.116C58.7241 180.772 45.7958 147.954 39.4335 131.713C37.6788 126.733 34.22 114.109 34.4224 103.457C34.6595 90.974 33.7578 66.9569 27.0583 60.3536C20.3588 53.7503 10.9953 56.5586 13.4087 65.3171C16.9988 75.9411 33.8618 90.0366 71.4735 66.4227C98.6229 49.3774 94.5488 74.6889 77.934 75.2441" stroke="#242E35" stroke-width="1.5" stroke-linecap="round" stroke-linejoin="round"/>
<path d="M71.4823 77.1452C69.9053 77.5793 63.9663 77.8039 59.4363 80.5856C55.8122 82.8109 54.3911 88.2513 54.1336 90.6933C52.8912 97.8169 42.757 106.538 43.6621 113.195C44.5671 119.852 50.0354 127.223 50.8402 131.19C51.6449 135.158 51.2418 139.023 53.5899 143.934C55.938 148.846 64.9973 149.131 72.4121 152.607C79.827 156.082 82.1082 158.876 85.8996 160.093C89.6909 161.31 98.8182 154.94 102.845 153.334C106.871 151.728 113.347 152.848 117.609 149.394C121.87 145.94 123.616 137.641 123.952 133.608C124.288 129.575 132.342 124.413 132.779 118.196C133.216 111.978 128.184 105.213 126.205 101.714C124.225 98.2144 124.529 88.7363 122.013 84.8663C119.497 80.9964 109.632 79.6677 106.545 78.7546C103.458 77.8415 96.044 71.4418 94.3329 70.5648" stroke="#242E35" stroke-width="1.5" stroke-linecap="round" stroke-linejoin="round"/>
</svg>
