<svg width="177" height="127" viewBox="0 0 177 127" fill="none" xmlns="http://www.w3.org/2000/svg">
<circle cx="102.456" cy="120.565" r="3.19457" stroke="#C5D5E4" stroke-width="1.5" stroke-linecap="round" stroke-linejoin="round"/>
<circle cx="22.0733" cy="55.4629" r="1.95909" stroke="#E0E5CD" stroke-width="1.5" stroke-linecap="round" stroke-linejoin="round"/>
<path d="M109.448 30.144L79.8345 19.4156C75.9718 20.417 64.0404 23.6212 47.2163 28.4275C39.4909 64.0455 43.7828 86.7896 64.3838 100.522C96.6586 79.2369 107.875 44.7345 109.448 30.144Z" fill="#C5D5E4"/>
<path d="M74.1415 33.6331L74.7318 33.6655L72.8761 42.9687C72.8558 43.0704 72.6936 43.8835 72.012 44.309C70.789 45.0724 69.7096 45.8788 67.892 47.0127C66.4379 47.9198 65.7188 50.594 65.541 51.8177C63.9334 60.2094 60.633 77.42 60.2922 79.1281C59.9515 80.8363 61.0412 81.0553 62.0309 81.3818C63.0205 81.7084 65.8334 82.0861 68.0375 82.2068C70.1769 82.324 72.9205 82.0941 74.1408 81.7474C76.4459 81.0927 77.0076 80.7631 77.0183 80.0441L78.751 71.3579L81.8178 55.9836L82.4639 52.7445C83.1332 49.3892 82.4677 48.736 82.3318 48.4202C82.1959 48.1044 79.5342 45.4918 79.0351 45.002C78.6359 44.6101 78.4669 43.8618 78.5827 43.2812L80.4384 33.978L81.0287 34.0103L81.3634 32.3327L80.773 32.3003L80.986 31.2328C80.986 31.2328 79.9866 30.8804 78.1914 30.7821C76.3963 30.6838 75.2794 30.9202 75.2794 30.9202L75.0665 31.9878L74.4762 31.9555L74.1415 33.6331Z" fill="white"/>
<path d="M114.737 79.3683C177.161 34.5999 206.616 -22.4265 130.926 11.0872C148.657 3.59723 179.626 -5.6047 161.65 17.5071C139.18 46.3969 -24.5287 155.994 8.0296 111.513C1.17826 117.079 -16.4673 142.635 54.7609 107.55" stroke="#513011" stroke-width="1.5" stroke-linecap="round" stroke-linejoin="round"/>
<rect x="138.051" y="88.7671" width="6.26908" height="6.6609" rx="2" fill="#C5D5E4"/>
<rect x="15.8042" y="87.984" width="8.22817" height="7.44453" rx="3" fill="#E6C9C9"/>
<path d="M118.542 23.9264L125.879 27.5949C125.879 57.9269 109.003 98.2144 70.8505 114.723C66.8151 112.889 63.0548 111.207 62.1377 110.596" stroke="#513011" stroke-width="1.5" stroke-linecap="round" stroke-linejoin="round"/>
<path d="M91.1206 89.8777C120.099 63.7742 117.918 31.6521 118.547 23.9273L80.9447 9.71167L40.1321 20.7173C31.4555 53.5775 31.8779 93.1711 62.1434 110.597C71.545 107.338 98.8916 90.8683 110.821 81.8563" stroke="#513011" stroke-width="1.5" stroke-linecap="round" stroke-linejoin="round"/>
<path d="M76.9195 69.4616C76.4028 72.0517 75.5676 76.2385 75.1868 78.1478C75.176 78.8667 74.6144 79.1964 72.3093 79.8511C71.089 80.1977 68.3453 80.4276 66.2059 80.3104C64.0019 80.1897 61.189 79.8121 60.1993 79.4855C59.2097 79.1589 58.12 78.9399 58.4607 77.2318C58.8014 75.5236 62.1018 58.3131 63.7095 49.9213C63.8873 48.6976 64.6063 46.0235 66.0604 45.1164C67.878 43.9825 68.9575 43.176 70.1804 42.4126C70.8621 41.9871 71.0243 41.174 71.0446 41.0723L72.9003 31.7691L72.31 31.7368L72.6446 30.0591L73.2349 30.0915L73.4479 29.0239C73.4479 29.0239 74.5648 28.7874 76.3599 28.8858C78.155 28.9841 79.1545 29.3364 79.1545 29.3364L78.9415 30.404L79.5318 30.4363L79.1972 32.1139L78.6069 32.0816L76.7511 41.3849C76.6353 41.9654 76.8043 42.7137 77.2036 43.1056C77.7026 43.5955 80.3643 46.2081 80.5003 46.5239C80.6362 46.8397 81.3016 47.4928 80.6323 50.8481L79.9862 54.0872L66.7003 52.9452L63.7095 68.4378L73.4479 69.4616L75.6003 57.56L69.667 56.9008L68.6781 63.1637" stroke="#513011" stroke-width="1.5" stroke-linecap="round" stroke-linejoin="round"/>
<path d="M99.1992 104.424C110.076 98.7273 136.552 80.6782 162.904 51.3428" stroke="#513011" stroke-width="1.5" stroke-linecap="round" stroke-linejoin="round"/>
</svg>
