<svg width="246" height="227" viewBox="0 0 246 227" fill="none" xmlns="http://www.w3.org/2000/svg">
<path d="M214.272 92.3599C216.93 116.369 200.584 139.833 179.815 156.13C191.189 162.643 204.016 185.243 197.297 206.622C188.746 179.017 169.81 174.859 159.608 168.509C148.271 173.834 135.511 177.503 121.839 179.017C68.6075 184.91 14.8397 156.646 10.2238 114.948C5.60784 73.2513 61.805 30.6424 115.036 24.7496C143.256 21.6257 166.474 25.252 185.995 43.0184C205.517 60.7847 209.022 89.762 194.922 97.0389C180.821 104.316 152.548 48.8202 164.856 50.913C177.164 53.0058 177.826 100.107 145.177 78.7603" stroke="#3C400C" stroke-width="1.5" stroke-linecap="round" stroke-linejoin="round"/>
<path d="M216.186 127.652C215.269 130.723 211.149 139.722 201.998 151.151" stroke="#3C400C" stroke-width="1.5" stroke-linecap="round" stroke-linejoin="round"/>
<path d="M27.098 52.3657C30.4271 48.3612 42.3273 37.5422 63.2957 26.3018" stroke="#3C400C" stroke-width="1.5" stroke-linecap="round" stroke-linejoin="round"/>
<path d="M167.367 184.791C173.124 185.879 181.765 192.387 184.815 197.356" stroke="#3C400C" stroke-width="1.5" stroke-linecap="round" stroke-linejoin="round"/>
<path d="M213.718 86.8054C213.531 85.1129 212.728 80.9531 211.014 77.8535" stroke="#3C400C" stroke-width="1.5" stroke-linecap="round" stroke-linejoin="round"/>
<rect x="225.407" y="28.3284" width="12.5299" height="12.5299" transform="rotate(45 225.407 28.3284)" fill="#C5D5E4"/>
<path d="M139.68 194.598L139.531 210.118L125.778 201.499L139.68 194.598Z" fill="#E6C9C9"/>
<path d="M243.389 156.317L236.604 162.859L234.331 153.712L243.389 156.317Z" stroke="#3C400C" stroke-width="1.5" stroke-linecap="round" stroke-linejoin="round"/>
<path d="M51.9724 95.0975L46.7295 91.6022" stroke="#C5D5E4" stroke-width="2" stroke-linecap="round" stroke-linejoin="round"/>
<path d="M55.0311 92.4758L50.2251 83.7376" stroke="#C5D5E4" stroke-width="2" stroke-linecap="round" stroke-linejoin="round"/>
<path d="M58.963 90.7283L57.2153 82.8639" stroke="#C5D5E4" stroke-width="2" stroke-linecap="round" stroke-linejoin="round"/>
<path d="M133.238 92.0393L141.539 91.1654" stroke="#C5D5E4" stroke-width="2" stroke-linecap="round" stroke-linejoin="round"/>
<path d="M114.641 100.135C132.545 85.6009 125.032 68.9904 119.437 64.0392C111.82 57.2985 98.4959 55.5742 87.1462 57.9699C68.6031 62.1865 65.033 80.0641 65.5659 88.4759C69.1892 88.4759 78.578 88.4759 87.1462 88.4759C87.1462 76.3374 96.4252 78.6658 98.0163 80.0109C100.095 81.7677 100.873 85.1097 98.3361 89.4341C95.6186 94.0659 94.02 94.3854 89.3842 100.135C85.6756 104.735 85.7075 111.741 86.1871 114.669C93.1674 114.669 107.128 114.669 107.128 114.669C106.222 112.593 106.009 107.227 112.403 102.371C116.08 104.128 118.483 105.121 123.274 109.512C126.739 112.688 129.348 115.947 131.106 117.225C132.065 116.852 135.198 116.235 137.5 116.107C140.378 115.947 141.976 115.628 142.616 113.551C143.255 111.475 142.215 107.611 138.619 108.44C136.541 108.92 135.582 110.676 134.783 111.635L125.991 104.448C127.483 101.892 132.969 97.1364 138.619 97.1364C144.694 97.1364 149.223 99.1325 153.215 104.448C157.208 109.762 161.637 123.278 147.731 126.329C134.146 129.309 151.248 136.391 157.003 137.669C162.757 138.946 164.239 132.428 158.804 132.268C153.369 132.108 146.612 143.446 137.5 141.849" stroke="#3C400C" stroke-width="1.5" stroke-linecap="round" stroke-linejoin="round"/>
<path d="M91.2942 97.4825C83.7008 96.4689 65.9652 98.7948 55.7698 116.207C56.2477 118.128 57.2035 118.928 56.7256 122.289C56.2477 125.649 58.3187 129.01 60.7082 127.73C63.0977 126.45 64.5314 124.529 61.3454 120.688C63.6393 117.999 67.5051 114.127 69.1512 112.526C70.7973 113.753 74.1851 117.359 74.5675 121.968C75.0454 127.73 72.4965 135.252 66.2838 139.893C60.071 144.534 51.4687 144.054 48.2826 133.971C45.0966 123.889 49.2384 123.409 44.4594 118.448C49.4296 113.71 49.9199 113.166 50.504 112.526C51.4598 113.326 51.525 117.181 51.299 118.448C48.2723 135.412 34.1047 140.853 31.8745 117.807" stroke="#3C400C" stroke-width="1.5" stroke-linecap="round" stroke-linejoin="round"/>
<circle cx="95.6635" cy="133.982" r="12.6704" stroke="#3C400C" stroke-width="1.5" stroke-linecap="round" stroke-linejoin="round"/>
<circle cx="95.3288" cy="133.865" r="7.58519" fill="#C5D5E4"/>
<ellipse cx="41.2682" cy="106.894" rx="6.77209" ry="6.55364" stroke="#3C400C" stroke-width="1.5" stroke-linecap="round" stroke-linejoin="round"/>
<path d="M138.045 125.825C136.643 125.825 135.26 126.337 133.966 128.381C132.024 126.975 127.665 123.406 125.669 121.489C124.483 122.714 122.477 124.803 124.419 125.825C126.846 127.103 131.053 130.936 129.435 134.928C127.817 138.921 121.83 141.157 117.946 137.004C114.063 132.852 115.519 127.742 121.021 125.825" stroke="#3C400C" stroke-width="1.5" stroke-linecap="round" stroke-linejoin="round"/>
<path d="M129.306 86.3588L131.49 80.679" stroke="#C5D5E4" stroke-width="2" stroke-linecap="round" stroke-linejoin="round"/>
<path d="M131.489 88.9805L139.791 83.7376" stroke="#C5D5E4" stroke-width="2" stroke-linecap="round" stroke-linejoin="round"/>
<path d="M67.9194 85.9221H84.0851C86.925 70.4118 100.469 75.4363 102.435 78.9315C104.401 82.4268 103.964 91.3835 96.3185 97.5002C88.6726 103.617 89.328 110.607 89.328 111.918C91.5125 111.918 93.9155 111.7 103.746 111.918C105.275 103.18 105.931 104.928 115.324 95.7525C126.507 84.8298 124.499 71.0672 116.416 65.3874C108.334 59.7076 93.0417 58.3968 83.2113 62.1105C73.3808 65.8242 68.2835 79.8053 67.9194 85.9221Z" fill="#C5D5E4"/>
</svg>
