<svg width="183" height="169" viewBox="0 0 183 169" fill="none" xmlns="http://www.w3.org/2000/svg">
<path d="M132.877 73.2362L131.466 96.7976C131.217 99.7354 129.821 102.428 127.573 104.414L73.958 151.299C70.3599 154.377 64.9053 153.986 61.9015 150.272L35.8108 118.429C33.7836 115.992 34.0551 112.254 36.5664 110.111L40.5022 106.76" stroke="#242E35" stroke-width="1.5" stroke-miterlimit="10" stroke-linecap="round" stroke-linejoin="round"/>
<path d="M68.8931 127.358L78.3589 128.358L73.4797 120.185L82.6992 118.257L75.5723 112.07L83.8609 107.265L75.1065 103.622L81.4095 96.5695L71.9854 95.7588L75.933 87.0367L66.6394 89.0804L67.5658 79.7303L59.5826 84.5678L57.5389 75.2743L51.2776 82.5168L46.588 74.3023L42.8301 82.9827L35.8512 76.564L34.9665 86.1038L26.3601 82.2302L28.4778 91.408L19.012 90.4077L23.8912 98.5805L14.6717 100.509L21.7246 106.812L13.51 111.501L22.1904 115.259L15.8874 122.312L25.3115 123.123L21.4379 131.729L30.7314 129.685L29.6154 139.077L37.7883 134.198L39.832 143.491L46.0193 136.365L50.7089 144.579L54.4668 135.899L61.5197 142.202L62.3304 132.778L71.0107 136.536L68.8931 127.358Z" fill="#E0E5CD"/>
<path d="M129.567 70.198C129.567 70.198 153.818 92.6631 153.901 55.065C153.984 17.4669 179.253 10.2486 174.05 27.1012C167.737 51.7638 130.059 9.01918 126.18 36.6518" stroke="#242E35" stroke-width="1.5" stroke-miterlimit="10" stroke-linecap="round" stroke-linejoin="round"/>
<path d="M86.7122 122.944C87.4748 120.987 87.0577 119.09 85.6923 117.402C84.2112 115.64 82.4019 114.646 79.9591 114.388C76.6003 114.033 73.0061 115.32 69.556 118.167C68.5431 118.986 67.8773 120.027 67.3689 121.332C66.6063 123.289 67.0234 125.186 68.3888 126.874C69.7542 128.562 71.6792 129.63 74.122 129.888C77.4808 130.243 81.075 128.955 84.5251 126.109C85.464 125.405 86.2038 124.249 86.7122 122.944ZM82.7293 123.82C81.9061 124.597 80.9255 125.111 79.8709 125.741C77.4564 126.968 75.3379 127.732 73.4735 127.843C71.6091 127.955 70.1886 127.373 69.2537 126.286C68.3188 125.199 68.3322 123.904 69.2199 122.516C69.6638 121.821 70.2973 121.086 71.2362 120.382C72.0594 119.604 73.04 119.091 74.0945 118.461C76.509 117.234 78.6276 116.47 80.4919 116.358C82.3563 116.247 83.8508 116.713 84.7117 117.916C85.6466 119.003 85.6332 120.298 84.7455 121.686C84.2277 122.496 83.5942 123.232 82.7293 123.82ZM92.0363 96.5208C92.4708 95.3317 92.5998 94.1103 92.1599 93.0141C92.1182 92.8244 92.0025 92.7504 91.9608 92.5607C91.8034 92.2971 91.646 92.0335 91.4886 91.7698C91.373 91.6959 91.3312 91.5062 91.3312 91.5062C91.2895 91.3165 91.0582 91.1686 91.0165 90.9789C89.5354 89.2168 87.5364 88.2646 85.0936 88.0064C82.9562 87.7805 80.7542 88.1654 78.6034 89.2348C78.1501 89.434 77.6968 89.6331 77.2852 90.0218C76.9476 90.2949 76.5682 90.3783 76.2306 90.6514C75.7033 90.9662 75.2178 91.4706 74.6905 91.7854C74.4268 91.9428 74.2049 92.2899 73.8673 92.563C73.7933 92.6786 73.6454 92.91 73.5714 93.0257C73.0118 93.6458 72.7576 94.2982 72.4294 95.0663C71.8471 96.4868 71.9494 97.8562 72.6624 99.2901C72.8615 99.7434 73.2502 100.155 73.4493 100.608C73.6067 100.872 73.8381 101.02 73.9955 101.284C75.3932 102.666 77.045 103.397 79.1825 103.622C80.4039 103.752 81.7732 103.649 82.9852 103.283C83.1748 103.242 83.3645 103.2 83.6282 103.043C84.0815 102.843 84.6504 102.718 85.1038 102.519C85.2934 102.477 85.4831 102.436 85.631 102.204C86.274 101.964 86.8753 101.533 87.5922 101.177C87.8558 101.019 88.0455 100.977 88.1935 100.746C88.4571 100.589 88.7207 100.431 88.8687 100.2C89.0584 100.158 89.2063 99.9269 89.47 99.7695C89.5439 99.6538 89.8076 99.4964 89.8816 99.3807C90.2192 99.1076 90.3671 98.8763 90.5891 98.5292C90.663 98.4135 90.811 98.1822 90.885 98.0665C91.5602 97.5203 91.8561 97.0576 92.0363 96.5208ZM88.0534 97.3967C87.7898 97.5541 87.6418 97.7855 87.3782 97.9429C86.7029 98.4891 85.912 98.9612 85.1211 99.4334C83.3496 100.419 81.6843 100.985 80.167 101.318C79.9774 101.36 79.598 101.443 79.4084 101.485C79.2187 101.527 78.9134 101.494 78.7237 101.536C76.8593 101.648 75.4388 101.066 74.5039 99.9787C73.569 98.8919 73.5824 97.5965 74.4701 96.2083L74.5441 96.0926C74.9879 95.3985 75.5475 94.7783 76.4124 94.1905C76.676 94.0331 76.824 93.8017 77.0876 93.6443C78.8914 92.3529 80.6629 91.3668 82.7075 90.7183C82.8972 90.6766 83.0868 90.6349 83.2765 90.5932C83.6558 90.5098 83.9194 90.3524 84.2248 90.3847C84.4145 90.343 84.7938 90.2596 84.9834 90.2178C86.2371 90.0416 87.3428 90.0967 88.1109 90.4248C88.2266 90.4988 88.3423 90.5728 88.3423 90.5728C88.458 90.6468 88.5737 90.7208 88.6893 90.7947C89.0364 91.0167 89.3835 91.2386 89.7722 91.6502C89.8879 91.7242 89.9296 91.9138 90.087 92.1775C90.2444 92.4411 90.4018 92.7048 90.4852 93.0841C90.6521 93.8427 90.4396 94.6848 89.9217 95.4946C89.6258 95.9574 88.9923 96.6932 88.0534 97.3967Z" fill="#242E35"/>
<path d="M78.174 107.21C78.322 106.979 78.5439 106.632 78.5762 106.326C78.5439 106.632 78.322 106.979 78.174 107.21Z" fill="#242E35"/>
<path d="M85.3915 89.8267C80.2658 102.685 101.409 104.796 101.409 104.796L66.0898 112.364C51.1937 114.248 46.8205 110.637 45.8061 107.38C45.0742 104.956 46.017 102.462 47.8531 100.865L92.8437 63.1346C95.4289 60.876 98.8429 60.1252 102.243 60.6699L127.972 65.5502C127.972 65.5502 131.979 77.8917 122.302 81.8092C112.625 85.7267 110.008 78.3487 117.986 71.2258C121.057 68.4627 123.731 68.8688 128.089 69.6999" stroke="#242E35" stroke-width="1.5" stroke-miterlimit="10" stroke-linecap="round" stroke-linejoin="round"/>
</svg>
