<svg width="164" height="129" viewBox="0 0 164 129" fill="none" xmlns="http://www.w3.org/2000/svg">
<path d="M129.106 107.221C129.106 109.055 129.106 111.137 129.106 112.489C129.178 112.993 128.908 113.246 127.727 113.793C127.101 114.083 125.635 114.349 124.46 114.349C123.249 114.349 121.68 114.192 121.107 114.002C120.534 113.811 119.918 113.437 119.918 112.489C119.918 111.923 119.902 109.326 119.881 105.714M119.881 105.714C119.858 101.613 119.829 96.3117 119.81 93.1526C119.774 92.2884 119.874 90.3872 120.566 89.6958C121.431 88.8316 121.93 88.2251 122.512 87.6433C122.836 87.319 122.836 86.7431 122.836 86.6711V80.0816H122.512V78.8933H122.836V78.1371C122.836 78.1371 123.417 77.9286 124.404 77.9286C125.39 77.9286 125.971 78.1371 125.971 78.1371V78.8933H126.295V80.0816H125.971V86.6711C125.971 87.0823 126.144 87.6001 126.403 87.8594C126.728 88.1835 128.457 89.9119 128.565 90.1279C128.673 90.344 129.106 90.7761 129.106 93.1526V105.714C127.721 106.31 123.937 107.146 119.881 105.714Z" stroke="#242E35" stroke-width="1.5" stroke-linecap="round" stroke-linejoin="round"/>
<path d="M125.503 112.126C127.356 112.126 130.368 112.265 128.422 113.446" stroke="#242E35" stroke-width="1.5" stroke-linecap="round" stroke-linejoin="round"/>
<path d="M122.86 82.8271C122.86 82.8271 123.694 82.9662 124.389 82.9662C125.085 82.9662 125.919 82.8271 125.919 82.8271" stroke="#242E35" stroke-width="1.5" stroke-linecap="round" stroke-linejoin="round"/>
<path d="M128.374 94.5059C129.599 95.1652 126.968 95.6371 124.419 95.6371C121.87 95.6371 119.803 95.2575 119.803 94.7894C119.803 94.3212 122.158 94.6952 124.607 92.9989C127.056 91.3026 126.397 89.0431 124.984 89.3256C123.15 89.6923 121.781 95.2603 124.607 97.7092" stroke="#242E35" stroke-width="1.5" stroke-linecap="round" stroke-linejoin="round"/>
<circle cx="124.607" cy="101.005" r="2.54306" fill="#E0E5CD"/>
<path d="M124.607 97.7083C122.786 97.7083 121.311 99.1842 121.311 101.005C121.311 102.825 122.786 104.301 124.607 104.301C126.428 104.301 128.563 102.606 127.15 102.323C125.737 102.041 121.405 112.025 124.419 112.025" stroke="#242E35" stroke-width="1.5" stroke-linecap="round" stroke-linejoin="round"/>
<line x1="124.132" y1="78.8756" x2="124.704" y2="78.8756" stroke="#242E35" stroke-width="1.5" stroke-linecap="round" stroke-linejoin="round"/>
<line x1="123.797" y1="79.817" x2="123.797" y2="79.2449" stroke="#242E35" stroke-width="1.5" stroke-linecap="round" stroke-linejoin="round"/>
<path d="M58.2932 13.9537C56.0133 14.4134 52.5869 16.4396 53.4487 17.9644C54.5259 19.8703 59.0626 15.315 59.909 16.8125C60.7554 18.3101 55.224 22.0041 54.6854 21.0511" stroke="#242E35" stroke-width="1.5" stroke-linecap="round" stroke-linejoin="round"/>
<path d="M54.4683 13.7733L59.1355 21.3612" stroke="#242E35" stroke-width="1.5" stroke-linecap="round" stroke-linejoin="round"/>
<path d="M104.25 14.542C81.6149 14.542 149.855 41.0057 160.01 44.8962C160.786 45.1937 161.255 45.9214 161.255 46.7528V51.8059C161.255 52.9105 160.36 53.8059 159.255 53.8059H50.6987C49.5942 53.8059 48.6987 52.9105 48.6987 51.8059V46.744C48.6987 45.917 49.1629 45.1924 49.9333 44.8918C59.9437 40.9857 126.876 14.542 104.25 14.542Z" stroke="#242E35" stroke-width="1.5" stroke-linecap="round" stroke-linejoin="round"/>
<g style="mix-blend-mode:multiply">
<path d="M50.3858 107.874L45.1933 111.684L40.0069 107.874C36.5718 105.354 33.7767 102.051 31.8501 98.2341C29.9234 94.4171 28.9199 90.1948 28.9214 85.912C31.9696 85.7717 34.9181 84.7749 37.434 83.0343C39.9499 81.2937 41.933 78.8786 43.1593 76.0617L44.3883 73.2925L45.857 76.421C47.1343 79.1444 49.1266 81.4634 51.618 83.1266C54.1094 84.7898 57.0048 85.7338 59.9904 85.8563L61.4959 85.9182C61.4937 90.2021 60.4859 94.4245 58.5549 98.2405C56.6239 102.056 53.8246 105.358 50.3858 107.874Z" fill="#C5D5E4"/>
</g>
<circle cx="105.413" cy="35.7732" r="7.2711" stroke="#242E35" stroke-width="1.5" stroke-linecap="round" stroke-linejoin="round"/>
<path d="M56.8418 54.3876V57.9136C56.8418 59.0182 57.7372 59.9136 58.8418 59.9136H72.2924C73.397 59.9136 74.2924 59.0182 74.2924 57.9136V54.3876" stroke="#242E35" stroke-width="1.5" stroke-linecap="round" stroke-linejoin="round"/>
<path d="M153.402 118.955L153.402 115.429C153.402 114.324 152.507 113.429 151.402 113.429L137.952 113.429C136.847 113.429 135.952 114.324 135.952 115.429L135.952 118.955" stroke="#242E35" stroke-width="1.5" stroke-linecap="round" stroke-linejoin="round"/>
<path d="M96.397 54.3876V57.9136C96.397 59.0182 97.2924 59.9136 98.397 59.9136H111.848C112.952 59.9136 113.848 59.0182 113.848 57.9136V54.3876" stroke="#242E35" stroke-width="1.5" stroke-linecap="round" stroke-linejoin="round"/>
<path d="M113.848 118.955L113.848 115.429C113.848 114.324 112.952 113.429 111.848 113.429L98.397 113.429C97.2924 113.429 96.397 114.324 96.397 115.429L96.397 118.955" stroke="#242E35" stroke-width="1.5" stroke-linecap="round" stroke-linejoin="round"/>
<path d="M135.952 54.3876V57.9136C135.952 59.0182 136.848 59.9136 137.952 59.9136H151.403C152.507 59.9136 153.403 59.0182 153.403 57.9136V54.3876" stroke="#242E35" stroke-width="1.5" stroke-linecap="round" stroke-linejoin="round"/>
<path d="M74.2925 118.955L74.2925 115.429C74.2925 114.324 73.3971 113.429 72.2925 113.429L58.8418 113.429C57.7373 113.429 56.8418 114.324 56.8418 115.429L56.8418 118.955" stroke="#242E35" stroke-width="1.5" stroke-linecap="round" stroke-linejoin="round"/>
<line x1="59.9185" y1="60.6636" x2="59.9185" y2="77.1959" stroke="#242E35" stroke-width="1.5" stroke-linecap="round" stroke-linejoin="round"/>
<line x1="100.055" y1="88.5841" x2="100.055" y2="112.678" stroke="#242E35" stroke-width="1.5" stroke-linecap="round" stroke-linejoin="round"/>
<line x1="139.61" y1="85.0951" x2="139.61" y2="112.679" stroke="#242E35" stroke-width="1.5" stroke-linecap="round" stroke-linejoin="round"/>
<line x1="71.5527" y1="90.3298" x2="71.5527" y2="112.679" stroke="#242E35" stroke-width="1.5" stroke-linecap="round" stroke-linejoin="round"/>
<line x1="111.689" y1="60.6636" x2="111.689" y2="112.679" stroke="#242E35" stroke-width="1.5" stroke-linecap="round" stroke-linejoin="round"/>
<line x1="151.244" y1="60.6636" x2="151.244" y2="112.679" stroke="#242E35" stroke-width="1.5" stroke-linecap="round" stroke-linejoin="round"/>
<path d="M139.442 84.3447C139.442 73.4219 130.587 64.5673 119.665 64.5673C108.742 64.5673 99.8872 73.4219 99.8872 84.3447" stroke="#242E35" stroke-width="1.5" stroke-linecap="round" stroke-linejoin="round"/>
<g style="mix-blend-mode:multiply">
<path d="M119.664 70.3843C111.633 70.3843 105.122 76.895 105.122 84.9265V109.067H134.206V84.9265C134.206 76.895 127.696 70.3843 119.664 70.3843Z" fill="#C5D5E4"/>
</g>
<path d="M37.6463 20.9407C17.4071 20.9407 0.999998 37.3478 0.999998 57.5871C0.999999 77.8263 17.4071 94.2334 37.6464 94.2334" stroke="#242E35" stroke-width="1.5" stroke-linecap="round" stroke-linejoin="round"/>
<path d="M105.122 46.5344C105.122 59.3847 94.7048 69.8019 81.8545 69.8019C80.4003 69.8989 77.4919 69.5693 77.4919 67.4752C77.4919 64.8576 80.6912 63.4035 84.1813 65.1486C87.6714 66.8937 86.5081 73.0011 79.8186 76.2007" stroke="#242E35" stroke-width="1.5" stroke-linecap="round" stroke-linejoin="round"/>
<path d="M71.3844 84.9269C71.3844 74.0042 62.5297 65.1495 51.607 65.1495C40.6842 65.1495 31.8296 74.0042 31.8296 84.9269V116.956C31.8296 118.06 32.725 118.956 33.8296 118.956H161C162.105 118.956 163 119.851 163 120.956V125.972C163 127.076 162.105 127.972 161 127.972H47.4993C46.3947 127.972 45.4993 127.076 45.4993 125.972V106.449" stroke="#242E35" stroke-width="1.5" stroke-linecap="round" stroke-linejoin="round"/>
<circle cx="45.2084" cy="94.2336" r="7.56195" stroke="#242E35" stroke-width="1.5" stroke-linecap="round" stroke-linejoin="round"/>
<circle r="3.49013" transform="matrix(-1 0 0 1 45.2086 20.9411)" stroke="#242E35" stroke-width="1.5" stroke-linecap="round" stroke-linejoin="round"/>
<circle r="6.68941" transform="matrix(-1 0 0 1 22.8135 42.1731)" fill="#C5D5E4"/>
<circle r="3.19928" transform="matrix(-1 0 0 1 31.539 3.19928)" fill="#E0E5CD"/>
<path d="M47.8257 91.3449C46.1776 91.2479 42.8813 91.4612 42.8813 93.0899C42.8813 95.1258 47.8257 93.9627 47.8257 95.9986C47.8257 97.6273 44.5295 98.0345 42.8813 98.0345" stroke="#242E35" stroke-width="1.5" stroke-linecap="round" stroke-linejoin="round"/>
<line x1="45.3765" y1="90.3298" x2="45.3765" y2="99.3002" stroke="#242E35" stroke-width="1.5" stroke-linecap="round" stroke-linejoin="round"/>
</svg>
