<svg width="22" height="22" viewBox="0 0 22 22" fill="none" xmlns="http://www.w3.org/2000/svg">
<path fill-rule="evenodd" clip-rule="evenodd" d="M7.24331 9.34406C7.55602 9.03148 7.73171 8.60745 7.73171 8.16531C7.73171 7.72316 7.55602 7.29914 7.24331 6.98656L5.47498 5.21906C4.82415 4.56842 3.76915 4.56842 3.11831 5.21906L2.14831 6.18906C1.31031 7.02948 1.17868 8.34326 1.83331 9.33322C4.68746 13.6293 8.37054 17.3124 12.6666 20.1666C13.6568 20.821 14.9706 20.689 15.8108 19.8507L16.7816 18.8807C17.4323 18.2299 17.4323 17.1749 16.7816 16.5241L15.0133 14.7566C14.3625 14.1059 13.3075 14.1059 12.6566 14.7566L12.0675 15.3457C10.0908 13.7199 8.27668 11.9058 6.65081 9.92906L7.24331 9.34406Z" stroke="#A86D37" stroke-width="1.5" stroke-linecap="round" stroke-linejoin="round"/>
<path d="M11 1.41663C16.2927 1.41663 20.5833 5.70723 20.5833 11" stroke="#A86D37" stroke-width="1.5" stroke-linecap="round" stroke-linejoin="round"/>
<path d="M11 4.75C14.4518 4.75 17.25 7.54822 17.25 11" stroke="#A86D37" stroke-width="1.5" stroke-linecap="round" stroke-linejoin="round"/>
<path d="M11 8.08325C12.6108 8.08325 13.9167 9.38909 13.9167 10.9999" stroke="#A86D37" stroke-width="1.5" stroke-linecap="round" stroke-linejoin="round"/>
</svg>
