<svg width="315" height="298" viewBox="0 0 315 298" fill="none" xmlns="http://www.w3.org/2000/svg">
<path d="M14 10C14 4.47716 18.4772 0 24 0H295C300.523 0 305 4.47715 305 10V298H14V10Z" fill="#EFDDC7"/>
<g style="mix-blend-mode:multiply">
<path d="M61.9951 139.664C64.9558 175.541 119.379 174.616 121.391 138.673C121.807 131.24 120.26 122.337 115.653 111.749C100.5 76.8958 59.4004 108.429 61.9951 139.664Z" fill="#EFDDC7"/>
</g>
<g style="mix-blend-mode:multiply">
<path d="M79.2767 215.878C79.2767 215.878 102.563 245.842 167.681 224.137C232.799 202.433 234.562 160.609 223.734 116.011C217.563 90.5728 158.034 62.9547 141.334 100.186C135.389 113.401 132.284 127.702 132.219 142.175C132.106 149.517 129.55 156.615 124.95 162.364C120.35 168.113 113.964 172.188 106.788 173.956C86.0796 179.192 64.4568 190.721 79.2767 215.878Z" fill="#E6C9C9"/>
</g>
<path d="M1.33594 109.092C1.33594 109.092 71.0708 125.607 127.096 125.607" stroke="#513011" stroke-width="1.5" stroke-linecap="round" stroke-linejoin="round"/>
<path d="M269.317 168.207C269.317 168.207 261.773 201.029 235.011 187.566C208.248 174.104 195.175 193.166 180.505 195.033C165.834 196.899 156.32 195.297 143.646 174.137C135.695 160.906 133.018 160.262 130.34 161.914C128.676 162.971 128.277 165.68 132.435 168.868C137.492 172.733 150.948 186.212 159.264 189.681C168.978 193.662 177.361 192.324 158.466 168.207C139.571 144.091 140.419 153.44 143.18 157.504C153.842 173.179 163.323 179.473 170.358 182.495C171.482 182.969 172.716 183.127 173.924 182.951C175.132 182.775 176.268 182.272 177.208 181.498C178.147 180.723 178.854 179.707 179.251 178.56C179.647 177.414 179.719 176.181 179.457 174.996C174.75 155.439 155.588 142.803 148.037 138.508C147.161 138.009 146.152 137.786 145.145 137.869C144.139 137.951 143.181 138.336 142.398 138.97L124.102 154.002C120.71 156.822 116.915 159.127 112.842 160.84C97.972 166.952 100.666 155.885 100.666 155.885C106.588 145.016 125.599 128.399 131.354 123.444C132.427 122.523 133.78 121.988 135.196 121.924L147.871 121.329C184.665 119.131 230.465 132.22 267.657 119.665" stroke="#513011" stroke-width="1.5" stroke-linecap="round" stroke-linejoin="round"/>
<path d="M29.9766 167.134C29.9766 167.134 45.362 169.81 52.0984 163.83C58.8347 157.851 49.6699 146.42 44.2808 152.846C38.8918 159.271 48.8716 171.874 57.7702 176.433C66.6689 180.992 93.9136 179.109 93.9136 179.109C98.6952 180.104 103.095 182.423 106.605 185.799C111.727 191.167 137.841 213.367 138.207 199.195C138.473 187.418 116.168 167.993 114.555 172.271C112.942 176.549 136.178 202.119 152.245 198.7C152.245 198.7 159.68 196.916 148.27 182" stroke="#513011" stroke-width="1.5" stroke-linecap="round" stroke-linejoin="round"/>
<path d="M62.7691 178.476C62.7691 178.476 47.6908 193.662 50.1192 200.897C52.5476 208.131 63.542 197.147 63.542 197.147L80.701 179.797" stroke="#513011" stroke-width="1.5" stroke-linecap="round" stroke-linejoin="round"/>
<path d="M87.6598 179.423L62.5606 204.382C61.9408 204.968 61.5175 205.729 61.3479 206.563C61.1783 207.396 61.2708 208.261 61.6126 209.04C62.594 211.105 65.6211 212.343 74.4366 206.793C84.5652 200.08 94.0326 192.431 102.713 183.949" stroke="#513011" stroke-width="1.5" stroke-linecap="round" stroke-linejoin="round"/>
<path d="M106.605 187.567C106.605 187.567 80.7902 204.729 80.3411 212.492C80.0916 216.77 84.5492 215.928 88.6575 214.309C91.9423 212.981 95.0265 211.207 97.8223 209.04L115.653 195.495" stroke="#513011" stroke-width="1.5" stroke-linecap="round" stroke-linejoin="round"/>
<path d="M130.523 204.084C130.523 204.084 111.229 218.604 103.91 218.604C96.5918 218.604 101.964 208.776 119.529 197.213" stroke="#513011" stroke-width="1.5" stroke-linecap="round" stroke-linejoin="round"/>
<path d="M102.762 152.532C102.762 152.532 100.933 161.253 110.048 154.332C111.94 152.947 113.487 151.15 114.572 149.08C115.969 146.338 116.368 143.117 109.582 144.124" stroke="#513011" stroke-width="1.5" stroke-linecap="round" stroke-linejoin="round"/>
<path d="M314 298V24C314 18.4772 309.523 14 304 14H106" stroke="#EFDDC7"/>
</svg>
