<svg width="572" height="461" viewBox="0 0 572 461" fill="none" xmlns="http://www.w3.org/2000/svg">
<path d="M513 461V30C513 24.4772 508.523 20 503 20H305" stroke="#EFDDC7"/>
<path d="M49 10C49 4.47715 53.4772 0 59 0H488C493.523 0 498 4.47715 498 10V461H49V10Z" fill="#EFDDC7"/>
<g style="mix-blend-mode:multiply">
<path d="M104.284 211.645C109.283 272.397 201.16 270.831 204.558 209.967C205.26 197.38 202.649 182.304 194.87 164.375C169.29 105.357 99.904 158.753 104.284 211.645Z" fill="#EFDDC7"/>
</g>
<g style="mix-blend-mode:multiply">
<path d="M133.46 340.701C133.46 340.701 172.771 391.439 282.704 354.686C392.637 317.933 395.614 247.112 377.334 171.591C366.916 128.517 266.418 81.75 238.226 144.795C228.188 167.172 222.947 191.388 222.838 215.897C222.647 228.329 218.332 240.349 210.566 250.083C202.8 259.817 192.019 266.719 179.904 269.712C144.944 278.578 108.44 298.102 133.46 340.701Z" fill="#E6C9C9"/>
</g>
<path d="M1.87891 159.877C1.87891 159.877 119.606 187.842 214.189 187.842" stroke="#513011" stroke-width="2" stroke-linecap="round" stroke-linejoin="round"/>
<path d="M454.288 259.978C454.288 259.978 441.553 315.555 396.372 292.759C351.191 269.963 329.12 302.241 304.354 305.402C279.587 308.563 263.526 305.849 242.129 270.019C228.706 247.615 224.186 246.524 219.665 249.321C216.857 251.111 216.183 255.698 223.203 261.097C231.739 267.642 254.456 290.466 268.496 296.34C284.894 303.08 299.047 300.815 267.148 259.978C235.249 219.141 236.681 234.972 241.342 241.853C259.342 268.397 275.347 279.054 287.225 284.172C289.122 284.975 291.205 285.241 293.244 284.943C295.284 284.645 297.202 283.794 298.788 282.483C300.374 281.172 301.567 279.451 302.237 277.509C302.907 275.567 303.027 273.479 302.585 271.474C294.638 238.357 262.29 216.959 249.542 209.687C248.062 208.842 246.36 208.465 244.66 208.605C242.96 208.745 241.343 209.395 240.023 210.47L209.135 235.923C203.408 240.699 197.002 244.602 190.125 247.503C165.021 257.852 169.57 239.112 169.57 239.112C179.567 220.707 211.662 192.569 221.378 184.178C223.189 182.62 225.473 181.714 227.864 181.605L249.261 180.598C311.377 176.875 388.697 199.04 451.485 177.78" stroke="#513011" stroke-width="2" stroke-linecap="round" stroke-linejoin="round"/>
<path d="M50.2305 258.16C50.2305 258.16 76.2044 262.691 87.5768 252.566C98.9491 242.44 83.4771 223.085 74.3791 233.965C65.2812 244.846 82.1293 266.187 97.1521 273.907C112.175 281.627 158.17 278.438 158.17 278.438C166.242 280.123 173.67 284.051 179.595 289.766C188.243 298.857 232.329 336.449 232.947 312.45C233.396 292.508 195.741 259.614 193.017 266.859C190.293 274.103 229.521 317.401 256.646 311.611C256.646 311.611 269.198 308.591 249.935 283.333" stroke="#513011" stroke-width="2" stroke-linecap="round" stroke-linejoin="round"/>
<path d="M105.591 277.366C105.591 277.366 80.1356 303.08 84.2352 315.332C88.3349 327.583 106.896 308.982 106.896 308.982L135.864 279.603" stroke="#513011" stroke-width="2" stroke-linecap="round" stroke-linejoin="round"/>
<path d="M147.612 278.97L105.239 321.233C104.193 322.226 103.478 323.515 103.192 324.926C102.905 326.337 103.062 327.801 103.639 329.121C105.295 332.617 110.406 334.715 125.288 325.317C142.387 313.949 158.37 300.997 173.024 286.634" stroke="#513011" stroke-width="2" stroke-linecap="round" stroke-linejoin="round"/>
<path d="M179.595 292.759C179.595 292.759 136.015 321.821 135.257 334.967C134.835 342.211 142.361 340.785 149.297 338.044C154.842 335.794 160.049 332.791 164.769 329.121L194.871 306.185" stroke="#513011" stroke-width="2" stroke-linecap="round" stroke-linejoin="round"/>
<path d="M219.974 320.73C219.974 320.73 187.401 345.316 175.046 345.316C162.691 345.316 171.761 328.674 201.413 309.094" stroke="#513011" stroke-width="2" stroke-linecap="round" stroke-linejoin="round"/>
<path d="M173.108 233.434C173.108 233.434 170.02 248.202 185.407 236.483C188.601 234.137 191.214 231.095 193.045 227.588C195.404 222.945 196.078 217.491 184.621 219.197" stroke="#242E35" stroke-width="2" stroke-linecap="round" stroke-linejoin="round"/>
</svg>
