<svg width="191" height="148" viewBox="0 0 191 148" fill="none" xmlns="http://www.w3.org/2000/svg">
<rect x="17.8252" y="82.4429" width="43.7453" height="23.5551" fill="#C5D5E4"/>
<rect x="144.013" y="74.0304" width="45.4278" height="25.2376" rx="4" stroke="#4F1C28" stroke-width="1.5" stroke-linecap="round"/>
<path d="M40.2588 78.5172V58.0337C40.2588 54.0624 41.0188 51.887 44.0378 48.837C47.0568 45.7871 51.1724 44.3013 53.2754 44.0297C76.1043 41.0816 46.7671 61.8759 46.7671 68.4838C46.7671 70.2363 49.8682 72.0089 54.8329 73.3106C80.3727 64.4021 129.026 48.5174 112.69 62.8411C96.6464 76.9084 68.5876 76.917 54.8329 73.3106C46.2366 76.3091 40.2588 78.5172 40.2588 78.5172Z" fill="#E6C9C9" stroke="#4F1C28" stroke-width="1.5" stroke-linecap="round"/>
<path d="M43.0625 100.951H64.3743" stroke="#4F1C28" stroke-width="1.5" stroke-linecap="round" stroke-linejoin="round"/>
<path d="M49.2319 104.876H58.2053" stroke="#4F1C28" stroke-width="1.5" stroke-linecap="round" stroke-linejoin="round"/>
<path d="M44.1299 134.235C48.0363 132.546 61.1348 127.405 70.4862 123.838C71.1874 128.785 70.1214 134.034 70.1214 136.003C70.1214 138.471 67.3563 139.087 65.9738 139.087H44.1298C39.9822 139.087 38.2759 136.767 44.1299 134.235Z" fill="#E6C9C9"/>
<path d="M99.7075 115.252C99.431 115.813 98.4355 116.822 96.6659 116.374C94.4539 115.813 86.7117 117.495 85.3292 118.897C84.4996 119.739 83.1171 122.543 80.0756 120.299C76.481 121.421 49.9839 131.704 44.1299 134.235C38.2759 136.767 39.9822 139.087 44.1298 139.087C47.4479 139.087 60.075 139.087 65.9738 139.087C67.3563 139.087 70.1214 138.471 70.1214 136.003C70.1214 132.918 72.7368 121.789 67.0798 116.374C61.4229 110.958 47.9088 114.411 40.2588 114.411V93.0989H67.0798V109.343H48.6932" stroke="#4F1C28" stroke-width="1.5" stroke-linecap="round"/>
<path d="M97.6601 110.974C98.774 111.808 99.331 114.031 99.6094 115.421C99.8322 116.533 102.673 115.329 104.065 114.587V115.977C103.694 117.089 103.285 119.202 104.622 118.757C107.295 117.645 108.521 119.22 108.799 120.147C108.392 120.642 107.606 120.736 106.715 122.737C105.601 125.239 107.134 126.508 109.65 126.508C116.055 126.23 128.849 120.981 128.292 118.201C127.735 115.421 124.672 115.977 123.837 115.421C123.001 114.865 123.001 114.031 124.672 113.475C126.343 112.919 126.065 110.696 125.229 109.584C124.394 108.472 121.052 100.689 121.609 99.5769C122.166 98.465 121.609 96.7972 120.217 96.7972C118.824 96.7972 117.153 95.4074 117.989 93.7395C118.824 92.0717 120.773 89.57 115.761 87.9022C106.85 85.4004 100.166 91.2378 98.774 92.9056C97.3816 94.5734 96.8247 97.9091 98.774 98.465C100.723 99.021 102.394 100.689 101.28 101.523C100.166 102.357 99.8879 104.302 100.166 106.804C99.0525 106.804 98.0314 108.101 97.6601 108.75C97.3817 108.565 96.4348 108.361 94.8754 109.028C92.0906 112.086 83.7364 114.309 83.1795 114.587C82.6225 114.865 82.6225 113.753 81.2301 113.475C80.1162 113.253 79.0952 114.68 78.7239 115.421L70.6481 118.201C70.9266 100.689 71.4836 64.1079 71.4836 57.8814C71.4836 50.0983 68.9773 47.3186 67.5849 45.6507C66.1925 43.9829 62.0154 40.6473 60.9015 39.2574C60.0104 38.1456 59.7876 35.0879 59.7876 33.698V13.6842H60.3446V10.6265H59.7876C59.7876 10.6265 59.7876 10.0706 59.7876 8.68074C59.7876 7.56886 59.045 7.29089 58.6737 7.29089C56.0746 7.29089 50.598 7.29089 49.4841 7.29089C48.3702 7.29089 48.0917 7.84683 48.0917 8.1248V10.6265H46.9778V13.6842H48.0917V33.698C48.1845 35.2732 47.9803 38.7571 46.4209 40.0913C44.4716 41.7592 37.2312 46.7626 36.9528 52.322C36.6743 57.8814 37.2312 104.58 37.5097 127.93C26.742 131.08 5.39917 138.334 3.81429 139.049C-0.434307 140.965 -0.224525 147.879 6.87751 146.832C12.6698 144.83 29.1554 138.771 36.6742 135.991" stroke="#4F1C28" stroke-width="1.5" stroke-linecap="round"/>
<path d="M140.881 132.924C141.539 130.517 139.145 128.359 137.866 127.995C124.344 127.995 99.6188 128.822 94.5585 128.822C92.3657 128.822 92.3657 131.556 92.6398 132.924C91.8175 133.197 90.1729 134.181 90.1729 135.932C90.1729 137.682 90.1729 142.13 90.1729 144.135C95.5118 144.135 106.235 144.135 116.761 144.135C127.286 144.135 138.14 144.091 142.252 143.088C142.435 140.353 142.416 134.236 140.881 132.924ZM140.881 132.924C140.224 135.33 89.7622 127.581 100.44 134.818C111.118 142.054 91.1585 121.709 112.35 118.897" stroke="#4F1C28" stroke-width="1.5" stroke-linecap="round" stroke-linejoin="round"/>
<path d="M51.8579 3.92578C51.2707 11.3555 51.623 25.2188 51.8579 28.7851C52.1516 33.2429 43.3098 26.1594 56.5228 28.0472" stroke="#4F1C28" stroke-width="1.5" stroke-linecap="round" stroke-linejoin="round"/>
<path d="M123.263 114.411C120.184 116.547 114.685 118.385 112.046 118.897" stroke="#4F1C28" stroke-width="1.5" stroke-linecap="round" stroke-linejoin="round"/>
<path d="M119.897 99.8289C117.997 101.474 107.229 105.998 101.951 105.998" stroke="#4F1C28" stroke-width="1.5" stroke-linecap="round" stroke-linejoin="round"/>
<ellipse cx="115.971" cy="26.6398" rx="13.4601" ry="13.7405" fill="#FAE8D1"/>
<ellipse cx="115.691" cy="26.9201" rx="17.1055" ry="16.8251" stroke="#4F1C28" stroke-width="1.5" stroke-linecap="round" stroke-linejoin="round"/>
<path d="M115.972 48.7927C128.361 48.7927 138.405 38.7489 138.405 26.3592C138.405 13.9696 128.361 3.92578 115.972 3.92578" stroke="#4F1C28" stroke-width="1.5" stroke-linecap="round" stroke-linejoin="round" stroke-dasharray="3 3"/>
<path d="M114.289 43.7454L112.046 56.6446" stroke="#4F1C28" stroke-width="1.5" stroke-linecap="round" stroke-linejoin="round"/>
<g style="mix-blend-mode:multiply">
<path d="M105.877 7.29087C108.045 7.29087 109.802 5.65876 109.802 3.64544C109.802 1.63212 108.045 0 105.877 0C103.708 0 101.951 1.63212 101.951 3.64544C101.951 5.65876 103.708 7.29087 105.877 7.29087Z" fill="#E0E5CD"/>
</g>
<path d="M144.574 48.7927C146.432 48.7927 147.939 47.4117 147.939 45.7081C147.939 44.0046 146.432 42.6235 144.574 42.6235C142.716 42.6235 141.209 44.0046 141.209 45.7081C141.209 47.4117 142.716 48.7927 144.574 48.7927Z" stroke="#4F1C28" stroke-width="1.5" stroke-linejoin="round"/>
<path d="M17.6968 35.5342C20.3296 35.5342 22.4639 33.3999 22.4639 30.7671C22.4639 28.1343 20.3296 26 17.6968 26C15.064 26 12.9297 28.1343 12.9297 30.7671C12.9297 33.3999 15.064 35.5342 17.6968 35.5342Z" stroke="#4F1C28" stroke-width="1.5" stroke-linejoin="round"/>
<g style="mix-blend-mode:multiply">
<path d="M167.008 92.5381C170.725 92.5381 173.738 89.7761 173.738 86.3689C173.738 82.9618 170.725 80.1997 167.008 80.1997C163.291 80.1997 160.278 82.9618 160.278 86.3689C160.278 89.7761 163.291 92.5381 167.008 92.5381Z" fill="#EFDDC7"/>
</g>
<path d="M106.153 28.9428L109.32 28.2931V27.6434L106.153 28.2931V28.9428Z" fill="#513011"/>
<path d="M116.352 29.6087C116.352 28.1145 115.28 26.4903 113.461 26.0355C114.647 25.2234 115.524 24.2651 115.524 23.1445C115.524 21.7314 114.322 20.8706 112.99 20.8706C111.561 20.8706 109.986 21.8776 109.612 24.1027L109.693 24.119C110.116 23.2744 110.879 22.9333 111.577 22.9333C112.454 22.9333 113.266 23.4693 113.266 24.4763C113.266 25.4833 112.487 26.0842 111.123 27.075V27.1562C113.169 27.7247 113.981 29.3326 113.981 30.7944C113.981 32.1912 113.331 33.0357 112.519 33.0357C111.967 33.0357 111.821 32.6622 111.74 31.8014C111.659 30.567 111.139 29.6737 110.262 29.6737C109.515 29.6737 109.076 30.4046 109.076 31.1354C109.076 32.2724 110.067 33.5392 112.519 33.5392C114.452 33.5392 116.352 31.6389 116.352 29.6087Z" fill="#513011"/>
<path d="M118.506 26.3928C119.708 26.3928 120.666 25.126 120.666 23.6317C120.666 22.1375 119.724 20.8706 118.506 20.8706C117.271 20.8706 116.329 22.1537 116.329 23.6317C116.329 25.0935 117.32 26.3928 118.506 26.3928ZM117.677 33.2956H118.343L123.703 21.1142H123.037L117.677 33.2956ZM118.506 21.3091C118.944 21.3091 119.155 22.1862 119.155 23.6317C119.155 25.1097 118.944 25.9705 118.506 25.9705C118.067 25.9705 117.84 25.1097 117.84 23.6317C117.84 22.1862 118.051 21.3091 118.506 21.3091ZM122.875 28.017C121.673 28.017 120.715 29.2839 120.715 30.7781C120.715 32.2724 121.657 33.5392 122.875 33.5392C124.109 33.5392 125.051 32.2561 125.051 30.7781C125.051 29.3164 124.06 28.017 122.875 28.017ZM122.875 33.1007C122.436 33.1007 122.225 32.2236 122.225 30.7781C122.225 29.3001 122.436 28.4393 122.875 28.4393C123.313 28.4393 123.541 29.3001 123.541 30.7781C123.541 32.2236 123.329 33.1007 122.875 33.1007Z" fill="#513011"/>
</svg>
