<svg width="46" height="46" viewBox="0 0 46 46" fill="none" xmlns="http://www.w3.org/2000/svg">
<circle cx="23" cy="23" r="22.5" fill="#3C400C" stroke="white"/>
<path d="M23.2664 17.2019L23.2664 12.1711" stroke="white" stroke-linecap="round" stroke-linejoin="round"/>
<path d="M25.9497 14.1831L23.2666 11.5L20.5835 14.1831" stroke="white" stroke-linecap="round" stroke-linejoin="round"/>
<rect x="14.1904" y="19.3784" width="17.9569" height="10.2018" rx="1.5" stroke="white"/>
<path d="M23.4318 25.8276L22.8112 25.8276C22.5909 25.8276 22.3907 25.6675 22.3307 25.4673C22.3107 25.3872 22.2306 25.3272 22.1505 25.3272L21.65 25.3272C21.5499 25.3272 21.4498 25.4272 21.4699 25.5273C21.5699 26.1479 22.0704 26.6284 22.7111 26.6685L22.7111 27.1689C22.7111 27.269 22.7911 27.3491 22.8912 27.3491L23.3717 27.3491C23.4718 27.3491 23.5519 27.269 23.5519 27.1689L23.5519 26.6685C24.2726 26.6084 24.8531 25.9878 24.7931 25.2471C24.753 24.5264 24.1124 23.9658 23.3917 23.9658L22.8912 23.9658C22.5509 23.9658 22.3107 23.7857 22.2907 23.5254C22.2506 23.2251 22.4908 22.9849 22.7911 22.9849L23.4518 22.9849C23.672 22.9849 23.8722 23.145 23.9322 23.3452C23.9523 23.4253 24.0323 23.4854 24.1124 23.4854L24.6129 23.4854C24.713 23.4854 24.8131 23.3853 24.7931 23.2852C24.693 22.6646 24.1925 22.2041 23.5519 22.1441L23.5519 21.6436C23.5519 21.5435 23.4718 21.4634 23.3717 21.4634L22.8712 21.4634C22.7711 21.4634 22.691 21.5435 22.691 21.6436L22.691 22.1441C21.9703 22.2041 21.3898 22.8247 21.4498 23.5654C21.4899 24.2861 22.1305 24.8467 22.8512 24.8467L23.4518 24.8467C23.7521 24.8467 23.9723 25.1069 23.9523 25.3872C23.9322 25.6475 23.692 25.8276 23.4318 25.8276Z" fill="white"/>
</svg>
