<svg width="84" height="84" viewBox="0 0 84 84" fill="none" xmlns="http://www.w3.org/2000/svg">
<circle cx="42" cy="42" r="41.5" fill="#3C400C" stroke="white"/>
<path d="M42.4868 31.4122L42.4868 22.2256" stroke="white" stroke-width="1.5" stroke-linecap="round" stroke-linejoin="round"/>
<path d="M47.3867 25.8996L42.4872 21L37.5876 25.8996" stroke="white" stroke-width="1.5" stroke-linecap="round" stroke-linejoin="round"/>
<rect x="25.75" y="35.2238" width="33.117" height="18.9555" rx="1.25" stroke="white" stroke-width="1.5"/>
<path d="M42.7885 47.1637L41.6552 47.1637C41.2531 47.1637 40.8875 46.8712 40.7779 46.5056C40.7413 46.3594 40.5951 46.2497 40.4489 46.2497L39.5349 46.2497C39.3521 46.2497 39.1693 46.4325 39.2059 46.6153C39.3887 47.7486 40.3026 48.626 41.4725 48.6991L41.4725 49.613C41.4725 49.7958 41.6187 49.942 41.8015 49.942L42.6788 49.942C42.8616 49.942 43.0079 49.7958 43.0079 49.613L43.0079 48.6991C44.3239 48.5894 45.3841 47.4561 45.2744 46.1035C45.2013 44.7875 44.0315 43.7638 42.7154 43.7638L41.8015 43.7638C41.18 43.7638 40.7413 43.4348 40.7048 42.9596C40.6316 42.4112 41.0703 41.9725 41.6187 41.9725L42.8251 41.9725C43.2272 41.9725 43.5928 42.265 43.7025 42.6306C43.739 42.7768 43.8852 42.8865 44.0315 42.8865L44.9454 42.8865C45.1282 42.8865 45.311 42.7037 45.2744 42.5209C45.0916 41.3876 44.1777 40.5468 43.0079 40.4371L43.0079 39.5232C43.0079 39.3404 42.8616 39.1942 42.6788 39.1942L41.7649 39.1942C41.5821 39.1942 41.4359 39.3404 41.4359 39.5232L41.4359 40.4371C40.1198 40.5468 39.0597 41.6801 39.1693 43.0327C39.2425 44.3488 40.4123 45.3724 41.7284 45.3724L42.8251 45.3724C43.3734 45.3724 43.7756 45.8476 43.739 46.3594C43.7025 46.8347 43.2638 47.1637 42.7885 47.1637Z" fill="white"/>
</svg>
