<svg width="46" height="46" viewBox="0 0 46 46" fill="none" xmlns="http://www.w3.org/2000/svg">
<circle cx="23" cy="23" r="22.5" fill="#3C400C" stroke="white"/>
<path d="M23.064 35.383V26.1183" stroke="white" stroke-width="1.2" stroke-linecap="round" stroke-linejoin="round"/>
<path fill-rule="evenodd" clip-rule="evenodd" d="M23.064 33.5295C23.064 30.247 24.5028 28.8971 28.6228 28.8971C28.6228 32.6058 26.9283 33.5295 23.064 33.5295V33.5295Z" stroke="white" stroke-width="1.2" stroke-linecap="round" stroke-linejoin="round"/>
<path fill-rule="evenodd" clip-rule="evenodd" d="M33.2552 26.1177H12.8728V15H33.2552V26.1177Z" stroke="white" stroke-width="1.2" stroke-linecap="round" stroke-linejoin="round"/>
<path fill-rule="evenodd" clip-rule="evenodd" d="M21.2107 20.5588C21.2107 19.5351 22.0399 18.7059 23.0636 18.7059C24.0874 18.7059 24.9166 19.5351 24.9166 20.5588C24.9166 21.5826 24.0874 22.4118 23.0636 22.4118C22.0399 22.4118 21.2107 21.5826 21.2107 20.5588V20.5588Z" stroke="white" stroke-width="1.2" stroke-linecap="round" stroke-linejoin="round"/>
<path d="M16.5784 20.5593H17.5048" stroke="white" stroke-width="1.2" stroke-linecap="round" stroke-linejoin="round"/>
<path d="M28.6223 20.5593H29.5488" stroke="white" stroke-width="1.2" stroke-linecap="round" stroke-linejoin="round"/>
</svg>
