<svg width="116" height="164" viewBox="0 0 116 164" fill="none" xmlns="http://www.w3.org/2000/svg">
<g style="mix-blend-mode:multiply">
<path d="M5.70076 73.8238C5.70076 73.8238 -8.11001 98.5898 16.8986 110.312L34.5776 120.103L38.9551 119.392C38.9551 119.392 65.0325 109.126 66.8649 100.928C68.6973 92.7287 70.4788 92.0172 70.4788 92.0172L77.2654 92.7795C77.2654 92.7795 86.2576 93.7789 92.7558 90.1708C99.254 86.5626 122.905 76.0938 111.996 34.7268L107.5 15.0427C107.5 15.0427 98.728 10.181 91.9075 33.4563C91.9075 33.4563 84.9852 42.5021 68.85 39.6901C68.85 39.6901 56.9735 39.6901 52.7488 54.0043C52.7488 54.0043 51.8835 60.1365 37.1905 58.1037C33.0179 57.4759 28.7529 58.0068 24.8624 59.6382C20.972 61.2696 17.6063 63.9386 15.134 67.3528C15.134 67.3528 10.9264 75.6195 5.70076 73.8238Z" fill="#E6C9C9"/>
</g>
<path d="M33.6785 163V119.443L14.6929 109.178C9.92186 106.592 6.12988 102.517 3.89642 97.5772C1.66295 92.6371 1.11096 87.1027 2.32445 81.8197L13.1828 34.7271H49.8984C49.8984 34.7271 35.5108 79.9225 70.6993 90.7639" stroke="#242E35" stroke-width="2" stroke-linecap="round" stroke-linejoin="round"/>
<path d="M59.0094 1.69434H101.222C101.643 2.106 101.932 2.63334 102.051 3.20927C102.171 3.7852 102.116 4.38368 101.895 4.92856C101.673 5.47344 101.293 5.94008 100.805 6.26911C100.317 6.59814 99.7413 6.77468 99.1522 6.77628L56.4135 6.94567L49.8984 34.7439H59.4505L70.3091 81.8366C71.52 87.119 70.9648 92.652 68.7281 97.5895C66.4914 102.527 62.6963 106.597 57.9235 109.177L38.9551 119.443L38.955 163" stroke="#242E35" stroke-width="2" stroke-linecap="round" stroke-linejoin="round"/>
<path d="M78.1817 163V94.8633C78.1783 94.1696 77.9213 93.5009 77.4588 92.9831C76.9964 92.4653 76.3606 92.1339 75.6707 92.0513C70.92 91.4415 60.2649 88.494 51.137 74.7558C45.5719 66.2859 46.8955 49.3461 49.5931 34.5576" stroke="#242E35" stroke-width="2" stroke-linecap="round" stroke-linejoin="round"/>
<path d="M83.3733 163V94.8632C83.3766 94.1694 83.6337 93.5008 84.0961 92.9829C84.5585 92.4651 85.1946 92.1337 85.8845 92.0512C90.6351 91.4413 101.29 88.4938 110.418 74.7556C118.799 62.1524 111.589 30.1192 107.5 15.0428C107.5 15.0428 97.9815 11.8581 93.4515 29.7466C88.9214 47.635 61.7072 30.187 54.4285 50.447C47.1499 70.707 27.8759 44.4164 14.5233 68.6234C14.5233 68.6234 9.2976 76.6867 4.34338 73.1971" stroke="#242E35" stroke-width="2" stroke-linecap="round" stroke-linejoin="round"/>
</svg>
