<svg width="133" height="176" viewBox="0 0 133 176" fill="none" xmlns="http://www.w3.org/2000/svg">
<g style="mix-blend-mode:multiply">
<path d="M1.41647 89.1712C1.41647 89.1712 -0.176987 106.499 18.1965 114.363L29.0925 118.822C32.5144 120.203 36.3351 120.203 39.757 118.822C46.9212 115.964 58.8252 110.616 60.9363 106.171L62.2029 103.258C63.8287 104.007 65.5855 104.427 67.3731 104.495C69.1606 104.562 70.944 104.275 72.6211 103.65C74.2982 103.025 75.8361 102.075 77.1474 100.853C78.4586 99.6311 79.5173 98.1619 80.2631 96.5292C80.4401 96.1326 80.6036 95.736 80.7398 95.3393L84.4582 83.9057C84.4582 83.9057 103.703 107.799 119.53 85.2734C131.093 68.8615 131.243 53.0513 130.426 45.7754C130.375 45.1705 130.205 44.5818 129.926 44.043C129.647 43.5042 129.265 43.026 128.802 42.6359C128.339 42.2457 127.804 41.9513 127.227 41.7696C126.65 41.5878 126.043 41.5222 125.441 41.5767C125.234 41.5885 125.029 41.6206 124.828 41.6724C121.45 42.4793 117.078 45.0505 114.272 52.4906C109.165 66.0715 109.001 70.0924 101.02 68.629C93.0387 67.1656 86.3785 56.4295 76.5039 56.7714C66.6294 57.1133 61.4266 63.2404 51.0617 80.0216C40.6969 96.8027 35.2079 81.3892 24.7613 81.1567C14.3147 80.9242 10.2287 79.7891 1.41647 89.1712Z" fill="#E6C9C9"/>
</g>
<path d="M1.51184 92.5768C1.51184 83.7964 19.5992 73.7168 36.5154 86.2035C53.4315 98.6902 58.825 39.0056 89.0752 62.3242C117.473 84.2067 106.7 44.5446 125.659 41.6999C126.749 41.5558 127.852 41.85 128.727 42.5186C129.602 43.1873 130.178 44.176 130.33 45.2695L131.379 51.547C132.455 61.3818 130.785 71.3232 126.556 80.2597C122.328 89.1961 115.707 96.7755 107.435 102.15V175" stroke="#242E35" stroke-width="2" stroke-linecap="round" stroke-linejoin="round"/>
<path d="M31.9527 175V120.122L18.1419 114.459C12.2729 112.166 7.41665 107.836 4.45321 102.256C1.48977 96.6761 0.615357 90.2145 1.98856 84.0427L9.99717 47.8544H58.185C76.218 76.2333 72.0365 106.185 58.4437 98.9365C44.8509 91.6879 55.7197 1.36768 55.7197 1.36768H82.6057L86.9233 26.7788L81.9112 40.9614C74.175 62.844 81.3391 87.5986 100.23 101.002C100.802 101.412 101.402 101.809 102.001 102.205V175" stroke="#242E35" stroke-width="2" stroke-linecap="round" stroke-linejoin="round"/>
<path d="M66.9291 175V109.672C66.9291 109.672 60.9362 106.171 60.909 106.212C57.444 109.766 53.3341 112.621 48.8007 114.623L36.5427 120.094V175" stroke="#242E35" stroke-width="2" stroke-linecap="round" stroke-linejoin="round"/>
<path d="M113.891 35.1352H125.1C128.56 35.1352 128.751 29.9107 125.305 29.7466H90.2057C90.2057 29.7466 103.826 83.687 85.8609 85.6428C85.8609 85.6428 84.0223 105.419 72.0366 110.014V175" stroke="#242E35" stroke-width="2" stroke-linecap="round" stroke-linejoin="round"/>
</svg>
