<svg width="14" height="14" viewBox="0 0 14 14" fill="none" xmlns="http://www.w3.org/2000/svg">
<path fill-rule="evenodd" clip-rule="evenodd" d="M12.8913 1.99361C13.2819 1.60308 13.2819 0.969917 12.8913 0.579392C12.5008 0.188868 11.8677 0.188868 11.4771 0.579392L6.73543 5.32109L1.99373 0.579392C1.6032 0.188868 0.970039 0.188868 0.579514 0.579392C0.18899 0.969917 0.18899 1.60308 0.579514 1.99361L5.32121 6.73531L0.579514 11.477C0.18899 11.8675 0.18899 12.5007 0.579514 12.8912C0.970039 13.2817 1.6032 13.2817 1.99373 12.8912L6.73543 8.14952L11.4771 12.8912C11.8677 13.2817 12.5008 13.2817 12.8913 12.8912C13.2819 12.5007 13.2819 11.8675 12.8913 11.477L8.14964 6.73531L12.8913 1.99361Z" fill="white"/>
</svg>
