<svg width="32" height="32" viewBox="0 0 32 32" fill="none" xmlns="http://www.w3.org/2000/svg">
<circle cx="16" cy="16" r="16" fill="#C5D5E4"/>
<circle cx="16" cy="16" r="9.5" fill="#C5D5E4" stroke="#242E35"/>
<path d="M16.463 18.1201L15.5373 18.1201C15.2088 18.1201 14.9102 17.8812 14.8206 17.5826C14.7907 17.4632 14.6713 17.3736 14.5518 17.3736L13.8053 17.3736C13.656 17.3736 13.5067 17.5229 13.5365 17.6722C13.6858 18.5979 14.4324 19.3146 15.388 19.3743L15.388 20.1209C15.388 20.2702 15.5074 20.3896 15.6567 20.3896L16.3734 20.3896C16.5227 20.3896 16.6422 20.2702 16.6422 20.1209L16.6422 19.3743C17.7172 19.2848 18.5832 18.359 18.4936 17.2541C18.4339 16.1791 17.4783 15.343 16.4033 15.343L15.6567 15.343C15.1491 15.343 14.7907 15.0742 14.7609 14.686C14.7011 14.2381 15.0595 13.8797 15.5074 13.8797L16.4929 13.8797C16.8213 13.8797 17.12 14.1186 17.2096 14.4172C17.2394 14.5367 17.3589 14.6263 17.4783 14.6263L18.2249 14.6263C18.3742 14.6263 18.5235 14.477 18.4936 14.3276C18.3443 13.4019 17.5978 12.7151 16.6422 12.6255L16.6422 11.879C16.6422 11.7296 16.5227 11.6102 16.3734 11.6102L15.6269 11.6102C15.4776 11.6102 15.3581 11.7296 15.3581 11.879L15.3581 12.6255C14.2831 12.7151 13.4171 13.6408 13.5067 14.7457C13.5664 15.8207 14.522 16.6569 15.597 16.6569L16.4929 16.6569C16.9408 16.6569 17.2693 17.0451 17.2394 17.4632C17.2096 17.8514 16.8512 18.1201 16.463 18.1201Z" fill="#242E35"/>
</svg>
