<svg width="32" height="32" viewBox="0 0 32 32" fill="none" xmlns="http://www.w3.org/2000/svg">
<circle cx="16" cy="16" r="16" fill="#EFDDC7"/>
<path d="M23.7988 16.0268C23.7988 11.7502 20.3317 8.2832 16.0551 8.2832C11.7786 8.2832 8.31152 11.7502 8.31152 16.0268C8.31152 20.3034 11.7786 23.7704 16.0551 23.7704" stroke="#242E35" stroke-linecap="round" stroke-linejoin="round"/>
<path d="M22.71 19.546V24.4098" stroke="#242E35" stroke-linecap="round" stroke-linejoin="round"/>
<path d="M20.2783 21.978H25.1421" stroke="#242E35" stroke-linecap="round" stroke-linejoin="round"/>
<path fill-rule="evenodd" clip-rule="evenodd" d="M13.2402 17.4347C13.2402 18.9898 14.501 20.2506 16.0561 20.2506C17.6112 20.2506 18.872 18.9898 18.872 17.4347H13.2402V17.4347Z" stroke="#242E35" stroke-linecap="round" stroke-linejoin="round"/>
<path fill-rule="evenodd" clip-rule="evenodd" d="M13.9441 13.9144C13.9441 13.5258 13.6294 13.2104 13.2401 13.2104C12.8508 13.2104 12.5361 13.5258 12.5361 13.9144C12.5361 14.303 12.8508 14.6184 13.2401 14.6184C13.6294 14.6184 13.9441 14.303 13.9441 13.9144Z" fill="#242E35" stroke="#242E35" stroke-linecap="round" stroke-linejoin="round"/>
<path fill-rule="evenodd" clip-rule="evenodd" d="M19.5749 13.9144C19.5749 13.5258 19.2603 13.2104 18.871 13.2104C18.4817 13.2104 18.167 13.5258 18.167 13.9144C18.167 14.303 18.4817 14.6184 18.871 14.6184C19.2603 14.6184 19.5749 14.303 19.5749 13.9144Z" fill="#242E35" stroke="#242E35" stroke-linecap="round" stroke-linejoin="round"/>
</svg>
 