<svg width="58" height="111" viewBox="0 0 58 111" fill="none" xmlns="http://www.w3.org/2000/svg">
<path d="M28.9831 54.2651L28.2549 90.9062C28.2032 92.3602 28.703 93.7792 29.6527 94.8742C30.326 95.6048 31.1657 96.1588 32.0992 96.4884C33.0326 96.8179 34.0315 96.9131 35.0096 96.7655C36.3705 96.6222 37.6863 96.1918 38.8716 95.5024C40.0569 94.813 41.0852 93.8798 41.8899 92.7636L44.9952 88.5423" stroke="#E6C9C9" stroke-width="2" stroke-linecap="round" stroke-linejoin="round"/>
<path d="M29.1085 109.784C38.4835 109.784 46.0833 102.118 46.0833 92.6621C46.0833 83.206 38.4835 75.5403 29.1085 75.5403C19.7336 75.5403 12.1338 83.206 12.1338 92.6621C12.1338 102.118 19.7336 109.784 29.1085 109.784Z" stroke="#E6C9C9" stroke-width="2" stroke-linecap="round" stroke-linejoin="round"/>
<path d="M37.186 19.3628H20.1777L29.1004 43.2471L37.186 19.3628Z" fill="#C5D5E4"/>
<path d="M39.8893 19.3628L29.1001 46.4387L17.4405 19.3628H4.4834L29.1001 50.5925L53.2147 19.3628H39.8893Z" fill="#C5D5E4"/>
<path d="M40.1072 17.9106H53.2149L47.9501 7.58521L40.1072 17.9106Z" fill="#C5D5E4"/>
<path d="M20.1777 17.9106H37.186L28.255 9.30786L20.1777 17.9106Z" fill="#C5D5E4"/>
<path d="M45.3803 8.18457L38.6507 16.2222L31.4607 9.6874L45.3803 8.18457Z" fill="#C5D5E4"/>
<path d="M17.5995 17.6575H4.4834L9.75662 7.34033L17.5995 17.6575Z" fill="#C5D5E4"/>
<path d="M12.3264 7.9314L19.0561 15.9685L26.2461 9.43413L12.3264 7.9314Z" fill="#C5D5E4"/>
<path d="M8.46777 4.99316L1.40332 19.7764L28.9246 54.2649" stroke="#E6C9C9" stroke-width="2" stroke-linecap="round" stroke-linejoin="round"/>
<path d="M29.0417 54.2649L56.5629 19.7764L49.5069 4.99316" stroke="#E6C9C9" stroke-width="2" stroke-linecap="round" stroke-linejoin="round"/>
<path d="M28.9998 9.74658C40.3671 9.74658 49.5822 7.78859 49.5822 5.37329C49.5822 2.95799 40.3671 1 28.9998 1C17.6325 1 8.41748 2.95799 8.41748 5.37329C8.41748 7.78859 17.6325 9.74658 28.9998 9.74658Z" stroke="#E6C9C9" stroke-width="2" stroke-linecap="round" stroke-linejoin="round"/>
</svg>
