<svg width="126" height="131" viewBox="0 0 126 131" fill="none" xmlns="http://www.w3.org/2000/svg">
<path d="M112.264 53.6172L96.3457 58.225L109.75 77.0753L125.668 72.0485L112.264 53.6172Z" fill="#FAE8D1"/>
<path d="M21.7835 67.8613L36.0259 73.7258L27.2291 95.9272L8.37891 90.9005L21.7835 67.8613Z" fill="#FAE8D1"/>
<path d="M32.2559 69.5371L38.5393 73.3072L24.2969 95.9274" stroke="#242E35" stroke-width="2" stroke-linecap="round" stroke-linejoin="round"/>
<path d="M10.0545 85.0371L8.37891 91.7394L24.2969 95.9284L19.689 87.5505" stroke="#242E35" stroke-width="2" stroke-linecap="round" stroke-linejoin="round"/>
<path d="M62.8692 56.6887C57.9218 55.658 54.3659 57.3758 53.5929 58.2347C52.7684 58.8321 51.7892 62.6064 51.7892 64.419C49.6419 79.7076 45.1928 111.213 44.5743 114.923C43.8013 119.561 43.5436 119.561 44.5743 122.653C57.5611 127.601 65.9613 125.402 68.538 123.684C70.5135 110.027 74.8768 81.3224 76.5259 75.7566C78.175 70.1909 78.072 63.3024 77.8143 60.5539C77.3848 59.0078 76.1137 56.3795 74.4645 58.2347C72.4031 60.5537 69.0534 57.9771 62.8692 56.6887Z" fill="#E0E5CD"/>
<path d="M62.2344 42.4766C63.6996 41.368 69.1625 40.1073 73.3647 43.4691" stroke="#242E35" stroke-width="2" stroke-linecap="round" stroke-linejoin="round"/>
<path d="M40.2474 120.882C39.8533 125.048 43.1696 125.751 44.8783 126.642C46.587 127.533 64.5809 130.336 67.8052 129.584C70.3846 128.983 71.5762 125.279 71.8496 123.502C74.5947 105.632 80.073 68.711 80.0247 63.9941C79.9644 58.0978 76.6307 54.8329 74.7476 52.6667C72.8644 50.5005 73.2559 46.9303 73.34 45.4474C73.4072 44.261 74.6864 34.3627 75.3176 29.5619C75.5242 29.3486 76.065 28.763 76.5746 28.1268C77.2116 27.3317 77.584 22.503 76.4271 21.593C71.7833 18.8151 66.9555 19.8653 65.8867 20.2999C65.0317 20.6475 64.7045 21.7692 64.6478 22.2866C64.4418 22.9712 64.0196 24.4335 63.9788 24.806C63.9277 25.2717 63.3959 27.2561 64.3465 28.6151C63.742 39.8582 60.5641 48.7821 57.6524 50.9813C51.242 55.0021 49.7477 59.3173 49.1638 61.0605C48.5799 62.8038 40.74 115.673 40.2474 120.882Z" stroke="#242E35" stroke-width="2" stroke-linecap="round" stroke-linejoin="round"/>
<path d="M69.2539 27.1758C70.6576 27.1009 73.8652 27.4811 75.4664 29.6016" stroke="#242E35" stroke-width="2" stroke-linecap="round" stroke-linejoin="round"/>
<path d="M64.3828 28.3594C65.0113 28.0467 66.4273 27.409 67.0634 27.3597" stroke="#242E35" stroke-width="2" stroke-linecap="round" stroke-linejoin="round"/>
<path d="M23.4597 67.0212C18.4329 65.7645 10.4739 87.547 11.3117 75.818C12.1495 64.089 7.47691 65.2767 6.70387 54.4544C5.93084 43.6321 18.4765 35.5039 32.2566 42.3065C44.5876 48.3937 38.8066 65.4741 47.1979 74.8708M123.156 65.7645C126.936 50.0464 114.779 36.4407 100.955 36.4414C86.4697 36.4421 82.8346 46.036 79.0087 57.6067" stroke="#242E35" stroke-width="2" stroke-linecap="round" stroke-linejoin="round"/>
<path d="M47.4062 71.3749C54.1917 69.5712 70.03 68.0252 79.1002 76.2707" stroke="#242E35" stroke-width="2" stroke-linecap="round" stroke-linejoin="round"/>
<path d="M46.1211 95.2258C52.9065 93.422 68.7449 91.876 77.815 100.122C81.3389 104.169 90.4812 111.929 98.8591 110.589C118.547 107.439 119.385 87.5501 119.385 81.6855" stroke="#242E35" stroke-width="2" stroke-linecap="round" stroke-linejoin="round"/>
<circle cx="63.1292" cy="82.971" r="6.69953" fill="#C6BAAA"/>
<path d="M36.5742 26.4082L52.7816 31.835" stroke="#242E35" stroke-width="2" stroke-linecap="round" stroke-linejoin="round"/>
<path d="M45.0996 12.9062L56.132 20.9458" stroke="#242E35" stroke-width="2" stroke-linecap="round" stroke-linejoin="round"/>
<path d="M59.5684 2.8457L64.5097 14.243" stroke="#242E35" stroke-width="2" stroke-linecap="round" stroke-linejoin="round"/>
<path d="M79.2324 0L76.6137 11.8002" stroke="#242E35" stroke-width="2" stroke-linecap="round" stroke-linejoin="round"/>
<path d="M93.1973 13.0391L82.9414 19.4359" stroke="#242E35" stroke-width="2" stroke-linecap="round" stroke-linejoin="round"/>
<path d="M98.8574 28.4844L85.4528 29.8287" stroke="#242E35" stroke-width="2" stroke-linecap="round" stroke-linejoin="round"/>
</svg>
