<svg width="45" height="109" viewBox="0 0 45 109" fill="none" xmlns="http://www.w3.org/2000/svg">
<g clip-path="url(#clip0)">
<path d="M4.75366 34.8141C4.75366 42.9155 12.7737 49.4832 22.6763 49.4832C32.5789 49.4832 40.5903 42.9155 40.5903 34.8141C40.5903 28.2724 29.6906 38.7045 23.6992 39.1464C20.3554 39.337 4.75366 28.9135 4.75366 34.8141Z" fill="#E0E5CD"/>
<path d="M22.6763 108.134C32.3041 108.134 40.109 100.266 40.109 90.5618C40.109 80.8572 32.3041 72.9901 22.6763 72.9901C13.0485 72.9901 5.24365 80.8572 5.24365 90.5618C5.24365 100.266 13.0485 108.134 22.6763 108.134Z" stroke="#E6C9C9" stroke-width="2" stroke-linecap="round" stroke-linejoin="round"/>
<path d="M30.9456 26.271C29.8052 29.4723 27.5511 32.1477 24.6017 33.8004V33.8004C24.4844 32.2744 24.6239 30.7393 25.0143 29.2602C27.5931 19.6599 33.98 19.8852 33.98 19.8852L34.2722 22.3026C34.5642 24.5614 34.1287 26.8549 33.0299 28.8454C31.9311 30.8358 30.2272 32.4179 28.1691 33.3586C27.3786 33.7026 26.5658 33.992 25.7364 34.2251C23.7859 34.7905 21.7129 34.7603 19.7794 34.1383C1.98569 28.4544 9.71349 12.373 9.71349 12.373C17.4499 16.402 20.192 23.9055 23.4671 34.0344C24.2512 36.3849 24.5091 38.8812 24.2222 41.3441C23.9354 43.807 23.1109 46.1754 21.808 48.2789C21.2428 49.2237 20.408 49.9747 19.4128 50.4338C18.4175 50.8928 17.308 51.0387 16.2292 50.8523C11.9317 50.0742 8.0407 47.8026 5.23268 44.4323C2.42466 41.0621 0.877287 36.8065 0.859619 32.4054V32.4054C0.860085 28.7799 1.23751 25.1644 1.98569 21.6181L6.36965 0.875122H38.6304L43.0143 21.6181C43.7625 25.1644 44.14 28.7799 44.1404 32.4054V32.4054C44.1109 37.4112 42.1103 42.2003 38.5785 45.7197C35.0467 49.239 30.2728 51.2005 25.3066 51.1729H22.5473L21.7994 88.7683C21.7461 90.2616 22.256 91.7198 23.2264 92.8493C23.9197 93.5992 24.7836 94.1677 25.7435 94.5059C26.7035 94.844 27.7307 94.9416 28.7364 94.7902C30.1367 94.6508 31.4921 94.2154 32.7141 93.5122C33.9361 92.809 34.9972 91.8538 35.8281 90.7092L39.0172 86.3769" stroke="#E6C9C9" stroke-width="2" stroke-linecap="round" stroke-linejoin="round"/>
<path d="M12.6189 21.826C15.4177 26.8289 19.1892 31.2111 23.7077 34.7102" stroke="#E6C9C9" stroke-width="2" stroke-linecap="round" stroke-linejoin="round"/>
</g>
<defs>
<clipPath id="clip0">
<rect width="45" height="109" fill="white"/>
</clipPath>
</defs>
</svg>
