<svg width="375" height="190" xmlns="http://www.w3.org/2000/svg" fill="none">
  <path id="svg_1" fill="#E6C9C9" d="m86.7554,144.05c-11.3888,13.22 -40.3601,17.772 -53.4221,18.396l-33.3333,0l0,79.554l375,0l0,-242c-12.181,0 -22.455,37.1038 -29.646,37.1038c-7.192,0 -10.127,-13.4073 -25.097,-13.4073c-14.97,0 -33.609,61.4239 -55.624,61.4239c-22.014,0 -36.397,-7.1713 -44.322,-7.1713c-7.926,0 -10.274,9.6657 -17.906,9.6657c-7.631,0 -12.034,-20.5786 -24.509,-20.5786c-12.475,0 -33.462,50.1988 -39.48,50.1988c-6.017,0 -5.723,-11.848 -16.731,-11.848c-11.007,0 -20.693,22.138 -34.9296,38.663z"/>
  <rect id="svg_2" fill="#E0E5CD" height="22.0772" width="375" y="159.211"/>
  <path id="svg_3" fill="#3C400C" d="m23.9583,157.322l-23.9583,0l0,257.178l375,0c-0.05,-34.251 -0.12,-340.8872 0,-348.6934c-9.758,0 -16.063,68.1554 -24.77,68.1554c-8.706,0 -1.351,-37.1083 -11.108,-37.1083c-8.107,0 -9.308,25.4293 -19.366,25.4293c-10.058,0 -5.554,-19.072 -16.963,-19.072c-11.409,0 -24.169,35.039 -33.627,35.039c-9.457,0 -9.307,-15.967 -23.869,-15.967c-18.314,0 -41.582,27.942 -50.74,27.942c-7.506,0 -9.157,-11.975 -24.169,-11.975c-16.062,0 -24.919,35.039 -40.382,35.039c-15.462,0 -14.261,-48.493 -26.12,-48.493c-11.8597,0 -15.1624,15.524 -29.1234,15.524c-13.961,0 -21.7672,18.332 -32.1254,18.332c-2.552,0 -13.0799,-1.33 -18.6789,-1.33z"/>
  <line id="svg_4" stroke-dasharray="2 2" stroke="#E6C9C9" y2="159.5" y1="159.5" x1="375"/>
</svg>
