<svg width="1440" height="570" xmlns="http://www.w3.org/2000/svg" fill="none">
   <path stroke="null" id="svg_1" fill="#E6C9C9" d="m332.141,490.291c-43.733,31.139 -154.983,41.861 -205.141,43.33l-128,0l0,187.379l1440,0l0,-570c-46.78,0 -86.23,87.3932 -113.84,87.3932c-27.62,0 -38.89,-31.5791 -96.37,-31.5791c-57.49,0 -129.06,144.6759 -213.6,144.6759c-84.534,0 -139.764,-16.891 -170.197,-16.891c-30.433,0 -39.45,22.766 -68.756,22.766c-29.306,0 -46.213,-48.47 -94.117,-48.47c-47.904,0 -128.495,118.238 -151.601,118.238c-23.107,0 -21.979,-27.907 -64.248,-27.907c-42.268,0 -79.463,52.142 -134.13,91.065z"/>
  <rect x="0" id="svg_2" fill="#E0E5CD" height="46" width="1440" y="526"/>
  <path id="svg_3" fill="#3C400C" d="m92,521.552l-92,0l0,49.448l1440,0c-0.19,-80.672 -0.46,-246.614 0,-265c-37.47,0 -61.68,160.532 -95.12,160.532c-33.43,0 -5.18,-87.405 -42.65,-87.405c-31.13,0 -35.74,59.895 -74.37,59.895c-38.62,0 -21.32,-44.921 -65.14,-44.921c-43.81,0 -92.8,82.53 -129.12,82.53c-36.318,0 -35.742,-37.609 -91.658,-37.609c-70.327,0 -159.678,65.815 -194.842,65.815c-28.823,0 -35.164,-28.206 -92.809,-28.206c-61.681,0 -95.692,82.529 -155.067,82.529c-59.375,0 -54.763,-114.218 -100.303,-114.218c-45.54,0 -58.222,36.564 -111.833,36.564c-53.61,0 -83.586,43.18 -123.361,43.18c-9.8,0 -50.227,-3.134 -71.727,-3.134z"/>
  <path id="svg_4" d="m-2,723" opacity="NaN" stroke="null" fill="#E6C9C9"/>
</svg>
