<svg width="406" height="228" viewBox="0 0 406 228" fill="none" xmlns="http://www.w3.org/2000/svg">
<g style="mix-blend-mode:multiply">
<path d="M92.3346 87.2653C96.7924 141.559 178.737 140.16 181.768 85.7656C182.394 74.5168 180.065 61.0432 173.127 45.0199C150.312 -7.72426 88.4277 39.9955 92.3346 87.2653Z" fill="#EFDDC7"/>
</g>
<g style="mix-blend-mode:multiply">
<path d="M118.356 202.603C118.356 202.603 153.418 247.948 251.466 215.101C349.514 182.255 352.169 118.962 335.865 51.4693C326.574 12.9736 236.94 -28.8219 211.796 27.5219C202.844 47.5198 198.169 69.1619 198.071 91.065C197.901 102.176 194.053 112.918 187.127 121.618C180.2 130.317 170.584 136.485 159.779 139.16C128.599 147.084 96.0412 164.532 118.356 202.603Z" fill="#E6C9C9"/>
</g>
<path d="M1 41C1 41 106 65.9927 190.358 65.9927" stroke="#513011" stroke-width="2" stroke-linecap="round" stroke-linejoin="round"/>
<path d="M404.5 130.461C404.5 130.461 393.141 180.13 352.845 159.757C312.549 139.385 292.864 168.231 270.775 171.056C248.686 173.881 234.361 171.456 215.277 139.435C203.306 119.412 199.273 118.437 195.241 120.937C192.737 122.536 192.136 126.636 198.397 131.46C206.01 137.31 226.271 157.708 238.793 162.957C253.419 168.981 266.042 166.957 237.591 130.461C209.141 93.9647 210.418 108.113 214.576 114.262C230.629 137.985 244.904 147.509 255.498 152.083C257.19 152.8 259.048 153.039 260.867 152.772C262.686 152.506 264.396 151.745 265.811 150.573C267.225 149.401 268.29 147.864 268.887 146.128C269.484 144.393 269.592 142.527 269.197 140.735C262.11 111.138 233.259 92.0148 221.889 85.5155C220.569 84.7607 219.05 84.4234 217.535 84.5484C216.019 84.6734 214.576 85.2548 213.398 86.2155L185.85 108.963C180.742 113.231 175.029 116.719 168.895 119.312C146.505 128.561 150.562 111.813 150.562 111.813C159.478 95.3645 188.104 70.2172 196.769 62.7181C198.385 61.3256 200.422 60.5157 202.554 60.4184L221.638 59.5185C277.039 56.1918 346 75.9999 402 56.9999" stroke="#513011" stroke-width="2" stroke-linecap="round" stroke-linejoin="round"/>
<path d="M44.1245 128.836C44.1245 128.836 67.2904 132.885 77.4334 123.836C87.5763 114.787 73.7769 97.4891 65.6625 107.213C57.5482 116.937 72.5749 136.01 85.9735 142.909C99.3722 149.808 140.395 146.959 140.395 146.959C147.594 148.464 154.22 151.974 159.503 157.083C167.217 165.207 206.537 198.803 207.088 177.355C207.488 159.532 173.904 130.136 171.475 136.61C169.045 143.084 204.032 181.78 228.225 176.605C228.225 176.605 239.42 173.906 222.239 151.333" stroke="#513011" stroke-width="2" stroke-linecap="round" stroke-linejoin="round"/>
<path d="M93.5 146C93.5 146 70.7966 168.981 74.453 179.93C78.1095 190.879 94.6638 174.256 94.6638 174.256L120.5 148" stroke="#513011" stroke-width="2" stroke-linecap="round" stroke-linejoin="round"/>
<path d="M130.978 147.434L93.186 185.205C92.2527 186.092 91.6153 187.244 91.3599 188.505C91.1046 189.766 91.2438 191.074 91.7586 192.254C93.2362 195.378 97.7942 197.253 111.068 188.854C126.318 178.694 140.573 167.119 153.643 154.283" stroke="#513011" stroke-width="2" stroke-linecap="round" stroke-linejoin="round"/>
<path d="M159.503 159.757C159.503 159.757 120.635 185.73 119.958 197.478C119.583 203.953 126.295 202.678 132.481 200.228C137.427 198.217 142.07 195.534 146.28 192.254L173.128 171.756" stroke="#513011" stroke-width="2" stroke-linecap="round" stroke-linejoin="round"/>
<path d="M195.517 184.755C195.517 184.755 166.466 206.727 155.447 206.727C144.427 206.727 152.516 191.854 178.963 174.356" stroke="#513011" stroke-width="2" stroke-linecap="round" stroke-linejoin="round"/>
<path d="M153.718 106.738C153.718 106.738 150.963 119.937 164.688 109.463C167.536 107.367 169.866 104.648 171.5 101.514C173.603 97.3643 174.204 92.4898 163.986 94.0147" stroke="#242E35" stroke-width="2" stroke-linecap="round" stroke-linejoin="round"/>
</svg>
