<svg width="172" height="131" viewBox="0 0 172 131" fill="none" xmlns="http://www.w3.org/2000/svg">
<path d="M87.6613 13.9186L25.7847 49.6431C24.4264 50.4273 24.4582 52.3985 25.8409 53.1385L89.4035 87.1569C90.7546 87.88 92.3837 86.8772 92.3466 85.3452L90.6608 15.6023C90.6241 14.0846 88.9761 13.1595 87.6613 13.9186Z" fill="#E6C9C9"/>
<path d="M82.4118 96.2499L117.225 116.293L117.225 89.3555L117.556 71.7336M42.5184 73.5054L23.9089 62.4175L117.225 8.5415L117.315 17.6446" stroke="#242E35" stroke-width="2" stroke-linecap="round" stroke-linejoin="round"/>
<path d="M117.173 88.1528C132.98 87.4764 149.354 78.0229 153.574 57.2766C157.795 36.5304 139.955 39.7864 137.075 55.5339C134.608 69.0161 146.602 173.281 107.627 102.114C68.6515 30.9479 26.9753 83.1834 35.1328 114.39C36.628 113.232 58.8206 107.47 82.4096 96.2509" stroke="#242E35" stroke-width="2" stroke-linecap="round" stroke-linejoin="round"/>
<path d="M88.7441 56.9688L114.127 76.003L133.239 50.5167" stroke="#242E35" stroke-width="2" stroke-linecap="round" stroke-linejoin="round"/>
<path d="M93.2605 50.1185C94.2917 51.3875 93.7564 52.7624 93.3599 53.2912L111.207 66.6746C112.159 65.4055 113.653 65.6169 114.281 65.8812L135.397 37.722C134.128 36.7703 134.603 35.4747 135 34.9459L117.153 21.5625C116.201 22.8316 114.905 22.3558 114.377 21.9593L93.2605 50.1185Z" stroke="#242E35" stroke-width="2" stroke-linecap="round" stroke-linejoin="round"/>
<line x1="104.8" y1="47.2133" x2="114.902" y2="33.7422" stroke="#C6D3DD" stroke-width="2" stroke-linecap="round" stroke-linejoin="round"/>
<line x1="106.396" y1="54.6039" x2="122.445" y2="33.2007" stroke="#C6D3DD" stroke-width="2" stroke-linecap="round" stroke-linejoin="round"/>
<line x1="109.566" y1="56.9828" x2="125.615" y2="35.5796" stroke="#C6D3DD" stroke-width="2" stroke-linecap="round" stroke-linejoin="round"/>
<path d="M31.6272 23.1424L32.5086 22.812L37.6992 36.6599C41.0844 45.6911 41.4181 55.5227 42.0249 62.5053C42.6317 69.4879 43.5096 78.0856 45.4491 85.942C47.3887 93.7984 56.5074 115.444 58.0424 118.645C59.2705 121.206 61.4609 120.912 62.4027 120.444L82.0874 113.066C86.3182 111.48 86.4278 109.15 85.9537 108.183C84.1184 102.691 79.7709 89.9006 77.0628 82.6756C73.6776 73.6444 69.0491 65.7659 60.8289 55.457C54.2528 47.2099 49.1327 37.0665 47.3947 33.0257L42.2041 19.1778L43.0855 18.8475L41.7314 15.235L41.1438 15.4552L40.0154 12.4448C40.0154 12.4448 37.7082 12.2797 34.6823 13.4139C31.6564 14.5481 30.0262 16.1891 30.0262 16.1891L31.1546 19.1995L30.2731 19.5299L31.6272 23.1424Z" stroke="#242E35" stroke-width="2" stroke-linecap="round" stroke-linejoin="round"/>
<path d="M41.7713 54.6483C41.7713 54.6483 47.425 56.6445 50.2732 55.6206C53.1215 54.5967 55.7278 49.6314 55.7278 49.6314" stroke="#242E35" stroke-width="2" stroke-linecap="round" stroke-linejoin="round"/>
<circle cx="61.8653" cy="86.2797" r="8.53871" transform="rotate(-30 61.8653 86.2797)" fill="#FAE8D1"/>
</svg>
