<svg width="152" height="92" viewBox="0 0 152 92" fill="none" xmlns="http://www.w3.org/2000/svg">
<rect x="55.0508" y="38.0059" width="37.0072" height="43.8243" rx="2" fill="#FAE8D1"/>
<rect x="12.1992" y="29.2422" width="37.0072" height="52.5891" rx="2" fill="#FAE8D1"/>
<rect x="97.9004" y="8.79102" width="37.0072" height="73.0405" rx="2" fill="#FAE8D1"/>
<path d="M144.647 87.9199C144.647 87.9199 59.4332 87.9199 40.4427 86.4591C21.4522 84.9983 3.43555 87.9199 3.43555 87.9199L3.43555 6.60156" stroke="#242E35" stroke-width="2" stroke-linecap="round"/>
<path d="M139.777 84.998C141.725 84.998 151.95 86.9458 150.003 87.4327C148.444 87.8223 142.536 89.8674 139.777 90.8413" stroke="#242E35" stroke-width="2" stroke-linecap="round"/>
<path d="M3.92188 87.433C11.8752 53.9967 32.2616 3.77732 42.3899 25.5921C55.0502 52.8605 51.1547 70.8772 63.3281 60.1646C75.5015 49.452 84.2664 33.3831 98.8745 53.3475C113.483 73.3119 130.525 84.0245 133.447 84.0245" stroke="#242E35" stroke-width="2" stroke-linecap="round" stroke-dasharray="4 4"/>
<path d="M4.89453 86.9461C19.9896 66.1701 48.2319 32.8961 59.4314 37.7655C71.0418 42.8135 70.6309 69.4163 85.239 69.4163C102.365 69.4163 111.534 84.9984 123.707 84.5115" stroke="#242E35" stroke-width="2" stroke-linecap="round" stroke-dasharray="4 4"/>
<path d="M5 88C11.7543 64.2726 30 27 59 28C77.6735 28 97.6284 31.5094 109.945 31.5094C116.88 31.5094 131.5 29.0094 139 22.5" stroke="#242E35" stroke-width="2" stroke-linecap="round"/>
<path d="M1 11.4711C1 9.52334 2.94775 -0.702321 3.43468 1.24542C3.82423 2.80362 5.86936 8.71178 6.84324 11.4711" stroke="#242E35" stroke-width="2" stroke-linecap="round"/>
</svg>

