<svg width="172" height="131" viewBox="0 0 172 131" fill="none" xmlns="http://www.w3.org/2000/svg">
<path d="M85.548 5L91.2503 12.4129L99.7443 8.49909L101.348 17.7129L110.688 18.1947L107.827 27.0987L115.873 31.8658L109.202 38.4201L114.111 46.3804L105.158 49.0835L105.805 58.4135L96.6211 56.6461L92.8586 65.2083L85.548 59.3754L78.2374 65.2083L74.4748 56.6461L65.2909 58.4135L65.9384 49.0835L56.9851 46.3804L61.8943 38.4201L55.2227 31.8658L63.269 27.0987L60.4075 18.1947L69.7475 17.7129L71.3516 8.49909L79.8457 12.4129L85.548 5Z" fill="#E0E5CD"/>
<path d="M68.5117 32.0794C68.5117 31.9405 68.5117 31.7375 68.5117 31.4703C68.5117 31.1925 68.5384 30.92 68.5919 30.6528C68.6453 30.375 68.7308 30.1345 68.8483 29.9315C68.9659 29.7285 69.1475 29.627 69.3933 29.627C69.5322 29.627 69.6444 29.7498 69.7299 29.9956C69.8261 30.2307 69.9009 30.5299 69.9543 30.8933C70.0185 31.2459 70.0612 31.6413 70.0826 32.0794C70.1146 32.5069 70.136 32.9129 70.1467 33.2976C70.1681 33.6823 70.1841 34.0189 70.1948 34.3075C70.2055 34.5853 70.2215 34.7563 70.2429 34.8204C70.2749 34.9914 70.3337 35.2478 70.4192 35.5898C70.5154 35.9317 70.6169 36.3218 70.7237 36.7599C70.8306 37.1874 70.9481 37.6362 71.0764 38.1064C71.2046 38.5766 71.3222 39.0254 71.429 39.4528C71.5466 39.8803 71.6534 40.265 71.7496 40.6069C71.8458 40.9489 71.9206 41.1947 71.974 41.3443C71.974 41.3656 71.9794 41.3977 71.99 41.4404C72.0007 41.4832 72.0061 41.5152 72.0061 41.5366C72.0061 41.6542 71.9633 41.7503 71.8778 41.8251C71.803 41.8892 71.7069 41.9427 71.5893 41.9854C71.4825 42.0175 71.3702 42.0389 71.2527 42.0495C71.1352 42.0602 71.0283 42.0656 70.9321 42.0656C70.8894 42.0656 70.8253 42.0602 70.7398 42.0495C70.665 42.0389 70.6169 42.0335 70.5955 42.0335C70.3711 41.2855 70.1307 40.5001 69.8742 39.6772C69.6284 38.8437 69.404 37.9995 69.201 37.1446C68.9979 36.2897 68.8323 35.4348 68.7041 34.58C68.5758 33.7144 68.5117 32.8809 68.5117 32.0794Z" fill="#242E35"/>
<path d="M72.3767 36.3432C72.3767 35.905 72.4141 35.4402 72.4889 34.9486C72.5637 34.4571 72.6812 33.9762 72.8415 33.506C73.0018 33.0358 73.2048 32.587 73.4506 32.1596C73.6964 31.7321 73.9849 31.3581 74.3162 31.0375C74.6475 30.7062 75.0215 30.4498 75.4382 30.2681C75.8657 30.0758 76.3412 29.9796 76.8648 29.9796C77.5915 29.9796 78.2326 30.0971 78.7883 30.3322C79.3547 30.5673 79.8249 30.8986 80.1989 31.326C80.5836 31.7535 80.8721 32.2664 81.0645 32.8648C81.2568 33.4526 81.353 34.0991 81.353 34.8044C81.353 35.2959 81.3049 35.8302 81.2087 36.4073C81.1125 36.9843 80.9576 37.556 80.7439 38.1224C80.5408 38.6781 80.2844 39.2124 79.9745 39.7253C79.6646 40.2382 79.3066 40.6924 78.9005 41.0878C78.4945 41.4832 78.0296 41.7984 77.506 42.0335C76.9931 42.2686 76.4374 42.3862 75.839 42.3862C75.3047 42.3862 74.8452 42.29 74.4605 42.0976C74.0864 41.9053 73.7712 41.6488 73.5147 41.3282C73.2583 41.0076 73.0552 40.639 72.9056 40.2222C72.756 39.7948 72.6385 39.362 72.553 38.9239C72.4782 38.475 72.4301 38.0262 72.4087 37.5774C72.3874 37.1286 72.3767 36.7172 72.3767 36.3432ZM73.7391 37.0645C73.7391 37.4919 73.7605 37.9407 73.8033 38.4109C73.846 38.8704 73.9529 39.2979 74.1238 39.6933C74.2948 40.078 74.5406 40.3985 74.8612 40.655C75.1818 40.9008 75.6199 41.0237 76.1756 41.0237C76.6351 41.0237 77.0465 40.9168 77.4098 40.7031C77.7731 40.4787 78.0937 40.1902 78.3716 39.8375C78.6494 39.4849 78.8898 39.0895 79.0929 38.6514C79.3066 38.2025 79.4776 37.7484 79.6058 37.2889C79.734 36.8294 79.8302 36.3859 79.8943 35.9585C79.9584 35.531 79.9905 35.1517 79.9905 34.8204C79.9905 34.3395 79.9531 33.8854 79.8783 33.4579C79.8035 33.0305 79.6699 32.6618 79.4776 32.3519C79.2852 32.042 79.0181 31.8016 78.6761 31.6306C78.3342 31.4489 77.88 31.3581 77.3136 31.3581C76.8435 31.3581 76.4267 31.4489 76.0634 31.6306C75.7107 31.8123 75.4008 32.0527 75.1337 32.3519C74.8665 32.6511 74.6421 32.9984 74.4605 33.3938C74.2895 33.7785 74.1506 34.1846 74.0437 34.612C73.9368 35.0395 73.8567 35.4669 73.8033 35.8943C73.7605 36.3111 73.7391 36.7011 73.7391 37.0645Z" fill="#242E35"/>
<path d="M82.0762 36.3432C82.0762 35.905 82.1136 35.4402 82.1884 34.9486C82.2632 34.4571 82.3808 33.9762 82.5411 33.506C82.7014 33.0358 82.9044 32.587 83.1502 32.1596C83.396 31.7321 83.6845 31.3581 84.0157 31.0375C84.347 30.7062 84.721 30.4498 85.1378 30.2681C85.5652 30.0758 86.0408 29.9796 86.5644 29.9796C87.291 29.9796 87.9322 30.0971 88.4879 30.3322C89.0542 30.5673 89.5244 30.8986 89.8984 31.326C90.2831 31.7535 90.5717 32.2664 90.764 32.8648C90.9564 33.4526 91.0525 34.0991 91.0525 34.8044C91.0525 35.2959 91.0044 35.8302 90.9083 36.4073C90.8121 36.9843 90.6572 37.556 90.4434 38.1224C90.2404 38.6781 89.9839 39.2124 89.674 39.7253C89.3641 40.2382 89.0062 40.6924 88.6001 41.0878C88.194 41.4832 87.7292 41.7984 87.2055 42.0335C86.6926 42.2686 86.1369 42.3862 85.5385 42.3862C85.0042 42.3862 84.5447 42.29 84.16 42.0976C83.786 41.9053 83.4708 41.6488 83.2143 41.3282C82.9578 41.0076 82.7548 40.639 82.6052 40.2222C82.4556 39.7948 82.338 39.362 82.2525 38.9239C82.1777 38.475 82.1297 38.0262 82.1083 37.5774C82.0869 37.1286 82.0762 36.7172 82.0762 36.3432ZM83.4387 37.0645C83.4387 37.4919 83.4601 37.9407 83.5028 38.4109C83.5456 38.8704 83.6524 39.2979 83.8234 39.6933C83.9944 40.078 84.2402 40.3985 84.5607 40.655C84.8813 40.9008 85.3194 41.0237 85.8751 41.0237C86.3346 41.0237 86.746 40.9168 87.1094 40.7031C87.4727 40.4787 87.7933 40.1902 88.0711 39.8375C88.349 39.4849 88.5894 39.0895 88.7924 38.6514C89.0062 38.2025 89.1771 37.7484 89.3054 37.2889C89.4336 36.8294 89.5298 36.3859 89.5939 35.9585C89.658 35.531 89.6901 35.1517 89.6901 34.8204C89.6901 34.3395 89.6527 33.8854 89.5779 33.4579C89.5031 33.0305 89.3695 32.6618 89.1771 32.3519C88.9848 32.042 88.7176 31.8016 88.3757 31.6306C88.0337 31.4489 87.5796 31.3581 87.0132 31.3581C86.543 31.3581 86.1262 31.4489 85.7629 31.6306C85.4103 31.8123 85.1004 32.0527 84.8332 32.3519C84.5661 32.6511 84.3417 32.9984 84.16 33.3938C83.989 33.7785 83.8501 34.1846 83.7432 34.612C83.6364 35.0395 83.5562 35.4669 83.5028 35.8943C83.4601 36.3111 83.4387 36.7011 83.4387 37.0645Z" fill="#242E35"/>
<path d="M95.4144 41.0076C95.5106 40.7512 95.6174 40.3291 95.735 39.7413C95.8525 39.1536 95.9861 38.4857 96.1357 37.7377C96.296 36.979 96.4723 36.1936 96.6647 35.3814C96.857 34.5586 97.0707 33.7945 97.3058 33.0892C97.5409 32.384 97.7974 31.7802 98.0752 31.278C98.3531 30.765 98.663 30.4498 99.0049 30.3322C99.4858 30.3322 99.7262 30.578 99.7262 31.0696C99.7049 31.2619 99.6514 31.5772 99.5659 32.0153C99.4911 32.4427 99.3896 32.9343 99.2614 33.49C99.1438 34.0457 99.0049 34.6494 98.8446 35.3013C98.6843 35.9424 98.5134 36.5943 98.3317 37.2568C98.15 37.9087 97.963 38.5445 97.7707 39.1643C97.5783 39.7734 97.386 40.3237 97.1936 40.8153C97.0013 41.2962 96.8143 41.6969 96.6326 42.0175C96.4509 42.3274 96.28 42.509 96.1197 42.5625C95.9701 42.6266 95.8311 42.5411 95.7029 42.306C95.5854 42.0602 95.4892 41.6274 95.4144 41.0076ZM98.6362 39.4528C98.6362 39.0788 98.7431 38.7689 98.9568 38.5231C99.1706 38.2773 99.4324 38.0797 99.7423 37.93C100.052 37.7804 100.378 37.6789 100.72 37.6255C101.073 37.5721 101.383 37.5453 101.65 37.5453C102.205 37.5453 102.595 37.6629 102.82 37.898C103.055 38.1224 103.172 38.5071 103.172 39.0521C103.172 39.8749 102.943 40.5321 102.483 41.0237C102.024 41.5045 101.372 41.745 100.528 41.745C100.293 41.745 100.057 41.6702 99.8224 41.5206C99.598 41.371 99.395 41.184 99.2133 40.9596C99.0423 40.7245 98.9034 40.4733 98.7965 40.2062C98.6897 39.939 98.6362 39.6879 98.6362 39.4528ZM101.826 38.8437C101.441 38.7796 101.121 38.7475 100.864 38.7475C100.608 38.7475 100.426 38.7956 100.319 38.8918C100.212 38.988 100.18 39.1429 100.223 39.3566C100.266 39.5597 100.399 39.8322 100.624 40.1741C100.955 40.3558 101.212 40.4466 101.393 40.4466C101.586 40.4466 101.725 40.3772 101.81 40.2382C101.896 40.0886 101.933 39.8963 101.922 39.6612C101.922 39.4154 101.89 39.1429 101.826 38.8437ZM91.7758 34.1792C91.7758 33.8373 91.8132 33.4846 91.888 33.1213C91.9628 32.7473 92.0857 32.4107 92.2566 32.1115C92.4383 31.8016 92.6734 31.5505 92.9619 31.3581C93.2505 31.1658 93.6031 31.0696 94.0199 31.0696C94.2336 31.0696 94.4366 31.123 94.629 31.2299C94.8213 31.326 94.9869 31.4596 95.1259 31.6306C95.2755 31.8016 95.393 31.9939 95.4785 32.2076C95.564 32.4107 95.6067 32.6084 95.6067 32.8007C95.6067 33.0892 95.5106 33.3778 95.3182 33.6663C95.1259 33.9548 94.8908 34.2166 94.6129 34.4517C94.3351 34.6761 94.0359 34.8578 93.7153 34.9967C93.3947 35.1356 93.0955 35.2051 92.8177 35.2051C92.5291 35.2051 92.2834 35.1089 92.0803 34.9166C91.8773 34.7242 91.7758 34.4784 91.7758 34.1792ZM94.3084 32.3198C93.9237 32.2557 93.6031 32.2237 93.3466 32.2237C93.0902 32.2237 92.9085 32.2718 92.8016 32.3679C92.6948 32.4641 92.6627 32.6191 92.7055 32.8328C92.7482 33.0358 92.8818 33.3137 93.1062 33.6663C93.4375 33.848 93.6939 33.9388 93.8756 33.9388C94.0679 33.9281 94.2069 33.8533 94.2923 33.7144C94.3778 33.5755 94.4152 33.3831 94.4046 33.1373C94.4046 32.8916 94.3725 32.6191 94.3084 32.3198Z" fill="#242E35"/>
<path d="M20.3571 29.852C21.9627 29.781 22.6336 31.6232 24.4421 32.4301C25.889 33.0756 29.0174 35.4694 30.4008 36.5856L46.0941 48.2783" stroke="#242E35" stroke-width="2" stroke-linecap="round" stroke-linejoin="round"/>
<path d="M41.614 52.6461C43.7351 54.4777 48.4663 59.0221 50.4225 62.547C52.8677 66.9531 60.2033 80.1714 63.2856 83.3313C61.4203 79.148 66.2862 71.0906 66.5565 84.5471C66.9182 89.7742 67.6762 88.3186 68.0869 86.9482C72.399 72.5608 76.3083 76.5558 75.7355 79.672C75.1627 82.7882 72.6893 99.6276 74.9898 91.9521C77.8646 82.3605 86.0181 72.4613 87.8675 77.5587C89.7169 82.6562 81.5525 92.9943 81.1961 98.476C80.8398 103.958 85.0805 99.1391 88.3949 91.6277C91.654 84.2419 97.3496 84.8233 92.6752 96.127C88.9356 105.17 91.2125 107.804 93.0215 108.654C99.3885 113.346 105.244 118.042 112.347 123.677" stroke="#242E35" stroke-width="2" stroke-linecap="round" stroke-linejoin="round"/>
<path d="M21.1178 30.1342C22.3892 27.9774 25.3697 23.6713 27.1205 23.701C28.4867 24.6528 30.3981 25.4737 30.0592 26.7645C29.7202 28.0552 46.4288 39.4998 52.723 42.9532C59.0173 46.4066 83.1919 50.812 92.3092 57.9051C92.9932 58.6241 79.0853 59.7713 80.3037 63.7549C80.9128 65.7467 83.9418 67.5793 92.0902 66.6845C98.6088 65.9686 103.297 66.5942 104.826 66.9965C116.029 75.4513 132.278 87.593 141.209 94.2501C143.022 95.6241 146.55 98.8717 146.149 100.869C145.648 103.366 137.698 114.724 132.025 121.303C126.353 127.882 123.14 131.157 120.054 129.422C117.586 128.035 114.651 125.441 113.493 124.318C114.62 123.344 117.961 119.999 122.309 114.41C127.744 107.424 139.237 93.4053 140.317 87.0286C140.974 80.731 134.454 86.1231 132.877 89.0047C131.301 91.8864 120.272 106.338 112.206 116.386C103.014 109.13 96.9284 105.113 98.4133 105.51C115.138 81.5711 122.422 91.0586 130.926 79.2084C139.429 67.3582 129.468 52.7692 98.2573 57.5164" stroke="#242E35" stroke-width="2" stroke-linecap="round" stroke-linejoin="round"/>
<path d="M26.5783 23.8904C25.9857 23.2809 24.6346 22.1332 23.9711 22.4187C23.1417 22.7754 21.3952 24.3111 19.4527 26.8079C17.5103 29.3047 16.5738 31.3595 16.633 31.8509C16.6922 32.3423 17.9592 33.5507 18.4109 33.6794C18.4309 34.3629 19.644 35.6407 20.8127 36.55C21.7477 37.2774 22.0697 37.1567 22.1138 37.0055C26.8099 40.4734 34.8434 47.8359 37.2675 50.1671C41.1914 53.7765 32.0608 52.0008 34.6011 47.7425C37.1415 43.4842 58.6752 34.7933 53.8123 25.5014" stroke="#242E35" stroke-width="2" stroke-linecap="round" stroke-linejoin="round"/>
</svg>
