<svg width="322" height="362" viewBox="0 0 322 362" fill="none" xmlns="http://www.w3.org/2000/svg">
<g style="mix-blend-mode:multiply" opacity="0.6">
<path d="M92.262 70.2357C91.5431 85.2646 100.321 99.4975 114.528 104.349C123.485 107.414 133.289 106.802 141.796 102.647C150.304 98.4921 156.824 91.1321 159.931 82.1755C162.561 74.5948 148.429 63.432 132.897 68.0942C129.804 68.976 126.526 68.9769 123.431 68.0965C120.337 67.2161 117.549 65.4892 115.38 63.1098C106.583 53.6149 93.4916 44.1769 92.262 70.2357Z" fill="#E6C9C9"/>
</g>
<path d="M108.97 133.602L114.892 116.545L127.756 115.105C138.529 113.599 148.486 108.515 156.032 100.666C163.578 92.8181 168.276 82.6599 169.375 71.8187L174.577 20.6486L150.571 12.2718L145.255 10.3766L121.248 2L93.5903 45.3996C90.6652 50.3406 88.3588 55.6239 86.7231 61.1298" stroke="#3C400C" stroke-width="2" stroke-linecap="round" stroke-linejoin="round"/>
<path d="M78.9289 201.525C61.6381 196.503 45.2174 200.729 41.4528 211.551C37.48 222.922 49.1334 237.439 67.4647 243.769C85.7961 250.099 103.882 246.157 107.835 234.786C111.619 223.964 101.347 210.452 84.68 203.61L79.0046 201.715C85.2475 190.211 111.165 195.214 119.564 194.286C127.964 193.357 128.304 180.432 102.86 182.517C77.4155 184.602 63.965 173.496 73.2347 170.672C80.6126 168.436 109.027 173.685 120.34 175.921C121.129 176.077 121.942 176.074 122.73 175.912C123.518 175.75 124.266 175.432 124.93 174.976C125.595 174.521 126.161 173.938 126.598 173.26C127.034 172.583 127.331 171.826 127.472 171.032C127.747 169.072 127.429 167.074 126.559 165.297C125.689 163.52 124.307 162.045 122.591 161.063C119.974 159.299 116.941 158.253 113.794 158.031C102.879 157.064 62.8299 157.235 74.2752 150.336C79.0803 147.456 89.4094 148.82 97.3549 149.73C103.1 150.439 108.789 151.547 114.381 153.047C117.676 154.003 121.09 154.481 124.521 154.468C125.57 154.405 126.586 154.08 127.478 153.524C128.37 152.968 129.11 152.198 129.63 151.284C130.15 150.369 130.435 149.34 130.458 148.287C130.481 147.235 130.241 146.194 129.761 145.257C122.307 131.119 90.885 132.465 76.3372 129.281C60.276 125.775 67.9377 115.617 67.9377 115.617C67.9377 115.617 87.0825 98.5597 92.72 81.1619C98.3575 63.7641 82.126 55.9371 76.8669 69.9615C71.6078 83.9859 72.5536 89.9936 34.491 107.316C-3.5716 124.638 2.33075 152.042 2.33075 152.042" stroke="#3C400C" stroke-width="2" stroke-linecap="round" stroke-linejoin="round"/>
<path d="M89.5039 89.7851C91.8183 95.5367 95.2087 100.792 99.4925 105.269L109.141 114.555L102.917 132.446" stroke="#3C400C" stroke-width="2" stroke-linecap="round" stroke-linejoin="round"/>
<path d="M78.9291 201.525L75.7509 210.66C75.2756 212.007 75.0812 213.437 75.1797 214.862C75.2782 216.288 75.6675 217.677 76.3236 218.946C76.9797 220.214 77.8886 221.334 78.994 222.236C80.0995 223.139 81.378 223.804 82.7505 224.192C89.6744 226.087 98.8685 226.864 106.379 221.501" stroke="#3C400C" stroke-width="2" stroke-linecap="round" stroke-linejoin="round"/>
<path d="M121.188 1.89532L124.082 5.496C129.469 12.1962 136.623 17.2488 144.732 20.0796C152.842 22.9104 161.581 23.4063 169.958 21.5105L174.517 20.487" stroke="#242E35" stroke-width="2" stroke-linecap="round" stroke-linejoin="round"/>
<path d="M227.543 162.418L243.056 189.974" stroke="#242E35" stroke-width="2" stroke-linecap="round" stroke-linejoin="round"/>
<path d="M247.562 188.998L232.428 160.324L239.484 151.701C245.229 144.296 248.326 135.173 248.278 125.795C248.23 116.417 245.04 107.327 239.22 99.9812L211.713 65.2991L167.748 85.9188" stroke="#3C400C" stroke-width="2" stroke-linecap="round" stroke-linejoin="round"/>
<path d="M270.661 249.512C257.002 256.827 249.416 269.297 253.635 278.224C258.043 287.7 273.858 289.595 288.974 282.469C304.089 275.343 312.791 261.982 308.383 252.563C304.202 243.636 289.806 241.476 275.447 247.294" stroke="#3C400C" stroke-width="2" stroke-linecap="round" stroke-linejoin="round"/>
<path d="M270.661 249.512L274.18 257.092C274.693 258.209 275.431 259.209 276.346 260.029C277.261 260.849 278.334 261.471 279.5 261.859C280.665 262.246 281.897 262.39 283.12 262.28C284.343 262.171 285.53 261.812 286.609 261.224C292 258.21 298.13 253.169 299.529 245.361" stroke="#3C400C" stroke-width="2" stroke-linecap="round" stroke-linejoin="round"/>
<g style="mix-blend-mode:multiply" opacity="0.6">
<path d="M243.018 125.499C243.47 131.805 241.871 138.088 238.461 143.407C235.05 148.726 230.012 152.796 224.1 155.007C216.425 157.707 207.996 157.256 200.652 153.751C193.308 150.247 187.646 143.974 184.903 136.302C182.576 129.801 194.645 120.098 208.039 123.983C210.705 124.724 213.524 124.703 216.178 123.922C218.833 123.142 221.216 121.634 223.06 119.568C230.589 111.304 241.751 103.098 243.018 125.499Z" fill="#E6C9C9"/>
</g>
<path d="M295.103 278.982C295.103 278.982 334.944 253.492 314.267 213.56C314.267 213.56 298.376 183.881 217.786 191.841C217.195 191.895 216.627 192.097 216.135 192.428C215.642 192.759 215.24 193.209 214.967 193.736C214.406 194.84 214.213 196.095 214.417 197.316C214.622 198.538 215.212 199.661 216.102 200.521C217.004 201.5 218.098 202.283 219.315 202.821C220.532 203.359 221.847 203.64 223.177 203.648L257.229 203.193C257.517 203.198 257.796 203.29 258.031 203.455C258.266 203.621 258.446 203.854 258.548 204.123C258.65 204.392 258.669 204.686 258.602 204.966C258.536 205.246 258.387 205.5 258.175 205.695C256.964 206.756 246.825 209.485 242.417 210.054C229.042 211.74 217.369 214.868 218.902 221.122C220.434 227.376 252.367 217.729 252.367 217.729C255.018 216.812 257.757 216.177 260.54 215.834C261.366 215.748 262.194 215.982 262.853 216.488C263.513 216.994 263.955 217.733 264.088 218.554C264.221 219.376 264.035 220.217 263.569 220.906C263.103 221.594 262.391 222.079 261.58 222.259C252.122 224.306 234.641 228.418 232.977 231.299C230.688 235.298 235.663 239.524 246.389 236.833C254.789 234.729 267.426 230.977 272.496 229.442C272.889 229.316 273.309 229.297 273.712 229.387C274.115 229.478 274.486 229.673 274.789 229.955C275.091 230.237 275.313 230.594 275.432 230.99C275.551 231.386 275.563 231.807 275.466 232.209C274.906 233.692 273.832 234.923 272.439 235.677C267.067 239.126 247.676 239.714 248.187 246.707C248.697 253.7 275.334 247.162 275.334 247.162" stroke="#3C400C" stroke-width="2" stroke-linecap="round" stroke-linejoin="round"/>
<path d="M227.661 162.541C227.661 162.541 182.466 173.912 174.691 119.312L167.786 85.9188L171.721 86.3926C179.05 87.2715 186.478 86.0777 193.165 82.946C199.851 79.8143 205.53 74.8699 209.556 68.6726L211.732 65.2991" stroke="#3C400C" stroke-width="2" stroke-linecap="round" stroke-linejoin="round"/>
<g style="mix-blend-mode:multiply">
<path d="M261.709 82.2135C261.714 76.9692 263.797 71.9415 267.5 68.235C271.204 64.5286 276.224 62.4465 281.459 62.4465C276.221 62.4465 271.197 60.3619 267.494 56.6513C263.79 52.9408 261.709 47.9082 261.709 42.6606C261.711 45.2581 261.203 47.8306 260.212 50.231C259.222 52.6314 257.769 54.8126 255.936 56.6502C254.104 58.4877 251.928 59.9454 249.533 60.94C247.138 61.9346 244.57 62.4465 241.978 62.4465C247.211 62.4465 252.229 64.5292 255.93 68.2362C259.63 71.9432 261.709 76.971 261.709 82.2135Z" fill="#C5D5E4"/>
</g>
<g style="mix-blend-mode:multiply">
<path d="M59.5343 72.3393C59.5343 67.313 61.5274 62.4925 65.0752 58.9384C68.6229 55.3842 73.4347 53.3874 78.4521 53.3874C73.4347 53.3874 68.6229 51.3907 65.0752 47.8365C61.5274 44.2823 59.5343 39.4619 59.5343 34.4355C59.5343 39.4619 57.5411 44.2823 53.9934 47.8365C50.4456 51.3907 45.6338 53.3874 40.6165 53.3874C45.6338 53.3874 50.4456 55.3842 53.9934 58.9384C57.5411 62.4925 59.5343 67.313 59.5343 72.3393Z" fill="#C5D5E4"/>
</g>
<g style="mix-blend-mode:multiply">
<path d="M282.821 115.588C282.821 113.482 283.235 111.397 284.039 109.452C284.844 107.507 286.023 105.739 287.509 104.25C288.995 102.761 290.759 101.581 292.701 100.775C294.643 99.9691 296.724 99.5542 298.826 99.5542C294.581 99.5542 290.51 97.8652 287.509 94.8584C284.507 91.8515 282.821 87.7733 282.821 83.521C282.821 87.7733 281.135 91.8515 278.134 94.8584C275.132 97.8652 271.061 99.5542 266.817 99.5542C268.918 99.5542 271 99.9691 272.941 100.775C274.883 101.581 276.647 102.761 278.134 104.25C279.62 105.739 280.799 107.507 281.603 109.452C282.407 111.397 282.821 113.482 282.821 115.588Z" fill="#C5D5E4"/>
</g>
<g style="mix-blend-mode:multiply">
<path d="M140.332 131.905C140.332 129.801 140.746 127.717 141.551 125.772C142.355 123.828 143.534 122.062 145.021 120.575C146.507 119.087 148.272 117.908 150.213 117.104C152.155 116.301 154.236 115.888 156.337 115.891C152.092 115.891 148.021 114.202 145.02 111.195C142.018 108.188 140.332 104.11 140.332 99.8575C140.332 104.11 138.646 108.188 135.644 111.195C132.643 114.202 128.572 115.891 124.328 115.891C126.428 115.888 128.509 116.301 130.451 117.104C132.392 117.908 134.157 119.087 135.643 120.575C137.13 122.062 138.309 123.828 139.113 125.772C139.918 127.717 140.332 129.801 140.332 131.905Z" fill="#C5D5E4"/>
</g>
<path d="M135.111 314.26V335.486C135.111 342.021 137.702 348.287 142.314 352.908C146.926 357.528 153.181 360.124 159.704 360.124C166.227 360.124 172.482 357.528 177.094 352.908C181.706 348.287 184.297 342.021 184.297 335.486V284.733" stroke="#3C400C" stroke-width="2" stroke-linecap="round" stroke-linejoin="round"/>
<path d="M184.358 255.633V227.319C184.336 220.306 181.627 213.57 176.791 208.5L170.075 201.45C168.531 199.824 167.671 197.666 167.672 195.423V164.664C167.672 163.659 167.274 162.695 166.564 161.984C165.855 161.273 164.892 160.874 163.889 160.874H157.778C156.775 160.874 155.813 161.273 155.103 161.984C154.393 162.695 153.995 163.659 153.995 164.664V195.233C153.993 196.437 153.743 197.626 153.261 198.728C152.779 199.831 152.076 200.821 151.195 201.639L143.893 208.443C141.152 210.995 138.966 214.086 137.472 217.523C135.978 220.96 135.208 224.669 135.209 228.418V252.298" stroke="#3C400C" stroke-width="2" stroke-linecap="round" stroke-linejoin="round"/>
<path d="M183.295 341.077C183.301 337.966 182.695 334.884 181.513 332.008C180.33 329.131 178.593 326.516 176.402 324.312C171.976 319.861 165.966 317.353 159.695 317.34C153.423 317.327 147.403 319.811 142.96 324.245C138.516 328.679 136.013 334.7 136 340.982" stroke="#3C400C" stroke-width="2" stroke-linecap="round" stroke-linejoin="round"/>
<path d="M135.228 314.384C136.2 311.109 138.102 308.188 140.702 305.977C143.301 303.766 146.487 302.361 149.871 301.933C160.559 300.492 181.199 306.746 179.042 297.327C178.73 296.145 178.09 295.076 177.196 294.244C176.302 293.413 175.19 292.852 173.991 292.627C167.256 291.244 159.632 291.414 153.181 288.363C152.278 287.946 151.532 287.25 151.052 286.378C150.572 285.505 150.384 284.501 150.515 283.514C150.647 282.526 151.09 281.606 151.781 280.89C152.472 280.173 153.374 279.697 154.354 279.531C158.138 278.925 164.475 279.531 174.577 283.151C184.301 286.752 189.522 283.151 184.717 276.366C181.388 271.666 169.243 270.34 163.492 270.321C154.903 270.321 146.844 269.828 150.079 264.18C154.543 256.372 176.261 265.147 182.977 268.388C183.74 268.785 184.595 268.975 185.455 268.939C186.314 268.902 187.149 268.64 187.877 268.179C189.976 266.758 191.206 263.403 184.301 255.633C172.761 242.689 147.828 242.367 130.404 256.941C112.981 271.515 104.241 294.844 111.354 317.587C118.467 340.329 130.877 345.597 142.928 353.595" stroke="#3C400C" stroke-width="2" stroke-linecap="round" stroke-linejoin="round"/>
<g style="mix-blend-mode:multiply">
<path d="M139.897 244.839C139.897 236.677 143.134 228.848 148.896 223.076C154.657 217.304 162.472 214.062 170.62 214.062C162.472 214.062 154.657 210.819 148.896 205.047C143.134 199.275 139.897 191.447 139.897 183.284C139.897 191.443 136.663 199.269 130.905 205.04C125.148 210.812 117.338 214.057 109.194 214.062C117.338 214.067 125.148 217.312 130.905 223.083C136.663 228.854 139.897 236.68 139.897 244.839Z" fill="#C5D5E4"/>
</g>
<g style="mix-blend-mode:multiply">
<path d="M207.869 263.09C207.874 258.761 209.594 254.61 212.652 251.551C215.709 248.491 219.854 246.773 224.176 246.773C222.035 246.775 219.915 246.355 217.937 245.536C215.959 244.717 214.161 243.515 212.646 242C211.132 240.484 209.93 238.685 209.11 236.704C208.291 234.723 207.869 232.6 207.869 230.455C207.871 232.599 207.452 234.721 206.634 236.702C205.816 238.683 204.617 240.483 203.104 241.999C201.591 243.515 199.794 244.716 197.817 245.536C195.839 246.355 193.72 246.775 191.581 246.773C195.9 246.773 200.043 248.492 203.098 251.552C206.153 254.612 207.869 258.762 207.869 263.09Z" fill="#C5D5E4"/>
</g>
<path d="M153.995 164.437C153.995 169.175 156.946 173.022 160.597 173.022C164.248 173.022 167.218 169.231 167.218 164.437" stroke="#3C400C" stroke-width="2" stroke-linecap="round" stroke-linejoin="round"/>
</svg>
