<svg width="139" height="128" viewBox="0 0 139 128" fill="none" xmlns="http://www.w3.org/2000/svg">
<g style="mix-blend-mode:multiply">
<path d="M12.4902 96.09V12.3641C12.4902 10.983 13.8567 10.0176 15.1584 10.479L42.2912 20.0968C43.0895 20.3797 43.623 21.1349 43.623 21.9818V107.226C43.623 108.649 42.1796 109.617 40.8636 109.077L13.7308 97.9402C12.9803 97.6322 12.4902 96.9013 12.4902 96.09Z" fill="#C5D5E4"/>
</g>
<g style="mix-blend-mode:multiply">
<path d="M130.957 109.486V28.9323C130.957 27.5541 129.596 26.5889 128.295 27.0451L101.971 36.2787C101.169 36.5599 100.633 37.3166 100.633 38.166V120.177C100.633 121.597 102.07 122.565 103.386 122.03L129.71 111.339C130.464 111.032 130.957 110.3 130.957 109.486Z" fill="#C5D5E4"/>
</g>
<ellipse cx="8.41128" cy="53.2512" rx="4.45829" ry="7.51428" transform="rotate(75 8.41128 53.2512)" fill="#E6C9C9" stroke="#242E35" stroke-width="2" stroke-linecap="round" stroke-linejoin="round"/>
<ellipse cx="18.9033" cy="77.05" rx="4.47814" ry="6.0988" transform="rotate(15 18.9033 77.05)" stroke="#242E35" stroke-width="2" stroke-linecap="round" stroke-linejoin="round"/>
<ellipse cx="124.437" cy="73.6322" rx="2.92399" ry="4.92828" transform="rotate(20.0598 124.437 73.6322)" fill="#E6C9C9" stroke="#242E35" stroke-width="2" stroke-linecap="round" stroke-linejoin="round"/>
<path d="M129.622 52.3981C126.516 50.893 124.723 48.1793 125.616 46.3368C126.509 44.4944 129.75 44.2209 132.856 45.726C135.961 47.2311 137.755 49.9448 136.862 51.7872C135.969 53.6297 132.727 53.9032 129.622 52.3981Z" stroke="#242E35" stroke-width="2" stroke-linecap="round" stroke-linejoin="round"/>
<ellipse cx="21.6743" cy="38.9119" rx="2.39312" ry="4.03351" transform="rotate(115.858 21.6743 38.9119)" stroke="#242E35" stroke-width="2" stroke-linecap="round" stroke-linejoin="round"/>
<g style="mix-blend-mode:multiply">
<path d="M45.9206 110.725L58.7853 106.368L73.7172 101.524C74.1353 101.388 74.5865 101.394 75.0009 101.54L101.067 110.752C102.833 111.376 102.85 113.867 101.092 114.514L75.0323 124.114C74.5988 124.273 74.1233 124.278 73.6867 124.127L45.9078 114.509C44.1071 113.886 44.1158 111.336 45.9206 110.725Z" fill="#C5D5E4"/>
</g>
<g style="mix-blend-mode:multiply">
<path d="M46.214 12.5435L59.1896 8.52274L73.7553 4.05895C74.15 3.93798 74.5725 3.94213 74.9647 4.07082L100.834 12.5576C102.635 13.1484 102.68 15.6795 100.901 16.3346L75.0323 25.8637C74.5988 26.0234 74.1233 26.0281 73.6867 25.8769L46.1516 16.3439C44.326 15.7118 44.3686 13.1153 46.214 12.5435Z" fill="#C5D5E4"/>
</g>
<circle cx="75.1586" cy="77.0551" r="7.27778" fill="#FAE8D1"/>
<path d="M58.9879 103.134L37.9176 110.785C36.1573 111.424 36.1624 113.915 37.9253 114.547L66.8423 124.913C72.388 126.901 78.4713 126.78 83.9334 124.573L112.118 113.182C112.874 112.877 113.369 112.143 113.369 111.328V14.6331C113.369 13.7631 112.807 12.9929 111.978 12.728L81.2595 2.9108C76.6292 1.431 71.6586 1.39214 67.0057 2.79937L34.1281 12.7428C33.2842 12.9981 32.707 13.7757 32.707 14.6572V69.1711M91.1314 103.134L104.171 107.905" stroke="#242E35" stroke-width="2" stroke-linecap="round" stroke-linejoin="round"/>
<path d="M86.0763 59.6699C84.6612 60.4112 84.0547 60.2764 79.2032 63.511C74.3518 66.7455 71.5211 64.9261 70.106 63.511C68.9739 62.3789 68.0169 61.3546 66.467 60.2764C64.9171 63.3762 61.1297 72.406 61.6149 78.8752C62.2213 86.9616 67.6797 87.5681 70.106 85.5465C72.5323 83.5249 70.9952 80.8159 68.8927 81.3011C66.2646 81.9076 61.6149 90.8026 68.8927 93.4307" stroke="#242E35" stroke-width="2" stroke-linecap="round" stroke-linejoin="round"/>
<path d="M83.3738 52.3909C80.2465 43.266 79.5102 29.7139 79.8997 28.5453C80.304 27.3323 81.3148 26.928 80.9105 25.3107C80.5062 23.6935 80.304 20.2567 80.9105 17.6286C81.517 15.0006 78.4846 15.0006 73.8349 14.7984C70.1152 14.6367 69.4548 16.6178 69.5895 17.6286C69.6569 19.5155 69.5896 23.6126 68.781 24.9064C67.9723 26.2002 69.5222 27.8714 70.3982 28.5453C70.9749 28.8117 73.0583 29.3446 76.778 29.3446C81.4277 29.3446 68.0616 51.3708 69.5895 52.3909C70.8119 53.207 79.2884 52.731 83.3738 52.3909ZM83.3738 52.3909C83.4927 52.7377 83.615 53.078 83.7408 53.411C87.1775 62.5083 91.0185 69.5839 91.0185 79.4898C91.0185 87.4144 91.0185 105.029 91.0185 112.846C91.0185 114.194 90.3716 116.97 87.784 117.294C84.5494 117.698 72.0155 119.518 62.7161 117.294C58.0664 115.879 59.2794 114.666 59.0772 113.453C58.9155 112.482 59.0098 90.4064 59.0772 79.4898C59.2119 76.1878 60.1283 68.0475 62.7161 61.9018C65.7484 54.7003 68.781 48.1455 68.781 38.644C68.781 29.1425 63.6376 28.5453 60.2009 29.3446C55.8689 30.3521 47.2626 39.462 51.508 65.127C55.7533 90.7921 32.7069 89.1841 32.707 73.0113" stroke="#242E35" stroke-width="2" stroke-linecap="round" stroke-linejoin="round"/>
<path d="M59.3926 98.0801C65.39 99.3605 80.0938 100.991 90.9296 97.2715" stroke="#242E35" stroke-width="2" stroke-linecap="round" stroke-linejoin="round"/>
</svg>
