<svg width="47" height="121" viewBox="0 0 47 121" fill="none" xmlns="http://www.w3.org/2000/svg">
<g clip-path="url(#clip0)">
<path d="M23.3881 72.3066L22.666 101.647C22.6078 103.076 23.1009 104.474 24.0437 105.551C24.7143 106.264 25.5473 106.805 26.472 107.128C27.3967 107.451 28.3858 107.547 29.3554 107.407C30.7056 107.266 32.0108 106.843 33.1863 106.164C34.3617 105.486 35.3809 104.568 36.1776 103.47L39.2567 99.3263" stroke="#E6C9C9" stroke-width="2" stroke-linecap="round" stroke-linejoin="round"/>
<path d="M23.5042 120.171C32.7999 120.171 40.3356 112.646 40.3356 103.363C40.3356 94.0795 32.7999 86.5541 23.5042 86.5541C14.2085 86.5541 6.67285 94.0795 6.67285 103.363C6.67285 112.646 14.2085 120.171 23.5042 120.171Z" stroke="#E6C9C9" stroke-width="2" stroke-linecap="round" stroke-linejoin="round"/>
<path d="M45.34 37.2473L46.1699 49.9863V52.8375C46.1711 56.4597 44.9954 59.9844 42.8194 62.8823C40.6434 65.7802 37.5847 67.8947 34.1025 68.9083L23.919 71.8756H23.0891L12.9056 68.9083C9.42258 67.895 6.36274 65.7808 4.18534 62.8831C2.00795 59.9853 0.830507 56.4604 0.829834 52.8375V49.9863L1.65978 37.2473" stroke="#E6C9C9" stroke-width="2" stroke-linecap="round" stroke-linejoin="round"/>
<path d="M23.5041 58.1171C19.1009 58.1188 14.7962 56.8162 11.1344 54.3743C7.47261 51.9323 4.6183 48.4607 2.93252 44.3985C1.24675 40.3364 0.80528 35.8662 1.66389 31.5534C2.52251 27.2406 4.64264 23.279 7.75614 20.1697C10.8697 17.0604 14.8366 14.9431 19.1553 14.0857C23.4739 13.2282 27.9502 13.6692 32.0179 15.3527C36.0855 17.0362 39.5619 19.8865 42.0071 23.5434C44.4524 27.2002 45.7567 31.4991 45.755 35.8963C45.7462 41.7869 43.3992 47.4337 39.2282 51.599C35.0572 55.7643 29.4027 58.1084 23.5041 58.1171ZM23.5041 18.6402C20.0862 18.6386 16.7445 19.6492 13.9018 21.5444C11.0591 23.4395 8.84309 26.134 7.53397 29.287C6.22485 32.44 5.88149 35.9098 6.54729 39.2577C7.21309 42.6056 8.8581 45.6811 11.2744 48.0953C13.6906 50.5094 16.7696 52.1537 20.1217 52.8202C23.4738 53.4867 26.9486 53.1455 30.1065 51.8396C33.2644 50.5338 35.9635 48.3221 37.8626 45.4841C39.7617 42.6462 40.7753 39.3096 40.7753 35.8963C40.7797 31.3167 38.9628 26.9229 35.7241 23.6808C32.4853 20.4386 28.0899 18.6136 23.5041 18.6071V18.6402Z" fill="#EFDDC7"/>
<path d="M23.5041 50.1024C20.6817 50.104 17.9222 49.2696 15.5748 47.7047C13.2273 46.1398 11.3974 43.9147 10.3166 41.311C9.23573 38.7073 8.95252 35.8419 9.50274 33.0774C10.053 30.3129 11.4119 27.7734 13.4077 25.7804C15.4034 23.7873 17.9463 22.4303 20.7145 21.8808C23.4828 21.3313 26.3521 21.6141 28.9593 22.6935C31.5666 23.7729 33.7947 25.6003 35.3617 27.9446C36.9287 30.2889 37.7643 33.0446 37.7626 35.8631C37.7582 39.6383 36.2546 43.2576 33.5815 45.927C30.9085 48.5964 27.2844 50.098 23.5041 50.1024ZM23.5041 26.5887C21.667 26.587 19.8706 27.1296 18.3422 28.1477C16.8139 29.1658 15.6222 30.6137 14.918 32.3083C14.2138 34.0028 14.0287 35.8679 14.3861 37.6675C14.7435 39.4671 15.6274 41.1205 16.9259 42.4184C18.2244 43.7163 19.8792 44.6003 21.6809 44.9589C23.4827 45.3174 25.3504 45.1343 27.0479 44.4325C28.7454 43.7308 30.1964 42.5421 31.2172 41.0167C32.2381 39.4913 32.7829 37.6978 32.7829 35.8631C32.7742 33.4106 31.793 31.0614 30.0541 29.3295C28.3151 27.5976 25.96 26.624 23.5041 26.6218V26.5887Z" fill="#EFDDC7"/>
<path d="M23.504 41.2257C26.4559 41.2257 28.8489 38.8359 28.8489 35.888C28.8489 32.9402 26.4559 30.5504 23.504 30.5504C20.5522 30.5504 18.1592 32.9402 18.1592 35.888C18.1592 38.8359 20.5522 41.2257 23.504 41.2257Z" fill="#EFDDC7"/>
<path d="M22.9397 36.4434L25.0478 26.4478L26.135 30.9068L30.5503 29.6222L22.9397 36.4434Z" stroke="#E6C9C9" stroke-width="2" stroke-linecap="round" stroke-linejoin="round"/>
<path d="M26.135 30.9068L41.5057 3.77942" stroke="#E6C9C9" stroke-width="2" stroke-linecap="round" stroke-linejoin="round"/>
<path d="M36.3601 11.6865L35.9783 6.49801L39.2566 0.828857L39.6383 6.02558L36.3601 11.6865Z" stroke="#E6C9C9" stroke-width="2" stroke-linecap="round" stroke-linejoin="round"/>
<path d="M37.356 12.2665L42.0452 9.99557L45.3235 4.32642L40.6343 6.59739L37.356 12.2665Z" stroke="#E6C9C9" stroke-width="2" stroke-linecap="round" stroke-linejoin="round"/>
<path d="M23.5042 57.8022C35.6234 57.8022 45.448 47.9909 45.448 35.8881C45.448 23.7853 35.6234 13.974 23.5042 13.974C11.3849 13.974 1.5603 23.7853 1.5603 35.8881C1.5603 47.9909 11.3849 57.8022 23.5042 57.8022Z" stroke="#E6C9C9" stroke-width="2" stroke-linecap="round" stroke-linejoin="round"/>
</g>
<defs>
<clipPath id="clip0">
<rect width="47" height="121" fill="white"/>
</clipPath>
</defs>
</svg>
