<svg width="161" height="125" viewBox="0 0 161 125" fill="none" xmlns="http://www.w3.org/2000/svg">
<path d="M41.4957 14.6401C62.0545 17.0469 12.7539 47.417 19.0435 36.4773C18.3218 34.5302 13.9632 31.0512 11.8742 29.555C10.673 28.8598 9.08744 26.5011 12.3544 22.6276C16.4382 17.7857 18.9595 14.5183 21.2869 17.3569C23.6144 20.1954 27.4854 22.835 29.5642 23.744C31.6429 24.6531 31.2382 26.0784 32.2089 27.5225C33.1441 28.9138 48.3584 39.3882 60.7904 43.6053C61.2629 43.7655 61.7313 43.9167 62.1947 44.0581C74.8542 47.9188 85.6716 49.6631 96.3449 57.8991C104.884 64.488 123.863 79.1336 132.286 85.6328C133.738 86.7534 136.191 89.7588 134.388 92.8159C132.135 96.6372 123.674 111.655 113.546 119.826C108.155 123.659 107.857 121.344 106.382 120.553C105.202 119.921 81.494 101.464 69.7876 92.3153C66.3418 89.4248 58.3327 81.6693 53.8625 73.7713C48.6243 64.5165 36.799 44.9723 29.7256 43.3301C22.6522 41.6879 16.0164 48.5067 21.5833 53.8819C28.8217 60.1146 47.633 64.175 64.9708 30.5544C77.4858 6.28607 82.7595 29.6628 70.8187 37.2735" stroke="#242E35" stroke-width="2" stroke-linecap="round" stroke-linejoin="round"/>
<path d="M69.6247 38.4144C68.6566 39.4165 64.3997 42.1561 62.2844 46.1596C60.5922 49.3625 61.909 53.9674 62.779 55.8695C64.9567 61.631 61.3076 72.4189 64.8574 76.9072C68.4072 81.3955 75.6123 84.4288 77.9226 86.9889C80.2329 89.5491 81.613 92.5573 85.4641 95.1404C89.3152 97.7234 96.081 94.0047 103.024 93.338C109.967 92.6712 112.851 93.7306 116.159 92.979C119.466 92.2273 123.396 83.5997 125.652 80.6763C127.908 77.7529 133.142 75.7671 134.769 71.3867C136.395 67.0062 134.077 60.1646 132.575 57.0621C131.073 53.9595 134.74 46.6833 132.364 41.9353C129.989 37.1873 123.366 34.409 120.398 32.7015C117.43 30.9941 113.543 23.9135 110.02 22.1669C106.497 20.4204 98.6889 23.7232 96.0298 24.3921C93.3708 25.061 85.1599 23.5835 83.5252 23.6824" stroke="#242E35" stroke-width="2" stroke-linecap="round" stroke-linejoin="round"/>
<circle cx="97.129" cy="59.8798" r="26.9072" transform="rotate(-52.3444 97.129 59.8798)" fill="#E6C9C9"/>
<path d="M80.1382 59.1701C79.9933 59.0896 79.8524 59.0775 79.7156 59.1338C79.5868 59.1821 79.466 59.2626 79.3533 59.3754C79.2406 59.472 79.14 59.5806 79.0514 59.7014C78.9629 59.8221 78.8904 59.9107 78.8341 59.967C78.6892 60.0958 78.4356 60.3172 78.0733 60.6312C77.7111 60.9451 77.3206 61.2873 76.902 61.6576C76.4834 62.0118 76.093 62.3459 75.7307 62.6598C75.3604 62.9658 75.1028 63.1831 74.9579 63.3119C74.9418 63.2958 74.8975 63.2596 74.825 63.2032C74.7526 63.1469 74.7043 63.1066 74.6801 63.0825C74.5674 62.9698 74.4749 62.8611 74.4024 62.7565C74.338 62.6437 74.3501 62.4948 74.4386 62.3097C75.2115 61.569 75.9521 60.8204 76.6605 60.0636C77.377 59.2989 78.0814 58.5301 78.7737 57.7573C79.466 56.9683 80.1583 56.1875 80.8507 55.4146C81.551 54.6338 82.2755 53.869 83.0242 53.1203C83.3301 53.4262 83.4831 53.7241 83.4831 54.0139C83.475 54.2956 83.3865 54.5694 83.2174 54.835C83.0564 55.0926 82.8431 55.3462 82.5774 55.5958C82.3118 55.8453 82.0662 56.0989 81.8408 56.3565C81.6235 56.6061 81.4625 56.8637 81.3578 57.1293C81.2532 57.3789 81.2733 57.6325 81.4182 57.8901C81.4584 57.9464 81.543 58.0471 81.6718 58.192C81.8006 58.3369 81.9374 58.4898 82.0823 58.6508C82.2353 58.8038 82.3762 58.9527 82.505 59.0976C82.6338 59.2264 82.7264 59.319 82.7827 59.3754C83.2416 59.8342 83.7528 60.2327 84.3163 60.5708C84.8798 60.8928 85.4514 61.2068 86.031 61.5127C86.6106 61.8025 87.1781 62.1124 87.7336 62.4425C88.2891 62.7565 88.7922 63.1388 89.243 63.5897C89.5811 63.9278 89.557 64.29 89.1706 64.6764C88.9371 64.9099 88.5668 64.9582 88.0596 64.8213C87.5605 64.6764 86.993 64.4229 86.357 64.0606C85.7291 63.6903 85.077 63.2556 84.4008 62.7565C83.7326 62.2493 83.1007 61.7542 82.505 61.2712C81.9173 60.7801 81.4061 60.3414 80.9714 59.955C80.5447 59.5605 80.267 59.2989 80.1382 59.1701Z" fill="#242E35"/>
<path d="M96.224 54.4592C96.1274 54.9744 96.051 55.4293 95.9946 55.8237C95.9383 56.2021 95.8618 56.5523 95.7652 56.8743C95.6686 57.1963 95.5277 57.5062 95.3425 57.8041C95.1654 58.0939 94.9038 58.4119 94.5576 58.7581C93.809 59.5067 93.0563 59.865 92.2995 59.8328C91.5348 59.7925 90.7579 59.3779 89.969 58.589C89.6631 58.2831 89.3854 57.9249 89.1358 57.5143C88.8862 57.1037 88.6769 56.661 88.5079 56.186C88.3388 55.6949 88.2181 55.1958 88.1456 54.6887C88.0651 54.1734 88.049 53.6663 88.0973 53.1672C88.1456 52.6681 88.2583 52.2011 88.4354 51.7664C88.6125 51.3156 88.8742 50.9171 89.2203 50.571C89.8563 50.0477 90.456 49.7378 91.0196 49.6412C91.575 49.5365 92.1184 49.5808 92.6497 49.774C93.173 49.9591 93.6882 50.2409 94.1954 50.6193C94.6945 50.9896 95.1936 51.3921 95.6927 51.8268C96.1999 52.2535 96.7151 52.6721 97.2384 53.0826C97.7616 53.4932 98.309 53.8072 98.8806 54.0245C99.0416 54.3948 99.1261 54.6806 99.1342 54.8819C99.1583 55.0831 99.0778 55.2039 98.8927 55.2441C98.7075 55.2844 98.3976 55.2401 97.9629 55.1113C97.5362 54.9744 96.9566 54.7571 96.224 54.4592ZM91.0196 57.5867C91.4784 58.0456 91.9011 58.2992 92.2875 58.3475C92.6739 58.3797 93.0885 58.1744 93.5312 57.7317C93.8613 57.4016 94.1189 57.0313 94.3041 56.6207C94.4892 56.1941 94.5939 55.7674 94.618 55.3407C94.6341 54.906 94.5657 54.4753 94.4127 54.0487C94.2598 53.622 94.0062 53.2316 93.652 52.8774C93.5071 52.7325 93.3098 52.5272 93.0603 52.2615C92.8027 51.9878 92.525 51.7423 92.2271 51.5249C91.9292 51.3076 91.6314 51.1627 91.3335 51.0902C91.0276 51.0097 90.7619 51.0822 90.5365 51.3076C90.1179 51.7262 89.8402 52.2213 89.7033 52.7928C89.5584 53.3563 89.5222 53.9319 89.5947 54.5196C89.6671 55.1073 89.8321 55.6748 90.0898 56.2222C90.3393 56.7616 90.6492 57.2164 91.0196 57.5867Z" fill="#242E35"/>
<path d="M94.2089 48.1907C94.1928 48.1907 94.1767 48.1826 94.1606 48.1665C94.1364 48.1585 94.1042 48.1343 94.064 48.0941C93.911 47.9411 93.8708 47.7721 93.9432 47.5869C94.0076 47.3937 94.1002 47.2367 94.221 47.116C94.2371 47.0999 94.2572 47.0878 94.2814 47.0797C94.3055 47.0556 94.3337 47.0274 94.3659 46.9952C94.3981 46.9791 94.4383 46.9469 94.4866 46.8986L97.6021 46.6329C97.4733 45.9245 97.3807 45.365 97.3243 44.9545C97.276 44.5359 97.2519 44.2219 97.2519 44.0126C97.2438 43.7952 97.2559 43.6544 97.2881 43.59C97.3203 43.5095 97.3485 43.4571 97.3726 43.433C97.429 43.3766 97.4894 43.3162 97.5538 43.2518C97.6262 43.1794 97.7067 43.115 97.7953 43.0586C97.8758 42.9942 97.9603 42.958 98.0489 42.95C98.1455 42.9339 98.2501 42.958 98.3628 43.0224C98.3628 43.2961 98.3709 43.5618 98.387 43.8194C98.4031 44.077 98.4393 44.3386 98.4957 44.6043C98.544 44.8619 98.6164 45.1356 98.713 45.4254C98.8177 45.7072 98.9424 46.0171 99.0873 46.3552C99.353 46.315 99.7032 46.2868 100.138 46.2707C100.573 46.2385 101.031 46.2304 101.514 46.2465C101.998 46.2465 102.481 46.2626 102.964 46.2948C103.439 46.319 103.861 46.3713 104.231 46.4518C104.61 46.5243 104.9 46.6209 105.101 46.7416C105.31 46.8543 105.387 46.9872 105.33 47.1401C105.363 47.3977 105.395 47.5829 105.427 47.6956C105.451 47.8002 105.427 47.8646 105.354 47.8888C105.29 47.9049 105.157 47.8848 104.956 47.8284C104.755 47.7721 104.441 47.7238 104.014 47.6835C103.587 47.6272 103.028 47.5829 102.336 47.5507C101.643 47.5185 100.774 47.5265 99.7273 47.5748L102.613 50.654C102.621 50.6621 102.621 50.6943 102.613 50.7506C102.605 50.807 102.597 50.8714 102.589 50.9438C102.581 51.0002 102.569 51.0606 102.553 51.125C102.537 51.1894 102.521 51.2457 102.505 51.294L102.36 51.4389L102.239 51.5597C102.167 51.5677 102.062 51.5758 101.925 51.5838C101.796 51.5838 101.724 51.5758 101.708 51.5597L98.3387 48.1907H94.2089Z" fill="#242E35"/>
<path d="M86.4865 71.8903C86.6434 71.4626 86.82 71.0944 87.0162 70.786C87.213 70.4628 87.4307 70.1699 87.6693 69.9072C87.9084 69.6299 88.1617 69.3678 88.429 69.121C88.704 68.8672 89.0019 68.5922 89.3227 68.296C89.3838 68.2396 89.4905 68.1482 89.6426 68.0219C89.7954 67.8809 89.9558 67.7328 90.1239 67.5777C90.2995 67.4155 90.4599 67.2674 90.6051 67.1335C90.7502 66.9995 90.8533 66.9043 90.9144 66.8479C91.0267 66.8009 91.1409 66.7944 91.2573 66.8285C91.3736 66.8626 91.482 66.911 91.5825 66.9739C91.683 67.0368 91.7794 67.1105 91.8716 67.1951C91.9568 67.2721 92.0206 67.3335 92.0629 67.3793L88.2819 70.8697L90.5559 73.333L94.6577 69.5466C94.8974 69.8063 95.0076 70.0865 94.9882 70.3874C94.9618 70.6806 94.8651 70.982 94.6983 71.2917C94.539 71.5943 94.3246 71.8984 94.0549 72.2039C93.7781 72.5018 93.5061 72.7742 93.2388 73.021C92.9644 73.2601 92.717 73.4673 92.4967 73.6424C92.2763 73.8175 92.1318 73.9367 92.063 74.0002L92.2851 74.2408C92.5813 74.5616 92.9397 74.7967 93.3604 74.9459C93.7741 75.0875 94.196 75.2073 94.6261 75.3055C95.0638 75.3965 95.479 75.5014 95.8715 75.6201C96.2716 75.7317 96.5951 75.9212 96.8419 76.1885C96.997 76.3566 97.1001 76.5373 97.1513 76.7306C97.1953 76.9163 97.1257 77.0937 96.9424 77.2629C96.7514 77.4392 96.4688 77.5162 96.0945 77.4939C95.7279 77.4645 95.3051 77.3667 94.8262 77.2004C94.3403 77.0265 93.8197 76.7997 93.2644 76.52C92.7097 76.2257 92.1447 75.9125 91.5695 75.5805C90.9948 75.2339 90.4387 74.8843 89.901 74.5317C89.364 74.1645 88.8739 73.8175 88.4309 73.4909C87.9808 73.1565 87.5918 72.8578 87.2639 72.5945C86.936 72.3313 86.7086 72.1309 86.5817 71.9934L86.4865 71.8903Z" fill="#242E35"/>
<path d="M95.6885 69.4651C95.625 69.3963 95.5654 69.3241 95.5096 69.2483C95.4467 69.1648 95.402 69.0858 95.3756 69.0112C95.3421 68.9289 95.3306 68.8475 95.3412 68.767C95.3594 68.6795 95.4144 68.5934 95.506 68.5088C95.5824 68.4383 95.7228 68.4218 95.9273 68.4594C96.1324 68.4823 96.3692 68.5396 96.6377 68.6313C96.8992 68.7153 97.1745 68.8219 97.4636 68.9512C97.7603 69.0734 98.0277 69.1944 98.2656 69.3143C98.5042 69.4195 98.7063 69.5158 98.872 69.6034C99.0377 69.6909 99.1279 69.735 99.1426 69.7356C98.9951 69.3766 98.8379 68.9841 98.671 68.5581C98.5042 68.1321 98.3852 67.7043 98.3141 67.2748C98.2435 66.8306 98.2459 66.404 98.3211 65.995C98.4039 65.579 98.6248 65.2053 98.9838 64.8739C99.1672 64.7047 99.3672 64.5766 99.584 64.4896C99.8014 64.388 100.024 64.338 100.252 64.3398C100.481 64.3268 100.704 64.3615 100.921 64.4438C101.138 64.526 101.339 64.6664 101.522 64.865C101.677 65.0331 101.718 65.2149 101.644 65.4106C101.577 65.5992 101.46 65.7711 101.292 65.9262L101.178 66.032L100.23 65.9941C100.215 66.0082 100.2 66.015 100.185 66.0144C100.17 66.0285 100.155 66.0426 100.139 66.0567C100.125 66.0561 100.11 66.0629 100.094 66.077C99.8271 66.3238 99.6875 66.594 99.6758 66.8878C99.6646 67.1669 99.7231 67.4525 99.8512 67.7445C99.9722 68.0289 100.134 68.3039 100.337 68.5695C100.54 68.8204 100.733 69.0451 100.917 69.2437C101.058 69.3965 101.218 69.539 101.396 69.6712C101.568 69.7957 101.743 69.9168 101.922 70.0343C102.095 70.1442 102.27 70.2652 102.449 70.3974C102.62 70.522 102.784 70.6683 102.939 70.8363C103.235 71.1571 103.211 71.4762 102.867 71.7935C102.676 71.9698 102.386 72.0538 101.997 72.0456C101.6 72.0297 101.154 71.9604 100.659 71.8376C100.171 71.7078 99.6627 71.5403 99.1338 71.3353C98.5979 71.1226 98.0956 70.9002 97.6267 70.6681C97.1578 70.436 96.7473 70.2136 96.3954 70.0009C96.051 69.7812 95.8154 69.6026 95.6885 69.4651Z" fill="#242E35"/>
<path d="M103.104 65.6332C102.723 65.2207 102.392 64.7624 102.111 64.2583C101.829 63.7541 101.644 63.2391 101.554 62.7132C101.473 62.1803 101.509 61.6521 101.662 61.1285C101.823 60.5979 102.152 60.1035 102.648 59.6451C102.931 59.3842 103.228 59.2086 103.541 59.1181C103.846 59.0199 104.149 58.9879 104.45 59.022C104.75 59.056 105.04 59.1559 105.32 59.3216C105.601 59.4726 105.855 59.6703 106.08 59.9148C106.44 60.3043 106.697 60.767 106.852 61.3029C107.015 61.8317 107.074 62.3785 107.029 62.9431C106.985 63.4931 106.836 64.0205 106.58 64.5252C106.317 65.0223 105.948 65.4195 105.473 65.7168C105.685 65.9313 105.923 66.0438 106.188 66.0544C106.453 66.0503 106.716 65.9909 106.978 65.8763C107.24 65.7618 107.489 65.6172 107.724 65.4427C107.952 65.2605 108.15 65.0919 108.318 64.9368C108.494 64.7746 108.644 64.6077 108.768 64.4361C108.893 64.2646 109.014 64.0892 109.132 63.9099C109.249 63.7307 109.37 63.5553 109.495 63.3838C109.627 63.2051 109.781 63.0347 109.956 62.8726C110.025 62.8091 110.098 62.7495 110.173 62.6936C110.249 62.6378 110.332 62.597 110.421 62.5711C110.503 62.5376 110.592 62.5338 110.686 62.5596C110.774 62.5779 110.856 62.629 110.934 62.713C111.068 62.8581 111.127 63.0297 111.112 63.2277C111.09 63.4181 111.026 63.6252 110.922 63.8491C110.825 64.0659 110.695 64.2851 110.531 64.5066C110.361 64.7205 110.191 64.927 110.021 65.1262C109.852 65.3107 109.687 65.477 109.526 65.6251C109.381 65.7738 109.27 65.8833 109.193 65.9539C108.704 66.4051 108.195 66.7342 107.664 66.941C107.127 67.1402 106.597 67.2257 106.076 67.1975C105.548 67.1617 105.031 67.016 104.526 66.7604C104.022 66.4901 103.548 66.1144 103.104 65.6332ZM103.631 63.7673C103.878 64.0346 104.092 64.1977 104.273 64.2564C104.463 64.3081 104.699 64.2036 104.981 63.9427C105.18 63.7593 105.343 63.5452 105.47 63.3001C105.591 63.0475 105.667 62.7857 105.7 62.5148C105.741 62.2369 105.726 61.9678 105.655 61.7075C105.585 61.4472 105.454 61.2139 105.264 61.0077C105.158 60.8931 105.038 60.7853 104.902 60.6842C104.774 60.5761 104.633 60.5006 104.48 60.4577C104.321 60.4072 104.163 60.3972 104.007 60.4278C103.852 60.4436 103.698 60.5221 103.545 60.6631C103.316 60.8746 103.155 61.122 103.063 61.4052C102.972 61.6738 102.938 61.952 102.964 62.2399C102.982 62.5202 103.052 62.7952 103.173 63.0649C103.288 63.3269 103.441 63.5611 103.631 63.7673Z" fill="#242E35"/>
<path d="M109.556 59.6772C109.175 59.2647 108.844 58.8064 108.563 58.3023C108.281 57.7981 108.096 57.2831 108.006 56.7572C107.925 56.2243 107.961 55.6961 108.114 55.1725C108.275 54.6419 108.604 54.1475 109.1 53.6892C109.383 53.4283 109.68 53.2526 109.993 53.1621C110.298 53.0639 110.601 53.0319 110.902 53.066C111.202 53.1001 111.492 53.1999 111.772 53.3656C112.053 53.5166 112.307 53.7144 112.532 53.9588C112.892 54.3483 113.149 54.8111 113.304 55.3469C113.467 55.8757 113.526 56.4225 113.481 56.9872C113.437 57.5371 113.288 58.0645 113.032 58.5692C112.769 59.0663 112.4 59.4635 111.925 59.7609C112.137 59.9753 112.375 60.0879 112.64 60.0984C112.905 60.0943 113.168 60.035 113.43 59.9204C113.692 59.8058 113.941 59.6612 114.176 59.4867C114.404 59.3046 114.602 59.1359 114.77 58.9808C114.946 58.8186 115.096 58.6517 115.22 58.4802C115.345 58.3086 115.466 58.1332 115.584 57.954C115.701 57.7748 115.822 57.5994 115.947 57.4278C116.079 57.2492 116.233 57.0788 116.408 56.9166C116.477 56.8531 116.55 56.7935 116.625 56.7376C116.701 56.6818 116.784 56.641 116.873 56.6151C116.955 56.5816 117.044 56.5778 117.138 56.6037C117.226 56.6219 117.308 56.673 117.386 56.757C117.52 56.9022 117.579 57.0737 117.564 57.2717C117.542 57.4621 117.478 57.6692 117.374 57.8931C117.277 58.1099 117.147 58.3291 116.983 58.5506C116.813 58.7645 116.643 58.971 116.473 59.1702C116.304 59.3547 116.139 59.521 115.978 59.6691C115.833 59.8178 115.722 59.9274 115.645 59.9979C115.156 60.4491 114.647 60.7782 114.116 60.985C113.579 61.1843 113.049 61.2698 112.528 61.2416C112 61.2057 111.483 61.06 110.978 60.8044C110.474 60.5342 110 60.1584 109.556 59.6772ZM110.083 57.8113C110.33 58.0787 110.544 58.2417 110.725 58.3005C110.915 58.3522 111.151 58.2476 111.433 57.9867C111.632 57.8034 111.795 57.5892 111.922 57.3441C112.043 57.0915 112.119 56.8297 112.152 56.5588C112.193 56.2809 112.178 56.0118 112.107 55.7515C112.037 55.4912 111.906 55.2579 111.716 55.0517C111.61 54.9371 111.49 54.8293 111.354 54.7282C111.226 54.6201 111.085 54.5446 110.932 54.5017C110.773 54.4512 110.615 54.4412 110.459 54.4718C110.304 54.4877 110.15 54.5661 109.997 54.7071C109.768 54.9187 109.607 55.166 109.515 55.4493C109.424 55.7178 109.39 55.996 109.416 56.2839C109.434 56.5642 109.504 56.8392 109.625 57.1089C109.74 57.3709 109.893 57.6051 110.083 57.8113Z" fill="#242E35"/>
</svg>
