<svg width="360" height="404" viewBox="0 0 360 404" fill="none" xmlns="http://www.w3.org/2000/svg">
<g style="mix-blend-mode:multiply">
<path d="M194.602 143.708C218.686 143.708 238.21 124.219 238.21 100.179C238.21 76.1379 218.686 56.649 194.602 56.649C170.518 56.649 150.994 76.1379 150.994 100.179C150.994 124.219 170.518 143.708 194.602 143.708Z" fill="#E0E5CD"/>
</g>
<path d="M156.667 142.1C162.899 146.778 170.063 150.068 177.677 151.748C191.867 155.101 206.804 152.9 219.418 145.596C235.105 136.438 244.793 113.578 242.436 94.3296C239.354 68.9063 215.869 50.9166 190.283 53.1536C188.605 53.313 186.98 53.8256 185.514 54.6577C184.049 55.4898 182.777 56.6223 181.782 57.9809C180.788 59.3394 180.092 60.893 179.743 62.5392C179.393 64.1854 179.398 65.8869 179.755 67.5314V67.5314C179.897 68.1646 180.196 68.7522 180.624 69.2406C181.053 69.729 181.596 70.1026 182.206 70.3278C193.015 74.499 206.811 70.6074 193.878 80.045C184.681 86.7329 204.827 81.0937 199.598 89.1564C194.369 97.2192 203.893 95.588 203.893 95.588C203.893 95.588 225.651 88.7602 220.118 80.6509C214.585 72.5415 208.842 82.0491 208.842 82.0491L227.985 91.0439C242.576 100.365 226.001 109.43 226.001 109.43C229.829 118.914 217.994 127.769 217.994 127.769L213.325 130.938C211.737 134.993 208.119 143.056 205.177 139.817C195.629 129.33 193.668 104.233 193.668 104.233L185.498 110.245L182.743 108.917C182.169 108.637 181.51 108.584 180.899 108.77C180.288 108.956 179.771 109.367 179.451 109.919C177.817 112.739 176.23 118.541 183.747 126.231C188.229 130.892 188.066 134.62 186.361 137.603C184.926 139.918 182.64 141.582 179.993 142.239C177.346 142.897 174.546 142.496 172.191 141.122C165.953 137.572 160.608 132.65 156.562 126.728C152.516 120.807 149.876 114.042 148.843 106.949C147.81 99.8561 148.411 92.6213 150.6 85.795C152.789 78.9686 156.508 72.7304 161.476 67.5547C161.808 67.1999 162.218 66.9266 162.673 66.7563C163.129 66.5859 163.617 66.5231 164.101 66.5728C164.585 66.6224 165.051 66.7831 165.462 67.0424C165.873 67.3017 166.219 67.6526 166.472 68.0675C167.942 70.5842 168.806 74.802 165.118 80.7442C160.052 88.8535 172.658 86.7563 178.588 85.4047C179.798 85.0926 181.079 85.1937 182.225 85.692C183.372 86.1903 184.318 87.0571 184.914 88.1544C185.245 88.6987 185.375 89.3414 185.282 89.9714C185.188 90.6014 184.876 91.1787 184.4 91.6032C183.904 92.0525 183.311 92.382 182.668 92.5659C182.024 92.7499 181.346 92.7833 180.687 92.6639C180.028 92.5445 179.405 92.2754 178.867 91.8773C178.329 91.4792 177.89 90.9629 177.584 90.3682L175.599 86.663" stroke="#4F1C28" stroke-width="2" stroke-linecap="round" stroke-linejoin="round"/>
<path d="M263.142 42.0149C263.142 42.0149 305 23.0697 308.268 42.0149C311.536 60.96 248.762 93.7004 248.762 93.7004L155.71 141.424L149.22 144.267C107.316 162.187 84.3447 165.566 77.0378 158.249C65.3654 146.598 141.516 106.004 141.516 106.004V105.398L146.885 39.568C196.586 15.403 229.549 27.6836 229.549 27.6836L247.828 81.9557" stroke="#4F1C28" stroke-width="2" stroke-linecap="round" stroke-linejoin="round"/>
<path d="M206.741 403.278C210.219 392.772 211.615 381.692 210.85 370.654C208.842 342.527 190.96 333.742 143.827 321.345C120.482 315.193 105.192 303.309 100.99 298.252C93.9861 289.933 94.8031 285.296 97.301 282.709C98.6898 281.41 100.522 280.687 102.425 280.687C104.329 280.687 106.161 281.41 107.549 282.709L113.759 288.209C121.363 295.005 130.187 300.303 139.765 303.822C144.504 305.502 149.366 306.811 154.309 307.736C154.853 307.77 155.397 307.679 155.9 307.472C156.404 307.265 156.854 306.946 157.216 306.539C157.577 306.133 157.842 305.65 157.99 305.127C158.138 304.604 158.164 304.054 158.067 303.519C157.875 302.469 157.412 301.487 156.724 300.67C156.037 299.853 155.148 299.229 154.146 298.858C150.691 297.6 145.601 295.759 144.504 295.502C137.781 293.918 123.774 284.34 116.817 277.07C109.923 269.906 104.978 261.101 102.453 251.492C99.9274 241.883 99.9059 231.788 102.39 222.169C104.188 216.832 121.813 209.026 119.362 235.614C116.911 262.203 140.909 279.307 148.87 281.754C152.862 282.965 154.379 281.591 154.916 279.913C155.17 278.981 155.099 277.99 154.712 277.105C154.326 276.219 153.648 275.492 152.792 275.043C132.482 263.391 127.369 247.755 127.112 235.638C126.99 227.247 129.032 218.965 133.042 211.589C138.808 200.683 151.951 177.381 156.9 180.899C163.343 185.56 165.585 192.551 152.115 213.29C138.645 234.03 153.235 257.146 162.41 263.414C167.522 266.887 169.413 265.558 170.253 263.694C170.553 262.86 170.626 261.962 170.466 261.09C170.306 260.219 169.919 259.405 169.343 258.731C154.472 240.089 154.776 226.107 165.771 206.672C172.408 195.366 180.981 185.31 191.1 176.961C191.824 176.37 192.676 175.956 193.588 175.752C194.501 175.548 195.448 175.559 196.356 175.786C197.263 176.012 198.104 176.447 198.813 177.056C199.522 177.664 200.079 178.43 200.438 179.292C204.103 188.17 195.256 204.389 183.817 213.36C175.88 219.582 177.514 226.829 178.331 232.002" stroke="#4F1C28" stroke-width="2" stroke-linejoin="round"/>
<path d="M280.628 401.949C280.628 401.949 267.555 376.316 280.628 334.534C293.701 292.753 300.891 260.781 270.823 231.396C240.755 202.012 216.266 177.637 216.266 177.637C216.266 177.637 201.512 173.209 204.104 191.619C204.629 194.139 205.678 196.52 207.185 198.609C210.49 203.522 214.843 207.644 219.931 210.68L233.681 219.069C243.65 224.219 250.233 233.051 250.233 242.931C250.233 258.8 233.518 271.664 212.881 271.664C192.244 271.664 175.53 258.8 175.53 242.931C175.53 230.022 186.618 219.093 201.886 215.481C202.231 215.384 202.582 215.306 202.936 215.248C236.483 212.708 228.055 243.887 204.897 243.211L202.936 162.91C202.936 162.91 255.836 145.852 253.221 106.68C252.977 102.317 252.321 97.9867 251.26 93.747" stroke="#4F1C28" stroke-width="2" stroke-linejoin="round"/>
<path d="M131.314 100.761C131.314 100.761 11.579 160.346 3.82853 178.709C-3.92194 197.071 14.1469 213.663 165.865 147.786" stroke="#4F1C28" stroke-width="2" stroke-linejoin="round"/>
<path d="M234.989 43.8325C234.989 43.8325 308.151 7.61998 345.293 2.63319C382.434 -2.3536 328.671 55.2042 279.32 82.8646" stroke="#4F1C28" stroke-width="2" stroke-linejoin="round"/>
<g style="mix-blend-mode:multiply">
<path d="M321.551 173.303C330.125 173.303 337.075 166.365 337.075 157.806C337.075 149.248 330.125 142.31 321.551 142.31C312.977 142.31 306.027 149.248 306.027 157.806C306.027 166.365 312.977 173.303 321.551 173.303Z" fill="#E0E5CD"/>
</g>
<path d="M341.558 40.64C346.019 40.64 349.635 37.0302 349.635 32.5772C349.635 28.1243 346.019 24.5145 341.558 24.5145C337.097 24.5145 333.48 28.1243 333.48 32.5772C333.48 37.0302 337.097 40.64 341.558 40.64Z" stroke="#4F1C28" stroke-width="2" stroke-linejoin="round"/>
<path d="M56.4242 64.0127C64.4565 64.0127 70.968 57.5129 70.968 49.4951C70.968 41.4772 64.4565 34.9775 56.4242 34.9775C48.3919 34.9775 41.8804 41.4772 41.8804 49.4951C41.8804 57.5129 48.3919 64.0127 56.4242 64.0127Z" stroke="#4F1C28" stroke-width="2" stroke-linejoin="round"/>
<g style="mix-blend-mode:multiply">
<path d="M46.316 208.979C54.8899 208.979 61.8403 202.041 61.8403 193.483C61.8403 184.924 54.8899 177.987 46.316 177.987C37.7422 177.987 30.7917 184.924 30.7917 193.483C30.7917 202.041 37.7422 208.979 46.316 208.979Z" fill="#EFDDC7"/>
</g>
<path d="M340.297 236.896C345.738 236.896 350.148 232.493 350.148 227.062C350.148 221.631 345.738 217.228 340.297 217.228C334.856 217.228 330.446 221.631 330.446 227.062C330.446 232.493 334.856 236.896 340.297 236.896Z" stroke="#4F1C28" stroke-width="2" stroke-linejoin="round"/>
</svg>
