<svg width="375" height="431" viewBox="0 0 375 431" fill="none" xmlns="http://www.w3.org/2000/svg">
<g clip-path="url(#clip0)">
<rect x="23" y="217.703" width="4" height="81.9225" rx="2" fill="#D8C3AF"/>
<rect x="32" y="51" width="4" height="248.625" rx="2" fill="#D8C3AF"/>
<rect x="41" y="81.4829" width="4" height="218.143" rx="2" fill="#D8C3AF"/>
<rect x="50" y="270.095" width="4" height="29.5302" rx="2" fill="#D8C3AF"/>
<rect x="59" y="275.811" width="4" height="23.8147" rx="2" fill="#D8C3AF"/>
<rect x="68" y="225.323" width="4" height="74.3018" rx="2" fill="#D8C3AF"/>
<rect x="77" y="233.897" width="4" height="65.7285" rx="2" fill="#D8C3AF"/>
<rect x="86" y="180.552" width="4" height="119.073" rx="2" fill="#D8C3AF"/>
<rect x="95" y="172.931" width="4" height="126.694" rx="2" fill="#D8C3AF"/>
<path d="M98.168 166.336L96.672 164.744C96.04 164.072 95.608 163.736 94.896 163.736C93.984 163.736 93.32 164.464 93.32 165.56C93.32 166.664 94.008 167.472 95.128 167.472L95.128 166.528C94.512 166.512 94.144 166.128 94.144 165.592L94.144 165.512C94.144 165.024 94.488 164.68 94.928 164.68C95.336 164.68 95.592 164.888 96.224 165.544L98.128 167.528L99 167.528L99 163.656L98.168 163.656L98.168 166.336ZM99.08 160.651C99.08 159.539 98.528 158.675 97.488 158.675C96.832 158.675 96.344 159.115 96.184 159.683C96.008 159.115 95.512 158.715 94.872 158.715C94 158.715 93.32 159.467 93.32 160.619C93.32 161.691 93.992 162.483 94.936 162.499L94.936 161.555C94.448 161.507 94.144 161.131 94.144 160.659L94.144 160.579C94.144 160.051 94.488 159.659 94.952 159.659C95.448 159.659 95.792 160.059 95.792 160.683L95.792 161.043L96.616 161.043L96.616 160.675C96.616 160.067 96.904 159.627 97.424 159.627C97.856 159.627 98.256 159.963 98.256 160.611L98.256 160.691C98.256 161.259 97.944 161.603 97.48 161.659L97.48 162.603C98.48 162.579 99.08 161.803 99.08 160.651ZM99 156.15L99 155.054L97.904 155.054L97.904 156.15L99 156.15ZM95.496 150.329C95.496 150.713 95.64 151.121 95.864 151.353L94.232 151.001L94.232 148.641L93.4 148.641L93.4 151.729L96.768 152.409L96.768 151.537C96.456 151.281 96.32 150.881 96.32 150.569L96.32 150.513C96.32 149.953 96.664 149.529 97.264 149.529C97.872 149.529 98.256 149.961 98.256 150.537L98.256 150.593C98.256 151.145 97.96 151.561 97.464 151.665L97.464 152.609C98.44 152.497 99.08 151.689 99.08 150.569C99.08 149.369 98.32 148.585 97.224 148.585C96.224 148.585 95.496 149.289 95.496 150.329ZM95.792 146.845C95.792 146.109 95.192 145.805 94.584 145.805C93.976 145.805 93.368 146.109 93.368 146.845C93.368 147.589 93.976 147.893 94.584 147.893C95.192 147.893 95.792 147.589 95.792 146.845ZM99 147.661L99 146.925L93.4 143.565L93.4 144.301L99 147.661ZM95.24 146.861C95.24 147.109 95 147.245 94.584 147.245C94.16 147.245 93.92 147.109 93.92 146.861L93.92 146.837C93.92 146.589 94.16 146.453 94.584 146.453C95 146.453 95.24 146.589 95.24 146.837L95.24 146.861ZM99.024 144.381C99.024 143.645 98.424 143.34 97.816 143.341C97.208 143.341 96.6 143.645 96.6 144.381C96.6 145.125 97.208 145.429 97.816 145.429C98.424 145.429 99.024 145.125 99.024 144.381ZM98.472 144.397C98.472 144.645 98.232 144.781 97.816 144.781C97.392 144.781 97.152 144.645 97.152 144.397L97.152 144.373C97.152 144.125 97.392 143.989 97.816 143.989C98.232 143.989 98.472 144.125 98.472 144.373L98.472 144.397Z" fill="#D8C3AF"/>
<rect x="104" y="279.621" width="4" height="20.0043" rx="2" fill="#D8C3AF"/>
<rect x="113" y="189.125" width="4" height="110.5" rx="2" fill="#D8C3AF"/>
<rect x="122" y="241.518" width="4" height="58.1078" rx="2" fill="#D8C3AF"/>
<rect x="131" y="273.905" width="4" height="25.7199" rx="2" fill="#D8C3AF"/>
<rect x="140" y="242.47" width="4" height="57.1553" rx="2" fill="#D8C3AF"/>
<rect x="149" y="300" width="4" height="26" rx="2" fill="#D8C3AF"/>
<rect x="158" y="300" width="4" height="5" rx="2" fill="#D8C3AF"/>
<rect x="167" y="275.811" width="4" height="23.8147" rx="2" fill="#D8C3AF"/>
<rect x="176" y="214.845" width="4" height="84.7803" rx="2" fill="#D8C3AF"/>
<rect x="185" y="247.233" width="4" height="52.3923" rx="2" fill="#D8C3AF"/>
<rect x="194" y="293.91" width="4" height="5.71553" rx="2" fill="#D8C3AF"/>
<rect x="203" y="294.862" width="4" height="4.76294" rx="2" fill="#D8C3AF"/>
<rect x="212" y="267.237" width="4" height="32.388" rx="2" fill="#D8C3AF"/>
<rect x="221" y="215.798" width="4" height="83.8277" rx="2" fill="#D8C3AF"/>
<rect x="230" y="136.733" width="4" height="162.892" rx="2" fill="#D8C3AF"/>
<rect x="239" y="172.931" width="4" height="126.694" rx="2" fill="#D8C3AF"/>
<rect x="248" y="263.427" width="4" height="36.1983" rx="2" fill="#D8C3AF"/>
<rect x="257" y="239.612" width="4" height="60.013" rx="2" fill="#D8C3AF"/>
<rect x="266" y="192.936" width="4" height="106.69" rx="2" fill="#D8C3AF"/>
<rect x="275" y="292.958" width="4" height="6.66811" rx="2" fill="#D8C3AF"/>
<rect x="284" y="283.431" width="4" height="16.194" rx="2" fill="#D8C3AF"/>
<rect x="293" y="294.862" width="4" height="4.76294" rx="2" fill="#D8C3AF"/>
<rect x="302" y="296.768" width="4" height="2.85776" rx="1.42888" fill="#D8C3AF"/>
<rect x="311" y="220.561" width="4" height="79.0648" rx="2" fill="#D8C3AF"/>
<rect x="320" y="191.03" width="4" height="108.595" rx="2" fill="#D8C3AF"/>
<rect x="329" y="196.746" width="4" height="102.879" rx="2" fill="#D8C3AF"/>
<rect x="338" y="231.992" width="4" height="67.6337" rx="2" fill="#D8C3AF"/>
<rect x="347" y="270.095" width="4" height="29.5302" rx="2" fill="#D8C3AF"/>
<path d="M20.8041 388.374L15.1132 385.119L14.6553 386.022L15.4214 388.713L16.8155 389.51L16.1504 387.13L20.2467 389.473L19.2365 391.464L20.2295 392.032L22.7576 387.049L21.7645 386.481L20.8041 388.374ZM17.6632 379.849C16.8819 381.39 17.4599 382.897 18.7203 383.618C20.0475 384.377 21.4145 383.868 22.0316 382.652C22.4297 381.867 22.4297 380.968 21.9779 380.305C23.5792 381.398 23.8333 382.67 23.4103 383.504L23.3705 383.582C23.052 384.21 22.505 384.365 22.031 384.183L21.4438 385.34C22.631 385.817 23.7519 385.332 24.3341 384.184C25.1901 382.496 24.4055 380.352 22.2094 379.096C20.166 377.927 18.4993 378.201 17.6632 379.849ZM21.1874 381.814L21.1426 381.903C20.7694 382.638 19.9568 382.832 19.2502 382.428C18.5437 382.024 18.2536 381.187 18.6219 380.461L18.6666 380.373C19.0548 379.607 19.8728 379.379 20.5889 379.789C21.3146 380.204 21.5657 381.069 21.1874 381.814ZM27.6863 377.576C28.4029 376.163 27.9799 374.909 26.9964 374.346C26.1752 373.876 25.4199 374.103 24.8719 374.624C24.991 373.807 24.7076 372.86 23.8196 372.352C22.8647 371.806 21.5778 372.133 20.8114 373.644C20.045 375.154 20.4959 376.475 21.4508 377.021C22.3388 377.529 23.2393 377.26 23.8168 376.704C23.708 377.477 23.9457 378.271 24.7669 378.741C25.7504 379.303 26.9697 378.988 27.6863 377.576ZM23.7943 375.413C23.4808 376.031 22.7923 376.295 22.2099 375.962C21.6179 375.624 21.4515 374.883 21.77 374.255L21.8198 374.157C22.1383 373.529 22.8122 373.269 23.4042 373.608C23.9867 373.941 24.1576 374.697 23.8441 375.315L23.7943 375.413ZM26.6779 377.062C26.3993 377.612 25.7979 377.85 25.225 377.522C24.6712 377.205 24.5087 376.53 24.7873 375.981L24.8371 375.883C25.1158 375.333 25.7362 375.106 26.29 375.423C26.8629 375.751 27.0064 376.415 26.7277 376.964L26.6779 377.062ZM30.7648 371.507C31.4565 370.144 31.3352 368.707 30.0939 367.997C29.3109 367.549 28.4547 367.756 27.9104 368.343C28.0537 367.527 27.7105 366.697 26.9466 366.261C25.9058 365.665 24.6264 366.123 23.9098 367.536C23.243 368.85 23.5524 370.28 24.6691 370.944L25.2564 369.787C24.7038 369.395 24.5748 368.726 24.8684 368.147L24.9182 368.049C25.2466 367.402 25.9011 367.156 26.4549 367.473C27.0469 367.811 27.2087 368.537 26.8205 369.302L26.5965 369.743L27.58 370.306L27.809 369.855C28.1872 369.109 28.8046 368.766 29.4253 369.121C29.9409 369.416 30.2093 370.101 29.8062 370.896L29.7564 370.994C29.4031 371.69 28.8167 371.899 28.2281 371.651L27.6409 372.809C28.8493 373.462 30.0482 372.92 30.7648 371.507Z" fill="#767A7F"/>
<path d="M56.7201 388.374L51.0292 385.119L50.5714 386.022L51.3374 388.713L52.7315 389.51L52.0664 387.13L56.1627 389.473L55.1525 391.464L56.1455 392.032L58.6736 387.049L57.6805 386.481L56.7201 388.374ZM53.5793 379.849C52.798 381.39 53.3759 382.897 54.6363 383.618C55.9636 384.377 57.3305 383.868 57.9476 382.652C58.3457 381.867 58.3458 380.968 57.8939 380.305C59.4952 381.398 59.7493 382.67 59.3263 383.504L59.2865 383.582C58.968 384.21 58.4211 384.365 57.947 384.183L57.3598 385.34C58.547 385.817 59.6679 385.332 60.2501 384.184C61.1061 382.496 60.3216 380.352 58.1254 379.096C56.082 377.927 54.4153 378.201 53.5793 379.849ZM57.1035 381.814L57.0587 381.903C56.6854 382.638 55.8728 382.832 55.1663 382.428C54.4597 382.024 54.1696 381.187 54.5379 380.461L54.5827 380.373C54.9708 379.607 55.7888 379.379 56.5049 379.789C57.2306 380.204 57.4817 381.069 57.1035 381.814ZM63.6023 377.576C64.3189 376.163 63.8959 374.909 62.9124 374.346C62.0912 373.876 61.3359 374.103 60.7879 374.624C60.9071 373.807 60.6236 372.86 59.7356 372.352C58.7807 371.806 57.4938 372.133 56.7274 373.644C55.9611 375.154 56.4119 376.475 57.3668 377.021C58.2548 377.529 59.1553 377.26 59.7329 376.704C59.624 377.477 59.8618 378.271 60.6829 378.741C61.6664 379.303 62.8857 378.988 63.6023 377.576ZM59.7103 375.413C59.3968 376.031 58.7083 376.295 58.1259 375.962C57.5339 375.624 57.3675 374.883 57.686 374.255L57.7358 374.157C58.0543 373.529 58.7282 373.269 59.3202 373.608C59.9027 373.941 60.0736 374.697 59.7601 375.315L59.7103 375.413ZM62.594 377.062C62.3153 377.612 61.714 377.85 61.1411 377.522C60.5872 377.205 60.4247 376.53 60.7034 375.981L60.7531 375.883C61.0318 375.333 61.6522 375.106 62.206 375.423C62.7789 375.751 62.9224 376.415 62.6437 376.964L62.594 377.062ZM58.7021 369.994L59.7333 370.584L61.5149 367.072C61.7427 368.784 62.7218 370.812 65.424 372.358L65.9683 372.669L66.5754 371.472L66.0502 371.172C63.3289 369.615 62.3287 367.702 62.1489 365.7L61.1654 365.138L58.7021 369.994Z" fill="#767A7F"/>
<path d="M92.6361 388.374L86.9452 385.119L86.4874 386.022L87.2534 388.713L88.6475 389.51L87.9824 387.13L92.0787 389.473L91.0685 391.464L92.0615 392.032L94.5896 387.049L93.5966 386.481L92.6361 388.374ZM89.4953 379.849C88.714 381.39 89.2919 382.897 90.5523 383.618C91.8796 384.377 93.2465 383.868 93.8636 382.652C94.2617 381.867 94.2618 380.968 93.8099 380.305C95.4112 381.398 95.6654 382.67 95.2424 383.504L95.2025 383.582C94.8841 384.21 94.3371 384.365 93.863 384.183L93.2758 385.34C94.463 385.817 95.5839 385.332 96.1661 384.184C97.0221 382.496 96.2376 380.352 94.0414 379.096C91.9981 377.927 90.3313 378.201 89.4953 379.849ZM93.0195 381.814L92.9747 381.903C92.6014 382.638 91.7889 382.832 91.0823 382.428C90.3757 382.024 90.0856 381.187 90.4539 380.461L90.4987 380.373C90.8868 379.607 91.7048 379.379 92.4209 379.789C93.1466 380.204 93.3977 381.069 93.0195 381.814ZM92.6036 373.722C91.8223 375.262 92.4003 376.77 93.6607 377.491C94.9879 378.25 96.3549 377.741 96.972 376.524C97.3701 375.739 97.3701 374.841 96.9183 374.177C98.5196 375.271 98.7737 376.542 98.3507 377.376L98.3109 377.455C97.9924 378.082 97.4454 378.238 96.9714 378.055L96.3842 379.213C97.5714 379.689 98.6922 379.204 99.2745 378.056C100.13 376.369 99.3459 374.224 97.1498 372.968C95.1064 371.8 93.4397 372.074 92.6036 373.722ZM96.1278 375.687L96.083 375.775C95.7098 376.511 94.8972 376.704 94.1906 376.3C93.484 375.896 93.194 375.059 93.5622 374.334L93.607 374.245C93.9952 373.48 94.8132 373.252 95.5293 373.661C96.255 374.077 96.506 374.942 96.1278 375.687ZM101.961 369.992L96.2703 366.737L95.8125 367.639L96.5785 370.33L97.9726 371.128L97.3075 368.748L101.404 371.091L100.394 373.082L101.387 373.65L103.915 368.667L102.922 368.099L101.961 369.992Z" fill="#767A7F"/>
<path d="M128.552 388.374L122.861 385.119L122.403 386.022L123.169 388.713L124.564 389.51L123.898 387.13L127.995 389.473L126.985 391.464L127.978 392.032L130.506 387.049L129.513 386.481L128.552 388.374ZM125.411 379.849C124.63 381.39 125.208 382.897 126.468 383.618C127.796 384.377 129.163 383.868 129.78 382.652C130.178 381.867 130.178 380.968 129.726 380.305C131.327 381.398 131.581 382.67 131.158 383.504L131.119 383.582C130.8 384.21 130.253 384.365 129.779 384.183L129.192 385.34C130.379 385.817 131.5 385.332 132.082 384.184C132.938 382.496 132.154 380.352 129.957 379.096C127.914 377.927 126.247 378.201 125.411 379.849ZM128.935 381.814L128.891 381.903C128.517 382.638 127.705 382.832 126.998 382.428C126.292 382.024 126.002 381.187 126.37 380.461L126.415 380.373C126.803 379.607 127.621 379.379 128.337 379.789C129.063 380.204 129.314 381.069 128.935 381.814ZM128.52 373.722C127.738 375.262 128.316 376.77 129.577 377.491C130.904 378.25 132.271 377.741 132.888 376.524C133.286 375.739 133.286 374.841 132.834 374.177C134.436 375.271 134.69 376.542 134.267 377.376L134.227 377.455C133.908 378.082 133.361 378.238 132.887 378.055L132.3 379.213C133.487 379.689 134.608 379.204 135.191 378.056C136.046 376.369 135.262 374.224 133.066 372.968C131.022 371.8 129.356 372.074 128.52 373.722ZM132.044 375.687L131.999 375.775C131.626 376.511 130.813 376.704 130.107 376.3C129.4 375.896 129.11 375.059 129.478 374.334L129.523 374.245C129.911 373.48 130.729 373.252 131.445 373.661C132.171 374.077 132.422 374.942 132.044 375.687ZM134.439 368.658C134.2 369.129 134.118 369.728 134.241 370.165L132.513 368.619L133.981 365.725L132.988 365.158L131.067 368.944L134.664 372.077L135.206 371.008C134.993 370.481 135.079 369.898 135.273 369.515L135.308 369.446C135.657 368.76 136.331 368.475 137.047 368.884C137.773 369.299 137.962 370.091 137.604 370.798L137.569 370.866C137.226 371.543 136.614 371.851 135.957 371.64L135.37 372.798C136.604 373.327 137.871 372.773 138.568 371.399C139.314 369.928 138.895 368.448 137.587 367.699C136.393 367.017 135.086 367.383 134.439 368.658Z" fill="#767A7F"/>
<path d="M164.468 388.374L158.777 385.119L158.319 386.022L159.085 388.713L160.48 389.51L159.814 387.13L163.911 389.473L162.901 391.464L163.894 392.032L166.422 387.049L165.429 386.481L164.468 388.374ZM161.327 379.849C160.546 381.39 161.124 382.897 162.384 383.618C163.712 384.377 165.079 383.868 165.696 382.652C166.094 381.867 166.094 380.968 165.642 380.305C167.243 381.398 167.497 382.67 167.074 383.504L167.035 383.582C166.716 384.21 166.169 384.365 165.695 384.183L165.108 385.34C166.295 385.817 167.416 385.332 167.998 384.184C168.854 382.496 168.07 380.352 165.873 379.096C163.83 377.927 162.163 378.201 161.327 379.849ZM164.851 381.814L164.807 381.903C164.433 382.638 163.621 382.832 162.914 382.428C162.208 382.024 161.918 381.187 162.286 380.461L162.331 380.373C162.719 379.607 163.537 379.379 164.253 379.789C164.979 380.204 165.23 381.069 164.851 381.814ZM164.436 373.722C163.654 375.262 164.232 376.77 165.493 377.491C166.82 378.25 168.187 377.741 168.804 376.524C169.202 375.739 169.202 374.841 168.75 374.177C170.352 375.271 170.606 376.542 170.183 377.376L170.143 377.455C169.824 378.082 169.277 378.238 168.803 378.055L168.216 379.213C169.403 379.689 170.524 379.204 171.107 378.056C171.962 376.369 171.178 374.224 168.982 372.968C166.938 371.8 165.272 372.074 164.436 373.722ZM167.96 375.687L167.915 375.775C167.542 376.511 166.729 376.704 166.023 376.3C165.316 375.896 165.026 375.059 165.394 374.334L165.439 374.245C165.827 373.48 166.645 373.252 167.361 373.661C168.087 374.077 168.338 374.942 167.96 375.687ZM167.544 367.595C166.763 369.135 167.341 370.642 168.601 371.363C169.928 372.122 171.295 371.613 171.912 370.397C172.31 369.612 172.311 368.714 171.859 368.05C173.46 369.143 173.714 370.415 173.291 371.249L173.251 371.327C172.933 371.955 172.386 372.111 171.912 371.928L171.325 373.086C172.512 373.562 173.633 373.077 174.215 371.929C175.071 370.242 174.286 368.097 172.09 366.841C170.047 365.672 168.38 365.947 167.544 367.595ZM171.068 369.56L171.023 369.648C170.65 370.384 169.838 370.577 169.131 370.173C168.424 369.769 168.134 368.932 168.503 368.206L168.547 368.118C168.936 367.353 169.754 367.124 170.47 367.534C171.195 367.949 171.446 368.814 171.068 369.56Z" fill="#767A7F"/>
<path d="M199.503 390.11L198.708 387.137C198.372 385.881 198.065 385.174 197.215 384.688C196.127 384.066 194.881 384.505 194.2 385.849C193.513 387.203 193.831 388.663 195.168 389.428L195.755 388.27C195.03 387.83 194.83 387.108 195.163 386.451L195.213 386.353C195.517 385.754 196.141 385.567 196.666 385.868C197.153 386.146 197.329 386.576 197.676 387.812L198.714 391.545L199.755 392.14L202.163 387.392L201.17 386.824L199.503 390.11ZM197.274 379.765C196.428 381.433 197.272 383.169 199.372 384.37C201.463 385.566 203.283 385.405 204.148 383.698C205.014 381.991 204.141 380.289 202.05 379.093C199.949 377.891 198.12 378.098 197.274 379.765ZM198.237 380.367L198.277 380.289C198.526 379.798 198.939 379.566 199.503 379.572L200.892 383.658C200.6 383.554 200.294 383.404 199.96 383.213C198.413 382.328 197.745 381.338 198.237 380.367ZM203.175 383.09L203.136 383.169C202.902 383.63 202.527 383.859 202.021 383.885L200.655 379.851C200.908 379.959 201.176 380.086 201.462 380.25C203 381.129 203.668 382.119 203.175 383.09ZM200.382 373.638C199.536 375.306 200.38 377.042 202.481 378.243C204.572 379.439 206.391 379.277 207.257 377.57C208.123 375.863 207.249 374.161 205.158 372.965C203.057 371.764 201.228 371.97 200.382 373.638ZM201.346 374.24L201.385 374.161C201.634 373.671 202.047 373.439 202.611 373.445L204 377.53C203.708 377.426 203.402 377.277 203.068 377.085C201.521 376.201 200.853 375.211 201.346 374.24ZM206.284 376.963L206.244 377.042C206.01 377.503 205.635 377.731 205.129 377.758L203.763 373.724C204.017 373.831 204.284 373.959 204.571 374.123C206.108 375.002 206.776 375.992 206.284 376.963ZM210.345 371.507C211.037 370.144 210.915 368.707 209.674 367.997C208.891 367.549 208.035 367.756 207.491 368.343C207.634 367.527 207.291 366.697 206.527 366.261C205.486 365.665 204.207 366.123 203.49 367.536C202.823 368.85 203.132 370.28 204.249 370.944L204.836 369.787C204.284 369.395 204.155 368.726 204.449 368.147L204.498 368.049C204.827 367.402 205.481 367.156 206.035 367.473C206.627 367.811 206.789 368.537 206.401 369.302L206.177 369.743L207.16 370.306L207.389 369.855C207.767 369.109 208.385 368.766 209.005 369.121C209.521 369.416 209.789 370.101 209.386 370.896L209.337 370.994C208.983 371.69 208.397 371.899 207.808 371.651L207.221 372.809C208.429 373.462 209.628 372.92 210.345 371.507Z" fill="#767A7F"/>
<path d="M235.419 390.11L234.624 387.137C234.288 385.881 233.981 385.174 233.131 384.688C232.043 384.066 230.797 384.505 230.116 385.849C229.429 387.203 229.747 388.663 231.084 389.428L231.671 388.27C230.946 387.83 230.746 387.108 231.079 386.451L231.129 386.353C231.433 385.754 232.057 385.567 232.582 385.868C233.069 386.146 233.245 386.576 233.592 387.812L234.63 391.545L235.671 392.14L238.079 387.392L237.086 386.824L235.419 390.11ZM233.19 379.765C232.344 381.433 233.188 383.169 235.288 384.37C237.379 385.566 239.199 385.405 240.064 383.698C240.93 381.991 240.057 380.289 237.966 379.093C235.865 377.891 234.036 378.098 233.19 379.765ZM234.153 380.367L234.193 380.289C234.442 379.798 234.855 379.566 235.419 379.572L236.808 383.658C236.516 383.554 236.21 383.404 235.876 383.213C234.329 382.328 233.661 381.338 234.153 380.367ZM239.091 383.09L239.052 383.169C238.818 383.63 238.443 383.859 237.937 383.885L236.571 379.851C236.824 379.959 237.092 380.086 237.378 380.25C238.916 381.129 239.584 382.119 239.091 383.09ZM236.298 373.638C235.452 375.306 236.296 377.042 238.397 378.243C240.488 379.439 242.307 379.277 243.173 377.57C244.039 375.863 243.165 374.161 241.074 372.965C238.973 371.764 237.144 371.97 236.298 373.638ZM237.262 374.24L237.301 374.161C237.55 373.671 237.963 373.439 238.527 373.445L239.916 377.53C239.624 377.426 239.318 377.277 238.984 377.085C237.437 376.201 236.769 375.211 237.262 374.24ZM242.2 376.963L242.16 377.042C241.926 377.503 241.551 377.731 241.045 377.758L239.679 373.724C239.933 373.831 240.2 373.959 240.487 374.123C242.024 375.002 242.692 375.992 242.2 376.963ZM238.282 369.994L239.313 370.584L241.095 367.072C241.323 368.784 242.302 370.812 245.004 372.358L245.548 372.669L246.155 371.472L245.63 371.172C242.909 369.615 241.909 367.702 241.729 365.7L240.746 365.138L238.282 369.994Z" fill="#767A7F"/>
<path d="M271.335 390.11L270.54 387.137C270.204 385.881 269.897 385.174 269.047 384.688C267.959 384.066 266.713 384.505 266.032 385.849C265.345 387.203 265.663 388.663 267 389.428L267.587 388.27C266.862 387.83 266.662 387.108 266.995 386.451L267.045 386.353C267.349 385.754 267.973 385.567 268.498 385.868C268.985 386.146 269.161 386.576 269.508 387.812L270.546 391.545L271.587 392.14L273.996 387.392L273.002 386.824L271.335 390.11ZM269.106 379.765C268.26 381.433 269.104 383.169 271.204 384.37C273.296 385.566 275.115 385.405 275.981 383.698C276.846 381.991 275.973 380.289 273.882 379.093C271.781 377.891 269.952 378.098 269.106 379.765ZM270.069 380.367L270.109 380.289C270.358 379.798 270.771 379.566 271.335 379.572L272.724 383.658C272.432 383.554 272.126 383.404 271.792 383.213C270.245 382.328 269.577 381.338 270.069 380.367ZM275.007 383.09L274.968 383.169C274.734 383.63 274.359 383.859 273.853 383.885L272.487 379.851C272.74 379.959 273.008 380.086 273.295 380.25C274.832 381.129 275.5 382.119 275.007 383.09ZM278.433 376.119L272.742 372.864L272.284 373.767L273.05 376.458L274.444 377.255L273.779 374.875L277.876 377.218L276.865 379.209L277.858 379.777L280.386 374.794L279.393 374.226L278.433 376.119ZM281.541 369.992L275.85 366.737L275.393 367.639L276.159 370.33L277.553 371.128L276.888 368.748L280.984 371.091L279.974 373.082L280.967 373.65L283.495 368.667L282.502 368.099L281.541 369.992Z" fill="#767A7F"/>
<path d="M307.251 390.11L306.456 387.137C306.12 385.881 305.813 385.174 304.963 384.688C303.875 384.066 302.629 384.505 301.948 385.849C301.261 387.203 301.579 388.663 302.916 389.428L303.504 388.27C302.778 387.83 302.578 387.108 302.911 386.451L302.961 386.353C303.265 385.754 303.889 385.567 304.414 385.868C304.901 386.146 305.077 386.576 305.424 387.812L306.462 391.545L307.503 392.14L309.912 387.392L308.918 386.824L307.251 390.11ZM305.022 379.765C304.176 381.433 305.02 383.169 307.12 384.37C309.212 385.566 311.031 385.405 311.897 383.698C312.762 381.991 311.889 380.289 309.798 379.093C307.697 377.891 305.868 378.098 305.022 379.765ZM305.985 380.367L306.025 380.289C306.274 379.798 306.687 379.566 307.251 379.572L308.64 383.658C308.348 383.554 308.042 383.404 307.708 383.213C306.161 382.328 305.493 381.338 305.985 380.367ZM310.923 383.09L310.884 383.169C310.65 383.63 310.275 383.859 309.769 383.885L308.403 379.851C308.656 379.959 308.924 380.086 309.211 380.25C310.748 381.129 311.416 382.119 310.923 383.09ZM314.349 376.119L308.658 372.864L308.2 373.767L308.966 376.458L310.36 377.255L309.695 374.875L313.792 377.218L312.781 379.209L313.774 379.777L316.302 374.794L315.309 374.226L314.349 376.119ZM314.019 368.658C313.78 369.129 313.698 369.728 313.822 370.165L312.093 368.619L313.561 365.725L312.568 365.158L310.647 368.944L314.244 372.077L314.786 371.008C314.573 370.481 314.659 369.898 314.853 369.515L314.888 369.446C315.237 368.76 315.911 368.475 316.627 368.884C317.353 369.299 317.542 370.091 317.184 370.798L317.149 370.866C316.806 371.543 316.194 371.851 315.537 371.64L314.95 372.798C316.184 373.327 317.451 372.773 318.148 371.399C318.894 369.928 318.475 368.448 317.167 367.699C315.973 367.017 314.666 367.383 314.019 368.658Z" fill="#767A7F"/>
<path d="M343.167 390.11L342.372 387.137C342.036 385.881 341.729 385.174 340.879 384.688C339.791 384.066 338.545 384.505 337.864 385.849C337.177 387.203 337.496 388.663 338.832 389.428L339.42 388.27C338.694 387.83 338.494 387.108 338.827 386.451L338.877 386.353C339.181 385.754 339.805 385.567 340.33 385.868C340.817 386.146 340.994 386.576 341.34 387.812L342.378 391.545L343.419 392.14L345.828 387.392L344.834 386.824L343.167 390.11ZM340.938 379.765C340.092 381.433 340.936 383.169 343.036 384.37C345.128 385.566 346.947 385.405 347.813 383.698C348.678 381.991 347.805 380.289 345.714 379.093C343.613 377.891 341.784 378.098 340.938 379.765ZM341.901 380.367L341.941 380.289C342.19 379.798 342.603 379.566 343.167 379.572L344.556 383.658C344.264 383.554 343.958 383.404 343.624 383.213C342.077 382.328 341.409 381.338 341.901 380.367ZM346.839 383.09L346.8 383.169C346.566 383.63 346.191 383.859 345.685 383.885L344.319 379.851C344.572 379.959 344.84 380.086 345.127 380.25C346.664 381.129 347.332 382.119 346.839 383.09ZM350.265 376.119L344.574 372.864L344.116 373.767L344.882 376.458L346.276 377.255L345.611 374.875L349.708 377.218L348.697 379.209L349.69 379.777L352.218 374.794L351.225 374.226L350.265 376.119ZM347.124 367.595C346.343 369.135 346.921 370.642 348.181 371.363C349.508 372.122 350.875 371.613 351.492 370.397C351.891 369.612 351.891 368.714 351.439 368.05C353.04 369.143 353.294 370.415 352.871 371.249L352.831 371.327C352.513 371.955 351.966 372.111 351.492 371.928L350.905 373.086C352.092 373.562 353.213 373.077 353.795 371.929C354.651 370.242 353.866 368.097 351.67 366.841C349.627 365.672 347.96 365.947 347.124 367.595ZM350.648 369.56L350.604 369.648C350.23 370.384 349.418 370.577 348.711 370.173C348.005 369.769 347.714 368.932 348.083 368.206L348.128 368.118C348.516 367.353 349.334 367.124 350.05 367.534C350.775 367.949 351.027 368.814 350.648 369.56Z" fill="#767A7F"/>
<path d="M26.168 208.92L21.4 208.92L21.4 209.656L22.784 211.08L23.952 211.08L22.736 209.816L26.168 209.816L26.168 211.44L27 211.44L27 207.376L26.168 207.376L26.168 208.92ZM23.32 204.347C23.32 204.987 23.616 205.555 24.128 205.811C22.728 205.699 22.144 204.987 22.144 204.307L22.144 204.243C22.144 203.731 22.448 203.435 22.816 203.379L22.816 202.435C21.888 202.563 21.32 203.275 21.32 204.211C21.32 205.587 22.536 206.659 24.376 206.659C26.088 206.659 27.08 205.883 27.08 204.539C27.08 203.283 26.208 202.539 25.152 202.539C24.04 202.539 23.32 203.355 23.32 204.347ZM26.256 204.499L26.256 204.571C26.256 205.195 25.8 205.635 25.2 205.635C24.592 205.635 24.144 205.179 24.144 204.571L24.144 204.499C24.144 203.899 24.608 203.483 25.2 203.483C25.792 203.483 26.256 203.907 26.256 204.499ZM27 200.15L27 199.054L25.904 199.054L25.904 200.15L27 200.15ZM27.08 194.609C27.08 193.457 26.392 192.817 25.568 192.817C24.88 192.817 24.464 193.233 24.28 193.761C24.088 193.201 23.592 192.705 22.848 192.705C22.048 192.705 21.32 193.377 21.32 194.609C21.32 195.841 22.048 196.513 22.848 196.513C23.592 196.513 24.088 196.017 24.28 195.457C24.464 195.985 24.88 196.401 25.568 196.401C26.392 196.401 27.08 195.761 27.08 194.609ZM23.84 194.649C23.84 195.153 23.48 195.569 22.992 195.569C22.496 195.569 22.144 195.161 22.144 194.649L22.144 194.569C22.144 194.057 22.496 193.649 22.992 193.649C23.48 193.649 23.84 194.065 23.84 194.569L23.84 194.649ZM26.256 194.649C26.256 195.097 25.944 195.465 25.464 195.465C25 195.465 24.672 195.097 24.672 194.649L24.672 194.569C24.672 194.121 25 193.753 25.464 193.753C25.944 193.753 26.256 194.121 26.256 194.569L26.256 194.649ZM23.792 190.845C23.792 190.109 23.192 189.805 22.584 189.805C21.976 189.805 21.368 190.109 21.368 190.845C21.368 191.589 21.976 191.893 22.584 191.893C23.192 191.893 23.792 191.589 23.792 190.845ZM27 191.661L27 190.925L21.4 187.565L21.4 188.301L27 191.661ZM23.24 190.861C23.24 191.109 23 191.245 22.584 191.245C22.16 191.245 21.92 191.109 21.92 190.861L21.92 190.837C21.92 190.589 22.16 190.453 22.584 190.453C23 190.453 23.24 190.589 23.24 190.837L23.24 190.861ZM27.024 188.381C27.024 187.645 26.424 187.34 25.816 187.341C25.208 187.341 24.6 187.645 24.6 188.381C24.6 189.125 25.208 189.429 25.816 189.429C26.424 189.429 27.024 189.125 27.024 188.381ZM26.472 188.397C26.472 188.645 26.232 188.781 25.816 188.781C25.392 188.781 25.152 188.645 25.152 188.397L25.152 188.373C25.152 188.125 25.392 187.989 25.816 187.989C26.232 187.989 26.472 188.125 26.472 188.373L26.472 188.397Z" fill="#D8C3AF"/>
<path d="M33.992 42.16L30.4 42.16L30.4 43.104L33.872 45.784L34.816 45.784L34.816 43.056L36 43.056L36 42.16L34.816 42.16L34.816 41.296L33.992 41.296L33.992 42.16ZM33.992 44.872L31.64 43.056L33.992 43.056L33.992 44.872ZM32.496 38.3231C32.496 38.7071 32.64 39.1151 32.864 39.3471L31.232 38.9951L31.232 36.6351L30.4 36.6351L30.4 39.7231L33.768 40.4031L33.768 39.5311C33.456 39.2751 33.32 38.8751 33.32 38.5631L33.32 38.5071C33.32 37.9471 33.664 37.5231 34.264 37.5231C34.872 37.5231 35.256 37.9551 35.256 38.5311L35.256 38.5871C35.256 39.1391 34.96 39.5551 34.464 39.6591L34.464 40.6031C35.44 40.4911 36.08 39.6831 36.08 38.5631C36.08 37.3631 35.32 36.5791 34.224 36.5791C33.224 36.5791 32.496 37.2831 32.496 38.3231ZM36 34.1502L36 33.0542L34.904 33.0542L34.904 34.1502L36 34.1502ZM32.496 28.3294C32.496 28.7134 32.64 29.1214 32.864 29.3534L31.232 29.0014L31.232 26.6414L30.4 26.6414L30.4 29.7294L33.768 30.4094L33.768 29.5374C33.456 29.2814 33.32 28.8814 33.32 28.5694L33.32 28.5134C33.32 27.9534 33.664 27.5294 34.264 27.5294C34.872 27.5294 35.256 27.9614 35.256 28.5374L35.256 28.5934C35.256 29.1454 34.96 29.5614 34.464 29.6654L34.464 30.6094C35.44 30.4974 36.08 29.6894 36.08 28.5694C36.08 27.3694 35.32 26.5854 34.224 26.5854C33.224 26.5854 32.496 27.2894 32.496 28.3294ZM32.792 24.8445C32.792 24.1085 32.192 23.8045 31.584 23.8045C30.976 23.8045 30.368 24.1085 30.368 24.8445C30.368 25.5885 30.976 25.8925 31.584 25.8925C32.192 25.8925 32.792 25.5885 32.792 24.8445ZM36 25.6605L36 24.9245L30.4 21.5645L30.4 22.3005L36 25.6605ZM32.24 24.8605C32.24 25.1085 32 25.2445 31.584 25.2445C31.16 25.2445 30.92 25.1085 30.92 24.8605L30.92 24.8365C30.92 24.5885 31.16 24.4525 31.584 24.4525C32 24.4525 32.24 24.5885 32.24 24.8365L32.24 24.8605ZM36.024 22.3805C36.024 21.6445 35.424 21.3405 34.816 21.3405C34.208 21.3405 33.6 21.6445 33.6 22.3805C33.6 23.1245 34.208 23.4285 34.816 23.4285C35.424 23.4285 36.024 23.1245 36.024 22.3805ZM35.472 22.3965C35.472 22.6445 35.232 22.7805 34.816 22.7805C34.392 22.7805 34.152 22.6445 34.152 22.3965L34.152 22.3725C34.152 22.1245 34.392 21.9885 34.816 21.9885C35.232 21.9885 35.472 22.1245 35.472 22.3725L35.472 22.3965Z" fill="#D8C3AF"/>
<path d="M45.08 73.648C45.08 72.536 44.528 71.672 43.488 71.672C42.832 71.672 42.344 72.112 42.184 72.68C42.008 72.112 41.512 71.712 40.872 71.712C40 71.712 39.32 72.464 39.32 73.616C39.32 74.688 39.992 75.48 40.936 75.496L40.936 74.552C40.448 74.504 40.144 74.128 40.144 73.656L40.144 73.576C40.144 73.048 40.488 72.656 40.952 72.656C41.448 72.656 41.792 73.056 41.792 73.68L41.792 74.04L42.616 74.04L42.616 73.672C42.616 73.064 42.904 72.624 43.424 72.624C43.856 72.624 44.256 72.96 44.256 73.608L44.256 73.688C44.256 74.256 43.944 74.6 43.48 74.656L43.48 75.6C44.48 75.576 45.08 74.8 45.08 73.648ZM45.08 68.6031C45.08 67.4511 44.392 66.8111 43.568 66.8111C42.88 66.8111 42.464 67.2271 42.28 67.7551C42.088 67.1951 41.592 66.6991 40.848 66.6991C40.048 66.6991 39.32 67.3711 39.32 68.6031C39.32 69.8351 40.048 70.5071 40.848 70.5071C41.592 70.5071 42.088 70.0111 42.28 69.4511C42.464 69.9791 42.88 70.3951 43.568 70.3951C44.392 70.3951 45.08 69.7551 45.08 68.6031ZM41.84 68.6431C41.84 69.1471 41.48 69.5631 40.992 69.5631C40.496 69.5631 40.144 69.1551 40.144 68.6431L40.144 68.5631C40.144 68.0511 40.496 67.6431 40.992 67.6431C41.48 67.6431 41.84 68.0591 41.84 68.5631L41.84 68.6431ZM44.256 68.6431C44.256 69.0911 43.944 69.4591 43.464 69.4591C43 69.4591 42.672 69.0911 42.672 68.6431L42.672 68.5631C42.672 68.1151 43 67.7471 43.464 67.7471C43.944 67.7471 44.256 68.1151 44.256 68.5631L44.256 68.6431ZM45 64.1502L45 63.0542L43.904 63.0542L43.904 64.1502L45 64.1502ZM41.496 58.3294C41.496 58.7134 41.64 59.1214 41.864 59.3534L40.232 59.0014L40.232 56.6414L39.4 56.6414L39.4 59.7294L42.768 60.4094L42.768 59.5374C42.456 59.2814 42.32 58.8814 42.32 58.5694L42.32 58.5134C42.32 57.9534 42.664 57.5294 43.264 57.5294C43.872 57.5294 44.256 57.9614 44.256 58.5374L44.256 58.5934C44.256 59.1454 43.96 59.5614 43.464 59.6654L43.464 60.6094C44.44 60.4974 45.08 59.6894 45.08 58.5694C45.08 57.3694 44.32 56.5854 43.224 56.5854C42.224 56.5854 41.496 57.2894 41.496 58.3294ZM41.792 54.8445C41.792 54.1085 41.192 53.8045 40.584 53.8045C39.976 53.8045 39.368 54.1085 39.368 54.8445C39.368 55.5885 39.976 55.8925 40.584 55.8925C41.192 55.8925 41.792 55.5885 41.792 54.8445ZM45 55.6605L45 54.9245L39.4 51.5645L39.4 52.3005L45 55.6605ZM41.24 54.8605C41.24 55.1085 41 55.2445 40.584 55.2445C40.16 55.2445 39.92 55.1085 39.92 54.8605L39.92 54.8365C39.92 54.5885 40.16 54.4525 40.584 54.4525C41 54.4525 41.24 54.5885 41.24 54.8365L41.24 54.8605ZM45.024 52.3805C45.024 51.6445 44.424 51.3405 43.816 51.3405C43.208 51.3405 42.6 51.6445 42.6 52.3805C42.6 53.1245 43.208 53.4285 43.816 53.4285C44.424 53.4285 45.024 53.1245 45.024 52.3805ZM44.472 52.3965C44.472 52.6445 44.232 52.7805 43.816 52.7805C43.392 52.7805 43.152 52.6445 43.152 52.3965L43.152 52.3725C43.152 52.1245 43.392 51.9885 43.816 51.9885C44.232 51.9885 44.472 52.1245 44.472 52.3725L44.472 52.3965Z" fill="#D8C3AF"/>
<path d="M50.496 262.32C50.496 262.704 50.64 263.112 50.864 263.344L49.232 262.992L49.232 260.632L48.4 260.632L48.4 263.72L51.768 264.4L51.768 263.528C51.456 263.272 51.32 262.872 51.32 262.56L51.32 262.504C51.32 261.944 51.664 261.52 52.264 261.52C52.872 261.52 53.256 261.952 53.256 262.528L53.256 262.584C53.256 263.136 52.96 263.552 52.464 263.656L52.464 264.6C53.44 264.488 54.08 263.68 54.08 262.56C54.08 261.36 53.32 260.576 52.224 260.576C51.224 260.576 50.496 261.28 50.496 262.32ZM54 258.147L54 257.051L52.904 257.051L52.904 258.147L54 258.147ZM54.08 252.606C54.08 251.454 53.392 250.814 52.568 250.814C51.88 250.814 51.464 251.23 51.28 251.758C51.088 251.198 50.592 250.702 49.848 250.702C49.048 250.702 48.32 251.374 48.32 252.606C48.32 253.838 49.048 254.51 49.848 254.51C50.592 254.51 51.088 254.014 51.28 253.454C51.464 253.982 51.88 254.398 52.568 254.398C53.392 254.398 54.08 253.758 54.08 252.606ZM50.84 252.646C50.84 253.15 50.48 253.566 49.992 253.566C49.496 253.566 49.144 253.158 49.144 252.646L49.144 252.566C49.144 252.054 49.496 251.646 49.992 251.646C50.48 251.646 50.84 252.062 50.84 252.566L50.84 252.646ZM53.256 252.646C53.256 253.094 52.944 253.462 52.464 253.462C52 253.462 51.672 253.094 51.672 252.646L51.672 252.566C51.672 252.118 52 251.75 52.464 251.75C52.944 251.75 53.256 252.118 53.256 252.566L53.256 252.646ZM50.792 248.841C50.792 248.105 50.192 247.801 49.584 247.801C48.976 247.801 48.368 248.105 48.368 248.841C48.368 249.585 48.976 249.889 49.584 249.889C50.192 249.889 50.792 249.585 50.792 248.841ZM54 249.657L54 248.921L48.4 245.561L48.4 246.297L54 249.657ZM50.24 248.857C50.24 249.105 50 249.241 49.584 249.241C49.16 249.241 48.92 249.105 48.92 248.857L48.92 248.833C48.92 248.585 49.16 248.449 49.584 248.449C50 248.449 50.24 248.585 50.24 248.833L50.24 248.857ZM54.024 246.377C54.024 245.641 53.424 245.337 52.816 245.337C52.208 245.337 51.6 245.641 51.6 246.377C51.6 247.121 52.208 247.425 52.816 247.425C53.424 247.425 54.024 247.121 54.024 246.377ZM53.472 246.393C53.472 246.641 53.232 246.777 52.816 246.777C52.392 246.777 52.152 246.641 52.152 246.393L52.152 246.369C52.152 246.121 52.392 245.985 52.816 245.985C53.232 245.985 53.472 246.121 53.472 246.369L53.472 246.393Z" fill="#D8C3AF"/>
<path d="M60.992 267.16L57.4 267.16L57.4 268.104L60.872 270.784L61.816 270.784L61.816 268.056L63 268.056L63 267.16L61.816 267.16L61.816 266.296L60.992 266.296L60.992 267.16ZM60.992 269.872L58.64 268.056L60.992 268.056L60.992 269.872ZM63 264.147L63 263.051L61.904 263.051L61.904 264.147L63 264.147ZM62.168 259.342L60.672 257.75C60.04 257.078 59.608 256.742 58.896 256.742C57.984 256.742 57.32 257.47 57.32 258.566C57.32 259.67 58.008 260.478 59.128 260.478L59.128 259.534C58.512 259.518 58.144 259.134 58.144 258.598L58.144 258.518C58.144 258.03 58.488 257.686 58.928 257.686C59.336 257.686 59.592 257.894 60.224 258.55L62.128 260.534L63 260.534L63 256.662L62.168 256.662L62.168 259.342ZM59.792 254.841C59.792 254.105 59.192 253.801 58.584 253.801C57.976 253.801 57.368 254.105 57.368 254.841C57.368 255.585 57.976 255.889 58.584 255.889C59.192 255.889 59.792 255.585 59.792 254.841ZM63 255.657L63 254.921L57.4 251.561L57.4 252.297L63 255.657ZM59.24 254.857C59.24 255.105 59 255.241 58.584 255.241C58.16 255.241 57.92 255.105 57.92 254.857L57.92 254.833C57.92 254.585 58.16 254.449 58.584 254.449C59 254.449 59.24 254.585 59.24 254.833L59.24 254.857ZM63.024 252.377C63.024 251.641 62.424 251.337 61.816 251.337C61.208 251.337 60.6 251.641 60.6 252.377C60.6 253.121 61.208 253.425 61.816 253.425C62.424 253.425 63.024 253.121 63.024 252.377ZM62.472 252.393C62.472 252.641 62.232 252.777 61.816 252.777C61.392 252.777 61.152 252.641 61.152 252.393L61.152 252.369C61.152 252.121 61.392 251.985 61.816 251.985C62.232 251.985 62.472 252.121 62.472 252.369L62.472 252.393Z" fill="#D8C3AF"/>
<path d="M71.168 216.92L66.4 216.92L66.4 217.656L67.784 219.08L68.952 219.08L67.736 217.816L71.168 217.816L71.168 219.44L72 219.44L72 215.376L71.168 215.376L71.168 216.92ZM72.08 212.651C72.08 211.539 71.528 210.675 70.488 210.675C69.832 210.675 69.344 211.115 69.184 211.683C69.008 211.115 68.512 210.715 67.872 210.715C67 210.715 66.32 211.467 66.32 212.619C66.32 213.691 66.992 214.483 67.936 214.499L67.936 213.555C67.448 213.507 67.144 213.131 67.144 212.659L67.144 212.579C67.144 212.051 67.488 211.659 67.952 211.659C68.448 211.659 68.792 212.059 68.792 212.683L68.792 213.043L69.616 213.043L69.616 212.675C69.616 212.067 69.904 211.627 70.424 211.627C70.856 211.627 71.256 211.963 71.256 212.611L71.256 212.691C71.256 213.259 70.944 213.603 70.48 213.659L70.48 214.603C71.48 214.579 72.08 213.803 72.08 212.651ZM72 208.15L72 207.054L70.904 207.054L70.904 208.15L72 208.15ZM69.992 201.169L66.4 201.169L66.4 202.113L69.872 204.793L70.816 204.793L70.816 202.065L72 202.065L72 201.169L70.816 201.169L70.816 200.305L69.992 200.305L69.992 201.169ZM69.992 203.881L67.64 202.065L69.992 202.065L69.992 203.881ZM68.792 198.845C68.792 198.109 68.192 197.805 67.584 197.805C66.976 197.805 66.368 198.109 66.368 198.845C66.368 199.589 66.976 199.893 67.584 199.893C68.192 199.893 68.792 199.589 68.792 198.845ZM72 199.661L72 198.925L66.4 195.565L66.4 196.301L72 199.661ZM68.24 198.861C68.24 199.109 68 199.245 67.584 199.245C67.16 199.245 66.92 199.109 66.92 198.861L66.92 198.837C66.92 198.589 67.16 198.453 67.584 198.453C68 198.453 68.24 198.589 68.24 198.837L68.24 198.861ZM72.024 196.381C72.024 195.645 71.424 195.34 70.816 195.341C70.208 195.341 69.6 195.645 69.6 196.381C69.6 197.125 70.208 197.429 70.816 197.429C71.424 197.429 72.024 197.125 72.024 196.381ZM71.472 196.397C71.472 196.645 71.232 196.781 70.816 196.781C70.392 196.781 70.152 196.645 70.152 196.397L70.152 196.373C70.152 196.125 70.392 195.989 70.816 195.989C71.232 195.989 71.472 196.125 71.472 196.373L71.472 196.397Z" fill="#D8C3AF"/>
<path d="M80.168 224.92L75.4 224.92L75.4 225.656L76.784 227.08L77.952 227.08L76.736 225.816L80.168 225.816L80.168 227.44L81 227.44L81 223.376L80.168 223.376L80.168 224.92ZM80.168 221.339L78.672 219.747C78.04 219.075 77.608 218.739 76.896 218.739C75.984 218.739 75.32 219.467 75.32 220.563C75.32 221.667 76.008 222.475 77.128 222.475L77.128 221.531C76.512 221.515 76.144 221.131 76.144 220.595L76.144 220.515C76.144 220.027 76.488 219.683 76.928 219.683C77.336 219.683 77.592 219.891 78.224 220.547L80.128 222.531L81 222.531L81 218.659L80.168 218.659L80.168 221.339ZM77.792 216.838C77.792 216.102 77.192 215.798 76.584 215.798C75.976 215.798 75.368 216.102 75.368 216.838C75.368 217.582 75.976 217.886 76.584 217.886C77.192 217.886 77.792 217.582 77.792 216.838ZM81 217.654L81 216.918L75.4 213.558L75.4 214.294L81 217.654ZM77.24 216.854C77.24 217.102 77 217.238 76.584 217.238C76.16 217.238 75.92 217.102 75.92 216.854L75.92 216.83C75.92 216.582 76.16 216.446 76.584 216.446C77 216.446 77.24 216.582 77.24 216.83L77.24 216.854ZM81.024 214.374C81.024 213.638 80.424 213.334 79.816 213.334C79.208 213.334 78.6 213.638 78.6 214.374C78.6 215.118 79.208 215.422 79.816 215.422C80.424 215.422 81.024 215.118 81.024 214.374ZM80.472 214.39C80.472 214.638 80.232 214.774 79.816 214.774C79.392 214.774 79.152 214.638 79.152 214.39L79.152 214.366C79.152 214.118 79.392 213.982 79.816 213.982C80.232 213.982 80.472 214.118 80.472 214.366L80.472 214.39Z" fill="#D8C3AF"/>
<path d="M89.168 173.336L87.672 171.744C87.04 171.072 86.608 170.736 85.896 170.736C84.984 170.736 84.32 171.464 84.32 172.56C84.32 173.664 85.008 174.472 86.128 174.472L86.128 173.528C85.512 173.512 85.144 173.128 85.144 172.592L85.144 172.512C85.144 172.024 85.488 171.68 85.928 171.68C86.336 171.68 86.592 171.888 87.224 172.544L89.128 174.528L90 174.528L90 170.656L89.168 170.656L89.168 173.336ZM89.168 168.339L87.672 166.747C87.04 166.075 86.608 165.739 85.896 165.739C84.984 165.739 84.32 166.467 84.32 167.563C84.32 168.667 85.008 169.475 86.128 169.475L86.128 168.531C85.512 168.515 85.144 168.131 85.144 167.595L85.144 167.515C85.144 167.027 85.488 166.683 85.928 166.683C86.336 166.683 86.592 166.891 87.224 167.547L89.128 169.531L90 169.531L90 165.659L89.168 165.659L89.168 168.339ZM90 163.15L90 162.054L88.904 162.054L88.904 163.15L90 163.15ZM87.992 156.169L84.4 156.169L84.4 157.113L87.872 159.793L88.816 159.793L88.816 157.065L90 157.065L90 156.169L88.816 156.169L88.816 155.305L87.992 155.305L87.992 156.169ZM87.992 158.881L85.64 157.065L87.992 157.065L87.992 158.881ZM86.792 153.845C86.792 153.109 86.192 152.805 85.584 152.805C84.976 152.805 84.368 153.109 84.368 153.845C84.368 154.589 84.976 154.893 85.584 154.893C86.192 154.893 86.792 154.589 86.792 153.845ZM90 154.661L90 153.925L84.4 150.565L84.4 151.301L90 154.661ZM86.24 153.861C86.24 154.109 86 154.245 85.584 154.245C85.16 154.245 84.92 154.109 84.92 153.861L84.92 153.837C84.92 153.589 85.16 153.453 85.584 153.453C86 153.453 86.24 153.589 86.24 153.837L86.24 153.861ZM90.024 151.381C90.024 150.645 89.424 150.34 88.816 150.341C88.208 150.341 87.6 150.645 87.6 151.381C87.6 152.125 88.208 152.429 88.816 152.429C89.424 152.429 90.024 152.125 90.024 151.381ZM89.472 151.397C89.472 151.645 89.232 151.781 88.816 151.781C88.392 151.781 88.152 151.645 88.152 151.397L88.152 151.373C88.152 151.125 88.392 150.989 88.816 150.989C89.232 150.989 89.472 151.125 89.472 151.373L89.472 151.397Z" fill="#D8C3AF"/>
<path d="M116.168 182.336L114.672 180.744C114.04 180.072 113.608 179.736 112.896 179.736C111.984 179.736 111.32 180.464 111.32 181.56C111.32 182.664 112.008 183.472 113.128 183.472L113.128 182.528C112.512 182.512 112.144 182.128 112.144 181.592L112.144 181.512C112.144 181.024 112.488 180.68 112.928 180.68C113.336 180.68 113.592 180.888 114.224 181.544L116.128 183.528L117 183.528L117 179.656L116.168 179.656L116.168 182.336ZM111.312 176.603C111.312 177.963 112.432 178.755 114.192 178.755C115.944 178.755 117.072 177.995 117.072 176.603C117.072 175.211 115.944 174.451 114.192 174.451C112.432 174.451 111.312 175.243 111.312 176.603ZM112.136 176.635L112.136 176.571C112.136 176.171 112.328 175.875 112.696 175.675L114.944 177.755C114.72 177.795 114.472 177.811 114.192 177.811C112.896 177.811 112.136 177.427 112.136 176.635ZM116.24 176.571L116.24 176.635C116.24 177.011 116.072 177.291 115.752 177.491L113.536 175.435C113.736 175.411 113.952 175.395 114.192 175.395C115.48 175.395 116.24 175.779 116.24 176.571ZM113.792 172.838C113.792 172.102 113.192 171.798 112.584 171.798C111.976 171.798 111.368 172.102 111.368 172.838C111.368 173.582 111.976 173.886 112.584 173.886C113.192 173.886 113.792 173.582 113.792 172.838ZM117 173.654L117 172.918L111.4 169.558L111.4 170.294L117 173.654ZM113.24 172.854C113.24 173.102 113 173.238 112.584 173.238C112.16 173.238 111.92 173.102 111.92 172.854L111.92 172.83C111.92 172.582 112.16 172.446 112.584 172.446C113 172.446 113.24 172.582 113.24 172.83L113.24 172.854ZM117.024 170.374C117.024 169.638 116.424 169.334 115.816 169.334C115.208 169.334 114.6 169.638 114.6 170.374C114.6 171.118 115.208 171.422 115.816 171.422C116.424 171.422 117.024 171.118 117.024 170.374ZM116.472 170.39C116.472 170.638 116.232 170.774 115.816 170.774C115.392 170.774 115.152 170.638 115.152 170.39L115.152 170.366C115.152 170.118 115.392 169.982 115.816 169.982C116.232 169.982 116.472 170.118 116.472 170.366L116.472 170.39Z" fill="#D8C3AF"/>
<path d="M108.08 271.648C108.08 270.536 107.528 269.672 106.488 269.672C105.832 269.672 105.344 270.112 105.184 270.68C105.008 270.112 104.512 269.712 103.872 269.712C103 269.712 102.32 270.464 102.32 271.616C102.32 272.688 102.992 273.48 103.936 273.496L103.936 272.552C103.448 272.504 103.144 272.128 103.144 271.656L103.144 271.576C103.144 271.048 103.488 270.656 103.952 270.656C104.448 270.656 104.792 271.056 104.792 271.68L104.792 272.04L105.616 272.04L105.616 271.672C105.616 271.064 105.904 270.624 106.424 270.624C106.856 270.624 107.256 270.96 107.256 271.608L107.256 271.688C107.256 272.256 106.944 272.6 106.48 272.656L106.48 273.6C107.48 273.576 108.08 272.8 108.08 271.648ZM108 267.147L108 266.051L106.904 266.051L106.904 267.147L108 267.147ZM108.08 261.654C108.08 260.542 107.528 259.678 106.488 259.678C105.832 259.678 105.344 260.118 105.184 260.686C105.008 260.118 104.512 259.718 103.872 259.718C103 259.718 102.32 260.47 102.32 261.622C102.32 262.694 102.992 263.486 103.936 263.502L103.936 262.558C103.448 262.51 103.144 262.134 103.144 261.662L103.144 261.582C103.144 261.054 103.488 260.662 103.952 260.662C104.448 260.662 104.792 261.062 104.792 261.686L104.792 262.046L105.616 262.046L105.616 261.678C105.616 261.07 105.904 260.63 106.424 260.63C106.856 260.63 107.256 260.966 107.256 261.614L107.256 261.694C107.256 262.262 106.944 262.606 106.48 262.662L106.48 263.606C107.48 263.582 108.08 262.806 108.08 261.654ZM104.792 257.841C104.792 257.105 104.192 256.801 103.584 256.801C102.976 256.801 102.368 257.105 102.368 257.841C102.368 258.585 102.976 258.889 103.584 258.889C104.192 258.889 104.792 258.585 104.792 257.841ZM108 258.657L108 257.921L102.4 254.561L102.4 255.297L108 258.657ZM104.24 257.857C104.24 258.105 104 258.241 103.584 258.241C103.16 258.241 102.92 258.105 102.92 257.857L102.92 257.833C102.92 257.585 103.16 257.449 103.584 257.449C104 257.449 104.24 257.585 104.24 257.833L104.24 257.857ZM108.024 255.377C108.024 254.641 107.424 254.337 106.816 254.337C106.208 254.337 105.6 254.641 105.6 255.377C105.6 256.121 106.208 256.425 106.816 256.425C107.424 256.425 108.024 256.121 108.024 255.377ZM107.472 255.393C107.472 255.641 107.232 255.777 106.816 255.777C106.392 255.777 106.152 255.641 106.152 255.393L106.152 255.369C106.152 255.121 106.392 254.985 106.816 254.985C107.232 254.985 107.472 255.121 107.472 255.369L107.472 255.393Z" fill="#D8C3AF"/>
<path d="M125.168 232.92L120.4 232.92L120.4 233.656L121.784 235.08L122.952 235.08L121.736 233.816L125.168 233.816L125.168 235.44L126 235.44L126 231.376L125.168 231.376L125.168 232.92ZM125.168 227.923L120.4 227.923L120.4 228.659L121.784 230.083L122.952 230.083L121.736 228.819L125.168 228.819L125.168 230.443L126 230.443L126 226.379L125.168 226.379L125.168 227.923ZM126 224.15L126 223.054L124.904 223.054L124.904 224.15L126 224.15ZM122.32 218.353C122.32 218.993 122.616 219.561 123.128 219.817C121.728 219.705 121.144 218.993 121.144 218.313L121.144 218.249C121.144 217.737 121.448 217.441 121.816 217.385L121.816 216.441C120.888 216.569 120.32 217.281 120.32 218.217C120.32 219.593 121.536 220.665 123.376 220.665C125.088 220.665 126.08 219.889 126.08 218.545C126.08 217.289 125.208 216.545 124.152 216.545C123.04 216.545 122.32 217.361 122.32 218.353ZM125.256 218.505L125.256 218.577C125.256 219.201 124.8 219.641 124.2 219.641C123.592 219.641 123.144 219.185 123.144 218.577L123.144 218.505C123.144 217.905 123.608 217.489 124.2 217.489C124.792 217.489 125.256 217.913 125.256 218.505ZM122.792 214.845C122.792 214.109 122.192 213.805 121.584 213.805C120.976 213.805 120.368 214.109 120.368 214.845C120.368 215.589 120.976 215.893 121.584 215.893C122.192 215.893 122.792 215.589 122.792 214.845ZM126 215.661L126 214.925L120.4 211.565L120.4 212.301L126 215.661ZM122.24 214.861C122.24 215.109 122 215.245 121.584 215.245C121.16 215.245 120.92 215.109 120.92 214.861L120.92 214.837C120.92 214.589 121.16 214.453 121.584 214.453C122 214.453 122.24 214.589 122.24 214.837L122.24 214.861ZM126.024 212.381C126.024 211.645 125.424 211.34 124.816 211.341C124.208 211.341 123.6 211.645 123.6 212.381C123.6 213.125 124.208 213.429 124.816 213.429C125.424 213.429 126.024 213.125 126.024 212.381ZM125.472 212.397C125.472 212.645 125.232 212.781 124.816 212.781C124.392 212.781 124.152 212.645 124.152 212.397L124.152 212.373C124.152 212.125 124.392 211.989 124.816 211.989C125.232 211.989 125.472 212.125 125.472 212.373L125.472 212.397Z" fill="#D8C3AF"/>
<path d="M132.992 264.16L129.4 264.16L129.4 265.104L132.872 267.784L133.816 267.784L133.816 265.056L135 265.056L135 264.16L133.816 264.16L133.816 263.296L132.992 263.296L132.992 264.16ZM132.992 266.872L130.64 265.056L132.992 265.056L132.992 266.872ZM135 261.147L135 260.051L133.904 260.051L133.904 261.147L135 261.147ZM131.496 255.326C131.496 255.71 131.64 256.118 131.864 256.35L130.232 255.998L130.232 253.638L129.4 253.638L129.4 256.726L132.768 257.406L132.768 256.534C132.456 256.278 132.32 255.878 132.32 255.566L132.32 255.51C132.32 254.95 132.664 254.526 133.264 254.526C133.872 254.526 134.256 254.958 134.256 255.534L134.256 255.59C134.256 256.142 133.96 256.558 133.464 256.662L133.464 257.606C134.44 257.494 135.08 256.686 135.08 255.566C135.08 254.366 134.32 253.582 133.224 253.582C132.224 253.582 131.496 254.286 131.496 255.326ZM131.792 251.841C131.792 251.105 131.192 250.801 130.584 250.801C129.976 250.801 129.368 251.105 129.368 251.841C129.368 252.585 129.976 252.889 130.584 252.889C131.192 252.889 131.792 252.585 131.792 251.841ZM135 252.657L135 251.921L129.4 248.561L129.4 249.297L135 252.657ZM131.24 251.857C131.24 252.105 131 252.241 130.584 252.241C130.16 252.241 129.92 252.105 129.92 251.857L129.92 251.833C129.92 251.585 130.16 251.449 130.584 251.449C131 251.449 131.24 251.585 131.24 251.833L131.24 251.857ZM135.024 249.377C135.024 248.641 134.424 248.337 133.816 248.337C133.208 248.337 132.6 248.641 132.6 249.377C132.6 250.121 133.208 250.425 133.816 250.425C134.424 250.425 135.024 250.121 135.024 249.377ZM134.472 249.393C134.472 249.641 134.232 249.777 133.816 249.777C133.392 249.777 133.152 249.641 133.152 249.393L133.152 249.369C133.152 249.121 133.392 248.985 133.816 248.985C134.232 248.985 134.472 249.121 134.472 249.369L134.472 249.393Z" fill="#D8C3AF"/>
<path d="M143.168 233.92L138.4 233.92L138.4 234.656L139.784 236.08L140.952 236.08L139.736 234.816L143.168 234.816L143.168 236.44L144 236.44L144 232.376L143.168 232.376L143.168 233.92ZM138.312 229.603C138.312 230.963 139.432 231.755 141.192 231.755C142.944 231.755 144.072 230.995 144.072 229.603C144.072 228.211 142.944 227.451 141.192 227.451C139.432 227.451 138.312 228.243 138.312 229.603ZM139.136 229.635L139.136 229.571C139.136 229.171 139.328 228.875 139.696 228.675L141.944 230.755C141.72 230.795 141.472 230.811 141.192 230.811C139.896 230.811 139.136 230.427 139.136 229.635ZM143.24 229.571L143.24 229.635C143.24 230.011 143.072 230.291 142.752 230.491L140.536 228.435C140.736 228.411 140.952 228.395 141.192 228.395C142.48 228.395 143.24 228.779 143.24 229.571ZM144 225.15L144 224.054L142.904 224.054L142.904 225.15L144 225.15ZM140.32 219.353C140.32 219.993 140.616 220.561 141.128 220.817C139.728 220.705 139.144 219.993 139.144 219.313L139.144 219.249C139.144 218.737 139.448 218.441 139.816 218.385L139.816 217.441C138.888 217.569 138.32 218.281 138.32 219.217C138.32 220.593 139.536 221.665 141.376 221.665C143.088 221.665 144.08 220.889 144.08 219.545C144.08 218.289 143.208 217.545 142.152 217.545C141.04 217.545 140.32 218.361 140.32 219.353ZM143.256 219.505L143.256 219.577C143.256 220.201 142.8 220.641 142.2 220.641C141.592 220.641 141.144 220.185 141.144 219.577L141.144 219.505C141.144 218.905 141.608 218.489 142.2 218.489C142.792 218.489 143.256 218.913 143.256 219.505ZM140.792 215.845C140.792 215.109 140.192 214.805 139.584 214.805C138.976 214.805 138.368 215.109 138.368 215.845C138.368 216.589 138.976 216.893 139.584 216.893C140.192 216.893 140.792 216.589 140.792 215.845ZM144 216.661L144 215.925L138.4 212.565L138.4 213.301L144 216.661ZM140.24 215.861C140.24 216.109 140 216.245 139.584 216.245C139.16 216.245 138.92 216.109 138.92 215.861L138.92 215.837C138.92 215.589 139.16 215.453 139.584 215.453C140 215.453 140.24 215.589 140.24 215.837L140.24 215.861ZM144.024 213.381C144.024 212.645 143.424 212.34 142.816 212.341C142.208 212.341 141.6 212.645 141.6 213.381C141.6 214.125 142.208 214.429 142.816 214.429C143.424 214.429 144.024 214.125 144.024 213.381ZM143.472 213.397C143.472 213.645 143.232 213.781 142.816 213.781C142.392 213.781 142.152 213.645 142.152 213.397L142.152 213.373C142.152 213.125 142.392 212.989 142.816 212.989C143.232 212.989 143.472 213.125 143.472 213.373L143.472 213.397Z" fill="#D8C3AF"/>
<path d="M168.992 266.16L165.4 266.16L165.4 267.104L168.872 269.784L169.816 269.784L169.816 267.056L171 267.056L171 266.16L169.816 266.16L169.816 265.296L168.992 265.296L168.992 266.16ZM168.992 268.872L166.64 267.056L168.992 267.056L168.992 268.872ZM167.792 263.835C167.792 263.099 167.192 262.795 166.584 262.795C165.976 262.795 165.368 263.099 165.368 263.835C165.368 264.579 165.976 264.883 166.584 264.883C167.192 264.883 167.792 264.579 167.792 263.835ZM171 264.651L171 263.915L165.4 260.555L165.4 261.291L171 264.651ZM167.24 263.851C167.24 264.099 167 264.235 166.584 264.235C166.16 264.235 165.92 264.099 165.92 263.851L165.92 263.827C165.92 263.579 166.16 263.443 166.584 263.443C167 263.443 167.24 263.579 167.24 263.827L167.24 263.851ZM171.024 261.371C171.024 260.635 170.424 260.331 169.816 260.331C169.208 260.331 168.6 260.635 168.6 261.371C168.6 262.115 169.208 262.419 169.816 262.419C170.424 262.419 171.024 262.115 171.024 261.371ZM170.472 261.387C170.472 261.635 170.232 261.771 169.816 261.771C169.392 261.771 169.152 261.635 169.152 261.387L169.152 261.363C169.152 261.115 169.392 260.979 169.816 260.979C170.232 260.979 170.472 261.115 170.472 261.363L170.472 261.387Z" fill="#D8C3AF"/>
<path d="M150.952 354.504L150.952 352.264L150.208 352.264L150.208 354.504L150.952 354.504ZM150.992 346.947L147.4 346.947L147.4 347.891L150.872 350.571L151.816 350.571L151.816 347.843L153 347.843L153 346.947L151.816 346.947L151.816 346.083L150.992 346.083L150.992 346.947ZM150.992 349.659L148.64 347.843L150.992 347.843L150.992 349.659ZM153 343.935L153 342.839L151.904 342.839L151.904 343.935L153 343.935ZM150.992 336.954L147.4 336.954L147.4 337.898L150.872 340.578L151.816 340.578L151.816 337.85L153 337.85L153 336.954L151.816 336.954L151.816 336.09L150.992 336.09L150.992 336.954ZM150.992 339.666L148.64 337.85L150.992 337.85L150.992 339.666ZM149.792 334.629C149.792 333.893 149.192 333.589 148.584 333.589C147.976 333.589 147.368 333.893 147.368 334.629C147.368 335.373 147.976 335.677 148.584 335.677C149.192 335.677 149.792 335.373 149.792 334.629ZM153 335.445L153 334.709L147.4 331.349L147.4 332.085L153 335.445ZM149.24 334.645C149.24 334.893 149 335.029 148.584 335.029C148.16 335.029 147.92 334.893 147.92 334.645L147.92 334.621C147.92 334.373 148.16 334.237 148.584 334.237C149 334.237 149.24 334.373 149.24 334.621L149.24 334.645ZM153.024 332.165C153.024 331.429 152.424 331.125 151.816 331.125C151.208 331.125 150.6 331.429 150.6 332.165C150.6 332.909 151.208 333.213 151.816 333.213C152.424 333.213 153.024 332.909 153.024 332.165ZM152.472 332.181C152.472 332.429 152.232 332.565 151.816 332.565C151.392 332.565 151.152 332.429 151.152 332.181L151.152 332.157C151.152 331.909 151.392 331.773 151.816 331.773C152.232 331.773 152.472 331.909 152.472 332.157L152.472 332.181Z" fill="#D8C3AF"/>
<path d="M159.952 333.504L159.952 331.264L159.208 331.264L159.208 333.504L159.952 333.504ZM161.168 326.707L156.4 326.707L156.4 327.443L157.784 328.867L158.952 328.867L157.736 327.603L161.168 327.603L161.168 329.227L162 329.227L162 325.163L161.168 325.163L161.168 326.707ZM162 322.935L162 321.839L160.904 321.839L160.904 322.935L162 322.935ZM158.496 317.114C158.496 317.498 158.64 317.906 158.864 318.138L157.232 317.786L157.232 315.426L156.4 315.426L156.4 318.514L159.768 319.194L159.768 318.322C159.456 318.066 159.32 317.666 159.32 317.354L159.32 317.298C159.32 316.738 159.664 316.314 160.264 316.314C160.872 316.314 161.256 316.746 161.256 317.322L161.256 317.378C161.256 317.93 160.96 318.346 160.464 318.45L160.464 319.394C161.44 319.282 162.08 318.474 162.08 317.354C162.08 316.154 161.32 315.37 160.224 315.37C159.224 315.37 158.496 316.074 158.496 317.114ZM158.792 313.629C158.792 312.893 158.192 312.589 157.584 312.589C156.976 312.589 156.368 312.893 156.368 313.629C156.368 314.373 156.976 314.677 157.584 314.677C158.192 314.677 158.792 314.373 158.792 313.629ZM162 314.445L162 313.709L156.4 310.349L156.4 311.085L162 314.445ZM158.24 313.645C158.24 313.893 158 314.029 157.584 314.029C157.16 314.029 156.92 313.893 156.92 313.645L156.92 313.621C156.92 313.373 157.16 313.237 157.584 313.237C158 313.237 158.24 313.373 158.24 313.621L158.24 313.645ZM162.024 311.165C162.024 310.429 161.424 310.125 160.816 310.125C160.208 310.125 159.6 310.429 159.6 311.165C159.6 311.909 160.208 312.213 160.816 312.213C161.424 312.213 162.024 311.909 162.024 311.165ZM161.472 311.181C161.472 311.429 161.232 311.565 160.816 311.565C160.392 311.565 160.152 311.429 160.152 311.181L160.152 311.157C160.152 310.909 160.392 310.773 160.816 310.773C161.232 310.773 161.472 310.909 161.472 311.157L161.472 311.181Z" fill="#D8C3AF"/>
<path d="M179.168 205.92L174.4 205.92L174.4 206.656L175.784 208.08L176.952 208.08L175.736 206.816L179.168 206.816L179.168 208.44L180 208.44L180 204.376L179.168 204.376L179.168 205.92ZM176.496 201.323C176.496 201.707 176.64 202.115 176.864 202.347L175.232 201.995L175.232 199.635L174.4 199.635L174.4 202.723L177.768 203.403L177.768 202.531C177.456 202.275 177.32 201.875 177.32 201.563L177.32 201.507C177.32 200.947 177.664 200.523 178.264 200.523C178.872 200.523 179.256 200.955 179.256 201.531L179.256 201.587C179.256 202.139 178.96 202.555 178.464 202.659L178.464 203.603C179.44 203.491 180.08 202.683 180.08 201.563C180.08 200.363 179.32 199.579 178.224 199.579C177.224 199.579 176.496 200.283 176.496 201.323ZM180 197.15L180 196.054L178.904 196.054L178.904 197.15L180 197.15ZM176.496 191.329C176.496 191.713 176.64 192.121 176.864 192.353L175.232 192.001L175.232 189.641L174.4 189.641L174.4 192.729L177.768 193.409L177.768 192.537C177.456 192.281 177.32 191.881 177.32 191.569L177.32 191.513C177.32 190.953 177.664 190.529 178.264 190.529C178.872 190.529 179.256 190.961 179.256 191.537L179.256 191.593C179.256 192.145 178.96 192.561 178.464 192.665L178.464 193.609C179.44 193.497 180.08 192.689 180.08 191.569C180.08 190.369 179.32 189.585 178.224 189.585C177.224 189.585 176.496 190.289 176.496 191.329ZM176.792 187.845C176.792 187.109 176.192 186.805 175.584 186.805C174.976 186.805 174.368 187.109 174.368 187.845C174.368 188.589 174.976 188.893 175.584 188.893C176.192 188.893 176.792 188.589 176.792 187.845ZM180 188.661L180 187.925L174.4 184.565L174.4 185.301L180 188.661ZM176.24 187.861C176.24 188.109 176 188.245 175.584 188.245C175.16 188.245 174.92 188.109 174.92 187.861L174.92 187.837C174.92 187.589 175.16 187.453 175.584 187.453C176 187.453 176.24 187.589 176.24 187.837L176.24 187.861ZM180.024 185.381C180.024 184.645 179.424 184.34 178.816 184.341C178.208 184.341 177.6 184.645 177.6 185.381C177.6 186.125 178.208 186.429 178.816 186.429C179.424 186.429 180.024 186.125 180.024 185.381ZM179.472 185.397C179.472 185.645 179.232 185.781 178.816 185.781C178.392 185.781 178.152 185.645 178.152 185.397L178.152 185.373C178.152 185.125 178.392 184.989 178.816 184.989C179.232 184.989 179.472 185.125 179.472 185.373L179.472 185.397Z" fill="#D8C3AF"/>
<path d="M183.32 239.664C183.32 240.92 184.192 241.664 185.248 241.664C186.36 241.664 187.08 240.848 187.08 239.856C187.08 239.216 186.784 238.648 186.272 238.392C187.672 238.504 188.256 239.216 188.256 239.896L188.256 239.96C188.256 240.472 187.952 240.768 187.584 240.824L187.584 241.768C188.512 241.64 189.08 240.928 189.08 239.992C189.08 238.616 187.864 237.544 186.024 237.544C184.312 237.544 183.32 238.32 183.32 239.664ZM186.256 239.632L186.256 239.704C186.256 240.304 185.792 240.72 185.2 240.72C184.608 240.72 184.144 240.296 184.144 239.704L184.144 239.632C184.144 239.008 184.6 238.568 185.2 238.568C185.808 238.568 186.256 239.024 186.256 239.632ZM189 235.147L189 234.051L187.904 234.051L187.904 235.147L189 235.147ZM185.32 229.35C185.32 229.99 185.616 230.558 186.128 230.814C184.728 230.702 184.144 229.99 184.144 229.31L184.144 229.246C184.144 228.734 184.448 228.438 184.816 228.382L184.816 227.438C183.888 227.566 183.32 228.278 183.32 229.214C183.32 230.59 184.536 231.662 186.376 231.662C188.088 231.662 189.08 230.886 189.08 229.542C189.08 228.286 188.208 227.542 187.152 227.542C186.04 227.542 185.32 228.358 185.32 229.35ZM188.256 229.502L188.256 229.574C188.256 230.198 187.8 230.638 187.2 230.638C186.592 230.638 186.144 230.182 186.144 229.574L186.144 229.502C186.144 228.902 186.608 228.486 187.2 228.486C187.792 228.486 188.256 228.91 188.256 229.502ZM185.792 225.841C185.792 225.105 185.192 224.801 184.584 224.801C183.976 224.801 183.368 225.105 183.368 225.841C183.368 226.585 183.976 226.889 184.584 226.889C185.192 226.889 185.792 226.585 185.792 225.841ZM189 226.657L189 225.921L183.4 222.561L183.4 223.297L189 226.657ZM185.24 225.857C185.24 226.105 185 226.241 184.584 226.241C184.16 226.241 183.92 226.105 183.92 225.857L183.92 225.833C183.92 225.585 184.16 225.449 184.584 225.449C185 225.449 185.24 225.585 185.24 225.833L185.24 225.857ZM189.024 223.377C189.024 222.641 188.424 222.337 187.816 222.337C187.208 222.337 186.6 222.641 186.6 223.377C186.6 224.121 187.208 224.425 187.816 224.425C188.424 224.425 189.024 224.121 189.024 223.377ZM188.472 223.393C188.472 223.641 188.232 223.777 187.816 223.777C187.392 223.777 187.152 223.641 187.152 223.393L187.152 223.369C187.152 223.121 187.392 222.985 187.816 222.985C188.232 222.985 188.472 223.121 188.472 223.369L188.472 223.393Z" fill="#D8C3AF"/>
<path d="M197.168 284.92L192.4 284.92L192.4 285.656L193.784 287.08L194.952 287.08L193.736 285.816L197.168 285.816L197.168 287.44L198 287.44L198 283.376L197.168 283.376L197.168 284.92ZM198 281.147L198 280.051L196.904 280.051L196.904 281.147L198 281.147ZM192.4 277.582L193.264 277.582L193.264 274.718C193.976 275.718 195.28 276.646 197.544 276.646L198 276.646L198 275.67L197.56 275.67C195.28 275.67 194 274.822 193.224 273.622L192.4 273.622L192.4 277.582ZM194.792 271.841C194.792 271.105 194.192 270.801 193.584 270.801C192.976 270.801 192.368 271.105 192.368 271.841C192.368 272.585 192.976 272.889 193.584 272.889C194.192 272.889 194.792 272.585 194.792 271.841ZM198 272.657L198 271.921L192.4 268.561L192.4 269.297L198 272.657ZM194.24 271.857C194.24 272.105 194 272.241 193.584 272.241C193.16 272.241 192.92 272.105 192.92 271.857L192.92 271.833C192.92 271.585 193.16 271.449 193.584 271.449C194 271.449 194.24 271.585 194.24 271.833L194.24 271.857ZM198.024 269.377C198.024 268.641 197.424 268.337 196.816 268.337C196.208 268.337 195.6 268.641 195.6 269.377C195.6 270.121 196.208 270.425 196.816 270.425C197.424 270.425 198.024 270.121 198.024 269.377ZM197.472 269.393C197.472 269.641 197.232 269.777 196.816 269.777C196.392 269.777 196.152 269.641 196.152 269.393L196.152 269.369C196.152 269.121 196.392 268.985 196.816 268.985C197.232 268.985 197.472 269.121 197.472 269.369L197.472 269.393Z" fill="#D8C3AF"/>
<path d="M206.168 286.92L201.4 286.92L201.4 287.656L202.784 289.08L203.952 289.08L202.736 287.816L206.168 287.816L206.168 289.44L207 289.44L207 285.376L206.168 285.376L206.168 286.92ZM207 283.147L207 282.051L205.904 282.051L205.904 283.147L207 283.147ZM203.496 277.326C203.496 277.71 203.64 278.118 203.864 278.35L202.232 277.998L202.232 275.638L201.4 275.638L201.4 278.726L204.768 279.406L204.768 278.534C204.456 278.278 204.32 277.878 204.32 277.566L204.32 277.51C204.32 276.95 204.664 276.526 205.264 276.526C205.872 276.526 206.256 276.958 206.256 277.534L206.256 277.59C206.256 278.142 205.96 278.558 205.464 278.662L205.464 279.606C206.44 279.494 207.08 278.686 207.08 277.566C207.08 276.366 206.32 275.582 205.224 275.582C204.224 275.582 203.496 276.286 203.496 277.326ZM203.792 273.841C203.792 273.105 203.192 272.801 202.584 272.801C201.976 272.801 201.368 273.105 201.368 273.841C201.368 274.585 201.976 274.889 202.584 274.889C203.192 274.889 203.792 274.585 203.792 273.841ZM207 274.657L207 273.921L201.4 270.561L201.4 271.297L207 274.657ZM203.24 273.857C203.24 274.105 203 274.241 202.584 274.241C202.16 274.241 201.92 274.105 201.92 273.857L201.92 273.833C201.92 273.585 202.16 273.449 202.584 273.449C203 273.449 203.24 273.585 203.24 273.833L203.24 273.857ZM207.024 271.377C207.024 270.641 206.424 270.337 205.816 270.337C205.208 270.337 204.6 270.641 204.6 271.377C204.6 272.121 205.208 272.425 205.816 272.425C206.424 272.425 207.024 272.121 207.024 271.377ZM206.472 271.393C206.472 271.641 206.232 271.777 205.816 271.777C205.392 271.777 205.152 271.641 205.152 271.393L205.152 271.369C205.152 271.121 205.392 270.985 205.816 270.985C206.232 270.985 206.472 271.121 206.472 271.369L206.472 271.393Z" fill="#D8C3AF"/>
<path d="M212.32 259.344C212.32 259.984 212.616 260.552 213.128 260.808C211.728 260.696 211.144 259.984 211.144 259.304L211.144 259.24C211.144 258.728 211.448 258.432 211.816 258.376L211.816 257.432C210.888 257.56 210.32 258.272 210.32 259.208C210.32 260.584 211.536 261.656 213.376 261.656C215.088 261.656 216.08 260.88 216.08 259.536C216.08 258.28 215.208 257.536 214.152 257.536C213.04 257.536 212.32 258.352 212.32 259.344ZM215.256 259.496L215.256 259.568C215.256 260.192 214.8 260.632 214.2 260.632C213.592 260.632 213.144 260.176 213.144 259.568L213.144 259.496C213.144 258.896 213.608 258.48 214.2 258.48C214.792 258.48 215.256 258.904 215.256 259.496ZM216 255.147L216 254.051L214.904 254.051L214.904 255.147L216 255.147ZM213.992 248.166L210.4 248.166L210.4 249.11L213.872 251.79L214.816 251.79L214.816 249.062L216 249.062L216 248.166L214.816 248.166L214.816 247.302L213.992 247.302L213.992 248.166ZM213.992 250.878L211.64 249.062L213.992 249.062L213.992 250.878ZM212.792 245.841C212.792 245.105 212.192 244.801 211.584 244.801C210.976 244.801 210.368 245.105 210.368 245.841C210.368 246.585 210.976 246.889 211.584 246.889C212.192 246.889 212.792 246.585 212.792 245.841ZM216 246.657L216 245.921L210.4 242.561L210.4 243.297L216 246.657ZM212.24 245.857C212.24 246.105 212 246.241 211.584 246.241C211.16 246.241 210.92 246.105 210.92 245.857L210.92 245.833C210.92 245.585 211.16 245.449 211.584 245.449C212 245.449 212.24 245.585 212.24 245.833L212.24 245.857ZM216.024 243.377C216.024 242.641 215.424 242.337 214.816 242.337C214.208 242.337 213.6 242.641 213.6 243.377C213.6 244.121 214.208 244.425 214.816 244.425C215.424 244.425 216.024 244.121 216.024 243.377ZM215.472 243.393C215.472 243.641 215.232 243.777 214.816 243.777C214.392 243.777 214.152 243.641 214.152 243.393L214.152 243.369C214.152 243.121 214.392 242.985 214.816 242.985C215.232 242.985 215.472 243.121 215.472 243.369L215.472 243.393Z" fill="#D8C3AF"/>
<path d="M224.168 206.92L219.4 206.92L219.4 207.656L220.784 209.08L221.952 209.08L220.736 207.816L224.168 207.816L224.168 209.44L225 209.44L225 205.376L224.168 205.376L224.168 206.92ZM221.496 202.323C221.496 202.707 221.64 203.115 221.864 203.347L220.232 202.995L220.232 200.635L219.4 200.635L219.4 203.723L222.768 204.403L222.768 203.531C222.456 203.275 222.32 202.875 222.32 202.563L222.32 202.507C222.32 201.947 222.664 201.523 223.264 201.523C223.872 201.523 224.256 201.955 224.256 202.531L224.256 202.587C224.256 203.139 223.96 203.555 223.464 203.659L223.464 204.603C224.44 204.491 225.08 203.683 225.08 202.563C225.08 201.363 224.32 200.579 223.224 200.579C222.224 200.579 221.496 201.283 221.496 202.323ZM221.792 198.838C221.792 198.102 221.192 197.798 220.584 197.798C219.976 197.798 219.368 198.102 219.368 198.838C219.368 199.582 219.976 199.886 220.584 199.886C221.192 199.886 221.792 199.582 221.792 198.838ZM225 199.654L225 198.918L219.4 195.558L219.4 196.294L225 199.654ZM221.24 198.854C221.24 199.102 221 199.238 220.584 199.238C220.16 199.238 219.92 199.102 219.92 198.854L219.92 198.83C219.92 198.582 220.16 198.446 220.584 198.446C221 198.446 221.24 198.582 221.24 198.83L221.24 198.854ZM225.024 196.374C225.024 195.638 224.424 195.334 223.816 195.334C223.208 195.334 222.6 195.638 222.6 196.374C222.6 197.118 223.208 197.422 223.816 197.422C224.424 197.422 225.024 197.118 225.024 196.374ZM224.472 196.39C224.472 196.638 224.232 196.774 223.816 196.774C223.392 196.774 223.152 196.638 223.152 196.39L223.152 196.366C223.152 196.118 223.392 195.982 223.816 195.982C224.232 195.982 224.472 196.118 224.472 196.366L224.472 196.39Z" fill="#D8C3AF"/>
<path d="M233.168 129.336L231.672 127.744C231.04 127.072 230.608 126.736 229.896 126.736C228.984 126.736 228.32 127.464 228.32 128.56C228.32 129.664 229.008 130.472 230.128 130.472L230.128 129.528C229.512 129.512 229.144 129.128 229.144 128.592L229.144 128.512C229.144 128.024 229.488 127.68 229.928 127.68C230.336 127.68 230.592 127.888 231.224 128.544L233.128 130.528L234 130.528L234 126.656L233.168 126.656L233.168 129.336ZM228.32 123.667C228.32 124.923 229.192 125.667 230.248 125.667C231.36 125.667 232.08 124.851 232.08 123.859C232.08 123.219 231.784 122.651 231.272 122.395C232.672 122.507 233.256 123.219 233.256 123.899L233.256 123.963C233.256 124.475 232.952 124.771 232.584 124.827L232.584 125.771C233.512 125.643 234.08 124.931 234.08 123.995C234.08 122.619 232.864 121.547 231.024 121.547C229.312 121.547 228.32 122.323 228.32 123.667ZM231.256 123.635L231.256 123.707C231.256 124.307 230.792 124.723 230.2 124.723C229.608 124.723 229.144 124.299 229.144 123.707L229.144 123.635C229.144 123.011 229.6 122.571 230.2 122.571C230.808 122.571 231.256 123.027 231.256 123.635ZM234 119.15L234 118.054L232.904 118.054L232.904 119.15L234 119.15ZM233.168 114.345L231.672 112.753C231.04 112.081 230.608 111.745 229.896 111.745C228.984 111.745 228.32 112.473 228.32 113.569C228.32 114.673 229.008 115.481 230.128 115.481L230.128 114.537C229.512 114.521 229.144 114.137 229.144 113.601L229.144 113.521C229.144 113.033 229.488 112.689 229.928 112.689C230.336 112.689 230.592 112.897 231.224 113.553L233.128 115.537L234 115.537L234 111.665L233.168 111.665L233.168 114.345ZM230.792 109.845C230.792 109.109 230.192 108.805 229.584 108.805C228.976 108.805 228.368 109.109 228.368 109.845C228.368 110.589 228.976 110.893 229.584 110.893C230.192 110.893 230.792 110.589 230.792 109.845ZM234 110.661L234 109.925L228.4 106.565L228.4 107.301L234 110.661ZM230.24 109.861C230.24 110.109 230 110.245 229.584 110.245C229.16 110.245 228.92 110.109 228.92 109.861L228.92 109.837C228.92 109.589 229.16 109.453 229.584 109.453C230 109.453 230.24 109.589 230.24 109.837L230.24 109.861ZM234.024 107.381C234.024 106.645 233.424 106.34 232.816 106.341C232.208 106.341 231.6 106.645 231.6 107.381C231.6 108.125 232.208 108.429 232.816 108.429C233.424 108.429 234.024 108.125 234.024 107.381ZM233.472 107.397C233.472 107.645 233.232 107.781 232.816 107.781C232.392 107.781 232.152 107.645 232.152 107.397L232.152 107.373C232.152 107.125 232.392 106.989 232.816 106.989C233.232 106.989 233.472 107.125 233.472 107.373L233.472 107.397Z" fill="#D8C3AF"/>
<path d="M242.168 165.336L240.672 163.744C240.04 163.072 239.608 162.736 238.896 162.736C237.984 162.736 237.32 163.464 237.32 164.56C237.32 165.664 238.008 166.472 239.128 166.472L239.128 165.528C238.512 165.512 238.144 165.128 238.144 164.592L238.144 164.512C238.144 164.024 238.488 163.68 238.928 163.68C239.336 163.68 239.592 163.888 240.224 164.544L242.128 166.528L243 166.528L243 162.656L242.168 162.656L242.168 165.336ZM243.08 159.651C243.08 158.539 242.528 157.675 241.488 157.675C240.832 157.675 240.344 158.115 240.184 158.683C240.008 158.115 239.512 157.715 238.872 157.715C238 157.715 237.32 158.467 237.32 159.619C237.32 160.691 237.992 161.483 238.936 161.499L238.936 160.555C238.448 160.507 238.144 160.131 238.144 159.659L238.144 159.579C238.144 159.051 238.488 158.659 238.952 158.659C239.448 158.659 239.792 159.059 239.792 159.683L239.792 160.043L240.616 160.043L240.616 159.675C240.616 159.067 240.904 158.627 241.424 158.627C241.856 158.627 242.256 158.963 242.256 159.611L242.256 159.691C242.256 160.259 241.944 160.603 241.48 160.659L241.48 161.603C242.48 161.579 243.08 160.803 243.08 159.651ZM243 155.15L243 154.054L241.904 154.054L241.904 155.15L243 155.15ZM243.08 149.609C243.08 148.457 242.392 147.817 241.568 147.817C240.88 147.817 240.464 148.233 240.28 148.761C240.088 148.201 239.592 147.705 238.848 147.705C238.048 147.705 237.32 148.377 237.32 149.609C237.32 150.841 238.048 151.513 238.848 151.513C239.592 151.513 240.088 151.017 240.28 150.457C240.464 150.985 240.88 151.401 241.568 151.401C242.392 151.401 243.08 150.761 243.08 149.609ZM239.84 149.649C239.84 150.153 239.48 150.569 238.992 150.569C238.496 150.569 238.144 150.161 238.144 149.649L238.144 149.569C238.144 149.057 238.496 148.649 238.992 148.649C239.48 148.649 239.84 149.065 239.84 149.569L239.84 149.649ZM242.256 149.649C242.256 150.097 241.944 150.465 241.464 150.465C241 150.465 240.672 150.097 240.672 149.649L240.672 149.569C240.672 149.121 241 148.753 241.464 148.753C241.944 148.753 242.256 149.121 242.256 149.569L242.256 149.649ZM239.792 145.845C239.792 145.109 239.192 144.805 238.584 144.805C237.976 144.805 237.368 145.109 237.368 145.845C237.368 146.589 237.976 146.893 238.584 146.893C239.192 146.893 239.792 146.589 239.792 145.845ZM243 146.661L243 145.925L237.4 142.565L237.4 143.301L243 146.661ZM239.24 145.861C239.24 146.109 239 146.245 238.584 146.245C238.16 146.245 237.92 146.109 237.92 145.861L237.92 145.837C237.92 145.589 238.16 145.453 238.584 145.453C239 145.453 239.24 145.589 239.24 145.837L239.24 145.861ZM243.024 143.381C243.024 142.645 242.424 142.34 241.816 142.341C241.208 142.341 240.6 142.645 240.6 143.381C240.6 144.125 241.208 144.429 241.816 144.429C242.424 144.429 243.024 144.125 243.024 143.381ZM242.472 143.397C242.472 143.645 242.232 143.781 241.816 143.781C241.392 143.781 241.152 143.645 241.152 143.397L241.152 143.373C241.152 143.125 241.392 142.989 241.816 142.989C242.232 142.989 242.472 143.125 242.472 143.373L242.472 143.397Z" fill="#D8C3AF"/>
<path d="M246.4 257.576L247.264 257.576L247.264 254.712C247.976 255.712 249.28 256.64 251.544 256.64L252 256.64L252 255.664L251.56 255.664C249.28 255.664 248 254.816 247.224 253.616L246.4 253.616L246.4 257.576ZM252 251.147L252 250.051L250.904 250.051L250.904 251.147L252 251.147ZM248.496 245.326C248.496 245.71 248.64 246.118 248.864 246.35L247.232 245.998L247.232 243.638L246.4 243.638L246.4 246.726L249.768 247.406L249.768 246.534C249.456 246.278 249.32 245.878 249.32 245.566L249.32 245.51C249.32 244.95 249.664 244.526 250.264 244.526C250.872 244.526 251.256 244.958 251.256 245.534L251.256 245.59C251.256 246.142 250.96 246.558 250.464 246.662L250.464 247.606C251.44 247.494 252.08 246.686 252.08 245.566C252.08 244.366 251.32 243.582 250.224 243.582C249.224 243.582 248.496 244.286 248.496 245.326ZM248.792 241.841C248.792 241.105 248.192 240.801 247.584 240.801C246.976 240.801 246.368 241.105 246.368 241.841C246.368 242.585 246.976 242.889 247.584 242.889C248.192 242.889 248.792 242.585 248.792 241.841ZM252 242.657L252 241.921L246.4 238.561L246.4 239.297L252 242.657ZM248.24 241.857C248.24 242.105 248 242.241 247.584 242.241C247.16 242.241 246.92 242.105 246.92 241.857L246.92 241.833C246.92 241.585 247.16 241.449 247.584 241.449C248 241.449 248.24 241.585 248.24 241.833L248.24 241.857ZM252.024 239.377C252.024 238.641 251.424 238.337 250.816 238.337C250.208 238.337 249.6 238.641 249.6 239.377C249.6 240.121 250.208 240.425 250.816 240.425C251.424 240.425 252.024 240.121 252.024 239.377ZM251.472 239.393C251.472 239.641 251.232 239.777 250.816 239.777C250.392 239.777 250.152 239.641 250.152 239.393L250.152 239.369C250.152 239.121 250.392 238.985 250.816 238.985C251.232 238.985 251.472 239.121 251.472 239.369L251.472 239.393Z" fill="#D8C3AF"/>
<path d="M260.168 230.92L255.4 230.92L255.4 231.656L256.784 233.08L257.952 233.08L256.736 231.816L260.168 231.816L260.168 233.44L261 233.44L261 229.376L260.168 229.376L260.168 230.92ZM260.168 225.923L255.4 225.923L255.4 226.659L256.784 228.083L257.952 228.083L256.736 226.819L260.168 226.819L260.168 228.443L261 228.443L261 224.379L260.168 224.379L260.168 225.923ZM257.792 222.838C257.792 222.102 257.192 221.798 256.584 221.798C255.976 221.798 255.368 222.102 255.368 222.838C255.368 223.582 255.976 223.886 256.584 223.886C257.192 223.886 257.792 223.582 257.792 222.838ZM261 223.654L261 222.918L255.4 219.558L255.4 220.294L261 223.654ZM257.24 222.854C257.24 223.102 257 223.238 256.584 223.238C256.16 223.238 255.92 223.102 255.92 222.854L255.92 222.83C255.92 222.582 256.16 222.446 256.584 222.446C257 222.446 257.24 222.582 257.24 222.83L257.24 222.854ZM261.024 220.374C261.024 219.638 260.424 219.334 259.816 219.334C259.208 219.334 258.6 219.638 258.6 220.374C258.6 221.118 259.208 221.422 259.816 221.422C260.424 221.422 261.024 221.118 261.024 220.374ZM260.472 220.39C260.472 220.638 260.232 220.774 259.816 220.774C259.392 220.774 259.152 220.638 259.152 220.39L259.152 220.366C259.152 220.118 259.392 219.982 259.816 219.982C260.232 219.982 260.472 220.118 260.472 220.366L260.472 220.39Z" fill="#D8C3AF"/>
<path d="M269.168 183.92L264.4 183.92L264.4 184.656L265.784 186.08L266.952 186.08L265.736 184.816L269.168 184.816L269.168 186.44L270 186.44L270 182.376L269.168 182.376L269.168 183.92ZM264.32 179.667C264.32 180.923 265.192 181.667 266.248 181.667C267.36 181.667 268.08 180.851 268.08 179.859C268.08 179.219 267.784 178.651 267.272 178.395C268.672 178.507 269.256 179.219 269.256 179.899L269.256 179.963C269.256 180.475 268.952 180.771 268.584 180.827L268.584 181.771C269.512 181.643 270.08 180.931 270.08 179.995C270.08 178.619 268.864 177.547 267.024 177.547C265.312 177.547 264.32 178.323 264.32 179.667ZM267.256 179.635L267.256 179.707C267.256 180.307 266.792 180.723 266.2 180.723C265.608 180.723 265.144 180.299 265.144 179.707L265.144 179.635C265.144 179.011 265.6 178.571 266.2 178.571C266.808 178.571 267.256 179.027 267.256 179.635ZM266.792 175.838C266.792 175.102 266.192 174.798 265.584 174.798C264.976 174.798 264.368 175.102 264.368 175.838C264.368 176.582 264.976 176.886 265.584 176.886C266.192 176.886 266.792 176.582 266.792 175.838ZM270 176.654L270 175.918L264.4 172.558L264.4 173.294L270 176.654ZM266.24 175.854C266.24 176.102 266 176.238 265.584 176.238C265.16 176.238 264.92 176.102 264.92 175.854L264.92 175.83C264.92 175.582 265.16 175.446 265.584 175.446C266 175.446 266.24 175.582 266.24 175.83L266.24 175.854ZM270.024 173.374C270.024 172.638 269.424 172.334 268.816 172.334C268.208 172.334 267.6 172.638 267.6 173.374C267.6 174.118 268.208 174.422 268.816 174.422C269.424 174.422 270.024 174.118 270.024 173.374ZM269.472 173.39C269.472 173.638 269.232 173.774 268.816 173.774C268.392 173.774 268.152 173.638 268.152 173.39L268.152 173.366C268.152 173.118 268.392 172.982 268.816 172.982C269.232 172.982 269.472 173.118 269.472 173.366L269.472 173.39Z" fill="#D8C3AF"/>
<path d="M278.168 283.92L273.4 283.92L273.4 284.656L274.784 286.08L275.952 286.08L274.736 284.816L278.168 284.816L278.168 286.44L279 286.44L279 282.376L278.168 282.376L278.168 283.92ZM279 280.147L279 279.051L277.904 279.051L277.904 280.147L279 280.147ZM273.4 276.582L274.264 276.582L274.264 273.718C274.976 274.718 276.28 275.646 278.544 275.646L279 275.646L279 274.67L278.56 274.67C276.28 274.67 275 273.822 274.224 272.622L273.4 272.622L273.4 276.582ZM275.792 270.841C275.792 270.105 275.192 269.801 274.584 269.801C273.976 269.801 273.368 270.105 273.368 270.841C273.368 271.585 273.976 271.889 274.584 271.889C275.192 271.889 275.792 271.585 275.792 270.841ZM279 271.657L279 270.921L273.4 267.561L273.4 268.297L279 271.657ZM275.24 270.857C275.24 271.105 275 271.241 274.584 271.241C274.16 271.241 273.92 271.105 273.92 270.857L273.92 270.833C273.92 270.585 274.16 270.449 274.584 270.449C275 270.449 275.24 270.585 275.24 270.833L275.24 270.857ZM279.024 268.377C279.024 267.641 278.424 267.337 277.816 267.337C277.208 267.337 276.6 267.641 276.6 268.377C276.6 269.121 277.208 269.425 277.816 269.425C278.424 269.425 279.024 269.121 279.024 268.377ZM278.472 268.393C278.472 268.641 278.232 268.777 277.816 268.777C277.392 268.777 277.152 268.641 277.152 268.393L277.152 268.369C277.152 268.121 277.392 267.985 277.816 267.985C278.232 267.985 278.472 268.121 278.472 268.369L278.472 268.393Z" fill="#D8C3AF"/>
<path d="M288.08 275.648C288.08 274.536 287.528 273.672 286.488 273.672C285.832 273.672 285.344 274.112 285.184 274.68C285.008 274.112 284.512 273.712 283.872 273.712C283 273.712 282.32 274.464 282.32 275.616C282.32 276.688 282.992 277.48 283.936 277.496L283.936 276.552C283.448 276.504 283.144 276.128 283.144 275.656L283.144 275.576C283.144 275.048 283.488 274.656 283.952 274.656C284.448 274.656 284.792 275.056 284.792 275.68L284.792 276.04L285.616 276.04L285.616 275.672C285.616 275.064 285.904 274.624 286.424 274.624C286.856 274.624 287.256 274.96 287.256 275.608L287.256 275.688C287.256 276.256 286.944 276.6 286.48 276.656L286.48 277.6C287.48 277.576 288.08 276.8 288.08 275.648ZM288 271.147L288 270.051L286.904 270.051L286.904 271.147L288 271.147ZM287.168 266.342L285.672 264.75C285.04 264.078 284.608 263.742 283.896 263.742C282.984 263.742 282.32 264.47 282.32 265.566C282.32 266.67 283.008 267.478 284.128 267.478L284.128 266.534C283.512 266.518 283.144 266.134 283.144 265.598L283.144 265.518C283.144 265.03 283.488 264.686 283.928 264.686C284.336 264.686 284.592 264.894 285.224 265.55L287.128 267.534L288 267.534L288 263.662L287.168 263.662L287.168 266.342ZM284.792 261.841C284.792 261.105 284.192 260.801 283.584 260.801C282.976 260.801 282.368 261.105 282.368 261.841C282.368 262.585 282.976 262.889 283.584 262.889C284.192 262.889 284.792 262.585 284.792 261.841ZM288 262.657L288 261.921L282.4 258.561L282.4 259.297L288 262.657ZM284.24 261.857C284.24 262.105 284 262.241 283.584 262.241C283.16 262.241 282.92 262.105 282.92 261.857L282.92 261.833C282.92 261.585 283.16 261.449 283.584 261.449C284 261.449 284.24 261.585 284.24 261.833L284.24 261.857ZM288.024 259.377C288.024 258.641 287.424 258.337 286.816 258.337C286.208 258.337 285.6 258.641 285.6 259.377C285.6 260.121 286.208 260.425 286.816 260.425C287.424 260.425 288.024 260.121 288.024 259.377ZM287.472 259.393C287.472 259.641 287.232 259.777 286.816 259.777C286.392 259.777 286.152 259.641 286.152 259.393L286.152 259.369C286.152 259.121 286.392 258.985 286.816 258.985C287.232 258.985 287.472 259.121 287.472 259.369L287.472 259.393Z" fill="#D8C3AF"/>
<path d="M296.168 285.92L291.4 285.92L291.4 286.656L292.784 288.08L293.952 288.08L292.736 286.816L296.168 286.816L296.168 288.44L297 288.44L297 284.376L296.168 284.376L296.168 285.92ZM297 282.147L297 281.051L295.904 281.051L295.904 282.147L297 282.147ZM294.992 275.166L291.4 275.166L291.4 276.11L294.872 278.79L295.816 278.79L295.816 276.062L297 276.062L297 275.166L295.816 275.166L295.816 274.302L294.992 274.302L294.992 275.166ZM294.992 277.878L292.64 276.062L294.992 276.062L294.992 277.878ZM293.792 272.841C293.792 272.105 293.192 271.801 292.584 271.801C291.976 271.801 291.368 272.105 291.368 272.841C291.368 273.585 291.976 273.889 292.584 273.889C293.192 273.889 293.792 273.585 293.792 272.841ZM297 273.657L297 272.921L291.4 269.561L291.4 270.297L297 273.657ZM293.24 272.857C293.24 273.105 293 273.241 292.584 273.241C292.16 273.241 291.92 273.105 291.92 272.857L291.92 272.833C291.92 272.585 292.16 272.449 292.584 272.449C293 272.449 293.24 272.585 293.24 272.833L293.24 272.857ZM297.024 270.377C297.024 269.641 296.424 269.337 295.816 269.337C295.208 269.337 294.6 269.641 294.6 270.377C294.6 271.121 295.208 271.425 295.816 271.425C296.424 271.425 297.024 271.121 297.024 270.377ZM296.472 270.393C296.472 270.641 296.232 270.777 295.816 270.777C295.392 270.777 295.152 270.641 295.152 270.393L295.152 270.369C295.152 270.121 295.392 269.985 295.816 269.985C296.232 269.985 296.472 270.121 296.472 270.369L296.472 270.393Z" fill="#D8C3AF"/>
<path d="M300.312 291.6C300.312 292.96 301.432 293.752 303.192 293.752C304.944 293.752 306.072 292.992 306.072 291.6C306.072 290.208 304.944 289.448 303.192 289.448C301.432 289.448 300.312 290.24 300.312 291.6ZM301.136 291.632L301.136 291.568C301.136 291.168 301.328 290.872 301.696 290.672L303.944 292.752C303.72 292.792 303.472 292.808 303.192 292.808C301.896 292.808 301.136 292.424 301.136 291.632ZM305.24 291.568L305.24 291.632C305.24 292.008 305.072 292.288 304.752 292.488L302.536 290.432C302.736 290.408 302.952 290.392 303.192 290.392C304.48 290.392 305.24 290.776 305.24 291.568ZM306 287.147L306 286.051L304.904 286.051L304.904 287.147L306 287.147ZM303.992 280.166L300.4 280.166L300.4 281.11L303.872 283.79L304.816 283.79L304.816 281.062L306 281.062L306 280.166L304.816 280.166L304.816 279.302L303.992 279.302L303.992 280.166ZM303.992 282.878L301.64 281.062L303.992 281.062L303.992 282.878ZM302.792 277.841C302.792 277.105 302.192 276.801 301.584 276.801C300.976 276.801 300.368 277.105 300.368 277.841C300.368 278.585 300.976 278.889 301.584 278.889C302.192 278.889 302.792 278.585 302.792 277.841ZM306 278.657L306 277.921L300.4 274.561L300.4 275.297L306 278.657ZM302.24 277.857C302.24 278.105 302 278.241 301.584 278.241C301.16 278.241 300.92 278.105 300.92 277.857L300.92 277.833C300.92 277.585 301.16 277.449 301.584 277.449C302 277.449 302.24 277.585 302.24 277.833L302.24 277.857ZM306.024 275.377C306.024 274.641 305.424 274.337 304.816 274.337C304.208 274.337 303.6 274.641 303.6 275.377C303.6 276.121 304.208 276.425 304.816 276.425C305.424 276.425 306.024 276.121 306.024 275.377ZM305.472 275.393C305.472 275.641 305.232 275.777 304.816 275.777C304.392 275.777 304.152 275.641 304.152 275.393L304.152 275.369C304.152 275.121 304.392 274.985 304.816 274.985C305.232 274.985 305.472 275.121 305.472 275.369L305.472 275.393Z" fill="#D8C3AF"/>
<path d="M314.168 211.92L309.4 211.92L309.4 212.656L310.784 214.08L311.952 214.08L310.736 212.816L314.168 212.816L314.168 214.44L315 214.44L315 210.376L314.168 210.376L314.168 211.92ZM312.992 206.163L309.4 206.163L309.4 207.107L312.872 209.787L313.816 209.787L313.816 207.059L315 207.059L315 206.163L313.816 206.163L313.816 205.299L312.992 205.299L312.992 206.163ZM312.992 208.875L310.64 207.059L312.992 207.059L312.992 208.875ZM315 203.15L315 202.054L313.904 202.054L313.904 203.15L315 203.15ZM312.992 196.169L309.4 196.169L309.4 197.113L312.872 199.793L313.816 199.793L313.816 197.065L315 197.065L315 196.169L313.816 196.169L313.816 195.305L312.992 195.305L312.992 196.169ZM312.992 198.881L310.64 197.065L312.992 197.065L312.992 198.881ZM311.792 193.845C311.792 193.109 311.192 192.805 310.584 192.805C309.976 192.805 309.368 193.109 309.368 193.845C309.368 194.589 309.976 194.893 310.584 194.893C311.192 194.893 311.792 194.589 311.792 193.845ZM315 194.661L315 193.925L309.4 190.565L309.4 191.301L315 194.661ZM311.24 193.861C311.24 194.109 311 194.245 310.584 194.245C310.16 194.245 309.92 194.109 309.92 193.861L309.92 193.837C309.92 193.589 310.16 193.453 310.584 193.453C311 193.453 311.24 193.589 311.24 193.837L311.24 193.861ZM315.024 191.381C315.024 190.645 314.424 190.34 313.816 190.341C313.208 190.341 312.6 190.645 312.6 191.381C312.6 192.125 313.208 192.429 313.816 192.429C314.424 192.429 315.024 192.125 315.024 191.381ZM314.472 191.397C314.472 191.645 314.232 191.781 313.816 191.781C313.392 191.781 313.152 191.645 313.152 191.397L313.152 191.373C313.152 191.125 313.392 190.989 313.816 190.989C314.232 190.989 314.472 191.125 314.472 191.373L314.472 191.397Z" fill="#D8C3AF"/>
<path d="M323.168 182.92L318.4 182.92L318.4 183.656L319.784 185.08L320.952 185.08L319.736 183.816L323.168 183.816L323.168 185.44L324 185.44L324 181.376L323.168 181.376L323.168 182.92ZM318.32 178.667C318.32 179.923 319.192 180.667 320.248 180.667C321.36 180.667 322.08 179.851 322.08 178.859C322.08 178.219 321.784 177.651 321.272 177.395C322.672 177.507 323.256 178.219 323.256 178.899L323.256 178.963C323.256 179.475 322.952 179.771 322.584 179.827L322.584 180.771C323.512 180.643 324.08 179.931 324.08 178.995C324.08 177.619 322.864 176.547 321.024 176.547C319.312 176.547 318.32 177.323 318.32 178.667ZM321.256 178.635L321.256 178.707C321.256 179.307 320.792 179.723 320.2 179.723C319.608 179.723 319.144 179.299 319.144 178.707L319.144 178.635C319.144 178.011 319.6 177.571 320.2 177.571C320.808 177.571 321.256 178.027 321.256 178.635ZM324 174.15L324 173.054L322.904 173.054L322.904 174.15L324 174.15ZM324.08 168.657C324.08 167.545 323.528 166.681 322.488 166.681C321.832 166.681 321.344 167.121 321.184 167.689C321.008 167.121 320.512 166.721 319.872 166.721C319 166.721 318.32 167.473 318.32 168.625C318.32 169.697 318.992 170.489 319.936 170.505L319.936 169.561C319.448 169.513 319.144 169.137 319.144 168.665L319.144 168.585C319.144 168.057 319.488 167.665 319.952 167.665C320.448 167.665 320.792 168.065 320.792 168.689L320.792 169.049L321.616 169.049L321.616 168.681C321.616 168.073 321.904 167.633 322.424 167.633C322.856 167.633 323.256 167.969 323.256 168.617L323.256 168.697C323.256 169.265 322.944 169.609 322.48 169.665L322.48 170.609C323.48 170.585 324.08 169.809 324.08 168.657ZM320.792 164.845C320.792 164.109 320.192 163.805 319.584 163.805C318.976 163.805 318.368 164.109 318.368 164.845C318.368 165.589 318.976 165.893 319.584 165.893C320.192 165.893 320.792 165.589 320.792 164.845ZM324 165.661L324 164.925L318.4 161.565L318.4 162.301L324 165.661ZM320.24 164.861C320.24 165.109 320 165.245 319.584 165.245C319.16 165.245 318.92 165.109 318.92 164.861L318.92 164.837C318.92 164.589 319.16 164.453 319.584 164.453C320 164.453 320.24 164.589 320.24 164.837L320.24 164.861ZM324.024 162.381C324.024 161.645 323.424 161.34 322.816 161.341C322.208 161.341 321.6 161.645 321.6 162.381C321.6 163.125 322.208 163.429 322.816 163.429C323.424 163.429 324.024 163.125 324.024 162.381ZM323.472 162.397C323.472 162.645 323.232 162.781 322.816 162.781C322.392 162.781 322.152 162.645 322.152 162.397L322.152 162.373C322.152 162.125 322.392 161.989 322.816 161.989C323.232 161.989 323.472 162.125 323.472 162.373L323.472 162.397Z" fill="#D8C3AF"/>
<path d="M332.168 187.92L327.4 187.92L327.4 188.656L328.784 190.08L329.952 190.08L328.736 188.816L332.168 188.816L332.168 190.44L333 190.44L333 186.376L332.168 186.376L332.168 187.92ZM333.08 183.603C333.08 182.451 332.392 181.811 331.568 181.811C330.88 181.811 330.464 182.227 330.28 182.755C330.088 182.195 329.592 181.699 328.848 181.699C328.048 181.699 327.32 182.371 327.32 183.603C327.32 184.835 328.048 185.507 328.848 185.507C329.592 185.507 330.088 185.011 330.28 184.451C330.464 184.979 330.88 185.395 331.568 185.395C332.392 185.395 333.08 184.755 333.08 183.603ZM329.84 183.643C329.84 184.147 329.48 184.563 328.992 184.563C328.496 184.563 328.144 184.155 328.144 183.643L328.144 183.563C328.144 183.051 328.496 182.643 328.992 182.643C329.48 182.643 329.84 183.059 329.84 183.563L329.84 183.643ZM332.256 183.643C332.256 184.091 331.944 184.459 331.464 184.459C331 184.459 330.672 184.091 330.672 183.643L330.672 183.563C330.672 183.115 331 182.747 331.464 182.747C331.944 182.747 332.256 183.115 332.256 183.563L332.256 183.643ZM333 179.15L333 178.054L331.904 178.054L331.904 179.15L333 179.15ZM327.32 173.673C327.32 174.929 328.192 175.673 329.248 175.673C330.36 175.673 331.08 174.857 331.08 173.865C331.08 173.225 330.784 172.657 330.272 172.401C331.672 172.513 332.256 173.225 332.256 173.905L332.256 173.969C332.256 174.481 331.952 174.777 331.584 174.833L331.584 175.777C332.512 175.649 333.08 174.937 333.08 174.001C333.08 172.625 331.864 171.553 330.024 171.553C328.312 171.553 327.32 172.329 327.32 173.673ZM330.256 173.641L330.256 173.713C330.256 174.313 329.792 174.729 329.2 174.729C328.608 174.729 328.144 174.305 328.144 173.713L328.144 173.641C328.144 173.017 328.6 172.577 329.2 172.577C329.808 172.577 330.256 173.033 330.256 173.641ZM329.792 169.845C329.792 169.109 329.192 168.805 328.584 168.805C327.976 168.805 327.368 169.109 327.368 169.845C327.368 170.589 327.976 170.893 328.584 170.893C329.192 170.893 329.792 170.589 329.792 169.845ZM333 170.661L333 169.925L327.4 166.565L327.4 167.301L333 170.661ZM329.24 169.861C329.24 170.109 329 170.245 328.584 170.245C328.16 170.245 327.92 170.109 327.92 169.861L327.92 169.837C327.92 169.589 328.16 169.453 328.584 169.453C329 169.453 329.24 169.589 329.24 169.837L329.24 169.861ZM333.024 167.381C333.024 166.645 332.424 166.34 331.816 166.341C331.208 166.341 330.6 166.645 330.6 167.381C330.6 168.125 331.208 168.429 331.816 168.429C332.424 168.429 333.024 168.125 333.024 167.381ZM332.472 167.397C332.472 167.645 332.232 167.781 331.816 167.781C331.392 167.781 331.152 167.645 331.152 167.397L331.152 167.373C331.152 167.125 331.392 166.989 331.816 166.989C332.232 166.989 332.472 167.125 332.472 167.373L332.472 167.397Z" fill="#D8C3AF"/>
<path d="M341.168 222.92L336.4 222.92L336.4 223.656L337.784 225.08L338.952 225.08L337.736 223.816L341.168 223.816L341.168 225.44L342 225.44L342 221.376L341.168 221.376L341.168 222.92ZM341.168 219.339L339.672 217.747C339.04 217.075 338.608 216.739 337.896 216.739C336.984 216.739 336.32 217.467 336.32 218.563C336.32 219.667 337.008 220.475 338.128 220.475L338.128 219.531C337.512 219.515 337.144 219.131 337.144 218.595L337.144 218.515C337.144 218.027 337.488 217.683 337.928 217.683C338.336 217.683 338.592 217.891 339.224 218.547L341.128 220.531L342 220.531L342 216.659L341.168 216.659L341.168 219.339ZM342 214.15L342 213.054L340.904 213.054L340.904 214.15L342 214.15ZM338.496 208.329C338.496 208.713 338.64 209.121 338.864 209.353L337.232 209.001L337.232 206.641L336.4 206.641L336.4 209.729L339.768 210.409L339.768 209.537C339.456 209.281 339.32 208.881 339.32 208.569L339.32 208.513C339.32 207.953 339.664 207.529 340.264 207.529C340.872 207.529 341.256 207.961 341.256 208.537L341.256 208.593C341.256 209.145 340.96 209.561 340.464 209.665L340.464 210.609C341.44 210.497 342.08 209.689 342.08 208.569C342.08 207.369 341.32 206.585 340.224 206.585C339.224 206.585 338.496 207.289 338.496 208.329ZM338.792 204.845C338.792 204.109 338.192 203.805 337.584 203.805C336.976 203.805 336.368 204.109 336.368 204.845C336.368 205.589 336.976 205.893 337.584 205.893C338.192 205.893 338.792 205.589 338.792 204.845ZM342 205.661L342 204.925L336.4 201.565L336.4 202.301L342 205.661ZM338.24 204.861C338.24 205.109 338 205.245 337.584 205.245C337.16 205.245 336.92 205.109 336.92 204.861L336.92 204.837C336.92 204.589 337.16 204.453 337.584 204.453C338 204.453 338.24 204.589 338.24 204.837L338.24 204.861ZM342.024 202.381C342.024 201.645 341.424 201.34 340.816 201.341C340.208 201.341 339.6 201.645 339.6 202.381C339.6 203.125 340.208 203.429 340.816 203.429C341.424 203.429 342.024 203.125 342.024 202.381ZM341.472 202.397C341.472 202.645 341.232 202.781 340.816 202.781C340.392 202.781 340.152 202.645 340.152 202.397L340.152 202.373C340.152 202.125 340.392 201.989 340.816 201.989C341.232 201.989 341.472 202.125 341.472 202.373L341.472 202.397Z" fill="#D8C3AF"/>
<path d="M347.496 262.32C347.496 262.704 347.64 263.112 347.864 263.344L346.232 262.992L346.232 260.632L345.4 260.632L345.4 263.72L348.768 264.4L348.768 263.528C348.456 263.272 348.32 262.872 348.32 262.56L348.32 262.504C348.32 261.944 348.664 261.52 349.264 261.52C349.872 261.52 350.256 261.952 350.256 262.528L350.256 262.584C350.256 263.136 349.96 263.552 349.464 263.656L349.464 264.6C350.44 264.488 351.08 263.68 351.08 262.56C351.08 261.36 350.32 260.576 349.224 260.576C348.224 260.576 347.496 261.28 347.496 262.32ZM351 258.147L351 257.051L349.904 257.051L349.904 258.147L351 258.147ZM345.32 252.67C345.32 253.926 346.192 254.67 347.248 254.67C348.36 254.67 349.08 253.854 349.08 252.862C349.08 252.222 348.784 251.654 348.272 251.398C349.672 251.51 350.256 252.222 350.256 252.902L350.256 252.966C350.256 253.478 349.952 253.774 349.584 253.83L349.584 254.774C350.512 254.646 351.08 253.934 351.08 252.998C351.08 251.622 349.864 250.55 348.024 250.55C346.312 250.55 345.32 251.326 345.32 252.67ZM348.256 252.638L348.256 252.71C348.256 253.31 347.792 253.726 347.2 253.726C346.608 253.726 346.144 253.302 346.144 252.71L346.144 252.638C346.144 252.014 346.6 251.574 347.2 251.574C347.808 251.574 348.256 252.03 348.256 252.638ZM347.792 248.841C347.792 248.105 347.192 247.801 346.584 247.801C345.976 247.801 345.368 248.105 345.368 248.841C345.368 249.585 345.976 249.889 346.584 249.889C347.192 249.889 347.792 249.585 347.792 248.841ZM351 249.657L351 248.921L345.4 245.561L345.4 246.297L351 249.657ZM347.24 248.857C347.24 249.105 347 249.241 346.584 249.241C346.16 249.241 345.92 249.105 345.92 248.857L345.92 248.833C345.92 248.585 346.16 248.449 346.584 248.449C347 248.449 347.24 248.585 347.24 248.833L347.24 248.857ZM351.024 246.377C351.024 245.641 350.424 245.337 349.816 245.337C349.208 245.337 348.6 245.641 348.6 246.377C348.6 247.121 349.208 247.425 349.816 247.425C350.424 247.425 351.024 247.121 351.024 246.377ZM350.472 246.393C350.472 246.641 350.232 246.777 349.816 246.777C349.392 246.777 349.152 246.641 349.152 246.393L349.152 246.369C349.152 246.121 349.392 245.985 349.816 245.985C350.232 245.985 350.472 246.121 350.472 246.369L350.472 246.393Z" fill="#D8C3AF"/>
</g>
<defs>
<clipPath id="clip0">
<rect width="375" height="431" fill="white"/>
</clipPath>
</defs>
</svg>
