<svg width="16" height="16" viewBox="0 0 16 16" fill="none" xmlns="http://www.w3.org/2000/svg">
<path fill-rule="evenodd" clip-rule="evenodd" d="M15.5218 1.70711C15.9123 1.31658 15.9123 0.683417 15.5218 0.292893C15.1313 -0.0976311 14.4981 -0.0976311 14.1076 0.292893L7.90735 6.49314L1.70711 0.292893C1.31658 -0.0976311 0.683417 -0.0976311 0.292893 0.292893C-0.0976311 0.683417 -0.0976311 1.31658 0.292893 1.70711L6.49314 7.90735L0.292893 14.1076C-0.0976311 14.4981 -0.0976311 15.1313 0.292893 15.5218C0.683417 15.9123 1.31658 15.9123 1.70711 15.5218L7.90735 9.32157L14.1076 15.5218C14.4981 15.9123 15.1313 15.9123 15.5218 15.5218C15.9123 15.1313 15.9123 14.4981 15.5218 14.1076L9.32157 7.90735L15.5218 1.70711Z" fill="#242E35"/>
</svg>
