<svg width="175" height="132" viewBox="0 0 175 132" fill="none" xmlns="http://www.w3.org/2000/svg">
<path fill-rule="evenodd" clip-rule="evenodd" d="M19.7125 0H30.1451V3.62872H28.3307V5.55126C31.8366 6.02657 35.1112 7.23019 37.997 9.00476L39.7552 6.80383L43.2991 9.63488L41.6312 11.7228C46.7048 16.2894 49.895 22.9077 49.895 30.2712C49.895 44.0493 38.7257 55.2186 24.9476 55.2186C11.1695 55.2186 0.00018692 44.0493 0.00018692 30.2712C0.00018692 22.8937 3.20258 16.2641 8.29312 11.6967L6.64606 9.63488L10.19 6.80383L11.9317 8.98417C14.7991 7.22721 18.0487 6.03333 21.5269 5.55639V3.62872H19.7125V0Z" fill="#EFDDC7"/>
<path d="M124.865 39.2073L106.348 126.098L118.141 109.769C121.957 113.201 132.84 117.389 137.419 112.263C141.998 107.138 134.471 97.9753 133.563 100.697C132.656 103.418 134.601 104.533 141.728 97.2949" stroke="#242E35" stroke-width="1.5" stroke-linecap="round" stroke-linejoin="round"/>
<path d="M98.0576 125.367L101.132 126.098C103.501 118.411 108.828 97.4816 113.229 74.2839" stroke="#242E35" stroke-width="1.5" stroke-linecap="round" stroke-linejoin="round"/>
<path d="M26.4518 98.0987L25.5386 101.533L97.7294 126.325C102.372 114.114 113.257 80.3316 120.746 39.4856" stroke="#242E35" stroke-width="1.5" stroke-linecap="round" stroke-linejoin="round"/>
<path d="M121.024 39.2073C117.291 57.4599 104.705 98.5472 84.2251 116.876C70.1453 112.111 30.5118 99.1582 12.4549 93.2777C19.5405 88.6954 35.2202 74.8571 41.2544 56.1616" stroke="#242E35" stroke-width="1.5" stroke-linecap="round" stroke-linejoin="round"/>
<path d="M94.8653 39.4856H124.838L132.16 117.065L118.889 114.318L105.161 130.795L25.1553 103.872L26.0957 101.704" stroke="#242E35" stroke-width="1.5" stroke-linecap="round" stroke-linejoin="round"/>
<path d="M121.302 38.9446C119.622 47.9528 113.516 64.3202 102.524 57.7244C95.3798 53.144 93.441 33.0664 93.3647 23.6002L21.919 22.2261C22.0716 32.9901 26.0866 54.8387 40.9253 56.1212C53.5657 56.4877 85.8842 58.1061 100.463 58.8695" stroke="#242E35" stroke-width="1.5" stroke-linecap="round" stroke-linejoin="round"/>
<path d="M117.126 39.0688C117.299 37.5209 115.722 34.8416 112.616 35.7703C108.734 36.9312 111.322 43.4321 113.91 43.8965C115.98 44.268 115.635 42.1938 115.204 41.1103C114.42 39.3163 111.933 35.8673 108.265 36.4241C103.679 37.12 102.731 43.5229 105.893 43.1053C109.055 42.6877 106.684 36.4241 102.098 36.4241C97.5126 36.4241 95.457 41.9917 98.3032 42.5485C101.149 43.1053 99.8844 36.4241 96.2476 36.4241" stroke="#242E35" stroke-width="1.5" stroke-linecap="round" stroke-linejoin="round"/>
<path d="M98.0574 66.3503L107.662 67.6031L104.043 75.2586L94.4384 73.5883L98.0574 66.3503Z" fill="#C5D5E4"/>
<path d="M84.2775 64.1228L94.2993 65.5147L90.6803 73.1703L80.6585 71.3608L84.2775 64.1228Z" fill="#EFDDC7"/>
<path d="M70.0797 62.3132L80.2407 63.566L76.6217 70.5255L66.4608 68.716L70.0797 62.3132Z" fill="#C5D5E4"/>
<path d="M56.4397 60.4346L66.0439 61.7566L62.7033 68.0202L53.0991 66.4198L56.4397 60.4346Z" fill="#EFDDC7"/>
<path d="M44.4685 58.9326L52.124 60.0867L49.201 65.376L41.6847 63.9839L44.4685 58.9326Z" fill="#EFDDC7"/>
<path d="M92.3286 78.207L101.837 80.0501L97.7526 87.4677L88.2698 85.2078L92.3286 78.207Z" fill="#EFDDC7"/>
<path d="M78.7117 75.1341L88.6284 77.1419L84.5438 84.5595L74.6528 82.1349L78.7117 75.1341Z" fill="#EFDDC7"/>
<path d="M64.6538 72.4514L74.7181 74.3289L70.6764 81.0519L60.6465 78.6187L64.6538 72.4514Z" fill="#C5D5E4"/>
<path d="M51.1548 69.7338L60.6591 71.6462L56.9383 77.6916L47.4511 75.5015L51.1548 69.7338Z" fill="#EFDDC7"/>
<path d="M39.2995 67.4965L46.8692 69.1209L43.6253 74.2196L36.2092 72.3663L39.2995 67.4965Z" fill="#EFDDC7"/>
<path d="M84.953 89.3171L94.1956 91.5828L89.8338 98.8089L80.6364 96.1281L84.953 89.3171Z" fill="#EFDDC7"/>
<path d="M71.7391 85.6394L81.3743 88.0879L77.0125 95.314L67.4225 92.4504L71.7391 85.6394Z" fill="#EFDDC7"/>
<path d="M58.071 82.3321L67.8572 84.657L63.5707 91.1913L53.8447 88.3129L58.071 82.3321Z" fill="#EFDDC7"/>
<path d="M44.955 79.0148L54.19 81.3494L50.2506 87.2214L41.0457 84.61L44.955 79.0148Z" fill="#EFDDC7"/>
<path d="M33.999 76.4301L40.779 78.2104L37.3527 83.1581L30.5971 81.1927L33.999 76.4301Z" fill="#C5D5E4"/>
<path d="M77.5142 100.924L86.5619 103.602L81.9008 110.624L72.9175 107.533L77.5142 100.924Z" fill="#EFDDC7"/>
<path d="M64.5983 96.6576L74.0263 99.536L69.3652 106.557L60.0015 103.266L64.5983 96.6576Z" fill="#EFDDC7"/>
<path d="M51.2178 92.7405L60.8012 95.5022L56.2473 101.836L46.7497 98.5241L51.2178 92.7405Z" fill="#EFDDC7"/>
<path d="M38.3819 88.8379L47.4189 91.5846L43.2401 97.2724L34.2459 94.2507L38.3819 88.8379Z" fill="#EFDDC7"/>
<path d="M27.1965 85.2751L34.454 87.543L30.6571 92.6346L23.1143 90.0378L27.1965 85.2751Z" fill="#EFDDC7"/>
<path d="M146.385 92.9406C146.385 92.9406 167.236 74.086 164.131 48.3552C161.026 22.6244 119.624 -9.70461 72.9636 27.2826C54.7745 41.701 43.0182 45.4716 34.5891 48.3552" stroke="#242E35" stroke-width="1.5" stroke-linecap="round" stroke-linejoin="round" stroke-dasharray="6 6"/>
<path d="M43.2549 22.4033C40.1246 15.4712 33.1512 10.647 25.0509 10.647C14.0253 10.647 5.08732 19.585 5.08732 30.6106C5.08732 41.6362 14.0253 50.5742 25.0509 50.5742C26.7344 50.5742 28.3692 50.3658 29.9309 49.9735" stroke="#242E35" stroke-width="1.5" stroke-linecap="round" stroke-linejoin="round"/>
<line x1="0.75" y1="-0.75" x2="2.35545" y2="-0.75" transform="matrix(4.37114e-08 1 1 -4.37114e-08 25.4946 10.647)" stroke="#242E35" stroke-width="1.5" stroke-linecap="round" stroke-linejoin="round"/>
<line x1="0.75" y1="-0.75" x2="2.35545" y2="-0.75" transform="matrix(1 -8.74228e-08 -8.74228e-08 -1 4.64404 30.6111)" stroke="#242E35" stroke-width="1.5" stroke-linecap="round" stroke-linejoin="round"/>
<line x1="0.75" y1="-0.75" x2="2.35545" y2="-0.75" transform="matrix(0.707107 0.707107 0.707107 -0.707107 10.4331 16.8577)" stroke="#242E35" stroke-width="1.5" stroke-linecap="round" stroke-linejoin="round"/>
<line x1="10.4331" y1="43.7247" x2="11.5683" y2="42.5895" stroke="#242E35" stroke-width="1.5" stroke-linecap="round" stroke-linejoin="round"/>
<line x1="0.75" y1="-0.75" x2="2.35545" y2="-0.75" transform="matrix(4.37114e-08 1 1 -4.37114e-08 25.4946 47.4688)" stroke="#242E35" stroke-width="1.5" stroke-linecap="round" stroke-linejoin="round"/>
<path d="M104.019 70.095C103.131 71.4259 101.135 73.4222 99.804 72.535C98.4731 71.6477 97.8077 66.7677 97.364 63.4404" stroke="#879EB4" stroke-width="1.5" stroke-linecap="round" stroke-linejoin="round"/>
<circle r="4.21454" transform="matrix(-1 0 0 1 152.153 62.331)" fill="#EFDDC7"/>
<circle r="3.32727" transform="matrix(-1 0 0 1 171.673 35.7128)" fill="#C5D5E4"/>
<circle r="5.54545" transform="matrix(-1 0 0 1 131.746 27.7268)" fill="#EFDDC7"/>
</svg>
