<svg width="172" height="105" viewBox="0 0 172 105" fill="none" xmlns="http://www.w3.org/2000/svg">
<g style="mix-blend-mode:multiply">
<path d="M150.047 24.9898C147.246 22.6529 144.328 17.8443 143.22 15.732C143.354 17.3118 145.073 21.5435 148.018 25.2273C150.963 28.911 153.2 34.8593 154.149 37.1029L156.44 36.0136C155.476 33.3127 152.849 27.3267 150.047 24.9898Z" fill="#E6C9C9"/>
</g>
<path d="M147.946 33.2003C147.288 31.6949 145.891 28.4972 145.564 27.7496C144.771 28.0963 143.837 28.7517 143.469 29.0361L145.374 33.3966" stroke="#242E35" stroke-width="1.5" stroke-linecap="round" stroke-linejoin="round"/>
<path d="M142.751 34.8212C144.032 33.3653 148.195 30.2169 154.607 29.2702" stroke="#242E35" stroke-width="1.5" stroke-linecap="round" stroke-linejoin="round"/>
<path d="M148.139 47.1511C149.419 45.6952 153.583 42.5469 159.994 41.6001" stroke="#242E35" stroke-width="1.5" stroke-linecap="round" stroke-linejoin="round"/>
<path d="M140.975 9.10889C142.095 11.7417 145.022 17.69 147.772 20.4199C151.211 23.8324 153.088 25.7942 154.585 29.2204C155.782 31.9613 161.378 44.3391 163.215 48.5439" stroke="#242E35" stroke-width="1.5" stroke-linecap="round" stroke-linejoin="round"/>
<path d="M150.845 53.7855L142.209 33.7929C141.765 32.5649 140.86 29.5601 140.791 27.3647C140.705 24.6204 140.352 20.4163 139.166 16.8541C137.981 13.2918 136.877 11.8267 137.495 10.9074C138.114 9.98809 139.389 8.87446 140.596 9.08913C141.561 9.26086 141.089 8.37901 140.732 7.91662C140.757 7.68956 140.734 7.15563 140.446 6.8363C140.086 6.43714 140.247 5.53221 139.833 5.4347C139.42 5.33718 138.092 5.26843 137.079 5.71073C136.067 6.15302 134.29 7.39292 135.706 8.72192C135.9 9.37888 135.895 10.2158 136.42 10.3571C136.841 10.4702 136.845 10.9752 136.794 11.2136" stroke="#242E35" stroke-width="1.5" stroke-linecap="round" stroke-linejoin="round"/>
<ellipse cx="157" cy="51.0964" rx="6.71706" ry="1.19414" transform="rotate(-23.6021 157 51.0964)" stroke="#242E35" stroke-width="1.5" stroke-linecap="round" stroke-linejoin="round"/>
<path d="M81.5 36.7148C80.8652 39.889 80 44.7148 77.255 45.7241C74.504 46.3589 62.0188 52.4957 60.9607 54.8235C59.9026 57.1512 47.629 87.412 45.3013 85.5075C43.439 83.9839 33.9928 67.1548 26.5863 67.578C19.1799 68.0012 12.8622 76.8314 11 75.1385C8.67224 73.0224 2.5552 69.4248 3.40166 68.1552C4.24811 66.8855 10.5965 70.6945 12.7126 69.4248C14.8288 68.1552 20.5616 63.0517 22.9312 65.3849C25.3008 67.7181 25.4297 73.0743 28.1807 77.7298C30.9317 82.3853 39.3761 100.994 45.3013 101.205C51.2264 101.417 62.2303 88.4701 65.4045 83.8146C69.7004 76.7698 62.6536 76.1965 63.7116 80.852C64.7697 85.5075 69.2136 97.5695 67.5207 104.13M106.669 99.8974C106.599 89.881 109.124 77.17 111.325 75.1385C114.076 72.5991 110.267 83.1798 111.325 85.5075C112.383 87.8353 123.81 99.6394 130.582 98.3697C136.084 97.7348 153.024 82.1217 155.14 70.2713C155.775 66.8855 158.092 69.2132 159.996 70.2713C161.901 71.3294 168.672 69.4248 171 66.4622C170.02 62.8499 164.766 68.0861 161.38 65.9699C157.994 63.8538 153.46 63.0899 150.685 65.6158C147.934 67.3087 133.756 85.2959 130.582 81.6985C127.407 78.101 115.557 58.4209 111.325 54.8235C107.093 51.226 93.7608 45.3009 92.9144 42.9731C92.3659 41.4649 92.1506 35.0432 92.0886 30.2953M92.0886 30.2953C92.074 29.1808 92.0679 28.1585 92.0679 27.3137C93.4081 26.8904 95.877 26.0441 95.0305 22.4466C93.126 18.6377 91.6447 23.0815 91.2215 24.986C90.5866 25.4093 89.5285 25.2681 89.1053 24.7744C89.7402 22.8699 89.9095 20.0343 89.7402 18.8492C88.8937 18.1721 88.8232 15.6044 88.8937 14.1936C85.9311 14.6874 78.6048 14.4436 77.7583 12.7507C73.3722 13.482 68.4405 5.83384 70 2.71478C71.9494 -1.18404 81.4135 2.51636 83.3629 4.46577C85.3123 6.41518 90.3013 4.52588 94 4.98822C98 5.48822 99.6892 10.0705 98.4708 12.7507C99.1206 13.0755 101.756 14.2673 102.5 17.9882C103 20.4882 102.267 27.6149 92.0886 30.2953Z" stroke="#242E35" stroke-width="1.5" stroke-linecap="round" stroke-linejoin="round"/>
<path d="M77.7583 12.751C74.1032 23.229 72 44.7148 87.4603 33.0903" stroke="#242E35" stroke-width="1.5" stroke-linecap="round" stroke-linejoin="round"/>
<ellipse cx="75" cy="23.4882" rx="3" ry="4.5" stroke="#242E35" stroke-width="1.5" stroke-linecap="round" stroke-linejoin="round"/>
<ellipse cx="84" cy="25.9882" rx="3" ry="4" stroke="#242E35" stroke-width="1.5" stroke-linecap="round" stroke-linejoin="round"/>
<path d="M90.1003 51.81H84.8203L81.4603 92.6097L88.4203 99.8096L95.1402 92.6097L90.1003 51.81Z" fill="#C5D5E4"/>
<path d="M76.1968 45.9361C81.6282 50.38 81.3602 49.248 85.9311 68.0393C91.4003 90.524 103.5 45.9361 104.5 42.4882C105.5 39.0402 108.5 27.4882 103 31.4882C97.5 35.4882 117.5 58.9882 137.5 38.9882" stroke="#242E35" stroke-width="1.5" stroke-linecap="round" stroke-linejoin="round"/>
<rect x="18.2799" y="38.8556" width="8.15994" height="15.3599" rx="2" fill="#E0E5CD"/>
<rect x="5.79996" y="41.2556" width="7.67994" height="12.9599" rx="2" fill="#E0E5CD"/>
<rect x="31.4723" y="32.4757" width="7.19488" height="21.5846" rx="2" fill="#E0E5CD"/>
<path d="M43.4618 56.0526C43.4618 56.0526 18.2726 56.0526 12.6591 55.6208C7.04547 55.189 1.71976 56.0526 1.71976 56.0526L1.71976 32.015" stroke="#242E35" stroke-width="1.5" stroke-linecap="round"/>
<path d="M42.0222 55.1894C42.598 55.1894 45.6207 55.7652 45.0449 55.9091C44.5843 56.0243 42.8379 56.6288 42.0222 56.9167" stroke="#242E35" stroke-width="1.5" stroke-linecap="round"/>
<path d="M2.29538 56.0531C4.74233 49.0481 9.13422 47.4816 15.813 47.7119C17.7175 47.853 21.7382 47.2887 22.5846 43.9029C23.6427 39.6706 27.6633 39.459 31.684 38.4009C34.9005 37.5544 36.4903 34.0529 38.4397 31.3725" stroke="#242E35" stroke-width="1.5" stroke-linecap="round"/>
<path d="M1 33.4544C1 32.8786 1.57575 29.8559 1.71969 30.4317C1.83484 30.8923 2.43938 32.6387 2.72726 33.4544" stroke="#242E35" stroke-width="1.5" stroke-linecap="round"/>
<path d="M78.5246 24.5631C79.0889 24.6336 80.3868 24.9017 81.0639 25.4095" stroke="#242E35" stroke-width="1.5" stroke-linecap="round" stroke-linejoin="round"/>
<path d="M95.4538 40.8952C94.7546 44.1833 85.3847 50.7593 71.5397 39.0338C57.6947 27.3083 52.6853 16.3993 41.4762 27.121" stroke="#242E35" stroke-width="1.5" stroke-linecap="round"/>
</svg>
