<svg width="136" height="118" viewBox="0 0 136 118" fill="none" xmlns="http://www.w3.org/2000/svg">
<path d="M37.1473 93.8928C27.3999 68.2759 14.9974 91.0583 7.46707 83.0291C-0.0632327 75 37.5184 40.484 44.8625 49.4146C62.6677 71.0661 97.0836 40.5018 99.0147 50.1202C100.946 59.7385 43.7445 111.23 37.1473 93.8928Z" fill="#C5D5E4"/>
<path d="M81.1262 78.4816C79.3045 80.531 66.7803 98.2926 66.5526 98.9758C68.0957 98.8936 71.4936 98.6846 72.7403 98.5065C74.2986 98.2839 76.5248 97.3934 76.7474 98.0613C76.97 98.7291 75.6343 100.287 75.1891 100.955C74.7438 101.623 72.0724 102.291 72.0724 102.959C72.0724 103.627 73.6307 103.181 75.6343 102.959C77.6378 102.736 79.864 99.397 80.5319 98.7291C81.0662 98.1949 81.4966 99.2486 81.645 99.8422L88.5461 91.1601C88.3977 90.4181 88.1009 88.7559 88.1009 88.0435C88.1009 87.153 89.8818 86.7078 88.9914 82.2554C88.279 78.6935 89.7334 76.1705 90.5497 75.3543L92.108 74.6864L93.195 77.1153C93.3772 76.0223 97.0662 70.8911 98.8879 68.4622L95.4722 65.9574C94.789 67.0959 92.2842 70.6027 87.7299 75.5213C84.7697 75.749 82.948 76.4322 81.1262 78.4816Z" fill="#FAE8D1"/>
<path d="M88.1009 91.3831C84.539 87.3758 81.4224 84.2591 77.8605 83.3686C77.4988 84.0079 77.7592 83.0124 73.8534 88.7115C78.0831 90.7153 81.4224 92.2736 84.0938 96.0579C85.45 94.5052 86.365 93.3558 88.1009 91.3831Z" fill="white"/>
<path d="M100.636 65.8451C100.171 65.8451 97.1628 63.6536 97.1474 63.4026C97.132 63.1517 98.4445 61.5238 98.4445 61.5238C98.6383 61.5238 99.8697 61.1651 100.908 61.6346C101.946 62.104 101.98 63.3293 102.045 64.2061C101.722 64.5192 100.908 65.8451 100.636 65.8451Z" stroke="#242E35" stroke-width="1.5" stroke-linecap="round" stroke-linejoin="round"/>
<path d="M77.6379 83.3686C80.2945 84.2036 85.1794 87.0435 87.7298 91.2334M73.8534 88.7115C77.2691 90.2296 83.3577 93.2828 84.0864 96.0153" stroke="#242E35" stroke-width="1.5" stroke-linecap="round" stroke-linejoin="round"/>
<path d="M66.5526 98.9758C66.7803 98.2926 79.3045 80.531 81.1262 78.4816C82.948 76.4322 84.7697 75.749 87.7299 75.5213C92.2842 70.6027 94.789 67.0959 95.4722 65.9574L98.8879 68.4622C97.0662 70.8911 93.3772 76.0223 93.195 77.1153" stroke="#242E35" stroke-width="1.5" stroke-linecap="round" stroke-linejoin="round"/>
<path d="M88.413 91.2333L81.645 99.6197" stroke="#242E35" stroke-width="1.5" stroke-linecap="round" stroke-linejoin="round"/>
<path d="M62.1473 57.8928C59.946 56.3747 56.3967 51.9766 54.9394 52.5231C52.2068 55.2556 42.8704 61.1762 46.2861 61.6316C48.791 62.3147 63.8206 75.7498 54.9394 89.4125C49.0184 97.6102 48.3357 98.9764 48.3357 100.798C48.3357 102.62 61.3157 98.521 63.3647 99.6596C65.4137 100.798 64.2752 105.58 62.2258 106.036C60.1763 106.491 36.9496 120.381 32.3953 115.599C27.8411 110.818 32.3953 71.8787 44.6918 65.9581C56.9884 60.0376 61.0868 73.2449 62.2258 74.3835C68.1984 74.3835 69.3201 66.4789 78.884 67.1621C85.2832 67.1621 88.9099 60.7833 88.1853 50.3467C87.3435 38.2222 101.909 31.7298 113.702 42.4071C130.176 57.3221 102.226 63.6003 111.64 75.9776C123.936 92.1452 138.635 83.5912 134.405 74.3835C128.209 60.8935 105.465 74.9091 100.345 81.5876" stroke="#242E35" stroke-width="1.5" stroke-linecap="round" stroke-linejoin="round"/>
<path d="M92.2861 91.4608C91.2235 91.8403 88.9176 92.1433 88.1873 90.3222C87.6393 88.9558 88.2846 87.9464 88.8698 85.9955C89.5528 83.7184 89.3254 84.6294 88.6423 80.986C87.9592 77.3426 90.4644 73.9268 92.2861 74.6099C92.4372 75.2171 92.8305 76.7048 93.1948 77.7978C93.6502 79.1641 94.3334 80.3027 94.3334 82.1244C94.3334 83.9461 93.4226 85.3124 94.3334 85.9955" stroke="#242E35" stroke-width="1.5" stroke-linecap="round" stroke-linejoin="round"/>
<path d="M95.7717 94.8761C95.3008 92.392 95.6295 86.5959 98.3415 83.8137" stroke="#242E35" stroke-width="1.5" stroke-linecap="round" stroke-linejoin="round"/>
<path d="M69.5127 33.6214C73.8848 34.3501 77.5586 33.925 78.849 33.6214C78.6972 34.6841 77.8926 37.1282 75.8887 38.4034C73.3838 39.9974 69.9682 35.2154 69.5127 33.6214Z" stroke="#242E35" stroke-width="1.5" stroke-linecap="round" stroke-linejoin="round"/>
<path d="M63.5234 40.0025C66.0078 43.475 67.1951 45.5762 71.8327 47.243C77.6296 49.3265 80.2668 38.7621 81.3563 34.7419C82.5985 30.1581 81.0802 26.8245 79.2859 24.741C78.6848 23.8301 77.756 21.4164 78.849 19.0481C80.2153 16.0879 76.5719 15.177 75.661 19.7313C74.7501 24.2855 79.0743 24.9687 80.2153 22.6916C81.3563 20.4144 74.2947 20.1867 74.067 23.6024C73.8393 27.0181 75.4333 29.7507 78.1658 29.523" stroke="#242E35" stroke-width="1.5" stroke-linecap="round" stroke-linejoin="round"/>
<path d="M61.7392 28.674L60.0613 15.2496C67.192 15.5293 84.2263 15.0748 86.4868 7.27882C90.0072 -4.86227 70.9671 4.34222 66.3531 4.34222C61.7392 4.34222 54.6085 -0.272378 50.8334 7.27882C46.0796 9.79588 39.0888 16.8437 49.1556 24.8983C51.6723 26.9959 53.7696 36.2252 49.9945 37.0643C46.2194 37.9033 46.6389 34.1277 52.9307 37.0643C55.4474 38.3228 58.3835 36.6447 58.803 34.1277C59.2224 31.6106 55.8668 29.513 54.6085 26.9959C53.3501 24.4788 54.6085 22.3813 57.1252 22.3813C59.6419 22.3813 61.7392 28.2546 61.7392 28.674Z" stroke="#242E35" stroke-width="1.5" stroke-linecap="round" stroke-linejoin="round"/>
<path d="M65.8694 18.1371C63.8655 18.6836 63.6682 19.8829 63.82 20.4142H72.2453C72.473 19.807 72.7918 18.3648 72.2453 17.4539C71.5621 16.3154 68.3742 17.4539 65.8694 18.1371Z" stroke="#242E35" stroke-width="1.5" stroke-linecap="round" stroke-linejoin="round"/>
<ellipse cx="68.1465" cy="22.9192" rx="1.8217" ry="1.36628" stroke="#242E35" stroke-width="1.5" stroke-linecap="round" stroke-linejoin="round"/>
<path d="M57.444 36.5814C57.8994 39.238 58.537 45.28 57.444 48.1948C61.5428 50.0165 64.0476 55.4816 69.9682 55.0261C74.2947 53.2044 76.4641 50.5265 77.1473 51.8928C77.8304 53.259 78.6075 63.5313 75.6473 62.3928C72.687 61.2542 70.4236 57.531 69.285 58.6696C68.1465 59.8081 64.7413 64.3036 63.1473 63.3928C61.5533 62.4819 61.9593 52.0759 65.1473 51.3928C69.2461 53.2145 70.0979 53.3976 72.1473 50.8928C76.3799 55.9024 79.3044 59.5804 84.0864 61.6298C86.5476 62.6846 90.4566 65.0666 94.1058 67.8752M106.858 90.5494C102.531 91.0048 96.1552 86.906 94.1058 85.9951C91.8286 88.0445 92.5118 87.8168 92.5118 92.3711C109.59 108.539 115.739 96.9253 116.422 94.6482C117.332 87.8168 105.491 81.6686 102.303 76.2035C101.278 74.445 99.5211 72.5215 97.4508 70.653" stroke="#242E35" stroke-width="1.5" stroke-linecap="round" stroke-linejoin="round"/>
<path d="M64.0475 100.114C64.9584 99.5831 67.3721 98.5659 69.7404 98.7481C72.7006 98.9758 76.344 97.3819 76.7995 98.065C77.2549 98.7481 75.2055 101.481 73.1561 101.936C71.1066 102.392 71.7898 103.53 73.3838 103.302C74.9778 103.075 77.4826 102.619 79.3043 99.8867C80.7617 97.7006 81.4296 98.6722 81.5814 99.4313L80.8983 101.936C80.367 103.606 78.8033 107.037 76.7995 107.401C74.2946 107.857 67.0078 108.767 63.5921 104.896" stroke="#242E35" stroke-width="1.5" stroke-linecap="round" stroke-linejoin="round"/>
<circle cx="103.151" cy="43.3963" r="2.00356" fill="#E0E5CD"/>
<circle cx="118.928" cy="32.1737" r="1.78094" fill="#C5D5E4" stroke="#242E35" stroke-width="1.5" stroke-linecap="round" stroke-linejoin="round"/>
<line x1="132.925" y1="52.9171" x2="135.193" y2="52.9171" stroke="#E6C9C9" stroke-width="1.5" stroke-linecap="round" stroke-linejoin="round"/>
<line x1="125.897" y1="52.9171" x2="128.165" y2="52.9171" stroke="#E6C9C9" stroke-width="1.5" stroke-linecap="round" stroke-linejoin="round"/>
<line x1="130.672" y1="50.4101" x2="130.672" y2="48.1428" stroke="#E6C9C9" stroke-width="1.5" stroke-linecap="round" stroke-linejoin="round"/>
<line x1="130.672" y1="57.4379" x2="130.672" y2="55.1705" stroke="#E6C9C9" stroke-width="1.5" stroke-linecap="round" stroke-linejoin="round"/>
</svg>
