<svg width="133" height="92" viewBox="0 0 133 92" fill="none" xmlns="http://www.w3.org/2000/svg">
<path d="M21.2035 39.3521L15.933 35.8384" stroke="#C5D5E4" stroke-width="1.5" stroke-linecap="round" stroke-linejoin="round"/>
<path d="M24.278 36.7166L19.4467 27.9324" stroke="#C5D5E4" stroke-width="1.5" stroke-linecap="round" stroke-linejoin="round"/>
<path d="M28.2309 34.9599L26.4741 27.0542" stroke="#C5D5E4" stroke-width="1.5" stroke-linecap="round" stroke-linejoin="round"/>
<path d="M102.896 36.2777L111.241 35.3993" stroke="#C5D5E4" stroke-width="1.5" stroke-linecap="round" stroke-linejoin="round"/>
<path d="M84.2021 44.4162C102.2 29.8055 94.6473 13.1076 89.0229 8.13032C81.3659 1.35422 67.9717 -0.379201 56.5624 2.02915C37.9217 6.26786 34.3328 24.2395 34.8685 32.6955C38.5109 32.6955 47.9491 32.6955 56.5624 32.6955C56.5624 20.4932 65.8902 22.8338 67.4896 24.186C69.5788 25.9521 70.3617 29.3117 67.8111 33.6589C65.0793 38.315 63.4723 38.6361 58.8121 44.4162C55.084 49.0402 55.1161 56.0833 55.5982 59.0269C62.6152 59.0269 76.6493 59.0269 76.6493 59.0269C75.7387 56.9396 75.5244 51.5449 81.9522 46.664C85.6482 48.4301 88.0642 49.4281 92.88 53.8426C96.363 57.0354 98.986 60.3113 100.754 61.5958C101.718 61.2211 104.867 60.6003 107.181 60.4719C110.074 60.3113 111.681 59.9902 112.324 57.903C112.967 55.8157 111.921 51.9316 108.306 52.7651C106.217 53.2468 105.253 55.0129 104.45 55.9763L95.6114 48.7512C97.1112 46.1823 102.627 41.4017 108.306 41.4017C114.413 41.4017 118.966 43.4083 122.979 48.7512C126.992 54.0941 131.445 67.6805 117.466 70.7475C103.809 73.7439 121.001 80.8626 126.786 82.1471C132.571 83.4315 134.061 76.8784 128.598 76.7179C123.134 76.5573 116.341 87.9551 107.181 86.3496" stroke="#242E35" stroke-width="1.5" stroke-linecap="round" stroke-linejoin="round"/>
<path d="M60.7322 41.7496C53.0989 40.7306 35.27 43.0688 25.021 60.5726C25.5014 62.5032 26.4623 63.3076 25.9818 66.6861C25.5014 70.0646 27.5833 73.4431 29.9854 72.156C32.3875 70.869 33.8287 68.9384 30.6259 65.0773C32.9319 62.3745 36.818 58.4812 38.4728 56.8724C40.1276 58.1058 43.5332 61.731 43.9175 66.3643C44.398 72.156 41.8357 79.7174 35.5903 84.383C29.3448 89.0485 20.6972 88.5659 17.4944 78.4304C14.2916 68.2949 18.4553 67.8123 13.6511 62.8249C18.6474 58.0629 19.1403 57.5159 19.7275 56.8724C20.6883 57.6768 20.7539 61.5518 20.5267 62.8249C17.4841 79.8783 3.24196 85.3483 1 62.1814" stroke="#242E35" stroke-width="1.5" stroke-linecap="round" stroke-linejoin="round"/>
<circle cx="65.1243" cy="78.4411" r="12.737" stroke="#242E35" stroke-width="1.5" stroke-linecap="round" stroke-linejoin="round"/>
<circle cx="64.7876" cy="78.3234" r="7.62509" fill="#C5D5E4"/>
<ellipse cx="10.443" cy="51.2107" rx="6.80772" ry="6.58812" stroke="#242E35" stroke-width="1.5" stroke-linecap="round" stroke-linejoin="round"/>
<path d="M107.729 70.2417C106.319 70.2417 104.93 70.7554 103.628 72.8103C101.676 71.3976 97.2942 67.8091 95.2879 65.8826C94.0951 67.1134 92.079 69.2142 94.031 70.2417C96.471 71.526 100.7 75.3789 99.0736 79.3924C97.4471 83.4059 91.4282 85.6535 87.5244 81.4794C83.6205 77.3054 85.0844 72.1681 90.615 70.2417" stroke="#242E35" stroke-width="1.5" stroke-linecap="round" stroke-linejoin="round"/>
<path d="M98.9433 30.5674L101.139 24.8577" stroke="#C5D5E4" stroke-width="1.5" stroke-linecap="round" stroke-linejoin="round"/>
<path d="M101.139 33.2029L109.484 27.9324" stroke="#C5D5E4" stroke-width="1.5" stroke-linecap="round" stroke-linejoin="round"/>
<path d="M37.2346 30.1284H53.4853C56.3402 14.5366 69.9556 19.5875 71.932 23.1012C73.9085 26.6148 73.4692 35.6186 65.7831 41.7675C58.097 47.9164 58.7558 54.9437 58.7558 56.2613C60.9518 56.2613 63.3675 56.0417 73.2496 56.2613C74.7869 47.4772 75.4457 49.234 84.8886 40.0106C96.1302 29.0305 94.112 15.1954 85.9867 9.48571C77.8613 3.77604 62.4891 2.45837 52.6069 6.19163C42.7247 9.9249 37.6006 23.9795 37.2346 30.1284Z" fill="#C5D5E4"/>
</svg>
