<svg width="170" height="154" viewBox="0 0 170 154" fill="none" xmlns="http://www.w3.org/2000/svg">
<rect x="30" y="50" width="140" height="90" rx="20" fill="white"/>
<path d="M95.7302 96.6615C95.6148 94.4033 95.6598 86.9828 95.8004 86.2007C95.941 85.4186 96.3099 83.4797 98.7996 81.3588C99.9071 80.236 100.708 76.2206 100.262 71.3746C99.7706 70.8529 99.8738 69.971 99.8664 69.7686C99.8606 69.6067 99.9496 68.955 99.9948 68.6493C99.9867 68.4245 100.056 67.9243 100.4 67.7221C100.83 67.4693 102.829 66.7179 104.989 67.6152C105.541 67.9319 105.684 70.0203 105.461 70.4002C105.283 70.7042 105.088 70.9885 105.013 71.0927C105.044 73.1853 105.117 77.4985 105.162 78.01C105.219 78.6495 105.275 80.2008 106.216 81.0094C107.157 81.8179 108.787 83.0054 109.182 85.5232C109.498 87.5375 109.666 89.1554 109.611 96.9698" stroke="#242E35" stroke-width="2" stroke-linecap="round" stroke-linejoin="round"/>
<path d="M96.6129 32.5877C87.5772 35.1688 81 43.0841 81 52.4493C81 63.9095 93.5714 61.3419 93.5714 61.3419C93.5714 61.3419 90.8778 53.3454 93.5714 49.4851C97.638 43.657 108.362 43.657 112.429 49.4851C115.122 53.3454 112.429 61.3419 112.429 61.3419C112.429 61.3419 125 63.9095 125 52.4493C125 43.0841 118.774 37.5876 109.387 32.5877C100 27.5879 81 18.2877 81 7.0877C81 -9.91211 129.5 14.0876 98 14.0876" stroke="#242E35" stroke-width="2" stroke-linecap="round" stroke-linejoin="round"/>
<path d="M93.2874 113.616C93.2874 117.639 90.0258 120.901 86.0031 120.901C81.9803 120.901 78.7188 117.639 78.7188 113.616C78.7188 109.594 81.9803 106.332 86.0031 106.332C90.0258 106.332 93.2874 109.594 93.2874 113.616Z" fill="#E6C9C9"/>
<path d="M117.569 113.616C117.569 117.639 114.307 120.901 110.284 120.901C106.262 120.901 103 117.639 103 113.616C103 109.594 106.262 106.332 110.284 106.332C114.307 106.332 117.569 109.594 117.569 113.616Z" stroke="#242E35" stroke-width="2" stroke-linecap="round" stroke-linejoin="round"/>
<path d="M141.846 113.616C141.846 117.639 138.584 120.901 134.562 120.901C130.539 120.901 127.277 117.639 127.277 113.616C127.277 109.594 130.539 106.332 134.562 106.332C138.584 106.332 141.846 109.594 141.846 113.616Z" fill="#E0E5CD"/>
<path d="M44.7249 113.616C44.7249 117.639 41.4633 120.901 37.4406 120.901C33.4178 120.901 30.1562 117.639 30.1562 113.616C30.1562 109.594 33.4178 106.332 37.4406 106.332C41.4633 106.332 44.7249 109.594 44.7249 113.616Z" fill="#FAE8D1"/>
<path d="M69.0061 113.616C69.0061 117.639 65.7445 120.901 61.7218 120.901C57.6991 120.901 54.4375 117.639 54.4375 113.616C54.4375 109.594 57.6991 106.332 61.7218 106.332C65.7445 106.332 69.0061 109.594 69.0061 113.616Z" stroke="#242E35" stroke-width="2" stroke-linecap="round" stroke-linejoin="round"/>
<path d="M95.9533 96.969L76.5517 96.969C76.6069 89.1545 76.439 87.5367 76.1231 85.5224C75.7281 83.0046 74.0981 81.8171 73.1571 81.0086C72.2162 80.2001 72.1601 78.6488 72.1032 78.0093C72.0577 77.4977 71.985 73.1845 71.9544 71.0919C72.0294 70.9877 72.224 70.7034 72.4021 70.3995C72.6248 70.0195 72.4817 67.9312 71.93 67.6144C69.7701 66.7172 67.7712 67.4686 67.3414 67.7213C66.9975 67.9235 66.9278 68.4237 66.9359 68.6485C66.8907 68.9542 66.8016 69.606 66.8075 69.7679C66.8148 69.9702 66.7116 70.8521 67.2032 71.3738C67.6486 76.2199 66.8483 80.2352 65.7407 81.358C63.251 83.4789 62.8821 85.4178 62.7415 86.1999C62.6009 86.982 62.5559 94.4025 62.6713 96.6607L54.0007 96.6605C40.9996 96.97 5.49933 90.9034 5.49842 116.499" stroke="#242E35" stroke-width="2" stroke-linecap="round" stroke-linejoin="round"/>
<path d="M95.7302 96.6615C95.6148 94.4033 95.6598 86.9828 95.8004 86.2007C95.941 85.4186 96.3099 83.4797 98.7996 81.3588C99.9071 80.236 100.708 76.2206 100.262 71.3746C99.7706 70.8529 99.8738 69.971 99.8664 69.7686C99.8606 69.6067 99.9496 68.955 99.9948 68.6493C99.9867 68.4245 100.056 67.9243 100.4 67.7221C100.83 67.4693 102.829 66.7179 104.989 67.6152C105.541 67.9319 105.684 70.0203 105.461 70.4002C105.283 70.7042 105.088 70.9885 105.013 71.0927C105.044 73.1853 105.117 77.4985 105.162 78.01C105.219 78.6495 105.275 80.2008 106.216 81.0094C107.157 81.8179 108.787 83.0054 109.182 85.5232C109.498 87.5375 109.666 89.1554 109.611 96.9698" stroke="#242E35" stroke-width="2" stroke-linecap="round" stroke-linejoin="round"/>
<path d="M142.792 96.9698C142.847 89.1554 142.679 87.5375 142.363 85.5233C141.968 83.0055 140.338 81.8179 139.397 81.0094C138.456 80.2009 138.4 78.6496 138.343 78.0101C138.298 77.4985 138.225 73.1854 138.194 71.0927C138.27 70.9886 138.464 70.7042 138.642 70.4003C138.865 70.0204 138.722 67.932 138.17 67.6153C136.01 66.718 134.011 67.4694 133.581 67.7221C133.238 67.9243 133.168 68.4245 133.176 68.6494C133.131 68.955 133.042 69.6068 133.048 69.7687C133.055 69.971 132.952 70.853 133.443 71.3746C133.889 76.2207 133.088 80.2361 131.981 81.3588C129.491 83.4797 129.122 85.4187 128.982 86.2007C128.841 86.9828 128.796 94.4033 128.911 96.6616L109.781 96.6616" stroke="#242E35" stroke-width="2" stroke-linecap="round" stroke-linejoin="round"/>
<path d="M93.4999 14.0879C91.4999 14.0879 92.4996 14.088 69.4999 14.0879C46.5003 14.0878 19.9 31.1879 43.5 45.5879C63.5003 57.7915 31.9981 6.58789 15.4981 22.5879C-1.00191 38.5879 23.5 69.5 32.5007 80.5" stroke="#242E35" stroke-width="2" stroke-linecap="round" stroke-linejoin="round"/>
<path d="M38 88.5C50 104 32.0006 121.34 17.4998 114.088C2.99902 106.835 11.5032 130.588 30.0344 130.588H141.968C151.376 130.588 159.001 123.201 159.001 114.088C159.001 104.975 151.376 97.5879 141.968 97.5879" stroke="#242E35" stroke-width="2" stroke-linecap="round" stroke-linejoin="round"/>
</svg>
