<svg width="152" height="145" viewBox="0 0 152 145" fill="none" xmlns="http://www.w3.org/2000/svg">
<rect x="6" width="140" height="106" rx="53" fill="white"/>
<path d="M63.3284 73.7899C63.0932 69.189 63.185 54.0709 63.4713 52.4775C63.7577 50.8842 64.5093 46.9338 69.5818 42.6128C71.8382 40.3254 73.4689 32.1446 72.5616 22.2715C71.56 21.2087 71.7702 19.4118 71.7553 18.9996C71.7434 18.6698 71.9247 17.3419 72.0169 16.7191C72.0003 16.2611 72.1424 15.242 72.843 14.83C73.7187 14.3151 77.7913 12.7843 82.1917 14.6123C83.3158 15.2576 83.6072 19.5123 83.1536 20.2864C82.7907 20.9057 82.3942 21.4849 82.2414 21.6971C82.3038 25.9606 82.4517 34.748 82.5444 35.7903C82.6603 37.0931 82.7746 40.2537 84.6917 41.9009C86.6088 43.5481 89.9298 45.9676 90.7344 51.0973C91.3781 55.201 91.7202 58.4972 91.6077 74.4179" stroke="#242E35" stroke-width="2" stroke-linecap="round" stroke-linejoin="round"/>
<path d="M108.368 72.899C108.184 69.2975 108.256 57.4632 108.48 56.2159C108.704 54.9686 109.293 51.8764 113.263 48.494C115.03 46.7034 116.306 40.2996 115.596 32.571C114.812 31.7391 114.976 30.3325 114.965 30.0098C114.955 29.7517 115.097 28.7122 115.169 28.2247C115.156 27.8662 115.268 27.0684 115.816 26.746C116.502 26.3429 119.69 25.1446 123.134 26.5755C124.014 27.0807 124.242 30.4112 123.887 31.0171C123.603 31.5019 123.293 31.9553 123.173 32.1214C123.222 35.4588 123.338 42.3375 123.41 43.1533C123.501 44.1732 123.59 46.6473 125.091 47.9367C126.592 49.2261 129.191 51.12 129.821 55.1355C130.325 58.3478 130.593 60.928 130.505 73.3906" stroke="#242E35" stroke-width="2" stroke-linecap="round" stroke-linejoin="round"/>
<path d="M23.0439 72.899C22.8599 69.2975 22.9316 57.4632 23.1558 56.2159C23.38 54.9686 23.9683 51.8764 27.939 48.494C29.7053 46.7034 30.9818 40.2996 30.2716 32.571C29.4875 31.7391 29.6521 30.3325 29.6404 30.0098C29.6311 29.7517 29.773 28.7122 29.8452 28.2247C29.8322 27.8662 29.9434 27.0684 30.4918 26.746C31.1774 26.3429 34.3653 25.1446 37.8099 26.5755C38.6898 27.0807 38.9179 30.4112 38.5628 31.0171C38.2787 31.5019 37.9684 31.9553 37.8488 32.1214C37.8976 35.4588 38.0134 42.3375 38.086 43.1533C38.1767 44.1732 38.2661 46.6473 39.7668 47.9367C41.2675 49.2261 43.8671 51.12 44.497 55.1355C45.0008 58.3478 45.2686 60.928 45.1806 73.3906" stroke="#242E35" stroke-width="2" stroke-linecap="round" stroke-linejoin="round"/>
<path d="M9.17041 144C8.43692 139.59 -4.03227 83.7361 3.30255 83.7361C9.17041 83.7361 18.4619 83.7361 22.3741 83.7361C26.286 108.479 30.8825 152.819 17.9732 132.241C1.83663 106.519 29.7089 131.506 37.7772 126.362C45.8456 121.217 50.2464 116.073 65.6496 120.482C81.0527 124.892 92.0549 130.036 110.392 116.073C128.729 102.109 150 92.5552 150 88.8806C150 85.206 136.797 81.5313 111.859 96.9648C131.663 83.7361 137.531 81.5313 128.729 81.5313C121.688 81.5313 111.614 86.9208 107.458 89.6155C111.859 86.6758 119.927 80.6494 116.993 80.0615C114.059 79.4736 100.612 83.2462 94.2554 85.206" stroke="#242E35" stroke-width="2" stroke-linecap="round" stroke-linejoin="round"/>
<path d="M25 95.2241C25.49 95.4648 28.0867 94.7909 34.5542 90.1697C42.6384 84.3933 46.3131 74.2846 63.2166 81.5051C80.1201 88.7256 111.722 80.0605 110.987 97.3897C110.987 104.61 102.903 97.3897 80.1201 101" stroke="#242E35" stroke-width="2" stroke-linecap="round" stroke-linejoin="round"/>
<path d="M71 56L78 45L85 56L78 67L71 56Z" fill="#FAE8D1"/>
<circle cx="120" cy="64" r="5" fill="#E0E5CD"/>
<path d="M34.5 56L36.1839 61.1824H41.6329L37.2245 64.3853L38.9084 69.5676L34.5 66.3647L30.0916 69.5676L31.7755 64.3853L27.3671 61.1824H32.8161L34.5 56Z" fill="#C5D5E4"/>
</svg>
