<svg width="12" height="9" viewBox="0 0 12 9" fill="none" xmlns="http://www.w3.org/2000/svg">
<path fill-rule="evenodd" clip-rule="evenodd" d="M11.1047 0.812366C11.2772 0.596735 11.2422 0.282089 11.0266 0.109584C10.811 -0.0629208 10.4963 -0.0279601 10.3238 0.187671L4.3871 7.60857L0.853553 4.07502C0.658291 3.87976 0.341709 3.87976 0.146447 4.07502C-0.0488155 4.27028 -0.0488155 4.58687 0.146447 4.78213L4.06985 8.70553C4.07792 8.71382 4.08634 8.72189 4.09509 8.7297C4.13828 8.76843 4.18658 8.79833 4.23767 8.8194C4.37815 8.87748 4.53757 8.86779 4.66932 8.79549C4.71777 8.76891 4.76248 8.73386 4.80113 8.6906C4.80896 8.68187 4.81642 8.67294 4.82353 8.66381L11.1047 0.812366Z" fill="#242424"/>
</svg>
