<svg width="222" height="222" viewBox="0 0 222 222" fill="none" xmlns="http://www.w3.org/2000/svg">
<g style="mix-blend-mode:multiply">
<path d="M123.167 84.3643H132.875V128.555H123.167V84.3643Z" fill="#E6C9C9"/>
</g>
<g style="mix-blend-mode:multiply">
<rect x="123.167" y="136.589" width="10.0433" height="56.9119" fill="#E6C9C9"/>
</g>
<path d="M81.9268 192.709C81.4155 183.272 81.298 90.4894 81.8754 87.2192C82.4528 83.949 83.9696 75.841 94.3474 66.9455C98.9616 62.239 102.255 45.4478 100.331 25.201C98.2702 23.0272 98.6901 19.34 98.6569 18.4945C98.6304 17.8181 98.994 15.093 99.1791 13.815C99.1422 12.8755 99.4272 10.7842 100.862 9.93479C102.655 8.87304 110.999 5.70715 120.037 9.4292C122.347 10.7458 122.972 19.4716 122.046 21.0623C121.306 22.3348 120.496 23.5255 120.184 23.9618M120.184 23.9618C120.339 32.7069 120.698 50.7313 120.894 52.8687C121.14 55.5405 121.395 62.0231 125.337 65.3898C129.28 68.7566 136.108 73.6987 137.791 84.2159C139.137 92.6297 139.213 160.05 139.083 192.709M120.184 23.9618C119.467 24.532 115.89 25.6725 107.32 25.6725" stroke="#242E35" stroke-width="1.5" stroke-linecap="round" stroke-linejoin="round"/>
<path d="M131.093 97.0422C113.952 93.2959 95.3834 95.4812 88.2415 97.0422L87.6792 167.285L130.345 165.613C130.429 160.261 130.694 139.054 131.093 97.0422Z" stroke="#242E35" stroke-width="1.5" stroke-linejoin="round"/>
<path d="M145.703 52.249C129.983 43.0016 96.2295 65.1955 87.9068 59.1846C77.2699 48.55 121.754 33.6801 101.399 25.1099" stroke="#242E35" stroke-width="1.5" stroke-linecap="round" stroke-linejoin="round"/>
<path d="M119.58 122.25C118.377 120.781 115.068 117.843 111.458 117.843C106.946 117.843 99.7261 121.911 99.7261 132.759C99.7261 143.608 107.547 144.625 111.458 144.625C115.368 144.625 120.482 139.879 120.482 135.471" stroke="#242E35" stroke-width="1.5" stroke-linejoin="round"/>
<path d="M95.7129 128.555H113.791" stroke="#242E35" stroke-width="1.5" stroke-linejoin="round"/>
<path d="M95.7129 134.582H113.791" stroke="#242E35" stroke-width="1.5" stroke-linejoin="round"/>
<path d="M153.562 57.5778C158.494 59.9098 168.358 67.3114 168.358 78.2618C168.358 91.9497 164.659 52.7109 173.907 52.7109" stroke="#242E35" stroke-width="1.5" stroke-linecap="round" stroke-linejoin="round"/>
<line x1="0.75" y1="-0.75" x2="16.9879" y2="-0.75" transform="matrix(0.990544 -0.137197 0.30477 0.952426 159.111 71.2656)" stroke="#242E35" stroke-width="1.5" stroke-linecap="round" stroke-linejoin="round"/>
<line x1="0.75" y1="-0.75" x2="16.9879" y2="-0.75" transform="matrix(0.990547 -0.13717 0.304826 0.952408 159.111 76.1328)" stroke="#242E35" stroke-width="1.5" stroke-linecap="round" stroke-linejoin="round"/>
</svg>
