<svg width="96" height="125" viewBox="0 0 96 125" fill="none" xmlns="http://www.w3.org/2000/svg">
<g clip-path="url(#clip0)">
<path d="M47.4439 21.2569C47.4439 21.2569 46.4448 22.7442 43.9513 22.2513C41.7738 21.8178 36.5391 15.9363 25.472 24.2231C22.6982 26.3279 20.2423 28.8181 18.1794 31.6176L11.2539 40.8819C11.1633 41.0059 11.038 41.1008 10.8937 41.1545C10.7494 41.2082 10.5923 41.2185 10.4421 41.1841C10.2919 41.1497 10.1553 41.0721 10.0491 40.9609C9.94288 40.8497 9.87189 40.7099 9.84493 40.5589C9.11908 36.4452 8.38469 25.5235 17.7012 14.8143C27.0177 4.10516 31.7741 1.09639 39.8182 0.866904C45.0688 0.758966 50.278 1.81275 55.0696 3.95217C56.7775 4.70011 58.8526 5.65204 61.2522 6.87595C70.6455 11.6441 84.1036 21.7498 92.9504 17.2537C93.4067 17.0304 93.7979 16.6944 94.0864 16.2778C94.375 15.8611 94.5513 15.3777 94.5985 14.8738C94.6668 13.7944 93.6677 11.6271 90.8241 13.174C86.1701 15.7238 85.1796 18.9365 89.9702 26.0505C93.3859 31.1501 95.7257 34.0059 95.017 37.6436" stroke="#242E35" stroke-width="2" stroke-linecap="round" stroke-linejoin="round"/>
<path d="M79.0077 93.6801C78.9887 94.2295 78.8039 94.7605 78.4774 95.204C78.1509 95.6474 77.6978 95.9827 77.1771 96.1661C76.6565 96.3496 76.0923 96.3727 75.5583 96.2325C75.0242 96.0922 74.5449 95.7952 74.1829 95.38C73.124 94.1816 71.7065 92.6942 71.0318 92.4987C70.1011 92.2352 68.6408 93.8331 68.0943 94.4875C68.02 94.5813 67.9252 94.657 67.8173 94.7091C67.7093 94.7612 67.5909 94.7883 67.4709 94.7883C67.3509 94.7883 67.2325 94.7612 67.1245 94.7091C67.0166 94.657 66.9219 94.5813 66.8475 94.4875C66.4206 93.9266 66.0534 92.5922 66.2156 89.5409C66.5487 83.0899 63.2268 81.934 61.2286 84.0843C59.2304 86.2347 61.0664 89.8724 68.9141 88.7165C76.7618 87.5606 76.8899 83.7529 76.0616 81.917C75.3357 80.3361 73.6107 71.4968 73.3887 64.9778C73.3478 64.0064 73.5467 63.0399 73.968 62.1627C74.3893 61.2855 75.0202 60.5245 75.8054 59.9462C77.6584 58.5948 80.3398 57.4899 82.9699 59.4872C83.0601 59.5569 83.1321 59.6473 83.1796 59.7506C83.2272 59.8539 83.249 59.9672 83.2431 60.0807C83.2372 60.1942 83.2039 60.3046 83.1459 60.4026C83.088 60.5005 83.0071 60.583 82.9102 60.6431C82.3209 60.9916 81.0486 61.3401 78.3843 61.4166C72.5689 61.5781 72.902 55.96 76.7276 49.8405C79.8787 44.7918 87.6581 40.6442 90.2882 39.3523C91.0766 38.947 91.9692 38.7871 92.85 38.8933C94.6348 39.1483 96.7355 40.5932 93.3026 46.8657C88.179 56.2915 90.143 63.8644 90.143 63.8644C90.143 63.8644 96.2914 75.9335 85.4976 95.4395C74.7038 114.945 73.2009 113.467 65.7289 116.28C64.1453 116.87 62.5017 117.286 60.8273 117.521C52.1 118.762 44.3633 111.775 44.3633 102.995V87.1186" stroke="#242E35" stroke-width="2" stroke-linecap="round" stroke-linejoin="round"/>
<path d="M43.6357 46.5163C47.0001 46.5163 50.2889 47.5092 53.0862 49.3696C55.8836 51.23 58.0639 53.8742 59.3514 56.9679C60.6389 60.0616 60.9757 63.4658 60.3194 66.75C59.663 70.0342 58.0429 73.051 55.664 75.4188C53.285 77.7866 50.254 79.3991 46.9543 80.0524C43.6546 80.7057 40.2344 80.3704 37.1261 79.0889C34.0178 77.8075 31.3612 75.6374 29.492 72.8532C27.6229 70.0689 26.6252 66.7956 26.6252 63.447C26.6275 58.9574 28.4204 54.6523 31.61 51.4777C34.7996 48.303 39.125 46.5185 43.6357 46.5163V46.5163ZM43.6357 39.7168C38.9199 39.7151 34.3094 41.1054 30.3875 43.7119C26.4656 46.3184 23.4083 50.024 21.6025 54.3599C19.7966 58.6959 19.3233 63.4675 20.2422 68.0713C21.1612 72.6751 23.4313 76.9042 26.7653 80.2238C30.0993 83.5433 34.3476 85.8043 38.9727 86.7206C43.5978 87.6369 48.3921 87.1675 52.7492 85.3716C57.1062 83.5758 60.8303 80.5343 63.4505 76.6317C66.0707 72.7291 67.4692 68.1407 67.4692 63.447C67.4692 57.1548 64.9585 51.1202 60.4891 46.6702C56.0197 42.2202 49.9575 39.7191 43.6357 39.7168V39.7168Z" stroke="#242E35" stroke-width="2" stroke-linecap="round" stroke-linejoin="round"/>
<path d="M45.3339 124.149C53.7853 124.149 60.6365 117.33 60.6365 108.918C60.6365 100.507 53.7853 93.6875 45.3339 93.6875C36.8825 93.6875 30.0312 100.507 30.0312 108.918C30.0312 117.33 36.8825 124.149 45.3339 124.149Z" stroke="#242E35" stroke-width="2" stroke-linecap="round" stroke-linejoin="round"/>
<path d="M73.0294 100.793H64.8828C64.8828 100.793 67.5215 105.986 73.0294 100.793Z" fill="#242E35"/>
<path d="M49.4436 64.4478C49.4436 66.6982 47.6095 68.5305 45.337 68.5305C43.0646 68.5305 41.2305 66.6982 41.2305 64.4478C41.2305 62.1975 43.0646 60.3652 45.337 60.3652C47.6095 60.3652 49.4436 62.1975 49.4436 64.4478Z" stroke="#242E35" stroke-width="2"/>
<path d="M33.6797 62.4355C33.6797 62.4355 41.3139 55.9845 47.9661 56.6474C54.6183 57.3104 60.6044 62.4355 60.6044 62.4355" stroke="#242E35" stroke-width="2" stroke-miterlimit="10"/>
<path d="M31.1854 103.105C31.1854 103.105 18.3763 95.175 17.3686 82.2729C16.6086 72.4477 13.6369 60.0301 12.245 54.6755C12.1552 54.3298 11.9867 54.0093 11.7526 53.7388C11.5185 53.4682 11.225 53.2549 10.8949 53.1152C10.5647 52.9756 10.2067 52.9133 9.84851 52.9333C9.49034 52.9534 9.14158 53.0551 8.8292 53.2306C5.05478 55.2875 -1.10213 60.0301 1.38284 68.5295C4.86692 80.4286 15.9767 76.6549 15.9767 76.6549" stroke="#242E35" stroke-width="2" stroke-linecap="round" stroke-linejoin="round"/>
<g style="mix-blend-mode:multiply">
<path d="M43.634 63.4473L28.8438 63.5918C28.9535 67.4345 30.5693 71.082 33.3455 73.7546C36.1218 76.4272 39.8383 77.9128 43.7006 77.894C47.563 77.8751 51.2646 76.3532 54.0144 73.6536C56.7642 70.954 58.3438 67.2909 58.4157 63.4473H43.634Z" fill="#EFDDC7"/>
</g>
</g>
<defs>
<clipPath id="clip0">
<rect width="96" height="125" fill="white"/>
</clipPath>
</defs>
</svg>
