<svg width="107" height="130" viewBox="0 0 107 130" fill="none" xmlns="http://www.w3.org/2000/svg">
<path d="M57.2715 77.3306V74.7396H57.7668V72.8708H57.2715V71.6815C57.2715 71.6815 56.3837 71.3535 54.8777 71.3535C53.3716 71.3535 52.4838 71.6815 52.4838 71.6815V72.8708H51.9885V74.7396H52.4838V85.1035C52.4838 85.2167 52.4838 86.1225 51.9885 86.6326C51.1 87.5476 50.3376 88.5015 49.0169 89.8607C47.9603 90.948 47.8062 93.9382 47.8612 95.2974C47.9038 102.535 48.7807 115.855 48.8127 122.291C48.822 124.166 48.1392 125.295 48.0263 125.709C47.4671 127.76 48.9669 127.788 49.8423 128.088C50.7177 128.388 53.1147 128.635 54.9639 128.635C56.7587 128.635 58.9977 128.216 59.9531 127.76C61.7577 126.899 62.1693 126.502 62.0592 125.709C62.0592 124.835 61.1146 123.531 61.1146 122.099C61.1146 120.048 61.1146 117.839 61.1146 116.14L62.0592 95.2974C62.0592 91.5596 61.3988 90.88 61.2337 90.5402C61.0686 90.2004 58.4271 87.4821 57.9319 86.9724C57.5356 86.5646 57.2715 85.7502 57.2715 85.1035C57.2711 83.9801 58.1545 81.7333 63.229 80.9644" stroke="#242E35" stroke-width="2" stroke-linecap="round" stroke-linejoin="round"/>
<path d="M79.8979 90.8523C81.0129 86.9106 82.8716 81.4674 82.8716 75.8364C82.8716 71.3316 82.8716 68.2033 82.8716 67.2022H82.3141V64.9499H82.8716V63.0729C82.8716 63.0729 84.1168 62.5098 86.0307 62.5098C87.9446 62.5098 89.1899 63.0729 89.1899 63.0729V64.9499H89.5615V67.2022H89.004V75.8364C89.1279 78.4016 89.8589 84.9961 91.7915 90.8523C94.2073 98.1726 95.1365 103.428 95.1365 109.059C95.1365 113.564 94.8887 121.447 94.7648 124.826C94.8268 125.452 94.2817 126.703 91.6057 126.703C88.9297 126.703 82.1902 126.703 79.1549 126.703C78.5355 126.765 77.2595 126.478 77.1108 124.826C76.925 122.761 76.3675 109.059 76.925 104.367C77.6134 99.5127 77.3371 89.2665 70.7248 87.1137C62.4594 84.4226 57.2695 81.9238 57.2695 77.3106" stroke="#242E35" stroke-width="2" stroke-linecap="round" stroke-linejoin="round"/>
<path d="M27.5492 102.107H24.0256C22.7051 102.107 23.1439 102.996 23.5843 103.44C23.0558 103.973 23.5109 104.402 23.8045 104.55V109.213C23.8045 110.101 23.3641 110.101 22.4832 110.545C19.6203 111.433 16.538 113.654 16.0975 116.318C15.2167 122.003 18.3732 126.384 20.0616 127.865H31.5132C34.3761 124.756 35.9177 119.649 35.4772 116.318C35.0368 112.988 29.9716 110.767 28.8705 110.545C27.9896 110.367 27.6226 109.583 27.5492 109.213V104.55C28.6503 104.106 27.7694 103.662 27.5492 103.44C29.1348 102.907 28.2098 102.329 27.5492 102.107Z" stroke="#242E35" stroke-width="2" stroke-linecap="round" stroke-linejoin="round"/>
<path d="M29.0231 28.9089C15.3841 46.5002 -3.71048 81.8216 29.0231 82.3772C34.583 82.4715 39.5667 82.5274 44.0107 82.4873M39.4264 13.632C42.894 19.8815 41.507 23.3535 33.1849 19.188C24.8627 15.0225 24.1692 5.99456 27.6368 1.8282C31.1043 -2.33815 32.4913 10.8553 38.7329 5.30017C44.9745 -0.254973 46.3615 3.21699 49.1356 8.07774C51.9096 12.9385 53.2966 6.6889 58.1512 2.52254C63.0057 -1.64381 62.3122 8.07768 56.7642 19.188C51.2161 30.2982 38.7329 22.6599 32.4913 22.6599C26.2498 22.6599 28.3303 27.5202 44.281 26.8258C60.2317 26.1314 67.1668 35.8529 72.7149 55.2959C76.9804 71.5255 74.9491 78.2983 63.2325 80.946" stroke="#242E35" stroke-width="2" stroke-linecap="round" stroke-linejoin="round"/>
<circle cx="42.8521" cy="56.7427" r="13.0708" fill="#E0E5CD" stroke="#242E35" stroke-width="2" stroke-linecap="round" stroke-linejoin="round"/>
<path d="M47.4693 51.7799C44.6501 51.6132 39.0117 51.9799 39.0117 54.7796C39.0117 58.2793 47.4693 56.2798 47.4693 59.7795C47.4693 62.5792 41.8309 63.2792 39.0117 63.2792" stroke="#242E35" stroke-width="2" stroke-linecap="round" stroke-linejoin="round"/>
<line x1="42.7031" y1="49.6699" x2="42.7031" y2="65.7384" stroke="#242E35" stroke-width="2" stroke-linecap="round" stroke-linejoin="round"/>
<path d="M38.2457 26.9492C36.8502 27.8883 32.8151 31.6108 31.1397 36.6817C29.4643 41.7525 38.8185 33.6297 43.7051 28.9345C45.7987 32.9254 50.6839 40.2031 53.4762 37.3859C56.9666 33.8645 52.6217 28.3578 48.4333 26.9492" stroke="#242E35" stroke-width="2" stroke-linecap="round" stroke-linejoin="round"/>
<path d="M52.0938 112.231C51.9886 111.929 51.7869 102.775 51.6992 98.2354L58.1438 97.668L57.6177 112.231C55.8202 112.357 52.199 112.534 52.0938 112.231Z" stroke="#242E35" stroke-width="2" stroke-linecap="round" stroke-linejoin="round"/>
<circle cx="25.556" cy="115.947" r="3.07549" stroke="#242E35" stroke-width="2" stroke-linecap="round" stroke-linejoin="round"/>
<path d="M91.2928 102.107C87.2623 102.107 78.8517 102.107 77.4531 102.107" stroke="#242E35" stroke-width="2" stroke-linecap="round" stroke-linejoin="round"/>
<path d="M87.4501 117.484C84.4272 117.484 78.1192 117.484 77.0703 117.484" stroke="#242E35" stroke-width="2" stroke-linecap="round" stroke-linejoin="round"/>
</svg>
