<svg width="117" height="204" viewBox="0 0 117 204" fill="none" xmlns="http://www.w3.org/2000/svg">
<g style="mix-blend-mode:multiply">
<path d="M107.816 122.542C102.351 111.612 99.846 92.9392 99.2767 84.9692C97.5689 89.9979 97.1701 105.293 101.269 120.549C105.368 135.806 107.911 154.801 107.816 162.961L112.655 164.953C113.319 155.37 113.281 133.472 107.816 122.542Z" fill="#E6C9C9"/>
</g>
<g style="mix-blend-mode:multiply">
<path d="M46.6184 147.021C48.2124 122.2 38.9331 96.0703 34.0942 86.1079H42.9181C46.0491 90.757 53.7344 104.894 59.4272 124.25C65.12 143.605 59.9016 183.939 56.5808 203.01H42.9181C43.4874 193.807 45.0244 171.842 46.6184 147.021Z" fill="#E6C9C9"/>
</g>
<path d="M15.0205 142.751V130.796C15.4949 129.942 17.5253 128.234 21.8519 128.234C21.8519 132.56 21.8519 138.007 21.8519 140.189" stroke="#242E35" stroke-width="1.5" stroke-linecap="round" stroke-linejoin="round"/>
<path d="M87.3215 154.99C87.3215 149.487 87.3215 137.798 87.3215 135.065C85.4998 135.065 83.1468 135.824 82.198 136.204V152.144" stroke="#242E35" stroke-width="1.5" stroke-linecap="round" stroke-linejoin="round"/>
<path d="M72.2361 152.998C78.1186 150.246 95.1212 146.167 116.071 151.859" stroke="#242E35" stroke-width="1.5" stroke-linecap="round" stroke-linejoin="round"/>
<path d="M72.2361 194.292C78.1186 191.54 95.1212 187.461 116.071 193.153" stroke="#242E35" stroke-width="1.5" stroke-linecap="round" stroke-linejoin="round"/>
<path d="M101.27 61.6284C101.175 71.2113 102.181 93.3943 106.963 105.463C112.94 120.549 116.071 129.088 116.071 141.612C116.071 151.632 116.071 186.016 116.071 201.387" stroke="#242E35" stroke-width="1.5" stroke-linecap="round" stroke-linejoin="round"/>
<path d="M71.95 203.095V139.051C72.2346 134.686 73.487 124.249 76.2196 117.418C79.6352 108.879 84.1895 95.5008 85.328 82.9767C86.4666 70.4525 85.0434 64.4751 88.1744 62.4826C91.3055 60.4901 96.7136 58.7823 100.129 61.0594C102.862 62.8811 102.596 59.5414 102.122 57.6439C102.501 56.9797 103.147 55.3098 102.691 53.9436C102.122 52.2357 103.83 49.674 102.691 48.82C101.553 47.9661 97.5676 45.9736 93.8672 45.9736C90.1669 45.9736 83.0509 47.3968 85.6127 53.3743C85.328 55.6514 84.1895 58.2132 85.6127 59.3517C86.7512 60.2626 86.0871 61.8185 85.6127 62.4826" stroke="#242E35" stroke-width="1.5" stroke-linecap="round" stroke-linejoin="round"/>
<path d="M6.76805 202.81C5.06021 187.344 1.64453 153.738 1.64453 143.035C1.64453 129.657 2.21381 123.395 5.91413 114.002C9.61446 104.609 21.0001 88.3845 23.2772 67.3212C25.5543 46.2578 26.1236 28.0408 24.7004 24.6251C24.1311 22.0634 23.2772 20.0709 24.1311 18.0784C24.985 16.0859 24.7004 14.3781 24.7004 11.5317C24.7004 8.68528 24.1311 1 32.101 1C40.9249 1 41.2095 8.40064 41.2095 13.2395C41.2095 18.0784 42.0634 18.363 42.3481 18.9323C42.6327 19.5016 42.3481 22.0634 40.9249 22.6327C39.5017 23.2019 38.9324 52.2352 42.3481 60.2052C32.9549 61.6284 30.6778 62.7669 21.0001 59.0666C11.3223 55.3663 32.101 53.6584 32.101 63.6208C32.101 73.5832 41.4942 65.044 45.1945 75.8604C48.8948 86.6767 49.1794 89.2385 56.2954 102.332C63.4114 115.425 68.535 131.081 63.1268 187.155C62.216 193.531 61.0394 200.248 60.565 202.81" stroke="#242E35" stroke-width="1.5" stroke-linecap="round" stroke-linejoin="round"/>
<path d="M56.5804 137.344C36.9972 134.156 15.782 136.016 7.62231 137.344L9.89944 197.119L55.7265 195.695C55.8214 191.141 56.125 173.095 56.5804 137.344Z" stroke="#242E35" stroke-width="1.5" stroke-linecap="round" stroke-linejoin="round"/>
<path d="M45.0323 155.104C36.2341 151.916 20.6459 152.216 20.9619 159.897C21.357 169.498 45.3145 161.961 45.6249 169.505C45.9354 177.049 20.0207 179.146 19.8231 174.345" stroke="#242E35" stroke-width="1.5" stroke-linecap="round" stroke-linejoin="round"/>
<path d="M32.5488 147.181L34.3324 184.013" stroke="#242E35" stroke-width="1.5" stroke-linecap="round" stroke-linejoin="round"/>
<path d="M102.976 162.846C97.4725 159.62 88.2312 156.242 86.1818 163.984C83.62 173.662 95.2901 173.378 87.3202 181.063C79.3503 188.749 76.2184 181.917 83.619 180.494C91.0196 179.071 98.7057 183.455 102.122 179.186" stroke="#242E35" stroke-width="1.5" stroke-linecap="round" stroke-linejoin="round"/>
<path d="M85.0452 172.809L96.4308 170.816" stroke="#242E35" stroke-width="1.5" stroke-linecap="round" stroke-linejoin="round"/>
</svg>
