<svg width="146" height="136" viewBox="0 0 146 136" fill="none" xmlns="http://www.w3.org/2000/svg">
<circle cx="62.5899" cy="113.795" r="18.5899" fill="#FAE8D1"/>
<g style="mix-blend-mode:multiply">
<path d="M77.4614 32.4141C47.0565 32.4141 25.4096 51.4171 18.3867 60.9186C26.6489 55.5482 38.6291 54.722 49.7831 56.3744C77.0483 44.3943 107.205 55.5482 112.989 58.8531C122.904 55.8787 131.717 59.5416 134.884 61.7449C128.412 51.9679 107.866 32.4141 77.4614 32.4141Z" fill="#C5D5E4"/>
</g>
<path d="M12.2165 62.8471C19.8089 50.5297 40.9755 30.9699 76.7815 30.152C115.417 29.2695 137.728 57.5631 144.048 71.2685C140.97 69.9475 133.331 69.0559 127.396 76.0573C121.791 74.2409 110.832 70.9383 96.6529 77.5434M96.6529 77.5434C85.9365 74.7362 74.4733 70.443 55.6783 77.5434C50.4025 75.0665 44.4673 71.1035 25.8372 74.9014C24.1885 73.4152 13.1423 63.0122 4.56914 66.1496C-4.00402 69.287 10.0098 70.7732 15.945 67.1404C21.8803 63.5076 27.4861 59.5445 43.3135 62.8471C46.7757 60.7004 77.8231 48.1508 109.972 62.8471C117.721 61.5261 131.848 61.5261 137.124 67.1404M96.6529 77.5434C90.6711 56.3768 75.1331 42.9332 75.1331 54.0949C75.1331 58.8505 91.1312 92.5785 91.1312 114.485M39.0432 15.8881C29.5901 19.6064 81.1804 25.8146 89.0295 13.4154C96.8786 1.01614 70.3263 -6.83358 67.5478 13.414C67.0018 19.8846 70.2185 37.8655 94.813 48.1107C125.556 60.9171 110.249 110.077 76.7815 101.402" stroke="#242E35" stroke-width="2" stroke-linecap="round" stroke-linejoin="round"/>
<path d="M44.1953 62.7193C44.9351 54.2952 51.4352 39.4361 71.6776 30.3477" stroke="#242E35" stroke-width="2" stroke-linecap="round" stroke-linejoin="round"/>
<path d="M55.6992 77.4448C55.6992 73.0734 56.2514 63.0423 58.4601 57.8887" stroke="#242E35" stroke-width="2" stroke-linecap="round" stroke-linejoin="round"/>
<path d="M26.0195 75.1426C27.0932 72.1517 30.1148 65.2495 33.6119 61.5684" stroke="#242E35" stroke-width="2" stroke-linecap="round" stroke-linejoin="round"/>
<path d="M127.255 76.0621C125.261 72.8411 120.353 65.5708 116.672 62.2578" stroke="#242E35" stroke-width="2" stroke-linecap="round" stroke-linejoin="round"/>
<path d="M137.145 67.0906C138.218 66.9372 142.436 68.0108 143.587 70.3115" stroke="#242E35" stroke-width="2" stroke-linecap="round" stroke-linejoin="round"/>
<path d="M91.1277 117.479C91.1277 126.627 83.7112 134.044 74.5625 134.044" stroke="#242E35" stroke-width="2" stroke-linecap="round" stroke-linejoin="round"/>
<circle cx="71.7996" cy="117.477" r="16.5652" stroke="#242E35" stroke-width="2" stroke-linecap="round" stroke-linejoin="round"/>
<circle cx="71.7974" cy="117.477" r="11.0435" stroke="#242E35" stroke-width="2" stroke-linecap="round" stroke-linejoin="round"/>
<path d="M76.6199 114.612C74.8189 113.429 70.9557 111.514 69.9112 113.324C68.6055 115.585 74.941 117.52 73.6353 119.782C72.5908 121.591 68.6033 119.892 66.7402 118.816" stroke="#242E35" stroke-width="2" stroke-linecap="round" stroke-linejoin="round"/>
<line x1="74.3426" y1="111.944" x2="68.6194" y2="121.857" stroke="#242E35" stroke-width="2" stroke-linecap="round" stroke-linejoin="round"/>
</svg>
