<svg width="149" height="149" viewBox="0 0 149 149" fill="none" xmlns="http://www.w3.org/2000/svg">
<path d="M86.4625 128.061C68.5153 134.74 47.5323 130.867 33.106 116.441C18.1268 101.461 14.5248 79.413 22.3003 61.0342" stroke="#3C400C" stroke-width="4"/>
<path d="M44.0564 93.0063V93.1143H53.7404V93.0063C52.6964 92.4663 51.8684 91.4223 51.8684 89.2983V65.5383H51.7244C50.3204 66.9783 46.4684 68.2743 44.0564 68.3103V68.4183C45.1724 68.9943 46.1084 70.4703 46.1084 71.8383V89.2983C46.1084 91.4223 45.2084 92.4303 44.0564 93.0063ZM54.6821 79.6143C54.6821 87.1743 58.8221 93.6543 63.8261 93.6543C68.9021 93.6543 72.9341 87.2103 72.9341 79.6143C72.9341 72.0183 68.9741 65.5743 63.8261 65.5743C58.6781 65.5743 54.6821 72.0543 54.6821 79.6143ZM60.9101 79.6143C60.9101 71.5863 61.8461 66.7263 63.8261 66.7263C65.8061 66.7263 66.7061 71.5503 66.7061 79.6143C66.7061 87.6783 65.7341 92.5383 63.8261 92.5383C61.9181 92.5383 60.9101 87.6783 60.9101 79.6143ZM74.2289 79.6143C74.2289 87.1743 78.3689 93.6543 83.3729 93.6543C88.4489 93.6543 92.4809 87.2103 92.4809 79.6143C92.4809 72.0183 88.5209 65.5743 83.3729 65.5743C78.2249 65.5743 74.2289 72.0543 74.2289 79.6143ZM80.4569 79.6143C80.4569 71.5863 81.3929 66.7263 83.3729 66.7263C85.3529 66.7263 86.2529 71.5503 86.2529 79.6143C86.2529 87.6783 85.2809 92.5383 83.3729 92.5383C81.4649 92.5383 80.4569 87.6783 80.4569 79.6143Z" fill="#3C400C"/>
<path d="M39.2917 35.3353L41.9795 40.2713L39.2583 37.4587L38.2234 38.1065L39.5577 41.8134L36.2615 37.2323L35.2546 37.8627L39.8812 44.0507L41.0932 43.2919L39.6175 39.1934L42.5477 42.3814L43.8251 41.5817L40.308 34.6991L39.2917 35.3353Z" fill="#3C400C"/>
<path d="M52.0416 31.1834L51.7028 30.16L47.5258 31.5431L47.8646 32.5664L49.3266 32.0824L51.0693 37.3453L49.6073 37.8294L49.9462 38.8528L54.1232 37.4697L53.7843 36.4463L52.3224 36.9304L50.5797 31.6674L52.0416 31.1834Z" fill="#3C400C"/>
<path d="M63.7008 28.2793L64.1476 33.6729L61.1904 28.4873L59.6776 28.6126L60.3133 36.2863L61.5959 36.1801L61.1437 30.7208L64.1502 35.9685L65.6191 35.8468L64.9835 28.1731L63.7008 28.2793Z" fill="#3C400C"/>
<path d="M71.6367 36.2171L76.702 37.0035L76.8826 35.8405L73.1216 35.2565L73.4575 33.0934L76.5553 33.5744L76.7359 32.4114L73.638 31.9304L73.9418 29.9738L77.5941 30.5409L77.7746 29.3778L72.818 28.6082L71.6367 36.2171Z" fill="#3C400C"/>
<path d="M92.9429 44.1358L94.1138 44.8567L96.1931 37.0945L94.7975 36.2351L88.7465 41.5521L89.908 42.2672L91.3532 40.948L93.4701 42.2514L92.9429 44.1358ZM92.2571 40.1094L94.7012 37.881L93.8026 41.061L92.2571 40.1094Z" fill="#3C400C"/>
<path d="M98.2587 48.4126L99.8492 50.011C101.168 51.3366 103.074 51.3491 104.852 49.5801C106.622 47.8189 106.603 45.8821 105.276 44.5487L103.717 42.9814L98.2587 48.4126ZM100.024 48.5181L103.814 44.7473L104.38 45.3165C105.202 46.143 105.301 47.2711 103.921 48.6444C102.54 50.0177 101.421 49.9216 100.59 49.0873L100.024 48.5181Z" fill="#3C400C"/>
<path d="M114.382 56.7128L108.31 58.47L112.657 53.8609L111.911 52.6279L106.49 58.5425L107.378 60.0108L115.128 57.9459L114.382 56.7128Z" fill="#3C400C"/>
<path d="M111.259 69.5053C111.833 71.3311 113.62 71.8068 115.908 71.0872C118.195 70.3677 119.388 68.9546 118.814 67.1288C118.24 65.303 116.453 64.8273 114.165 65.5468C111.878 66.2664 110.685 67.6795 111.259 69.5053ZM112.378 69.1416C112.055 68.1133 112.903 67.3275 114.561 66.806C116.219 66.2845 117.364 66.4431 117.688 67.4715L117.694 67.4924C118.018 68.5208 117.17 69.3065 115.512 69.828C113.854 70.3495 112.708 70.1909 112.385 69.1626L112.378 69.1416Z" fill="#3C400C"/>
<path d="M113.163 80.6362C113.276 82.3926 114.434 83.0895 115.933 83.0921L115.848 81.7748C114.975 81.7319 114.389 81.3618 114.339 80.5825L114.336 80.5386C114.267 79.4738 115.281 78.7911 117.005 78.6801C118.717 78.5697 119.822 79.1268 119.89 80.1806L119.893 80.2245C119.943 80.9929 119.389 81.4695 118.549 81.6008L118.634 82.9181C120.076 82.7259 121.178 81.8613 121.066 80.1269C120.937 78.129 119.28 77.2107 116.92 77.3628C114.538 77.5163 113.035 78.6493 113.163 80.6362Z" fill="#3C400C"/>
<path d="M112.225 93.3141L111.989 94.6688L119.969 93.7232L120.25 92.1085L113.069 88.459L112.836 89.8028L114.596 90.6562L114.17 93.1054L112.225 93.3141ZM115.71 91.1849L118.686 92.6291L115.399 92.973L115.71 91.1849Z" fill="#3C400C"/>
<path d="M109.475 101.602L108.948 102.812L114.93 105.414L114.075 107.381L115.154 107.85L117.391 102.705L116.312 102.236L115.456 104.203L109.475 101.602Z" fill="#3C400C"/>
<path d="M105.062 109.663L101.975 113.755L102.914 114.464L105.207 111.426L106.954 112.744L105.066 115.247L106.005 115.956L107.894 113.453L109.474 114.646L107.248 117.596L108.188 118.305L111.209 114.301L105.062 109.663Z" fill="#3C400C"/>
</svg>
