<svg width="177" height="521" viewBox="0 0 177 521" fill="none" xmlns="http://www.w3.org/2000/svg">
<g opacity="0.3" filter="url(#filter0_f)">
<ellipse cx="88.5" cy="481.5" rx="69.5" ry="6.5" fill="black"/>
</g>
<g filter="url(#filter1_d)">
<path d="M74.0375 30.5586C75.9486 29.3724 82.1788 27 91.8107 27C103.851 27 106.717 30.5586 106.717 32.0836V73.007C97.2713 72.2328 79.7809 71.4118 73.4721 73.1376C73.3949 74.8159 73.3119 76.506 73.2246 78.1943C73.4943 78.1634 73.7685 78.1247 74.0375 78.0906C76.0441 77.8365 102.704 75.2946 110.444 80.8866C101.605 80.8866 81.2515 81.054 72.9714 82.8826C72.8908 84.3165 72.8079 85.74 72.7237 87.1444C75.8683 87.4805 81.6378 87.2059 91.8107 85.9703C104.997 84.4452 111.877 86.7328 111.877 89.2747V102.746V105.655C103.151 103.532 82.4878 98.1342 71.9764 98.7176C71.7781 101.588 71.5867 104.216 71.4137 106.492C78.9511 109.25 91.4618 111.188 95.6633 112.12C102.543 113.645 110.444 119.014 110.444 134.265C110.444 149.516 111.227 175.74 116.387 181.077C121.547 186.415 138.25 201.115 141.977 213.57C144.958 223.534 145.512 273.811 145.417 297.704V465.21C145.99 471.819 142.837 485.037 125.637 485.037C104.137 485.037 50.2444 489.358 38.2045 479.699C26.1647 470.04 33.3312 436.488 33.9046 417.17C34.3632 401.716 34.0957 291.943 33.9046 238.988C33.4268 232.21 33.8473 216.671 39.3513 208.74C46.2312 198.827 65.7243 183.068 66.2976 173.917C66.7563 166.597 69.7376 127.995 71.1709 109.609C71.2463 108.666 71.3277 107.622 71.4137 106.492C66.6085 104.734 63.8245 102.643 66.503 100.268C67.5587 99.3315 69.4817 98.8561 71.9764 98.7176C72.2222 95.1611 72.4786 91.2334 72.7237 87.1444C69.3997 86.7891 69.009 85.7514 69.4509 84.4452C69.7752 83.8221 71.0474 83.3075 72.9714 82.8826C73.0588 81.3286 73.1436 79.7622 73.2246 78.1943C71.4829 78.3943 69.9297 78.2739 71.1709 74.5321C71.365 73.9468 72.1863 73.4893 73.4721 73.1376C73.8097 65.7978 74.0375 58.6835 74.0375 52.9266V36.6972V30.5586Z" fill="white"/>
<path d="M74.0375 30.5586C75.9486 29.3724 82.1788 27 91.8107 27C103.851 27 106.717 30.5586 106.717 32.0836V73.007C97.2713 72.2328 79.7809 71.4118 73.4721 73.1376C73.3949 74.8159 73.3119 76.506 73.2246 78.1943C73.4943 78.1634 73.7685 78.1247 74.0375 78.0906C76.0441 77.8365 102.704 75.2946 110.444 80.8866C101.605 80.8866 81.2515 81.054 72.9714 82.8826C72.8908 84.3165 72.8079 85.74 72.7237 87.1444C75.8683 87.4805 81.6378 87.2059 91.8107 85.9703C104.997 84.4452 111.877 86.7328 111.877 89.2747V102.746V105.655C103.151 103.532 82.4878 98.1342 71.9764 98.7176C71.7781 101.588 71.5867 104.216 71.4137 106.492C78.9511 109.25 91.4618 111.188 95.6633 112.12C102.543 113.645 110.444 119.014 110.444 134.265C110.444 149.516 111.227 175.74 116.387 181.077C121.547 186.415 138.25 201.115 141.977 213.57C144.958 223.534 145.512 273.811 145.417 297.704V465.21C145.99 471.819 142.837 485.037 125.637 485.037C104.137 485.037 50.2444 489.358 38.2045 479.699C26.1647 470.04 33.3312 436.488 33.9046 417.17C34.3632 401.716 34.0957 291.943 33.9046 238.988C33.4268 232.21 33.8473 216.671 39.3513 208.74C46.2312 198.827 65.7243 183.068 66.2976 173.917C66.7563 166.597 69.7376 127.995 71.1709 109.609C71.2463 108.666 71.3277 107.622 71.4137 106.492C66.6085 104.734 63.8245 102.643 66.503 100.268C67.5587 99.3315 69.4817 98.8561 71.9764 98.7176C72.2222 95.1611 72.4786 91.2334 72.7237 87.1444C69.3997 86.7891 69.009 85.7514 69.4509 84.4452C69.7752 83.8221 71.0474 83.3075 72.9714 82.8826C73.0588 81.3286 73.1436 79.7622 73.2246 78.1943C71.4829 78.3943 69.9297 78.2739 71.1709 74.5321C71.365 73.9468 72.1863 73.4893 73.4721 73.1376C73.8097 65.7978 74.0375 58.6835 74.0375 52.9266V36.6972V30.5586Z" stroke="#242E35" stroke-width="2" stroke-linecap="round" stroke-linejoin="round"/>
</g>
<path d="M74.6092 151.986C77.0392 168.148 72.9169 181.875 68.5341 187.542C63.0556 194.627 82.2947 191.295 92.9634 191.042C103.632 190.789 104.984 139.06 96.4793 139.056C87.9742 139.053 102.554 173.535 106.199 181.078C109.844 188.62 112.867 193.455 125.64 204.782C137.79 215.556 136.609 230.995 135.36 239.261C84.9958 240.526 8.47873 240.078 53.4604 231.779C118.914 219.702 144.081 235.011 119.565 272.662C111.327 281.505 99.0978 298.169 90.4043 318.356M80.6842 376.099C87.9743 429.972 146.951 458.399 132.93 468.761C125.64 474.148 114.834 452.599 90.4043 452.599C65.9751 452.599 19.9333 487.078 121.995 459.063" stroke="#242E35" stroke-width="2" stroke-linecap="round" stroke-linejoin="round"/>
<path d="M63.1755 340H64.4955V332.3H63.1755V340ZM66.2667 340H67.5317V336.931C67.5317 336.04 68.1367 335.457 68.8077 335.457H68.8957C69.5667 335.457 69.8527 335.886 69.8527 336.634V340H71.1177V336.931C71.1177 336.04 71.7227 335.457 72.3937 335.457H72.4817C73.1527 335.457 73.4387 335.886 73.4387 336.634V340H74.7037V336.436C74.7037 335.259 74.0987 334.39 72.7347 334.39C72.0527 334.39 71.3377 334.665 70.9197 335.369C70.5897 334.709 69.9627 334.39 69.1817 334.39C68.4997 334.39 67.8947 334.709 67.5317 335.281V334.5H66.2667V340ZM80.6145 338.79V336.414C80.6145 335.204 79.7565 334.39 78.3375 334.39C77.0285 334.39 76.1265 335.138 76.0385 336.161H77.3035C77.3475 335.743 77.7435 335.424 78.2935 335.424H78.3815C78.9975 335.424 79.3825 335.831 79.3825 336.447V336.601L77.9415 336.722C76.9295 336.799 75.9285 337.272 75.9285 338.493C75.9285 339.45 76.7205 340.11 77.7325 340.11C78.5245 340.11 79.1405 339.725 79.4265 339.241C79.4265 339.406 79.4375 339.791 79.4815 340H80.6695C80.6145 339.615 80.6145 339.12 80.6145 338.79ZM78.0405 339.076H77.9525C77.5125 339.076 77.1825 338.801 77.1825 338.416C77.1825 337.943 77.6335 337.701 78.1065 337.657L79.3825 337.547V337.866C79.3825 338.559 78.6895 339.076 78.0405 339.076ZM84.3347 342.42C86.1607 342.42 87.1177 341.32 87.1177 340.077V334.5H85.8527V335.204C85.5777 334.709 84.9617 334.39 84.2687 334.39C82.9817 334.39 81.8597 335.336 81.8597 337.195C81.8597 339.054 83.0037 340 84.2687 340C84.9617 340 85.5557 339.681 85.8527 339.186V339.923C85.8527 340.924 85.2477 341.386 84.4337 341.386H84.3567C83.6087 341.386 83.1137 341.111 83.0257 340.66H81.7607C81.8377 341.694 82.8387 342.42 84.3347 342.42ZM84.4447 338.966C83.7187 338.966 83.1247 338.383 83.1247 337.195C83.1247 336.007 83.7407 335.424 84.4667 335.424H84.5547C85.2587 335.424 85.8527 336.084 85.8527 337.195C85.8527 338.306 85.2367 338.966 84.5327 338.966H84.4447ZM91.0207 340.11C92.2857 340.11 93.1877 339.406 93.4187 338.306H92.1647C92.0547 338.768 91.6477 339.076 91.1087 339.076H91.0207C90.3937 339.076 89.7117 338.548 89.6457 337.58H93.4187C93.4297 337.393 93.4407 337.206 93.4407 337.019C93.4407 335.501 92.5607 334.39 90.9987 334.39C89.5027 334.39 88.4137 335.49 88.4137 337.25C88.4137 339.109 89.6457 340.11 91.0207 340.11ZM89.6787 336.601C89.7777 335.798 90.3387 335.424 90.9327 335.424H91.0207C91.6257 335.424 92.1537 335.809 92.1977 336.601H89.6787ZM97.4255 340H98.6905V336.931C98.6905 336.04 99.3065 335.424 100.01 335.424H100.098C100.747 335.424 101.077 335.864 101.077 336.601V340H102.342V336.414C102.342 335.226 101.693 334.39 100.395 334.39C99.6145 334.39 99.0205 334.764 98.6905 335.292V334.5H97.4255V340ZM106.259 340.11C107.843 340.11 108.965 338.922 108.965 337.25C108.965 335.578 107.843 334.39 106.259 334.39C104.686 334.39 103.564 335.578 103.564 337.25C103.564 338.922 104.686 340.11 106.259 340.11ZM106.215 339.076C105.401 339.076 104.829 338.405 104.829 337.25C104.829 336.095 105.401 335.424 106.215 335.424H106.303C107.128 335.424 107.689 336.095 107.689 337.25C107.689 338.405 107.128 339.076 106.303 339.076H106.215ZM112.072 340H113.436V338.911H112.545C112.116 338.911 112.006 338.801 112.006 338.372V335.545H113.271V334.5H112.006V332.718H110.741V334.5H109.575V335.545H110.741V338.669C110.741 339.527 111.214 340 112.072 340ZM70.7996 353.79V351.414C70.7996 350.204 69.9416 349.39 68.5226 349.39C67.2136 349.39 66.3116 350.138 66.2236 351.161H67.4886C67.5326 350.743 67.9286 350.424 68.4786 350.424H68.5666C69.1826 350.424 69.5676 350.831 69.5676 351.447V351.601L68.1266 351.722C67.1146 351.799 66.1136 352.272 66.1136 353.493C66.1136 354.45 66.9056 355.11 67.9176 355.11C68.7096 355.11 69.3256 354.725 69.6116 354.241C69.6116 354.406 69.6226 354.791 69.6666 355H70.8546C70.7996 354.615 70.7996 354.12 70.7996 353.79ZM68.2256 354.076H68.1376C67.6976 354.076 67.3676 353.801 67.3676 353.416C67.3676 352.943 67.8186 352.701 68.2916 352.657L69.5676 352.547V352.866C69.5676 353.559 68.8746 354.076 68.2256 354.076ZM75.9851 349.5L74.4781 353.955L72.9711 349.5H71.6401L73.5981 355H75.3251L77.2831 349.5H75.9851ZM82.4789 353.79V351.414C82.4789 350.204 81.6209 349.39 80.2019 349.39C78.8929 349.39 77.9909 350.138 77.9029 351.161H79.1679C79.2119 350.743 79.6079 350.424 80.1579 350.424H80.2459C80.8619 350.424 81.2469 350.831 81.2469 351.447V351.601L79.8059 351.722C78.7939 351.799 77.7929 352.272 77.7929 353.493C77.7929 354.45 78.5849 355.11 79.5969 355.11C80.3889 355.11 81.0049 354.725 81.2909 354.241C81.2909 354.406 81.3019 354.791 81.3459 355H82.5339C82.4789 354.615 82.4789 354.12 82.4789 353.79ZM79.9049 354.076H79.8169C79.3769 354.076 79.0469 353.801 79.0469 353.416C79.0469 352.943 79.4979 352.701 79.9709 352.657L81.2469 352.547V352.866C81.2469 353.559 80.5539 354.076 79.9049 354.076ZM83.9771 348.664H85.3521V347.3H83.9771V348.664ZM84.0321 355H85.2971V349.5H84.0321V355ZM86.9016 355H88.1666V347.3H86.9016V355ZM94.138 353.79V351.414C94.138 350.204 93.28 349.39 91.861 349.39C90.552 349.39 89.65 350.138 89.562 351.161H90.827C90.871 350.743 91.267 350.424 91.817 350.424H91.905C92.521 350.424 92.906 350.831 92.906 351.447V351.601L91.465 351.722C90.453 351.799 89.452 352.272 89.452 353.493C89.452 354.45 90.244 355.11 91.256 355.11C92.048 355.11 92.664 354.725 92.95 354.241C92.95 354.406 92.961 354.791 93.005 355H94.193C94.138 354.615 94.138 354.12 94.138 353.79ZM91.564 354.076H91.476C91.036 354.076 90.706 353.801 90.706 353.416C90.706 352.943 91.157 352.701 91.63 352.657L92.906 352.547V352.866C92.906 353.559 92.213 354.076 91.564 354.076ZM98.6393 355.11C100.146 355.11 101.048 353.878 101.048 352.25C101.048 350.622 100.102 349.39 98.5953 349.39C97.8253 349.39 97.2093 349.808 96.9563 350.237V347.3H95.6913V355H96.9563V354.263C97.2093 354.692 97.8693 355.11 98.6393 355.11ZM98.3423 354.076C97.6273 354.076 96.9563 353.416 96.9563 352.25C96.9563 351.084 97.6273 350.424 98.3423 350.424H98.4303C99.2003 350.424 99.7833 351.084 99.7833 352.239C99.7833 353.405 99.2003 354.076 98.4303 354.076H98.3423ZM102.331 355H103.596V347.3H102.331V355ZM107.5 355.11C108.765 355.11 109.667 354.406 109.898 353.306H108.644C108.534 353.768 108.127 354.076 107.588 354.076H107.5C106.873 354.076 106.191 353.548 106.125 352.58H109.898C109.909 352.393 109.92 352.206 109.92 352.019C109.92 350.501 109.04 349.39 107.478 349.39C105.982 349.39 104.893 350.49 104.893 352.25C104.893 354.109 106.125 355.11 107.5 355.11ZM106.158 351.601C106.257 350.798 106.818 350.424 107.412 350.424H107.5C108.105 350.424 108.633 350.809 108.677 351.601H106.158Z" fill="#242E35"/>
<defs>
<filter id="filter0_f" x="6" y="462" width="165" height="39" filterUnits="userSpaceOnUse" color-interpolation-filters="sRGB">
<feFlood flood-opacity="0" result="BackgroundImageFix"/>
<feBlend mode="normal" in="SourceGraphic" in2="BackgroundImageFix" result="shape"/>
<feGaussianBlur stdDeviation="6.5" result="effect1_foregroundBlur"/>
</filter>
<filter id="filter1_d" x="0.267578" y="0" width="176.211" height="521" filterUnits="userSpaceOnUse" color-interpolation-filters="sRGB">
<feFlood flood-opacity="0" result="BackgroundImageFix"/>
<feColorMatrix in="SourceAlpha" type="matrix" values="0 0 0 0 0 0 0 0 0 0 0 0 0 0 0 0 0 0 127 0"/>
<feOffset dy="4"/>
<feGaussianBlur stdDeviation="15"/>
<feColorMatrix type="matrix" values="0 0 0 0 0 0 0 0 0 0 0 0 0 0 0 0 0 0 0.15 0"/>
<feBlend mode="normal" in2="BackgroundImageFix" result="effect1_dropShadow"/>
<feBlend mode="normal" in="SourceGraphic" in2="effect1_dropShadow" result="shape"/>
</filter>
</defs>
</svg>
