<svg width="77" height="303" viewBox="0 0 77 303" fill="none" xmlns="http://www.w3.org/2000/svg">
<path fill-rule="evenodd" clip-rule="evenodd" d="M75.3221 292.956L77 114.764C76.6271 94.8619 51.6444 85.7477 51.6444 73.4715V56.9171V15.9963H52.3902C53.3223 15.9963 54.2545 15.2523 54.2545 14.1363V7.44015C54.2545 6.51013 53.5088 5.58011 52.3902 5.58011H51.6444V1.11602C51.6444 1.11602 51.6444 0.930018 51.458 0.930018C51.2715 0.558011 50.8986 0.186004 50.3393 0H28.3396H28.1532C27.0346 0.186004 26.1024 1.11602 25.7295 2.23204C25.7295 2.41805 25.543 2.60405 25.543 2.79006V6.13812H24.7973C23.8651 6.13812 22.9329 6.88214 22.9329 7.99816V14.6943C22.9329 15.6243 23.6787 16.5543 24.7973 16.5543H25.543V57.4751V74.0295C25.543 86.6777 -0.18543 94.8619 0.00100838 115.322L1.86539 293.514C1.86539 298.722 6.15347 303 11.3737 303H66.5595C71.2204 302.628 75.3221 298.35 75.3221 292.956Z" fill="#EEEEEE"/>
</svg>
