<svg width="100" height="100" viewBox="0 0 100 100" fill="none" xmlns="http://www.w3.org/2000/svg">
<circle cx="50" cy="50" r="50" fill="#EEEEEE"/>
<path d="M78.2126 40.132H74.428V36.3474C74.428 36.2451 74.4079 36.1437 74.3688 36.0492C74.3296 35.9546 74.2722 35.8687 74.1999 35.7963C74.1275 35.724 74.0416 35.6666 73.947 35.6274C73.8525 35.5883 73.7511 35.5682 73.6488 35.5682H69.8642V31.7792C69.8642 31.6768 69.8441 31.5755 69.805 31.4809C69.7658 31.3864 69.7085 31.3005 69.6361 31.2281C69.5637 31.1557 69.4778 31.0983 69.3832 31.0592C69.2887 31.0201 69.1873 30.9999 69.085 31H22.7792C22.6768 30.9999 22.5755 31.0201 22.4809 31.0592C22.3864 31.0983 22.3005 31.1557 22.2281 31.2281C22.1557 31.3005 22.0983 31.3864 22.0592 31.4809C22.0201 31.5755 21.9999 31.6768 22 31.7792V57.5546C22 57.7613 22.0821 57.9594 22.2282 58.1056C22.3743 58.2517 22.5725 58.3338 22.7792 58.3338H26.5638V62.1184C26.5636 62.2209 26.5835 62.3223 26.6226 62.4171C26.6617 62.5118 26.719 62.5979 26.7914 62.6704C26.8638 62.7429 26.9498 62.8004 27.0444 62.8396C27.1391 62.8788 27.2405 62.899 27.343 62.8989H31.1276V66.6835C31.1275 66.7859 31.1476 66.8872 31.1868 66.9818C31.2259 67.0763 31.2833 67.1623 31.3557 67.2346C31.428 67.307 31.514 67.3644 31.6085 67.4035C31.7031 67.4427 31.8044 67.4628 31.9068 67.4627H78.2126C78.4187 67.4628 78.6165 67.3812 78.7626 67.2357C78.9086 67.0902 78.9911 66.8928 78.9918 66.6866V40.9112C78.9918 40.7046 78.9097 40.5064 78.7635 40.3603C78.6174 40.2141 78.4192 40.132 78.2126 40.132ZM23.5584 32.5597H68.3022V56.7754H23.5584V32.5597ZM28.1239 58.3338H69.0814C69.2881 58.3338 69.4863 58.2517 69.6324 58.1056C69.7785 57.9594 69.8606 57.7613 69.8606 57.5546V37.1253H72.8678V61.3405H28.1239V58.3338ZM77.4334 65.9061H32.6895V62.8989H73.6488C73.7511 62.899 73.8525 62.8789 73.947 62.8397C74.0416 62.8006 74.1275 62.7432 74.1999 62.6708C74.2722 62.5985 74.3296 62.5125 74.3688 62.418C74.4079 62.3234 74.428 62.2221 74.428 62.1197V41.6904H77.4334V65.9061Z" fill="#384147"/>
<path d="M29.51 53.9926C29.51 54.095 29.5301 54.1963 29.5692 54.2909C29.6084 54.3854 29.6657 54.4713 29.7381 54.5437C29.8105 54.6161 29.8964 54.6735 29.991 54.7126C30.0855 54.7517 30.1869 54.7719 30.2892 54.7718H61.5715C61.6738 54.7719 61.7751 54.7517 61.8697 54.7126C61.9643 54.6735 62.0502 54.6161 62.1226 54.5437C62.1949 54.4713 62.2523 54.3854 62.2914 54.2909C62.3306 54.1963 62.3507 54.095 62.3506 53.9926C62.3516 53.1525 62.6857 52.347 63.2798 51.753C63.8739 51.1589 64.6793 50.8247 65.5195 50.8238C65.6218 50.8238 65.7232 50.8037 65.8177 50.7646C65.9123 50.7255 65.9982 50.6681 66.0706 50.5957C66.1429 50.5233 66.2003 50.4374 66.2395 50.3429C66.2786 50.2483 66.2987 50.1469 66.2987 50.0446V39.2905C66.2987 39.1882 66.2786 39.0868 66.2395 38.9923C66.2003 38.8977 66.1429 38.8118 66.0706 38.7394C65.9982 38.6671 65.9123 38.6097 65.8177 38.5705C65.7232 38.5314 65.6218 38.5113 65.5195 38.5113C64.6791 38.5105 63.8733 38.1762 63.2792 37.5818C62.6851 36.9874 62.3511 36.1816 62.3506 35.3412C62.3507 35.2388 62.3306 35.1375 62.2914 35.0429C62.2523 34.9484 62.1949 34.8624 62.1226 34.7901C62.0502 34.7177 61.9643 34.6603 61.8697 34.6212C61.7751 34.582 61.6738 34.5619 61.5715 34.562H30.2892C30.1869 34.5619 30.0855 34.582 29.991 34.6212C29.8964 34.6603 29.8105 34.7177 29.7381 34.7901C29.6657 34.8624 29.6084 34.9484 29.5692 35.0429C29.5301 35.1375 29.51 35.2388 29.51 35.3412C29.5096 36.1816 29.1756 36.9874 28.5815 37.5818C27.9873 38.1762 27.1816 38.5105 26.3412 38.5113C26.2389 38.5113 26.1375 38.5314 26.0429 38.5705C25.9484 38.6097 25.8625 38.6671 25.7901 38.7394C25.7177 38.8118 25.6603 38.8977 25.6212 38.9923C25.5821 39.0868 25.562 39.1882 25.562 39.2905V50.0446C25.562 50.1469 25.5821 50.2483 25.6212 50.3429C25.6603 50.4374 25.7177 50.5233 25.7901 50.5957C25.8625 50.6681 25.9484 50.7255 26.0429 50.7646C26.1375 50.8037 26.2389 50.8238 26.3412 50.8238C27.1813 50.8247 27.9868 51.1589 28.5809 51.753C29.1749 52.347 29.5091 53.1525 29.51 53.9926ZM27.1204 40.0051C28.0909 39.8413 28.9863 39.3794 29.6823 38.6835C30.3783 37.9875 30.8404 37.0922 31.0043 36.1217H60.8564C61.0203 37.0922 61.4823 37.9875 62.1784 38.6835C62.8744 39.3794 63.7698 39.8413 64.7403 40.0051V49.33C63.7698 49.4938 62.8744 49.9557 62.1784 50.6516C61.4823 51.3476 61.0203 52.2429 60.8564 53.2134H31.0043C30.8404 52.2429 30.3783 51.3476 29.6823 50.6516C28.9863 49.9557 28.0909 49.4938 27.1204 49.33V40.0051Z" fill="#384147"/>
<path d="M47.3846 47.4234H42.6952C42.4885 47.4234 42.2904 47.5055 42.1442 47.6516C41.9981 47.7978 41.916 47.996 41.916 48.2026C41.916 48.4093 41.9981 48.6074 42.1442 48.7536C42.2904 48.8997 42.4885 48.9818 42.6952 48.9818H45.153V50.4306C45.153 50.6373 45.2351 50.8355 45.3812 50.9816C45.5273 51.1277 45.7255 51.2098 45.9322 51.2098C46.1388 51.2098 46.337 51.1277 46.4831 50.9816C46.6292 50.8355 46.7113 50.6373 46.7113 50.4306V48.9818H47.3863C48.0651 48.9811 48.7159 48.7111 49.1959 48.2312C49.6758 47.7512 49.9458 47.1004 49.9465 46.4216V44.6673C49.9463 44.565 49.9259 44.4637 49.8865 44.3693C49.8471 44.2748 49.7896 44.1891 49.717 44.1169C49.6445 44.0447 49.5585 43.9875 49.4639 43.9486C49.3692 43.9096 49.2679 43.8897 49.1655 43.8899H43.4744V42.9135C43.4747 42.6479 43.5804 42.3933 43.7682 42.2055C43.956 42.0177 44.2106 41.912 44.4762 41.9117H49.1655C49.3722 41.9117 49.5704 41.8296 49.7165 41.6835C49.8626 41.5373 49.9447 41.3392 49.9447 41.1325C49.9447 40.9259 49.8626 40.7277 49.7165 40.5815C49.5704 40.4354 49.3722 40.3533 49.1655 40.3533H46.7113V38.9031C46.7113 38.6965 46.6292 38.4983 46.4831 38.3522C46.337 38.2061 46.1388 38.124 45.9322 38.124C45.7255 38.124 45.5273 38.2061 45.3812 38.3522C45.2351 38.4983 45.153 38.6965 45.153 38.9031V40.352H44.4762C43.7974 40.3528 43.1467 40.6228 42.6668 41.1028C42.1868 41.5827 41.9168 42.2334 41.916 42.9122V44.666C41.916 44.8727 41.9981 45.0708 42.1442 45.217C42.2904 45.3631 42.4885 45.4452 42.6952 45.4452H48.3864V46.4203C48.3864 46.6861 48.2809 46.941 48.093 47.1291C47.9052 47.3172 47.6504 47.4231 47.3846 47.4234Z" fill="#384147"/>
<path d="M55.5022 47.0432C55.9721 47.0432 56.4314 46.9038 56.8221 46.6428C57.2128 46.3817 57.5174 46.0107 57.6972 45.5765C57.877 45.1424 57.9241 44.6647 57.8324 44.2038C57.7407 43.743 57.5144 43.3196 57.1822 42.9874C56.8499 42.6551 56.4266 42.4288 55.9657 42.3371C55.5048 42.2455 55.0271 42.2925 54.593 42.4723C54.1589 42.6522 53.7878 42.9567 53.5267 43.3474C53.2657 43.7381 53.1263 44.1974 53.1263 44.6673C53.127 45.2972 53.3776 45.9011 53.823 46.3465C54.2684 46.7919 54.8723 47.0425 55.5022 47.0432ZM55.5022 43.8499C55.6639 43.8499 55.8219 43.8978 55.9564 43.9876C56.0908 44.0775 56.1956 44.2051 56.2574 44.3545C56.3193 44.5039 56.3355 44.6682 56.304 44.8268C56.2724 44.9854 56.1946 45.131 56.0802 45.2454C55.9659 45.3597 55.8202 45.4376 55.6617 45.4691C55.5031 45.5006 55.3387 45.4845 55.1894 45.4226C55.04 45.3607 54.9123 45.2559 54.8225 45.1215C54.7327 44.9871 54.6847 44.829 54.6847 44.6673C54.6848 44.4506 54.771 44.2427 54.9243 44.0894C55.0776 43.9361 55.2854 43.85 55.5022 43.8499Z" fill="#384147"/>
<path d="M36.3584 47.0432C36.8283 47.0432 37.2876 46.9038 37.6783 46.6428C38.069 46.3817 38.3736 46.0107 38.5534 45.5765C38.7332 45.1424 38.7803 44.6647 38.6886 44.2038C38.5969 43.743 38.3706 43.3196 38.0384 42.9874C37.7061 42.6551 37.2828 42.4288 36.8219 42.3371C36.361 42.2455 35.8833 42.2925 35.4492 42.4723C35.0151 42.6522 34.644 42.9567 34.3829 43.3474C34.1219 43.7381 33.9825 44.1974 33.9825 44.6673C33.9833 45.2972 34.2338 45.9011 34.6792 46.3465C35.1246 46.7919 35.7285 47.0425 36.3584 47.0432ZM36.3584 43.8499C36.5201 43.8499 36.6781 43.8978 36.8126 43.9876C36.947 44.0775 37.0518 44.2051 37.1136 44.3545C37.1755 44.5039 37.1917 44.6682 37.1602 44.8268C37.1286 44.9854 37.0508 45.131 36.9364 45.2454C36.8221 45.3597 36.6764 45.4376 36.5179 45.4691C36.3593 45.5006 36.1949 45.4845 36.0456 45.4226C35.8962 45.3607 35.7685 45.2559 35.6787 45.1215C35.5889 44.9871 35.5409 44.829 35.5409 44.6673C35.541 44.4506 35.6272 44.2427 35.7805 44.0894C35.9338 43.9361 36.1416 43.85 36.3584 43.8499Z" fill="#384147"/>
</svg>
