<svg width="187" height="168" viewBox="0 0 187 168" fill="none" xmlns="http://www.w3.org/2000/svg">
<path d="M55.8516 121.508V85.5704C70.351 85.5704 89.0865 85.557 97.6878 81.1862V118.095C86.6781 124.894 64.5348 123.208 55.8516 121.508Z" fill="#E0E5CD" stroke="#242E35" stroke-width="1.5" stroke-linecap="round" stroke-linejoin="round"/>
<circle cx="78.8614" cy="103.499" r="9.70906" fill="#DCCBB8" stroke="#242E35" stroke-width="1.5"/>
<path d="M147.192 68.1006L147.192 88.4652C138.009 88.4652 126.143 88.4728 120.696 90.9495L120.696 70.0346C127.668 66.1818 141.693 67.1375 147.192 68.1006Z" fill="#E0E5CD" stroke="#242E35" stroke-width="1.5" stroke-linecap="round" stroke-linejoin="round"/>
<path d="M65.0295 152.132C37.0932 152.132 14.4464 155.351 14.4464 159.322C14.4464 163.293 37.0932 166.513 65.0295 166.513C92.9657 166.513 115.305 163.293 115.305 159.322C115.305 154.229 99.1592 147.784 44.4627 147.784C-10.2337 147.784 -2.22938 137.751 8.60986 132.734" stroke="#242E35" stroke-width="1.5" stroke-linecap="round" stroke-linejoin="round"/>
<path d="M86.0864 126.509C86.0864 134.614 86.0864 147.716 86.0864 153.691C86.4048 155.918 85.2143 157.034 79.994 159.451C77.2303 160.731 70.7536 161.908 65.5614 161.908C60.2122 161.908 53.2784 161.216 50.7461 160.373C48.2138 159.529 45.4928 159.036 45.4928 153.691C45.4928 148.345 45.1744 94.5102 45.0152 68.2608C44.856 64.4427 45.3018 56.0428 48.3582 52.9883C52.1788 49.1702 54.3841 46.4907 56.9545 43.9204C58.3872 42.4876 58.3872 39.9432 58.3872 39.625V10.512H56.9545V5.26207H58.3872V1.92123C58.3872 1.92123 60.9553 1 65.312 1C69.6688 1 72.2368 1.92123 72.2368 1.92123V5.26207H73.6695V10.512H72.2368V39.625C72.2368 41.4417 73.0009 43.7294 74.1471 44.8749C75.5798 46.3067 83.221 53.9429 83.6985 54.8974C84.1761 55.8519 86.0864 57.761 86.0864 68.2608V78.397" stroke="#242E35" stroke-width="1.5" stroke-linecap="round" stroke-linejoin="round"/>
<path d="M33.5381 61.4344L33.5381 88.9915C21.6027 88.9915 7.84668 88.9915 0.766365 92.343L0.766368 64.0411C9.82917 58.8276 26.3903 60.131 33.5381 61.4344Z" stroke="#242E35" stroke-width="1.5" stroke-linecap="round" stroke-linejoin="round"/>
<circle cx="16.4556" cy="75.2601" r="5.87407" fill="#E0E5CD" stroke="#242E35" stroke-width="1.5"/>
<ellipse cx="15.7559" cy="130.345" rx="9.41315" ry="3.13772" stroke="#242E35" stroke-width="1.5" stroke-linecap="round" stroke-linejoin="round"/>
<path d="M50.9673 75.609L50.9673 70.0309" stroke="#242E35" stroke-width="1.5" stroke-linecap="round" stroke-linejoin="round"/>
<path d="M62.127 42.1384V23.3121" stroke="#242E35" stroke-width="1.5" stroke-linecap="round" stroke-linejoin="round"/>
<path d="M50.9673 147.427L50.9673 129.995" stroke="#242E35" stroke-width="1.5" stroke-linecap="round" stroke-linejoin="round"/>
<path d="M70.167 152.081C78.3557 152.081 91.6623 152.695 83.0642 157.915" stroke="#242E35" stroke-width="1.5" stroke-linecap="round" stroke-linejoin="round"/>
<path d="M51.1279 125.366V79.9184C69.2454 79.9184 90.1266 79.9184 100.874 74.3911V121.067C87.1173 129.665 61.978 127.515 51.1279 125.366Z" stroke="#242E35" stroke-width="1.5" stroke-linecap="round" stroke-linejoin="round"/>
<path d="M149.982 64.9196L149.982 92.4767C138.047 92.4767 124.291 92.4767 117.21 95.8282L117.21 67.5263C126.273 62.3128 142.834 63.6162 149.982 64.9196Z" stroke="#242E35" stroke-width="1.5" stroke-linecap="round" stroke-linejoin="round"/>
<path d="M139.654 25.2587H140.575V39.3842C140.575 48.5965 137.504 57.5017 135.662 63.9503C133.819 70.3989 131.67 78.3829 130.749 86.0598C129.828 93.7367 130.749 116.153 131.056 119.531C131.302 122.233 133.41 122.704 134.434 122.602H155.008C159.43 122.602 160.331 120.555 160.228 119.531C160.433 114.004 160.842 101.106 160.842 93.7367C160.842 84.5244 159.307 75.9263 155.315 63.9503C152.122 54.3695 150.914 43.5809 150.709 39.3842V25.2587H151.63V21.5738H151.016V18.503C151.016 18.503 148.958 17.5818 145.796 17.5818C142.633 17.5818 140.575 18.503 140.575 18.503V21.5738H139.654V25.2587Z" stroke="#242E35" stroke-width="1.5" stroke-linecap="round" stroke-linejoin="round"/>
<path d="M130.968 116.862C120.757 117.932 113.771 120.1 113.771 122.602C113.771 126.163 127.932 129.05 145.4 129.05C162.868 129.05 177.029 126.163 177.029 122.602C177.029 119.74 167.884 117.313 155.227 116.47C146.117 116.058 130.476 112.898 140.794 103.563C153.691 91.8941 159.219 92.8153 147.243 82.3747C137.662 74.0223 144.889 67.4304 149.699 65.1785" stroke="#242E35" stroke-width="1.5" stroke-linecap="round" stroke-linejoin="round"/>
<path d="M186.237 122.911C186.237 129.356 167.951 134.58 145.396 134.58" stroke="#242E35" stroke-width="1.5" stroke-linecap="round" stroke-linejoin="round"/>
<path d="M104.554 146.248C104.554 139.804 122.84 134.58 145.396 134.58" stroke="#242E35" stroke-width="1.5" stroke-linecap="round" stroke-linejoin="round"/>
<path d="M138.337 56.5813C138.337 56.5813 142.943 60.573 146.014 60.573C149.085 60.573 153.383 56.5813 153.383 56.5813" stroke="#242E35" stroke-width="1.5" stroke-linecap="round" stroke-linejoin="round"/>
<path d="M58.4927 27.4955C58.4927 27.4955 62.1776 28.1096 65.2484 28.1096C68.3191 28.1096 72.004 27.4955 72.004 27.4955" stroke="#242E35" stroke-width="1.5" stroke-linecap="round" stroke-linejoin="round"/>
</svg>
