<svg width="817" height="475" viewBox="0 0 817 475" fill="none" xmlns="http://www.w3.org/2000/svg">
<g style="mix-blend-mode:multiply">
<path d="M438.111 225.351C410.664 226.367 411.426 237.522 418.415 241.235C459.078 262.837 642.977 257.016 634.436 321.925C631.26 346.069 511.177 373.389 647.779 429.301C784.381 485.212 882.226 372.118 762.143 311.124C642.061 250.13 472.42 224.08 438.111 225.351Z" fill="#E0E5CD"/>
<path d="M476.24 199.3C468.564 201.63 452.313 193.072 455.458 180.873C459.39 165.625 467.526 172.347 465.28 177.43C463.033 182.513 432.568 178.912 440.39 148.985C440.39 134.111 468.835 121.266 468.835 133.34C468.835 145.414 455.443 142.119 457.457 125.6C458.178 119.687 464.445 108.905 476.24 112.719M545.889 112.719C535.217 116.529 527.915 102.725 545.889 102.726C564.986 101.457 582.718 120.891 578.35 129.784C575.541 135.503 565.286 134.495 566.971 125.6C568.656 116.705 577.67 105.731 591.15 112.719C604.63 119.707 601.495 143.39 612.728 125.6C623.962 107.81 634.634 110.986 641.936 118.611C658.708 118.408 663.28 132.554 654.441 142.117C641.522 156.094 636.319 147.2 638.566 144.658C641.936 137.036 673.661 151.12 657.663 185.957C652.107 198.055 641.936 183.417 649.799 179.604C657.663 175.791 687.864 188.81 676.198 216.454C668.358 235.034 659.348 232.975 657.663 232.34C650.923 229.799 655.212 222.917 663.28 225.351C671.705 227.893 688.555 241.233 682.377 267.918" stroke="#242E35" stroke-width="2" stroke-linecap="round" stroke-linejoin="round"/>
<path d="M9.48462 292.838C139.942 224.251 357.883 203.239 365.557 224.251C373.231 245.263 319.513 244.074 487.829 276.187C656.145 308.299 503.688 442.697 316.955 439.526C130.222 436.354 307.235 397.105 440.762 429.614C574.289 462.124 718.048 454.194 723.675 378.472C729.303 302.749 552.802 250.417 440.762 240.506C328.722 230.594 445.366 175.884 755.395 292.838" stroke="#242E35" stroke-width="2" stroke-linecap="round" stroke-linejoin="round"/>
<path d="M370.082 189.124C361.928 181.101 343.786 165.744 336.448 168.494C327.275 171.933 309.949 194.472 293.641 195.618C280.595 196.535 236.566 196 216.182 195.618C225.694 188.105 246.248 172.85 252.363 171.933C261.332 171.627 308.42 169.513 330.842 168.494" stroke="#242E35" stroke-width="2" stroke-linecap="round" stroke-linejoin="round"/>
<path d="M247.636 178.335H277.967" stroke="#242E35" stroke-width="2" stroke-linecap="round" stroke-linejoin="round"/>
<path d="M576.781 164.357H607.111" stroke="#242E35" stroke-width="2" stroke-linecap="round" stroke-linejoin="round"/>
<path d="M599.248 170.71L612.728 170.71" stroke="#242E35" stroke-width="2" stroke-linecap="round" stroke-linejoin="round"/>
<path d="M590.261 170.71L594.755 170.71" stroke="#242E35" stroke-width="2" stroke-linecap="round" stroke-linejoin="round"/>
<path d="M592.508 178.335L619.468 178.335" stroke="#242E35" stroke-width="2" stroke-linecap="round" stroke-linejoin="round"/>
<path d="M236.403 183.417H257.747" stroke="#242E35" stroke-width="2" stroke-linecap="round" stroke-linejoin="round"/>
<path d="M227.416 191.042H240.896" stroke="#242E35" stroke-width="2" stroke-linecap="round" stroke-linejoin="round"/>
<path d="M235.281 196.125V222.81" stroke="#242E35" stroke-width="2" stroke-linecap="round" stroke-linejoin="round"/>
<path d="M308.298 191.042V216.456" stroke="#242E35" stroke-width="2" stroke-linecap="round" stroke-linejoin="round"/>
<path d="M358.022 178.97L358.022 218.976" stroke="#242E35" stroke-width="2" stroke-linecap="round" stroke-linejoin="round"/>
<path d="M358.287 203.114L369.753 193.583L388.056 207.561" stroke="#242E35" stroke-width="2" stroke-linecap="round" stroke-linejoin="round"/>
<path d="M384.686 218.997V206.29" stroke="#242E35" stroke-width="2" stroke-linecap="round" stroke-linejoin="round"/>
<rect x="365.721" y="204.454" width="11.3781" height="5.68906" rx="1" stroke="#242E35" stroke-width="2" stroke-linecap="round" stroke-linejoin="round"/>
<rect x="244.829" y="204.454" width="11.3781" height="5.68906" rx="1" stroke="#242E35" stroke-width="2" stroke-linecap="round" stroke-linejoin="round"/>
<rect x="266.162" y="204.454" width="9.95585" height="5.68906" rx="1" stroke="#242E35" stroke-width="2" stroke-linecap="round" stroke-linejoin="round"/>
<rect x="286.074" y="204.454" width="11.3781" height="5.68906" rx="1" stroke="#242E35" stroke-width="2" stroke-linecap="round" stroke-linejoin="round"/>
<path d="M364.465 221.539C370.423 219.928 388.873 217.432 415.016 220.331" stroke="#242E35" stroke-width="2" stroke-linecap="round" stroke-linejoin="round"/>
<path d="M320.088 168.156C318.578 164.616 319.436 156.58 331.664 157.535C336.697 157.929 323.108 161.862 328.141 153.995C330.658 149.275 336.697 148.095 338.711 149.669C340.724 151.242 329.302 151.025 334.684 144.949C339.214 139.835 349.783 144.948 347.267 147.309C343.744 148.095 346.26 141.015 354.313 143.375C361.912 145.602 358.843 150.849 356.83 152.422C354.817 153.995 352.803 149.669 360.353 149.669C367.903 149.669 372.432 157.535 366.393 160.289C362.87 161.862 363.373 159.502 364.883 157.535C366.393 155.569 373.439 154.389 376.962 163.042C379.764 169.923 369.916 173.269 367.399 171.696C364.883 170.122 371.426 168.156 376.962 174.843C380.989 179.169 371.929 187.036 362.87 181.529" stroke="#242E35" stroke-width="2" stroke-linecap="round" stroke-linejoin="round"/>
<path d="M309.421 238.417C291.46 232.243 -11.7272 306.857 2.07846 376.277C17.6276 454.465 16.5461 309.789 45.9846 307.862C74.5901 304.261 83.9035 339.755 103.861 322.779C126.701 297.536 111.844 274.024 138.881 269.972C171.05 265.15 170.35 296.004 194.205 282.988C218.06 269.972 204.356 243.382 235.317 244.728C266.279 246.074 285.566 263.266 309.421 238.417Z" stroke="#242E35" stroke-width="2" stroke-linecap="round" stroke-linejoin="round"/>
<path d="M339.573 256.739C327.382 248.108 21.7861 402.726 57.5311 441.795C97.7904 485.798 72.8453 376.94 100.853 366.849C127.513 355.968 144.11 391.934 158.059 375.333C172.154 352.713 154.971 334.561 179.961 323.872C209.694 311.153 240.418 333.99 259.432 318.678C278.445 303.367 218.78 285.286 249.321 276.774C279.862 268.261 324.365 279.421 339.573 256.739Z" stroke="#242E35" stroke-width="2" stroke-linecap="round" stroke-linejoin="round"/>
<path d="M366.187 276.04C353.859 269.072 153.971 429.776 194.164 462.646C239.433 499.668 187.382 402.968 206.902 391.928C225.107 380.265 249.013 411.642 255.33 395.68C259.993 374.265 240.857 359.033 257.778 347.658C277.91 334.125 318.879 352.964 329.641 337.82C340.403 322.677 276.169 306.219 298.187 296.432C320.205 286.646 360.647 297.585 366.187 276.04Z" stroke="#242E35" stroke-width="2" stroke-linecap="round" stroke-linejoin="round"/>
<path d="M419.913 288.395C420.887 307.165 389.908 296.856 374.577 311.437C359.245 326.017 399.668 338.016 394.797 353.341C389.926 368.666 363.216 361.769 350.359 378.73C339.553 392.984 358.886 399.097 360.536 417.491" stroke="#242E35" stroke-width="2" stroke-linecap="round" stroke-linejoin="round"/>
<path d="M474.017 300.127C480.171 319.052 456.311 315.16 443.132 327.248C429.953 339.337 458.351 346.658 457.051 361.189C455.75 375.721 430.532 364.281 420.757 379.151C412.542 391.648 435.775 400.9 442.582 419.559" stroke="#242E35" stroke-width="2" stroke-linecap="round" stroke-linejoin="round"/>
<path d="M140.917 177.699C140.917 203.315 136.642 224.08 131.368 224.08C126.095 224.08 121.82 203.315 121.82 177.699C121.82 152.084 126.095 104.633 131.368 104.633C136.642 104.633 140.917 152.084 140.917 177.699Z" stroke="#242E35" stroke-width="2" stroke-linecap="round" stroke-linejoin="round"/>
<path d="M138.857 176.273C138.857 196.711 135.444 213.279 131.233 213.279C127.022 213.279 123.609 196.711 123.609 176.273C123.609 155.835 127.022 117.976 131.233 117.976C135.444 117.976 138.857 155.835 138.857 176.273Z" fill="#E0E5CD"/>
<path d="M100.737 220.512C100.737 231.957 99.0306 241.235 96.9252 241.235C94.8198 241.235 93.113 231.957 93.113 220.512C93.113 209.066 94.8198 187.865 96.9252 187.865C99.0306 187.865 100.737 209.066 100.737 220.512Z" fill="#E0E5CD"/>
<path d="M104.971 214.717C104.971 227.959 102.205 238.694 98.7925 238.694C95.3802 238.694 92.614 227.959 92.614 214.717C92.614 201.475 95.3802 178.97 98.7925 178.97C102.205 178.97 104.971 201.475 104.971 214.717Z" stroke="#242E35" stroke-width="2" stroke-linecap="round" stroke-linejoin="round"/>
<path d="M131.931 225.351L131.931 245.682" stroke="#242E35" stroke-width="2" stroke-linecap="round" stroke-linejoin="round"/>
<path d="M99.3533 238.058L99.3533 255.848" stroke="#242E35" stroke-width="2" stroke-linecap="round" stroke-linejoin="round"/>
<path d="M476.802 219.038V101.28C476.802 99.6229 478.145 98.2798 479.802 98.2798H517.613C519.27 98.2798 520.613 99.6229 520.613 101.28V226.622" stroke="#242E35" stroke-width="2" stroke-linecap="round" stroke-linejoin="round"/>
<path d="M505.498 98.2106C497.97 98.2106 482.65 98.2106 481.587 98.2106C480.259 98.2106 446.684 98.9751 476.24 62.0634C505.796 25.1516 534.721 98.2106 526.419 98.2106" stroke="#242E35" stroke-width="2" stroke-linecap="round" stroke-linejoin="round"/>
<path d="M492.571 51.2636C484.647 49.2772 481.6 36.6972 495.01 36.0351C508.42 35.373 505.878 53.1696 500.392 53.1696" stroke="#242E35" stroke-width="2" stroke-linecap="round" stroke-linejoin="round"/>
<path d="M492.529 36.0148V27.7551H498.708V36.0148" stroke="#242E35" stroke-width="2" stroke-linecap="round" stroke-linejoin="round"/>
<path d="M502.077 27.7551H488.597L495.337 1.07007L502.077 27.7551Z" stroke="#242E35" stroke-width="2" stroke-linecap="round" stroke-linejoin="round"/>
<path d="M505.448 139.578H493.091C491.406 131.954 491.856 116.705 498.146 116.705C504.437 116.705 505.635 131.954 505.448 139.578Z" stroke="#242E35" stroke-width="2" stroke-linecap="round" stroke-linejoin="round"/>
<path d="M505.447 179.605H493.09C491.405 171.981 494.101 156.732 500.392 156.732C506.683 156.732 505.634 171.981 505.447 179.605Z" stroke="#242E35" stroke-width="2" stroke-linecap="round" stroke-linejoin="round"/>
<path d="M560.961 214.55H554.568C553.696 210.314 555.091 201.843 558.346 201.843C561.6 201.843 561.058 210.314 560.961 214.55Z" stroke="#242E35" stroke-width="2" stroke-linecap="round" stroke-linejoin="round"/>
<path d="M583.412 214.55H575.954C574.937 210.314 576.564 201.843 580.361 201.843C584.158 201.843 583.525 210.314 583.412 214.55Z" stroke="#242E35" stroke-width="2" stroke-linecap="round" stroke-linejoin="round"/>
<path d="M602.524 215.821H596.132C595.26 211.585 596.655 203.114 599.909 203.114C603.164 203.114 602.621 211.585 602.524 215.821Z" stroke="#242E35" stroke-width="2" stroke-linecap="round" stroke-linejoin="round"/>
<path d="M505.447 215.185H493.09C491.405 207.561 494.101 192.312 500.392 192.312C506.683 192.312 505.634 207.561 505.447 215.185Z" stroke="#242E35" stroke-width="2" stroke-linecap="round" stroke-linejoin="round"/>
<path d="M521.174 158.639C527.165 167.11 539.822 185.197 542.518 189.771C545.214 194.346 602.805 194.642 631.263 194.219L604.302 158.639L521.174 152.285" stroke="#242E35" stroke-width="2" stroke-linecap="round" stroke-linejoin="round"/>
<line x1="618.462" y1="195.498" x2="618.462" y2="247.544" stroke="#242E35" stroke-width="2" stroke-linecap="round" stroke-linejoin="round"/>
<line x1="541.659" y1="188.387" x2="541.659" y2="229.055" stroke="#242E35" stroke-width="2" stroke-linecap="round" stroke-linejoin="round"/>
<path d="M633.51 251.4C703.72 244.412 729.67 261.439 786.287 281.262" stroke="#242E35" stroke-width="2" stroke-linecap="round" stroke-linejoin="round"/>
<path d="M155.521 240.291C85.3111 233.303 59.3615 250.331 2.74426 270.154" stroke="#242E35" stroke-width="2" stroke-linecap="round" stroke-linejoin="round"/>
<path d="M162.261 238.694C135.863 238.694 62.2826 255.848 22.965 273.638" stroke="#242E35" stroke-width="2" stroke-linecap="round" stroke-linejoin="round"/>
<path d="M631.825 252.036C658.224 252.036 731.804 269.191 771.121 286.981" stroke="#242E35" stroke-width="2" stroke-linecap="round" stroke-linejoin="round"/>
<path d="M672.267 238.694L668.896 262.837" stroke="#242E35" stroke-width="2" stroke-linecap="round" stroke-linejoin="round"/>
<path d="M691.924 243.777L686.869 267.92" stroke="#242E35" stroke-width="2" stroke-linecap="round" stroke-linejoin="round"/>
<path d="M711.022 249.495L705.967 274.274" stroke="#242E35" stroke-width="2" stroke-linecap="round" stroke-linejoin="round"/>
<path d="M731.803 255.213L726.187 280.627" stroke="#242E35" stroke-width="2" stroke-linecap="round" stroke-linejoin="round"/>
<path d="M753.148 262.202L746.408 288.251" stroke="#242E35" stroke-width="2" stroke-linecap="round" stroke-linejoin="round"/>
<path d="M83.6271 261.567C83.1777 260.042 80.8187 246.106 79.6953 239.329" stroke="#242E35" stroke-width="2" stroke-linecap="round" stroke-linejoin="round"/>
<path d="M65.6527 268.556L57.2275 245.047" stroke="#242E35" stroke-width="2" stroke-linecap="round" stroke-linejoin="round"/>
<path d="M45.9939 276.18L35.322 251.401" stroke="#242E35" stroke-width="2" stroke-linecap="round" stroke-linejoin="round"/>
<path d="M312.946 192.313V213.28C329.719 211.755 347.043 212.644 353.609 213.28V180.876C349.585 177.7 340.647 171.854 337.089 173.888C333.531 175.921 319.511 187.018 312.946 192.313Z" fill="#E7D3BC"/>
<path d="M537.227 190.407L523.885 170.71V222.81L537.227 225.987V190.407Z" fill="#E7D3BC"/>
<path d="M113.444 294.605L75.3223 311.124C78.2873 314.936 86.5045 322.307 95.6537 321.29C104.803 320.273 111.326 303.076 113.444 294.605Z" fill="#E0E5CD"/>
<path d="M160.46 348.61L132.505 365.765C135.47 369.577 141.145 376.312 150.295 375.295C159.444 374.279 160.46 355.599 160.46 348.61Z" fill="#E0E5CD"/>
<path d="M307.227 318.749L284.99 338.445C304.051 340.351 314.851 343.165 321.841 337.174C330.736 329.55 319.935 327.008 307.227 318.749Z" fill="#E0E5CD"/>
<path d="M201.758 425.489C201.758 425.489 193.498 440.102 193.498 448.997C193.498 457.892 201.758 464.881 205.57 464.881C214.775 464.881 201.758 432.477 201.758 425.489Z" fill="#E0E5CD"/>
<path d="M248.775 300.323L217.643 315.572C220.608 319.384 239.626 321.036 248.775 320.019C257.924 319.003 263.389 307.312 248.775 300.323Z" fill="#E0E5CD"/>
<path d="M205.57 263.473L169.354 274.274C172.319 278.086 176.724 282.279 185.874 281.263C195.023 280.246 203.452 271.944 205.57 263.473Z" fill="#E0E5CD"/>
<path d="M298.967 240.6L268.47 246.318C271.647 247.589 276.476 249.24 285.625 248.224C291.978 247.518 295.791 245.047 298.967 240.6Z" fill="#E0E5CD"/>
<circle cx="476.656" cy="86.406" r="4.26679" fill="#DCCBB8"/>
<circle cx="488.035" cy="77.8723" r="4.26679" fill="#DCCBB8"/>
<circle cx="497.991" cy="84.9836" r="4.26679" fill="#DCCBB8"/>
<circle cx="493.723" cy="57.9607" r="2.84453" fill="#DCCBB8"/>
<circle cx="509.369" cy="90.6727" r="2.84453" fill="#DCCBB8"/>
<circle cx="476.657" cy="75.0279" r="2.84453" fill="#DCCBB8"/>
<circle cx="488.035" cy="87.8282" r="2.84453" fill="#DCCBB8"/>
<circle cx="509.369" cy="82.139" r="2.84453" fill="#DCCBB8"/>
<circle cx="520.747" cy="93.5171" r="2.84453" fill="#DCCBB8"/>
<circle cx="502.97" cy="70.0498" r="6.40019" fill="#DCCBB8"/>
<circle cx="486.613" cy="66.4942" r="2.84453" fill="#DCCBB8"/>
<circle cx="517.902" cy="84.9837" r="2.84453" fill="#DCCBB8"/>
<path d="M547.392 330.82C553.11 295.876 489.574 287.616 487.668 286.981C493.386 331.456 454.63 325.102 450.182 334.632C445.735 344.163 477.503 350.516 471.149 361.317C464.796 372.119 459.077 373.389 436.204 377.201C413.332 381.014 441.923 404.522 450.182 407.699C499.74 391.179 541.674 358.141 547.392 330.82Z" fill="#E0E5CD"/>
<path d="M311.909 122.923C297.514 127.098 202.77 128.142 169.354 128.142C191.631 128.142 207.033 123.399 208.746 110.352C210.98 93.348 225.843 96.1943 230.984 97.6444C241.266 87.2073 249.987 88.9992 255.127 93.348C272.264 76.8194 286.205 89.0005 291.345 93.348C311.909 85.5726 326.923 110.352 311.909 122.923Z" fill="#C5D5E4"/>
<path d="M633.725 80.2899C648.119 84.4652 742.864 85.509 776.279 85.509C754.002 85.509 738.601 80.7665 736.887 67.719C734.654 50.7155 719.791 53.5617 714.65 55.0118C704.368 44.5747 695.647 46.3667 690.506 50.7155C673.37 34.1869 659.429 46.368 654.288 50.7155C633.725 42.94 618.711 67.719 633.725 80.2899Z" fill="#C5D5E4"/>
<path d="M394.272 93.1967C388.173 97.263 351.915 97.4324 334.549 97.0088C363.14 93.1967 358.057 78.5846 378.388 78.5835C392.793 78.5827 401.896 88.1139 394.272 93.1967Z" fill="#C5D5E4"/>
</g>
</svg>
