<svg width="11" height="11" viewBox="0 0 11 11" fill="none" xmlns="http://www.w3.org/2000/svg">
<path d="M5.35938 0C3.92383 0 2.58398 0.560547 1.57227 1.57227C0.560547 2.58398 0 3.93066 0 5.35938C0 8.3125 2.40625 10.7188 5.35938 10.7188C6.78809 10.7188 8.13477 10.1582 9.14648 9.14648C10.1582 8.13477 10.7188 6.78809 10.7188 5.35938C10.7188 2.40625 8.3125 0 5.35938 0ZM8.4082 8.4082C7.59473 9.22168 6.51465 9.66602 5.35938 9.66602C2.98047 9.66602 1.05273 7.73828 1.05273 5.35938C1.05273 4.21094 1.49707 3.12402 2.31055 2.31055C3.12402 1.49707 4.21094 1.05273 5.35938 1.05273C7.73828 1.05273 9.66602 2.98047 9.66602 5.35938C9.66602 6.50781 9.22168 7.59473 8.4082 8.4082ZM4.8125 3.71875H5.90625V2.625H4.8125V3.71875ZM4.8125 8.09375H5.90625V4.375H4.8125V8.09375Z" fill="#E7D3BC"/>
</svg>
