<svg width="150" height="153" viewBox="0 0 150 153" fill="none" xmlns="http://www.w3.org/2000/svg">
<path d="M86.4625 132.061C68.5153 138.74 47.5323 134.867 33.106 120.441C18.1268 105.461 14.5248 83.413 22.3003 65.0342" stroke="#4F1C28" stroke-width="4"/>
<path d="M67.7984 81.2023C67.7984 73.8583 64.0544 69.5743 59.3744 69.5743C54.6944 69.5743 50.9864 73.8583 50.9864 78.9343C50.9864 84.0103 54.3704 88.2943 58.7984 88.2943C59.4464 88.2943 60.0224 88.1503 60.5984 87.8623C58.7984 92.5423 55.8464 95.9263 53.0384 97.7263L53.1104 97.9063C62.6504 95.7823 67.9064 89.1223 67.7984 81.2023ZM59.3744 87.1423C57.6464 87.1423 56.8544 84.0823 56.8544 78.9343C56.8544 73.8223 57.7184 70.7263 59.3744 70.7263C61.0304 70.7263 61.9304 73.8223 61.9304 78.9343C61.9304 84.0463 61.1024 87.1423 59.3744 87.1423ZM85.7281 81.2023C85.7281 73.8583 81.9841 69.5743 77.3041 69.5743C72.6241 69.5743 68.9161 73.8583 68.9161 78.9343C68.9161 84.0103 72.3001 88.2943 76.7281 88.2943C77.3761 88.2943 77.9521 88.1503 78.5281 87.8623C76.7281 92.5423 73.7761 95.9263 70.9681 97.7263L71.0401 97.9063C80.5801 95.7823 85.8361 89.1223 85.7281 81.2023ZM77.3041 87.1423C75.5761 87.1423 74.7841 84.0823 74.7841 78.9343C74.7841 73.8223 75.6481 70.7263 77.3041 70.7263C78.9601 70.7263 79.8601 73.8223 79.8601 78.9343C79.8601 84.0463 79.0321 87.1423 77.3041 87.1423Z" fill="#4F1C28"/>
<path d="M36.5795 45.9105L38.953 44.3951C39.7781 43.8682 39.9658 43.0175 39.4094 42.146L36.1536 37.0468L35.041 37.7571L38.0719 42.5041C38.3797 42.9862 38.3371 43.2874 37.8828 43.5775L35.8988 44.8443L36.5795 45.9105Z" fill="#4F1C28"/>
<path d="M49.3913 39.4543L50.6789 38.9719L45.8247 32.5678L44.2899 33.1428L44.7765 41.1831L46.0538 40.7046L45.8987 38.7541L48.2267 37.8819L49.3913 39.4543ZM45.7909 37.5258L45.5306 34.2285L47.4906 36.889L45.7909 37.5258Z" fill="#4F1C28"/>
<path d="M57.6859 29.7143L57.1425 34.0791L55.3364 30.0685L53.8137 30.2981L54.9616 37.912L56.1581 37.7317L55.3693 32.4998L56.7575 35.5833L57.9431 35.4045L58.3697 32.0363L59.1601 37.2791L60.3566 37.0987L59.2087 29.4847L57.6859 29.7143Z" fill="#4F1C28"/>
<path d="M65.3662 36.8983L70.4845 37.1807L70.5493 36.0055L66.7491 35.7958L66.8697 33.6102L69.9999 33.7829L70.0648 32.6077L66.9346 32.4349L67.0436 30.4579L70.734 30.6616L70.7989 29.4864L65.7905 29.21L65.3662 36.8983Z" fill="#4F1C28"/>
<path d="M78.0087 38.7905C79.751 39.2586 81.0121 38.5495 81.3517 37.2854C81.6714 36.0955 81.1231 35.2535 79.9381 34.6617L78.9038 34.1447C78.2794 33.8402 78.0611 33.5082 78.2038 32.977C78.3579 32.4034 79.0146 32.0787 79.8539 32.3041L79.8964 32.3156C80.725 32.5382 81.1653 33.1462 80.9986 33.9785L82.2734 34.321C82.6395 32.9159 81.9546 31.6498 80.2017 31.1789C78.4914 30.7194 77.2258 31.5297 76.9204 32.6664C76.6264 33.7606 77.006 34.6371 78.2095 35.2452L79.4023 35.8504C80.0267 36.1548 80.1825 36.5498 80.0541 37.0279C79.9057 37.5803 79.3339 37.9278 78.4416 37.6881L78.3991 37.6767C77.3049 37.3827 76.8519 36.7371 77.0528 35.7773L75.778 35.4348C75.4201 36.9789 76.0222 38.2568 78.0087 38.7905Z" fill="#4F1C28"/>
<path d="M93.1623 45.822C94.6476 46.846 96.0733 46.5997 96.8163 45.522C97.5156 44.5077 97.2806 43.5307 96.3618 42.5766L95.5601 41.7433C95.0736 41.2475 94.9789 40.8616 95.2911 40.4088C95.6282 39.9197 96.3558 39.8335 97.0712 40.3267L97.1074 40.3517C97.8138 40.8387 98.0253 41.559 97.5899 42.2876L98.6766 43.0368C99.4917 41.8351 99.2698 40.4129 97.7755 39.3826C96.3174 38.3774 94.8536 38.7177 94.1856 39.6867C93.5425 40.6195 93.607 41.5725 94.5376 42.5482L95.4592 43.5176C95.9458 44.0133 95.9605 44.4377 95.6796 44.8452C95.3549 45.3161 94.6998 45.4524 93.9391 44.9279L93.9029 44.903C92.9701 44.2599 92.7592 43.4999 93.2696 42.6626L92.1828 41.9134C91.329 43.2487 91.4688 44.6545 93.1623 45.822Z" fill="#4F1C28"/>
<path d="M100.929 52.4957C102.105 53.7303 103.552 53.75 104.762 52.5968L108.458 49.0767L107.548 48.1209L103.995 51.5044C103.135 52.3238 102.388 52.3211 101.797 51.6998L101.766 51.668C101.174 51.0467 101.208 50.3006 102.068 49.4812L105.621 46.0977L104.711 45.1419L101.015 48.662C99.804 49.8151 99.7532 51.261 100.929 52.4957Z" fill="#4F1C28"/>
<path d="M107.358 60.9379C108.276 62.4393 109.626 62.5164 110.954 61.8201L110.265 60.6941C109.472 61.0631 108.781 61.0087 108.373 60.3425L108.35 60.305C107.793 59.3948 108.373 58.3182 109.846 57.417C111.31 56.5215 112.547 56.4995 113.098 57.4004L113.121 57.4379C113.523 58.0947 113.255 58.7743 112.573 59.282L113.262 60.408C114.449 59.5658 115.021 58.2875 114.114 56.8049C113.069 55.0971 111.175 55.0568 109.157 56.291C107.121 57.5366 106.319 59.2395 107.358 60.9379Z" fill="#4F1C28"/>
<path d="M112.356 71.6773L112.851 73.0775L116.194 69.0029L120.085 70.4399L119.58 69.0086L115.321 67.4564L118.62 66.2912L118.18 65.0466L110.92 67.6115L111.359 68.8561L113.631 68.0537L114.944 68.5347L112.356 71.6773Z" fill="#4F1C28"/>
<path d="M113.802 77.3711L114.513 82.7584L115.68 82.6044L115.142 78.5258L121.609 77.6722L121.436 76.3636L113.802 77.3711Z" fill="#4F1C28"/>
<path d="M120.868 92.8517L121.943 92.9307L122.265 88.5425L121.19 88.4636L121.077 89.9994L115.548 89.5934L115.661 88.0575L114.586 87.9786L114.264 92.3668L115.339 92.4457L115.451 90.9098L120.981 91.3159L120.868 92.8517Z" fill="#4F1C28"/>
<path d="M119.621 103.72L114.421 102.221L120.319 101.3L120.739 99.8413L113.341 97.708L112.984 98.9446L118.248 100.462L112.274 101.407L111.866 102.824L119.264 104.957L119.621 103.72Z" fill="#4F1C28"/>
<path d="M108.68 109.66C108.273 110.428 108.361 111.06 108.664 111.593L107.974 111.228L107.443 112.229L110.175 113.676C110.68 113.944 111.106 113.821 111.374 113.316L112.208 111.741L111.158 111.185L110.443 112.536L110.277 112.448C109.422 111.995 109.215 111.164 109.612 110.415L109.627 110.386C110.178 109.346 111.443 109.356 112.91 110.134C114.417 110.932 115.091 111.962 114.571 112.943L114.556 112.973C114.159 113.721 113.361 113.771 112.572 113.428L111.954 114.594C113.341 115.242 114.767 115.088 115.596 113.524C116.554 111.716 115.599 110.064 113.528 108.967C111.477 107.881 109.535 108.047 108.68 109.66Z" fill="#4F1C28"/>
</svg>
