<svg width="149" height="149" viewBox="0 0 149 149" fill="none" xmlns="http://www.w3.org/2000/svg">
<path d="M86.4625 128.061C68.5153 134.74 47.5323 130.867 33.106 116.441C18.1268 101.461 14.5248 79.413 22.3003 61.0342" stroke="#A86D37" stroke-width="4"/>
<path d="M67.7984 77.2023C67.7984 69.8583 64.0544 65.5743 59.3744 65.5743C54.6944 65.5743 50.9864 69.8583 50.9864 74.9343C50.9864 80.0103 54.3704 84.2943 58.7984 84.2943C59.4464 84.2943 60.0224 84.1503 60.5984 83.8623C58.7984 88.5423 55.8464 91.9263 53.0384 93.7263L53.1104 93.9063C62.6504 91.7823 67.9064 85.1223 67.7984 77.2023ZM59.3744 83.1423C57.6464 83.1423 56.8544 80.0823 56.8544 74.9343C56.8544 69.8223 57.7184 66.7263 59.3744 66.7263C61.0304 66.7263 61.9304 69.8223 61.9304 74.9343C61.9304 80.0463 61.1024 83.1423 59.3744 83.1423ZM85.7281 77.2023C85.7281 69.8583 81.9841 65.5743 77.3041 65.5743C72.6241 65.5743 68.9161 69.8583 68.9161 74.9343C68.9161 80.0103 72.3001 84.2943 76.7281 84.2943C77.3761 84.2943 77.9521 84.1503 78.5281 83.8623C76.7281 88.5423 73.7761 91.9263 70.9681 93.7263L71.0401 93.9063C80.5801 91.7823 85.8361 85.1223 85.7281 77.2023ZM77.3041 83.1423C75.5761 83.1423 74.7841 80.0823 74.7841 74.9343C74.7841 69.8223 75.6481 66.7263 77.3041 66.7263C78.9601 66.7263 79.8601 69.8223 79.8601 74.9343C79.8601 80.0463 79.0321 83.1423 77.3041 83.1423Z" fill="#A86D37"/>
<path d="M68.2699 28.339L66.5849 34.4314L64.937 28.3138L63.4961 28.3029L65.6928 36.0197L67.4088 36.0327L69.7109 28.3498L68.2699 28.339Z" fill="#A86D37"/>
<path d="M88.3402 34.182L88.7459 33.1832L84.6695 31.5271L84.2637 32.5258L85.6905 33.1055L83.6038 38.2418L82.177 37.6622L81.7713 38.6609L85.8477 40.317L86.2535 39.3183L84.8267 38.7386L86.9134 33.6023L88.3402 34.182Z" fill="#A86D37"/>
<path d="M104.905 44.444L101.172 48.3625L103.081 42.7065L101.982 41.6594L96.6705 47.2345L97.6024 48.1222L101.381 44.156L99.4581 49.8901L100.525 50.9068L105.836 45.3317L104.905 44.444Z" fill="#A86D37"/>
<path d="M108.715 63.434C109.52 65.1704 111.353 65.4115 113.529 64.4029C115.704 63.3942 116.705 61.839 115.9 60.1026C115.095 58.3661 113.261 58.125 111.086 59.1337C108.91 60.1423 107.909 61.6975 108.715 63.434ZM109.778 62.9289C109.324 61.9509 110.064 61.0623 111.641 60.3312C113.218 59.6001 114.374 59.6097 114.827 60.5877L114.837 60.6076C115.29 61.5856 114.55 62.4743 112.974 63.2053C111.397 63.9364 110.24 63.9269 109.787 62.9489L109.778 62.9289Z" fill="#A86D37"/>
<path d="M112.939 80.649C113.03 82.3516 114.117 83.3065 115.787 83.2166L120.883 82.9423L120.812 81.6242L115.913 81.8879C114.727 81.9518 114.161 81.4645 114.115 80.6077L114.113 80.5638C114.067 79.707 114.577 79.1618 115.763 79.0979L120.662 78.8342L120.591 77.5161L115.495 77.7905C113.825 77.8804 112.847 78.9465 112.939 80.649Z" fill="#A86D37"/>
<path d="M110.55 98.0033C109.977 99.7139 110.608 101.016 111.849 101.432C113.017 101.823 113.891 101.327 114.554 100.18L115.133 99.1792C115.474 98.5745 115.819 98.3768 116.341 98.5515C116.904 98.7402 117.188 99.4155 116.912 100.239L116.898 100.281C116.625 101.095 115.992 101.497 115.171 101.28L114.752 102.532C116.132 102.983 117.437 102.376 118.014 100.655C118.577 98.9759 117.845 97.6634 116.729 97.2894C115.654 96.9295 114.756 97.255 114.076 98.4193L113.4 99.5731C113.058 100.178 112.654 100.309 112.185 100.152C111.642 99.9704 111.33 99.3786 111.624 98.5024L111.638 98.4607C111.998 97.3864 112.67 96.9735 113.616 97.2324L114.035 95.9808C112.516 95.5297 111.203 96.0529 110.55 98.0033Z" fill="#A86D37"/>
</svg>
