<svg width="152" height="153" viewBox="0 0 152 153" fill="none" xmlns="http://www.w3.org/2000/svg">
<path d="M86.4625 131.536C68.5153 138.216 47.5323 134.342 33.106 119.916C18.1268 104.937 14.5248 82.8884 22.3003 64.5095" stroke="#112D47" stroke-width="4"/>
<path d="M67.8336 80.6776C67.8336 73.3336 64.0896 69.0496 59.4096 69.0496C54.7296 69.0496 51.0216 73.3336 51.0216 78.4096C51.0216 83.4856 54.4056 87.7696 58.8336 87.7696C59.4816 87.7696 60.0576 87.6256 60.6336 87.3376C58.8336 92.0176 55.8816 95.4016 53.0736 97.2016L53.1456 97.3816C62.6856 95.2576 67.9416 88.5976 67.8336 80.6776ZM59.4096 86.6176C57.6816 86.6176 56.8896 83.5576 56.8896 78.4096C56.8896 73.2976 57.7536 70.2016 59.4096 70.2016C61.0656 70.2016 61.9656 73.2976 61.9656 78.4096C61.9656 83.5216 61.1376 86.6176 59.4096 86.6176ZM85.7357 88.7056C85.7357 84.7816 83.0357 82.5136 80.1917 80.5696C82.0637 79.6696 84.5117 77.9056 84.5117 75.0616C84.5117 71.4616 80.8397 69.0496 77.5277 69.0496C73.2077 69.0496 69.9317 72.2536 69.9317 76.3576C69.9317 79.6336 71.7317 81.7936 73.8917 83.5936C71.5877 84.6016 68.7437 86.4016 68.7437 90.3256C68.7437 94.4656 72.4517 97.1296 76.8437 97.1296C81.6317 97.1296 85.7357 93.4936 85.7357 88.7056ZM73.9637 73.4056C73.9637 71.5336 75.0797 70.2376 76.6997 70.2376C78.9677 70.2376 80.0477 72.7936 80.0477 75.6376C80.0477 77.1136 79.8317 78.5536 79.2557 79.8856C76.5197 78.0496 73.9637 76.3216 73.9637 73.4056ZM73.2077 89.2816C73.2077 87.4456 73.7117 85.5376 74.7557 84.2776C77.9957 86.7256 81.7037 88.5976 81.7037 91.9096C81.7037 93.9616 80.0837 95.9416 77.5997 95.9416C74.5757 95.9416 73.2077 92.7376 73.2077 89.2816Z" fill="#112D47"/>
<path d="M34.2498 40.04L37.5971 44.5548L34.5116 42.1473L33.5767 42.9327L35.413 46.4183L31.5125 42.3395L30.6028 43.1036L36.0441 48.589L37.139 47.6692L35.1084 43.8154L38.4529 46.5655L39.6068 45.5962L35.1679 39.2688L34.2498 40.04Z" fill="#112D47"/>
<path d="M46.2994 34.1574L45.8217 33.191L41.8773 35.1408L42.355 36.1072L43.7355 35.4248L46.1923 40.3947L44.8118 41.0771L45.2895 42.0435L49.2339 40.0937L48.7562 39.1273L47.3756 39.8097L44.9188 34.8398L46.2994 34.1574Z" fill="#112D47"/>
<path d="M57.4423 29.6621L58.6339 34.9413L54.9851 30.2168L53.5043 30.551L55.1997 38.062L56.4551 37.7787L55.249 32.4351L58.9552 37.2144L60.393 36.8898L58.6977 29.3788L57.4423 29.6621Z" fill="#112D47"/>
<path d="M66.4038 36.4206L71.5292 36.4959L71.5465 35.319L67.7409 35.2631L67.773 33.0744L70.9077 33.1204L70.925 31.9435L67.7903 31.8975L67.8194 29.9177L71.515 29.972L71.5323 28.7951L66.5168 28.7214L66.4038 36.4206Z" fill="#112D47"/>
<path d="M86.9267 40.6895C88.5793 41.4128 89.9323 40.9002 90.4571 39.701C90.9511 38.5724 90.5349 37.6578 89.4516 36.8955L88.5063 36.2296C87.9344 35.8353 87.7682 35.4744 87.9887 34.9705C88.2268 34.4263 88.9247 34.2034 89.7208 34.5519L89.7611 34.5695C90.5472 34.9135 90.8916 35.5806 90.6024 36.3786L91.8117 36.9078C92.3838 35.5732 91.8958 34.2189 90.233 33.4912C88.6106 32.7812 87.2381 33.3932 86.7662 34.4715C86.3119 35.5094 86.5562 36.4328 87.6552 37.214L88.7441 37.9908C89.316 38.3851 89.411 38.7989 89.2126 39.2524C88.9833 39.7764 88.366 40.0346 87.5195 39.6641L87.4792 39.6465C86.4412 39.1922 86.0898 38.4861 86.432 37.5672L85.2227 37.038C84.638 38.5111 85.0422 39.8648 86.9267 40.6895Z" fill="#112D47"/>
<path d="M94.5141 44.8401L95.5661 45.6374L97.3335 43.3055L98.5608 44.2357C99.718 45.1127 101.034 45.0336 101.958 43.815C102.881 42.5964 102.61 41.3147 101.453 40.4376L99.1651 38.7035L94.5141 44.8401ZM98.0444 42.3675L99.5062 40.4388L100.611 41.276C101.286 41.7876 101.357 42.4216 100.906 43.0177C100.454 43.6138 99.8153 43.7096 99.149 43.2047L98.0444 42.3675Z" fill="#112D47"/>
<path d="M102.964 52.3922L106.201 56.3673L107.113 55.6242L104.71 52.6727L106.408 51.2906L108.387 53.7218L109.3 52.9787L107.321 50.5475L108.856 49.2974L111.19 52.1636L112.102 51.4205L108.935 47.5307L102.964 52.3922Z" fill="#112D47"/>
<path d="M110.346 64.0515C111.102 65.6408 112.436 65.8588 113.83 65.3054L113.262 64.1135C112.435 64.3974 111.754 64.2709 111.418 63.5657L111.399 63.526C110.941 62.5625 111.63 61.5525 113.189 60.8105C114.739 60.0732 115.972 60.181 116.425 61.1345L116.444 61.1743C116.775 61.8696 116.438 62.5174 115.706 62.9508L116.273 64.1428C117.542 63.4295 118.244 62.2181 117.498 60.6487C116.637 58.8409 114.758 58.6024 112.622 59.6186C110.467 60.6441 109.49 62.2537 110.346 64.0515Z" fill="#112D47"/>
<path d="M113.633 73.7896L113.9 75.0824L120.288 73.7628L120.722 75.8634L121.875 75.6253L120.74 70.1313L119.587 70.3694L120.021 72.4701L113.633 73.7896Z" fill="#112D47"/>
<path d="M114.529 87.3267L114.484 88.701L122.255 86.6562L122.309 85.0181L114.691 82.4014L114.646 83.7646L116.508 84.3652L116.427 86.8498L114.529 87.3267ZM117.685 84.734L120.832 85.751L117.625 86.548L117.685 84.734Z" fill="#112D47"/>
<path d="M112.956 95.9161L112.603 97.188L118.888 98.9333L118.314 101L119.449 101.315L120.95 95.9095L119.815 95.5946L119.242 97.6614L112.956 95.9161Z" fill="#112D47"/>
<path d="M108.387 106.661C107.457 108.334 108.342 109.958 110.438 111.122C112.535 112.287 114.381 112.18 115.31 110.506C116.24 108.833 115.355 107.209 113.259 106.045C111.162 104.88 109.316 104.987 108.387 106.661ZM109.421 107.222C109.945 106.28 111.098 106.355 112.618 107.199C114.137 108.043 114.81 108.983 114.287 109.925L114.276 109.944C113.753 110.887 112.599 110.812 111.079 109.968C109.56 109.124 108.887 108.184 109.41 107.242L109.421 107.222Z" fill="#112D47"/>
<path d="M103.568 119.255L103.59 119.231C103.258 120.062 103.437 120.825 104.14 121.474C105.022 122.287 106.377 122.115 107.272 121.145L109.226 119.026L103.565 113.806L102.67 114.777L104.87 116.805L103.632 118.147C103.289 118.519 103.056 118.529 102.692 118.193L100.977 116.612L100.083 117.583L102.007 119.357C102.509 119.82 103.031 119.838 103.568 119.255ZM104.914 118.477L105.727 117.595L107.466 119.199L106.653 120.08C106.034 120.751 105.415 120.854 104.849 120.332C104.283 119.81 104.318 119.124 104.914 118.477Z" fill="#112D47"/>
</svg>
