<svg width="280" height="242" viewBox="0 0 280 242" fill="none" xmlns="http://www.w3.org/2000/svg">
<ellipse cx="139.68" cy="73.9138" rx="139.68" ry="25.4763" fill="#E0E5CD"/>
<path d="M138.163 60.171C126.505 56.3461 29.8711 65.422 29.8711 71.8946C29.8711 78.3642 91.2952 83.5794 151.103 83.5794C210.912 83.5794 246.456 78.3648 246.456 71.8946C246.456 67.2399 221.382 63.2169 185.053 61.3244C180.029 61.3244 171.098 65.8692 180.029 74.1262C192.868 85.9957 196.776 100.362 176.122 105.386C155.468 110.41 138.163 123.249 138.163 149.484" stroke="#242E35" stroke-width="2" stroke-linecap="round" stroke-linejoin="round"/>
<path d="M30.9883 73.5684C30.9883 73.5684 49.1987 92.3646 68.5256 106.42C87.8524 120.476 119.254 139.26 119.254 139.26V154.516C119.254 154.516 119.535 154.685 120.2 154.962C122.185 155.739 127.527 157.3 138.164 157.3C142.611 157.3 146.106 157.022 148.848 156.658C154.854 155.826 157.075 154.516 157.075 154.516V139.26C157.075 139.26 191.515 119.598 201.178 110.813C210.841 102.028 245.341 73.5684 245.341 73.5684" stroke="#242E35" stroke-width="2" stroke-linecap="round" stroke-linejoin="round"/>
<path d="M129.232 22.7541V28.1853C129.232 35.9842 123.233 42.3065 115.835 42.3065C108.436 42.3065 102.438 35.9842 102.438 28.1853V22.2109" stroke="#242E35" stroke-width="2" stroke-linecap="round" stroke-linejoin="round"/>
<path d="M171.658 52.7458V56.6683C171.658 62.3009 167.159 66.867 161.61 66.867C156.061 66.867 151.562 62.3009 151.562 56.6683V52.3535" stroke="#242E35" stroke-width="2" stroke-linecap="round" stroke-linejoin="round"/>
<path d="M175 194V204.071C175 224.467 158.435 241 138 241C117.565 241 101 224.467 101 204.071V194" stroke="#242E35" stroke-width="2" stroke-linecap="round" stroke-linejoin="round"/>
<circle cx="115.835" cy="22.2115" r="13.397" stroke="#242E35" stroke-width="2" stroke-linecap="round" stroke-linejoin="round"/>
<circle cx="161.61" cy="52.3544" r="10.0478" stroke="#242E35" stroke-width="2" stroke-linecap="round" stroke-linejoin="round"/>
<path d="M116.725 161C107.214 167.668 101 178.687 101 191.152C101 211.502 117.565 228 138 228C158.435 228 175 211.502 175 191.152C175 178.687 168.786 167.668 159.275 161" stroke="#242E35" stroke-width="2" stroke-linecap="round" stroke-linejoin="round"/>
<ellipse cx="196.778" cy="38.959" rx="5.02388" ry="5.58209" stroke="#242E35" stroke-width="2" stroke-linecap="round" stroke-linejoin="round"/>
<ellipse cx="74.1403" cy="45.6555" rx="6.1403" ry="6.69851" stroke="#242E35" stroke-width="2" stroke-linecap="round" stroke-linejoin="round"/>
<ellipse cx="155.465" cy="7.69851" rx="6.1403" ry="6.69851" stroke="#242E35" stroke-width="2" stroke-linecap="round" stroke-linejoin="round"/>
<circle cx="137.5" cy="189.5" r="25.5" fill="#E0E5CD"/>
<path d="M146.919 180.942C142.216 179.159 133.172 179.574 132.435 184.185C131.514 189.949 146.261 185.058 145.537 189.587C144.814 194.115 129.587 195.767 130.048 192.885" stroke="#242E35" stroke-width="1.5" stroke-linecap="round" stroke-linejoin="round"/>
<path d="M140.52 176.354L137.384 198.525" stroke="#242E35" stroke-width="1.5" stroke-linecap="round" stroke-linejoin="round"/>
<circle cx="115.5" cy="22.5" r="9.5" fill="#E0E5CD"/>
<path d="M119.953 19.4687C117.604 18.578 113.085 18.7856 112.717 21.0891C112.257 23.9684 119.624 21.5252 119.263 23.7875C118.902 26.0498 111.295 26.875 111.525 25.4353" stroke="#242E35" stroke-width="1.5" stroke-linecap="round" stroke-linejoin="round"/>
<path d="M116.754 17.1758L115.188 28.2505" stroke="#242E35" stroke-width="1.5" stroke-linecap="round" stroke-linejoin="round"/>
<circle cx="161.5" cy="51.5" r="7.5" fill="#E0E5CD"/>
<path d="M163.865 49.6196C162.325 49.0355 159.363 49.1716 159.122 50.6821C158.82 52.5702 163.65 50.9681 163.413 52.4516C163.176 53.9351 158.189 54.4761 158.34 53.532" stroke="#242E35" stroke-linecap="round" stroke-linejoin="round"/>
<path d="M161.77 48.1172L160.743 55.3789" stroke="#242E35" stroke-linecap="round" stroke-linejoin="round"/>
<path d="M198.549 37.9799C197.616 37.6265 195.822 37.709 195.676 38.623C195.494 39.7656 198.418 38.796 198.275 39.6937C198.132 40.5914 195.112 40.919 195.203 40.3477" stroke="#242E35" stroke-width="0.8" stroke-linecap="round" stroke-linejoin="round"/>
<path d="M197.277 37.0703L196.656 41.4643" stroke="#242E35" stroke-width="0.8" stroke-linecap="round" stroke-linejoin="round"/>
<path d="M157.352 6.17703C156.209 5.7438 154.01 5.84484 153.831 6.96535C153.607 8.36599 157.192 7.17741 157.017 8.27791C156.841 9.37841 153.139 9.77988 153.25 9.07956" stroke="#242E35" stroke-width="0.8" stroke-linecap="round" stroke-linejoin="round"/>
<path d="M155.793 5.05859L155.031 10.4461" stroke="#242E35" stroke-width="0.8" stroke-linecap="round" stroke-linejoin="round"/>
<path d="M76.3913 44.2024C75.2479 43.7692 73.0489 43.8702 72.8698 44.9907C72.6461 46.3914 76.2315 45.2028 76.0556 46.3033C75.8798 47.4038 72.1776 47.8053 72.2895 47.1049" stroke="#242E35" stroke-width="0.8" stroke-linecap="round" stroke-linejoin="round"/>
<path d="M74.832 43.0859L74.0702 48.473" stroke="#242E35" stroke-width="0.8" stroke-linecap="round" stroke-linejoin="round"/>
</svg>
