<svg width="306" height="170" viewBox="0 0 306 170" fill="none" xmlns="http://www.w3.org/2000/svg">
<path d="M132.145 64.4614H136.508V55.1587H133.235V47.2871H144.145V55.1587H141.599V118.489H144.145V125.287H134.326V118.489H136.508V108.113H132.145" stroke="#242E35" stroke-width="2" stroke-linecap="round" stroke-linejoin="round"/>
<path d="M106.426 64.7046L110.375 60.6935C111.452 59.8021 114.037 58.4205 115.76 60.025C117.483 61.6294 116.478 63.8133 115.76 64.7046L111.811 68.7157" stroke="#242E35" stroke-width="2" stroke-linecap="round" stroke-linejoin="round"/>
<path d="M117.574 81.5742H122.289C123.86 81.6885 127.003 82.5342 127.003 85.0028C127.003 87.4714 124.102 88.3171 122.651 88.4314H117.574" stroke="#242E35" stroke-width="2" stroke-linecap="round" stroke-linejoin="round"/>
<path d="M92.7822 110.713C92.5273 113.284 92.8586 118.427 96.2233 118.427C99.5881 118.427 100.429 113.284 100.429 110.713" stroke="#242E35" stroke-width="2" stroke-linecap="round" stroke-linejoin="round"/>
<path d="M109.855 104.808C111.602 106.903 115.767 110.533 118.462 108.299C121.156 106.065 116.591 101.55 113.971 99.5723" stroke="#242E35" stroke-width="2" stroke-linecap="round" stroke-linejoin="round"/>
<path d="M72.1381 103.43C70.0099 104.666 66.871 107.453 69.8754 110.421C72.8799 113.389 76.2072 110.246 77.7095 108.144" stroke="#242E35" stroke-width="2" stroke-linecap="round" stroke-linejoin="round"/>
<path d="M65.8039 82.4297C64.2039 82.5511 61.0039 82.6525 61.0039 85.8583C61.0039 89.064 64.4325 90.3227 66.1468 90.0798" stroke="#242E35" stroke-width="2" stroke-linecap="round" stroke-linejoin="round"/>
<path d="M77.284 64.0823C76.161 62.657 73.391 59.8779 71.2947 60.1629C68.6743 60.5192 67.5513 63.0135 67.9257 64.0823C68.2251 64.9372 70.2964 67.5263 71.2947 68.714" stroke="#242E35" stroke-width="2" stroke-linecap="round" stroke-linejoin="round"/>
<ellipse cx="76.4263" cy="86.7168" rx="58.2857" ry="72" stroke="#242E35" stroke-width="2" stroke-linecap="round" stroke-linejoin="round"/>
<ellipse cx="96.1395" cy="86.286" rx="21.4286" ry="24.4286" stroke="#242E35" stroke-width="2" stroke-linecap="round" stroke-linejoin="round"/>
<path d="M87.8313 110.715C75.854 110.715 66.1445 99.7514 66.1445 86.2277C66.1445 72.7039 75.854 61.7408 87.8313 61.7408V53.4584C88.0722 52.2581 89.4939 49.8574 91.8072 49.8574C94.6987 49.8574 96.1445 52.3781 96.1445 53.8185C96.1445 54.9709 96.1445 59.5802 96.1445 61.7408" stroke="#242E35" stroke-width="2" stroke-linecap="round" stroke-linejoin="round"/>
<path d="M76 14.7168H59.2857C27.0954 14.7168 1 46.9523 1 86.7168C1 126.481 27.0954 158.717 59.2857 158.717H76.4286" stroke="#242E35" stroke-width="2" stroke-linecap="round" stroke-linejoin="round"/>
<path d="M144.312 49.4286C157.706 20.8184 186.754 1 220.431 1C266.823 1 304.431 38.6081 304.431 85C304.431 131.392 266.823 169 220.431 169C186.922 169 157.996 149.379 144.515 121" stroke="#242E35" stroke-width="2" stroke-linecap="round" stroke-linejoin="round"/>
<circle cx="224.711" cy="88.4283" r="64.2857" stroke="#242E35" stroke-width="2" stroke-linecap="round" stroke-linejoin="round"/>
<circle cx="224.712" cy="88.4269" r="44.5714" fill="#FAE8D1"/>
<path d="M217.855 152.285C253.359 152.285 282.141 123.931 282.141 88.4275C282.141 52.9234 253.359 24.5703 217.855 24.5703" stroke="#242E35" stroke-width="2" stroke-linecap="round" stroke-linejoin="round"/>
<path d="M219.114 24.895C205.796 23.5294 178.024 30.3549 164.92 50.5178" stroke="#242E35" stroke-width="2" stroke-linecap="round" stroke-linejoin="round"/>
<path d="M232.033 45.0571L226.638 63.812C226.507 64.3935 225.513 65.7452 222.588 66.5005C221.073 66.9084 216.088 69.4945 214.84 73.5998C213.842 76.884 205.973 109.454 202.163 125.329C201.587 126.926 201.023 130.411 203.376 131.574C206.316 133.027 218.612 137.95 224.479 136.488C226.493 135.326 227.182 132.477 227.797 129.904C228.29 127.846 235.516 102.955 239.383 89.5374" stroke="#242E35" stroke-width="2" stroke-linecap="round" stroke-linejoin="round"/>
<path d="M237.853 60.8843C236.172 60.1625 231.885 58.634 228.187 58.2944" stroke="#242E35" stroke-width="2" stroke-linecap="round" stroke-linejoin="round"/>
<path d="M232.96 41.6041C232.996 41.1944 233.331 40.3863 234.384 40.4318C235.437 40.4773 237.002 40.7879 237.652 40.9375C239.179 41.2233 242.163 42.1611 241.889 43.6267C242.174 44.221 241.73 45.878 241.328 47.1021C241.143 47.3487 238.17 59.2545 236.707 65.1766C236.577 66.0297 236.483 67.9433 237.149 68.7729C237.981 69.8098 243.137 74.5949 241.623 81.0709C240.913 83.722 240.402 85.6275 240.236 86.2488L218.184 80.3401L210.153 112.522C214.376 114.344 220.22 116.347 227.126 117.07" stroke="#242E35" stroke-width="2" stroke-linecap="round" stroke-linejoin="round"/>
<path d="M239.537 46.2035C237.084 45.3242 232.075 43.9524 231.66 45.4988C231.246 47.0453 231.081 47.662 231.05 47.777C231.053 47.9505 231.278 48.2525 232.155 48.073C233.251 47.8487 240.04 49.2979 240.807 51.1312" stroke="#242E35" stroke-width="2" stroke-linecap="round" stroke-linejoin="round"/>
</svg>
