<svg width="274" height="242" viewBox="0 0 274 242" fill="none" xmlns="http://www.w3.org/2000/svg">
<ellipse cx="200.511" cy="82.355" rx="71.582" ry="22.8526" transform="rotate(4.36293 200.511 82.355)" fill="#E0E5CD"/>
<path d="M190.118 74.1985C197.983 74.1985 225.511 78.7953 222.234 80.7664C218.957 82.7375 172.421 78.7953 165.212 74.1985C158.002 69.6018 189.462 71.5706 199.949 70.9138C210.436 70.2571 230.754 76.1682 232.065 78.7953C233.376 81.4225 228.743 173.378 228.743 181.26C228.743 189.141 227.402 212.123 197.433 220.622C160.888 230.985 149.482 201.615 160.624 204.899C171.766 208.183 177.665 202.272 175.043 195.704C172.421 189.136 144.893 184.538 138.995 179.941C133.096 175.343 146.013 176.304 165.212 182.568C193.395 191.764 193.395 195.047 207.159 199.644C220.923 204.242 223.545 185.852 211.747 182.568C199.949 179.284 178.976 168.775 172.421 166.148C165.867 163.521 144.238 160.894 144.893 155.64C145.549 150.385 181.597 162.208 199.949 170.746C218.301 179.285 220.305 175.343 222.927 166.148C225.549 156.953 191.429 147.102 183.564 143.161C175.698 139.221 165.212 139.22 156.691 136.593C148.171 133.966 167.833 129.368 185.53 133.309C203.226 137.249 224.531 137.875 225.511 129.368C227.477 112.292 191.429 110.979 167.833 110.321C150.599 109.841 148.927 109.664 131.231 108.351C113.535 107.037 70.6917 133.966 54.3061 136.593C41.1976 138.694 -2.49193 113.5 16.8043 108.351C20.4704 107.542 22.2373 114.006 11.5089 125.5C-2.49235 140.5 24.7091 144.5 39.0078 124" stroke="#242E35" stroke-width="2" stroke-linecap="round"/>
<path d="M214.427 188.416C213.857 186.731 209.591 185.05 208.165 185.284C207.689 185.751 206.622 186.722 205.481 190.652C204.055 195.564 203.068 195.256 209.486 197.361C216.617 198.063 215.14 190.521 214.427 188.416Z" stroke="#242E35" stroke-width="2" stroke-linecap="round"/>
<path d="M197.811 74.9162C194.548 65.5998 192.721 45.6361 211.515 40.3125C235.007 33.6579 243.489 40.3125 240.879 42.3088" stroke="#242E35" stroke-width="2" stroke-linecap="round"/>
<path d="M203.699 43.9429C205.592 37.42 209.703 25.3527 211.002 29.2664C212.624 34.1586 210.19 39.0509 212.624 35.3818C215.058 31.7127 221.549 19.4823 224.795 23.1514C228.04 26.8205 217.493 35.3814 220.738 34.1584C223.984 32.9354 235.343 19.4817 238.588 24.3741" stroke="#242E35" stroke-width="2" stroke-linecap="round"/>
<path d="M196.158 68.989C190.33 62.0168 177.663 41.6478 183.257 28.5001C190.25 12.0654 201.901 9.07727 193.746 3.10102C185.592 -2.87522 186.757 5.34212 187.923 9.8243C189.088 14.3065 179.764 3.10102 179.764 8.33024C179.764 13.5595 187.915 21.0298 183.257 21.0298C178.599 21.0298 180.93 18.0416 166.944 15.0535C152.958 12.0654 163.447 25.5119 176.268 25.5119C189.088 25.5119 169.273 28.5001 162.28 28.5001C155.287 28.5001 164.611 47.1758 175.101 36.7174" stroke="#242E35" stroke-width="2" stroke-linecap="round"/>
<path d="M162.293 110.381L165.333 72.8887" stroke="#242E35" stroke-width="2" stroke-linecap="round"/>
<path d="M210.796 132.673C206.365 128.619 209.523 120.207 211.739 119.531C218.39 120.882 221.134 123.977 221.134 128.03C221.134 132.083 218.186 132.673 210.796 132.673Z" stroke="#242E35" stroke-width="2" stroke-linecap="round"/>
<path d="M208.898 170.182C210.853 167.039 212.851 162.96 212.634 160.239C215.24 159.401 220.039 163.37 219.344 166.054C217.144 174.54 211.504 172.066 208.898 170.182Z" stroke="#242E35" stroke-width="2" stroke-linecap="round"/>
<circle cx="69.4489" cy="186.325" r="34.4553" transform="rotate(-15 69.4489 186.325)" fill="#E6C9C9"/>
<path d="M66.1953 189.661L60.9069 193.01L53.4587 169.652L59.191 166.184L78.1058 179.95L76.581 168.044L65.4685 162.087L70.7978 158.003L77.4727 162.493L76.1465 154.88L81.5965 151.246L83.2421 163.603L94.6973 169.951L88.7021 174.213L81.9668 169.498L84.14 177.609L73.462 184.816L69.7117 181.475L64.9276 184.93L66.1953 189.661Z" fill="#C6D3DD" stroke="#242E35" stroke-width="2" stroke-linecap="round" stroke-linejoin="round"/>
<path d="M57.1823 145.124C55.5104 145.379 49.3856 144.888 44.3968 147.194C40.4058 149.038 38.286 154.451 37.725 156.927C35.5843 164.09 24.1204 171.813 24.2412 178.758C24.3619 185.702 29.081 193.934 29.4254 198.105C29.7698 202.277 28.8865 206.196 30.7008 211.524C32.5151 216.852 41.7816 218.245 48.9724 222.713C56.1631 227.182 58.1659 230.328 61.9107 232.038C65.6555 233.747 75.8001 228.316 80.1293 227.156C84.4584 225.996 90.9708 227.933 95.7658 224.904C100.561 221.875 103.361 213.566 104.196 209.467C105.031 205.367 113.926 201.045 115.13 194.715C116.334 188.385 111.989 180.828 110.382 176.995C108.775 173.162 110.237 163.467 108.124 159.188C106.011 154.91 96.0442 152.347 92.9859 151.035C89.9276 149.723 92.3289 141 80.1293 138.5C67.9296 136 94.5106 90.5024 86.009 85.0007C77.5074 79.4991 59.5097 92.5011 45.5079 116" stroke="#242E35" stroke-width="2" stroke-linecap="round" stroke-linejoin="round"/>
<path d="M59.0894 172.094L62.526 180.483L66.3822 178.018L59.0894 172.094Z" fill="#C6D3DD"/>
<path d="M64.0131 217.086L60.3787 219.493L50.4938 205.67L59.2984 199.491L61.806 202.639L56.8576 206.352L58.5207 209.009L62.6415 205.757L65.0893 208.682L60.5249 212.053L64.0131 217.086Z" fill="#C6D3DD"/>
<path d="M74.7374 209.2L70.8812 211.665L62.2247 197.991C62.5688 197.501 64.2621 196.012 68.2821 193.98C73.307 191.44 75.4903 195.152 76.292 196.37C76.9333 197.344 76.3881 199.686 76.0354 200.736L82.9959 203.645L78.713 207.18L73.0236 203.691L71.65 204.775L74.7374 209.2Z" fill="#C6D3DD"/>
<path d="M84.9325 202.887L75.3291 189.228L83.5707 182.722L85.8564 185.929L80.9081 189.642L82.0082 191.974L86.5726 188.602L89.1398 191.972L84.5157 195.121L86.0594 197.333L91.2296 193.561L93.4556 196.545L84.9325 202.887Z" fill="#C6D3DD"/>
<path d="M97.9712 177.909L95.9073 174.642L87.1027 180.821L96.6036 194.986L104.683 188.762L102.96 185.882L97.5684 189.714L96.1272 186.997L100.529 183.907L98.747 180.804L93.8414 183.79L92.3574 181.8L97.9712 177.909Z" fill="#C6D3DD"/>
<path d="M59.0894 172.094L62.526 180.483L66.3822 178.018L59.0894 172.094Z" stroke="#242E35" stroke-width="2" stroke-linecap="round" stroke-linejoin="round"/>
<path d="M64.0131 217.086L60.3787 219.493L50.4938 205.67L59.2984 199.491L61.806 202.639L56.8576 206.352L58.5207 209.009L62.6415 205.757L65.0893 208.682L60.5249 212.053L64.0131 217.086Z" stroke="#242E35" stroke-width="2" stroke-linecap="round" stroke-linejoin="round"/>
<path d="M74.7374 209.2L70.8812 211.665L62.2247 197.991C62.5688 197.501 64.2621 196.012 68.2821 193.98C73.307 191.44 75.4903 195.152 76.292 196.37C76.9333 197.344 76.3881 199.686 76.0354 200.736L82.9959 203.645L78.713 207.18L73.0236 203.691L71.65 204.775L74.7374 209.2Z" stroke="#242E35" stroke-width="2" stroke-linecap="round" stroke-linejoin="round"/>
<path d="M84.9325 202.887L75.3291 189.228L83.5707 182.722L85.8564 185.929L80.9081 189.642L82.0082 191.974L86.5726 188.602L89.1398 191.972L84.5157 195.121L86.0594 197.333L91.2296 193.561L93.4556 196.545L84.9325 202.887Z" stroke="#242E35" stroke-width="2" stroke-linecap="round" stroke-linejoin="round"/>
<path d="M97.9712 177.909L95.9073 174.642L87.1027 180.821L96.6036 194.986L104.683 188.762L102.96 185.882L97.5684 189.714L96.1272 186.997L100.529 183.907L98.747 180.804L93.8414 183.79L92.3574 181.8L97.9712 177.909Z" stroke="#242E35" stroke-width="2" stroke-linecap="round" stroke-linejoin="round"/>
<path d="M51.7579 199.299L56.6961 196.077L46.9524 181.364L51.7719 177.7L49.4577 173.574L33.1831 184.104L36.7437 188.371L41.5156 185.431L51.7579 199.299Z" fill="#C6D3DD" stroke="#242E35" stroke-width="2" stroke-linecap="round" stroke-linejoin="round"/>
</svg>
