<svg width="295" height="185" viewBox="0 0 295 185" fill="none" xmlns="http://www.w3.org/2000/svg">
<path d="M136.145 78.0586C136.794 73.0518 145.458 59.959 161.537 58.2923" stroke="#242E35" stroke-width="2" stroke-linecap="round" stroke-linejoin="round"/>
<path d="M178.274 171.629C169.529 161.303 143.969 130.236 141.8 126.005C139.63 121.773 134.348 111.208 138.497 92.0799C139.692 82.7176 128.927 60.7064 109.219 39.2637C104.987 38.5659 102.277 33.9947 101.508 33.0584C100.892 32.3094 98.95 28.885 98.0559 27.2665C97.2012 26.2262 95.7175 23.593 96.6199 21.3828C97.748 18.6201 104.532 7.78965 118.066 4.21998C121.841 3.72457 130.101 13.1424 130.421 15.7584C130.677 17.8511 130.783 19.9102 130.804 20.6782C132.949 23.4072 135.729 26.9362 138.671 30.6603M277.676 171.628C249.576 134.244 211.828 82.6506 203.014 74.213C191.997 63.6659 179.931 63.9313 172.519 63.4995C165.107 63.0676 159.209 55.8895 156.618 53.0531C155.487 51.8152 150.21 45.2225 144.391 37.8874" stroke="#242E35" stroke-width="2" stroke-linecap="round" stroke-linejoin="round"/>
<path d="M195.734 139.348C200.517 134.565 213.258 124.283 225.966 121.414" stroke="#879EB4" stroke-width="4" stroke-linecap="round" stroke-linejoin="round"/>
<path d="M205.98 148.57C210.763 143.788 223.504 133.506 236.212 130.637" stroke="#879EB4" stroke-width="4" stroke-linecap="round" stroke-linejoin="round"/>
<path d="M115.422 27.584C117.821 24.8517 124.323 19.6049 131.14 20.4756" stroke="#242E35" stroke-width="2" stroke-linecap="round" stroke-linejoin="round"/>
<path d="M114.774 70.6876L113.568 90.8187C113.356 93.3287 112.163 95.6297 110.243 97.3262L64.4333 137.385C61.359 140.015 56.6986 139.68 54.1321 136.507L31.84 109.301C30.1079 107.219 30.34 104.025 32.4856 102.194L35.8483 99.3307" stroke="#242E35" stroke-width="2" stroke-miterlimit="10" stroke-linecap="round" stroke-linejoin="round"/>
<path d="M60.1058 116.929L68.1935 117.784L64.0246 110.801L71.9019 109.153L65.8126 103.867L72.8944 99.7612L65.4146 96.6492L70.7999 90.6232L62.7479 89.9305L66.1207 82.4783L58.1803 84.2245L58.9718 76.2356L52.1509 80.3689L50.4047 72.4284L45.055 78.6165L41.0482 71.5979L37.8374 79.0145L31.8746 73.5303L31.1187 81.6812L23.7653 78.3716L25.5747 86.2132L17.487 85.3585L21.6559 92.3415L13.7786 93.9888L19.8047 99.3741L12.7861 103.381L20.2027 106.592L14.8173 112.618L22.8694 113.31L19.5597 120.664L27.5002 118.918L26.5467 126.942L33.5296 122.773L35.2758 130.714L40.5623 124.624L44.5691 131.643L47.7799 124.226L53.8059 129.612L54.4986 121.56L61.9152 124.771L60.1058 116.929Z" fill="#E0E5CD"/>
<path d="M111.945 68.0931C111.945 68.0931 132.665 87.2875 132.736 55.1634C132.807 23.0392 154.397 16.8719 149.952 31.2709C144.558 52.3428 112.365 15.8215 109.051 39.431" stroke="#242E35" stroke-width="2" stroke-miterlimit="10" stroke-linecap="round" stroke-linejoin="round"/>
<path d="M75.332 113.157C75.9835 111.485 75.6272 109.864 74.4606 108.422C73.1951 106.917 71.6493 106.067 69.5621 105.847C66.6923 105.543 63.6214 106.643 60.6736 109.075C59.8082 109.775 59.2393 110.665 58.8049 111.78C58.1534 113.452 58.5097 115.073 59.6763 116.515C60.8429 117.957 62.4876 118.87 64.5748 119.09C67.4446 119.394 70.5155 118.294 73.4633 115.862C74.2655 115.26 74.8976 114.272 75.332 113.157ZM71.9289 113.905C71.2256 114.57 70.3878 115.009 69.4867 115.547C67.4238 116.595 65.6137 117.248 64.0207 117.343C62.4278 117.439 61.2141 116.941 60.4153 116.013C59.6165 115.084 59.6279 113.977 60.3864 112.791C60.7657 112.198 61.307 111.569 62.1091 110.968C62.8125 110.304 63.6503 109.865 64.5513 109.327C66.6143 108.279 68.4244 107.626 70.0173 107.53C71.6102 107.435 72.8871 107.834 73.6227 108.861C74.4216 109.79 74.4101 110.896 73.6516 112.083C73.2092 112.774 72.6679 113.403 71.9289 113.905ZM79.881 90.5812C80.2521 89.5652 80.3624 88.5216 79.9866 87.5849C79.9509 87.4229 79.8521 87.3597 79.8164 87.1976C79.682 86.9724 79.5475 86.7471 79.413 86.5218C79.3142 86.4586 79.2785 86.2966 79.2785 86.2966C79.2429 86.1345 79.0452 86.0081 79.0096 85.8461C77.7441 84.3405 76.0362 83.5269 73.9491 83.3064C72.1228 83.1134 70.2414 83.4422 68.4037 84.3559C68.0164 84.5261 67.6291 84.6962 67.2775 85.0283C66.989 85.2617 66.6649 85.3329 66.3764 85.5662C65.9259 85.8352 65.511 86.2662 65.0605 86.5352C64.8353 86.6697 64.6456 86.9662 64.3572 87.1995C64.294 87.2983 64.1676 87.496 64.1044 87.5949C63.6263 88.1247 63.4091 88.6821 63.1287 89.3384C62.6311 90.5521 62.7185 91.7221 63.3277 92.9472C63.4978 93.3345 63.83 93.6862 64.0001 94.0735C64.1346 94.2988 64.3322 94.4252 64.4667 94.6504C65.6609 95.8318 67.0723 96.4558 68.8985 96.6488C69.9421 96.7591 71.1121 96.6717 72.1476 96.3591C72.3096 96.3234 72.4717 96.2878 72.6969 96.1533C73.0843 95.9832 73.5704 95.8763 73.9577 95.7062C74.1198 95.6705 74.2818 95.6349 74.4082 95.4372C74.9576 95.2315 75.4713 94.8637 76.0839 94.5591C76.3091 94.4246 76.4712 94.389 76.5976 94.1913C76.8228 94.0568 77.0481 93.9223 77.1745 93.7246C77.3366 93.689 77.463 93.4913 77.6882 93.3568C77.7514 93.258 77.9767 93.1235 78.0399 93.0247C78.3284 92.7913 78.4548 92.5937 78.6444 92.2971C78.7076 92.1983 78.834 92.0006 78.8972 91.9017C79.4742 91.4351 79.727 91.0397 79.881 90.5812ZM76.4779 91.3295C76.2527 91.464 76.1262 91.6617 75.901 91.7962C75.3241 92.2628 74.6483 92.6662 73.9725 93.0697C72.4589 93.9122 71.0361 94.395 69.7397 94.68C69.5777 94.7157 69.2536 94.787 69.0915 94.8226C68.9295 94.8582 68.6686 94.8307 68.5065 94.8663C66.9136 94.9618 65.6999 94.4642 64.9011 93.5356C64.1023 92.607 64.1137 91.5002 64.8722 90.3141L64.9354 90.2152C65.3147 89.6222 65.7928 89.0923 66.5317 88.5901C66.757 88.4556 66.8834 88.2579 67.1087 88.1234C68.6498 87.02 70.1634 86.1775 71.9103 85.6234C72.0724 85.5878 72.2344 85.5522 72.3965 85.5165C72.7206 85.4453 72.9458 85.3108 73.2067 85.3384C73.3688 85.3027 73.6929 85.2315 73.8549 85.1958C74.9261 85.0452 75.8708 85.0923 76.5271 85.3727C76.6259 85.4359 76.7247 85.4991 76.7247 85.4991C76.8236 85.5623 76.9224 85.6255 77.0213 85.6887C77.3178 85.8783 77.6143 86.068 77.9465 86.4196C78.0453 86.4828 78.081 86.6449 78.2154 86.8701C78.3499 87.0954 78.4844 87.3207 78.5557 87.6448C78.6982 88.293 78.5167 89.0124 78.0742 89.7043C77.8214 90.0997 77.2801 90.7284 76.4779 91.3295Z" fill="#242E35"/>
<path d="M68.0353 99.716C68.1617 99.5184 68.3513 99.2218 68.3789 98.9609C68.3513 99.2218 68.1617 99.5184 68.0353 99.716Z" fill="#242E35"/>
<path d="M74.2024 84.8622C69.8229 95.8486 87.8878 97.6521 87.8878 97.6521L57.7108 104.118C44.9836 105.728 41.247 102.642 40.3803 99.8599C39.755 97.7889 40.5606 95.658 42.1293 94.2937L80.5696 62.0563C82.7785 60.1265 85.6954 59.485 88.6008 59.9504L110.584 64.1201C110.584 64.1201 114.007 74.6648 105.739 78.012C97.471 81.3591 95.2353 75.0553 102.052 68.9694C104.675 66.6086 106.96 66.9556 110.684 67.6657" stroke="#242E35" stroke-width="2" stroke-miterlimit="10" stroke-linecap="round" stroke-linejoin="round"/>
<path d="M211.616 84.0117C199.831 85.3781 172.162 94.567 155.766 120.392C168.883 136.788 188.559 162.066 196.757 172.656" stroke="#242E35" stroke-width="2" stroke-linecap="round" stroke-linejoin="round"/>
</svg>
