<svg width="119" height="157" viewBox="0 0 119 157" fill="none" xmlns="http://www.w3.org/2000/svg">
<circle cx="72.0885" cy="62.8883" r="20.0719" fill="#E6C9C9"/>
<path d="M84.0057 127.496C81.9148 128.332 80.2422 133.838 80.2422 135.859C81.1482 136.207 84.0057 136.612 87.351 137.114C91.5326 137.741 91.5326 133.559 91.5326 132.514C91.5326 131.469 88.8146 127.914 84.0057 127.496Z" stroke="#4F1C28" stroke-width="2" stroke-linecap="round" stroke-linejoin="round"/>
<path d="M72.0883 135.438C71.6702 134.602 71.0847 132.177 72.0883 129.166" stroke="#4F1C28" stroke-width="2" stroke-linecap="round" stroke-linejoin="round"/>
<path d="M91.114 127.912C94.1805 125.612 101.694 120.426 107.213 118.085C114.113 115.158 117.458 114.53 117.458 111.603C117.458 108.676 109.722 104.706 96.341 114.114C86.096 119.341 85.4688 119.967 81.2871 122.058" stroke="#4F1C28" stroke-width="2" stroke-linecap="round" stroke-linejoin="round"/>
<path d="M112.231 107.631C112.092 106.794 110.977 105.038 107.632 104.703C103.45 104.285 93.8321 110.559 86.7234 113.904C82.5923 115.847 77.8025 118.434 75.2238 120.176C73.0633 120.734 69.7877 121.054 73.9693 117.876C79.1964 113.904 101.15 102.195 103.45 108.467M67.2788 134.393C66.3727 132.581 65.1043 128.246 67.2788 125.403" stroke="#4F1C28" stroke-width="2" stroke-linecap="round" stroke-linejoin="round"/>
<path d="M1 115.159C6.29675 113.974 18.9392 110.727 27.1353 107.214C37.3803 102.823 44.0709 103.032 54.3159 109.096C64.561 115.159 75.8514 121.013 81.4966 122.477C87.1418 123.941 97.3869 131.677 91.5326 137.322C86.7237 140.667 62.052 133.349 47.4162 126.24" stroke="#4F1C28" stroke-width="2" stroke-linecap="round" stroke-linejoin="round"/>
<path d="M79.4072 136.902C61.8443 152.583 53.2719 144.011 39.6816 136.902C28.8093 131.215 17.3098 140.108 12.9191 145.266C11.5252 146.938 9.15557 150.953 10.8282 153.629C12.9191 156.975 44.6992 157.184 30.8998 118.503C17.1004 79.8233 87.9792 103.868 87.9792 65.1875" stroke="#4F1C28" stroke-width="2" stroke-linecap="round" stroke-linejoin="round"/>
<path d="M76.8753 11.3356L78.1509 10.6086L77.9327 1.83633C77.9327 1.83633 74.6557 1 72.1171 1C69.5785 1 66.3015 1.83633 66.3015 1.83633L65.7928 10.8269L67.3589 11.3356C67.0065 22.2421 66.3015 44.583 66.3015 46.6939C66.3015 49.3326 65.7715 51.4436 63.6567 53.0268C56.7838 56.1932 56.2565 61.4706 56.2565 64.1093C55.7278 78.3582 58.8999 96.3012 59.4286 98.4121C59.8515 100.101 61.3671 100.523 62.072 100.523C67.8876 100.523 80.0474 100.523 82.1622 100.523C84.2769 100.523 84.8056 99.1158 84.8056 98.4121C85.863 89.9684 87.9778 71.392 87.9778 64.637C87.9778 56.1932 81.1048 53.0268 79.5187 51.9713C78.2499 51.1269 77.9327 48.1012 77.9327 46.6939L77.0546 17.3326M76.8753 11.3356C76.189 11.8355 74.0657 12.8352 71.0634 12.8352M76.8753 11.3356L77.0546 17.3326M77.0546 17.3326C76.608 17.9638 74.8792 19.1316 71.5368 18.7529" stroke="#4F1C28" stroke-width="2" stroke-linecap="round" stroke-linejoin="round"/>
<circle cx="72.0877" cy="62.8885" r="24.6717" stroke="#4F1C28" stroke-width="2" stroke-linecap="round" stroke-linejoin="round"/>
<g style="mix-blend-mode:multiply">
<circle cx="104.401" cy="22.9736" r="2.09082" fill="#E0E5CD"/>
</g>
<circle cx="26.8054" cy="53.7888" r="3.5544" fill="#E6C9C9"/>
<circle cx="110.125" cy="77.9314" r="3.5544" stroke="#4F1C28" stroke-width="2" stroke-linecap="round" stroke-linejoin="round"/>
<path d="M85.6786 57.2416C74.5973 63.9322 69.9789 68.4784 69.9789 68.4784L63.8582 63.3477L60.7979 66.7682L69.9789 80.4498C77.0178 65.742 91.4015 58.2171 91.4015 58.2171C95.0448 56.4341 101.36 56.1612 101.36 63.8026" stroke="#4F1C28" stroke-width="2" stroke-linecap="round" stroke-linejoin="round"/>
</svg>
