<svg width="176" height="165" viewBox="0 0 176 165" fill="none" xmlns="http://www.w3.org/2000/svg">
<circle cx="75.5" cy="138.5" r="22.5" fill="#FAE8D1"/>
<g style="mix-blend-mode:multiply">
<path d="M93.5 40C56.7 40 30.5 63 22 74.5C32 68 46.5 67 60 69C93 54.5 129.5 68 136.5 72C148.5 68.4 159.167 72.8333 163 75.5C155.167 63.6667 130.3 40 93.5 40Z" fill="#C5D5E4"/>
</g>
<path d="M14.5309 76.8359C23.7201 61.9278 49.3388 38.254 92.6758 37.2641C139.437 36.1959 166.441 70.4405 174.09 87.0287C170.366 85.4298 161.12 84.3507 153.936 92.8246C147.152 90.6262 133.888 86.629 116.727 94.6233M116.727 94.6233C103.756 91.2258 89.8822 86.0295 67.134 94.6233C60.7486 91.6255 53.565 86.8289 31.0163 91.4256C29.0209 89.6269 15.6513 77.0358 5.27498 80.8331C-5.10138 84.6304 11.86 86.4291 19.0436 82.0323C26.2272 77.6354 33.0122 72.8388 52.1685 76.8359C56.359 74.2378 93.9366 59.0486 132.848 76.8359C142.227 75.2371 159.324 75.2371 165.71 82.0323M116.727 94.6233C109.487 69.0047 90.6808 52.7336 90.6808 66.2429C90.6808 71.9987 110.044 112.821 110.044 139.335M47 20C35.5586 24.5003 98 32.0144 107.5 17.0072C117 2 84.863 -7.50077 81.5 17.0056C80.8392 24.8371 84.7325 46.6 114.5 59C151.709 74.5 133.183 134 92.6758 123.5" stroke="#112D47" stroke-width="2" stroke-linecap="round" stroke-linejoin="round"/>
<path d="M53.2373 76.6805C54.1327 66.4844 62 48.5 86.5 37.5" stroke="#112D47" stroke-width="2" stroke-linecap="round" stroke-linejoin="round"/>
<path d="M67.1592 94.5034C67.1592 89.2126 67.8275 77.0716 70.5007 70.834" stroke="#112D47" stroke-width="2" stroke-linecap="round" stroke-linejoin="round"/>
<path d="M31.2383 91.7164C32.5378 88.0964 36.1949 79.7425 40.4276 75.2871" stroke="#112D47" stroke-width="2" stroke-linecap="round" stroke-linejoin="round"/>
<path d="M153.761 92.8309C151.348 88.9324 145.408 80.1329 140.952 76.123" stroke="#112D47" stroke-width="2" stroke-linecap="round" stroke-linejoin="round"/>
<path d="M165.736 81.9725C167.036 81.7868 172.141 83.0863 173.533 85.8709" stroke="#112D47" stroke-width="2" stroke-linecap="round" stroke-linejoin="round"/>
<path d="M110.044 142.957C110.044 154.03 101.067 163.006 89.9941 163.006" stroke="#112D47" stroke-width="2" stroke-linecap="round" stroke-linejoin="round"/>
<circle cx="86.6519" cy="142.956" r="20.0494" stroke="#112D47" stroke-width="2" stroke-linecap="round" stroke-linejoin="round"/>
<circle cx="86.6514" cy="142.956" r="13.3662" stroke="#112D47" stroke-width="2" stroke-linecap="round" stroke-linejoin="round"/>
<path d="M92.4843 139.487C90.3045 138.055 85.6288 135.738 84.3646 137.927C82.7843 140.664 90.4523 143.006 88.872 145.744C87.6078 147.933 82.7816 145.877 80.5265 144.575" stroke="#112D47" stroke-width="2" stroke-linecap="round" stroke-linejoin="round"/>
<line x1="89.6551" y1="135.97" x2="82.5179" y2="148.332" stroke="#112D47" stroke-width="2" stroke-linecap="round" stroke-linejoin="round"/>
</svg>
