<svg width="107" height="174" viewBox="0 0 107 174" fill="none" xmlns="http://www.w3.org/2000/svg">
<path d="M56.7808 77.2027C73.2687 77.2027 86.6348 63.8114 86.6348 47.2925C86.6348 30.7735 73.2687 17.3823 56.7808 17.3823C40.2929 17.3823 26.9268 30.7735 26.9268 47.2925C26.9268 63.8114 40.2929 77.2027 56.7808 77.2027Z" fill="#E6C9C9"/>
<path d="M89.7511 142.851C89.7511 142.851 79.3287 138.818 94.4828 121.272C109.637 103.725 108.211 89.6674 97.7887 73.84C89.3347 60.9202 90.5587 48.9486 91.3157 44.9159C91.6463 43.2513 91.7987 41.5561 91.77 39.8592C91.6943 35.6874 90.6975 29.7459 85.2465 32.7672C77.1963 37.3182 76.2121 48.6957 77.9029 55.3958C79.5937 62.0959 90.9246 82.6766 79.3287 89.5283C74.7963 92.3851 69.5418 93.881 64.1872 93.8392C62.8964 93.7801 61.6796 93.2185 60.7958 92.2741C59.9121 91.3296 59.4311 90.0769 59.4555 88.7825V79.769C59.4555 79.769 78.2183 78.9725 82.0163 67.1273" stroke="#EFDDC7" stroke-width="2" stroke-linecap="round" stroke-linejoin="round"/>
<path d="M69.1462 141.903C69.1462 141.903 75.064 150.916 67.4932 157.073C59.9225 163.229 55.7459 157.073 55.7459 157.073L55.4179 124.103C55.4179 124.103 56.7806 114.142 39.0903 105.609C23.3936 98.0235 17.766 89.3893 16.0626 85.9887C15.6909 85.242 15.399 84.4581 15.1919 83.65L10.8765 67.6835C8.77301 60.1407 6.15066 52.753 3.02822 45.5732C0.845319 40.4154 -0.41644 34.6508 5.6654 35.8391C16.3275 37.925 14.4979 68.3788 17.2738 68.619C20.0498 68.8592 18.8511 55.7371 18.1445 50.5161C17.4379 45.2951 15.2423 28.7219 21.9298 31.0732C30.8507 34.2463 22.5229 76.9246 26.0812 75.7363C29.6394 74.5479 29.2861 58.9228 29.5132 52.5135C29.7403 46.1042 30.6362 33.2855 36.3143 38.7341C41.9924 44.1826 32.5289 73.84 34.3585 78.1003C36.1377 82.095 38.2701 68.3915 42.7116 58.9734C43.473 57.3387 44.4352 55.8056 45.5758 54.4098C47.2792 52.3492 49.8028 50.099 51.8217 51.7044C53.8406 53.3099 52.0614 57.8104 50.3075 61.1604C48.1878 65.1184 46.6978 69.3836 45.8913 73.8021C44.0995 84.0798 46.9259 86.7472 49.9921 91.1591C52.2633 94.4333 53.7775 93.7759 54.6103 92.7393C55.162 92.0141 55.4512 91.1226 55.4305 90.211V79.769C51.8483 79.7915 48.36 78.6221 45.5127 76.4442" stroke="#EFDDC7" stroke-width="2" stroke-linecap="round" stroke-linejoin="round"/>
<path d="M55.5189 172.736C67.1357 172.736 76.553 164.693 76.553 154.772C76.553 144.851 67.1357 136.808 55.5189 136.808C43.9021 136.808 34.4849 144.851 34.4849 154.772C34.4849 164.693 43.9021 172.736 55.5189 172.736Z" stroke="#EFDDC7" stroke-width="2" stroke-linecap="round" stroke-linejoin="round"/>
<path d="M80.0356 17.3949L85.2468 32.8051" stroke="#EFDDC7" stroke-width="2" stroke-linecap="round" stroke-linejoin="round"/>
<path d="M25.791 38.7341L30.8003 18.6591" stroke="#EFDDC7" stroke-width="2" stroke-linecap="round" stroke-linejoin="round"/>
<path d="M55.4179 34.714C69.0138 34.714 80.0354 27.226 80.0354 17.9891C80.0354 8.75217 69.0138 1.26416 55.4179 1.26416C41.822 1.26416 30.8003 8.75217 30.8003 17.9891C30.8003 27.226 41.822 34.714 55.4179 34.714Z" stroke="#EFDDC7" stroke-width="2" stroke-linecap="round" stroke-linejoin="round"/>
</svg>
