<svg width="694" height="686" viewBox="0 0 694 686" fill="none" xmlns="http://www.w3.org/2000/svg">
<rect y="408" width="694" height="278" fill="#3C400C"/>
<path d="M130.243 506.12H130.531L135.187 491.024C135.739 489.176 136.651 488.408 137.299 488.072V488H133.027V488.072C133.747 488.456 134.731 489.536 134.275 491.048L131.827 499.112L129.715 491.096C129.259 489.392 129.763 488.456 130.507 488.072V488H123.499V488.072C124.243 488.456 124.987 489.08 125.611 491.048L126.115 492.704L124.195 499.328L121.891 491.096C121.411 489.416 121.939 488.456 122.683 488.072V488H115.843V488.072C116.563 488.432 117.187 489.152 117.787 491.048L122.587 506.12H122.899L126.547 494.12L130.243 506.12ZM139.065 492.44C140.241 492.44 141.177 491.36 141.177 490.064C141.177 488.72 140.241 487.664 139.065 487.664C137.889 487.664 136.977 488.72 136.977 490.064C136.977 491.36 137.889 492.44 139.065 492.44ZM136.353 506H141.993V505.928C141.417 505.568 141.081 504.752 141.081 503.696V493.136H141.009C140.073 494.096 137.937 494.96 136.329 494.984V495.056C137.193 495.44 137.385 496.424 137.385 497.336V503.696C137.385 504.752 137.001 505.544 136.353 505.928V506ZM142.376 505.928V506H148.016V505.928C147.416 505.304 147.032 504.632 147.032 503.72V496.136C147.584 495.8 148.352 495.608 148.784 495.632C149.312 495.656 149.576 496.16 149.576 497.144V503.72C149.576 504.632 149.24 505.304 148.616 505.928V506H154.016V505.928C153.464 505.496 153.176 504.632 153.176 503.696V495.8C153.176 494.288 152.432 493.28 151.112 493.28C149.744 493.28 147.896 494.744 147.032 495.752L146.984 495.728C147.008 495.464 147.032 494.96 147.032 494.504V493.136H146.96C146.024 494.096 143.984 494.96 142.376 494.984V495.056C143.12 495.44 143.432 496.088 143.432 497.336V503.696C143.432 504.632 143.024 505.424 142.376 505.928ZM163.998 502.232L163.854 502.16C163.326 503.168 162.27 503.696 161.166 503.696C159.366 503.696 158.166 502.184 158.094 498.872H164.046V498.344C164.046 495.32 162.174 493.28 159.798 493.28C156.822 493.28 154.638 496.4 154.638 500.192C154.638 504.272 157.086 506.36 159.486 506.36C161.502 506.36 163.422 504.944 163.998 502.232ZM159.294 494.048C159.99 494.048 160.302 495.416 160.326 498.08H158.094C158.142 495.296 158.622 494.048 159.294 494.048ZM168.303 497C168.303 502.04 171.495 506.36 175.359 506.36C179.271 506.36 182.391 502.064 182.391 497C182.391 491.936 179.343 487.64 175.359 487.64C171.375 487.64 168.303 491.96 168.303 497ZM172.527 497C172.527 491.648 173.439 488.408 175.359 488.408C177.279 488.408 178.167 491.624 178.167 497C178.167 502.376 177.207 505.616 175.359 505.616C173.511 505.616 172.527 502.376 172.527 497ZM189.976 504.896V506.504H190.048C191.368 505.904 192.928 505.64 194.56 505.616V505.544C193.84 505.16 193.552 504.392 193.552 503.024V493.136H193.504C192.592 494.072 190.576 494.96 188.944 494.984V495.056C189.664 495.44 189.976 496.208 189.976 497.576V503.264C189.376 503.648 188.656 504.032 188.2 504.008C187.72 503.984 187.432 503.48 187.432 502.496V493.136H187.36C186.472 494.072 184.456 494.96 182.824 494.984V495.056C183.544 495.44 183.88 496.208 183.88 497.576V503.84C183.88 505.352 184.552 506.36 185.872 506.36C187.264 506.36 189.088 504.704 189.976 503.648L190.024 503.672C190 503.936 189.976 504.44 189.976 504.896ZM195.812 504.056C195.812 505.52 197.156 506.36 198.476 506.36C200.372 506.36 201.644 505.4 202.652 504.128L202.604 504.032C201.956 504.368 201.404 504.512 200.948 504.512C200.156 504.512 199.7 504.032 199.7 503.192V494.72H202.172V493.64H199.7V489.176H199.604C198.236 491.312 196.436 493.136 194.252 494.6V494.72H195.812V504.056ZM206.793 494.504V493.136H206.721C205.785 494.096 203.769 494.96 202.161 494.984V495.056C202.905 495.44 203.217 496.088 203.217 497.336V508.52C203.217 509.768 202.809 510.344 202.209 510.728V510.8H207.825V510.728C207.225 510.344 206.817 509.768 206.817 508.52V505.928C207.153 506.048 207.489 506.216 207.969 506.216C211.497 506.216 213.585 502.616 213.585 498.752C213.585 495.704 212.169 493.28 210.129 493.28C208.857 493.28 207.681 494.504 206.817 495.512L206.769 495.488C206.793 495.176 206.793 494.816 206.793 494.504ZM206.817 504.248V495.848C207.177 495.656 207.513 495.536 207.825 495.536C209.049 495.536 209.841 497.024 209.865 500.216C209.889 503.096 208.905 505.592 207.705 505.592C207.153 505.592 206.817 505.016 206.817 504.248ZM223.764 502.232L223.62 502.16C223.092 503.168 222.036 503.696 220.932 503.696C219.132 503.696 217.932 502.184 217.86 498.872H223.812V498.344C223.812 495.32 221.94 493.28 219.564 493.28C216.588 493.28 214.404 496.4 214.404 500.192C214.404 504.272 216.852 506.36 219.252 506.36C221.268 506.36 223.188 504.944 223.764 502.232ZM219.06 494.048C219.756 494.048 220.068 495.416 220.092 498.08H217.86C217.908 495.296 218.388 494.048 219.06 494.048ZM228.898 494.504V493.136H228.826C227.89 494.096 225.874 494.96 224.266 494.984V495.056C225.01 495.44 225.322 496.088 225.322 497.336V503.696C225.322 504.632 224.914 505.424 224.266 505.928V506H229.93V505.928C229.306 505.424 228.898 504.632 228.898 503.696V496.616C229.138 496.352 229.306 496.112 229.618 496.112C230.266 496.112 230.77 497.24 231.706 497.24C232.426 497.24 233.17 496.52 233.17 495.344C233.17 494.168 232.426 493.28 231.586 493.28C230.506 493.28 229.258 494.792 228.898 496.16L228.85 496.136C228.874 495.8 228.898 495.104 228.898 494.504ZM232.821 505.928V506H238.725V505.928C238.149 505.448 237.669 504.728 237.669 503.48V494.72H239.469V493.64H237.669C236.493 493.64 235.317 492.248 235.317 490.64V490.616C235.317 489.848 235.581 489.272 236.109 489.272C237.069 489.272 237.429 490.664 238.533 490.664C239.349 490.664 239.901 489.92 239.901 489.008C239.901 487.736 238.893 486.968 237.837 486.968C235.677 486.968 234.069 489.944 234.069 493.136V493.64H232.293V494.72H234.069V503.456C234.069 504.512 233.541 505.496 232.821 505.928ZM239.434 499.784C239.434 503.312 241.858 506.36 244.834 506.36C247.81 506.36 250.234 503.336 250.234 499.784C250.234 496.256 247.882 493.28 244.834 493.28C241.81 493.28 239.434 496.28 239.434 499.784ZM243.298 499.784C243.298 496.4 243.802 494 244.834 494C245.89 494 246.394 496.4 246.394 499.784C246.394 503.192 245.842 505.64 244.834 505.64C243.826 505.64 243.298 503.192 243.298 499.784ZM255.429 494.504V493.136H255.357C254.421 494.096 252.405 494.96 250.797 494.984V495.056C251.541 495.44 251.853 496.088 251.853 497.336V503.696C251.853 504.632 251.445 505.424 250.797 505.928V506H256.461V505.928C255.837 505.424 255.429 504.632 255.429 503.696V496.616C255.669 496.352 255.837 496.112 256.149 496.112C256.797 496.112 257.301 497.24 258.237 497.24C258.957 497.24 259.701 496.52 259.701 495.344C259.701 494.168 258.957 493.28 258.117 493.28C257.037 493.28 255.789 494.792 255.429 496.16L255.381 496.136C255.405 495.8 255.429 495.104 255.429 494.504ZM259.469 505.928V506H265.085V505.928C264.485 505.328 264.101 504.632 264.101 503.72V496.136C264.653 495.776 265.421 495.608 265.853 495.632C266.381 495.656 266.645 496.16 266.645 497.144V503.72C266.645 504.632 266.309 505.328 265.685 505.928V506H271.181V505.928C270.605 505.328 270.221 504.632 270.221 503.72V496.16C270.797 495.8 271.565 495.632 272.021 495.632C272.525 495.632 272.765 496.184 272.765 497.144V503.72C272.765 504.632 272.405 505.328 271.781 505.928V506H277.205V505.928C276.677 505.52 276.341 504.656 276.341 503.696V495.8C276.341 494.312 275.669 493.304 274.325 493.28C272.981 493.304 271.109 494.744 270.269 495.752L270.221 495.728C270.221 494.288 269.501 493.28 268.181 493.28C266.813 493.28 264.965 494.744 264.101 495.752L264.053 495.728C264.077 495.464 264.101 494.96 264.101 494.504V493.136H264.029C263.093 494.096 261.077 494.96 259.469 494.984V495.056C260.213 495.44 260.525 496.088 260.525 497.336V503.696C260.525 504.632 260.117 505.424 259.469 505.928ZM287.163 502.232L287.019 502.16C286.491 503.168 285.435 503.696 284.331 503.696C282.531 503.696 281.331 502.184 281.259 498.872H287.211V498.344C287.211 495.32 285.339 493.28 282.963 493.28C279.987 493.28 277.803 496.4 277.803 500.192C277.803 504.272 280.251 506.36 282.651 506.36C284.667 506.36 286.587 504.944 287.163 502.232ZM282.459 494.048C283.155 494.048 283.467 495.416 283.491 498.08H281.259C281.307 495.296 281.787 494.048 282.459 494.048ZM291.313 506.36C292.609 506.36 293.809 505.184 294.649 504.2L294.697 504.224C294.673 504.512 294.649 505.088 294.649 505.616V506.504H294.721C296.041 505.904 297.601 505.4 299.209 505.376V505.304C298.537 504.92 298.225 503.912 298.225 502.784V486.896H298.153C297.217 487.856 295.201 488.72 293.593 488.744V488.816C294.217 489.2 294.649 490.184 294.649 491.096V493.712C294.265 493.568 293.833 493.424 293.305 493.424C289.849 493.424 287.881 497.024 287.881 500.888C287.881 503.936 289.273 506.36 291.313 506.36ZM293.617 504.104C292.417 504.08 291.601 502.592 291.577 499.424C291.553 496.544 292.441 494.048 293.545 494.048C294.241 494.048 294.649 494.624 294.649 495.392V503.792C294.289 504.008 293.929 504.104 293.617 504.104ZM304.047 504.056C304.047 505.52 305.391 506.36 306.711 506.36C308.607 506.36 309.879 505.4 310.887 504.128L310.839 504.032C310.191 504.368 309.639 504.512 309.183 504.512C308.391 504.512 307.935 504.032 307.935 503.192V494.72H310.407V493.64H307.935V489.176H307.839C306.471 491.312 304.671 493.136 302.487 494.6V494.72H304.047V504.056ZM310.492 505.928V506H316.012V505.928C315.436 505.328 315.052 504.632 315.052 503.96V496.376C315.652 495.992 316.372 495.608 316.828 495.632C317.332 495.656 317.572 496.16 317.572 497.144V503.96C317.572 504.632 317.236 505.328 316.612 505.928V506H322.012V505.928C321.484 505.496 321.172 504.632 321.172 503.936V495.8C321.172 494.288 320.476 493.28 319.156 493.28C317.788 493.28 315.916 494.888 315.052 495.92L315.004 495.896C315.028 495.656 315.052 495.176 315.052 494.744V486.896H314.956C314.02 487.856 312.004 488.72 310.396 488.744V488.816C311.02 489.2 311.452 490.184 311.452 491.096V503.936C311.452 504.632 311.14 505.424 310.492 505.928ZM331.998 502.232L331.854 502.16C331.326 503.168 330.27 503.696 329.166 503.696C327.366 503.696 326.166 502.184 326.094 498.872H332.046V498.344C332.046 495.32 330.174 493.28 327.798 493.28C324.822 493.28 322.638 496.4 322.638 500.192C322.638 504.272 325.086 506.36 327.486 506.36C329.502 506.36 331.422 504.944 331.998 502.232ZM327.294 494.048C327.99 494.048 328.302 495.416 328.326 498.08H326.094C326.142 495.296 326.622 494.048 327.294 494.048ZM349.311 497.264C349.311 496.088 349.791 495.2 350.703 494.792V494.72H344.079V494.792C344.991 495.2 345.471 496.088 345.471 497.264V503.264C345.471 504.632 344.823 505.472 343.767 505.472C341.511 505.472 340.527 502.784 340.527 496.712C340.527 491.528 341.415 488.432 343.551 488.432C345.615 488.432 346.671 490.712 347.631 493.304H347.727L349.263 488.12C347.559 487.736 345.759 487.616 344.343 487.64C339.279 487.64 336.303 491.552 336.303 497.144C336.303 503.504 340.383 506.24 344.127 506.24C346.599 506.24 348.975 505.952 350.487 505.76V505.688C349.719 505.328 349.311 504.392 349.311 503.216V497.264ZM355.53 486.896H355.434C354.522 487.856 352.386 488.72 350.778 488.744V488.816C351.402 489.2 351.834 490.184 351.834 491.096V503.696C351.834 504.752 351.474 505.52 350.874 505.928V506H356.538V505.928C355.914 505.544 355.53 504.752 355.53 503.696V486.896ZM356.95 499.784C356.95 503.312 359.374 506.36 362.35 506.36C365.326 506.36 367.75 503.336 367.75 499.784C367.75 496.256 365.398 493.28 362.35 493.28C359.326 493.28 356.95 496.28 356.95 499.784ZM360.814 499.784C360.814 496.4 361.318 494 362.35 494C363.406 494 363.91 496.4 363.91 499.784C363.91 503.192 363.358 505.64 362.35 505.64C361.342 505.64 360.814 503.192 360.814 499.784ZM370.521 503.864C371.001 505.256 371.961 506.36 373.857 506.36C377.385 506.36 379.449 502.688 379.449 498.752C379.449 495.704 378.033 493.28 376.017 493.28C374.745 493.28 373.497 494.48 372.681 495.44L372.633 495.416C372.657 495.128 372.681 494.552 372.681 494.024V486.896H372.609C371.649 487.856 369.585 488.72 368.001 488.744V488.816C368.601 489.2 369.081 490.184 369.081 491.096V506.24H369.225L370.521 503.864ZM375.753 500.216C375.777 503.168 374.817 505.736 373.569 505.736C373.017 505.736 372.681 505.088 372.681 504.248V495.848C373.089 495.632 373.449 495.536 373.785 495.536C374.961 495.608 375.729 497.096 375.753 500.216ZM390.951 505.088L390.879 504.92C390.687 505.04 390.423 505.136 390.207 505.136C389.727 505.136 389.319 504.704 389.319 503.888C389.319 501.704 389.463 498.344 389.463 496.232C389.463 494.24 388.095 493.304 385.527 493.304C383.175 493.304 380.511 494.528 380.511 496.64C380.511 497.624 381.135 498.248 381.927 498.248C383.967 498.248 384.327 494.072 385.431 494.072C385.719 494.072 385.887 494.408 385.887 494.888C385.887 495.848 385.863 497.48 385.815 499.208C381.927 499.808 380.055 501.512 380.055 503.552C380.055 505.352 381.207 506.336 382.455 506.336C383.463 506.336 384.471 505.856 385.719 504.512H385.767C385.911 505.88 386.943 506.36 388.047 506.36C389.079 506.36 390.375 505.904 390.951 505.088ZM383.751 502.76C383.751 501.368 384.111 499.928 385.815 499.664C385.767 501.272 385.743 502.904 385.743 504.104C385.383 504.368 385.023 504.488 384.711 504.488C384.111 504.488 383.751 503.912 383.751 502.76ZM395.351 486.896H395.255C394.343 487.856 392.207 488.72 390.599 488.744V488.816C391.223 489.2 391.655 490.184 391.655 491.096V503.696C391.655 504.752 391.295 505.52 390.695 505.928V506H396.359V505.928C395.735 505.544 395.351 504.752 395.351 503.696V486.896ZM400.212 488V488.072C401.124 488.48 401.58 489.368 401.58 490.544V503.456C401.58 504.872 400.956 505.544 400.212 505.928V506H409.548C410.484 506 411.18 506.312 411.684 506.912H411.804L413.028 500.624L412.956 500.6C411.132 503.168 409.404 505.328 406.98 505.328C405.972 505.328 405.396 504.752 405.396 503.48V496.64H407.508C408.804 496.64 409.908 497.504 410.964 498.944H411.036V493.568H410.964C409.98 495.248 408.804 495.8 407.484 495.8H405.396V490.52C405.396 489.248 405.972 488.672 406.98 488.672C409.236 488.672 410.772 490.664 412.404 493.064L412.5 493.016L411.612 487.088H411.54C411.084 487.688 410.268 488 409.332 488H400.212ZM419.289 510.728V510.8H424.857V510.728C424.281 510.344 423.873 509.528 423.873 508.52V493.4H423.681L422.481 495.776C421.977 494.384 421.017 493.28 419.121 493.28C415.593 493.28 413.529 496.952 413.529 500.888C413.529 503.936 414.945 506.36 416.961 506.36C418.233 506.36 419.481 505.136 420.297 504.152L420.345 504.176C420.321 504.464 420.297 505.064 420.297 505.616V508.52C420.297 509.528 419.889 510.344 419.289 510.728ZM420.297 503.792C419.937 503.984 419.601 504.104 419.289 504.104C418.065 504.104 417.249 502.616 417.225 499.424C417.201 496.472 418.185 493.904 419.409 493.904C419.937 493.904 420.297 494.552 420.297 495.392V503.792ZM431.992 504.896V506.504H432.064C433.384 505.904 434.944 505.64 436.576 505.616V505.544C435.856 505.16 435.568 504.392 435.568 503.024V493.136H435.52C434.608 494.072 432.592 494.96 430.96 494.984V495.056C431.68 495.44 431.992 496.208 431.992 497.576V503.264C431.392 503.648 430.672 504.032 430.216 504.008C429.736 503.984 429.448 503.48 429.448 502.496V493.136H429.376C428.488 494.072 426.472 494.96 424.84 494.984V495.056C425.56 495.44 425.896 496.208 425.896 497.576V503.84C425.896 505.352 426.568 506.36 427.888 506.36C429.28 506.36 431.104 504.704 431.992 503.648L432.04 503.672C432.016 503.936 431.992 504.44 431.992 504.896ZM439.604 492.44C440.78 492.44 441.716 491.36 441.716 490.064C441.716 488.72 440.78 487.664 439.604 487.664C438.428 487.664 437.516 488.72 437.516 490.064C437.516 491.36 438.428 492.44 439.604 492.44ZM436.892 506H442.532V505.928C441.956 505.568 441.62 504.752 441.62 503.696V493.136H441.548C440.612 494.096 438.476 494.96 436.868 494.984V495.056C437.732 495.44 437.924 496.424 437.924 497.336V503.696C437.924 504.752 437.54 505.544 436.892 505.928V506ZM443.875 504.056C443.875 505.52 445.219 506.36 446.539 506.36C448.435 506.36 449.707 505.4 450.715 504.128L450.667 504.032C450.019 504.368 449.467 504.512 449.011 504.512C448.219 504.512 447.763 504.032 447.763 503.192V494.72H450.235V493.64H447.763V489.176H447.667C446.299 491.312 444.499 493.136 442.315 494.6V494.72H443.875V504.056ZM455.09 507.272L459.338 496.496C459.89 495.128 460.49 493.976 461.042 493.712V493.64H457.73V493.712C458.33 494 458.93 495.08 458.378 496.472L456.818 500.528L455.378 496.448C454.826 494.864 455.45 494.024 456.098 493.712V493.64H449.642V493.712C450.338 494.072 450.842 495.056 451.394 496.472L454.898 505.472L454.322 506.936C453.962 507.848 453.458 508.976 452.618 509C451.898 509 451.562 507.344 450.338 507.344C449.594 507.344 448.898 507.992 448.898 509.096C448.898 510.464 450.026 511.184 451.274 511.184C453.122 511.184 454.25 509.36 455.09 507.272ZM470.328 506V505.928C469.584 505.544 468.96 504.872 468.96 503.456V490.544C468.96 489.368 469.392 488.48 470.328 488.072V488H463.728V488.072C464.64 488.48 465.096 489.368 465.096 490.544V503.456C465.096 504.872 464.496 505.544 463.728 505.928V506H470.328ZM470.501 505.928V506H476.141V505.928C475.541 505.304 475.157 504.632 475.157 503.72V496.136C475.709 495.8 476.477 495.608 476.909 495.632C477.437 495.656 477.701 496.16 477.701 497.144V503.72C477.701 504.632 477.365 505.304 476.741 505.928V506H482.141V505.928C481.589 505.496 481.301 504.632 481.301 503.696V495.8C481.301 494.288 480.557 493.28 479.237 493.28C477.869 493.28 476.021 494.744 475.157 495.752L475.109 495.728C475.133 495.464 475.157 494.96 475.157 494.504V493.136H475.085C474.149 494.096 472.109 494.96 470.501 494.984V495.056C471.245 495.44 471.557 496.088 471.557 497.336V503.696C471.557 504.632 471.149 505.424 470.501 505.928ZM486.195 506.36C487.491 506.36 488.691 505.184 489.531 504.2L489.579 504.224C489.555 504.512 489.531 505.088 489.531 505.616V506.504H489.603C490.923 505.904 492.483 505.4 494.091 505.376V505.304C493.419 504.92 493.107 503.912 493.107 502.784V486.896H493.035C492.099 487.856 490.083 488.72 488.475 488.744V488.816C489.099 489.2 489.531 490.184 489.531 491.096V493.712C489.147 493.568 488.715 493.424 488.187 493.424C484.731 493.424 482.763 497.024 482.763 500.888C482.763 503.936 484.155 506.36 486.195 506.36ZM488.499 504.104C487.299 504.08 486.483 502.592 486.459 499.424C486.435 496.544 487.323 494.048 488.427 494.048C489.123 494.048 489.531 494.624 489.531 495.392V503.792C489.171 504.008 488.811 504.104 488.499 504.104ZM503.936 502.232L503.792 502.16C503.264 503.168 502.208 503.696 501.104 503.696C499.304 503.696 498.104 502.184 498.032 498.872H503.984V498.344C503.984 495.32 502.112 493.28 499.736 493.28C496.76 493.28 494.576 496.4 494.576 500.192C494.576 504.272 497.024 506.36 499.424 506.36C501.44 506.36 503.36 504.944 503.936 502.232ZM499.232 494.048C499.928 494.048 500.24 495.416 500.264 498.08H498.032C498.08 495.296 498.56 494.048 499.232 494.048ZM506.369 505.928C505.793 505.664 505.601 504.704 506.081 503.864L507.641 501.056L509.009 503.84C509.561 504.968 509.273 505.664 508.721 505.928V506H514.529V505.928C514.025 505.688 513.665 505.232 512.945 503.84L510.545 498.944L512.249 495.656C512.609 494.912 513.281 494 513.977 493.712V493.64H510.905V493.712C511.625 494 511.817 494.624 511.313 495.632L510.089 498.032L508.913 495.656C508.409 494.672 508.577 494 509.297 493.712V493.64H503.441V493.712C503.993 493.976 504.497 494.672 504.977 495.656L507.185 500.168L505.169 503.864C504.761 504.608 503.921 505.664 503.321 505.928V506H506.369V505.928ZM519.701 503.864C520.181 505.256 521.141 506.36 523.037 506.36C526.565 506.36 528.629 502.688 528.629 498.752C528.629 495.704 527.213 493.28 525.197 493.28C523.925 493.28 522.677 494.48 521.861 495.44L521.813 495.416C521.837 495.128 521.861 494.552 521.861 494.024V486.896H521.789C520.829 487.856 518.765 488.72 517.181 488.744V488.816C517.781 489.2 518.261 490.184 518.261 491.096V506.24H518.405L519.701 503.864ZM524.933 500.216C524.957 503.168 523.997 505.736 522.749 505.736C522.197 505.736 521.861 505.088 521.861 504.248V495.848C522.269 495.632 522.629 495.536 522.965 495.536C524.141 495.608 524.909 497.096 524.933 500.216ZM533.489 507.272L537.737 496.496C538.289 495.128 538.889 493.976 539.441 493.712V493.64H536.129V493.712C536.729 494 537.329 495.08 536.777 496.472L535.217 500.528L533.777 496.448C533.225 494.864 533.849 494.024 534.497 493.712V493.64H528.041V493.712C528.737 494.072 529.241 495.056 529.793 496.472L533.297 505.472L532.721 506.936C532.361 507.848 531.857 508.976 531.017 509C530.297 509 529.961 507.344 528.737 507.344C527.993 507.344 527.297 507.992 527.297 509.096C527.297 510.464 528.425 511.184 529.673 511.184C531.521 511.184 532.649 509.36 533.489 507.272ZM230.674 543.088L230.602 542.92C230.41 543.04 230.146 543.136 229.93 543.136C229.45 543.136 229.042 542.704 229.042 541.888C229.042 539.704 229.186 536.344 229.186 534.232C229.186 532.24 227.818 531.304 225.25 531.304C222.898 531.304 220.234 532.528 220.234 534.64C220.234 535.624 220.858 536.248 221.65 536.248C223.69 536.248 224.05 532.072 225.154 532.072C225.442 532.072 225.61 532.408 225.61 532.888C225.61 533.848 225.586 535.48 225.538 537.208C221.65 537.808 219.778 539.512 219.778 541.552C219.778 543.352 220.93 544.336 222.178 544.336C223.186 544.336 224.194 543.856 225.442 542.512H225.49C225.634 543.88 226.666 544.36 227.77 544.36C228.802 544.36 230.098 543.904 230.674 543.088ZM223.474 540.76C223.474 539.368 223.834 537.928 225.538 537.664C225.49 539.272 225.466 540.904 225.466 542.104C225.106 542.368 224.746 542.488 224.434 542.488C223.834 542.488 223.474 541.912 223.474 540.76ZM230.465 543.928V544H236.105V543.928C235.505 543.304 235.121 542.632 235.121 541.72V534.136C235.673 533.8 236.441 533.608 236.873 533.632C237.401 533.656 237.665 534.16 237.665 535.144V541.72C237.665 542.632 237.329 543.304 236.705 543.928V544H242.105V543.928C241.553 543.496 241.265 542.632 241.265 541.696V533.8C241.265 532.288 240.521 531.28 239.201 531.28C237.833 531.28 235.985 532.744 235.121 533.752L235.073 533.728C235.097 533.464 235.121 532.96 235.121 532.504V531.136H235.049C234.113 532.096 232.073 532.96 230.465 532.984V533.056C231.209 533.44 231.521 534.088 231.521 535.336V541.696C231.521 542.632 231.113 543.424 230.465 543.928ZM242.512 543.928V544H248.152V543.928C247.552 543.304 247.168 542.632 247.168 541.72V534.136C247.72 533.8 248.488 533.608 248.92 533.632C249.448 533.656 249.712 534.16 249.712 535.144V541.72C249.712 542.632 249.376 543.304 248.752 543.928V544H254.152V543.928C253.6 543.496 253.312 542.632 253.312 541.696V533.8C253.312 532.288 252.568 531.28 251.248 531.28C249.88 531.28 248.032 532.744 247.168 533.752L247.12 533.728C247.144 533.464 247.168 532.96 247.168 532.504V531.136H247.096C246.16 532.096 244.12 532.96 242.512 532.984V533.056C243.256 533.44 243.568 534.088 243.568 535.336V541.696C243.568 542.632 243.16 543.424 242.512 543.928ZM261.519 542.896V544.504H261.591C262.911 543.904 264.471 543.64 266.103 543.616V543.544C265.383 543.16 265.095 542.392 265.095 541.024V531.136H265.047C264.135 532.072 262.119 532.96 260.487 532.984V533.056C261.207 533.44 261.519 534.208 261.519 535.576V541.264C260.919 541.648 260.199 542.032 259.743 542.008C259.263 541.984 258.975 541.48 258.975 540.496V531.136H258.903C258.015 532.072 255.999 532.96 254.367 532.984V533.056C255.087 533.44 255.423 534.208 255.423 535.576V541.84C255.423 543.352 256.095 544.36 257.415 544.36C258.807 544.36 260.631 542.704 261.519 541.648L261.567 541.672C261.543 541.936 261.519 542.44 261.519 542.896ZM277.291 543.088L277.219 542.92C277.027 543.04 276.763 543.136 276.547 543.136C276.067 543.136 275.659 542.704 275.659 541.888C275.659 539.704 275.803 536.344 275.803 534.232C275.803 532.24 274.435 531.304 271.867 531.304C269.515 531.304 266.851 532.528 266.851 534.64C266.851 535.624 267.475 536.248 268.267 536.248C270.307 536.248 270.667 532.072 271.771 532.072C272.059 532.072 272.227 532.408 272.227 532.888C272.227 533.848 272.203 535.48 272.155 537.208C268.267 537.808 266.395 539.512 266.395 541.552C266.395 543.352 267.547 544.336 268.795 544.336C269.803 544.336 270.811 543.856 272.059 542.512H272.107C272.251 543.88 273.283 544.36 274.387 544.36C275.419 544.36 276.715 543.904 277.291 543.088ZM270.091 540.76C270.091 539.368 270.451 537.928 272.155 537.664C272.107 539.272 272.083 540.904 272.083 542.104C271.723 542.368 271.363 542.488 271.051 542.488C270.451 542.488 270.091 541.912 270.091 540.76ZM281.691 524.896H281.595C280.683 525.856 278.547 526.72 276.939 526.744V526.816C277.563 527.2 277.995 528.184 277.995 529.096V541.696C277.995 542.752 277.635 543.52 277.035 543.928V544H282.699V543.928C282.075 543.544 281.691 542.752 281.691 541.696V524.896ZM287.597 524.896H287.501C286.589 525.856 284.453 526.72 282.845 526.744V526.816C283.469 527.2 283.901 528.184 283.901 529.096V541.696C283.901 542.752 283.541 543.52 282.941 543.928V544H288.605V543.928C287.981 543.544 287.597 542.752 287.597 541.696V524.896ZM293.383 545.272L297.631 534.496C298.183 533.128 298.783 531.976 299.335 531.712V531.64H296.023V531.712C296.623 532 297.223 533.08 296.671 534.472L295.111 538.528L293.671 534.448C293.119 532.864 293.743 532.024 294.391 531.712V531.64H287.935V531.712C288.631 532.072 289.135 533.056 289.687 534.472L293.191 543.472L292.615 544.936C292.255 545.848 291.751 546.976 290.911 547C290.191 547 289.855 545.344 288.631 545.344C287.887 545.344 287.191 545.992 287.191 547.096C287.191 548.464 288.319 549.184 289.567 549.184C291.415 549.184 292.543 547.36 293.383 545.272ZM302.165 537.784C302.165 541.312 304.589 544.36 307.565 544.36C310.541 544.36 312.965 541.336 312.965 537.784C312.965 534.256 310.613 531.28 307.565 531.28C304.541 531.28 302.165 534.28 302.165 537.784ZM306.029 537.784C306.029 534.4 306.533 532 307.565 532C308.621 532 309.125 534.4 309.125 537.784C309.125 541.192 308.573 543.64 307.565 543.64C306.557 543.64 306.029 541.192 306.029 537.784ZM321.742 534.4C322.174 533.296 322.822 532.024 323.446 531.712V531.64H320.062V531.712C320.806 532.096 321.238 533.224 320.782 534.448L319.222 538.672L317.758 534.448C317.35 533.248 317.566 532.288 318.478 531.712V531.64H312.046V531.712C312.718 532.024 313.15 532.888 313.75 534.424L317.614 544.24H317.95L321.742 534.4ZM331.799 540.232L331.655 540.16C331.127 541.168 330.071 541.696 328.967 541.696C327.167 541.696 325.967 540.184 325.895 536.872H331.847V536.344C331.847 533.32 329.975 531.28 327.599 531.28C324.623 531.28 322.439 534.4 322.439 538.192C322.439 542.272 324.887 544.36 327.287 544.36C329.303 544.36 331.223 542.944 331.799 540.232ZM327.095 532.048C327.791 532.048 328.103 533.416 328.127 536.08H325.895C325.943 533.296 326.423 532.048 327.095 532.048ZM336.933 532.504V531.136H336.861C335.925 532.096 333.909 532.96 332.301 532.984V533.056C333.045 533.44 333.357 534.088 333.357 535.336V541.696C333.357 542.632 332.949 543.424 332.301 543.928V544H337.965V543.928C337.341 543.424 336.933 542.632 336.933 541.696V534.616C337.173 534.352 337.341 534.112 337.653 534.112C338.301 534.112 338.805 535.24 339.741 535.24C340.461 535.24 341.205 534.52 341.205 533.344C341.205 532.168 340.461 531.28 339.621 531.28C338.541 531.28 337.293 532.792 336.933 534.16L336.885 534.136C336.909 533.8 336.933 533.104 336.933 532.504ZM345.261 542.056C345.261 543.52 346.605 544.36 347.925 544.36C349.821 544.36 351.093 543.4 352.101 542.128L352.053 542.032C351.405 542.368 350.853 542.512 350.397 542.512C349.605 542.512 349.149 542.032 349.149 541.192V532.72H351.621V531.64H349.149V527.176H349.053C347.685 529.312 345.885 531.136 343.701 532.6V532.72H345.261V542.056ZM351.707 543.928V544H357.227V543.928C356.651 543.328 356.267 542.632 356.267 541.96V534.376C356.867 533.992 357.587 533.608 358.043 533.632C358.547 533.656 358.787 534.16 358.787 535.144V541.96C358.787 542.632 358.451 543.328 357.827 543.928V544H363.227V543.928C362.699 543.496 362.387 542.632 362.387 541.936V533.8C362.387 532.288 361.691 531.28 360.371 531.28C359.003 531.28 357.131 532.888 356.267 533.92L356.219 533.896C356.243 533.656 356.267 533.176 356.267 532.744V524.896H356.171C355.235 525.856 353.219 526.72 351.611 526.744V526.816C352.235 527.2 352.667 528.184 352.667 529.096V541.936C352.667 542.632 352.354 543.424 351.707 543.928ZM373.213 540.232L373.069 540.16C372.541 541.168 371.485 541.696 370.381 541.696C368.581 541.696 367.381 540.184 367.309 536.872H373.261V536.344C373.261 533.32 371.389 531.28 369.013 531.28C366.037 531.28 363.853 534.4 363.853 538.192C363.853 542.272 366.301 544.36 368.701 544.36C370.717 544.36 372.637 542.944 373.213 540.232ZM368.509 532.048C369.205 532.048 369.517 533.416 369.541 536.08H367.309C367.357 533.296 367.837 532.048 368.509 532.048ZM381.886 524.896H381.79C380.878 525.856 378.742 526.72 377.134 526.744V526.816C377.758 527.2 378.19 528.184 378.19 529.096V541.696C378.19 542.752 377.83 543.52 377.23 543.928V544H382.894V543.928C382.27 543.544 381.886 542.752 381.886 541.696V524.896ZM394.08 543.088L394.008 542.92C393.816 543.04 393.552 543.136 393.336 543.136C392.856 543.136 392.448 542.704 392.448 541.888C392.448 539.704 392.592 536.344 392.592 534.232C392.592 532.24 391.224 531.304 388.656 531.304C386.304 531.304 383.64 532.528 383.64 534.64C383.64 535.624 384.264 536.248 385.056 536.248C387.096 536.248 387.456 532.072 388.56 532.072C388.848 532.072 389.016 532.408 389.016 532.888C389.016 533.848 388.992 535.48 388.944 537.208C385.056 537.808 383.184 539.512 383.184 541.552C383.184 543.352 384.336 544.336 385.584 544.336C386.592 544.336 387.6 543.856 388.848 542.512H388.896C389.04 543.88 390.072 544.36 391.176 544.36C392.208 544.36 393.504 543.904 394.08 543.088ZM386.88 540.76C386.88 539.368 387.24 537.928 388.944 537.664C388.896 539.272 388.872 540.904 388.872 542.104C388.512 542.368 388.152 542.488 387.84 542.488C387.24 542.488 386.88 541.912 386.88 540.76ZM402.68 540.088C402.68 537.976 401.336 536.944 399.92 536.2C398.312 535.36 396.584 534.88 396.584 533.56C396.584 532.792 397.184 532.12 398.072 532.12C399.248 532.12 400.352 533.344 400.904 535.096H400.976L402.032 531.616C401 531.376 399.968 531.28 398.984 531.28C396.248 531.28 394.328 533.08 394.328 535.456C394.328 537.76 395.888 538.768 397.424 539.536C398.912 540.28 400.376 540.832 400.376 542.08C400.376 542.872 399.776 543.496 398.744 543.496C397.376 543.496 396.08 542.296 395.096 539.704H395.024L393.56 543.688C395.216 544.192 396.656 544.336 397.856 544.336C400.688 544.336 402.68 542.632 402.68 540.088ZM404.019 542.056C404.019 543.52 405.363 544.36 406.683 544.36C408.579 544.36 409.851 543.4 410.859 542.128L410.811 542.032C410.163 542.368 409.611 542.512 409.155 542.512C408.363 542.512 407.907 542.032 407.907 541.192V532.72H410.379V531.64H407.907V527.176H407.811C406.443 529.312 404.643 531.136 402.459 532.6V532.72H404.019V542.056ZM485.666 544.24C486.938 544.24 487.946 543.04 487.946 541.672C487.946 540.208 486.938 539.08 485.666 539.08C484.394 539.08 483.458 540.208 483.458 541.672C483.458 543.04 484.394 544.24 485.666 544.24Z" fill="#E6C9C9"/>
<path d="M542.102 505.928V506H548.558V505.928C547.862 505.568 547.31 504.872 547.31 503.456V487.616H547.214C546.278 488.576 543.71 489.44 542.102 489.464V489.536C542.846 489.92 543.47 490.904 543.47 491.816V503.456C543.47 504.872 542.87 505.544 542.102 505.928ZM551.49 506.24C552.762 506.24 553.77 505.04 553.77 503.672C553.77 502.208 552.762 501.08 551.49 501.08C550.218 501.08 549.282 502.208 549.282 503.672C549.282 505.04 550.218 506.24 551.49 506.24ZM565.74 500.744C565.74 498.128 563.94 496.616 562.044 495.32C563.292 494.72 564.924 493.544 564.924 491.648C564.924 489.248 562.476 487.64 560.268 487.64C557.388 487.64 555.204 489.776 555.204 492.512C555.204 494.696 556.404 496.136 557.844 497.336C556.308 498.008 554.412 499.208 554.412 501.824C554.412 504.584 556.884 506.36 559.812 506.36C563.004 506.36 565.74 503.936 565.74 500.744ZM557.892 490.544C557.892 489.296 558.636 488.432 559.716 488.432C561.228 488.432 561.948 490.136 561.948 492.032C561.948 493.016 561.804 493.976 561.42 494.864C559.596 493.64 557.892 492.488 557.892 490.544ZM557.388 501.128C557.388 499.904 557.724 498.632 558.42 497.792C560.58 499.424 563.052 500.672 563.052 502.88C563.052 504.248 561.972 505.568 560.316 505.568C558.3 505.568 557.388 503.432 557.388 501.128ZM577.763 500.744C577.763 498.128 575.963 496.616 574.067 495.32C575.315 494.72 576.947 493.544 576.947 491.648C576.947 489.248 574.499 487.64 572.291 487.64C569.411 487.64 567.227 489.776 567.227 492.512C567.227 494.696 568.427 496.136 569.867 497.336C568.331 498.008 566.435 499.208 566.435 501.824C566.435 504.584 568.907 506.36 571.835 506.36C575.027 506.36 577.763 503.936 577.763 500.744ZM569.915 490.544C569.915 489.296 570.659 488.432 571.739 488.432C573.251 488.432 573.971 490.136 573.971 492.032C573.971 493.016 573.827 493.976 573.443 494.864C571.619 493.64 569.915 492.488 569.915 490.544ZM569.411 501.128C569.411 499.904 569.747 498.632 570.443 497.792C572.603 499.424 575.075 500.672 575.075 502.88C575.075 504.248 573.995 505.568 572.339 505.568C570.323 505.568 569.411 503.432 569.411 501.128ZM581.504 495.8C583.28 495.8 584.696 493.928 584.696 491.72C584.696 489.512 583.304 487.64 581.504 487.64C579.68 487.64 578.288 489.536 578.288 491.72C578.288 493.88 579.752 495.8 581.504 495.8ZM580.28 506H581.264L589.184 488H588.2L580.28 506ZM581.504 488.288C582.152 488.288 582.464 489.584 582.464 491.72C582.464 493.904 582.152 495.176 581.504 495.176C580.856 495.176 580.52 493.904 580.52 491.72C580.52 489.584 580.832 488.288 581.504 488.288ZM587.96 498.2C586.184 498.2 584.768 500.072 584.768 502.28C584.768 504.488 586.16 506.36 587.96 506.36C589.784 506.36 591.176 504.464 591.176 502.28C591.176 500.12 589.712 498.2 587.96 498.2ZM587.96 505.712C587.312 505.712 587 504.416 587 502.28C587 500.096 587.312 498.824 587.96 498.824C588.608 498.824 588.944 500.096 588.944 502.28C588.944 504.416 588.632 505.712 587.96 505.712ZM414.075 543.928V544H420.531V543.928C419.835 543.568 419.283 542.872 419.283 541.456V525.616H419.187C418.251 526.576 415.683 527.44 414.075 527.464V527.536C414.819 527.92 415.443 528.904 415.443 529.816V541.456C415.443 542.872 414.843 543.544 414.075 543.928ZM427.879 540.112C427.879 542.368 426.919 543.616 425.743 543.616C424.903 543.616 424.687 543.064 424.567 541.792C424.447 539.968 423.679 538.648 422.407 538.648C421.279 538.648 420.631 539.728 420.631 540.808C420.631 542.488 422.095 544.36 425.479 544.36C428.575 544.36 431.383 541.552 431.383 538.192C431.383 534.616 428.119 531.28 423.391 532.048L423.559 529.288H430.519L430.735 526H422.863L422.263 535.624L422.359 535.696C425.479 535.048 427.879 536.392 427.879 540.112ZM439.703 545.272L443.951 534.496C444.503 533.128 445.103 531.976 445.655 531.712V531.64H442.343V531.712C442.943 532 443.543 533.08 442.991 534.472L441.431 538.528L439.991 534.448C439.439 532.864 440.063 532.024 440.711 531.712V531.64H434.255V531.712C434.951 532.072 435.455 533.056 436.007 534.472L439.511 543.472L438.935 544.936C438.575 545.848 438.071 546.976 437.231 547C436.511 547 436.175 545.344 434.951 545.344C434.207 545.344 433.511 545.992 433.511 547.096C433.511 548.464 434.639 549.184 435.887 549.184C437.735 549.184 438.863 547.36 439.703 545.272ZM454.073 540.232L453.929 540.16C453.401 541.168 452.345 541.696 451.241 541.696C449.441 541.696 448.241 540.184 448.169 536.872H454.121V536.344C454.121 533.32 452.249 531.28 449.873 531.28C446.897 531.28 444.713 534.4 444.713 538.192C444.713 542.272 447.161 544.36 449.561 544.36C451.577 544.36 453.497 542.944 454.073 540.232ZM449.369 532.048C450.065 532.048 450.377 533.416 450.401 536.08H448.169C448.217 533.296 448.697 532.048 449.369 532.048ZM465.471 543.088L465.399 542.92C465.207 543.04 464.943 543.136 464.727 543.136C464.247 543.136 463.839 542.704 463.839 541.888C463.839 539.704 463.983 536.344 463.983 534.232C463.983 532.24 462.615 531.304 460.047 531.304C457.695 531.304 455.031 532.528 455.031 534.64C455.031 535.624 455.655 536.248 456.447 536.248C458.487 536.248 458.847 532.072 459.951 532.072C460.239 532.072 460.407 532.408 460.407 532.888C460.407 533.848 460.383 535.48 460.335 537.208C456.447 537.808 454.575 539.512 454.575 541.552C454.575 543.352 455.727 544.336 456.975 544.336C457.983 544.336 458.991 543.856 460.239 542.512H460.287C460.431 543.88 461.463 544.36 462.567 544.36C463.599 544.36 464.895 543.904 465.471 543.088ZM458.271 540.76C458.271 539.368 458.631 537.928 460.335 537.664C460.287 539.272 460.263 540.904 460.263 542.104C459.903 542.368 459.543 542.488 459.231 542.488C458.631 542.488 458.271 541.912 458.271 540.76ZM469.894 532.504V531.136H469.822C468.886 532.096 466.87 532.96 465.262 532.984V533.056C466.006 533.44 466.318 534.088 466.318 535.336V541.696C466.318 542.632 465.91 543.424 465.262 543.928V544H470.926V543.928C470.302 543.424 469.894 542.632 469.894 541.696V534.616C470.134 534.352 470.302 534.112 470.614 534.112C471.262 534.112 471.766 535.24 472.702 535.24C473.422 535.24 474.166 534.52 474.166 533.344C474.166 532.168 473.422 531.28 472.582 531.28C471.502 531.28 470.254 532.792 469.894 534.16L469.846 534.136C469.87 533.8 469.894 533.104 469.894 532.504ZM482.742 540.088C482.742 537.976 481.398 536.944 479.982 536.2C478.374 535.36 476.646 534.88 476.646 533.56C476.646 532.792 477.246 532.12 478.134 532.12C479.31 532.12 480.414 533.344 480.966 535.096H481.038L482.094 531.616C481.062 531.376 480.03 531.28 479.046 531.28C476.31 531.28 474.39 533.08 474.39 535.456C474.39 537.76 475.95 538.768 477.486 539.536C478.974 540.28 480.438 540.832 480.438 542.08C480.438 542.872 479.838 543.496 478.806 543.496C477.438 543.496 476.142 542.296 475.158 539.704H475.086L473.622 543.688C475.278 544.192 476.718 544.336 477.918 544.336C480.75 544.336 482.742 542.632 482.742 540.088Z" fill="#E0E5CD"/>
<line x1="415" y1="555" x2="479" y2="555" stroke="#E0E5CD" stroke-width="2"/>
<line x1="539" y1="516" x2="590" y2="516" stroke="#E0E5CD" stroke-width="2"/>
<path d="M50.3325 374.313C40.6334 376.525 12.7362 381.693 0 382V403.5H694V166C671.222 166 666.078 218.484 632.646 218.484C609.5 218.484 598.846 199.588 578.639 199.588C562.474 199.588 541.9 237.896 515.448 237.896C488.996 237.896 491.935 281.678 462.544 281.678C436.092 281.678 392.373 269.235 376.208 269.235C360.042 269.235 349.388 283.061 332.855 283.061C306.771 283.061 307.506 257.252 286.564 257.252C261.949 257.252 235.864 319.931 214.188 319.931C192.512 319.931 189.941 304.261 175.612 304.261C161.284 304.261 127.484 334.678 105.808 352.652C84.1323 370.626 62.4563 371.548 50.3325 374.313Z" fill="#E6C9C9"/>
<path d="M22.72 110.486H24.232V111.928H22.72V114H21.152V111.928H16.378V110.276L21.068 104.2H22.72V110.486ZM17.974 110.486H21.152V106.37L17.974 110.486ZM28.5945 104.046C30.9745 104.046 32.3605 106.006 32.3605 109.086C32.3605 112.152 31.0305 114.126 28.5945 114.126C26.1585 114.126 24.8285 112.152 24.8285 109.086C24.8285 106.006 26.2145 104.046 28.5945 104.046ZM28.5385 105.488C27.1525 105.488 26.4805 106.818 26.4805 109.086C26.4805 109.576 26.5085 110.01 26.5785 110.402L30.2185 106.468C29.8685 105.824 29.3505 105.488 28.6505 105.488H28.5385ZM28.6505 112.67C30.0365 112.67 30.7085 111.34 30.7085 109.086C30.7085 108.666 30.6805 108.288 30.6385 107.938L27.0405 111.816C27.3905 112.376 27.8805 112.67 28.5385 112.67H28.6505ZM36.9891 104.046C39.3691 104.046 40.7551 106.006 40.7551 109.086C40.7551 112.152 39.4251 114.126 36.9891 114.126C34.5531 114.126 33.2231 112.152 33.2231 109.086C33.2231 106.006 34.6091 104.046 36.9891 104.046ZM36.9331 105.488C35.5471 105.488 34.8751 106.818 34.8751 109.086C34.8751 109.576 34.9031 110.01 34.9731 110.402L38.6131 106.468C38.2631 105.824 37.7451 105.488 37.0451 105.488H36.9331ZM37.0451 112.67C38.4311 112.67 39.1031 111.34 39.1031 109.086C39.1031 108.666 39.0751 108.288 39.0331 107.938L35.4351 111.816C35.7851 112.376 36.2751 112.67 36.9331 112.67H37.0451ZM43.2276 108.386C41.9256 108.386 41.3936 107.336 41.3936 106.272C41.3936 105.208 41.9256 104.144 43.2276 104.144C44.5156 104.144 45.0476 105.208 45.0476 106.272C45.0476 107.336 44.5156 108.386 43.2276 108.386ZM41.7996 114L47.6796 104.2H48.9676L43.0876 114H41.7996ZM43.1996 107.42H43.2416C43.6756 107.42 43.9136 107 43.9136 106.272C43.9136 105.53 43.6756 105.11 43.2416 105.11H43.1996C42.7656 105.11 42.5276 105.53 42.5276 106.272C42.5276 107 42.7656 107.42 43.1996 107.42ZM47.5396 114.042C46.2376 114.042 45.7056 112.992 45.7056 111.928C45.7056 110.864 46.2376 109.8 47.5396 109.8C48.8276 109.8 49.3596 110.864 49.3596 111.928C49.3596 112.992 48.8276 114.042 47.5396 114.042ZM47.5116 113.076H47.5536C47.9876 113.076 48.2256 112.656 48.2256 111.928C48.2256 111.186 47.9876 110.766 47.5536 110.766H47.5116C47.0776 110.766 46.8396 111.186 46.8396 111.928C46.8396 112.656 47.0776 113.076 47.5116 113.076Z" fill="#513011"/>
<path d="M20.116 187.14C18.1 187.14 16.742 186.09 16.7 184.34H18.352C18.45 185.152 19.052 185.698 20.046 185.698H20.186C21.32 185.698 21.908 184.998 21.908 184.242C21.908 183.332 21.138 182.828 20.074 182.828H19.43V181.386H20.06C21.152 181.386 21.852 180.784 21.852 179.916C21.852 179.104 21.166 178.502 20.242 178.502H20.102C19.276 178.502 18.618 179.034 18.534 179.888H16.882C16.91 178.236 18.296 177.06 20.172 177.06C22.188 177.06 23.504 178.25 23.504 179.776C23.504 180.896 22.804 181.764 21.81 182.072C22.804 182.352 23.574 183.206 23.574 184.354C23.574 186.174 22.062 187.14 20.116 187.14ZM28.5945 177.046C30.9745 177.046 32.3605 179.006 32.3605 182.086C32.3605 185.152 31.0305 187.126 28.5945 187.126C26.1585 187.126 24.8285 185.152 24.8285 182.086C24.8285 179.006 26.2145 177.046 28.5945 177.046ZM28.5385 178.488C27.1525 178.488 26.4805 179.818 26.4805 182.086C26.4805 182.576 26.5085 183.01 26.5785 183.402L30.2185 179.468C29.8685 178.824 29.3505 178.488 28.6505 178.488H28.5385ZM28.6505 185.67C30.0365 185.67 30.7085 184.34 30.7085 182.086C30.7085 181.666 30.6805 181.288 30.6385 180.938L27.0405 184.816C27.3905 185.376 27.8805 185.67 28.5385 185.67H28.6505ZM36.9891 177.046C39.3691 177.046 40.7551 179.006 40.7551 182.086C40.7551 185.152 39.4251 187.126 36.9891 187.126C34.5531 187.126 33.2231 185.152 33.2231 182.086C33.2231 179.006 34.6091 177.046 36.9891 177.046ZM36.9331 178.488C35.5471 178.488 34.8751 179.818 34.8751 182.086C34.8751 182.576 34.9031 183.01 34.9731 183.402L38.6131 179.468C38.2631 178.824 37.7451 178.488 37.0451 178.488H36.9331ZM37.0451 185.67C38.4311 185.67 39.1031 184.34 39.1031 182.086C39.1031 181.666 39.0751 181.288 39.0331 180.938L35.4351 184.816C35.7851 185.376 36.2751 185.67 36.9331 185.67H37.0451ZM43.2276 181.386C41.9256 181.386 41.3936 180.336 41.3936 179.272C41.3936 178.208 41.9256 177.144 43.2276 177.144C44.5156 177.144 45.0476 178.208 45.0476 179.272C45.0476 180.336 44.5156 181.386 43.2276 181.386ZM41.7996 187L47.6796 177.2H48.9676L43.0876 187H41.7996ZM43.1996 180.42H43.2416C43.6756 180.42 43.9136 180 43.9136 179.272C43.9136 178.53 43.6756 178.11 43.2416 178.11H43.1996C42.7656 178.11 42.5276 178.53 42.5276 179.272C42.5276 180 42.7656 180.42 43.1996 180.42ZM47.5396 187.042C46.2376 187.042 45.7056 185.992 45.7056 184.928C45.7056 183.864 46.2376 182.8 47.5396 182.8C48.8276 182.8 49.3596 183.864 49.3596 184.928C49.3596 185.992 48.8276 187.042 47.5396 187.042ZM47.5116 186.076H47.5536C47.9876 186.076 48.2256 185.656 48.2256 184.928C48.2256 184.186 47.9876 183.766 47.5536 183.766H47.5116C47.0776 183.766 46.8396 184.186 46.8396 184.928C46.8396 185.656 47.0776 186.076 47.5116 186.076Z" fill="#513011"/>
<path d="M18.912 258.544H23.602V260H16.826V258.474L20.298 255.142C21.446 254.036 21.81 253.588 21.81 252.874C21.81 252.104 21.208 251.502 20.354 251.502H20.214C19.276 251.502 18.604 252.146 18.576 253.224H16.924C16.924 251.264 18.338 250.06 20.27 250.06C22.188 250.06 23.462 251.222 23.462 252.818C23.462 254.064 22.874 254.82 21.698 255.926L18.912 258.544ZM28.5945 250.046C30.9745 250.046 32.3605 252.006 32.3605 255.086C32.3605 258.152 31.0305 260.126 28.5945 260.126C26.1585 260.126 24.8285 258.152 24.8285 255.086C24.8285 252.006 26.2145 250.046 28.5945 250.046ZM28.5385 251.488C27.1525 251.488 26.4805 252.818 26.4805 255.086C26.4805 255.576 26.5085 256.01 26.5785 256.402L30.2185 252.468C29.8685 251.824 29.3505 251.488 28.6505 251.488H28.5385ZM28.6505 258.67C30.0365 258.67 30.7085 257.34 30.7085 255.086C30.7085 254.666 30.6805 254.288 30.6385 253.938L27.0405 257.816C27.3905 258.376 27.8805 258.67 28.5385 258.67H28.6505ZM36.9891 250.046C39.3691 250.046 40.7551 252.006 40.7551 255.086C40.7551 258.152 39.4251 260.126 36.9891 260.126C34.5531 260.126 33.2231 258.152 33.2231 255.086C33.2231 252.006 34.6091 250.046 36.9891 250.046ZM36.9331 251.488C35.5471 251.488 34.8751 252.818 34.8751 255.086C34.8751 255.576 34.9031 256.01 34.9731 256.402L38.6131 252.468C38.2631 251.824 37.7451 251.488 37.0451 251.488H36.9331ZM37.0451 258.67C38.4311 258.67 39.1031 257.34 39.1031 255.086C39.1031 254.666 39.0751 254.288 39.0331 253.938L35.4351 257.816C35.7851 258.376 36.2751 258.67 36.9331 258.67H37.0451ZM43.2276 254.386C41.9256 254.386 41.3936 253.336 41.3936 252.272C41.3936 251.208 41.9256 250.144 43.2276 250.144C44.5156 250.144 45.0476 251.208 45.0476 252.272C45.0476 253.336 44.5156 254.386 43.2276 254.386ZM41.7996 260L47.6796 250.2H48.9676L43.0876 260H41.7996ZM43.1996 253.42H43.2416C43.6756 253.42 43.9136 253 43.9136 252.272C43.9136 251.53 43.6756 251.11 43.2416 251.11H43.1996C42.7656 251.11 42.5276 251.53 42.5276 252.272C42.5276 253 42.7656 253.42 43.1996 253.42ZM47.5396 260.042C46.2376 260.042 45.7056 258.992 45.7056 257.928C45.7056 256.864 46.2376 255.8 47.5396 255.8C48.8276 255.8 49.3596 256.864 49.3596 257.928C49.3596 258.992 48.8276 260.042 47.5396 260.042ZM47.5116 259.076H47.5536C47.9876 259.076 48.2256 258.656 48.2256 257.928C48.2256 257.186 47.9876 256.766 47.5536 256.766H47.5116C47.0776 256.766 46.8396 257.186 46.8396 257.928C46.8396 258.656 47.0776 259.076 47.5116 259.076Z" fill="#513011"/>
<path d="M21.39 331.544H24.092V333H16.98V331.544H19.822V325.538L17.61 327.666V325.622L20.102 323.2H21.39V331.544ZM28.5945 323.046C30.9745 323.046 32.3605 325.006 32.3605 328.086C32.3605 331.152 31.0305 333.126 28.5945 333.126C26.1585 333.126 24.8285 331.152 24.8285 328.086C24.8285 325.006 26.2145 323.046 28.5945 323.046ZM28.5385 324.488C27.1525 324.488 26.4805 325.818 26.4805 328.086C26.4805 328.576 26.5085 329.01 26.5785 329.402L30.2185 325.468C29.8685 324.824 29.3505 324.488 28.6505 324.488H28.5385ZM28.6505 331.67C30.0365 331.67 30.7085 330.34 30.7085 328.086C30.7085 327.666 30.6805 327.288 30.6385 326.938L27.0405 330.816C27.3905 331.376 27.8805 331.67 28.5385 331.67H28.6505ZM36.9891 323.046C39.3691 323.046 40.7551 325.006 40.7551 328.086C40.7551 331.152 39.4251 333.126 36.9891 333.126C34.5531 333.126 33.2231 331.152 33.2231 328.086C33.2231 325.006 34.6091 323.046 36.9891 323.046ZM36.9331 324.488C35.5471 324.488 34.8751 325.818 34.8751 328.086C34.8751 328.576 34.9031 329.01 34.9731 329.402L38.6131 325.468C38.2631 324.824 37.7451 324.488 37.0451 324.488H36.9331ZM37.0451 331.67C38.4311 331.67 39.1031 330.34 39.1031 328.086C39.1031 327.666 39.0751 327.288 39.0331 326.938L35.4351 330.816C35.7851 331.376 36.2751 331.67 36.9331 331.67H37.0451ZM43.2276 327.386C41.9256 327.386 41.3936 326.336 41.3936 325.272C41.3936 324.208 41.9256 323.144 43.2276 323.144C44.5156 323.144 45.0476 324.208 45.0476 325.272C45.0476 326.336 44.5156 327.386 43.2276 327.386ZM41.7996 333L47.6796 323.2H48.9676L43.0876 333H41.7996ZM43.1996 326.42H43.2416C43.6756 326.42 43.9136 326 43.9136 325.272C43.9136 324.53 43.6756 324.11 43.2416 324.11H43.1996C42.7656 324.11 42.5276 324.53 42.5276 325.272C42.5276 326 42.7656 326.42 43.1996 326.42ZM47.5396 333.042C46.2376 333.042 45.7056 331.992 45.7056 330.928C45.7056 329.864 46.2376 328.8 47.5396 328.8C48.8276 328.8 49.3596 329.864 49.3596 330.928C49.3596 331.992 48.8276 333.042 47.5396 333.042ZM47.5116 332.076H47.5536C47.9876 332.076 48.2256 331.656 48.2256 330.928C48.2256 330.186 47.9876 329.766 47.5536 329.766H47.5116C47.0776 329.766 46.8396 330.186 46.8396 330.928C46.8396 331.656 47.0776 332.076 47.5116 332.076Z" fill="#513011"/>
<line x1="694" y1="381.5" x2="4.37113e-08" y2="381.5" stroke="#E6C9C9" stroke-dasharray="2 2"/>
<line x1="694" y1="165.5" x2="528" y2="165.5" stroke="#513011" stroke-dasharray="2 2"/>
<circle cx="526.5" cy="165.5" r="4.5" fill="white" stroke="#513011" stroke-width="2"/>
<g filter="url(#filter0_d_1110_9766)">
<path fill-rule="evenodd" clip-rule="evenodd" d="M471.36 94C468.4 94 466 96.3999 466 99.3604V142.244C466 145.204 468.4 147.604 471.36 147.604H518.474L518.264 147.814L523.95 153.5C524.996 154.547 526.693 154.547 527.74 153.5L533.426 147.814L533.215 147.604H579.909C582.869 147.604 585.269 145.204 585.269 142.244V99.3604C585.269 96.3999 582.869 94 579.909 94H471.36Z" fill="white"/>
</g>
<path d="M466 99.3604C466 96.3999 468.4 94 471.36 94H495.482V147.604H471.36C468.4 147.604 466 145.204 466 142.244V99.3604Z" fill="#E6C9C9"/>
<path d="M513.584 119.552C513.584 117.344 512 114.944 509.312 114.272C511.064 113.072 512.36 111.656 512.36 110C512.36 107.912 510.584 106.64 508.616 106.64C506.504 106.64 504.176 108.128 503.624 111.416L503.744 111.44C504.368 110.192 505.496 109.688 506.528 109.688C507.824 109.688 509.024 110.48 509.024 111.968C509.024 113.456 507.872 114.344 505.856 115.808V115.928C508.88 116.768 510.08 119.144 510.08 121.304C510.08 123.368 509.12 124.616 507.92 124.616C507.104 124.616 506.888 124.064 506.768 122.792C506.648 120.968 505.88 119.648 504.584 119.648C503.48 119.648 502.832 120.728 502.832 121.808C502.832 123.488 504.296 125.36 507.92 125.36C510.776 125.36 513.584 122.552 513.584 119.552ZM523.225 119.624L523.105 119.576C522.025 121.16 520.225 121.856 518.137 121.856H516.025C518.449 119.504 522.937 115.52 522.937 111.368C522.937 108.464 520.921 106.64 518.473 106.64C516.001 106.64 513.673 108.584 513.289 112.784L513.409 112.808C514.057 110.888 515.401 109.976 516.985 109.976C518.617 109.976 519.601 111.224 519.601 113C519.601 116.024 516.865 119.384 514.897 122.312L513.169 124.904V125H519.745C520.681 125 521.425 125.312 521.881 125.912H521.977L523.225 119.624ZM534.548 124.928C533.804 124.544 533.18 123.872 533.18 122.456V120.68H534.764V118.712H533.18V106.832H532.532L523.46 120.464V120.68H529.412V122.456C529.412 123.872 528.812 124.544 528.044 124.928V125H534.548V124.928ZM525.836 118.712L529.412 113.288V118.712H525.836ZM537.752 125.24C539.024 125.24 540.032 124.04 540.032 122.672C540.032 121.208 539.024 120.08 537.752 120.08C536.48 120.08 535.544 121.208 535.544 122.672C535.544 124.04 536.48 125.24 537.752 125.24ZM548.121 121.112C548.121 123.368 547.161 124.616 545.985 124.616C545.145 124.616 544.929 124.064 544.809 122.792C544.689 120.968 543.921 119.648 542.649 119.648C541.521 119.648 540.873 120.728 540.873 121.808C540.873 123.488 542.337 125.36 545.721 125.36C548.817 125.36 551.625 122.552 551.625 119.192C551.625 115.616 548.361 112.28 543.633 113.048L543.801 110.288H550.761L550.977 107H543.105L542.505 116.624L542.601 116.696C545.721 116.048 548.121 117.392 548.121 121.112ZM555.391 114.8C557.167 114.8 558.583 112.928 558.583 110.72C558.583 108.512 557.191 106.64 555.391 106.64C553.567 106.64 552.175 108.536 552.175 110.72C552.175 112.88 553.639 114.8 555.391 114.8ZM554.167 125H555.151L563.071 107H562.087L554.167 125ZM555.391 107.288C556.039 107.288 556.351 108.584 556.351 110.72C556.351 112.904 556.039 114.176 555.391 114.176C554.743 114.176 554.407 112.904 554.407 110.72C554.407 108.584 554.719 107.288 555.391 107.288ZM561.847 117.2C560.071 117.2 558.655 119.072 558.655 121.28C558.655 123.488 560.047 125.36 561.847 125.36C563.671 125.36 565.063 123.464 565.063 121.28C565.063 119.12 563.599 117.2 561.847 117.2ZM561.847 124.712C561.199 124.712 560.887 123.416 560.887 121.28C560.887 119.096 561.199 117.824 561.847 117.824C562.495 117.824 562.831 119.096 562.831 121.28C562.831 123.416 562.519 124.712 561.847 124.712Z" fill="#242E35"/>
<path d="M503.594 139V132.7H505.403C506.942 132.7 508.076 133.807 508.076 135.85C508.076 137.902 506.969 139 505.439 139H503.594ZM504.674 138.037H505.331C506.294 138.037 506.996 137.443 506.996 135.85C506.996 134.257 506.285 133.663 505.331 133.663H504.674V138.037ZM509.035 139V132.7H513.139V133.663H510.115V135.283H512.68V136.246H510.115V138.037H513.229V139H509.035ZM516.646 139.09C515.017 139.09 514.171 137.803 514.171 135.85C514.171 133.915 515.008 132.61 516.646 132.61C518.068 132.61 518.716 133.555 518.797 134.743H517.717C517.654 134.05 517.294 133.573 516.664 133.573H516.628C515.764 133.573 515.251 134.446 515.251 135.85C515.251 137.263 515.755 138.127 516.628 138.127H516.664C517.303 138.127 517.636 137.668 517.717 136.957H518.797C518.716 138.181 518.086 139.09 516.646 139.09ZM526.458 138.064H529.473V139H525.117V138.019L527.349 135.877C528.087 135.166 528.321 134.878 528.321 134.419C528.321 133.924 527.934 133.537 527.385 133.537H527.295C526.692 133.537 526.26 133.951 526.242 134.644H525.18C525.18 133.384 526.089 132.61 527.331 132.61C528.564 132.61 529.383 133.357 529.383 134.383C529.383 135.184 529.005 135.67 528.249 136.381L526.458 138.064ZM532.682 132.601C534.212 132.601 535.103 133.861 535.103 135.841C535.103 137.812 534.248 139.081 532.682 139.081C531.116 139.081 530.261 137.812 530.261 135.841C530.261 133.861 531.152 132.601 532.682 132.601ZM532.646 133.528C531.755 133.528 531.323 134.383 531.323 135.841C531.323 136.156 531.341 136.435 531.386 136.687L533.726 134.158C533.501 133.744 533.168 133.528 532.718 133.528H532.646ZM532.718 138.145C533.609 138.145 534.041 137.29 534.041 135.841C534.041 135.571 534.023 135.328 533.996 135.103L531.683 137.596C531.908 137.956 532.223 138.145 532.646 138.145H532.718ZM537.251 138.064H540.266V139H535.91V138.019L538.142 135.877C538.88 135.166 539.114 134.878 539.114 134.419C539.114 133.924 538.727 133.537 538.178 133.537H538.088C537.485 133.537 537.053 133.951 537.035 134.644H535.973C535.973 133.384 536.882 132.61 538.124 132.61C539.357 132.61 540.176 133.357 540.176 134.383C540.176 135.184 539.798 135.67 539.042 136.381L537.251 138.064ZM544.24 138.064H545.977V139H541.405V138.064H543.232V134.203L541.81 135.571V134.257L543.412 132.7H544.24V138.064Z" fill="#242E35"/>
<path d="M483 112.628L483 113.718L476 113.108L476 111.738L479.87 111.018L476 110.178L476 108.878L483 108.298L483 109.378L477.88 109.708L481.38 110.468L481.38 111.578L477.9 112.318L483 112.628ZM482.02 119.004L482.02 117.604L476.98 117.604L476.98 119.004L476 119.004L476 115.004L476.98 115.004L476.98 116.404L482.02 116.404L482.02 115.004L483 115.004L483 119.004L482.02 119.004ZM483 124.25L483 125.42L476 125.42L476 124.08L480.98 121.75L476 121.75L476 120.58L483 120.58L483 121.96L478.08 124.25L483 124.25ZM476 126.706L483 126.706L483 131.266L481.93 131.266L481.93 127.906L480.13 127.906L480.13 130.756L479.06 130.756L479.06 127.906L477.07 127.906L477.07 131.366L476 131.366L476 126.706Z" fill="#242E35"/>
<line x1="694" y1="252.5" x2="447" y2="252.5" stroke="#3C400C" stroke-dasharray="2 2"/>
<circle cx="447.5" cy="252.5" r="4.5" fill="white" stroke="#3C400C" stroke-width="2"/>
<g filter="url(#filter1_d_1110_9766)">
<path fill-rule="evenodd" clip-rule="evenodd" d="M392.36 181C389.4 181 387 183.4 387 186.36V229.244C387 232.204 389.4 234.604 392.36 234.604H439.474L439.264 234.814L444.95 240.5C445.996 241.547 447.693 241.547 448.74 240.5L454.426 234.814L454.215 234.604H500.909C503.869 234.604 506.269 232.204 506.269 229.244V186.36C506.269 183.4 503.869 181 500.909 181H392.36Z" fill="white"/>
</g>
<path d="M387 186.36C387 183.4 389.4 181 392.36 181H416.482V234.604H392.36C389.4 234.604 387 232.204 387 229.244V186.36Z" fill="#3C400C"/>
<path d="M424.192 211.928V212H430.648V211.928C429.952 211.568 429.4 210.872 429.4 209.456V193.616H429.304C428.368 194.576 425.8 195.44 424.192 195.464V195.536C424.936 195.92 425.56 196.904 425.56 197.816V209.456C425.56 210.872 424.96 211.544 424.192 211.928ZM442.364 201.392C442.364 196.496 439.868 193.64 436.748 193.64C433.628 193.64 431.156 196.496 431.156 199.88C431.156 203.264 433.412 206.12 436.364 206.12C436.796 206.12 437.18 206.024 437.564 205.832C436.364 208.952 434.396 211.208 432.524 212.408L432.572 212.528C438.932 211.112 442.436 206.672 442.364 201.392ZM436.748 205.352C435.596 205.352 435.068 203.312 435.068 199.88C435.068 196.472 435.644 194.408 436.748 194.408C437.852 194.408 438.452 196.472 438.452 199.88C438.452 203.288 437.9 205.352 436.748 205.352ZM454.437 206.12C454.437 202.736 452.181 199.88 449.229 199.88C448.797 199.88 448.413 199.976 448.029 200.168C449.229 197.048 451.197 194.792 453.069 193.592L453.021 193.472C446.661 194.888 443.157 199.328 443.229 204.608C443.229 209.504 445.725 212.36 448.845 212.36C451.965 212.36 454.437 209.504 454.437 206.12ZM448.845 200.648C449.997 200.648 450.525 202.688 450.525 206.12C450.525 209.528 449.949 211.592 448.845 211.592C447.741 211.592 447.141 209.528 447.141 206.12C447.141 202.712 447.693 200.648 448.845 200.648ZM457.486 212.24C458.758 212.24 459.766 211.04 459.766 209.672C459.766 208.208 458.758 207.08 457.486 207.08C456.214 207.08 455.278 208.208 455.278 209.672C455.278 211.04 456.214 212.24 457.486 212.24ZM468.988 196.424L470.044 194.096V194H463.108C462.172 194 461.428 193.688 460.972 193.088H460.876L459.628 199.376L459.748 199.424C460.828 197.84 462.628 197.144 464.716 197.144H467.764C464.956 200.528 462.028 207.44 461.596 212H465.628C465.556 207.344 466.924 200.96 468.988 196.424ZM473.063 201.8C474.839 201.8 476.255 199.928 476.255 197.72C476.255 195.512 474.863 193.64 473.063 193.64C471.239 193.64 469.847 195.536 469.847 197.72C469.847 199.88 471.311 201.8 473.063 201.8ZM471.839 212H472.823L480.743 194H479.759L471.839 212ZM473.063 194.288C473.711 194.288 474.023 195.584 474.023 197.72C474.023 199.904 473.711 201.176 473.063 201.176C472.415 201.176 472.079 199.904 472.079 197.72C472.079 195.584 472.391 194.288 473.063 194.288ZM479.519 204.2C477.743 204.2 476.327 206.072 476.327 208.28C476.327 210.488 477.719 212.36 479.519 212.36C481.343 212.36 482.735 210.464 482.735 208.28C482.735 206.12 481.271 204.2 479.519 204.2ZM479.519 211.712C478.871 211.712 478.559 210.416 478.559 208.28C478.559 206.096 478.871 204.824 479.519 204.824C480.167 204.824 480.503 206.096 480.503 208.28C480.503 210.416 480.191 211.712 479.519 211.712Z" fill="#242E35"/>
<path d="M424.594 226V219.7H426.403C427.942 219.7 429.076 220.807 429.076 222.85C429.076 224.902 427.969 226 426.439 226H424.594ZM425.674 225.037H426.331C427.294 225.037 427.996 224.443 427.996 222.85C427.996 221.257 427.285 220.663 426.331 220.663H425.674V225.037ZM430.035 226V219.7H434.139V220.663H431.115V222.283H433.68V223.246H431.115V225.037H434.229V226H430.035ZM437.646 226.09C436.017 226.09 435.171 224.803 435.171 222.85C435.171 220.915 436.008 219.61 437.646 219.61C439.068 219.61 439.716 220.555 439.797 221.743H438.717C438.654 221.05 438.294 220.573 437.664 220.573H437.628C436.764 220.573 436.251 221.446 436.251 222.85C436.251 224.263 436.755 225.127 437.628 225.127H437.664C438.303 225.127 438.636 224.668 438.717 223.957H439.797C439.716 225.181 439.086 226.09 437.646 226.09ZM447.458 225.064H450.473V226H446.117V225.019L448.349 222.877C449.087 222.166 449.321 221.878 449.321 221.419C449.321 220.924 448.934 220.537 448.385 220.537H448.295C447.692 220.537 447.26 220.951 447.242 221.644H446.18C446.18 220.384 447.089 219.61 448.331 219.61C449.564 219.61 450.383 220.357 450.383 221.383C450.383 222.184 450.005 222.67 449.249 223.381L447.458 225.064ZM453.682 219.601C455.212 219.601 456.103 220.861 456.103 222.841C456.103 224.812 455.248 226.081 453.682 226.081C452.116 226.081 451.261 224.812 451.261 222.841C451.261 220.861 452.152 219.601 453.682 219.601ZM453.646 220.528C452.755 220.528 452.323 221.383 452.323 222.841C452.323 223.156 452.341 223.435 452.386 223.687L454.726 221.158C454.501 220.744 454.168 220.528 453.718 220.528H453.646ZM453.718 225.145C454.609 225.145 455.041 224.29 455.041 222.841C455.041 222.571 455.023 222.328 454.996 222.103L452.683 224.596C452.908 224.956 453.223 225.145 453.646 225.145H453.718ZM458.251 225.064H461.266V226H456.91V225.019L459.142 222.877C459.88 222.166 460.114 221.878 460.114 221.419C460.114 220.924 459.727 220.537 459.178 220.537H459.088C458.485 220.537 458.053 220.951 458.035 221.644H456.973C456.973 220.384 457.882 219.61 459.124 219.61C460.357 219.61 461.176 220.357 461.176 221.383C461.176 222.184 460.798 222.67 460.042 223.381L458.251 225.064ZM465.24 225.064H466.977V226H462.405V225.064H464.232V221.203L462.81 222.571V221.257L464.412 219.7H465.24V225.064Z" fill="#242E35"/>
<path d="M396.9 200.996C396.9 199.336 398.39 198.376 400.5 198.376C402.63 198.376 404.1 199.296 404.1 201.156C404.1 202.766 403.02 203.496 401.63 203.566L401.63 202.366C402.41 202.306 403.03 201.926 403.03 201.156L403.03 201.126C403.03 200.116 402.05 199.576 400.5 199.576C398.99 199.576 397.97 200.106 397.97 201.176L397.97 201.206C397.97 201.976 398.49 202.556 399.37 202.556L399.54 202.556L399.54 201.166L400.62 201.166L400.62 202.786C400.62 203.306 400.33 203.586 399.81 203.586L397 203.586L397 202.556L397.71 202.556C397.24 202.256 396.9 201.786 396.9 200.996ZM397 204.712L404 204.712L404 209.272L402.93 209.272L402.93 205.912L401.13 205.912L401.13 208.762L400.06 208.762L400.06 205.912L398.07 205.912L398.07 209.372L397 209.372L397 204.712ZM403.02 214.998L403.02 213.598L397.98 213.598L397.98 214.998L397 214.998L397 210.998L397.98 210.998L397.98 212.398L403.02 212.398L403.02 210.998L404 210.998L404 214.998L403.02 214.998Z" fill="white"/>
<circle cx="182.185" cy="41.1343" r="7.18487" fill="#3C400C"/>
<path d="M209.729 41.0259C209.729 40.0871 210.113 39.3782 210.841 39.0524V38.995H205.553V39.0524C206.281 39.3782 206.664 40.0871 206.664 41.0259V45.8158C206.664 46.9079 206.147 47.5785 205.304 47.5785C203.503 47.5785 202.717 45.4326 202.717 40.5852C202.717 36.4467 203.426 33.9751 205.131 33.9751C206.779 33.9751 207.622 35.7953 208.388 37.8645H208.465L209.691 33.726C208.331 33.4195 206.894 33.3237 205.763 33.3429C201.721 33.3429 199.345 36.4659 199.345 40.9301C199.345 46.0074 202.602 48.1916 205.591 48.1916C207.564 48.1916 209.461 47.9617 210.668 47.8084V47.7509C210.055 47.4635 209.729 46.7163 209.729 45.7775V41.0259ZM214.694 32.7489H214.618C213.89 33.5153 212.185 34.205 210.901 34.2242V34.2817C211.399 34.5882 211.744 35.3738 211.744 36.1018V46.1607C211.744 47.0037 211.456 47.6168 210.977 47.9425V48H215.499V47.9425C215.001 47.636 214.694 47.0037 214.694 46.1607V32.7489ZM215.828 43.0376C215.828 45.8541 217.763 48.2874 220.138 48.2874C222.514 48.2874 224.449 45.8733 224.449 43.0376C224.449 40.2212 222.572 37.8454 220.138 37.8454C217.724 37.8454 215.828 40.2403 215.828 43.0376ZM218.912 43.0376C218.912 40.3361 219.315 38.4202 220.138 38.4202C220.982 38.4202 221.384 40.3361 221.384 43.0376C221.384 45.7583 220.943 47.7126 220.138 47.7126C219.334 47.7126 218.912 45.7583 218.912 43.0376ZM226.662 46.2948C227.045 47.4061 227.811 48.2874 229.325 48.2874C232.141 48.2874 233.789 45.356 233.789 42.2138C233.789 39.7805 232.659 37.8454 231.049 37.8454C230.034 37.8454 229.038 38.8034 228.386 39.5697L228.348 39.5506C228.367 39.3207 228.386 38.8608 228.386 38.4393V32.7489H228.329C227.562 33.5153 225.915 34.205 224.65 34.2242V34.2817C225.129 34.5882 225.512 35.3738 225.512 36.1018V48.1916H225.627L226.662 46.2948ZM230.839 43.3825C230.858 45.7392 230.091 47.7892 229.095 47.7892C228.654 47.7892 228.386 47.2719 228.386 46.6013V39.8955C228.712 39.723 228.999 39.6464 229.267 39.6464C230.206 39.7039 230.819 40.8918 230.839 43.3825ZM242.972 47.2719L242.914 47.1378C242.761 47.2336 242.55 47.3103 242.378 47.3103C241.994 47.3103 241.669 46.9654 241.669 46.3139C241.669 44.5704 241.784 41.8881 241.784 40.202C241.784 38.6118 240.692 37.8645 238.641 37.8645C236.764 37.8645 234.637 38.8417 234.637 40.5277C234.637 41.3133 235.135 41.8114 235.768 41.8114C237.396 41.8114 237.684 38.4776 238.565 38.4776C238.795 38.4776 238.929 38.7459 238.929 39.1291C238.929 39.8955 238.91 41.1983 238.871 42.5778C235.768 43.0568 234.273 44.4171 234.273 46.0457C234.273 47.4827 235.193 48.2682 236.189 48.2682C236.994 48.2682 237.798 47.885 238.795 46.8121H238.833C238.948 47.9042 239.772 48.2874 240.653 48.2874C241.477 48.2874 242.512 47.9234 242.972 47.2719ZM237.224 45.4134C237.224 44.3022 237.511 43.1526 238.871 42.9418C238.833 44.2255 238.814 45.5284 238.814 46.4864C238.527 46.6971 238.239 46.7929 237.99 46.7929C237.511 46.7929 237.224 46.3331 237.224 45.4134ZM246.484 32.7489H246.407C245.679 33.5153 243.974 34.205 242.69 34.2242V34.2817C243.188 34.5882 243.533 35.3738 243.533 36.1018V46.1607C243.533 47.0037 243.246 47.6168 242.767 47.9425V48H247.288V47.9425C246.79 47.636 246.484 47.0037 246.484 46.1607V32.7489ZM250.364 33.6303V33.6877C251.092 34.0134 251.456 34.7224 251.456 35.6612V45.9691C251.456 47.0995 250.958 47.636 250.364 47.9425V48H257.817C258.565 48 259.12 48.2491 259.523 48.7281H259.618L260.595 43.7082L260.538 43.6891C259.082 45.7392 257.702 47.4635 255.767 47.4635C254.963 47.4635 254.503 47.0037 254.503 45.9882V40.5277H256.189C257.223 40.5277 258.105 41.2175 258.948 42.3671H259.005V38.0753H258.948C258.162 39.4165 257.223 39.8571 256.17 39.8571H254.503V35.642C254.503 34.6266 254.963 34.1667 255.767 34.1667C257.568 34.1667 258.794 35.757 260.097 37.6729L260.174 37.6346L259.465 32.9022H259.408C259.044 33.3812 258.392 33.6303 257.645 33.6303H250.364ZM265.594 51.7745V51.8319H270.039V51.7745C269.579 51.4679 269.254 50.8165 269.254 50.0118V37.9412H269.1L268.142 39.838C267.74 38.7267 266.974 37.8454 265.46 37.8454C262.644 37.8454 260.996 40.7768 260.996 43.919C260.996 46.3523 262.126 48.2874 263.736 48.2874C264.751 48.2874 265.747 47.3103 266.399 46.5247L266.437 46.5439C266.418 46.7738 266.399 47.2528 266.399 47.6934V50.0118C266.399 50.8165 266.073 51.4679 265.594 51.7745ZM266.399 46.2373C266.112 46.3906 265.843 46.4864 265.594 46.4864C264.617 46.4864 263.966 45.2985 263.946 42.7503C263.927 40.3936 264.713 38.3435 265.69 38.3435C266.112 38.3435 266.399 38.8608 266.399 39.5314V46.2373ZM275.735 47.1187V48.4024H275.793C276.846 47.9234 278.092 47.7126 279.395 47.6934V47.636C278.82 47.3294 278.59 46.7163 278.59 45.6242V37.7304H278.552C277.823 38.4776 276.214 39.1866 274.911 39.2057V39.2632C275.486 39.5697 275.735 40.1829 275.735 41.275V45.8158C275.256 46.1224 274.681 46.4289 274.317 46.4097C273.934 46.3906 273.704 45.9882 273.704 45.2027V37.7304H273.647C272.938 38.4776 271.328 39.1866 270.025 39.2057V39.2632C270.6 39.5697 270.868 40.1829 270.868 41.275V46.2756C270.868 47.4827 271.405 48.2874 272.459 48.2874C273.57 48.2874 275.026 46.9654 275.735 46.1224L275.773 46.1415C275.754 46.3523 275.735 46.7546 275.735 47.1187ZM281.812 37.1748C282.751 37.1748 283.498 36.3126 283.498 35.278C283.498 34.205 282.751 33.362 281.812 33.362C280.873 33.362 280.145 34.205 280.145 35.278C280.145 36.3126 280.873 37.1748 281.812 37.1748ZM279.647 48H284.149V47.9425C283.689 47.6551 283.421 47.0037 283.421 46.1607V37.7304H283.364C282.617 38.4968 280.911 39.1866 279.628 39.2057V39.2632C280.317 39.5697 280.471 40.3553 280.471 41.0834V46.1607C280.471 47.0037 280.164 47.636 279.647 47.9425V48ZM285.221 46.4481C285.221 47.6168 286.294 48.2874 287.348 48.2874C288.862 48.2874 289.877 47.521 290.682 46.5055L290.644 46.4289C290.126 46.6971 289.686 46.8121 289.321 46.8121C288.689 46.8121 288.325 46.4289 288.325 45.7583V38.995H290.299V38.1328H288.325V34.5691H288.249C287.156 36.2743 285.719 37.7304 283.976 38.8992V38.995H285.221V46.4481ZM294.175 49.0155L297.566 40.4128C298.007 39.3207 298.486 38.401 298.926 38.1903V38.1328H296.282V38.1903C296.761 38.4202 297.24 39.2824 296.8 40.3936L295.554 43.6316L294.405 40.3745C293.964 39.1099 294.462 38.4393 294.98 38.1903V38.1328H289.826V38.1903C290.381 38.4776 290.784 39.2632 291.224 40.3936L294.022 47.5785L293.562 48.7472C293.274 49.4753 292.872 50.3758 292.201 50.395C291.627 50.395 291.358 49.0729 290.381 49.0729C289.787 49.0729 289.232 49.5903 289.232 50.4716C289.232 51.5637 290.132 52.1385 291.128 52.1385C292.604 52.1385 293.504 50.6824 294.175 49.0155ZM306.339 48V47.9425C305.745 47.636 305.247 47.0995 305.247 45.9691V35.6612C305.247 34.7224 305.592 34.0134 306.339 33.6877V33.6303H301.07V33.6877C301.798 34.0134 302.163 34.7224 302.163 35.6612V45.9691C302.163 47.0995 301.684 47.636 301.07 47.9425V48H306.339ZM306.477 47.9425V48H310.98V47.9425C310.501 47.4444 310.194 46.9079 310.194 46.1798V40.1254C310.635 39.8571 311.248 39.7039 311.593 39.723C312.014 39.7422 312.225 40.1445 312.225 40.9301V46.1798C312.225 46.9079 311.957 47.4444 311.459 47.9425V48H315.77V47.9425C315.329 47.5976 315.099 46.9079 315.099 46.1607V39.8571C315.099 38.6501 314.505 37.8454 313.451 37.8454C312.359 37.8454 310.884 39.0141 310.194 39.8188L310.156 39.7997C310.175 39.5889 310.194 39.1866 310.194 38.8225V37.7304H310.137C309.39 38.4968 307.761 39.1866 306.477 39.2057V39.2632C307.071 39.5697 307.32 40.0871 307.32 41.0834V46.1607C307.32 46.9079 306.995 47.5402 306.477 47.9425ZM319.007 48.2874C320.041 48.2874 320.999 47.3486 321.67 46.563L321.708 46.5822C321.689 46.8121 321.67 47.2719 321.67 47.6934V48.4024H321.728C322.781 47.9234 324.027 47.521 325.31 47.5018V47.4444C324.774 47.1378 324.525 46.3331 324.525 45.4326V32.7489H324.467C323.72 33.5153 322.111 34.205 320.827 34.2242V34.2817C321.325 34.5882 321.67 35.3738 321.67 36.1018V38.1903C321.363 38.0753 321.019 37.9603 320.597 37.9603C317.838 37.9603 316.267 40.8343 316.267 43.919C316.267 46.3523 317.378 48.2874 319.007 48.2874ZM320.846 46.4864C319.888 46.4672 319.237 45.2793 319.218 42.7503C319.198 40.4511 319.907 38.4585 320.789 38.4585C321.344 38.4585 321.67 38.9183 321.67 39.5314V46.2373C321.383 46.4097 321.095 46.4864 320.846 46.4864ZM333.169 44.9919L333.054 44.9345C332.633 45.7392 331.79 46.1607 330.909 46.1607C329.472 46.1607 328.514 44.9536 328.456 42.3096H333.208V41.8881C333.208 39.4739 331.713 37.8454 329.817 37.8454C327.441 37.8454 325.697 40.3361 325.697 43.3634C325.697 46.6205 327.651 48.2874 329.567 48.2874C331.177 48.2874 332.71 47.157 333.169 44.9919ZM329.414 38.4585C329.97 38.4585 330.219 39.5506 330.238 41.6773H328.456C328.494 39.4548 328.878 38.4585 329.414 38.4585ZM335.112 47.9425C334.652 47.7318 334.499 46.9654 334.882 46.2948L336.128 44.0531L337.22 46.2756C337.66 47.1761 337.43 47.7318 336.99 47.9425V48H341.626V47.9425C341.224 47.7509 340.937 47.3869 340.362 46.2756L338.446 42.3671L339.806 39.7422C340.094 39.1482 340.63 38.4202 341.186 38.1903V38.1328H338.733V38.1903C339.308 38.4202 339.461 38.9183 339.059 39.723L338.082 41.639L337.143 39.7422C336.741 38.9566 336.875 38.4202 337.45 38.1903V38.1328H332.775V38.1903C333.215 38.401 333.618 38.9566 334.001 39.7422L335.763 43.3442L334.154 46.2948C333.828 46.8887 333.158 47.7318 332.679 47.9425V48H335.112V47.9425Z" fill="#242E35"/>
<g filter="url(#filter2_d_1110_9766)">
<rect x="20" y="10" width="101" height="62" rx="31" fill="white"/>
</g>
<circle cx="41.555" cy="41.1343" r="7.18487" fill="#E6C9C9"/>
<path d="M69.1254 48.4593H69.3553L73.0723 36.4079C73.513 34.9326 74.241 34.3195 74.7583 34.0513V33.9938H71.3479V34.0513C71.9227 34.3578 72.7082 35.22 72.3442 36.4271L70.3899 42.8647L68.7039 36.4654C68.3398 35.105 68.7422 34.3578 69.3361 34.0513V33.9938H63.7415V34.0513C64.3355 34.3578 64.9294 34.856 65.4276 36.4271L65.8299 37.7491L64.2972 43.0371L62.4578 36.4654C62.0746 35.1242 62.4961 34.3578 63.0901 34.0513V33.9938H57.6296V34.0513C58.2044 34.3387 58.7025 34.9134 59.1815 36.4271L63.0135 48.4593H63.2625L66.1748 38.8795L69.1254 48.4593ZM76.1679 37.5383C77.1067 37.5383 77.854 36.6761 77.854 35.6415C77.854 34.5686 77.1067 33.7255 76.1679 33.7255C75.2291 33.7255 74.501 34.5686 74.501 35.6415C74.501 36.6761 75.2291 37.5383 76.1679 37.5383ZM74.0029 48.3635H78.5054V48.306C78.0456 48.0187 77.7773 47.3672 77.7773 46.5242V38.0939H77.7198C76.9726 38.8603 75.2674 39.5501 73.9837 39.5692V39.6267C74.6735 39.9333 74.8267 40.7188 74.8267 41.4469V46.5242C74.8267 47.3672 74.5202 47.9995 74.0029 48.306V48.3635ZM78.811 48.306V48.3635H83.3136V48.306C82.8346 47.8079 82.528 47.2714 82.528 46.5434V40.4889C82.9687 40.2207 83.5818 40.0674 83.9267 40.0866C84.3482 40.1057 84.5589 40.5081 84.5589 41.2936V46.5434C84.5589 47.2714 84.2907 47.8079 83.7926 48.306V48.3635H88.1035V48.306C87.6628 47.9612 87.4329 47.2714 87.4329 46.5242V40.2207C87.4329 39.0136 86.8389 38.2089 85.7852 38.2089C84.6931 38.2089 83.2178 39.3776 82.528 40.1823L82.4897 40.1632C82.5089 39.9524 82.528 39.5501 82.528 39.186V38.0939H82.4705C81.7233 38.8603 80.0947 39.5501 78.811 39.5692V39.6267C79.405 39.9333 79.6541 40.4506 79.6541 41.4469V46.5242C79.6541 47.2714 79.3284 47.9037 78.811 48.306ZM96.073 45.3555L95.958 45.298C95.5365 46.1027 94.6935 46.5242 93.8122 46.5242C92.3752 46.5242 91.4172 45.3171 91.3597 42.6731H96.1113V42.2516C96.1113 39.8375 94.6169 38.2089 92.7201 38.2089C90.3443 38.2089 88.6007 40.6997 88.6007 43.7269C88.6007 46.984 90.555 48.6509 92.471 48.6509C94.0804 48.6509 95.6132 47.5205 96.073 45.3555ZM92.3177 38.822C92.8733 38.822 93.1224 39.9141 93.1416 42.0408H91.3597C91.398 39.8183 91.7812 38.822 92.3177 38.822Z" fill="#242E35"/>
<rect y="381.912" width="694" height="30.4702" fill="#E0E5CD"/>
<path d="M44.3389 379.306H0V413.5H694C693.907 366.229 693.778 263.774 694 253C675.942 253 664.273 347.066 648.16 347.066C632.046 347.066 645.659 295.85 627.601 295.85C612.599 295.85 610.376 330.946 591.762 330.946C573.148 330.946 581.483 304.624 560.369 304.624C539.254 304.624 515.64 352.984 498.137 352.984C480.635 352.984 480.912 330.946 453.964 330.946C420.07 330.946 377.008 369.512 360.061 369.512C346.17 369.512 343.114 352.984 315.332 352.984C285.605 352.984 269.214 401.343 240.598 401.343C211.983 401.343 214.205 334.415 192.258 334.415C170.31 334.415 164.198 355.84 138.361 355.84C112.523 355.84 98.0768 381.142 78.9073 381.142C74.1843 381.142 54.7007 379.306 44.3389 379.306Z" fill="#3C400C"/>
<line x1="694" y1="382.412" x2="3.59518e-08" y2="382.412" stroke="#E6C9C9" stroke-dasharray="2 2"/>
<path d="M495.716 432.307L494.707 431.365L496.585 429.613C497.015 429.212 496.988 428.893 496.532 428.467L492.04 424.275L493.093 423.293L497.918 427.796C498.743 428.565 498.743 429.482 497.962 430.211L495.716 432.307ZM504.206 424.385L502.275 423.386L500.293 425.236L501.363 427.038L500.275 428.053L496.02 420.562L497.327 419.342L505.302 423.362L504.206 424.385ZM499.608 424.107L501.056 422.756L497.801 421.061L499.608 424.107ZM503 414.048L504.027 413.09L510.168 418.821L508.992 419.918L502.579 417.749L506.948 421.826L505.922 422.784L499.78 417.053L500.991 415.923L507.317 418.076L503 414.048ZM509.831 414.944L509.015 414.182L511.472 411.89L512.288 412.651L509.831 414.944ZM518.4 409.437L520.093 407.857L521.005 408.709L516.548 412.868L515.636 412.016L517.417 410.354L513.653 406.842L513.601 409.38L512.32 408.185L512.363 405.311L513.171 404.558L518.4 409.437ZM517.598 400.263C518.861 399.084 520.318 399.133 521.221 399.976C521.976 400.68 521.976 401.532 521.599 402.261C522.423 401.884 523.511 401.884 524.327 402.645C525.204 403.464 525.266 404.897 523.915 406.158C522.564 407.418 521.028 407.361 520.151 406.542C519.335 405.781 519.335 404.766 519.739 403.996C518.958 404.348 518.045 404.348 517.291 403.644C516.387 402.801 516.334 401.442 517.598 400.263ZM523.099 405.478L523.187 405.396C523.739 404.88 523.801 404.086 523.266 403.587C522.722 403.079 521.888 403.137 521.327 403.661L521.239 403.742C520.677 404.266 520.616 405.044 521.16 405.552C521.695 406.051 522.546 405.994 523.099 405.478ZM520.09 402.686L520.177 402.604C520.669 402.146 520.73 401.45 520.204 400.959C519.695 400.484 518.931 400.525 518.44 400.983L518.352 401.065C517.861 401.524 517.817 402.236 518.326 402.711C518.852 403.202 519.598 403.145 520.09 402.686Z" fill="#E6C9C9"/>
<path d="M561.716 432.307L560.707 431.365L562.585 429.613C563.015 429.212 562.988 428.893 562.532 428.467L558.04 424.275L559.093 423.293L563.918 427.796C564.743 428.565 564.743 429.482 563.962 430.211L561.716 432.307ZM570.206 424.385L568.275 423.386L566.293 425.236L567.363 427.038L566.275 428.053L562.02 420.562L563.327 419.342L571.302 423.362L570.206 424.385ZM565.608 424.107L567.056 422.756L563.801 421.061L565.608 424.107ZM569 414.048L570.027 413.09L576.168 418.821L574.992 419.918L568.579 417.749L572.948 421.826L571.922 422.784L565.78 417.053L566.991 415.923L573.317 418.076L569 414.048ZM575.831 414.944L575.015 414.182L577.472 411.89L578.288 412.651L575.831 414.944ZM582.847 410.886L585.786 408.144L586.698 408.995L582.452 412.958L581.496 412.065L581.583 408.086C581.61 406.768 581.557 406.293 581.11 405.876C580.627 405.426 579.872 405.426 579.337 405.925L579.25 406.007C578.662 406.555 578.644 407.325 579.302 407.972L578.267 408.938C577.039 407.792 577.17 406.261 578.381 405.131C579.583 404.009 581.11 403.944 582.11 404.877C582.891 405.606 582.996 406.392 582.952 407.726L582.847 410.886ZM583.589 400.255C585.081 398.863 587.177 399.199 589.108 401C591.029 402.793 591.433 404.725 589.906 406.149C588.379 407.574 586.309 407.197 584.387 405.404C582.457 403.603 582.098 401.647 583.589 400.255ZM584.458 401.131C583.589 401.941 584.001 403.112 585.423 404.438C585.73 404.725 586.019 404.962 586.309 405.151L586.125 400.721C585.502 400.549 584.966 400.656 584.528 401.065L584.458 401.131ZM589.029 405.265C589.897 404.455 589.485 403.284 588.072 401.966C587.809 401.72 587.555 401.516 587.309 401.335L587.485 405.707C588.055 405.83 588.546 405.715 588.958 405.331L589.029 405.265Z" fill="#E6C9C9"/>
<path d="M627.716 432.307L626.707 431.365L628.585 429.613C629.015 429.212 628.988 428.893 628.532 428.467L624.04 424.275L625.093 423.293L629.918 427.796C630.743 428.565 630.743 429.482 629.962 430.211L627.716 432.307ZM636.206 424.385L634.275 423.386L632.293 425.236L633.363 427.038L632.275 428.053L628.02 420.562L629.327 419.342L637.302 423.362L636.206 424.385ZM631.608 424.107L633.056 422.756L629.801 421.061L631.608 424.107ZM635 414.048L636.027 413.09L642.168 418.821L640.992 419.918L634.579 417.749L638.948 421.826L637.922 422.784L631.78 417.053L632.991 415.923L639.317 418.076L635 414.048ZM641.831 414.944L641.015 414.182L643.472 411.89L644.288 412.651L641.831 414.944ZM648.847 410.886L651.786 408.144L652.698 408.995L648.452 412.958L647.496 412.065L647.583 408.086C647.61 406.768 647.557 406.293 647.11 405.876C646.627 405.426 645.872 405.426 645.337 405.925L645.25 406.007C644.662 406.555 644.644 407.325 645.302 407.972L644.267 408.938C643.039 407.792 643.17 406.261 644.381 405.131C645.583 404.009 647.11 403.944 648.11 404.877C648.891 405.606 648.996 406.392 648.952 407.726L648.847 410.886ZM655.66 404.528L657.354 402.948L658.266 403.8L653.809 407.959L652.897 407.107L654.678 405.445L650.914 401.933L650.861 404.471L649.58 403.276L649.624 400.402L650.431 399.649L655.66 404.528Z" fill="#E6C9C9"/>
<path d="M33.7162 432.306L32.7072 431.364L34.5848 429.612C35.0147 429.211 34.9883 428.892 34.5321 428.466L30.0401 424.274L31.0929 423.292L35.9183 427.795C36.743 428.564 36.743 429.481 35.9622 430.21L33.7162 432.306ZM42.2055 424.384L40.2754 423.385L38.2925 425.236L39.3629 427.037L38.275 428.052L34.0198 420.561L35.3271 419.341L43.3022 423.361L42.2055 424.384ZM37.6082 424.106L39.0558 422.755L35.8008 421.06L37.6082 424.106ZM41.0001 414.047L42.0266 413.089L48.1681 418.82L46.9925 419.917L40.579 417.748L44.9482 421.825L43.9217 422.783L37.7802 417.052L38.991 415.922L45.3167 418.075L41.0001 414.047ZM47.8313 414.943L47.0154 414.181L49.472 411.889L50.2879 412.651L47.8313 414.943ZM50.3283 405.163C51.8198 403.771 53.9167 404.107 55.8469 405.908C57.7683 407.701 58.1719 409.633 56.6453 411.057C55.1187 412.482 53.0481 412.105 51.1267 410.312C49.1966 408.511 48.8368 406.554 50.3283 405.163ZM51.1969 406.039C50.3283 406.849 50.7407 408.02 52.162 409.346C52.4691 409.633 52.7586 409.87 53.0481 410.058L52.8639 405.629C52.241 405.457 51.7058 405.564 51.2671 405.973L51.1969 406.039ZM55.7679 410.173C56.6365 409.363 56.2242 408.192 54.8116 406.874C54.5484 406.628 54.294 406.423 54.0483 406.243L54.2238 410.615C54.7941 410.738 55.2854 410.623 55.6978 410.239L55.7679 410.173ZM61.2041 402.546L62.1517 401.662L63.0553 402.505L62.1078 403.389L63.4063 404.601L62.4236 405.518L61.1252 404.306L58.1334 407.098L57.0981 406.132L56.2295 399.836L57.2648 398.87L61.2041 402.546ZM58.2299 405.321L60.2215 403.463L57.6421 401.056L58.2299 405.321Z" fill="#E6C9C9"/>
<path d="M99.7162 432.307L98.7072 431.365L100.585 429.613C101.015 429.212 100.988 428.893 100.532 428.467L96.0401 424.275L97.0929 423.293L101.918 427.796C102.743 428.565 102.743 429.482 101.962 430.211L99.7162 432.307ZM108.206 424.385L106.275 423.386L104.293 425.236L105.363 427.038L104.275 428.053L100.02 420.562L101.327 419.342L109.302 423.362L108.206 424.385ZM103.608 424.107L105.056 422.756L101.801 421.061L103.608 424.107ZM107 414.048L108.027 413.09L114.168 418.821L112.992 419.918L106.579 417.749L110.948 421.826L109.922 422.784L103.78 417.053L104.991 415.923L111.317 418.076L107 414.048ZM113.831 414.944L113.015 414.182L115.472 411.89L116.288 412.651L113.831 414.944ZM116.328 405.164C117.82 403.772 119.917 404.108 121.847 405.909C123.768 407.702 124.172 409.634 122.645 411.058C121.119 412.483 119.048 412.106 117.127 410.313C115.197 408.512 114.837 406.555 116.328 405.164ZM117.197 406.04C116.328 406.85 116.741 408.021 118.162 409.347C118.469 409.634 118.759 409.871 119.048 410.059L118.864 405.63C118.241 405.458 117.706 405.565 117.267 405.974L117.197 406.04ZM121.768 410.174C122.637 409.364 122.224 408.193 120.812 406.875C120.548 406.629 120.294 406.424 120.048 406.244L120.224 410.616C120.794 410.739 121.285 410.624 121.698 410.24L121.768 410.174ZM124.072 402.048C125.16 401.033 126.844 400.934 128.064 402.072C129.222 403.153 129.362 404.807 127.985 406.092C126.511 407.467 124.572 407.246 122.695 405.494C120.677 403.611 120.519 401.27 122.028 399.862C123.054 398.904 124.458 398.757 125.616 399.575L124.581 400.541C124.116 400.222 123.458 400.214 122.896 400.738L122.826 400.803C122.08 401.499 121.94 402.825 123.353 404.373C123.072 403.587 123.37 402.703 124.072 402.048ZM127.125 405.208C127.774 404.602 127.731 403.693 127.081 403.087C126.432 402.482 125.467 402.432 124.809 403.046L124.73 403.12C124.063 403.742 124.054 404.667 124.721 405.29C125.379 405.904 126.362 405.92 127.046 405.282L127.125 405.208Z" fill="#E6C9C9"/>
<path d="M165.716 432.307L164.707 431.365L166.585 429.613C167.015 429.212 166.988 428.893 166.532 428.467L162.04 424.275L163.093 423.293L167.918 427.796C168.743 428.565 168.743 429.482 167.962 430.211L165.716 432.307ZM174.206 424.385L172.275 423.386L170.293 425.236L171.363 427.038L170.275 428.053L166.02 420.562L167.327 419.342L175.302 423.362L174.206 424.385ZM169.608 424.107L171.056 422.756L167.801 421.061L169.608 424.107ZM173 414.048L174.027 413.09L180.168 418.821L178.992 419.918L172.579 417.749L176.948 421.826L175.922 422.784L169.78 417.053L170.991 415.923L177.317 418.076L173 414.048ZM179.831 414.944L179.015 414.182L181.472 411.89L182.288 412.651L179.831 414.944ZM182.328 405.164C183.82 403.772 185.917 404.108 187.847 405.909C189.768 407.702 190.172 409.634 188.645 411.058C187.119 412.483 185.048 412.106 183.127 410.313C181.197 408.512 180.837 406.555 182.328 405.164ZM183.197 406.04C182.328 406.85 182.741 408.021 184.162 409.347C184.469 409.634 184.759 409.871 185.048 410.059L184.864 405.63C184.241 405.458 183.706 405.565 183.267 405.974L183.197 406.04ZM187.768 410.174C188.637 409.364 188.224 408.193 186.812 406.875C186.548 406.629 186.294 406.424 186.048 406.244L186.224 410.616C186.794 410.739 187.285 410.624 187.698 410.24L187.768 410.174ZM187.598 400.263C188.861 399.084 190.318 399.133 191.221 399.976C191.976 400.68 191.976 401.532 191.599 402.261C192.423 401.884 193.511 401.884 194.327 402.645C195.204 403.464 195.266 404.897 193.915 406.158C192.564 407.418 191.028 407.361 190.151 406.542C189.335 405.781 189.335 404.766 189.739 403.996C188.958 404.348 188.045 404.348 187.291 403.644C186.387 402.801 186.334 401.442 187.598 400.263ZM193.099 405.478L193.187 405.396C193.739 404.88 193.801 404.086 193.266 403.587C192.722 403.079 191.888 403.137 191.327 403.661L191.239 403.742C190.677 404.266 190.616 405.044 191.16 405.552C191.695 406.051 192.546 405.994 193.099 405.478ZM190.09 402.686L190.177 402.604C190.669 402.146 190.73 401.45 190.204 400.959C189.695 400.484 188.931 400.525 188.44 400.983L188.352 401.065C187.861 401.524 187.817 402.236 188.326 402.711C188.852 403.202 189.598 403.145 190.09 402.686Z" fill="#E6C9C9"/>
<path d="M231.716 432.307L230.707 431.365L232.585 429.613C233.015 429.212 232.988 428.893 232.532 428.467L228.04 424.275L229.093 423.293L233.918 427.796C234.743 428.565 234.743 429.482 233.962 430.211L231.716 432.307ZM240.206 424.385L238.275 423.386L236.293 425.236L237.363 427.038L236.275 428.053L232.02 420.562L233.327 419.342L241.302 423.362L240.206 424.385ZM235.608 424.107L237.056 422.756L233.801 421.061L235.608 424.107ZM239 414.048L240.027 413.09L246.168 418.821L244.992 419.918L238.579 417.749L242.948 421.826L241.922 422.784L235.78 417.053L236.991 415.923L243.317 418.076L239 414.048ZM245.831 414.944L245.015 414.182L247.472 411.89L248.288 412.651L245.831 414.944ZM254.4 409.437L256.093 407.857L257.005 408.709L252.548 412.868L251.636 412.016L253.417 410.354L249.653 406.842L249.601 409.38L248.32 408.185L248.363 405.311L249.171 404.558L254.4 409.437ZM253.589 400.255C255.081 398.863 257.177 399.199 259.108 401C261.029 402.793 261.433 404.725 259.906 406.149C258.379 407.574 256.309 407.197 254.387 405.404C252.457 403.603 252.098 401.647 253.589 400.255ZM254.458 401.131C253.589 401.941 254.001 403.112 255.423 404.438C255.73 404.725 256.019 404.962 256.309 405.151L256.125 400.721C255.502 400.549 254.966 400.656 254.528 401.065L254.458 401.131ZM259.029 405.265C259.897 404.455 259.485 403.284 258.072 401.966C257.809 401.72 257.555 401.516 257.309 401.335L257.485 405.707C258.055 405.83 258.546 405.715 258.958 405.331L259.029 405.265Z" fill="#E6C9C9"/>
<path d="M297.716 432.307L296.707 431.365L298.585 429.613C299.015 429.212 298.988 428.893 298.532 428.467L294.04 424.275L295.093 423.293L299.918 427.796C300.743 428.565 300.743 429.482 299.962 430.211L297.716 432.307ZM306.206 424.385L304.275 423.386L302.293 425.236L303.363 427.038L302.275 428.053L298.02 420.562L299.327 419.342L307.302 423.362L306.206 424.385ZM301.608 424.107L303.056 422.756L299.801 421.061L301.608 424.107ZM305 414.048L306.027 413.09L312.168 418.821L310.992 419.918L304.579 417.749L308.948 421.826L307.922 422.784L301.78 417.053L302.991 415.923L309.317 418.076L305 414.048ZM311.831 414.944L311.015 414.182L313.472 411.89L314.288 412.651L311.831 414.944ZM320.4 409.437L322.093 407.857L323.005 408.709L318.548 412.868L317.636 412.016L319.417 410.354L315.653 406.842L315.601 409.38L314.32 408.185L314.363 405.311L315.171 404.558L320.4 409.437ZM324.107 405.977L327.047 403.235L327.959 404.086L323.713 408.049L322.756 407.156L322.844 403.177C322.87 401.859 322.818 401.385 322.37 400.967C321.888 400.517 321.133 400.517 320.598 401.016L320.51 401.098C319.922 401.647 319.905 402.416 320.563 403.063L319.528 404.029C318.299 402.883 318.431 401.352 319.642 400.222C320.844 399.1 322.37 399.035 323.37 399.968C324.151 400.697 324.257 401.483 324.213 402.817L324.107 405.977Z" fill="#E6C9C9"/>
<path d="M363.716 432.307L362.707 431.365L364.585 429.613C365.015 429.212 364.988 428.893 364.532 428.467L360.04 424.275L361.093 423.293L365.918 427.796C366.743 428.565 366.743 429.482 365.962 430.211L363.716 432.307ZM372.206 424.385L370.275 423.386L368.293 425.236L369.363 427.038L368.275 428.053L364.02 420.562L365.327 419.342L373.302 423.362L372.206 424.385ZM367.608 424.107L369.056 422.756L365.801 421.061L367.608 424.107ZM371 414.048L372.027 413.09L378.168 418.821L376.992 419.918L370.579 417.749L374.948 421.826L373.922 422.784L367.78 417.053L368.991 415.923L375.317 418.076L371 414.048ZM377.831 414.944L377.015 414.182L379.472 411.89L380.288 412.651L377.831 414.944ZM386.4 409.437L388.093 407.857L389.005 408.709L384.548 412.868L383.636 412.016L385.417 410.354L381.653 406.842L381.601 409.38L380.32 408.185L380.363 405.311L381.171 404.558L386.4 409.437ZM391.204 402.547L392.152 401.663L393.055 402.506L392.108 403.39L393.406 404.602L392.424 405.519L391.125 404.307L388.133 407.099L387.098 406.133L386.23 399.837L387.265 398.871L391.204 402.547ZM388.23 405.322L390.221 403.464L387.642 401.057L388.23 405.322Z" fill="#E6C9C9"/>
<path d="M429.716 432.307L428.707 431.365L430.585 429.613C431.015 429.212 430.988 428.893 430.532 428.467L426.04 424.275L427.093 423.293L431.918 427.796C432.743 428.565 432.743 429.482 431.962 430.211L429.716 432.307ZM438.206 424.385L436.275 423.386L434.293 425.236L435.363 427.038L434.275 428.053L430.02 420.562L431.327 419.342L439.302 423.362L438.206 424.385ZM433.608 424.107L435.056 422.756L431.801 421.061L433.608 424.107ZM437 414.048L438.027 413.09L444.168 418.821L442.992 419.918L436.579 417.749L440.948 421.826L439.922 422.784L433.78 417.053L434.991 415.923L441.317 418.076L437 414.048ZM443.831 414.944L443.015 414.182L445.472 411.89L446.288 412.651L443.831 414.944ZM452.4 409.437L454.093 407.857L455.005 408.709L450.548 412.868L449.636 412.016L451.417 410.354L447.653 406.842L447.601 409.38L446.32 408.185L446.363 405.311L447.171 404.558L452.4 409.437ZM454.072 402.048C455.16 401.033 456.844 400.934 458.064 402.072C459.222 403.153 459.362 404.807 457.985 406.092C456.511 407.467 454.572 407.246 452.695 405.494C450.677 403.611 450.519 401.27 452.028 399.862C453.054 398.904 454.458 398.757 455.616 399.575L454.581 400.541C454.116 400.222 453.458 400.214 452.896 400.738L452.826 400.803C452.08 401.499 451.94 402.825 453.353 404.373C453.072 403.587 453.37 402.703 454.072 402.048ZM457.125 405.208C457.774 404.602 457.731 403.693 457.081 403.087C456.432 402.482 455.467 402.432 454.809 403.046L454.73 403.12C454.063 403.742 454.054 404.667 454.721 405.29C455.379 405.904 456.362 405.92 457.046 405.282L457.125 405.208Z" fill="#E6C9C9"/>
<defs>
<filter id="filter0_d_1110_9766" x="434" y="78" width="167.27" height="108.285" filterUnits="userSpaceOnUse" color-interpolation-filters="sRGB">
<feFlood flood-opacity="0" result="BackgroundImageFix"/>
<feColorMatrix in="SourceAlpha" type="matrix" values="0 0 0 0 0 0 0 0 0 0 0 0 0 0 0 0 0 0 127 0" result="hardAlpha"/>
<feOffset dx="-8" dy="8"/>
<feGaussianBlur stdDeviation="12"/>
<feColorMatrix type="matrix" values="0 0 0 0 0.141176 0 0 0 0 0.180392 0 0 0 0 0.207843 0 0 0 0.16 0"/>
<feBlend mode="darken" in2="BackgroundImageFix" result="effect1_dropShadow_1110_9766"/>
<feBlend mode="normal" in="SourceGraphic" in2="effect1_dropShadow_1110_9766" result="shape"/>
</filter>
<filter id="filter1_d_1110_9766" x="355" y="165" width="167.27" height="108.285" filterUnits="userSpaceOnUse" color-interpolation-filters="sRGB">
<feFlood flood-opacity="0" result="BackgroundImageFix"/>
<feColorMatrix in="SourceAlpha" type="matrix" values="0 0 0 0 0 0 0 0 0 0 0 0 0 0 0 0 0 0 127 0" result="hardAlpha"/>
<feOffset dx="-8" dy="8"/>
<feGaussianBlur stdDeviation="12"/>
<feColorMatrix type="matrix" values="0 0 0 0 0.141176 0 0 0 0 0.180392 0 0 0 0 0.207843 0 0 0 0.16 0"/>
<feBlend mode="darken" in2="BackgroundImageFix" result="effect1_dropShadow_1110_9766"/>
<feBlend mode="normal" in="SourceGraphic" in2="effect1_dropShadow_1110_9766" result="shape"/>
</filter>
<filter id="filter2_d_1110_9766" x="0.840336" y="0.420168" width="129.739" height="90.7395" filterUnits="userSpaceOnUse" color-interpolation-filters="sRGB">
<feFlood flood-opacity="0" result="BackgroundImageFix"/>
<feColorMatrix in="SourceAlpha" type="matrix" values="0 0 0 0 0 0 0 0 0 0 0 0 0 0 0 0 0 0 127 0" result="hardAlpha"/>
<feOffset dx="-4.78992" dy="4.78992"/>
<feGaussianBlur stdDeviation="7.18487"/>
<feColorMatrix type="matrix" values="0 0 0 0 0.141176 0 0 0 0 0.180392 0 0 0 0 0.207843 0 0 0 0.16 0"/>
<feBlend mode="darken" in2="BackgroundImageFix" result="effect1_dropShadow_1110_9766"/>
<feBlend mode="normal" in="SourceGraphic" in2="effect1_dropShadow_1110_9766" result="shape"/>
</filter>
</defs>
</svg>
