<svg width="186" height="120" viewBox="0 0 186 120" fill="none" xmlns="http://www.w3.org/2000/svg">
<rect width="186" height="120" fill="white"/>
<path d="M147.438 50.0366C141.452 41.9151 125.011 28.9051 120.487 26.8863L129.178 12.6387C131.292 13.5746 149.871 18.2774 159.829 31.7747L147.438 50.0366Z" fill="#EFDDC7"/>
<path d="M126.652 111.985C126.652 111.985 136.447 101.342 140.038 77.8666C140.415 75.2532 140.61 72.6171 140.621 69.977C140.621 67.061 141.399 62.5902 146.063 63.8742L146.335 64.0212C147.797 64.8133 148.94 66.0839 149.568 67.6179C149.894 68.4177 150.043 69.2777 150.005 70.1398C149.968 71.0018 149.745 71.8458 149.351 72.6146C148.843 73.6197 148.036 74.4448 147.04 74.9776C146.044 75.5105 144.908 75.7251 143.785 75.5925C142.552 75.473 141.387 74.9696 140.458 74.1538" stroke="#242E35" stroke-width="2" stroke-linecap="round" stroke-linejoin="round"/>
<path d="M103.549 37.8077L109.34 27.4817C110.674 25.0427 112.781 23.1116 115.334 21.99C118.84 20.5049 124.149 20.1413 131.324 24.674C135.675 27.301 139.605 30.5627 142.984 34.3503C144.465 36.1046 145.484 38.199 145.947 40.4437C146.409 42.6884 146.302 45.0125 145.635 47.2056L143.458 54.4918C143.458 54.4918 142.082 59.6896 144.826 59.4189L165.978 25.4552C167.575 22.9137 168.212 19.8894 167.773 16.9237C167.315 14.0231 165.822 10.991 161.734 10.2872C159.229 9.88864 156.667 10.4829 154.597 11.9424C152.265 13.5435 148.433 15.8717 145.891 15.8098C145.597 15.7963 145.309 15.7168 145.049 15.5772C144.79 15.4376 144.566 15.2415 144.393 15.0036C144.22 14.7656 144.104 14.4919 144.052 14.203C144.001 13.914 144.016 13.6172 144.096 13.3347C144.624 11.401 145.059 7.84294 141.173 8.00538C140.199 8.0625 139.252 8.34286 138.405 8.82456C137.558 9.30626 136.834 9.97624 136.291 10.7822C134.076 14.0153 129.528 20.6364 125.68 26.2519C120.495 33.8011 109.869 36.0055 102.36 30.6762C99.0095 28.2939 96.6619 24.7668 97.2061 19.569C97.3054 18.5405 97.6472 17.5499 98.2037 16.6777C98.7602 15.8054 99.5157 15.0761 100.409 14.5491C104.816 12.0275 115.349 9.76118 136.516 22.7867C166.763 41.389 174.466 55.0487 173.914 66.6896C173.363 78.3306 162.363 75.0433 154.115 69.304C147.858 64.9416 136.073 57.4388 130.741 54.0664C129.483 53.2517 127.974 52.9108 126.486 53.1051C124.998 53.2994 123.629 54.0161 122.625 55.126C121.226 56.7194 120.48 59.2023 121.941 63.0078C125.517 72.2897 141.196 69.0256 139.54 54.4995C137.885 39.9735 126.621 44.9238 126.621 44.9238C126.621 44.9238 121.117 46.5713 118.645 51.4907C118.645 51.4907 115.015 42.3249 112.046 44.3823C108.431 46.8807 112.597 49.8509 109.022 55.5979C106.69 59.2951 103.207 60.5559 101.248 62.188C100.886 62.4825 100.594 62.8535 100.393 63.2743C100.192 63.695 100.088 64.1549 100.088 64.6206C100.088 65.0863 100.192 65.5461 100.393 65.9669C100.594 66.3876 100.886 66.7587 101.248 67.0532C103.285 68.7007 107.156 71.1449 110.95 69.8222C116.445 67.9117 113.694 63.2554 110.95 64.3537C108.571 65.2974 106.604 68.8709 107.529 73.1869C107.652 73.7746 107.974 74.3025 108.441 74.6826C108.907 75.0627 109.491 75.2719 110.094 75.2753H112.209C112.68 75.2746 113.142 75.4044 113.543 75.6504C113.944 75.8963 114.268 76.2485 114.479 76.6676C114.962 77.6981 115.833 78.4983 116.904 78.8952C117.745 79.151 118.649 79.1072 119.46 78.7711C120.272 78.4351 120.94 77.828 121.35 77.0543C122.703 74.6101 126.737 69.4587 129.124 71.462C132.428 74.2002 137.309 80.4963 126.59 92.1218C115.87 103.747 96.8951 110.863 84.2399 100.468C71.5848 90.0721 80.12 78.3074 86.9918 82.1361C93.8635 85.9649 91.1039 105.604 77.2594 102.046C63.8813 98.6113 60.5776 88.0533 68.2655 62.2189C68.7978 60.4379 69.4603 58.6981 70.2477 57.0133L82.1955 31.4884C82.1955 31.4884 75.7203 26.2905 47.3938 31.2176C47.3938 31.2176 30.6265 34.3812 16.3 28.1237L13.8747 66.4266C13.8747 66.4266 13.0973 70.1239 18.3133 63.8277C23.5293 57.5316 24.3611 66.2874 19.1373 70.3946C14.4732 74.0455 10.3611 79.4212 12.6543 80.3803C12.9484 80.4874 13.2669 80.5102 13.5734 80.4459C13.8799 80.3816 14.1621 80.2329 14.3877 80.0168L25.7914 69.9151C26.3587 69.398 27.0644 69.0556 27.8232 68.9293C28.582 68.803 29.3612 68.8982 30.0668 69.2035C31.4893 69.8687 32.4454 71.988 29.0329 75.2985C23.8014 80.3803 17.4271 82.9096 15.1417 86.4058C13.9368 88.2621 14.8308 89.3837 16.9452 88.7262C19.0596 88.0687 21.4071 86.1969 26.2733 82.1825C31.9868 77.4875 33.9147 76.2499 34.9097 77.093C35.1856 77.3435 35.3825 77.6684 35.4763 78.0282C35.5701 78.3879 35.5569 78.7671 35.4382 79.1195C34.933 80.7129 32.632 83.714 26.5454 87.6279C19.7048 92.0599 18.702 94.2257 20.5676 95.2312C21.0381 95.4674 21.5725 95.5468 22.0918 95.4577C22.6111 95.3685 23.0878 95.1156 23.4516 94.7362C25.3638 92.8334 30.0201 88.8345 33.7203 85.6477C34.0576 85.3431 34.4579 85.116 34.8931 84.9823C35.3284 84.8486 35.7878 84.8118 36.2389 84.8742C37.4749 85.0676 38.6798 86.9704 34.6842 90.1107C28.411 95.0842 25.6826 95.6412 30.712 97.2964C31.7768 97.6446 32.8769 97.8755 33.9923 97.9848C36.13 98.1937 39.6825 99.1992 43.0096 103.214C48.2333 109.502 58.9607 105.534 58.9607 105.534" stroke="#242E35" stroke-width="2" stroke-linecap="round" stroke-linejoin="round"/>
<path d="M86.867 78.8799C86.867 78.8799 85.9653 68.0511 90.8159 65.9937C91.2332 65.8295 91.68 65.7525 92.1284 65.7674C92.5769 65.7824 93.0174 65.8889 93.4228 66.0804C93.8281 66.2719 94.1895 66.5443 94.4846 66.8807C94.7797 67.217 95.0021 67.6102 95.138 68.0357C95.4178 68.8788 95.7676 70.0235 96.1951 71.586C97.4933 76.3816 101.543 70.5031 102.795 72.313L105.205 75.2987" stroke="#242E35" stroke-width="2" stroke-linecap="round" stroke-linejoin="round"/>
<path d="M102.181 57.4001C102.181 57.4001 94.936 63.3327 91.8266 55.3349C91.1446 53.4979 90.904 51.5275 91.124 49.5815C91.344 47.6354 92.0186 45.7675 93.0937 44.1271C95.0448 41.0796 98.1153 38.21 102.165 40.2597C109.589 44.1271 104.427 52.094 101.676 51.2664C99.4601 50.6089 97.3768 49.1238 99.0481 47.515C99.312 47.2826 99.6317 47.1221 99.9763 47.0489C100.321 46.9757 100.679 46.9924 101.015 47.0973C101.802 47.3016 102.502 47.7517 103.013 48.3813L104.381 49.9979C104.381 49.9979 106.013 45.4575 101.885 44.6376" stroke="#242E35" stroke-width="2" stroke-linecap="round" stroke-linejoin="round"/>
<path d="M100.806 78.8799L111.253 80.7904C111.253 80.7904 106.029 86.8081 100.806 78.8799Z" fill="#242E35"/>
<path d="M21.3372 34.8301C21.3372 34.8301 25.4649 37.5605 47.7669 37.019C48.6207 45.3975 47.7775 53.8612 45.2872 61.9098C36.5977 62.8484 27.8072 62.0356 19.4404 59.5197L21.3372 34.8301Z" fill="#E0E5CD"/>
<path d="M40.3125 70.124V87.8136C40.3125 87.8136 49.1121 92.2844 61.4796 90.0954V72.05L40.3125 70.124Z" fill="#C5D5E4"/>
<path d="M69.735 40.7859H53.5118C53.3449 40.7992 53.1771 40.778 53.0188 40.7236C52.8606 40.6692 52.7154 40.5828 52.5923 40.4698C52.4693 40.3568 52.3711 40.2197 52.304 40.0671C52.2368 39.9145 52.2021 39.7497 52.2021 39.5831C52.2021 39.4165 52.2368 39.2517 52.304 39.0991C52.3711 38.9465 52.4693 38.8094 52.5923 38.6964C52.7154 38.5834 52.8606 38.497 53.0188 38.4426C53.1771 38.3882 53.3449 38.367 53.5118 38.3803H69.735C70.0389 38.4046 70.3224 38.5418 70.5291 38.7647C70.7359 38.9876 70.8507 39.2798 70.8507 39.5831C70.8507 39.8864 70.7359 40.1786 70.5291 40.4015C70.3224 40.6244 70.0389 40.7616 69.735 40.7859V40.7859Z" fill="#C5D5E4"/>
<path d="M68.9033 45.6047H53.5118C53.3449 45.618 53.1771 45.5968 53.0188 45.5424C52.8606 45.488 52.7154 45.4016 52.5923 45.2886C52.4693 45.1757 52.3711 45.0385 52.304 44.8859C52.2368 44.7333 52.2021 44.5685 52.2021 44.4019C52.2021 44.2354 52.2368 44.0706 52.304 43.918C52.3711 43.7654 52.4693 43.6282 52.5923 43.5153C52.7154 43.4023 52.8606 43.3159 53.0188 43.2615C53.1771 43.2071 53.3449 43.1859 53.5118 43.1992H68.9033C69.0701 43.1859 69.238 43.2071 69.3962 43.2615C69.5545 43.3159 69.6997 43.4023 69.8227 43.5153C69.9458 43.6282 70.0439 43.7654 70.1111 43.918C70.1782 44.0706 70.2129 44.2354 70.2129 44.4019C70.2129 44.5685 70.1782 44.7333 70.1111 44.8859C70.0439 45.0385 69.9458 45.1757 69.8227 45.2886C69.6997 45.4016 69.5545 45.488 69.3962 45.5424C69.238 45.5968 69.0701 45.618 68.9033 45.6047Z" fill="#C5D5E4"/>
<path d="M68.9103 50.756H68.8248L53.4334 49.7582C53.1138 49.7377 52.8156 49.5917 52.6042 49.3524C52.3928 49.113 52.2856 48.7999 52.3062 48.482C52.3268 48.164 52.4736 47.8672 52.7141 47.6569C52.9546 47.4465 53.2693 47.3399 53.5889 47.3604L68.9881 48.3505C69.2926 48.3826 69.5736 48.5281 69.7748 48.7579C69.9759 48.9876 70.0822 49.2846 70.0724 49.5892C70.0625 49.8937 69.9373 50.1833 69.7217 50.3997C69.5062 50.6162 69.2163 50.7434 68.9103 50.756V50.756Z" fill="#C5D5E4"/>
<path d="M65.6069 55.4587H65.4825L52.2676 54.0896C52.1099 54.0733 51.957 54.0263 51.8175 53.9513C51.6781 53.8762 51.5548 53.7745 51.4548 53.6521C51.2529 53.4047 51.158 53.0877 51.191 52.7708C51.224 52.4538 51.3822 52.1629 51.6307 51.962C51.8793 51.7611 52.1979 51.6667 52.5164 51.6995L65.7312 53.0608C66.038 53.0954 66.32 53.2451 66.5196 53.4795C66.7193 53.7138 66.8216 54.015 66.8057 54.3218C66.7899 54.6286 66.657 54.9178 66.4342 55.1305C66.2115 55.3432 65.9156 55.4633 65.6069 55.4664V55.4587Z" fill="#C5D5E4"/>
<path d="M61.6188 66.4267H61.4399L50.7204 64.8798C50.4201 64.815 50.1557 64.6392 49.9806 64.3879C49.8056 64.1366 49.733 63.8286 49.7774 63.5261C49.8218 63.2236 49.98 62.9491 50.22 62.7582C50.4599 62.5672 50.7638 62.474 51.0702 62.4974L61.7975 64.0444C62.109 64.077 62.3954 64.2291 62.5962 64.4682C62.7969 64.7074 62.8962 65.015 62.8729 65.3257C62.8497 65.6365 62.7058 65.926 62.4716 66.133C62.2375 66.34 61.9316 66.4481 61.6188 66.4345V66.4267Z" fill="#C5D5E4"/>
<path d="M127.359 60.8654C128.321 60.8654 129.101 60.0896 129.101 59.1328C129.101 58.1759 128.321 57.4001 127.359 57.4001C126.398 57.4001 125.618 58.1759 125.618 59.1328C125.618 60.0896 126.398 60.8654 127.359 60.8654Z" stroke="#242E35" stroke-width="2" stroke-linecap="round" stroke-linejoin="round"/>
<path d="M132.521 60.4013C132.521 60.4013 130.78 55.4355 127.01 55.4974" stroke="#242E35" stroke-width="2" stroke-linecap="round" stroke-linejoin="round"/>
<path d="M80.7183 34.8301L85.1025 36.0058C85.1025 36.0058 61.3235 76.0259 68.2885 97.111" stroke="#242E35" stroke-width="2" stroke-linecap="round" stroke-linejoin="round"/>
</svg>