<svg width="92" height="24" fill="none" xmlns="http://www.w3.org/2000/svg"><path d="M56.121 7.328c-1.458 0-2.604.313-3.75.937 0-3.334 0-6.356.104-7.398l-6.983 1.25v.625l.73.104c.936.209 1.25.73 1.457 1.98.21 2.502.105 15.842 0 18.03 1.876.418 3.856.73 5.837.73 5.524 0 8.859-3.439 8.859-8.859 0-4.272-2.71-7.4-6.254-7.4zm-2.397 15.111c-.417 0-.938 0-1.25-.103-.105-1.459-.208-7.609-.105-13.028.625-.208 1.042-.313 1.564-.313 2.294 0 3.544 2.71 3.544 6.044 0 4.17-1.564 7.4-3.753 7.4zM19.227 1.283H.884v.938l1.043.104c1.354.208 1.876 1.042 2.083 3.022.314 3.752.209 10.527 0 13.756-.208 1.981-.729 2.92-2.083 3.022l-1.043.21v.833h11.777v-.833l-1.25-.21c-1.355-.103-1.876-1.041-2.085-3.022-.104-1.355-.209-3.544-.209-6.253l2.502.104c1.563 0 2.292 1.251 2.605 3.022h.938V8.58h-.938c-.313 1.772-1.042 3.022-2.605 3.022l-2.5.104c0-3.543.103-6.878.208-8.858h3.647c2.815 0 4.274 1.771 5.316 4.898l1.042-.313-.105-6.149z" fill="#242E35"/><path d="M25.168 7.12c5.212 0 7.817 3.543 7.817 8.233 0 4.481-2.918 8.234-8.13 8.234-5.21 0-7.816-3.544-7.816-8.234 0-4.482 2.918-8.234 8.13-8.234zm-.313 1.042c-2.293 0-2.918 3.126-2.918 7.19 0 3.96 1.043 7.192 3.127 7.192 2.396 0 3.022-3.127 3.022-7.191 0-3.96-1.041-7.191-3.23-7.191zm38.874 7.295c0-4.273 2.71-8.338 8.025-8.338 4.376 0 6.462 3.232 6.462 7.504h-9.693c-.105 3.856 1.771 6.67 5.524 6.67 1.667 0 2.5-.415 3.544-1.145l.416.52c-1.043 1.46-3.335 2.92-6.253 2.92-4.69-.002-8.025-3.336-8.025-8.13zm4.794-1.98 4.898-.104c0-2.085-.313-5.211-2.084-5.211-1.771 0-2.71 2.918-2.814 5.315zM90.62 7.954c-1.251-.522-2.918-.835-4.794-.835-3.855 0-6.254 2.293-6.254 5.003s1.77 3.856 4.275 4.69c2.604.937 3.334 1.667 3.334 2.918 0 1.25-.938 2.396-2.606 2.396-1.98 0-3.44-1.146-4.585-4.273l-.73.21.105 4.585c1.25.52 3.543.939 5.523.939 4.065 0 6.671-2.086 6.671-5.316 0-2.189-1.147-3.439-3.856-4.482-2.92-1.146-3.96-1.875-3.96-3.23s.939-2.294 2.19-2.294c1.874 0 3.125 1.147 4.064 3.961l.73-.208-.107-4.064zm-44.087-.417c-1.77-1.042-4.898-.522-6.565 3.23l.103-3.647-6.982 1.355V9.1l.73.104c.939.105 1.354.626 1.46 1.98.207 2.502.103 6.88 0 9.068-.106 1.25-.521 1.875-1.46 1.98l-.73.105v.833h9.692v-.834l-1.25-.104c-1.042-.105-1.355-.73-1.46-1.98-.208-1.98-.208-5.94-.103-8.442.52-.73 2.813-1.354 4.898 0l1.667-4.273z" fill="#242E35"/></svg>