<svg width="155" height="29" viewBox="0 0 155 29" fill="none" xmlns="http://www.w3.org/2000/svg">
<path d="M14.0547 0L17.2102 9.71159H27.4216L19.1604 15.7137L22.3159 25.4253L14.0547 19.4232L5.79357 25.4253L8.94906 15.7137L0.687888 9.71159H10.8993L14.0547 0Z" fill="#00B67A"/>
<path d="M45.5373 0L48.6928 9.71159H58.9042L50.643 15.7137L53.7985 25.4253L45.5373 19.4232L37.2762 25.4253L40.4317 15.7137L32.1705 9.71159H42.3819L45.5373 0Z" fill="#00B67A"/>
<path d="M77.02 0L80.1755 9.71159H90.3869L82.1257 15.7137L85.2812 25.4253L77.02 19.4232L68.7588 25.4253L71.9143 15.7137L63.6532 9.71159H73.8645L77.02 0Z" fill="#00B67A"/>
<path d="M108.503 0L111.658 9.71159H121.869L113.608 15.7137L116.764 25.4253L108.503 19.4232L100.241 25.4253L103.397 15.7137L95.1358 9.71159H105.347L108.503 0Z" fill="#00B67A"/>
<path d="M139.985 0L143.141 9.71159H153.352L145.091 15.7137L148.246 25.4253L139.985 19.4232L131.724 25.4253L134.88 15.7137L126.618 9.71159H136.83L139.985 0Z" fill="#00B67A"/>
</svg>
