<svg width="90" height="29" fill="none" xmlns="http://www.w3.org/2000/svg"><path fill-rule="evenodd" clip-rule="evenodd" d="M27.88.165c.75-.2 1.499-.2 2.248-.1.85.15 1.649.4 2.348.85v1.948c-.45-.35-.899-.65-1.449-.85-.7-.3-1.449-.4-2.148-.35-.35.05-.7.1-1 .3-.2.1-.4.3-.499.5-.15.25-.15.55-.1.85.05.249.2.499.4.648.25.2.6.35.9.45.649.25 1.298.5 1.998.7.55.199 1.099.499 1.549.898.45.4.75.9.849 1.449.1.6.15 1.199 0 1.748-.15.5-.45.999-.85 1.349-.45.4-.949.649-1.498.799-.75.2-1.55.25-2.299.15-.949-.1-1.948-.4-2.748-.95V8.558c.95.799 2.199 1.298 3.448 1.298.55 0 1.099-.05 1.549-.3.25-.15.5-.35.6-.649.1-.3.1-.65 0-.999-.1-.3-.35-.55-.65-.699-.5-.3-1.05-.45-1.6-.65-.649-.249-1.298-.449-1.898-.798-.45-.25-.9-.6-1.149-1.05-.4-.599-.5-1.348-.4-2.047.05-.65.4-1.299.85-1.698.45-.4 1-.65 1.549-.8zM72.147.665c.75-.5 1.7-.65 2.599-.65 1.099 0 2.248.3 3.197.9v1.948c-.4-.3-.85-.6-1.299-.8-.8-.35-1.699-.5-2.598-.35-.45.1-.95.3-1.199.7-.25.5-.15 1.149.25 1.498.3.3.75.45 1.149.55.65.25 1.299.45 1.949.7.6.249 1.149.549 1.548.998.4.4.65.95.75 1.498.1.6.05 1.25-.2 1.849-.2.499-.55.899-1 1.248-.499.35-1.098.55-1.748.7-.85.15-1.749.1-2.598-.1-.7-.15-1.4-.4-1.999-.85V8.508c.75.599 1.65 1.048 2.648 1.198.4.1.85.1 1.25.05.45-.05.849-.1 1.249-.35.3-.2.5-.449.55-.799.05-.4 0-.849-.25-1.148-.25-.25-.55-.45-.9-.6-.55-.2-1.05-.4-1.599-.599-.5-.2-1.049-.35-1.499-.65-.45-.25-.85-.599-1.099-1.048a3.01 3.01 0 0 1-.4-1.449c-.05-.45.05-.899.2-1.348.2-.35.6-.8 1.05-1.1zM84.338.315c.55-.2 1.1-.3 1.649-.3 1.15 0 2.298.25 3.298.85.05 0 .05.05.05.1v1.898c-.45-.35-.95-.65-1.45-.85-.649-.25-1.398-.4-2.098-.35-.35.05-.75.1-1.05.3-.249.15-.449.35-.549.55-.2.5-.1 1.099.3 1.398.45.35 1 .5 1.549.7.6.25 1.25.45 1.849.699.55.25 1.099.6 1.449 1.099.4.55.55 1.199.55 1.848 0 .6-.15 1.199-.45 1.648-.35.5-.8.85-1.35 1.099-.6.25-1.199.4-1.848.4-.7.05-1.4-.05-2.099-.2-.65-.15-1.249-.4-1.798-.75V8.457c.949.799 2.198 1.298 3.447 1.298.55 0 1.1-.05 1.599-.3.25-.15.45-.349.55-.649.1-.3.1-.699 0-.999-.1-.3-.35-.55-.65-.699-.5-.3-1.05-.45-1.599-.65-.65-.249-1.299-.449-1.898-.798-.5-.25-.9-.65-1.2-1.15-.3-.499-.4-1.148-.4-1.747 0-.55.2-1.1.55-1.549.45-.35 1-.699 1.6-.899zM45.218.016c2.548 2.447 5.096 4.894 7.694 7.342V.215h1.849v11.388c-1.699-1.698-3.448-3.346-5.196-5.044-.85-.8-1.649-1.599-2.498-2.398v7.242h-1.85V.016zM0 .216h2.948c.7 0 1.399-.05 2.048.1.65.1 1.3.35 1.8.8.399.349.699.848.799 1.348.15.6.15 1.199-.05 1.798-.2.6-.65 1.149-1.25 1.398l.3.15c.55.3 1 .8 1.25 1.349.2.45.25.899.2 1.398-.05.6-.25 1.2-.65 1.699-.45.549-1.1.899-1.75 1.049-.599.15-1.148.15-1.748.15H0V.215zm1.849 1.648v3.047h2.248c.45 0 1-.1 1.35-.45.249-.249.399-.599.449-.948.05-.4-.05-.8-.3-1.1-.25-.299-.6-.399-.95-.499-.35-.05-.749-.05-1.149-.05H1.85zm0 4.596v3.246h2.398c.45 0 .9-.1 1.299-.35.35-.2.55-.549.6-.948.1-.4.05-.85-.2-1.25-.2-.299-.5-.499-.8-.598-.3-.1-.6-.15-.949-.15-.75.05-1.549.05-2.348.05zM12.141.215h1.899v5.794c0 .7-.05 1.348.15 2.048.15.55.4 1.049.849 1.398.45.35 1 .45 1.599.45.55 0 1.149-.1 1.599-.45.4-.3.65-.7.799-1.149.15-.549.2-1.098.2-1.648V.265h1.898v6.693c0 .899-.15 1.848-.6 2.647-.399.7-.998 1.299-1.748 1.598-.85.35-1.799.45-2.698.4-.65-.05-1.249-.2-1.849-.5-.4-.2-.799-.499-1.099-.899-.35-.4-.6-.949-.75-1.448-.2-.6-.249-1.249-.249-1.848V.215zM37.922.215h1.899v11.188h-1.899V.215zM59.806.215h6.795v1.698h-4.896V4.61h4.397V6.26h-4.397v3.446H66.6v1.698h-6.795v-9.09c0-.7-.05-1.399 0-2.098zM14.79 17.048l7.644 7.192v-7.042h1.8v11.188a1068.074 1068.074 0 0 1-7.596-7.342v7.142H14.84c-.05-3.696-.1-7.442-.05-11.138zM30.678 17.448c.7-.35 1.5-.45 2.299-.4 1.05.05 2.098.3 2.998.899v1.948c-.45-.35-.9-.65-1.45-.85-.699-.299-1.448-.399-2.148-.349-.35.05-.7.1-.999.3-.25.15-.4.35-.5.6-.15.449-.05.948.25 1.248.25.25.6.4.95.55.649.249 1.348.499 1.998.699.55.2 1.05.45 1.499.799.45.35.75.849.9 1.398.15.55.15 1.1.05 1.698-.1.55-.4 1.05-.8 1.399-.4.4-.95.65-1.5.85-.699.199-1.398.249-2.148.199-.749-.05-1.498-.2-2.148-.5-.3-.15-.6-.25-.85-.45V25.54c.95.8 2.2 1.249 3.448 1.299.55 0 1.1-.05 1.55-.3.299-.15.499-.4.599-.7.1-.3.1-.649-.05-.948-.1-.3-.4-.55-.65-.7-.5-.25-1-.45-1.549-.599-.6-.2-1.199-.4-1.748-.7-.5-.249-.95-.649-1.25-1.098-.3-.5-.45-1.099-.4-1.648 0-.55.15-1.1.45-1.549.25-.6.7-.949 1.2-1.148zM7.496 17.198h1.898v11.038H7.496V17.198zM41.37 17.198h1.898v11.038h-1.899V17.198zM48.765 17.198h4.347c1.15 0 2.298.3 3.198.999.8.549 1.349 1.348 1.699 2.247.25.75.4 1.549.35 2.348 0 1.149-.25 2.297-.9 3.246-.5.8-1.3 1.449-2.199 1.799-.699.3-1.448.4-2.198.4h-4.347c.05-3.697.05-7.343.05-11.04zm1.899 1.648v7.692h1.799c.35 0 .749 0 1.099-.05.7-.1 1.399-.35 1.898-.85.45-.399.75-.998.9-1.598.15-.599.2-1.198.15-1.798-.05-.55-.15-1.099-.4-1.598-.2-.5-.55-.899-1-1.199-.499-.35-1.099-.55-1.698-.6-.35-.049-.75 0-1.1-.049-.549.05-1.098.05-1.648.05zM62.355 17.198H69.1v1.648h-4.896v2.647h4.347v1.648h-4.347v3.397h4.897v1.648h-6.746V17.198zM74.696 17.198h4.147c.7 0 1.399.1 1.998.45.5.249.9.599 1.2 1.048.35.55.5 1.199.45 1.848 0 .65-.1 1.349-.45 1.898-.25.45-.65.75-1.1.95-.35.149-.7.249-1.049.299 1.35 1.498 2.648 2.997 3.997 4.545h-2.148c-1.3-1.498-2.548-2.997-3.847-4.445h-1.3v4.445h-1.898V17.198zm1.898 1.648v3.346h2.199c.5 0 1-.15 1.399-.5.25-.249.4-.549.45-.898.05-.4 0-.9-.25-1.249-.2-.35-.6-.55-1-.65-.4-.099-.799-.099-1.199-.099-.55.05-1.049.05-1.599.05z" fill="#242E35"/></svg>