<svg width="80" height="20" viewBox="0 0 80 20" fill="none" xmlns="http://www.w3.org/2000/svg">
<path d="M21.0264 6.95981L29.1198 6.95981L29.1198 8.46648L25.9331 8.46648L25.9331 16.9599L24.1864 16.9599L24.1864 8.46648L21.0131 8.46648L21.0264 6.95981ZM28.7731 9.71982L30.2664 9.71982L30.2664 11.1198L30.2931 11.1198C30.3464 10.9198 30.4398 10.7332 30.5731 10.5465C30.7064 10.3598 30.8664 10.1865 31.0665 10.0398C31.2531 9.87982 31.4665 9.75982 31.7065 9.66649C31.9331 9.57316 32.1731 9.51982 32.4131 9.51982C32.5998 9.51982 32.7331 9.53316 32.7998 9.53316C32.8665 9.54649 32.9465 9.55982 33.0131 9.55982L33.0131 11.0932C32.9065 11.0665 32.7865 11.0532 32.6665 11.0398C32.5465 11.0265 32.4398 11.0132 32.3198 11.0132C32.0531 11.0132 31.7998 11.0665 31.5598 11.1732C31.3198 11.2798 31.1198 11.4398 30.9331 11.6398C30.7598 11.8532 30.6131 12.1065 30.5064 12.4132C30.3998 12.7198 30.3464 13.0798 30.3464 13.4798L30.3464 16.9199L28.7464 16.9199L28.7731 9.71982ZM40.3465 16.9599L38.7732 16.9599L38.7732 15.9465L38.7465 15.9465C38.5465 16.3199 38.2532 16.5999 37.8665 16.8265C37.4798 17.0532 37.0798 17.1599 36.6798 17.1599C35.7331 17.1599 35.0398 16.9332 34.6131 16.4532C34.1865 15.9865 33.9731 15.2665 33.9731 14.3198L33.9731 9.71982L35.5731 9.71982L35.5731 14.1598C35.5731 14.7999 35.6931 15.2532 35.9465 15.5065C36.1865 15.7732 36.5331 15.9065 36.9731 15.9065C37.3065 15.9065 37.5865 15.8532 37.8132 15.7465C38.0398 15.6399 38.2265 15.5065 38.3598 15.3332C38.5065 15.1599 38.5998 14.9465 38.6665 14.7065C38.7332 14.4665 38.7598 14.1998 38.7598 13.9198L38.7598 9.71982L40.3598 9.71982L40.3598 16.9599L40.3465 16.9599ZM43.0665 14.6398C43.1199 15.1065 43.2932 15.4265 43.5999 15.6265C43.9065 15.8132 44.2799 15.9065 44.7065 15.9065C44.8532 15.9065 45.0265 15.8932 45.2132 15.8665C45.3999 15.8399 45.5865 15.7999 45.7465 15.7332C45.9199 15.6665 46.0532 15.5732 46.1599 15.4399C46.2665 15.3065 46.3199 15.1465 46.3065 14.9465C46.2932 14.7465 46.2265 14.5732 46.0799 14.4398C45.9332 14.3065 45.7599 14.2132 45.5465 14.1198C45.3332 14.0398 45.0799 13.9732 44.7999 13.9198C44.5199 13.8665 44.2399 13.7998 43.9465 13.7332C43.6532 13.6665 43.3599 13.5865 43.0799 13.4932C42.7998 13.3998 42.5598 13.2798 42.3332 13.1065C42.1198 12.9465 41.9332 12.7465 41.8132 12.4932C41.6798 12.2398 41.6132 11.9465 41.6132 11.5732C41.6132 11.1732 41.7065 10.8532 41.9065 10.5865C42.0932 10.3198 42.3465 10.1065 42.6398 9.94649C42.9332 9.78649 43.2665 9.66649 43.6265 9.59982C43.9865 9.53316 44.3332 9.50649 44.6532 9.50649C45.0265 9.50649 45.3865 9.54649 45.7199 9.62649C46.0532 9.70649 46.3732 9.82649 46.6399 10.0132C46.9199 10.1865 47.1465 10.4265 47.3199 10.7065C47.5065 10.9865 47.6132 11.3332 47.6665 11.7332L45.9999 11.7332C45.9199 11.3465 45.7465 11.0932 45.4799 10.9598C45.1999 10.8265 44.8932 10.7598 44.5332 10.7598C44.4265 10.7598 44.2799 10.7732 44.1332 10.7865C43.9732 10.8132 43.8399 10.8398 43.6932 10.8932C43.5599 10.9465 43.4399 11.0265 43.3465 11.1198C43.2532 11.2132 43.1999 11.3465 43.1999 11.5065C43.1999 11.7065 43.2665 11.8532 43.3999 11.9732C43.5332 12.0932 43.7065 12.1865 43.9332 12.2798C44.1465 12.3598 44.3999 12.4265 44.6799 12.4798C44.9599 12.5332 45.2532 12.5998 45.5465 12.6665C45.8399 12.7332 46.1199 12.8132 46.3999 12.9065C46.6799 12.9998 46.9332 13.1198 47.1465 13.2932C47.3599 13.4532 47.5465 13.6532 47.6799 13.8932C47.8132 14.1332 47.8799 14.4398 47.8799 14.7865C47.8799 15.2132 47.7865 15.5732 47.5865 15.8799C47.3865 16.1732 47.1332 16.4265 46.8265 16.6132C46.5199 16.7999 46.1599 16.9332 45.7865 17.0265C45.3999 17.1065 45.0265 17.1599 44.6532 17.1599C44.1999 17.1599 43.7732 17.1065 43.3865 16.9999C42.9999 16.8932 42.6532 16.7332 42.3732 16.5332C42.0932 16.3199 41.8665 16.0665 41.7065 15.7465C41.5465 15.4399 41.4532 15.0665 41.4398 14.6265L43.0532 14.6265L43.0532 14.6398L43.0665 14.6398ZM48.3332 9.71982L49.5466 9.71982L49.5466 7.53315L51.1466 7.53315L51.1466 9.70649L52.5866 9.70649L52.5866 10.8932L51.1466 10.8932L51.1466 14.7599C51.1466 14.9332 51.1599 15.0665 51.1732 15.1999C51.1866 15.3199 51.2266 15.4265 51.2666 15.5065C51.3199 15.5865 51.3999 15.6532 51.4932 15.6932C51.5999 15.7332 51.7332 15.7599 51.9199 15.7599C52.0266 15.7599 52.1466 15.7599 52.2532 15.7465C52.3599 15.7332 52.4799 15.7199 52.5866 15.6932L52.5866 16.9332C52.4132 16.9599 52.2399 16.9732 52.0666 16.9865C51.8932 17.0132 51.7332 17.0132 51.5466 17.0132C51.1199 17.0132 50.7866 16.9732 50.5332 16.8932C50.2799 16.8132 50.0799 16.6932 49.9332 16.5465C49.7866 16.3865 49.6932 16.1999 49.6399 15.9732C49.5866 15.7465 49.5599 15.4665 49.5466 15.1732L49.5466 10.9065L48.3332 10.9065L48.3332 9.69316L48.3332 9.71982ZM53.7066 9.71982L55.2133 9.71982L55.2133 10.7065L55.2399 10.7065C55.4666 10.2798 55.7733 9.98649 56.1733 9.79983C56.5733 9.61316 56.9999 9.51982 57.4799 9.51982C58.0533 9.51982 58.5466 9.61316 58.9733 9.82649C59.3999 10.0265 59.7466 10.2932 60.0266 10.6532C60.3066 10.9998 60.52 11.4132 60.6533 11.8798C60.7866 12.3465 60.8666 12.8532 60.8666 13.3732C60.8666 13.8665 60.8 14.3332 60.68 14.7865C60.5466 15.2399 60.3599 15.6532 60.1066 15.9999C59.8533 16.3465 59.5333 16.6265 59.1333 16.8399C58.7333 17.0532 58.2799 17.1599 57.7466 17.1599C57.5199 17.1599 57.2799 17.1332 57.0533 17.0932C56.8266 17.0532 56.5999 16.9865 56.3866 16.8932C56.1733 16.7999 55.9733 16.6799 55.7999 16.5332C55.6133 16.3865 55.4666 16.2132 55.3466 16.0265L55.3199 16.0265L55.3199 19.6399L53.7199 19.6399L53.7199 9.71982L53.7066 9.71982ZM59.2933 13.3465C59.2933 13.0265 59.2533 12.7065 59.1599 12.3998C59.0799 12.0932 58.9466 11.8265 58.7733 11.5865C58.5999 11.3465 58.3866 11.1598 58.1466 11.0132C57.8933 10.8665 57.5999 10.7998 57.2799 10.7998C56.6133 10.7998 56.1066 11.0265 55.7599 11.4932C55.4266 11.9598 55.2533 12.5865 55.2533 13.3598C55.2533 13.7332 55.2933 14.0665 55.3866 14.3732C55.4799 14.6798 55.5999 14.9465 55.7866 15.1732C55.9599 15.3999 56.1733 15.5732 56.4266 15.7065C56.6799 15.8399 56.9599 15.9065 57.2933 15.9065C57.6666 15.9065 57.9599 15.8265 58.2133 15.6799C58.4666 15.5332 58.6666 15.3332 58.8399 15.1065C58.9999 14.8665 59.1199 14.5999 59.1866 14.2932C59.2533 13.9732 59.2933 13.6665 59.2933 13.3465ZM62.1066 6.95981L63.7066 6.95981L63.7066 8.46649L62.1066 8.46649L62.1066 6.95981ZM62.1066 9.71982L63.7066 9.71982L63.7066 16.9599L62.1066 16.9599L62.1066 9.71982ZM65.1333 6.95981L66.7333 6.95981L66.7333 16.9599L65.1333 16.9599L65.1333 6.95981ZM71.6133 17.1599C71.04 17.1599 70.52 17.0665 70.0667 16.8665C69.6133 16.6665 69.24 16.4132 68.92 16.0799C68.6133 15.7465 68.3733 15.3332 68.2133 14.8665C68.0533 14.3999 67.96 13.8798 67.96 13.3332C67.96 12.7865 68.04 12.2798 68.2133 11.8132C68.3733 11.3465 68.6133 10.9465 68.92 10.5998C69.2267 10.2665 69.6133 9.99983 70.0667 9.81316C70.52 9.62649 71.04 9.51982 71.6133 9.51982C72.1867 9.51982 72.7067 9.61316 73.16 9.81316C73.6134 9.99983 73.9867 10.2665 74.3067 10.5998C74.6134 10.9332 74.8534 11.3465 75.0134 11.8132C75.1734 12.2798 75.2667 12.7865 75.2667 13.3332C75.2667 13.8932 75.1867 14.3999 75.0134 14.8665C74.84 15.3332 74.6134 15.7332 74.3067 16.0799C74 16.4132 73.6134 16.6799 73.16 16.8665C72.7067 17.0532 72.2 17.1599 71.6133 17.1599ZM71.6133 15.8932C71.96 15.8932 72.28 15.8132 72.5334 15.6665C72.8 15.5199 73 15.3199 73.1734 15.0799C73.3467 14.8399 73.4667 14.5599 73.5467 14.2665C73.6267 13.9598 73.6667 13.6532 73.6667 13.3332C73.6667 13.0265 73.6267 12.7198 73.5467 12.4132C73.4667 12.1065 73.3467 11.8398 73.1734 11.5998C73 11.3598 72.7867 11.1732 72.5334 11.0265C72.2667 10.8798 71.96 10.7998 71.6133 10.7998C71.2667 10.7998 70.9467 10.8798 70.6933 11.0265C70.4267 11.1732 70.2267 11.3732 70.0533 11.5998C69.88 11.8398 69.76 12.1065 69.68 12.4132C69.6 12.7198 69.56 13.0265 69.56 13.3332C69.56 13.6532 69.6 13.9598 69.68 14.2665C69.76 14.5732 69.88 14.8399 70.0533 15.0799C70.2267 15.3199 70.44 15.5199 70.6933 15.6665C70.96 15.8265 71.2667 15.8932 71.6133 15.8932ZM75.7467 9.71983L76.96 9.71983L76.96 7.53315L78.5601 7.53315L78.5601 9.70649L80.0001 9.70649L80.0001 10.8932L78.5601 10.8932L78.5601 14.7599C78.5601 14.9332 78.5734 15.0665 78.5867 15.1999C78.6001 15.3199 78.64 15.4265 78.68 15.5065C78.7334 15.5865 78.8134 15.6532 78.9067 15.6932C79.0134 15.7332 79.1467 15.7599 79.3334 15.7599C79.4401 15.7599 79.5601 15.7599 79.6667 15.7465C79.7734 15.7332 79.8934 15.7199 80.0001 15.6932L80.0001 16.9332C79.8267 16.9599 79.6534 16.9732 79.4801 16.9865C79.3067 17.0132 79.1467 17.0132 78.9601 17.0132C78.5334 17.0132 78.2 16.9732 77.9467 16.8932C77.6934 16.8132 77.4934 16.6932 77.3467 16.5465C77.2 16.3865 77.1067 16.1999 77.0534 15.9732C77 15.7465 76.9734 15.4665 76.96 15.1732L76.96 10.9065L75.7467 10.9065L75.7467 9.69316L75.7467 9.71983Z" fill="#242E35"/>
<path d="M19.1601 6.96004L11.8401 6.96004L9.58672 8.38098e-07L7.32004 6.96004L-6.073e-07 6.94671L5.92003 11.2534L3.65335 18.2134L9.57338 13.9067L15.4934 18.2134L13.2401 11.2534L19.1601 6.96004Z" fill="#00B67A"/>
<path d="M13.7467 12.8267L13.24 11.2534L9.58667 13.9067L13.7467 12.8267Z" fill="#005128"/>
</svg>


