<svg width="50" height="28" fill="none" xmlns="http://www.w3.org/2000/svg"><path d="M49.839 1.967h-.727c-.904 0-1.466.427-1.466 1.53V22.06c0 4.167-2.616 5.718-5.96 5.718-2.387 0-4.79-1.952-4.79-5.718 0-2.019 1.256-2.89 2.264-2.89 1.044 0 1.797.737 1.797 1.99 0 1.606-.938 2.283-2.16 2.458 0 1.377 1.052 2.968 2.854 2.968 1.736 0 2.336-.96 2.336-3.827V3.497c0-1.1-.529-1.53-1.434-1.53h-.83V.961h8.117v1.006h-.001zM29.43 27.693c3.336 0 6.191-1.94 6.191-6.646 0-4.837-2.345-7.328-5.387-9.69-2.75-2.128-4.231-3.547-4.231-6.047 0-2.113 1.067-3.428 2.866-3.428 2.958 0 4.458 3 4.458 7.98v.264h.897V.945h-.663l-.669 1.303c-.656-.564-1.799-1.572-4.259-1.572-2.956 0-5.423 2.086-5.423 6.098 0 3.881 2.313 6.213 4.82 8.119 2.775 2.089 4.694 4.327 4.694 7.377 0 2.491-1.194 4.231-3.558 4.231-1.624 0-4.857-1.461-4.857-7.878v-.27h-.897v9.14h.699l.628-1.393c1.164.797 2.27 1.593 4.691 1.593zM23.762 1.684h.268V.676h-6.025v1.008h.2c1.412 0 1.766.46 1.766 1.423 0 .197-.026.505-.069.732L17.04 19.383h-.066L13.942 3.875a4.432 4.432 0 0 1-.097-.834c.002-.91.333-1.357 1.599-1.357h.13V.676H8.455v1.008h.163c1.074 0 1.379.494 1.634 1.823l1.027 5.387-1.964 10.69h-.062L6.225 3.341a4.342 4.342 0 0 1-.066-.66c0-.7.26-.997 1.294-.997h.135V.676H.4v1.007H.5c1.353 0 1.792.298 2.094 1.823l4.76 23.99h1.5l3.093-15.3h.033l3.03 15.3h1.5l4.857-23.39c.456-2.19 1.113-2.422 2.395-2.422z" fill="#242E35"/></svg>