<svg width="70" height="26" fill="none" xmlns="http://www.w3.org/2000/svg"><path d="M28.904.55c0 1.871 0 3.743-.003 5.617 0 .022.003.044.005.085.111-.117.206-.223.306-.321.634-.618 1.404-.904 2.273-.939.783-.033 1.528.114 2.191.558.756.503 1.187 1.235 1.423 2.097.13.47.187.952.187 1.437.005 2.198.002 4.396.002 6.597 0 .04-.005.079-.008.125h-3.708v-.155c0-1.845.005-3.69-.006-5.536 0-.272-.03-.555-.103-.817-.206-.74-.831-.965-1.454-.846-.602.117-.894.542-1.021 1.102a3.199 3.199 0 0 0-.066.702c-.005 1.79-.002 3.58-.002 5.373v.18h-3.717V.757c0-.069-.008-.134-.013-.202C26.43.55 27.666.55 28.904.55zM.488 5.228c.06.003.116.009.176.009 1.24 0 2.484.002 3.725-.003.102 0 .149.033.184.125.766 1.978 1.536 3.953 2.305 5.928l.062.152c.103-.26.198-.492.287-.723.697-1.777 1.395-3.553 2.089-5.33.043-.111.092-.155.22-.155 1.197.006 2.391.003 3.588.003h.177l-.453 1.096-3.84 9.304L7.36 19.62c-.032.076-.068.111-.157.111-1.24-.003-2.484-.003-3.725-.003-.03 0-.06-.005-.105-.01.103-.248.203-.485.303-.721.42-1.002.843-2 1.26-3.004a.302.302 0 0 0-.003-.212C3.603 12.614 2.268 9.445.929 6.276c-.146-.343-.295-.68-.441-1.02v-.028zM69.4.577c-.146.343-.295.685-.438 1.03-1.149 2.784-2.295 5.57-3.44 8.355-.052.128-.114.172-.255.172-1.336-.006-2.671-.003-4.006-.003h-.215l.063-.16L64.958.627c.01-.024.019-.051.027-.076h4.307c.035-.002.073.017.108.025zM42.665 25.904c-.127-.021-.257-.038-.385-.062-.82-.158-1.422-.62-1.842-1.338-.37-.634-.495-1.328-.439-2.049.07-.917.418-1.706 1.144-2.299.84-.685 2.118-.759 2.96-.158.141.101.26.232.407.365v-.588c.062-.005.11-.01.157-.01.604 0 1.208.002 1.815-.003.124 0 .16.038.16.163-.003 1.877-.003 3.751 0 5.628 0 .131-.036.172-.166.17-.604-.006-1.208-.006-1.815 0-.122 0-.157-.039-.149-.159.011-.141.003-.285.003-.462-.049.043-.076.063-.098.087-.368.416-.834.631-1.381.683-.043.003-.087.022-.13.032h-.241zm1.91-3.163c.002-.683-.531-1.214-1.217-1.227-.68-.014-1.267.506-1.267 1.221 0 .721.59 1.238 1.248 1.227.7-.01 1.233-.528 1.236-1.221zM62.086 25.904l-.585-.087c-1.156-.18-2.045-1.015-2.313-2.171-.195-.849-.141-1.673.279-2.448a2.925 2.925 0 0 1 1.97-1.51c.752-.18 1.497-.133 2.204.204.824.392 1.32 1.055 1.552 1.929.125.473.157.952.098 1.452h-4.099c-.027.202.055.36.155.498.246.34.601.46 1.005.444.352-.014.642-.158.867-.433.019-.022.073-.035.102-.027.588.223 1.173.451 1.772.68-.314.53-.742.911-1.29 1.153a3.325 3.325 0 0 1-1.2.283c-.048.003-.094.022-.14.033h-.377zm-.877-3.86h2.007c.03-.416-.415-.816-.918-.83-.615-.016-1.098.348-1.09.83zM57.048 25.904c-.168-.027-.336-.049-.501-.081-1.227-.245-2.059-.955-2.37-2.177-.293-1.15-.098-2.222.736-3.117.431-.463.976-.737 1.593-.86.691-.136 1.371-.1 2.026.18.044.019.103.076.103.117.006.614.006 1.232.006 1.855-.182-.073-.352-.158-.528-.215-.41-.125-.818-.117-1.211.07-.496.238-.74.738-.642 1.31.078.467.512.864 1.002.943.447.071.859-.008 1.249-.23.038-.023.078-.039.135-.066v.383c0 .477-.002.953 0 1.429 0 .09-.027.138-.11.174-.331.141-.67.234-1.03.256-.063.002-.125.018-.184.03h-.274zM20.374 6.173v-.928h3.575v10.558h-3.578v-.976c-.076.087-.127.15-.182.207-.53.57-1.2.875-1.955.992-2.333.357-4.46-.976-5.302-3.226-.698-1.86-.571-3.686.458-5.403.704-1.175 1.723-1.967 3.07-2.282 1.113-.261 2.19-.158 3.177.465.262.163.49.392.737.593zm-4.275 4.355c-.01 1.2.94 2.174 2.13 2.185 1.24.01 2.204-.914 2.229-2.108.027-1.203-.865-2.228-2.135-2.245-1.254-.019-2.213.923-2.224 2.168zM47.351 10.539c-.014 2.69-1.78 4.894-4.415 5.419-1.707.34-3.308.052-4.722-1.01-1.186-.886-1.866-2.091-2.075-3.56-.192-1.355.027-2.64.748-3.812.774-1.26 1.899-2.064 3.324-2.407 1.728-.416 3.364-.183 4.84.849 1.214.846 1.929 2.032 2.186 3.493.06.34.079.685.114 1.028zm-5.642 2.13c1.197-.003 2.099-.928 2.096-2.144-.003-1.208-.913-2.124-2.102-2.122-1.208.003-2.107.92-2.102 2.15 0 1.202.916 2.119 2.108 2.116zM59.23 10.449c-.034 1.815-.647 3.259-1.971 4.366a5.367 5.367 0 0 1-2.663 1.186c-1.338.21-2.62.041-3.814-.617-1.506-.83-2.416-2.111-2.717-3.803-.263-1.475-.027-2.873.805-4.135.88-1.342 2.145-2.109 3.71-2.375 1.252-.213 2.471-.071 3.611.497 1.696.85 2.68 2.234 2.972 4.111.04.288.052.58.068.77zm-5.642 2.22c1.203.005 2.102-.912 2.11-2.144.006-1.191-.904-2.116-2.088-2.122a2.07 2.07 0 0 0-2.116 2.095c-.008 1.238.886 2.165 2.094 2.17zM49.759 20.411c.1-.114.195-.237.303-.34.323-.302.71-.454 1.149-.473.436-.022.856.032 1.235.264.558.337.835.862.93 1.488.043.288.053.585.056.878.006 1.157.003 2.313.003 3.472-.022.008-.043.019-.062.019-.645-.003-1.29-.008-1.937-.003-.125 0-.16-.038-.157-.163.005-1.02.002-2.04.002-3.06 0-.216-.03-.428-.143-.613-.29-.47-.986-.446-1.268.044-.12.207-.143.438-.143.669-.003.974 0 1.948 0 2.924 0 .196 0 .196-.19.196-.618.003-1.235.003-1.856.006-.075 0-.108-.025-.105-.1.002-.104 0-.21 0-.314 0-1.798 0-3.599-.003-5.397 0-.109.027-.152.144-.15.628.006 1.254.003 1.882 0 .103 0 .133.038.13.136-.005.172-.002.34-.002.512.01.002.021.002.032.005zM35.664 25.717h-.243c-.604.003-1.209.003-1.815.008-.07 0-.1-.022-.098-.092.003-.115 0-.226 0-.34 0-1.79 0-3.58-.003-5.37 0-.123.033-.164.16-.164.61.006 1.22.003 1.829.003h.17v.647l.03.006c.06-.076.117-.155.182-.229.333-.372.756-.557 1.251-.587.48-.03.935.04 1.341.32.528.365.767.898.853 1.51.027.188.033.379.033.57.002 1.183 0 2.366.005 3.547 0 .127-.032.17-.165.17-.615-.005-1.227-.005-1.842 0-.116 0-.154-.029-.154-.151.005-1.048.005-2.095.002-3.143 0-.285-.07-.55-.309-.737a.75.75 0 0 0-1.162.392c-.038.109-.06.228-.06.345-.005 1.026-.005 2.049-.005 3.075v.22zM26.017 25.716v-4.043c0-.187 0-.187-.182-.187-.162 0-.325-.003-.488.002-.084.003-.124-.019-.124-.111.003-.503.003-1.007 0-1.51 0-.087.038-.106.116-.106.182.003.36-.005.542.003.111.005.138-.041.136-.145-.003-.418.04-.832.19-1.227.322-.862.955-1.346 1.844-1.507.498-.09.994-.076 1.484.071.128.038.18.093.176.234-.008.53-.002 1.061-.002 1.586-.187-.032-.366-.076-.545-.092-.645-.055-1.035.34-1.002.99.005.098.068.092.133.092h1.137c.195 0 .195 0 .195.199 0 .468-.002.933.003 1.401 0 .103-.032.13-.133.128-.398-.006-.793 0-1.192-.006-.113-.002-.143.036-.143.147.003 1.292.003 2.585.003 3.877 0 .226.021.212-.209.21a137.59 137.59 0 0 0-1.828 0c-.033-.006-.063-.006-.111-.006zM62.194 11.07a2.371 2.371 0 0 1 2.408 2.39c.009 1.415-1.08 2.534-2.467 2.539-1.379.005-2.435-1.045-2.44-2.418a2.488 2.488 0 0 1 2.5-2.511zM32.56 22.73c0 .938-.003 1.876.002 2.812 0 .139-.043.177-.178.177-.604-.005-1.209-.005-1.815 0-.13 0-.168-.04-.168-.171.003-1.877.003-3.752 0-5.629 0-.128.038-.163.16-.16.617.005 1.235.005 1.855 0 .109 0 .147.021.147.141-.006.944-.003 1.885-.003 2.83zM32.69 17.982c.03.585-.5 1.213-1.24 1.194a1.195 1.195 0 0 1 .049-2.391c.693.002 1.221.6 1.192 1.197z" fill="#242E35"/></svg>