<svg width="155" height="30" viewBox="0 0 155 30" fill="none" xmlns="http://www.w3.org/2000/svg">
<path d="M14.0547 1L17.2102 10.7116H27.4216L19.1604 16.7137L22.3159 26.4253L14.0547 20.4232L5.79357 26.4253L8.94906 16.7137L0.687888 10.7116H10.8993L14.0547 1Z" fill="#FFB72C"/>
<path d="M45.5374 1L48.6929 10.7116H58.9043L50.6431 16.7137L53.7986 26.4253L45.5374 20.4232L37.2762 26.4253L40.4317 16.7137L32.1706 10.7116H42.3819L45.5374 1Z" fill="#FFB72C"/>
<path d="M77.0201 1L80.1756 10.7116H90.3869L82.1258 16.7137L85.2812 26.4253L77.0201 20.4232L68.7589 26.4253L71.9144 16.7137L63.6532 10.7116H73.8646L77.0201 1Z" fill="#FFB72C"/>
<path d="M108.503 1L111.658 10.7116H121.87L113.608 16.7137L116.764 26.4253L108.503 20.4232L100.242 26.4253L103.397 16.7137L95.1359 10.7116H105.347L108.503 1Z" fill="#FFB72C"/>
<path d="M139.985 1L143.141 10.7116H153.352L145.091 16.7137L148.246 26.4253L139.985 20.4232L131.724 26.4253L134.879 16.7137L126.618 10.7116H136.83L139.985 1Z" fill="#FFB72C"/>
<path d="M143.589 10.5492L140.52 1V20.0983L148.554 26L145.486 16.4508L153.52 10.5492H143.589Z" fill="white" stroke="#FFB72C" stroke-linejoin="round"/>
</svg>
