<svg width="542" height="526" viewBox="0 0 542 526" fill="none" xmlns="http://www.w3.org/2000/svg">
<path d="M1.5 397C0.947715 397 0.5 397.448 0.5 398C0.5 398.552 0.947715 399 1.5 399V397ZM78 456L78.9894 456.145L78 456ZM154.394 437.6C153.911 437.332 153.303 437.506 153.035 437.989C152.767 438.472 152.941 439.08 153.424 439.348L154.394 437.6ZM1.5 399C20.825 399 35.5418 400.323 46.6639 402.862C57.7875 405.401 65.2414 409.139 70.1223 413.913C79.8408 423.419 79.7234 437.408 77.0106 455.855L78.9894 456.145C81.6889 437.788 82.0441 422.777 71.5208 412.484C66.2808 407.358 58.4352 403.497 47.1089 400.912C35.7811 398.326 20.8975 397 1.5 397V399ZM77.0106 455.855C76.0434 462.431 77.2562 467.613 80.1553 471.513C83.041 475.394 87.5005 477.876 92.7835 479.264C103.322 482.032 117.476 480.545 130.337 476.705C143.181 472.871 155.012 466.607 160.789 459.577C163.693 456.044 165.173 452.178 164.259 448.276C163.351 444.397 160.145 440.791 154.394 437.6L153.424 439.348C158.946 442.413 161.588 445.641 162.312 448.732C163.031 451.8 161.929 455.04 159.244 458.307C153.844 464.878 142.473 470.995 129.765 474.789C117.075 478.577 103.329 479.966 93.2917 477.329C88.2871 476.014 84.2903 473.723 81.7604 470.319C79.2438 466.934 78.0816 462.319 78.9894 456.145L77.0106 455.855Z" fill="#513011"/>
<circle r="28.6074" transform="matrix(-0.991425 -0.130674 -0.130674 0.991425 140.885 414.281)" fill="#E6C9C9"/>
<path d="M135.675 429.877C143.917 430.963 159.854 430.548 157.667 420.198C155.716 412.542 157.266 412.006 161.477 408.122C165.689 404.238 163.546 398.037 159.662 393.826C155.778 389.614 154.034 387.131 155.282 382.15C157.257 374.266 149.545 369.556 142.959 374.607C136.374 379.658 131.229 357.615 122.963 357.914C109.779 358.39 119.355 374.06 112.714 373.924C106.073 373.789 98.5597 376.148 97.8888 381.239C97.2458 386.117 103.43 389.717 102.224 393.258C100.949 396.997 97.347 407.802 107.624 408.417" stroke="#513011" stroke-width="2" stroke-linecap="round" stroke-linejoin="round"/>
<path d="M137.105 447.083L140.268 423.084C142.514 422.887 147.139 421.474 147.676 417.402C148.347 412.311 144.998 409.65 139.18 408.883C133.363 408.116 137.23 401.227 133.058 399.198C128.887 397.168 126.513 398.335 124.371 392.134C122.229 385.933 118.249 382.449 116.851 387.443C115.453 392.438 116.867 398.543 112.504 397.968C109.013 397.508 107.065 413.035 106.528 420.856C105.985 424.977 107.08 433.507 115.807 434.657C126.715 436.095 113.513 423.996 111.116 442.177" stroke="#513011" stroke-width="2" stroke-linecap="round" stroke-linejoin="round"/>
<path d="M111.714 420.8C112.313 421.866 115.043 423.607 121.168 422.046" stroke="#513011" stroke-width="2" stroke-linecap="round" stroke-linejoin="round"/>
<circle r="30.162" transform="matrix(-1 0 0 1 298.11 338.606)" fill="#E0E5CD"/>
<path d="M312.151 354.818C311.635 356.365 276.169 380.273 278.489 364.58C280.425 351.485 256.061 356.073 270.755 361.487C285.449 366.901 290.863 355.3 290.863 348.339C290.863 341.379 286.996 334.418 276.169 333.645C267.507 333.026 264.826 338.543 264.568 341.378C264.31 340.09 262.712 335.037 264.568 325.137C266.888 312.763 256.834 305.803 259.928 313.537C263.021 321.271 263.021 308.123 266.115 304.256C269.208 300.389 270.755 307.349 275.395 304.256C280.036 301.162 290.09 321.27 297.05 325.137C304.01 329.004 310.198 323.591 310.198 331.324C310.198 337.511 305.042 340.605 302.464 341.378V369.994" stroke="#513011" stroke-width="2" stroke-linecap="round" stroke-linejoin="round"/>
<path d="M302.463 348.339C306.33 346.534 314.219 341.069 314.838 333.645C315.611 324.364 327.212 301.163 307.877 302.71C306.33 298.07 304.01 286.469 287.769 287.242C271.528 288.016 259.154 279.508 253.74 292.655C248.425 305.563 256.06 311.732 259.154 311.217" stroke="#513011" stroke-width="2" stroke-linecap="round" stroke-linejoin="round"/>
<path d="M270.268 347.113C271.042 348.145 274.135 349.588 280.322 347.113" stroke="#513011" stroke-width="2" stroke-linecap="round" stroke-linejoin="round"/>
<circle r="28.2625" transform="matrix(-1 0 0 1 228.986 137.901)" fill="#C5D5E4"/>
<path d="M224.433 166.479V133.868C226.366 132.66 230.231 129.085 230.231 124.447C230.231 118.65 226.607 121.549 219.361 118.65C212.114 115.751 200.519 98.359 195.446 104.156C191.388 108.794 190.856 122.998 191.098 129.52C191.098 137.492 194.287 152.855 207.041 150.536C222.984 147.637 202.693 139.15 195.446 157.991C188.199 176.833 183.33 161.615 182.606 160.89" stroke="#513011" stroke-width="2" stroke-linecap="round" stroke-linejoin="round"/>
<path d="M193.476 95.6686C194.635 101.637 200.897 114.34 216.666 117.409" stroke="#513011" stroke-width="2" stroke-linecap="round" stroke-linejoin="round"/>
<path d="M191.098 120.099C187.233 113.818 177.932 100.185 184.78 90.5964C192.027 80.4502 224.468 85.5879 234.058 94.2194C241.305 100.742 247.623 108.504 246.173 130.245C244.724 151.985 260.667 149.086 258.493 142.564C256.319 136.042 247.828 160.89 249.277 163.064" stroke="#513011" stroke-width="2" stroke-linecap="round" stroke-linejoin="round"/>
<path d="M250.361 171.619C250.402 171.069 249.988 170.589 249.438 170.548C248.887 170.507 248.407 170.921 248.366 171.472L250.361 171.619ZM304.515 215.667L304.262 214.699L304.515 215.667ZM374.939 274.212L373.946 274.097L374.939 274.212ZM319.247 349.735C318.783 350.033 318.648 350.652 318.947 351.116C319.246 351.581 319.864 351.716 320.329 351.417L319.247 349.735ZM248.366 171.472C247.502 183.143 250.992 197.181 260.042 206.949C269.153 216.783 283.763 222.144 304.769 216.634L304.262 214.699C283.861 220.05 270.047 214.805 261.509 205.59C252.911 196.31 249.529 182.857 250.361 171.619L248.366 171.472ZM304.769 216.634C330.471 209.893 348.944 213.541 360.369 224.039C371.813 234.555 376.472 252.204 373.946 274.097L375.933 274.327C378.498 252.099 373.824 233.687 361.722 222.567C349.602 211.429 330.317 207.865 304.262 214.699L304.769 216.634ZM373.946 274.097C372.396 287.533 364.666 302.636 354.291 316.331C343.928 330.011 331.013 342.171 319.247 349.735L320.329 351.417C332.321 343.708 345.402 331.377 355.885 317.539C366.357 303.716 374.324 288.273 375.933 274.327L373.946 274.097Z" fill="#513011"/>
<path d="M198.549 136.251C199.274 137.217 202.172 138.57 207.97 136.251" stroke="#513011" stroke-width="2" stroke-linecap="round" stroke-linejoin="round"/>
<path d="M318.697 1C351.069 40.8404 309.076 114.618 361.49 127.174C413.904 139.73 426.681 90.4636 452.424 106.559C478.166 122.655 421.044 207.316 452.424 228.113C483.803 248.91 535.651 175.29 541 161.073" stroke="#513011" stroke-width="2" stroke-linecap="round" stroke-linejoin="round"/>
<path d="M541 407C536.413 423.233 525.364 484.418 450.936 461.317C395.346 444.064 370.046 505.646 364 525" stroke="#513011" stroke-width="2" stroke-linecap="round" stroke-linejoin="round"/>
<circle cx="301.411" cy="168.411" r="7.44737" transform="rotate(-18.3234 301.411 168.411)" fill="#E0E5CD"/>
<circle cx="393.682" cy="377.682" r="12.4101" transform="rotate(-18.3234 393.682 377.682)" fill="#E0E5CD"/>
<circle cx="156.633" cy="270.633" r="4.45758" transform="rotate(-18.3234 156.633 270.633)" fill="#C5D5E4"/>
<circle cx="490.633" cy="438.391" r="4.45758" transform="rotate(-18.3234 490.633 438.391)" fill="#C5D5E4"/>
<circle cx="107.633" cy="78.633" r="4.45758" transform="rotate(-18.3234 107.633 78.633)" fill="#C5D5E4"/>
<circle cx="411.372" cy="37.372" r="8.20777" transform="rotate(-18.3234 411.372 37.372)" fill="#EFDDC7"/>
<circle cx="325.322" cy="483.322" r="5.00295" transform="rotate(-18.3234 325.322 483.322)" fill="#E6C9C9"/>
<path d="M456.847 314.258L450.768 311.528L451.405 310.155L456.044 301.664L447.168 302.824L445.683 302.781L445.649 295.825L447.232 295.921L455.801 297.458L451.994 289.406L451.542 287.952L457.954 285.962L458.405 287.417L459.752 296.232L466.019 290.09L467.194 289.137L471.18 294.868L469.906 295.767L461.859 299.859L470.415 304.254L471.792 305.002L468.253 310.718L467.076 309.824L459.759 303.365L457.31 312.855L456.847 314.258Z" fill="#C5D5E4"/>
<path d="M262.682 374.291C263.128 373.965 263.224 373.339 262.897 372.894C262.571 372.448 261.945 372.352 261.5 372.679L262.682 374.291ZM210.333 367.546L211.016 366.815L210.333 367.546ZM144.407 345.529C143.962 345.856 143.867 346.482 144.195 346.927C144.523 347.371 145.149 347.466 145.593 347.139L144.407 345.529ZM261.5 372.679C253.284 378.703 231.61 386.081 211.016 366.815L209.65 368.276C231.141 388.381 253.928 380.711 262.682 374.291L261.5 372.679ZM211.016 366.815C197.816 354.467 185.391 346.087 174.167 342.31C162.909 338.521 152.792 339.35 144.407 345.529L145.593 347.139C153.329 341.438 162.728 340.57 173.53 344.206C184.367 347.853 196.547 356.019 209.65 368.276L211.016 366.815Z" fill="#513011"/>
</svg>
