<svg width="336" height="301" viewBox="0 0 336 301" fill="none" xmlns="http://www.w3.org/2000/svg">
<circle r="18.3242" transform="matrix(-1 0 0 1 305.36 59.8529)" fill="#C5D5E4"/>
<path d="M302.408 78.3813V57.238C303.661 56.4549 306.167 54.137 306.167 51.1299C306.167 47.3711 303.818 49.2505 299.119 47.3711C294.421 45.4917 286.903 34.2152 283.614 37.9741C280.983 40.9811 280.638 50.1902 280.795 54.4188C280.795 59.5872 282.862 69.5481 291.132 68.0446C301.468 66.1651 288.313 60.6623 283.614 72.8784C278.916 85.0946 275.759 75.2277 275.289 74.7578" stroke="#513011" stroke-width="1.5" stroke-linecap="round" stroke-linejoin="round"/>
<path d="M282.338 32.4709C283.09 36.3403 287.149 44.5765 297.373 46.5664" stroke="#513011" stroke-width="1.5" stroke-linecap="round" stroke-linejoin="round"/>
<path d="M280.795 48.3103C278.289 44.2383 272.259 35.3988 276.699 29.1823C281.398 22.6039 302.431 25.9349 308.649 31.5313C313.347 35.7601 317.444 40.7929 316.504 54.8885C315.564 68.984 325.901 67.1046 324.492 62.8759C323.082 58.6473 317.577 74.7576 318.516 76.1672" stroke="#513011" stroke-width="1.5" stroke-linecap="round" stroke-linejoin="round"/>
<path d="M285.626 58.7828C286.095 59.4092 287.975 60.2863 291.734 58.7828" stroke="#513011" stroke-width="1.5" stroke-linecap="round" stroke-linejoin="round"/>
<ellipse rx="19.6717" ry="20.6592" transform="matrix(0.997809 -0.067342 0.108237 0.994227 174.141 44.5347)" fill="#EFDDC7"/>
<path d="M169.716 51.0777L168.869 43.9597C167.369 43.1558 164.274 40.7474 163.893 37.5442C162.639 37.6216 157.78 39.2656 156.255 33.5337C154.73 27.8018 159.541 29.2977 161.007 30.9999C160.753 28.8645 160.23 24.4749 160.001 22.547C161.812 22.4353 166.177 21.3595 169.14 17.9501C175.961 19.6824 180.855 14.4801 177.917 13.2728C173.652 12.6092 179.041 20.3113 186.241 23.618C186.352 28.0926 187.53 45.0497 178.332 45.6168C178.968 50.9554 182.106 52.5545 184.456 51.0652C186.805 49.5759 187.848 47.719 191.246 47.9576C194.643 48.1963 194.113 43.7474 196.357 41.3683C198.601 38.9893 201.628 36.1137 195.032 30.2463C194.449 25.3526 193.66 22.2642 187.801 19.0402C187.744 16.2055 185.654 10.2096 177.749 8.90443C173.563 5.57739 170.371 3.53344 163.422 5.30635C159.159 6.28627 157.265 11.3626 156.85 13.7782C153.193 14.9 146.61 16.2023 147.257 28.7105C145.385 34.204 140.426 38.5429 145.767 44.4877C150.896 48.6529 150.213 46.4543 156.802 48.7369C163.392 51.0195 164.493 53.1923 167.002 53.0377C169.51 52.883 169.875 52.4123 169.716 51.0777Z" stroke="#513011" stroke-width="1.5" stroke-linecap="round" stroke-linejoin="round"/>
<path d="M172.454 36.9653L172.367 36.2202C172.148 36.2339 171.952 36.3418 171.829 36.5157C171.706 36.6895 171.669 36.912 171.727 37.1248L172.454 36.9653ZM179.251 36.5399L180.004 36.6068C180.012 36.3898 179.924 36.1752 179.762 36.0191C179.601 35.8631 179.382 35.7811 179.164 35.7948L179.251 36.5399ZM172.542 37.7105L179.338 37.2851L179.164 35.7948L172.367 36.2202L172.542 37.7105ZM178.498 36.4731C178.485 36.8071 178.352 37.3644 177.984 37.8412C177.635 38.2946 177.06 38.6985 176.088 38.7593L176.263 40.2496C177.67 40.1615 178.616 39.5463 179.201 38.7862C179.768 38.0494 179.983 37.199 180.004 36.6068L178.498 36.4731ZM176.088 38.7593C175.116 38.8202 174.455 38.4936 174.006 38.0902C173.533 37.666 173.271 37.1334 173.181 36.8059L171.727 37.1248C171.887 37.7057 172.296 38.5171 173.027 39.1726C173.781 39.8489 174.856 40.3377 176.263 40.2496L176.088 38.7593Z" fill="#513011"/>
<ellipse cx="29.0961" cy="221.189" rx="16.4854" ry="16.4854" transform="rotate(-18.3234 29.0961 221.189)" fill="#E0E5CD"/>
<path d="M11.6243 191.664C9.30941 193.566 6.17619 198.415 12.1622 202.598" stroke="#513011" stroke-width="1.5" stroke-linecap="round" stroke-linejoin="round"/>
<path d="M17.119 189.352C16.878 189.013 16.958 188.552 17.2976 188.323C17.6373 188.093 18.108 188.182 18.3489 188.521L17.119 189.352ZM20.4094 208.653L20.1643 207.947C20.5086 207.838 20.8883 207.988 21.0667 208.304L20.4094 208.653ZM26.6531 232.608C26.5971 233.013 26.2171 233.289 25.8045 233.224C25.3918 233.16 25.1027 232.781 25.1588 232.376L26.6531 232.608ZM18.3489 188.521C19.6926 190.411 21.7173 193.265 22.6662 195.894C23.1399 197.206 23.3886 198.574 23.0517 199.78C22.6977 201.047 21.7394 201.995 20.128 202.504L19.6377 201.092C20.865 200.704 21.397 200.073 21.5968 199.358C21.8137 198.581 21.6797 197.563 21.2462 196.362C20.3804 193.964 18.492 191.284 17.119 189.352L18.3489 188.521ZM20.128 202.504C18.9725 202.869 18.0288 202.888 17.2204 202.714C16.4281 202.544 15.8145 202.198 15.3528 201.94C14.8453 201.658 14.5977 201.537 14.3629 201.525C14.194 201.517 13.8947 201.565 13.361 202.061L12.312 200.973C13.0041 200.33 13.6766 200.008 14.4064 200.045C15.0704 200.078 15.6484 200.418 16.0742 200.655C16.5458 200.917 16.9732 201.151 17.5105 201.266C18.0316 201.378 18.7058 201.386 19.6377 201.092L20.128 202.504ZM13.361 202.061C12.9626 202.431 12.7663 203.032 12.8543 203.806C12.9422 204.578 13.3121 205.453 13.9409 206.227C15.1803 207.755 17.3644 208.831 20.1643 207.947L20.6545 209.359C17.1926 210.453 14.3644 209.101 12.77 207.136C11.9818 206.165 11.4794 205.026 11.3556 203.938C11.232 202.851 11.4846 201.743 12.312 200.973L13.361 202.061ZM21.0667 208.304C23.4705 212.559 25.253 215.971 26.2351 219.658C27.2218 223.362 27.3896 227.296 26.6531 232.608L25.1588 232.376C25.8766 227.199 25.6999 223.469 24.7767 220.003C23.8488 216.52 22.1559 213.257 19.7521 209.001L21.0667 208.304Z" fill="#513011"/>
<path d="M43.6836 185.685L43.9521 186.384C43.734 186.458 43.4898 186.429 43.2904 186.305L43.6836 185.685ZM59.9562 171.636L59.7074 170.93C59.9182 170.865 60.1508 170.895 60.3428 171.012C60.5347 171.129 60.6665 171.321 60.7027 171.538L59.9562 171.636ZM11.8337 190.694L12.1476 191.375C11.9335 191.464 11.6861 191.45 11.4784 191.335C11.2707 191.221 11.1262 191.021 11.0875 190.793L11.8337 190.694ZM19.5741 174.454L19.2445 173.779L19.5741 174.454ZM31.1939 220.716C30.7814 220.639 30.5008 220.252 30.5671 219.851C30.6335 219.45 31.0217 219.187 31.4343 219.264L31.1939 220.716ZM36.7125 187.571L35.9949 187.316L35.9983 187.306L36.7125 187.571ZM43.5699 200.576L43.7314 199.859C44.0623 199.939 44.3048 200.223 44.3251 200.554C44.3453 200.885 44.1385 201.182 43.8187 201.281L43.5699 200.576ZM40.3028 205.924L40.9158 205.509C41.0643 205.714 41.1001 205.975 41.0112 206.204C40.9223 206.433 40.7205 206.6 40.4736 206.649L40.3028 205.924ZM35.8042 206.81L35.0898 207.032C35.0191 206.832 35.038 206.615 35.1417 206.434C35.2454 206.253 35.4242 206.126 35.6334 206.085L35.8042 206.81ZM40.2341 208.756C40.6067 208.583 41.062 208.742 41.251 209.111C41.4399 209.481 41.291 209.921 40.9183 210.095L40.2341 208.756ZM43.4151 184.986C46.1543 184.051 50.4163 182.126 53.8474 179.681C55.5636 178.458 57.0374 177.129 58.0143 175.758C58.9911 174.387 59.4283 173.037 59.2097 171.734L60.7027 171.538C61.0067 173.35 60.3688 175.077 59.2646 176.627C58.1606 178.177 56.5476 179.613 54.7627 180.885C51.1918 183.43 46.7948 185.413 43.9521 186.384L43.4151 184.986ZM60.2051 172.341C52.9637 174.592 25.174 185.957 12.1476 191.375L11.5199 190.012C24.5053 184.611 52.3811 173.208 59.7074 170.93L60.2051 172.341ZM11.0875 190.793C10.3277 186.319 10.5497 177.634 19.2445 173.779L19.9037 175.129C12.1548 178.564 11.8521 186.308 12.58 190.594L11.0875 190.793ZM19.2445 173.779C24.1643 171.598 30.1414 171.063 35.9896 174.236C41.8145 177.396 47.3658 184.156 51.6352 196.253L50.2063 196.697C46.0029 184.787 40.6378 178.427 35.286 175.524C29.9576 172.633 24.4978 173.092 19.9037 175.129L19.2445 173.779ZM51.6352 196.253C53.7766 202.321 54.3542 207.054 53.7727 210.71C53.1873 214.391 51.4304 216.951 48.9929 218.636C46.5764 220.307 43.541 221.085 40.4303 221.321C37.3148 221.557 34.0735 221.253 31.1939 220.716L31.4343 219.264C34.22 219.784 37.3213 220.07 40.2682 219.847C43.2199 219.623 45.9666 218.892 48.0945 217.421C50.2014 215.964 51.7512 213.749 52.2774 210.44C52.8075 207.107 52.3014 202.634 50.2063 196.697L51.6352 196.253ZM43.2904 186.305C42.6429 185.901 41.382 185.59 40.1492 185.763C38.9568 185.931 37.8988 186.53 37.4267 187.836L35.9983 187.306C36.6948 185.38 38.2999 184.523 39.8897 184.299C41.439 184.081 43.0794 184.443 44.0767 185.065L43.2904 186.305ZM37.43 187.826C37.266 188.301 37.3065 189.222 37.6311 190.488C37.9447 191.711 38.4875 193.122 39.1693 194.484C39.8517 195.848 40.6591 197.134 41.4886 198.119C42.3422 199.132 43.1239 199.711 43.7314 199.859L43.4083 201.293C42.2924 201.022 41.2363 200.111 40.3322 199.038C39.404 197.936 38.534 196.54 37.8139 195.101C37.0931 193.661 36.5084 192.15 36.164 190.807C35.8307 189.507 35.6828 188.219 35.9949 187.316L37.43 187.826ZM43.8187 201.281C43.6355 201.338 43.378 201.383 43.1487 201.423C42.8958 201.468 42.615 201.516 42.3158 201.579C41.7074 201.708 41.0981 201.888 40.6398 202.165C40.1981 202.433 39.9646 202.745 39.9293 203.153C39.8903 203.604 40.0749 204.349 40.9158 205.509L39.6897 206.339C38.7581 205.054 38.3384 203.946 38.4216 202.985C38.5084 201.981 39.1237 201.32 39.8153 200.902C40.4905 200.493 41.2995 200.272 41.9523 200.134C42.2838 200.063 42.5944 200.01 42.8386 199.968C43.1062 199.921 43.2513 199.893 43.321 199.871L43.8187 201.281ZM40.4736 206.649L35.975 207.535L35.6334 206.085L40.132 205.199L40.4736 206.649ZM36.5187 206.588C36.7331 207.196 37.1971 208.015 37.8474 208.53C38.1627 208.78 38.5048 208.946 38.8753 209.001C39.2414 209.055 39.6896 209.01 40.2341 208.756L40.9183 210.095C40.1406 210.457 39.3922 210.566 38.692 210.462C37.9963 210.359 37.4023 210.053 36.9163 209.668C35.9639 208.914 35.3641 207.81 35.0898 207.032L36.5187 206.588Z" fill="#513011"/>
<ellipse rx="18.705" ry="18.705" transform="matrix(-0.960783 -0.277301 -0.277301 0.960783 52.9555 94.3562)" fill="#C5D5E4"/>
<path d="M43.7953 72.8776C43.9704 72.5023 44.4167 72.34 44.7921 72.5151C45.1674 72.6903 45.3297 73.1366 45.1545 73.5119L43.7953 72.8776ZM45.3864 103.163C45.0649 103.424 44.5925 103.375 44.3314 103.053C44.0702 102.732 44.119 102.26 44.4405 101.998L45.3864 103.163ZM45.1545 73.5119C44.1261 75.7158 41.2352 82.6101 45.5215 88.545L44.3055 89.4232C39.4691 82.7266 42.777 75.0597 43.7953 72.8776L45.1545 73.5119ZM45.5215 88.545C50.3036 95.1663 48.05 100.998 45.3864 103.163L44.4405 101.998C46.4552 100.361 48.6461 95.4333 44.3055 89.4232L45.5215 88.545Z" fill="#513011"/>
<path d="M48.6188 65.8928C49.0185 66.0018 49.2541 66.4141 49.1451 66.8137C49.0361 67.2133 48.6238 67.4489 48.2242 67.3399L48.6188 65.8928ZM38.3339 78.0196L37.5853 78.0664L38.3339 78.0196ZM28.7806 91.3666C28.7263 90.956 29.0152 90.5791 29.4259 90.5248C29.8365 90.4705 30.2134 90.7594 30.2677 91.17L28.7806 91.3666ZM48.2242 67.3399C46.7715 66.9437 44.3144 66.9513 42.3323 68.3287C40.4039 69.6689 38.7368 72.4427 39.0824 77.9728L37.5853 78.0664C37.2183 72.1934 38.9868 68.827 41.4763 67.097C43.9121 65.4043 46.8551 65.4118 48.6188 65.8928L48.2242 67.3399ZM39.0824 77.9728C39.5291 85.1194 37.6246 91.0583 35.3325 94.0128C34.7559 94.7559 34.1271 95.3463 33.468 95.7074C32.8022 96.0721 32.061 96.2229 31.3345 95.9869C30.6146 95.753 30.0548 95.1864 29.6458 94.4188C29.2377 93.6531 28.948 92.6332 28.7806 91.3666L30.2677 91.17C30.4215 92.334 30.6755 93.1617 30.9695 93.7134C31.2626 94.2633 31.5631 94.484 31.798 94.5603C32.0261 94.6344 32.334 94.6182 32.7474 94.3918C33.1675 94.1616 33.6482 93.7367 34.1473 93.0933C36.1581 90.5015 38.0159 84.9547 37.5853 78.0664L39.0824 77.9728Z" fill="#513011"/>
<path d="M64.2123 51.7039C65.9667 52.581 67.7208 60.0371 66.4052 63.9844" stroke="#513011" stroke-width="1.5" stroke-linecap="round" stroke-linejoin="round"/>
<path d="M54.7227 87.012C54.6009 86.6161 54.823 86.1964 55.2189 86.0746C55.6148 85.9528 56.0345 86.175 56.1563 86.5709L54.7227 87.012ZM79.1234 63.1073L79.07 62.3592C79.4117 62.3347 79.7266 62.545 79.8349 62.8701L79.1234 63.1073ZM54.5623 64.8616L53.8123 64.8616C53.8123 64.4681 54.1163 64.1416 54.5088 64.1135L54.5623 64.8616ZM54.5623 78.0194L55.3123 78.0194C55.3123 78.382 55.0529 78.6927 54.6961 78.7574C54.3393 78.822 53.9873 78.6222 53.86 78.2827L54.5623 78.0194ZM47.3951 71.8781L48.0437 72.2547L47.3951 71.8781ZM52.1565 79.6816L52.0737 78.9362C52.4422 78.8953 52.7853 79.1297 52.8811 79.4879L52.1565 79.6816ZM40.0888 103.896L40.0513 103.147L40.0888 103.896ZM49.2992 63.1072L50.0371 63.2414C49.9946 63.4753 49.8437 63.6752 49.6303 63.7802C49.417 63.8852 49.1665 63.8828 48.9552 63.7737L49.2992 63.1072ZM84.8252 67.932L85.5543 67.756C85.6148 68.007 85.542 68.2715 85.3615 68.4562C85.181 68.6409 84.9182 68.7197 84.6659 68.6648L84.8252 67.932ZM70.7902 67.932L70.0602 68.1037C69.9834 67.7775 70.1324 67.4399 70.4253 67.2768C70.7181 67.1136 71.0836 67.1646 71.3206 67.4016L70.7902 67.932ZM70.6083 82.6945C70.2065 82.594 69.9622 82.1868 70.0626 81.785C70.1631 81.3831 70.5703 81.1388 70.9722 81.2393L70.6083 82.6945ZM56.1563 86.5709C56.9889 89.2766 58.932 92.3475 62.0373 94.4003C65.1209 96.4388 69.4006 97.5074 74.9995 96.1502L75.3529 97.6079C69.3728 99.0576 64.6615 97.9333 61.2101 95.6516C57.7803 93.3843 55.6445 90.008 54.7227 87.012L56.1563 86.5709ZM74.9995 96.1502C77.6396 95.5101 79.3768 93.8553 80.4714 91.5184C81.58 89.1518 82.0226 86.0901 82.0028 82.7278C81.9633 76.008 80.0809 68.3515 78.4119 63.3444L79.8349 62.8701C81.5285 67.9506 83.4619 75.7765 83.5028 82.719C83.5232 86.1878 83.0722 89.5022 81.8298 92.1547C80.5734 94.837 78.5021 96.8445 75.3529 97.6079L74.9995 96.1502ZM79.1769 63.8553L54.6157 65.6097L54.5088 64.1135L79.07 62.3592L79.1769 63.8553ZM55.3123 64.8616L55.3123 78.0194L53.8123 78.0194L53.8123 64.8616L55.3123 64.8616ZM53.86 78.2827C53.2346 76.615 51.9232 74.4321 50.5877 73.0472C49.9068 72.3411 49.3092 71.9375 48.8696 71.8269C48.6707 71.7769 48.539 71.7953 48.4425 71.8377C48.343 71.8814 48.1992 71.9868 48.0437 72.2547L46.7465 71.5016C47.0191 71.0319 47.3794 70.6664 47.8392 70.4644C48.3019 70.2611 48.7848 70.2589 49.2354 70.3722C50.0946 70.5883 50.9351 71.2465 51.6674 72.006C53.1584 73.5521 54.5741 75.9151 55.2645 77.756L53.86 78.2827ZM48.0437 72.2547C46.0313 75.7214 48.7318 79.3075 52.0737 78.9362L52.2394 80.427C47.6866 80.9329 44.1093 76.0445 46.7465 71.5016L48.0437 72.2547ZM52.8811 79.4879C53.6119 82.2206 53.7943 85.7213 53.6134 88.9148C53.4337 92.0891 52.8876 95.0931 52.0781 96.7979L50.7231 96.1546C51.4043 94.7198 51.9389 91.9543 52.1158 88.83C52.2917 85.725 52.1067 82.3983 51.432 79.8754L52.8811 79.4879ZM52.0781 96.7979C51.3079 98.4203 50.1744 100.299 48.2872 101.817C46.3898 103.342 43.7799 104.463 40.1262 104.645L40.0513 103.147C43.4151 102.979 45.7158 101.959 47.3473 100.648C48.989 99.3276 50.0027 97.6719 50.7231 96.1546L52.0781 96.7979ZM40.1262 104.645C35.5126 104.876 31.9132 103.029 29.9147 100.164C27.9187 97.3012 27.5776 93.4995 29.3292 89.9668L30.6731 90.6331C29.1563 93.6922 29.4731 96.908 31.1451 99.3055C32.8145 101.7 35.8931 103.355 40.0513 103.147L40.1262 104.645ZM29.3292 89.9668C30.1598 88.2917 30.8639 87.1086 31.4162 86.1917C31.9802 85.2552 32.341 84.6647 32.5548 84.1032C32.9385 83.0957 32.8733 82.1296 31.9179 79.1238L33.3475 78.6694C34.2938 81.6468 34.5471 83.0865 33.9566 84.637C33.6834 85.3544 33.234 86.0809 32.7011 86.9656C32.1564 87.87 31.4767 89.0124 30.6731 90.6331L29.3292 89.9668ZM31.9179 79.1238C31.3925 77.4706 31.361 75.1639 31.7842 72.787C32.2098 70.3967 33.1099 67.8512 34.5292 65.712C35.9497 63.5711 37.9179 61.799 40.482 61.0523C43.0561 60.3027 46.1155 60.6201 49.6432 62.4408L48.9552 63.7737C45.6847 62.0857 43.024 61.8744 40.9014 62.4925C38.7687 63.1136 37.0635 64.6056 35.7791 66.5413C34.4937 68.4787 33.6576 70.8224 33.261 73.0499C32.8619 75.2909 32.922 77.3309 33.3475 78.6694L31.9179 79.1238ZM48.5613 62.9731C49.0187 60.4575 50.1667 57.4511 52.5518 55.0661C54.9539 52.6641 58.5502 50.954 63.7728 50.954L63.7728 52.454C58.9077 52.454 55.7059 54.0334 53.6124 56.1268C51.5018 58.2373 50.4569 60.9324 50.0371 63.2414L48.5613 62.9731ZM63.7728 50.954C68.8928 50.954 73.5602 51.8426 77.353 54.4286C81.1618 57.0255 83.9872 61.264 85.5543 67.756L84.0961 68.1079C82.593 61.8807 79.936 58.0053 76.508 55.668C73.0641 53.3198 68.7403 52.454 63.7728 52.454L63.7728 50.954ZM84.6659 68.6648C79.7005 67.5854 76.3544 67.6647 74.2388 67.9619C73.1809 68.1106 72.4186 68.3153 71.8976 68.467C71.6528 68.5383 71.4097 68.6139 71.2398 68.655C71.155 68.6754 71.0356 68.7012 70.9118 68.7056C70.8217 68.7088 70.5107 68.7131 70.2599 68.4623L71.3206 67.4016C71.2096 67.2907 71.0882 67.2435 71.0091 67.2237C70.9338 67.205 70.8775 67.2058 70.8586 67.2065C70.8254 67.2077 70.8244 67.2122 70.8872 67.197C71.0125 67.1667 71.1817 67.1132 71.4783 67.0268C72.0401 66.8633 72.8769 66.6386 74.0301 66.4765C76.337 66.1524 79.8622 66.0855 84.9845 67.1991L84.6659 68.6648ZM71.5203 67.7602C72.1094 70.2639 72.821 73.9924 73.0297 77.0252C73.1329 78.5259 73.1197 79.9353 72.8666 80.9505C72.7416 81.4522 72.5341 81.9598 72.1595 82.3141C71.7357 82.7149 71.1852 82.8388 70.6083 82.6945L70.9722 81.2393C71.0971 81.2705 71.1094 81.2427 71.1288 81.2244C71.1973 81.1595 71.3133 80.9805 71.4112 80.5877C71.6041 79.8138 71.6347 78.6026 71.5332 77.1282C71.3325 74.2107 70.6407 70.5708 70.0602 68.1037L71.5203 67.7602Z" fill="#513011"/>
<path d="M72.983 84.5986C71.8135 85.3296 68.8603 86.2653 66.4041 84.16" stroke="#513011" stroke-width="1.5" stroke-linecap="round" stroke-linejoin="round"/>
<path d="M64.2117 51.704C66.9895 52.1426 73.4221 55.739 75.1765 63.1074" stroke="#513011" stroke-width="1.5" stroke-linecap="round" stroke-linejoin="round"/>
<ellipse rx="18.2706" ry="19.7777" transform="matrix(-0.922788 -0.37397 -0.402857 0.909854 300.709 192.384)" fill="#E6C9C9"/>
<path d="M293.364 202.004C298.212 203.946 308.104 206.042 308.885 198.897C309.257 193.562 310.321 193.44 313.71 191.507C317.099 189.574 317.055 185.169 315.53 181.817C314.005 178.464 313.442 176.569 315.233 173.472C318.068 168.571 314.29 164.321 309.2 166.67C304.11 169.019 305.472 153.73 300.325 152.698C292.114 151.051 294.788 162.8 290.729 161.723C286.671 160.647 281.563 161.084 280.104 164.338C278.706 167.457 281.772 170.749 280.303 172.902C278.75 175.177 274.314 181.761 280.512 183.694" stroke="#513011" stroke-width="1.5" stroke-linecap="round" stroke-linejoin="round"/>
<path d="M291.279 212.811L298.078 197.608C299.484 197.81 302.585 197.569 303.739 194.989C305.181 191.764 303.684 189.533 300.3 188.175C296.917 186.818 300.669 182.889 298.543 180.95C296.417 179.01 294.736 179.422 294.692 175.057C294.649 170.693 292.935 167.832 291.07 170.887C289.205 173.942 288.825 178.137 286.287 177.118C284.257 176.304 279.918 186.155 278.003 191.182C276.835 193.793 275.769 199.523 280.845 201.56C287.19 204.106 281.614 194.261 276.464 205.779" stroke="#513011" stroke-width="1.5" stroke-linecap="round" stroke-linejoin="round"/>
<path d="M280.878 191.384C281.033 192.228 282.404 193.885 286.644 193.76" stroke="#513011" stroke-width="1.5" stroke-linecap="round" stroke-linejoin="round"/>
<g style="mix-blend-mode:multiply">
<path d="M173.798 162.868C186.451 162.868 196.708 152.588 196.708 139.907C196.708 127.226 186.451 116.946 173.798 116.946C161.145 116.946 150.888 127.226 150.888 139.907C150.888 152.588 161.145 162.868 173.798 162.868Z" fill="#E0E5CD"/>
</g>
<path d="M153.869 162.02C157.143 164.487 160.907 166.222 164.907 167.108C172.362 168.877 180.209 167.716 186.835 163.863C195.077 159.033 200.167 146.975 198.928 136.822C197.309 123.411 184.971 113.922 171.53 115.102C170.648 115.186 169.794 115.457 169.024 115.896C168.255 116.335 167.586 116.932 167.064 117.649C166.541 118.365 166.176 119.185 165.992 120.053C165.809 120.921 165.811 121.819 165.999 122.686V122.686C166.073 123.02 166.23 123.33 166.455 123.588C166.68 123.845 166.966 124.043 167.286 124.161C172.965 126.361 180.213 124.309 173.418 129.287C168.586 132.815 179.17 129.84 176.423 134.093C173.676 138.346 178.68 137.485 178.68 137.485C178.68 137.485 190.11 133.884 187.203 129.606C184.297 125.329 181.28 130.344 181.28 130.344L191.336 135.089C199.002 140.005 190.294 144.787 190.294 144.787C192.305 149.789 186.087 154.46 186.087 154.46L183.635 156.132C182.801 158.271 180.9 162.524 179.354 160.815C174.338 155.284 173.308 142.046 173.308 142.046L169.016 145.217L167.568 144.516C167.267 144.368 166.921 144.341 166.6 144.439C166.279 144.537 166.007 144.754 165.839 145.045C164.981 146.532 164.147 149.593 168.096 153.649C170.45 156.107 170.365 158.074 169.469 159.647C168.715 160.869 167.515 161.746 166.124 162.093C164.733 162.44 163.262 162.228 162.025 161.503C158.748 159.631 155.94 157.035 153.814 153.911C151.689 150.788 150.302 147.22 149.759 143.478C149.216 139.737 149.532 135.921 150.682 132.32C151.832 128.719 153.786 125.429 156.396 122.699C156.57 122.511 156.785 122.367 157.025 122.277C157.264 122.187 157.521 122.154 157.775 122.181C158.029 122.207 158.274 122.292 158.49 122.428C158.706 122.565 158.887 122.75 159.02 122.969C159.793 124.296 160.247 126.521 158.309 129.656C155.647 133.933 162.27 132.827 165.385 132.114C166.021 131.949 166.694 132.003 167.296 132.266C167.899 132.528 168.396 132.986 168.709 133.564C168.883 133.851 168.951 134.191 168.902 134.523C168.853 134.855 168.689 135.16 168.439 135.384C168.179 135.621 167.867 135.794 167.529 135.891C167.19 135.988 166.834 136.006 166.488 135.943C166.142 135.88 165.815 135.738 165.532 135.528C165.249 135.318 165.019 135.046 164.858 134.732L163.815 132.778" stroke="#513011" stroke-width="1.5" stroke-linecap="round" stroke-linejoin="round"/>
<path d="M209.807 109.227C209.807 109.227 231.796 99.2336 233.513 109.227C235.23 119.22 202.252 136.49 202.252 136.49L153.367 161.663L149.957 163.163C127.943 172.615 115.875 174.397 112.036 170.538C105.904 164.392 145.91 142.98 145.91 142.98V142.66L148.731 107.936C174.841 95.1896 192.158 101.667 192.158 101.667L201.761 130.295" stroke="#513011" stroke-width="1.5" stroke-linecap="round" stroke-linejoin="round"/>
<path d="M180.174 299.785C182.001 294.243 182.735 288.399 182.333 282.576C181.278 267.74 171.884 263.106 147.122 256.567C134.858 253.322 126.825 247.053 124.617 244.386C120.938 239.998 121.367 237.552 122.68 236.188C123.409 235.502 124.372 235.121 125.372 235.121C126.372 235.121 127.334 235.502 128.064 236.188L131.326 239.088C135.321 242.673 139.956 245.468 144.988 247.324C147.478 248.211 150.032 248.901 152.629 249.389C152.915 249.406 153.2 249.359 153.465 249.249C153.729 249.14 153.966 248.972 154.156 248.758C154.346 248.543 154.485 248.289 154.563 248.013C154.64 247.737 154.654 247.446 154.603 247.164C154.502 246.61 154.259 246.093 153.898 245.662C153.537 245.231 153.07 244.901 152.543 244.706C150.728 244.042 148.054 243.071 147.478 242.936C143.946 242.1 136.587 237.048 132.933 233.213C129.31 229.434 126.713 224.79 125.386 219.721C124.059 214.653 124.048 209.328 125.353 204.254C126.298 201.439 135.557 197.321 134.269 211.346C132.982 225.371 145.589 234.393 149.771 235.684C151.869 236.323 152.666 235.598 152.948 234.713C153.081 234.221 153.044 233.699 152.841 233.231C152.638 232.764 152.282 232.381 151.832 232.144C141.162 225.998 138.476 217.75 138.341 211.358C138.277 206.932 139.35 202.564 141.456 198.673C144.485 192.921 151.39 180.629 153.99 182.485C157.375 184.944 158.553 188.631 151.476 199.571C144.4 210.51 152.065 222.704 156.885 226.01C159.571 227.842 160.564 227.141 161.005 226.158C161.163 225.718 161.201 225.244 161.117 224.784C161.033 224.324 160.83 223.895 160.527 223.54C152.715 213.706 152.874 206.331 158.651 196.08C162.137 190.116 166.641 184.812 171.957 180.408C172.338 180.096 172.785 179.878 173.265 179.77C173.744 179.662 174.242 179.668 174.718 179.788C175.195 179.907 175.637 180.137 176.009 180.458C176.382 180.779 176.674 181.183 176.863 181.637C178.789 186.32 174.14 194.875 168.131 199.608C163.961 202.889 164.82 206.712 165.249 209.441" stroke="#513011" stroke-width="1.5" stroke-linejoin="round"/>
<path d="M218.992 299.084C218.992 299.084 212.124 285.563 218.992 263.524C225.86 241.485 229.637 224.621 213.841 209.121C198.044 193.622 185.179 180.764 185.179 180.764C185.179 180.764 177.428 178.429 178.79 188.139C179.065 189.469 179.617 190.725 180.408 191.827C182.145 194.418 184.431 196.592 187.105 198.194L194.328 202.619C199.565 205.336 203.024 209.994 203.024 215.206C203.024 223.576 194.242 230.361 183.401 230.361C172.559 230.361 163.778 223.576 163.778 215.206C163.778 208.396 169.604 202.631 177.624 200.726C177.806 200.675 177.99 200.634 178.176 200.603C195.8 199.263 191.373 215.71 179.206 215.353L178.176 172.996C178.176 172.996 205.967 163.999 204.594 143.336C204.465 141.035 204.12 138.751 203.563 136.514" stroke="#513011" stroke-width="1.5" stroke-linejoin="round"/>
<path d="M140.549 140.214C140.549 140.214 77.6453 171.644 73.5736 181.33C69.5019 191.016 78.9944 199.767 158.7 165.019" stroke="#513011" stroke-width="1.5" stroke-linejoin="round"/>
<path d="M195.014 110.186C195.014 110.186 233.45 91.0843 252.963 88.4539C272.475 85.8234 244.23 116.184 218.304 130.774" stroke="#513011" stroke-width="1.5" stroke-linejoin="round"/>
<g style="mix-blend-mode:multiply">
<path d="M279.157 130.775C282.746 130.775 285.656 127.865 285.656 124.276C285.656 120.687 282.746 117.777 279.157 117.777C275.568 117.777 272.658 120.687 272.658 124.276C272.658 127.865 275.568 130.775 279.157 130.775Z" fill="#E0E5CD"/>
</g>
<path d="M251.001 108.502C253.344 108.502 255.244 106.597 255.244 104.249C255.244 101.9 253.344 99.9957 251.001 99.9957C248.657 99.9957 246.757 101.9 246.757 104.249C246.757 106.597 248.657 108.502 251.001 108.502Z" stroke="#513011" stroke-width="1.5" stroke-linejoin="round"/>
<path d="M104.812 114.256C108.157 114.256 110.869 111.543 110.869 108.198C110.869 104.852 108.157 102.14 104.812 102.14C101.466 102.14 98.7537 104.852 98.7537 108.198C98.7537 111.543 101.466 114.256 104.812 114.256Z" stroke="#513011" stroke-width="1.5" stroke-linejoin="round"/>
<g style="mix-blend-mode:multiply">
<path d="M95.8943 197.297C100.399 197.297 104.05 193.637 104.05 189.123C104.05 184.608 100.399 180.949 95.8943 180.949C91.39 180.949 87.7385 184.608 87.7385 189.123C87.7385 193.637 91.39 197.297 95.8943 197.297Z" fill="#EFDDC7"/>
</g>
<path d="M260.502 240.801C263.361 240.801 265.678 238.478 265.678 235.614C265.678 232.749 263.361 230.427 260.502 230.427C257.644 230.427 255.327 232.749 255.327 235.614C255.327 238.478 257.644 240.801 260.502 240.801Z" stroke="#513011" stroke-width="1.5" stroke-linejoin="round"/>
<circle cx="313.723" cy="258.723" r="2.94616" transform="rotate(-18.3234 313.723 258.723)" fill="#C5D5E4"/>
<path d="M63.3409 13.3499L60.7449 12.1839L61.0167 11.5976L62.9979 7.97122L59.2072 8.46663L58.5732 8.44831L58.5586 5.47724L59.2346 5.51838L62.8942 6.17503L61.2683 2.73612L61.0755 2.11481L63.8137 1.26492L64.0066 1.88623L64.5817 5.65127L67.2582 3.02801L67.7603 2.62122L69.4624 5.06852L68.9183 5.45249L65.4814 7.20039L69.1359 9.07757L69.7237 9.39702L68.2124 11.8379L67.7099 11.4561L64.5848 8.69762L63.5389 12.7507L63.3409 13.3499Z" fill="#C5D5E4"/>
<circle cx="256.194" cy="6.50663" r="3.76618" transform="rotate(-18.3234 256.194 6.50663)" fill="#C5D5E4"/>
</svg>
