<svg width="521" height="524" viewBox="0 0 521 524" fill="none" xmlns="http://www.w3.org/2000/svg">
<path d="M127.329 1C117.504 16.7838 100.8 63.1489 112.591 122.338C127.329 196.325 106.275 217.887 76.3766 225.074C46.4786 232.261 12.8823 198.165 34.6878 168.844C52.0694 145.473 112.591 181.112 86.062 234.798C64.5017 278.429 20.3706 273.835 1 266.084" stroke="#513011" stroke-width="2" stroke-linecap="round" stroke-linejoin="round"/>
<circle cx="364.412" cy="117.98" r="28.1886" transform="rotate(-4.89957 364.412 117.98)" fill="#EFDDC7"/>
<path d="M356.992 126.258L356.167 116.638C354.06 115.608 349.753 112.464 349.382 108.135C347.578 108.29 340.518 110.712 338.646 102.999C336.773 95.2864 343.593 97.1244 345.603 99.3747C345.355 96.4888 344.847 90.5566 344.624 87.9512C347.229 87.7279 353.549 86.096 357.988 81.3548C367.678 83.4335 374.986 76.1844 370.837 74.6636C364.754 73.9328 372.063 84.1644 382.209 88.3632C382.123 94.427 382.879 117.377 369.652 118.511C370.27 125.725 374.685 127.769 378.138 125.656C381.591 123.544 383.188 120.984 388.05 121.173C392.911 121.362 392.395 115.35 395.745 112.034C399.095 108.719 403.595 104.699 394.457 97.0036C393.89 90.3901 392.928 86.233 384.7 82.0932C384.774 78.2511 382.106 70.2027 370.837 68.7461C365.013 64.4002 360.547 61.7548 350.481 64.4347C344.311 65.9326 341.314 72.8919 340.587 76.1844C335.279 77.8507 325.762 79.8777 326.003 96.8151C323.014 104.339 315.662 110.42 322.997 118.27C330.126 123.716 329.266 120.761 338.594 123.595C347.922 126.43 349.382 129.333 352.989 129.023C356.597 128.714 357.147 128.061 356.992 126.258Z" stroke="#513011" stroke-width="2" stroke-linecap="round" stroke-linejoin="round"/>
<path d="M362.059 107.655L361.974 106.658C361.681 106.683 361.414 106.836 361.244 107.076C361.074 107.316 361.018 107.618 361.09 107.903L362.059 107.655ZM371.679 106.83L372.676 106.91C372.699 106.617 372.592 106.328 372.384 106.121C372.175 105.914 371.886 105.809 371.593 105.834L371.679 106.83ZM362.145 108.651L371.764 107.826L371.593 105.834L361.974 106.658L362.145 108.651ZM370.682 106.751C370.612 107.627 369.841 109.618 367.093 109.853L367.264 111.846C371.249 111.504 372.551 108.472 372.676 106.91L370.682 106.751ZM367.093 109.853C364.344 110.089 363.246 108.259 363.028 107.407L361.09 107.903C361.479 109.421 363.278 112.188 367.264 111.846L367.093 109.853Z" fill="#513011"/>
<circle cx="158.453" cy="211.453" r="5.89802" transform="rotate(-18.3234 158.453 211.453)" fill="#E0E5CD"/>
<circle cx="344.461" cy="273.461" r="3.53022" transform="rotate(-18.3234 344.461 273.461)" fill="#C5D5E4"/>
<circle cx="41.7472" cy="345.475" r="3.53022" transform="rotate(-18.3234 41.7472 345.475)" fill="#C5D5E4"/>
<circle cx="176.14" cy="455.678" r="3.53022" transform="rotate(-18.3234 176.14 455.678)" fill="#C5D5E4"/>
<circle cx="53.2885" cy="94.4514" r="7.13812" transform="rotate(-18.3234 53.2885 94.4514)" fill="#C5D5E4"/>
<circle cx="100.064" cy="413.199" r="7.13812" transform="rotate(-18.3234 100.064 413.199)" fill="#E6C9C9"/>
<circle cx="255.969" cy="327.001" r="25.5536" transform="rotate(-18.3234 255.969 327.001)" fill="#E0E5CD"/>
<path d="M229.275 281.235C225.421 284.306 220.065 291.976 229.473 298.089" stroke="#513011" stroke-width="2" stroke-linecap="round" stroke-linejoin="round"/>
<path d="M238.634 277.689C238.308 277.243 238.405 276.618 238.851 276.292C239.297 275.966 239.923 276.064 240.249 276.51L238.634 277.689ZM242.614 307.582L242.3 306.632C242.752 306.483 243.248 306.673 243.483 307.087L242.614 307.582ZM251.145 344.488C251.045 345.031 250.523 345.39 249.98 345.289C249.437 345.189 249.078 344.667 249.179 344.124L251.145 344.488ZM240.249 276.51C242.337 279.369 245.478 283.679 246.87 287.7C247.567 289.713 247.882 291.807 247.266 293.667C246.628 295.594 245.067 297.056 242.488 297.91L241.859 296.011C243.993 295.304 244.974 294.225 245.367 293.039C245.782 291.786 245.617 290.194 244.98 288.354C243.705 284.67 240.767 280.61 238.634 277.689L240.249 276.51ZM242.488 297.91C240.62 298.528 239.127 298.606 237.865 298.393C236.618 298.183 235.66 297.696 234.914 297.321C234.117 296.921 233.666 296.715 233.203 296.709C232.807 296.704 232.229 296.857 231.292 297.687L229.966 296.189C231.111 295.176 232.151 294.697 233.226 294.709C234.235 294.721 235.11 295.181 235.812 295.534C236.566 295.913 237.28 296.266 238.197 296.421C239.099 296.573 240.261 296.54 241.859 296.011L242.488 297.91ZM231.292 297.687C230.536 298.356 230.184 299.362 230.28 300.56C230.378 301.766 230.935 303.111 231.927 304.289C233.881 306.607 237.491 308.225 242.3 306.632L242.929 308.531C237.341 310.381 232.877 308.52 230.397 305.578C229.173 304.124 228.422 302.394 228.287 300.721C228.151 299.039 228.641 297.362 229.966 296.189L231.292 297.687ZM243.483 307.087C247.165 313.558 249.876 318.751 251.258 324.416C252.647 330.106 252.679 336.201 251.145 344.488L249.179 344.124C250.678 336.025 250.618 330.229 249.315 324.89C248.006 319.525 245.427 314.548 241.745 308.076L243.483 307.087Z" fill="#513011"/>
<path d="M279.201 272.044L279.54 272.985C279.262 273.085 278.955 273.058 278.7 272.91L279.201 272.044ZM305.757 249.753L305.443 248.804C305.725 248.71 306.034 248.747 306.287 248.905C306.539 249.063 306.708 249.324 306.748 249.619L305.757 249.753ZM228.582 281.464L228.976 282.383C228.69 282.506 228.362 282.488 228.09 282.335C227.818 282.181 227.634 281.91 227.591 281.6L228.582 281.464ZM241.791 256.324L241.377 255.414L241.791 256.324ZM257.445 325.916C256.898 325.836 256.519 325.329 256.598 324.783C256.677 324.236 257.185 323.857 257.731 323.936L257.445 325.916ZM268.074 275.307L267.143 274.941L267.149 274.928L268.074 275.307ZM278.122 294.702L278.318 293.721C278.763 293.81 279.092 294.188 279.12 294.641C279.148 295.094 278.867 295.508 278.436 295.651L278.122 294.702ZM272.638 303.022L273.444 302.431C273.644 302.703 273.693 303.057 273.574 303.373C273.455 303.689 273.185 303.924 272.856 303.998L272.638 303.022ZM265.477 304.624L264.528 304.938C264.439 304.67 264.468 304.377 264.607 304.131C264.747 303.885 264.983 303.71 265.259 303.648L265.477 304.624ZM272.429 307.429C272.927 307.192 273.524 307.404 273.761 307.903C273.999 308.401 273.787 308.998 273.288 309.235L272.429 307.429ZM278.862 271.103C283.266 269.519 290.139 266.339 295.732 262.408C298.53 260.442 300.96 258.32 302.605 256.154C304.254 253.983 305.035 251.877 304.766 249.887L306.748 249.619C307.116 252.341 306.013 254.974 304.198 257.364C302.379 259.759 299.766 262.018 296.882 264.045C291.112 268.1 284.07 271.355 279.54 272.985L278.862 271.103ZM306.071 250.702C294.48 254.541 249.875 273.409 228.976 282.383L228.187 280.545C249.035 271.593 293.747 252.677 305.443 248.804L306.071 250.702ZM227.591 281.6C226.656 274.803 227.568 261.697 241.377 255.414L242.205 257.234C229.595 262.972 228.686 274.885 229.572 281.328L227.591 281.6ZM241.377 255.414C249.213 251.848 258.603 250.704 267.588 255.168C276.559 259.625 284.917 269.571 290.932 287.734L289.033 288.363C283.113 270.486 275.017 261.092 266.698 256.959C258.392 252.832 249.653 253.846 242.205 257.234L241.377 255.414ZM290.932 287.734C293.948 296.841 294.571 303.999 293.436 309.577C292.293 315.187 289.383 319.133 285.49 321.793C277.795 327.052 266.384 327.21 257.445 325.916L257.731 323.936C266.565 325.216 277.319 324.955 284.362 320.142C287.838 317.766 290.44 314.263 291.476 309.177C292.518 304.06 291.985 297.276 289.033 288.363L290.932 287.734ZM278.7 272.91C277.666 272.312 275.639 271.899 273.62 272.243C271.643 272.58 269.853 273.604 268.999 275.686L267.149 274.928C268.337 272.028 270.842 270.687 273.284 270.271C275.684 269.863 278.199 270.31 279.702 271.179L278.7 272.91ZM269.005 275.674C268.705 276.435 268.72 277.851 269.156 279.754C269.578 281.599 270.351 283.717 271.347 285.752C272.343 287.789 273.543 289.704 274.799 291.16C276.082 292.648 277.304 293.518 278.318 293.721L277.926 295.682C276.243 295.346 274.652 294.053 273.284 292.466C271.888 290.848 270.6 288.777 269.55 286.631C268.5 284.484 267.668 282.22 267.206 280.2C266.757 278.237 266.608 276.303 267.144 274.941L269.005 275.674ZM278.436 295.651C278.164 295.741 277.775 295.821 277.404 295.896C277.003 295.977 276.551 296.067 276.069 296.182C275.091 296.415 274.082 296.731 273.302 297.203C272.532 297.668 272.107 298.206 272.021 298.87C271.93 299.578 272.183 300.709 273.444 302.431L271.831 303.613C270.44 301.714 269.851 300.062 270.037 298.614C270.23 297.123 271.204 296.134 272.267 295.492C273.319 294.855 274.574 294.483 275.605 294.237C276.127 294.112 276.616 294.015 277.006 293.936C277.424 293.851 277.676 293.796 277.808 293.753L278.436 295.651ZM272.856 303.998L265.696 305.6L265.259 303.648L272.419 302.046L272.856 303.998ZM266.427 304.31C266.729 305.223 267.416 306.455 268.431 307.216C269.372 307.921 270.649 308.276 272.429 307.429L273.288 309.235C270.815 310.412 268.747 309.952 267.232 308.817C265.792 307.738 264.914 306.104 264.528 304.938L266.427 304.31Z" fill="#513011"/>
<path d="M1 433.746C24.084 437.385 76.0229 459.952 99.1069 521.101" stroke="#513011" stroke-width="2" stroke-linecap="round" stroke-linejoin="round"/>
<circle r="27.5024" transform="matrix(-1 1.65284e-08 1.65284e-08 1 412.672 414.577)" fill="#C5D5E4"/>
<path d="M391.077 387.986C391.162 387.44 391.674 387.067 392.22 387.153C392.765 387.239 393.138 387.75 393.052 388.296L391.077 387.986ZM405.486 430.045C405.171 430.498 404.548 430.61 404.094 430.295C403.641 429.98 403.529 429.357 403.844 428.903L405.486 430.045ZM393.052 388.296C392.498 391.827 391.213 402.804 399.738 409.48L398.505 411.054C388.993 403.606 390.528 391.485 391.077 387.986L393.052 388.296ZM399.738 409.48C409.153 416.852 408.334 425.949 405.486 430.045L403.844 428.903C406.056 425.722 407.128 417.807 398.505 411.054L399.738 409.48Z" fill="#513011"/>
<path d="M394.944 376.239C395.496 376.231 395.951 376.672 395.959 377.224C395.967 377.776 395.526 378.23 394.974 378.238L394.944 376.239ZM385.358 397.46L384.416 397.797L385.358 397.46ZM377.398 420.169C377.177 419.663 377.408 419.074 377.914 418.852C378.42 418.631 379.009 418.862 379.231 419.368L377.398 420.169ZM394.974 378.238C392.738 378.271 389.238 379.292 386.975 382.076C384.768 384.791 383.549 389.43 386.3 397.124L384.416 397.797C381.511 389.672 382.642 384.237 385.423 380.814C388.15 377.459 392.279 376.278 394.944 376.239L394.974 378.238ZM386.3 397.124C389.838 407.021 389.565 416.16 387.543 421.239C387.035 422.516 386.394 423.593 385.623 424.358C384.845 425.131 383.886 425.629 382.799 425.593C381.722 425.558 380.724 425.003 379.845 424.098C378.968 423.194 378.149 421.884 377.398 420.169L379.231 419.368C379.926 420.956 380.628 422.033 381.28 422.705C381.93 423.374 382.468 423.581 382.865 423.594C383.254 423.607 383.708 423.442 384.214 422.939C384.727 422.43 385.239 421.62 385.685 420.499C387.481 415.989 387.839 407.369 384.416 397.797L386.3 397.124Z" fill="#513011"/>
<path d="M411.184 349.734C414.019 350.258 419.538 360.076 419.288 366.188" stroke="#513011" stroke-width="2" stroke-linecap="round" stroke-linejoin="round"/>
<path d="M412.261 403.425C411.959 402.963 412.088 402.344 412.55 402.041C413.012 401.739 413.632 401.868 413.934 402.33L412.261 403.425ZM436.899 359.764L436.553 358.825C436.982 358.667 437.463 358.82 437.722 359.197L436.899 359.764ZM402.917 372.256L401.956 372.533C401.811 372.029 402.08 371.499 402.572 371.318L402.917 372.256ZM408.282 390.844L409.243 390.566C409.377 391.031 409.159 391.525 408.726 391.74C408.293 391.954 407.768 391.828 407.48 391.441L408.282 390.844ZM395.653 385.09L396.623 385.333L395.653 385.09ZM405.561 394.173L405.179 393.248C405.636 393.06 406.163 393.233 406.418 393.657L405.561 394.173ZM398.386 433.3L398.061 432.354L398.386 433.3ZM394.767 371.924L395.762 371.823C395.794 372.138 395.674 372.45 395.44 372.663C395.205 372.877 394.884 372.966 394.573 372.905L394.767 371.924ZM446.92 364.255L447.789 363.76C447.96 364.059 447.964 364.425 447.801 364.728C447.638 365.031 447.331 365.229 446.987 365.252L446.92 364.255ZM427.094 369.977L426.222 370.467C426.003 370.077 426.069 369.59 426.384 369.273C426.699 368.955 427.186 368.886 427.577 369.102L427.094 369.977ZM432.852 390.803C432.3 390.823 431.837 390.392 431.817 389.84C431.797 389.288 432.228 388.824 432.78 388.804L432.852 390.803ZM413.934 402.33C416.225 405.831 420.241 409.393 425.49 411.035C430.706 412.666 437.217 412.426 444.596 408.213L445.588 409.95C437.754 414.422 430.67 414.75 424.893 412.944C419.149 411.147 414.773 407.265 412.261 403.425L413.934 402.33ZM444.596 408.213C448.096 406.214 449.891 403.139 450.488 399.366C451.093 395.549 450.465 391.027 449.064 386.278C446.264 376.787 440.477 366.728 436.075 360.331L437.722 359.197C442.183 365.679 448.099 375.936 450.983 385.712C452.424 390.597 453.134 395.446 452.463 399.678C451.786 403.954 449.694 407.605 445.588 409.95L444.596 408.213ZM437.244 360.702L403.262 373.195L402.572 371.318L436.553 358.825L437.244 360.702ZM403.878 371.979L409.243 390.566L407.321 391.121L401.956 372.533L403.878 371.979ZM407.48 391.441C405.909 389.329 403.156 386.771 400.691 385.351C399.437 384.629 398.407 384.29 397.712 384.314C397.393 384.325 397.191 384.41 397.05 384.527C396.907 384.647 396.738 384.875 396.623 385.333L394.683 384.848C394.873 384.089 395.223 383.447 395.77 382.991C396.32 382.533 396.978 382.338 397.642 382.315C398.915 382.271 400.35 382.846 401.689 383.618C404.413 385.187 407.366 387.938 409.084 390.247L407.48 391.441ZM396.623 385.333C395.173 391.133 400.533 395.167 405.179 393.248L405.943 395.097C399.795 397.636 392.83 392.258 394.683 384.848L396.623 385.333ZM406.418 393.657C408.557 397.206 410.238 402.066 411.284 406.645C412.323 411.199 412.773 415.649 412.328 418.368L410.354 418.044C410.735 415.72 410.358 411.579 409.334 407.09C408.315 402.626 406.694 397.99 404.705 394.689L406.418 393.657ZM412.328 418.368C411.902 420.966 411.071 424.065 409.036 426.96C406.991 429.87 403.779 432.505 398.711 434.246L398.061 432.354C402.764 430.739 405.616 428.348 407.4 425.81C409.193 423.259 409.954 420.49 410.354 418.044L412.328 418.368ZM398.711 434.246C392.317 436.443 386.518 435.304 382.556 432.095C378.6 428.89 376.581 423.697 377.608 418.028L379.576 418.384C378.674 423.36 380.446 427.812 383.815 430.541C387.181 433.267 392.242 434.354 398.061 432.354L398.711 434.246ZM377.608 418.028C378.098 415.327 378.609 413.372 379.016 411.852C379.429 410.303 379.702 409.311 379.776 408.419C379.91 406.8 379.403 405.434 376.829 401.579L378.492 400.469C381.044 404.291 381.967 406.194 381.769 408.585C381.676 409.698 381.341 410.897 380.948 412.368C380.547 413.869 380.052 415.763 379.576 418.384L377.608 418.028ZM376.829 401.579C375.425 399.477 374.443 396.249 374.073 392.728C373.701 389.189 373.934 385.241 375.062 381.656C376.191 378.069 378.237 374.786 381.528 372.703C384.832 370.611 389.255 369.813 394.961 370.943L394.573 372.905C389.245 371.85 385.372 372.637 382.598 374.392C379.813 376.156 378 378.982 376.97 382.256C375.939 385.533 375.713 389.199 376.062 392.519C376.413 395.857 377.333 398.732 378.492 400.469L376.829 401.579ZM393.772 372.025C393.394 368.299 393.789 363.606 396.173 359.288C398.573 354.941 402.932 351.075 410.287 348.953L410.841 350.874C403.945 352.865 400.042 356.417 397.924 360.254C395.79 364.12 395.412 368.375 395.762 371.823L393.772 372.025ZM410.287 348.953C417.509 346.868 424.442 346.225 430.827 348.323C437.236 350.429 442.938 355.244 447.789 363.76L446.051 364.75C441.38 356.549 436.028 352.137 430.203 350.223C424.353 348.301 417.869 348.846 410.841 350.874L410.287 348.953ZM446.987 365.252C439.522 365.753 434.815 367.232 431.936 368.519C430.496 369.164 429.498 369.766 428.821 370.195C428.501 370.397 428.193 370.6 427.973 370.726C427.863 370.789 427.712 370.869 427.549 370.923C427.429 370.962 427.027 371.083 426.61 370.852L427.577 369.102C427.395 369.001 427.224 368.986 427.118 368.99C427.017 368.994 426.947 369.015 426.926 369.022C426.89 369.034 426.898 369.036 426.982 368.988C427.149 368.893 427.371 368.746 427.752 368.505C428.476 368.046 429.562 367.39 431.119 366.694C434.234 365.301 439.174 363.772 446.853 363.257L446.987 365.252ZM427.965 369.487C429.817 372.781 432.34 377.753 433.868 381.945C434.625 384.021 435.176 386.005 435.232 387.525C435.26 388.277 435.173 389.055 434.803 389.684C434.387 390.39 433.694 390.773 432.852 390.803L432.78 388.804C433.001 388.796 433.041 388.735 433.08 388.669C433.165 388.524 433.256 388.201 433.234 387.598C433.19 386.409 432.734 384.673 431.989 382.63C430.513 378.583 428.049 373.718 426.222 370.467L427.965 369.487Z" fill="#513011"/>
<path d="M436.987 392.627C435.633 394.137 431.843 396.662 427.515 394.69" stroke="#513011" stroke-width="2" stroke-linecap="round" stroke-linejoin="round"/>
<path d="M411.183 349.734C415.286 349.222 425.84 351.679 431.322 361.373" stroke="#513011" stroke-width="2" stroke-linecap="round" stroke-linejoin="round"/>
<path d="M223.518 130L216.968 124.384L218.298 122.955L227.406 114.378L215.842 112.438L214 111.826L216.661 103.351L218.605 104.066L228.737 109.171L227.099 97.9399V96H235.901V97.9399L234.161 109.171L244.395 104.066L246.237 103.351L249 111.826L247.056 112.438L235.389 114.378L244.395 122.955L245.827 124.384L239.175 130L238.05 128.468L231.398 117.85L224.643 128.468L223.518 130Z" fill="#EFDDC7"/>
<path d="M255.757 429.323L252.697 427.948L253.018 427.257L255.353 422.983L250.885 423.567L250.138 423.545L250.12 420.043L250.917 420.091L255.231 420.865L253.314 416.812L253.087 416.08L256.315 415.078L256.542 415.81L257.22 420.248L260.375 417.156L260.967 416.676L262.973 419.561L262.332 420.014L258.28 422.074L262.588 424.287L263.281 424.663L261.499 427.54L260.907 427.09L257.224 423.839L255.991 428.616L255.757 429.323Z" fill="#E0E5CD"/>
<path d="M250.262 350.567C250.358 350.023 249.996 349.504 249.452 349.408C248.908 349.311 248.389 349.674 248.293 350.217L250.262 350.567ZM219.853 363.05L219.267 363.86L219.853 363.05ZM200.767 317.957L201.074 317.005L200.767 317.957ZM313.896 148.592C313.857 148.041 313.379 147.626 312.828 147.664C312.277 147.703 311.862 148.181 311.901 148.732L313.896 148.592ZM248.293 350.217C247.178 356.501 242.332 361.015 236.595 363.203C230.828 365.402 224.452 365.143 220.439 362.24L219.267 363.86C224.002 367.286 231.145 367.422 237.307 365.072C243.499 362.711 248.991 357.732 250.262 350.567L248.293 350.217ZM220.439 362.24C216.502 359.391 215.007 355.873 214.566 351.978C214.114 347.988 214.77 343.716 215.134 339.282C215.491 334.939 215.558 330.478 213.693 326.534C211.8 322.531 208.013 319.238 201.074 317.005L200.461 318.909C207.041 321.027 210.295 324.025 211.885 327.389C213.504 330.812 213.496 334.798 213.141 339.118C212.793 343.347 212.098 347.955 212.579 352.202C213.07 356.544 214.788 360.62 219.267 363.86L220.439 362.24ZM201.074 317.005C186.537 312.327 177.119 304.847 171.952 296.227C166.787 287.609 165.81 277.754 168.334 268.193C173.387 249.045 192.506 231.086 219.994 227.18L219.713 225.199C191.533 229.204 171.684 247.659 166.4 267.682C163.754 277.707 164.765 288.126 170.237 297.255C175.706 306.38 185.573 314.117 200.461 318.909L201.074 317.005ZM219.994 227.18C247.994 223.2 272.033 212.254 288.794 197.977C305.54 183.713 315.118 166.026 313.896 148.592L311.901 148.732C313.064 165.315 303.954 182.436 287.497 196.454C271.056 210.459 247.38 221.268 219.713 225.199L219.994 227.18Z" fill="#513011"/>
<path d="M365.488 438.746C365.652 438.219 365.357 437.658 364.83 437.495C364.303 437.331 363.742 437.625 363.578 438.153L365.488 438.746ZM292.633 463.312L293.036 462.397L292.633 463.312ZM173.395 522.211C173.266 522.748 173.596 523.288 174.133 523.417C174.67 523.547 175.21 523.216 175.339 522.679L173.395 522.211ZM363.578 438.153C361.06 446.256 354.509 457.208 343.091 463.686C331.727 470.133 315.379 472.239 293.036 462.397L292.23 464.227C315.043 474.276 332.069 472.238 344.078 465.425C356.034 458.643 362.855 447.219 365.488 438.746L363.578 438.153ZM293.036 462.397C264.561 449.854 237.86 451.351 216.647 462.768C195.449 474.176 179.836 495.43 173.395 522.211L175.339 522.679C181.666 496.375 196.963 475.632 217.595 464.529C238.211 453.434 264.26 451.907 292.23 464.227L293.036 462.397Z" fill="#513011"/>
<path d="M432.738 425.095C432.365 424.687 431.733 424.659 431.325 425.031C430.918 425.404 430.889 426.037 431.262 426.444L432.738 425.095ZM464.505 425.769L463.854 425.01L464.505 425.769ZM519.401 411.747C519.843 412.078 520.47 411.987 520.801 411.545C521.132 411.103 521.041 410.476 520.599 410.145L519.401 411.747ZM431.262 426.444C433.768 429.184 438.443 432.437 444.408 433.388C450.423 434.348 457.652 432.95 465.155 426.529L463.854 425.01C456.77 431.072 450.124 432.275 444.723 431.413C439.273 430.544 434.989 427.556 432.738 425.095L431.262 426.444ZM465.155 426.529C474.299 418.704 483.092 411.413 492.026 407.878C496.469 406.119 500.911 405.306 505.421 405.808C509.927 406.31 514.568 408.132 519.401 411.747L520.599 410.145C515.522 406.349 510.551 404.367 505.642 403.821C500.737 403.274 495.963 404.168 491.29 406.018C481.989 409.699 472.944 417.232 463.854 425.01L465.155 426.529Z" fill="#513011"/>
<path d="M273.931 332.624C273.73 332.109 273.15 331.856 272.635 332.057C272.121 332.259 271.867 332.839 272.069 333.353L273.931 332.624ZM333.531 346.687L334.083 347.521L333.531 346.687ZM452.277 333.68C452.659 334.079 453.292 334.093 453.691 333.711C454.09 333.329 454.104 332.696 453.723 332.297L452.277 333.68ZM272.069 333.353C274.921 340.635 281.442 350.106 291.803 354.79C302.24 359.509 316.344 359.269 334.083 347.521L332.979 345.854C315.674 357.313 302.3 357.341 292.627 352.968C282.877 348.56 276.655 339.578 273.931 332.624L272.069 333.353ZM334.083 347.521C355.888 333.081 379.642 323.479 400.868 320.582C422.115 317.683 440.644 321.517 452.277 333.68L453.723 332.297C441.462 319.479 422.159 315.658 400.597 318.601C379.013 321.546 354.979 331.284 332.979 345.854L334.083 347.521Z" fill="#513011"/>
</svg>
