<svg width="263" height="170" viewBox="0 0 263 170" fill="none" xmlns="http://www.w3.org/2000/svg">
<g clip-path="url(#clip0_2_572)">
<path d="M219.116 68.9602C209.5 55.8843 183.087 34.9379 175.818 31.6876L189.781 8.74878C193.177 10.2556 223.025 17.8272 239.023 39.5581L219.116 68.9602Z" fill="#EFDDC7"/>
<path d="M185.722 168.698C185.722 168.698 201.457 151.563 207.227 113.767C207.832 109.559 208.145 105.315 208.163 101.065C208.163 96.3698 209.412 89.1718 216.905 91.2391L217.342 91.4757C219.692 92.751 221.527 94.7967 222.538 97.2664C223.061 98.5541 223.3 99.9388 223.239 101.327C223.179 102.715 222.821 104.073 222.188 105.311C221.372 106.93 220.076 108.258 218.476 109.116C216.876 109.974 215.05 110.319 213.246 110.106C211.265 109.913 209.394 109.103 207.901 107.789" stroke="#513011" stroke-width="2" stroke-linecap="round" stroke-linejoin="round"/>
<path d="M148.606 49.2716L157.91 32.6465C160.052 28.7197 163.438 25.6106 167.538 23.8047C173.171 21.4137 181.7 20.8284 193.227 28.126C200.218 32.3556 206.532 37.607 211.96 43.705C214.34 46.5295 215.976 49.9015 216.72 53.5155C217.463 57.1295 217.291 60.8714 216.218 64.4023L212.722 76.1332C212.722 76.1332 210.511 84.5018 214.92 84.0659L248.901 29.3838C251.468 25.292 252.49 20.4228 251.786 15.6479C251.049 10.9779 248.651 6.09624 242.082 4.963C238.058 4.32138 233.942 5.27814 230.618 7.62799C226.871 10.2058 220.714 13.9542 216.631 13.8546C216.157 13.8329 215.695 13.7049 215.278 13.4801C214.861 13.2554 214.501 12.9396 214.224 12.5565C213.946 12.1734 213.759 11.7328 213.676 11.2675C213.594 10.8023 213.617 10.3244 213.746 9.86957C214.595 6.75626 215.294 1.02778 209.05 1.28929C207.486 1.38127 205.964 1.83265 204.603 2.60819C203.243 3.38373 202.08 4.46243 201.207 5.76C197.648 10.9655 190.342 21.6254 184.161 30.6665C175.831 42.8208 158.759 46.37 146.695 37.7897C141.313 33.9541 137.541 28.2754 138.415 19.9069C138.575 18.2511 139.124 16.6562 140.018 15.2518C140.912 13.8475 142.126 12.6733 143.561 11.8247C150.641 7.76498 167.563 4.11618 201.569 25.0874C250.162 55.0374 262.538 77.0298 261.651 95.772C260.765 114.514 243.094 109.221 229.843 99.9812C219.79 92.9575 200.858 80.8779 192.291 75.4483C190.27 74.1367 187.846 73.5878 185.456 73.9006C183.065 74.2134 180.865 75.3673 179.253 77.1544C177.005 79.7197 175.806 83.7172 178.154 89.8442C183.898 104.788 209.088 99.5328 206.428 76.1457C203.767 52.7585 185.672 60.7286 185.672 60.7286C185.672 60.7286 176.83 63.3811 172.858 71.3014C172.858 71.3014 167.026 56.5443 162.256 59.8568C156.449 63.8792 163.142 68.6613 157.398 77.914C153.651 83.8667 148.056 85.8965 144.909 88.5242C144.327 88.9984 143.857 89.5958 143.535 90.2732C143.213 90.9505 143.046 91.6909 143.046 92.4407C143.046 93.1905 143.213 93.9309 143.535 94.6083C143.857 95.2857 144.327 95.8831 144.909 96.3573C148.181 99.0098 154.4 102.945 160.495 100.816C169.324 97.7396 164.903 90.2427 160.495 92.0111C156.673 93.5304 153.514 99.2838 155 106.233C155.197 107.179 155.714 108.029 156.464 108.641C157.214 109.253 158.152 109.59 159.121 109.595H162.518C163.275 109.594 164.017 109.803 164.661 110.199C165.305 110.595 165.826 111.162 166.165 111.837C166.941 113.496 168.34 114.784 170.061 115.423C171.412 115.835 172.864 115.764 174.168 115.223C175.472 114.682 176.546 113.705 177.204 112.459C179.377 108.524 185.859 100.23 189.693 103.456C195.001 107.864 202.843 118.001 185.622 136.718C168.4 155.435 137.916 166.892 117.584 150.155C97.2533 133.418 110.966 114.477 122.005 120.641C133.045 126.805 128.612 158.424 106.37 152.696C84.8772 147.166 79.5696 130.168 91.9207 88.574C92.7758 85.7066 93.8401 82.9054 95.1052 80.193L114.3 39.0973C114.3 39.0973 103.897 30.7287 58.3892 38.6614C58.3892 38.6614 31.4515 43.7548 8.43528 33.6801L4.53881 95.3486C4.53881 95.3486 3.28999 101.301 11.6698 91.1643C20.0495 81.0273 21.3858 95.1244 12.9935 101.737C5.50044 107.615 -1.10592 116.27 2.57818 117.814C3.05075 117.987 3.56238 118.023 4.05479 117.92C4.54719 117.816 5.00053 117.577 5.36309 117.229L23.6837 100.965C24.595 100.132 25.7288 99.5812 26.9479 99.3778C28.1669 99.1745 29.4189 99.3278 30.5523 99.8193C32.8377 100.89 34.3738 104.302 28.8913 109.632C20.4866 117.814 10.246 121.886 6.57443 127.515C4.63872 130.504 6.0749 132.31 9.47177 131.251C12.8686 130.193 16.6402 127.179 24.4579 120.716C33.637 113.157 36.7342 111.164 38.3327 112.522C38.776 112.925 39.0923 113.448 39.243 114.027C39.3938 114.606 39.3726 115.217 39.1819 115.784C38.3701 118.35 34.6736 123.182 24.8951 129.483C13.9052 136.619 12.2942 140.105 15.2914 141.724C16.0473 142.105 16.9057 142.233 17.74 142.089C18.5744 141.946 19.3402 141.538 19.9246 140.927C22.9968 137.864 30.4774 131.426 36.4219 126.295C36.9637 125.804 37.607 125.439 38.3062 125.223C39.0054 125.008 39.7434 124.949 40.4682 125.05C42.4538 125.361 44.3895 128.424 37.9705 133.48C27.8923 141.488 23.5088 142.384 31.5889 145.049C33.2996 145.61 35.0669 145.982 36.859 146.158C40.2933 146.494 46.0006 148.113 51.3457 154.576C59.7379 164.701 76.972 158.312 76.972 158.312" stroke="#513011" stroke-width="2" stroke-linecap="round" stroke-linejoin="round"/>
<path d="M121.806 115.398C121.806 115.398 120.357 97.9639 128.15 94.6513C128.82 94.3871 129.538 94.2631 130.258 94.2871C130.979 94.3111 131.687 94.4826 132.338 94.7909C132.989 95.0993 133.57 95.5378 134.044 96.0794C134.518 96.621 134.875 97.2539 135.093 97.939C135.543 99.2964 136.105 101.139 136.792 103.655C138.877 111.376 145.384 101.912 147.394 104.826L151.266 109.633" stroke="#513011" stroke-width="2" stroke-linecap="round" stroke-linejoin="round"/>
<path d="M146.408 80.8158C146.408 80.8158 134.769 90.3674 129.773 77.4908C128.677 74.5331 128.291 71.3609 128.644 68.2276C128.998 65.0944 130.082 62.087 131.809 59.446C134.943 54.5395 139.876 49.9193 146.383 53.2194C158.309 59.446 150.017 72.2729 145.596 70.9404C142.037 69.8818 138.69 67.4908 141.375 64.9006C141.799 64.5265 142.313 64.268 142.866 64.1501C143.42 64.0323 143.994 64.0592 144.535 64.2281C145.799 64.5571 146.924 65.2816 147.744 66.2953L149.942 68.898C149.942 68.898 152.565 61.588 145.933 60.268" stroke="#513011" stroke-width="2" stroke-linecap="round" stroke-linejoin="round"/>
<path d="M144.197 115.398L160.982 118.474C160.982 118.474 152.59 128.163 144.197 115.398Z" fill="#513011"/>
<path d="M186.858 86.3947C188.403 86.3947 189.655 85.1458 189.655 83.6052C189.655 82.0646 188.403 80.8157 186.858 80.8157C185.313 80.8157 184.061 82.0646 184.061 83.6052C184.061 85.1458 185.313 86.3947 186.858 86.3947Z" stroke="#513011" stroke-width="2" stroke-linecap="round" stroke-linejoin="round"/>
<path d="M195.15 85.6475C195.15 85.6475 192.353 77.6525 186.296 77.7521" stroke="#513011" stroke-width="2" stroke-linecap="round" stroke-linejoin="round"/>
<path d="M111.927 44.4772L118.971 46.3701C118.971 46.3701 80.7684 110.803 91.9581 144.751" stroke="#513011" stroke-width="2" stroke-linecap="round" stroke-linejoin="round"/>
</g>
<path d="M15.0017 45.3655V77.6393C17.0778 79.9042 26.2126 84.8868 46.1431 86.6987C71.0562 88.9635 80.1155 71.4111 80.1155 57.8221C80.1155 54.9911 78.4168 38.5711 60.2982 45.3655C45.8033 50.8011 24.061 47.6304 15.0017 45.3655Z" fill="#FFF8F1"/>
<path d="M65.8702 96.911C59.8306 107.669 70.3766 134.147 92.5722 145.018" stroke="#513011" stroke-width="2" stroke-linecap="round" stroke-linejoin="round" stroke-dasharray="4 4"/>
<circle cx="71.4839" cy="58.3883" r="5.09586" stroke="#513011" stroke-width="2" stroke-linecap="round" stroke-linejoin="round"/>
<circle cx="32.2082" cy="75.6783" r="3.10723" stroke="#513011" stroke-width="2" stroke-linecap="round" stroke-linejoin="round"/>
<circle cx="68.4596" cy="87.0716" r="3.10723" stroke="#513011" stroke-width="2" stroke-linecap="round" stroke-linejoin="round"/>
<defs>
<clipPath id="clip0_2_572">
<rect width="262.72" height="169.862" fill="white" transform="translate(0.280273 0.0689697)"/>
</clipPath>
</defs>
</svg>
