<svg width="321" height="258" viewBox="0 0 321 258" fill="none" xmlns="http://www.w3.org/2000/svg">
<circle r="26.4577" transform="matrix(-1 1.65284e-08 1.65284e-08 1 55.5566 146.53)" fill="#FFF8F1"/>
<path d="M36.3237 122.21C36.4093 121.664 36.921 121.291 37.4666 121.377C38.0122 121.462 38.3851 121.974 38.2995 122.52L36.3237 122.21ZM53.2474 172.515C52.9321 172.969 52.309 173.081 51.8555 172.766C51.402 172.45 51.29 171.827 51.6052 171.374L53.2474 172.515ZM38.2995 122.52C37.6354 126.752 36.0685 140.033 46.3934 148.118L45.1603 149.693C33.8491 140.835 35.6646 126.41 36.3237 122.21L38.2995 122.52ZM46.3934 148.118C57.6072 156.899 56.5998 167.693 53.2474 172.515L51.6052 171.374C54.3213 167.467 55.5826 157.854 45.1603 149.693L46.3934 148.118Z" fill="#513011"/>
<path d="M40.7687 108.287C41.321 108.279 41.7752 108.72 41.7834 109.273C41.7915 109.825 41.3504 110.279 40.7982 110.287L40.7687 108.287ZM29.2669 133.544L28.3253 133.88L29.2669 133.544ZM19.9021 160.703C19.6808 160.197 19.9115 159.608 20.4175 159.386C20.9234 159.165 21.5131 159.396 21.7344 159.902L19.9021 160.703ZM40.7982 110.287C38.0736 110.327 33.8123 111.568 31.0523 114.963C28.3472 118.292 26.8933 123.936 30.2085 133.207L28.3253 133.88C24.8559 124.178 26.2207 117.737 29.5003 113.702C32.7249 109.735 37.6142 108.334 40.7687 108.287L40.7982 110.287ZM30.2085 133.207C34.4418 145.046 34.1054 155.957 31.7029 161.993C31.0994 163.509 30.3433 164.774 29.4447 165.667C28.5387 166.567 27.4382 167.131 26.2043 167.09C24.9797 167.049 23.8283 166.419 22.7968 165.357C21.7672 164.296 20.7964 162.747 19.9021 160.703L21.7344 159.902C22.5734 161.819 23.4274 163.135 24.2318 163.963C25.0342 164.79 25.7257 165.073 26.2706 165.091C26.8061 165.109 27.4014 164.877 28.0351 164.248C28.6761 163.611 29.3035 162.613 29.8447 161.253C32.0209 155.786 32.4424 145.395 28.3253 133.88L30.2085 133.207Z" fill="#513011"/>
<path d="M60.2461 76.2955C63.6479 76.9239 68.2596 82.4072 64.6615 98.6007" stroke="#513011" stroke-width="2" stroke-linecap="round" stroke-linejoin="round"/>
<path d="M61.7036 140.59C61.4012 140.128 61.5306 139.508 61.9927 139.205C62.4549 138.903 63.0747 139.032 63.3771 139.495L61.7036 140.59ZM91.0897 88.3262L90.7447 87.3876C91.1734 87.23 91.6545 87.383 91.9135 87.7593L91.0897 88.3262ZM50.3287 103.311L49.3679 103.588C49.2224 103.084 49.4912 102.554 49.9836 102.372L50.3287 103.311ZM56.7637 125.607L57.7245 125.33C57.8586 125.794 57.6411 126.288 57.208 126.503C56.7749 126.718 56.2501 126.592 55.9615 126.204L56.7637 125.607ZM41.6154 118.706L42.5855 118.948L41.6154 118.706ZM53.5002 129.6L53.1185 128.676C53.5754 128.487 54.1016 128.661 54.3567 129.084L53.5002 129.6ZM44.8939 176.534L44.569 175.588L44.8939 176.534ZM40.5524 102.912L41.5473 102.811C41.5793 103.127 41.4599 103.439 41.2254 103.652C40.9909 103.865 40.6692 103.955 40.3582 103.893L40.5524 102.912ZM103.111 93.7131L103.98 93.2181C104.15 93.5173 104.155 93.8831 103.992 94.1864C103.829 94.4897 103.521 94.6879 103.178 94.7109L103.111 93.7131ZM79.3287 100.577L78.457 101.067C78.238 100.678 78.3041 100.19 78.6189 99.8728C78.9337 99.5556 79.4207 99.4857 79.812 99.7017L79.3287 100.577ZM86.2287 125.359C85.6767 125.379 85.2132 124.947 85.1934 124.395C85.1735 123.844 85.6049 123.38 86.1568 123.36L86.2287 125.359ZM63.3771 139.495C66.1469 143.727 70.9995 148.032 77.3452 150.017C83.6579 151.991 91.5252 151.695 100.422 146.615L101.414 148.352C92.0627 153.691 83.6219 154.076 76.7482 151.926C69.9074 149.786 64.6951 145.161 61.7036 140.59L63.3771 139.495ZM100.422 146.615C104.681 144.183 106.863 140.437 107.588 135.86C108.319 131.241 107.559 125.784 105.874 120.074C102.507 108.661 95.5524 96.5751 90.2659 88.8931L91.9135 87.7593C97.2584 95.5263 104.341 107.81 107.792 119.508C109.517 125.354 110.361 131.138 109.563 136.173C108.759 141.252 106.279 145.574 101.414 148.352L100.422 146.615ZM91.4348 89.2648L50.6737 104.25L49.9836 102.372L90.7447 87.3876L91.4348 89.2648ZM51.2895 103.034L57.7245 125.33L55.8029 125.884L49.3679 103.588L51.2895 103.034ZM55.9615 126.204C54.0623 123.652 50.7402 120.563 47.7581 118.846C46.2452 117.974 44.9698 117.545 44.0777 117.575C43.6605 117.59 43.3727 117.703 43.1638 117.877C42.9515 118.054 42.7302 118.37 42.5855 118.948L40.6453 118.463C40.8654 117.583 41.2678 116.854 41.8831 116.341C42.5018 115.825 43.2454 115.603 44.0085 115.577C45.477 115.526 47.1577 116.192 48.7563 117.113C51.9972 118.979 55.5195 122.26 57.566 125.01L55.9615 126.204ZM42.5855 118.948C40.806 126.067 47.3949 131.04 53.1185 128.676L53.8819 130.525C46.6569 133.508 38.4633 127.191 40.6453 118.463L42.5855 118.948ZM54.3567 129.084C56.9074 133.317 58.9187 139.124 60.1699 144.605C61.4153 150.061 61.9472 155.369 61.4198 158.59L59.4461 158.267C59.9091 155.439 59.4506 150.441 58.22 145.05C56.9952 139.684 55.0449 134.101 52.6436 130.116L54.3567 129.084ZM61.4198 158.59C60.9121 161.691 59.9218 165.376 57.505 168.815C55.0782 172.268 51.2616 175.404 45.2188 177.48L44.569 175.588C50.2457 173.638 53.7035 170.746 55.8687 167.665C58.044 164.57 58.9634 161.215 59.4461 158.267L61.4198 158.59ZM45.2188 177.48C37.6067 180.095 30.7233 178.735 26.0314 174.934C21.344 171.137 18.9467 164.981 20.1669 158.25L22.1348 158.607C21.0404 164.644 23.1899 170.058 27.2903 173.38C31.3863 176.698 37.5317 178.006 44.569 175.588L45.2188 177.48ZM20.1669 158.25C20.7527 155.018 21.3646 152.679 21.8512 150.858C22.3456 149.008 22.6783 147.798 22.769 146.706C22.9368 144.686 22.2867 142.995 19.2013 138.374L20.8646 137.263C23.9279 141.851 24.994 144.08 24.7622 146.871C24.6531 148.185 24.257 149.602 23.7834 151.375C23.3018 153.177 22.7062 155.455 22.1348 158.607L20.1669 158.25ZM19.2013 138.374C17.5419 135.889 16.3704 132.052 15.9281 127.847C15.484 123.624 15.7631 118.916 17.1064 114.646C18.4504 110.374 20.8812 106.483 24.7792 104.015C28.689 101.54 33.9396 100.583 40.7467 101.931L40.3582 103.893C33.9296 102.62 29.229 103.565 25.849 105.705C22.4572 107.852 20.2597 111.288 19.0142 115.247C17.7679 119.208 17.4961 123.634 17.9172 127.638C18.3401 131.66 19.4497 135.144 20.8646 137.263L19.2013 138.374ZM39.5575 103.013C39.1068 98.5719 39.5791 92.9864 42.4137 87.8518C45.264 82.6889 50.448 78.083 59.2237 75.5501L59.7783 77.4717C51.4605 79.8724 46.7336 84.165 44.1647 88.8184C41.5801 93.5 41.1249 98.6485 41.5473 102.811L39.5575 103.013ZM59.2237 75.5501C67.8681 73.0552 76.1392 72.294 83.7446 74.7927C91.3744 77.2994 98.1785 83.0348 103.98 93.2181L102.242 94.2081C96.6205 84.3403 90.1664 79.0077 83.1203 76.6928C76.0498 74.3698 68.2274 75.0331 59.7783 77.4717L59.2237 75.5501ZM103.178 94.7109C94.2016 95.3125 88.5327 97.0915 85.0552 98.6468C83.3163 99.4245 82.1106 100.153 81.2942 100.67C80.9045 100.916 80.5434 101.154 80.2841 101.302C80.1548 101.376 79.9881 101.464 79.8126 101.522C79.6799 101.565 79.2691 101.687 78.8454 101.453L79.812 99.7017C79.6337 99.6033 79.4666 99.5889 79.3649 99.5926C79.2686 99.5962 79.2048 99.6164 79.1902 99.6212C79.1666 99.6289 79.1901 99.6236 79.2935 99.5647C79.4996 99.4472 79.7741 99.2648 80.2246 98.9796C81.0888 98.4326 82.3826 97.6512 84.2387 96.8211C87.9512 95.1606 93.8542 93.3313 103.044 92.7154L103.178 94.7109ZM80.2004 100.087C82.4192 104.035 85.4392 109.987 87.2674 115.001C88.1744 117.488 88.8258 119.843 88.8916 121.633C88.9242 122.521 88.8201 123.409 88.4046 124.114C87.9434 124.898 87.1765 125.325 86.2287 125.359L86.1568 123.36C86.4838 123.348 86.5966 123.243 86.6813 123.099C86.8117 122.878 86.92 122.444 86.8929 121.707C86.8393 120.248 86.2834 118.14 85.3885 115.686C83.613 110.817 80.6511 104.971 78.457 101.067L80.2004 100.087Z" fill="#513011"/>
<path d="M91.1966 127.746C89.5722 129.557 85.0256 132.587 79.8341 130.221" stroke="#513011" stroke-width="2" stroke-linecap="round" stroke-linejoin="round"/>
<path d="M60.2441 76.2961C65.1655 75.6808 77.8247 78.629 84.4011 90.2567" stroke="#513011" stroke-width="2" stroke-linecap="round" stroke-linejoin="round"/>
<path d="M145.158 189.478C172.168 213.851 213.048 212.572 236.465 186.621C259.883 160.669 256.97 119.874 229.96 95.5004C202.949 71.1272 162.07 72.4063 138.652 98.3574C115.235 124.309 118.147 165.104 145.158 189.478Z" fill="#EFDDC7"/>
<path d="M73.976 149.993C76.237 173.683 103.801 157.981 118.088 175.133C132.375 192.284 135.211 219.141 172.256 221.787C209.301 224.433 232.12 209.681 249.268 185.094C271.955 152.654 262.913 107.055 230.459 82.4251C228.318 80.8241 225.872 79.6845 223.285 79.0815C220.698 78.4786 218.027 78.4258 215.449 78.9269C212.871 79.4279 210.444 80.4712 208.328 81.9882C206.213 83.5052 204.456 85.4614 203.175 87.7276C202.687 88.6055 202.431 89.5974 202.43 90.6127C202.428 91.628 202.682 92.6345 203.167 93.5409C211.581 109.815 231.861 120.015 206.858 117.095C189.1 114.99 218.669 129.935 204.163 133.626C189.657 137.317 192.381 148.298 202.43 157.909C212.478 167.519 233.77 162.351 235.647 147.168C237.525 131.984 226.687 125.98 222.409 135.299C218.132 144.619 235.647 165.965 235.647 165.965C243.185 192.166 214.278 184.947 214.278 184.947C208.97 199.897 185.862 197.474 185.862 197.474L177.081 196.147C171.014 199.111 158.406 204.514 158.294 197.672C157.902 175.494 181.572 144.619 181.572 144.619L165.724 142.831L163.854 138.38C163.468 137.448 162.746 136.688 161.834 136.252C160.922 135.816 159.887 135.736 158.939 136.03C154.096 137.528 146.219 142.497 147.114 159.308C147.569 169.419 143.517 173.522 138.422 175.133C134.334 176.263 129.92 175.742 126.121 173.683C122.323 171.623 119.44 168.187 118.088 164.107C114.414 153.405 113.213 142.076 114.577 130.983C115.941 119.89 119.834 109.324 125.96 100.089C132.085 90.8544 140.282 83.1936 149.927 77.6895C159.571 72.1853 170.41 68.9827 181.619 68.3253C182.377 68.2711 183.143 68.3932 183.856 68.6819C184.569 68.9706 185.21 69.4182 185.728 69.9894C186.247 70.5607 186.629 71.2401 186.845 71.9747C187.061 72.7093 187.105 73.4791 186.973 74.2236C186.1 78.6739 182.752 84.4305 172.256 87.3266C157.894 91.2447 174.914 102.238 183.298 106.99C185.047 107.919 186.451 109.396 187.285 111.186C188.12 112.977 188.338 114.977 187.904 116.869C187.731 117.846 187.219 118.721 186.456 119.344C185.693 119.967 184.728 120.298 183.729 120.28C182.679 120.268 181.64 120.016 180.691 119.542C179.742 119.069 178.909 118.387 178.256 117.549C177.604 116.712 177.149 115.741 176.927 114.713C176.705 113.684 176.723 112.625 176.978 111.617L178.476 105.258" stroke="#513011" stroke-width="2" stroke-linecap="round" stroke-linejoin="round"/>
<path d="M106.433 68.8159L101.624 74.4053L118.056 66.041C126.555 65.4925 148.498 62.3265 164.965 54.8422C185.548 45.4869 183.002 25.6353 177.675 18.0244C166.634 2.2509 109.602 6.73929 88.8945 32.1133C72.3281 52.4125 93.7057 66.9688 106.433 68.8159Z" stroke="#513011" stroke-width="2" stroke-linecap="round" stroke-linejoin="round"/>
<path d="M114.556 35.4561C114.543 35.3991 114.525 35.3009 114.504 35.1614C114.469 35.0132 114.433 34.865 114.398 34.7168C114.36 34.5572 114.33 34.4077 114.309 34.2682C114.276 34.1314 114.255 34.0402 114.244 33.9946C114.455 33.6188 114.645 33.3807 114.814 33.2802C114.994 33.1769 115.156 33.1744 115.3 33.2725C115.441 33.3593 115.566 33.5283 115.674 33.7796C115.794 34.0282 115.905 34.315 116.006 34.6401C116.108 34.9652 116.202 35.3102 116.289 35.6749C116.376 36.0397 116.464 36.3802 116.551 36.6967C116.636 37.0017 116.724 37.2698 116.816 37.501C116.907 37.7322 117.008 37.8769 117.118 37.9349L122.983 36.5348C123.222 36.4777 123.375 36.3628 123.442 36.1901C123.51 36.0174 123.52 35.81 123.475 35.5679C123.44 35.3231 123.369 35.0509 123.262 34.7513C123.154 34.4517 123.045 34.1465 122.935 33.8355C122.833 33.5103 122.745 33.1939 122.672 32.8862C122.607 32.5643 122.592 32.2728 122.626 32.0116C122.671 31.7478 122.779 31.5173 122.948 31.3201C123.118 31.1229 123.403 30.9767 123.802 30.8815C124.001 31.0627 124.15 31.2803 124.247 31.5343C124.341 31.7769 124.409 32.0377 124.451 32.3167C124.505 32.593 124.542 32.8733 124.562 33.1578C124.59 33.4281 124.634 33.6887 124.694 33.9394C124.855 34.6119 125.055 35.2749 125.296 35.9284C125.547 36.5791 125.799 37.2299 126.051 37.8806C126.314 38.5286 126.566 39.1793 126.806 39.8328C127.055 40.4721 127.257 41.1167 127.412 41.7664C127.604 42.4676 127.679 42.9858 127.639 43.3207C127.596 43.6443 127.484 43.8094 127.305 43.816C127.129 43.834 126.894 43.7093 126.601 43.4419C126.32 43.1717 126.024 42.7905 125.714 42.2983C125.415 41.8034 125.123 41.2105 124.838 40.5196C124.561 39.8146 124.333 39.0377 124.155 38.1887L117.982 39.6623C118.25 40.4297 118.529 41.1461 118.821 41.8115C119.123 42.4741 119.373 43.0652 119.569 43.5846C119.774 44.0898 119.903 44.5048 119.957 44.8294C120.019 45.1399 119.943 45.3266 119.729 45.3898C119.399 45.4687 119.094 45.4271 118.814 45.2649C118.531 45.0914 118.258 44.8312 117.995 44.4845C117.743 44.135 117.504 43.7161 117.279 43.2277C117.052 42.7278 116.835 42.2011 116.631 41.6475C116.424 41.0825 116.225 40.5034 116.035 39.9102C115.857 39.3142 115.684 38.7411 115.517 38.1907C115.349 37.6404 115.185 37.1313 115.025 36.6634C114.863 36.1842 114.707 35.7817 114.556 35.4561ZM127.773 38.4996C127.626 37.884 127.553 37.2508 127.554 36.5999C127.556 35.9491 127.657 35.3404 127.86 34.7741C128.073 34.2051 128.4 33.7054 128.839 33.2752C129.29 32.8423 129.886 32.5374 130.627 32.3605C131.048 32.2598 131.438 32.2512 131.795 32.3346C132.15 32.4065 132.465 32.5421 132.742 32.7411C133.018 32.9402 133.248 33.1985 133.433 33.5159C133.626 33.8193 133.766 34.1533 133.853 34.5181C133.991 35.0994 133.989 35.6962 133.846 36.3087C133.715 36.9184 133.471 37.4885 133.116 38.0191C132.77 38.5356 132.331 38.9715 131.802 39.3269C131.27 39.6708 130.688 39.8579 130.056 39.8882C130.147 40.216 130.319 40.458 130.573 40.6142C130.836 40.7563 131.128 40.8432 131.449 40.8751C131.769 40.9069 132.094 40.9018 132.421 40.8598C132.745 40.8064 133.033 40.7498 133.284 40.6899C133.546 40.6273 133.786 40.546 134.003 40.446C134.22 40.346 134.436 40.2403 134.65 40.1288C134.864 40.0174 135.08 39.9117 135.297 39.8117C135.526 39.709 135.771 39.6263 136.033 39.5637C136.136 39.5392 136.24 39.5204 136.345 39.5073C136.45 39.4942 136.554 39.4996 136.656 39.5234C136.755 39.5359 136.844 39.5809 136.923 39.6584C136.999 39.7246 137.052 39.8204 137.082 39.9458C137.134 40.1624 137.098 40.3638 136.973 40.5501C136.846 40.7249 136.67 40.8936 136.444 41.0561C136.229 41.2158 135.98 41.3595 135.697 41.4873C135.412 41.6036 135.13 41.7129 134.854 41.8151C134.586 41.9032 134.332 41.9759 134.092 42.033C133.867 42.0988 133.698 42.1453 133.584 42.1725C132.854 42.3467 132.172 42.3892 131.536 42.3C130.897 42.1994 130.33 41.9916 129.833 41.6765C129.333 41.35 128.906 40.9219 128.55 40.3923C128.204 39.8486 127.944 39.2177 127.773 38.4996ZM129.32 36.9555C129.415 37.3545 129.536 37.6329 129.682 37.7908C129.84 37.9459 130.129 37.9732 130.551 37.8725C130.847 37.8017 131.126 37.6811 131.386 37.5104C131.644 37.3284 131.864 37.1133 132.045 36.8651C132.239 36.6142 132.372 36.3413 132.446 36.0465C132.521 35.7517 132.521 35.4504 132.447 35.1427C132.407 34.9717 132.347 34.7991 132.27 34.6249C132.203 34.4479 132.107 34.2963 131.98 34.1699C131.851 34.032 131.701 33.9352 131.531 33.8794C131.37 33.8095 131.176 33.8017 130.948 33.8562C130.606 33.9378 130.311 34.0924 130.064 34.32C129.826 34.5335 129.64 34.7888 129.506 35.0858C129.37 35.3714 129.287 35.6804 129.258 36.0126C129.226 36.3335 129.247 36.6478 129.32 36.9555ZM136.636 31.1789C136.557 30.8484 136.458 30.5346 136.339 30.2378C136.217 29.9295 136.139 29.653 136.105 29.4081C136.068 29.1519 136.105 28.9321 136.218 28.7485C136.342 28.5622 136.61 28.4201 137.02 28.3221C137.208 28.5544 137.423 28.9247 137.665 29.4333C137.918 29.9391 138.185 30.526 138.465 31.1941C138.745 31.8622 139.034 32.5943 139.333 33.3905C139.628 34.1753 139.914 34.9685 140.19 35.7702C140.477 36.5691 140.744 37.3607 140.992 38.145C141.248 38.9151 141.471 39.621 141.66 40.2625C141.344 40.6031 141.046 40.6923 140.766 40.5302C140.486 40.368 140.211 40.0482 139.94 39.5706C139.667 39.0817 139.402 38.4763 139.145 37.7544C138.886 37.0212 138.621 36.2651 138.351 35.4863C138.089 34.6933 137.815 33.9215 137.527 33.1709C137.237 32.4089 136.94 31.7449 136.636 31.1789ZM140.724 30.2029C140.645 29.8723 140.546 29.5586 140.427 29.2617C140.305 28.9535 140.227 28.6769 140.193 28.4321C140.156 28.1759 140.194 27.956 140.307 27.7725C140.431 27.5862 140.698 27.4441 141.108 27.3461C141.296 27.5783 141.511 27.9487 141.753 28.4572C142.007 28.963 142.273 29.5499 142.553 30.218C142.833 30.8861 143.122 31.6183 143.421 32.4145C143.717 33.1993 144.002 33.9925 144.278 34.7941C144.565 35.593 144.833 36.3846 145.08 37.1689C145.336 37.9391 145.559 38.6449 145.748 39.2865C145.432 39.6271 145.134 39.7163 144.854 39.5541C144.575 39.392 144.299 39.0721 144.029 38.5946C143.755 38.1056 143.49 37.5002 143.234 36.7784C142.974 36.0451 142.71 35.2891 142.439 34.5102C142.178 33.7173 141.903 32.9455 141.615 32.1949C141.325 31.4329 141.028 30.7689 140.724 30.2029ZM145.884 35.5312C145.715 34.8245 145.724 34.1297 145.91 33.4466C146.094 32.7522 146.402 32.1245 146.834 31.5634C147.275 30.9883 147.802 30.495 148.415 30.0837C149.039 29.6697 149.698 29.3797 150.394 29.2137C150.781 29.1211 151.153 29.1649 151.509 29.3449C151.877 29.5222 152.207 29.7687 152.499 30.0845C152.789 30.3889 153.032 30.7283 153.23 31.1027C153.44 31.4745 153.579 31.8085 153.65 32.1049C153.803 32.7432 153.797 33.4011 153.634 34.0787C153.467 34.7449 153.195 35.3702 152.816 35.9545C152.435 36.5275 151.971 37.0299 151.423 37.4618C150.876 37.8937 150.294 38.1831 149.679 38.3301C149.132 38.4607 148.648 38.4797 148.228 38.3871C147.806 38.2832 147.444 38.1045 147.143 37.8512C146.839 37.5865 146.579 37.2568 146.364 36.8623C146.158 36.4536 145.998 36.01 145.884 35.5312ZM147.378 35.3552C147.449 35.6516 147.534 35.9083 147.634 36.1254C147.743 36.3284 147.879 36.4947 148.043 36.6243C148.217 36.7512 148.424 36.8344 148.662 36.8739C148.898 36.902 149.175 36.878 149.495 36.8018C149.916 36.7011 150.311 36.4864 150.678 36.1578C151.043 35.8177 151.348 35.4315 151.594 34.9993C151.849 34.5529 152.027 34.0886 152.129 33.6065C152.231 33.1244 152.233 32.6782 152.135 32.2678C152.091 32.0854 152.027 31.8901 151.941 31.6816C151.855 31.4732 151.75 31.2874 151.627 31.124C151.504 30.9607 151.353 30.8341 151.175 30.7441C150.997 30.654 150.794 30.6363 150.566 30.6907C150.36 30.7397 150.132 30.8666 149.879 31.0714C149.639 31.2735 149.39 31.5195 149.134 31.8096C148.889 32.0969 148.652 32.4127 148.42 32.757C148.201 33.0986 148.004 33.4348 147.83 33.7655C147.656 34.0962 147.525 34.4046 147.436 34.6907C147.359 34.9742 147.34 35.1957 147.378 35.3552Z" fill="#513011"/>
<circle r="23.0482" transform="matrix(-0.9739 -0.226977 -0.226977 0.9739 288.75 86.6158)" fill="#FFF8F1"/>
<path d="M283.345 98.7102C289.868 100.23 302.68 101.153 301.741 92.6817C300.78 86.3895 302.065 86.0822 305.748 83.2996C309.43 80.5169 308.201 75.376 305.419 71.6934C302.636 68.0108 301.433 65.8821 302.826 61.9868C305.031 55.821 299.218 51.437 293.54 54.9681C287.861 58.4992 285.472 40.4199 278.821 40.0082C268.212 39.3515 274.656 52.6698 269.342 52.0381C264.028 51.4065 257.818 52.7064 256.879 56.7351C255.979 60.5961 260.654 63.9701 259.408 66.7137C258.092 69.6113 254.352 77.9916 262.544 79.294" stroke="#513011" stroke-width="2" stroke-linecap="round" stroke-linejoin="round"/>
<path d="M262.685 106.638C266.038 92.2494 275.672 102.99 267.038 100.978C260.132 99.3682 259.925 92.4428 260.685 89.1813C261.732 82.9527 264.517 70.6563 267.28 71.3002C270.733 72.105 270.08 67.0984 271.594 63.2037C273.109 59.3089 276.026 62.416 277.255 67.557C278.484 72.6979 280.479 71.9492 283.664 73.9052C286.849 75.8611 283.205 81.0801 287.81 82.1532C292.414 83.2263 294.889 85.6237 293.95 89.6525C293.199 92.8757 289.379 93.644 287.563 93.6253L283.137 112.619C281.083 121.341 278.818 136.457 286.189 127.139C295.403 115.491 248.721 102.388 239.617 108.343C230.533 114.286 240.608 129.834 250.151 133.462" stroke="#513011" stroke-width="2" stroke-linecap="round" stroke-linejoin="round"/>
<path d="M266.418 88.9389C266.815 89.8405 268.867 91.4514 273.901 90.6827" stroke="#513011" stroke-width="2" stroke-linecap="round" stroke-linejoin="round"/>
</svg>