<svg width="257" height="216" viewBox="0 0 257 216" fill="none" xmlns="http://www.w3.org/2000/svg">
<path d="M103.166 177.874C103.166 170.16 103.166 154.436 103.166 154.436C76.3618 154.436 23.5492 154.436 14.2224 154.436C5.09825 154.436 3.27855 151.234 3.47753 149.033C3.07948 115.209 2.04461 45.5201 1.0895 37.3544C0.1344 29.1887 7.0589 28.3481 10.6405 28.9485C56.6049 28.3481 150.921 27.0271 160.472 26.5468C170.023 26.0664 171.615 32.3508 171.217 35.5531V77.5953M162.405 9.34863C156.112 31.1858 57.9623 40.1236 10.6405 37.3544C17.1765 87.5896 26.3267 188.06 10.6405 188.06C-8.96722 188.06 7.81769 162.267 58.705 188.06C109.592 213.853 154.703 175.332 117.984 154.436" stroke="#513011" stroke-width="2" stroke-linecap="round" stroke-linejoin="round"/>
<path d="M89.1295 26.5212V21.8152C81.8481 17.6974 79.5798 -0.349221 95.197 1.8147C99.4429 2.40302 107.453 10.5208 95.8035 21.8152V26.5212" stroke="#513011" stroke-width="2" stroke-linecap="round" stroke-linejoin="round"/>
<path d="M93.5694 1.63443C89.2034 0.631737 78.1117 -0.739057 78.1113 11.1288C78.1108 22.9966 88.5054 22.9063 88.7912 21.8095" stroke="#513011" stroke-width="2"/>
<circle r="36.1974" transform="matrix(-1 1.65284e-08 1.65284e-08 1 203.35 179.061)" fill="#EFDDC7"/>
<path d="M240.341 124.485C244.982 128.183 251.432 137.421 240.102 144.783" stroke="#513011" stroke-width="2" stroke-linecap="round" stroke-linejoin="round"/>
<path d="M228.905 120.095C229.231 119.649 229.133 119.023 228.687 118.697C228.241 118.372 227.615 118.469 227.29 118.915L228.905 120.095ZM224.276 156.215L224.59 155.265C224.138 155.116 223.642 155.306 223.407 155.72L224.276 156.215ZM214.203 200.624C214.303 201.167 214.825 201.526 215.368 201.425C215.911 201.325 216.27 200.803 216.17 200.26L214.203 200.624ZM227.29 118.915C224.77 122.365 221.008 127.529 219.344 132.338C218.511 134.744 218.146 137.215 218.868 139.393C219.611 141.638 221.432 143.359 224.493 144.373L225.121 142.474C222.506 141.608 221.265 140.269 220.766 138.765C220.246 137.194 220.461 135.225 221.234 132.992C222.781 128.521 226.341 123.606 228.905 120.095L227.29 118.915ZM224.493 144.373C226.714 145.108 228.478 145.197 229.962 144.947C231.43 144.7 232.558 144.127 233.457 143.675C234.407 143.198 234.994 142.924 235.608 142.917C236.154 142.91 236.897 143.127 238.046 144.145L239.372 142.648C238.015 141.446 236.81 140.902 235.584 140.917C234.425 140.93 233.415 141.458 232.559 141.888C231.653 142.344 230.767 142.783 229.629 142.975C228.507 143.164 227.073 143.121 225.121 142.474L224.493 144.373ZM238.046 144.145C239.016 145.003 239.453 146.283 239.333 147.775C239.212 149.275 238.522 150.935 237.303 152.381C234.896 155.237 230.461 157.21 224.59 155.265L223.961 157.164C230.611 159.366 235.9 157.149 238.832 153.669C240.284 151.947 241.168 149.903 241.327 147.935C241.486 145.959 240.91 144.009 239.372 142.648L238.046 144.145ZM223.407 155.72C218.973 163.514 215.722 169.745 214.064 176.536C212.401 183.354 212.359 190.663 214.203 200.624L216.17 200.26C214.36 190.487 214.43 183.477 216.007 177.011C217.591 170.519 220.711 164.504 225.145 156.709L223.407 155.72Z" fill="#513011"/>
<path d="M180.214 113.417L179.875 114.358C180.152 114.458 180.46 114.43 180.715 114.283L180.214 113.417ZM148.232 86.5714L148.547 85.6221C148.264 85.5286 147.955 85.5657 147.703 85.7232C147.45 85.8808 147.281 86.1426 147.241 86.4374L148.232 86.5714ZM241.175 124.761L240.78 125.68C241.067 125.803 241.395 125.785 241.667 125.632C241.939 125.478 242.123 125.207 242.166 124.898L241.175 124.761ZM225.267 94.4849L225.681 93.5747L225.267 94.4849ZM206.386 178.092C206.933 178.013 207.311 177.506 207.232 176.959C207.153 176.412 206.646 176.034 206.099 176.113L206.386 178.092ZM193.614 117.346L194.545 116.98L194.539 116.967L193.614 117.346ZM181.513 140.703L181.317 139.723C180.872 139.812 180.543 140.189 180.515 140.642C180.487 141.095 180.768 141.51 181.199 141.653L181.513 140.703ZM188.118 150.723L187.311 150.132C187.112 150.404 187.063 150.759 187.182 151.075C187.301 151.39 187.57 151.625 187.9 151.699L188.118 150.723ZM196.741 152.653L197.691 152.967C197.78 152.699 197.751 152.406 197.611 152.16C197.472 151.914 197.235 151.738 196.96 151.677L196.741 152.653ZM188.282 156.216C187.784 155.978 187.187 156.19 186.95 156.689C186.712 157.188 186.924 157.784 187.423 158.022L188.282 156.216ZM180.553 112.476C175.237 110.563 166.942 106.726 160.188 101.979C156.81 99.605 153.864 97.0355 151.865 94.4039C149.862 91.767 148.889 89.176 149.223 86.7055L147.241 86.4374C146.808 89.6405 148.104 92.7581 150.273 95.6136C152.445 98.4743 155.574 101.181 159.038 103.616C165.969 108.487 174.432 112.399 179.875 114.358L180.553 112.476ZM147.918 87.5207C161.888 92.1473 215.617 114.874 240.78 125.68L241.569 123.842C216.457 113.058 162.622 90.2833 148.547 85.6221L147.918 87.5207ZM242.166 124.898C243.287 116.747 242.189 101.085 225.681 93.5747L224.853 95.3951C240.161 102.36 241.257 116.829 240.184 124.625L242.166 124.898ZM225.681 93.5747C216.283 89.2987 205.042 87.9338 194.291 93.2752C183.553 98.61 173.514 110.531 166.28 132.376L168.179 133.005C175.318 111.446 185.095 100.077 195.181 95.0663C205.253 90.062 215.844 91.296 224.853 95.3951L225.681 93.5747ZM166.28 132.376C162.654 143.324 161.913 151.906 163.271 158.576C164.636 165.279 168.109 169.986 172.755 173.161C181.956 179.449 195.631 179.65 206.386 178.092L206.099 176.113C195.45 177.655 182.432 177.352 173.884 171.51C169.655 168.62 166.489 164.355 165.231 158.177C163.966 151.967 164.617 143.759 168.179 133.005L166.28 132.376ZM180.715 114.283C182.008 113.534 184.5 113.034 186.97 113.455C189.398 113.868 191.627 115.134 192.689 117.726L194.539 116.967C193.143 113.558 190.199 111.976 187.306 111.483C184.454 110.997 181.475 111.532 179.713 112.551L180.715 114.283ZM192.684 117.713C193.068 118.691 193.037 120.449 192.511 122.747C191.998 124.987 191.061 127.552 189.856 130.015C188.651 132.48 187.196 134.802 185.67 136.572C184.117 138.374 182.607 139.465 181.317 139.723L181.709 141.684C183.668 141.292 185.547 139.778 187.185 137.878C188.851 135.945 190.394 133.468 191.653 130.894C192.912 128.319 193.908 125.609 194.461 123.193C195 120.835 195.166 118.559 194.545 116.98L192.684 117.713ZM181.199 141.653C181.512 141.757 181.967 141.85 182.419 141.941C182.901 142.039 183.449 142.148 184.034 142.288C185.216 142.569 186.457 142.956 187.424 143.541C188.381 144.119 188.949 144.813 189.063 145.697C189.183 146.625 188.844 148.041 187.311 150.132L188.925 151.314C190.587 149.045 191.262 147.109 191.047 145.441C190.826 143.73 189.709 142.585 188.459 141.829C187.22 141.08 185.734 140.637 184.497 140.342C183.873 140.193 183.288 140.077 182.817 139.981C182.318 139.88 182.001 139.812 181.828 139.754L181.199 141.653ZM187.9 151.699L196.523 153.628L196.96 151.677L188.336 149.747L187.9 151.699ZM195.792 152.338C195.419 153.464 194.573 154.989 193.307 155.938C192.115 156.831 190.496 157.269 188.282 156.216L187.423 158.022C190.33 159.405 192.74 158.862 194.506 157.539C196.197 156.271 197.234 154.345 197.691 152.967L195.792 152.338Z" fill="#513011"/>
<rect x="100.691" y="87.9561" width="40.3512" height="17.802" rx="5" transform="rotate(-1.23803 100.691 87.9561)" fill="#FFF8F1"/>
<rect x="27.1779" y="73.8667" width="47.4049" height="16.671" rx="5" transform="rotate(-1.23803 27.1779 73.8667)" fill="#FFF8F1"/>
<path fill-rule="evenodd" clip-rule="evenodd" d="M90.4536 45.6822C87.1408 45.7575 84.5163 48.5042 84.5916 51.8171L84.8499 63.1723C84.9253 66.4851 87.672 69.1097 90.9848 69.0343L94.961 68.9439L97.3518 73.1519C97.5285 73.4627 97.8576 73.6557 98.2152 73.6578C98.5727 73.66 98.9042 73.4711 99.0847 73.1625L101.639 68.7919L134.737 68.0391C138.05 67.9637 140.675 65.217 140.599 61.9042L140.341 50.5489C140.266 47.2361 137.519 44.6116 134.206 44.6869L90.4536 45.6822ZM100.278 67.1784C100.242 67.2229 100.21 67.2707 100.182 67.321L98.2336 70.6551L96.4113 67.448C96.3168 67.2767 96.1736 67.1364 96.0009 67.0453C95.8877 66.9857 95.7619 66.9471 95.6287 66.9348C95.5836 66.9305 95.5381 66.9293 95.4926 66.9312L90.9393 67.0348C88.7308 67.0851 86.8997 65.3354 86.8494 63.1268L86.5911 51.7716C86.5409 49.563 88.2906 47.7319 90.4991 47.6816L134.251 46.6864C136.46 46.6362 138.291 48.3859 138.341 50.5944L138.6 61.9497C138.65 64.1582 136.9 65.9894 134.692 66.0396L101.052 66.8048C100.757 66.8067 100.47 66.9389 100.278 67.1784Z" fill="#513011"/>
<path fill-rule="evenodd" clip-rule="evenodd" d="M70.4886 70.5918C73.8014 70.5164 76.5481 73.1409 76.6234 76.4538L76.8817 87.809C76.9571 91.1219 74.3326 93.8685 71.0197 93.9439L67.0429 94.0344L64.8457 98.3469C64.6834 98.6655 64.3634 98.8732 64.0063 98.8916C63.6492 98.91 63.3095 98.7364 63.1152 98.4363L60.3647 94.1863L27.2674 94.9391C23.9545 95.0145 21.2078 92.39 21.1325 89.0771L20.8742 77.7219C20.7988 74.409 23.4233 71.6623 26.7362 71.587L70.4886 70.5918ZM61.7653 92.6694C61.5877 92.366 61.2552 92.1655 60.8788 92.1741L27.2219 92.9396C25.0133 92.9899 23.1822 91.2402 23.132 89.0316L22.8737 77.6764C22.8234 75.4678 24.5731 73.6367 26.7817 73.5865L70.534 72.5912C72.7426 72.541 74.5737 74.2907 74.624 76.4993L74.8823 87.8545C74.9325 90.0631 73.1828 91.8942 70.9742 91.9444L66.409 92.0483L66.4011 92.0484C66.3806 92.0489 66.3603 92.05 66.3401 92.0517C66.363 92.0497 66.3859 92.0486 66.409 92.0483M66.0066 92.1391C65.8085 92.2297 65.6384 92.3853 65.5319 92.5944L63.8514 95.8928L61.7653 92.6694" fill="#513011"/>
<path fill-rule="evenodd" clip-rule="evenodd" d="M56.1889 119.429C59.5018 119.353 62.2485 121.978 62.3238 125.291L62.4367 130.254C62.5121 133.566 59.8876 136.313 56.5747 136.388L55.4638 136.414L54.0056 139.276C53.8433 139.594 53.5233 139.802 53.1662 139.821C52.8091 139.839 52.4694 139.665 52.2751 139.365L50.4389 136.528L28.9132 137.018C25.6003 137.093 22.8536 134.469 22.7783 131.156L22.6654 126.193C22.59 122.88 25.2145 120.133 28.5274 120.058L56.1889 119.429ZM51.0035 134.516C51.3539 134.526 51.661 134.716 51.8319 134.999L53.0113 136.822L53.9529 134.974C54.0492 134.785 54.1975 134.639 54.3715 134.546C54.4757 134.49 54.591 134.452 54.7135 134.436C54.755 134.431 54.7969 134.428 54.839 134.427L56.5292 134.389C58.7378 134.339 60.4875 132.508 60.4372 130.299L60.3243 125.336C60.2741 123.127 58.443 121.378 56.2344 121.428L28.5729 122.057C26.3643 122.107 24.6146 123.939 24.6649 126.147L24.7778 131.11C24.828 133.319 26.6591 135.068 28.8677 135.018L50.9377 134.516C50.9597 134.515 50.9816 134.515 51.0035 134.516Z" fill="#513011"/>
<path fill-rule="evenodd" clip-rule="evenodd" d="M91.4624 90.041C88.1495 90.1164 85.525 92.8631 85.6004 96.1759L85.8587 107.531C85.934 110.844 88.6807 113.469 91.9936 113.393L95.9697 113.303L98.3606 117.511C98.5372 117.822 98.8664 118.015 99.2239 118.017C99.5815 118.019 99.913 117.83 100.093 117.521L102.648 113.151L135.746 112.398C139.059 112.323 141.683 109.576 141.608 106.263L141.35 94.9078C141.274 91.595 138.528 88.9705 135.215 89.0458L91.4624 90.041ZM101.287 111.537C101.251 111.582 101.219 111.63 101.191 111.68L99.2423 115.014L97.42 111.807C97.3253 111.635 97.1818 111.495 97.0087 111.404C96.8957 111.344 96.7702 111.306 96.6374 111.294C96.5923 111.289 96.5468 111.288 96.5012 111.29L91.9481 111.394C89.7395 111.444 87.9084 109.694 87.8581 107.486L87.5999 96.1305C87.5496 93.9219 89.2993 92.0908 91.5079 92.0405L135.26 91.0453C137.469 90.9951 139.3 92.7447 139.35 94.9533L139.608 106.309C139.659 108.517 137.909 110.348 135.7 110.398L102.061 111.164C101.766 111.166 101.479 111.298 101.287 111.537Z" fill="#513011"/>
<rect x="22.3629" y="53.264" width="26.2601" height="8.14967" rx="4.07484" transform="rotate(-1.30306 22.3629 53.264)" stroke="#513011" stroke-width="2" stroke-linecap="round" stroke-linejoin="round"/>
<rect x="97.2904" y="128.045" width="26.2601" height="8.14967" rx="4.07484" transform="rotate(-1.30306 97.2904 128.045)" stroke="#513011" stroke-width="2" stroke-linecap="round" stroke-linejoin="round"/>
<circle cx="28.7824" cy="56.7407" r="0.905519" transform="rotate(-1.30306 28.7824 56.7407)" fill="#513011"/>
<circle cx="35.1194" cy="56.5966" r="0.905519" transform="rotate(-1.30306 35.1194 56.5966)" fill="#513011"/>
<circle cx="41.4554" cy="56.4524" r="0.905519" transform="rotate(-1.30306 41.4554 56.4524)" fill="#513011"/>
<circle cx="103.709" cy="131.521" r="0.905519" transform="rotate(-1.30306 103.709 131.521)" fill="#513011"/>
<circle cx="110.046" cy="131.377" r="0.905519" transform="rotate(-1.30306 110.046 131.377)" fill="#513011"/>
<circle cx="116.382" cy="131.233" r="0.905519" transform="rotate(-1.30306 116.382 131.233)" fill="#513011"/>
<circle cx="34.8238" cy="82.9305" r="3.1538" stroke="#513011" stroke-width="2"/>
<circle cx="129.768" cy="55.6339" r="4.3406" stroke="#513011" stroke-width="2"/>
</svg>