<svg width="283" height="226" viewBox="0 0 283 226" fill="none" xmlns="http://www.w3.org/2000/svg">
<rect x="84.3004" y="122.442" width="191.036" height="45.5375" rx="10" fill="#FFF8F1"/>
<g style="mix-blend-mode:multiply">
<rect x="74.3043" y="115.778" width="189.925" height="46.6482" rx="10" stroke="#513011" stroke-width="2"/>
</g>
<path d="M69.6588 138.318C31.7396 138.318 1 107.578 1 69.6591C1 31.7398 31.7396 1.00024 69.6588 1.00024" stroke="#513011" stroke-width="2" stroke-linecap="round" stroke-linejoin="round"/>
<path d="M69.9258 131.958C35.6656 131.958 7.89233 104.185 7.89233 69.9244" stroke="#513011" stroke-width="2" stroke-linecap="round" stroke-linejoin="round"/>
<path d="M70.0758 0.999975C107.995 0.999978 138.735 31.7396 138.735 69.6588C138.735 75.8007 133.292 83.7846 127.877 80.5348C121.922 76.961 133.725 60.4208 162.047 60.4208" stroke="#513011" stroke-width="2" stroke-linecap="round" stroke-linejoin="round"/>
<g style="mix-blend-mode:multiply">
<rect x="30.988" y="178.527" width="189.034" height="46.1057" rx="10" stroke="#513011" stroke-width="2"/>
</g>
<circle cx="78.713" cy="201.58" r="4.61057" fill="#513011"/>
<circle cx="97.1563" cy="201.58" r="4.61057" fill="#513011"/>
<circle cx="115.598" cy="201.58" r="4.61057" fill="#513011"/>
<circle cx="134.042" cy="201.58" r="4.61057" fill="#513011"/>
<circle cx="152.48" cy="201.58" r="4.61057" fill="#513011"/>
<circle cx="170.923" cy="201.58" r="4.61057" fill="#513011"/>
<path d="M147.329 143.865C147.387 143.583 147.534 143.355 147.768 143.179C148.014 142.992 148.29 142.822 148.594 142.669C148.911 142.517 149.239 142.376 149.579 142.248C149.919 142.107 150.229 141.96 150.51 141.808C150.803 141.656 151.044 141.48 151.231 141.281C151.419 141.07 151.512 140.818 151.512 140.525C151.512 140.15 151.413 139.839 151.214 139.593C151.026 139.347 150.768 139.136 150.44 138.96C150.124 138.785 149.76 138.638 149.35 138.521C148.94 138.404 148.518 138.287 148.085 138.169C147.663 138.041 147.247 137.906 146.837 137.765C146.426 137.613 146.057 137.425 145.729 137.203C145.413 136.98 145.155 136.71 144.956 136.394C144.768 136.078 144.675 135.685 144.675 135.216C144.675 134.83 144.751 134.466 144.903 134.126C145.067 133.775 145.278 133.447 145.536 133.142C145.805 132.826 146.11 132.539 146.45 132.281C146.801 132.023 147.165 131.806 147.54 131.63C147.926 131.455 148.313 131.32 148.7 131.226C149.087 131.121 149.444 131.068 149.772 131.068H149.966C150.071 131.103 150.212 131.162 150.387 131.244C150.563 131.326 150.733 131.408 150.897 131.49C151.061 131.56 151.202 131.63 151.319 131.701C151.436 131.759 151.495 131.794 151.495 131.806V132.21C151.272 132.234 150.985 132.281 150.633 132.351C150.282 132.41 149.913 132.492 149.526 132.597C149.139 132.703 148.747 132.837 148.348 133.001C147.95 133.154 147.592 133.335 147.276 133.546C146.96 133.757 146.702 134.003 146.503 134.285C146.303 134.554 146.204 134.865 146.204 135.216C146.204 135.72 146.38 136.119 146.731 136.412C147.083 136.693 147.522 136.927 148.05 137.115C148.577 137.302 149.151 137.472 149.772 137.625C150.405 137.765 150.985 137.941 151.512 138.152C152.04 138.351 152.479 138.621 152.831 138.96C153.182 139.289 153.358 139.734 153.358 140.296C153.358 140.601 153.264 140.923 153.077 141.263C152.901 141.591 152.661 141.919 152.356 142.248C152.063 142.564 151.729 142.869 151.354 143.162C150.979 143.455 150.592 143.712 150.194 143.935C149.807 144.146 149.426 144.322 149.051 144.462C148.676 144.591 148.342 144.656 148.05 144.656C147.956 144.656 147.856 144.644 147.751 144.621C147.645 144.597 147.551 144.562 147.469 144.515C147.399 144.457 147.341 144.375 147.294 144.269C147.258 144.164 147.27 144.029 147.329 143.865ZM154.907 138.029C154.907 137.958 154.907 137.847 154.907 137.695C154.919 137.531 154.925 137.361 154.925 137.185C154.936 137.009 154.942 136.839 154.942 136.675C154.954 136.511 154.96 136.394 154.96 136.324C155.089 136.136 155.253 135.984 155.452 135.867C155.663 135.75 155.874 135.656 156.085 135.585C156.12 136.218 156.22 136.892 156.384 137.607C156.548 138.322 156.723 139.042 156.911 139.769C157.098 140.484 157.263 141.193 157.403 141.896C157.556 142.599 157.632 143.255 157.632 143.865C157.632 144.392 157.362 144.656 156.823 144.656C156.495 144.656 156.22 144.521 155.997 144.251C155.774 143.982 155.593 143.642 155.452 143.232C155.323 142.81 155.218 142.347 155.136 141.843C155.054 141.328 154.995 140.824 154.96 140.332C154.936 139.839 154.919 139.388 154.907 138.978C154.907 138.568 154.907 138.251 154.907 138.029ZM155.153 131.437C155.376 131.531 155.563 131.683 155.716 131.894C155.868 132.105 155.932 132.298 155.909 132.474C155.897 132.638 155.768 132.755 155.522 132.826C155.276 132.884 154.866 132.814 154.292 132.615C154.292 132.298 154.35 132.023 154.468 131.789C154.597 131.554 154.825 131.437 155.153 131.437ZM162.942 153.972C163.599 153.972 164.185 153.849 164.7 153.603C165.216 153.369 165.649 153.041 166.001 152.619C166.364 152.208 166.64 151.734 166.827 151.195C167.026 150.667 167.126 150.117 167.126 149.542C167.126 149.25 167.108 148.863 167.073 148.382C167.05 147.902 167.009 147.38 166.95 146.818C166.892 146.255 166.804 145.681 166.687 145.095C166.581 144.509 166.446 143.958 166.282 143.443C166.118 142.916 165.913 142.458 165.667 142.072C165.433 141.673 165.157 141.392 164.841 141.228C164.536 141.462 164.237 141.679 163.944 141.878C163.651 142.066 163.347 142.224 163.03 142.353C162.714 142.482 162.386 142.587 162.046 142.669C161.706 142.74 161.343 142.775 160.956 142.775C160.452 142.775 160.019 142.728 159.655 142.634C159.304 142.541 159.005 142.382 158.759 142.16C158.524 141.937 158.349 141.644 158.231 141.281C158.114 140.917 158.056 140.46 158.056 139.91C158.056 139.523 158.149 139.148 158.337 138.785C158.524 138.41 158.771 138.064 159.075 137.748C159.392 137.419 159.743 137.121 160.13 136.851C160.528 136.582 160.933 136.347 161.343 136.148C161.765 135.949 162.175 135.796 162.573 135.691C162.983 135.585 163.347 135.533 163.663 135.533C163.968 135.533 164.22 135.544 164.419 135.568C164.618 135.58 164.788 135.626 164.929 135.708C165.069 135.779 165.187 135.896 165.28 136.06C165.386 136.212 165.485 136.423 165.579 136.693C165.849 137.607 166.159 138.591 166.511 139.646C166.862 140.701 167.196 141.785 167.513 142.898C167.829 144.011 168.093 145.13 168.304 146.255C168.526 147.392 168.638 148.488 168.638 149.542C168.638 150.48 168.503 151.271 168.233 151.916C167.976 152.572 167.63 153.105 167.196 153.515C166.774 153.937 166.288 154.259 165.737 154.482C165.198 154.705 164.653 154.845 164.103 154.904C163.552 154.974 163.019 154.992 162.503 154.957C161.987 154.921 161.542 154.851 161.167 154.746C160.792 154.652 160.505 154.541 160.306 154.412C160.118 154.283 160.071 154.171 160.165 154.078C160.271 153.996 160.54 153.937 160.974 153.902C161.407 153.867 162.063 153.89 162.942 153.972ZM163.188 137.009C162.321 137.197 161.618 137.46 161.079 137.8C160.552 138.128 160.153 138.486 159.884 138.873C159.626 139.248 159.485 139.628 159.462 140.015C159.438 140.39 159.509 140.712 159.673 140.982C159.837 141.251 160.071 141.457 160.376 141.597C160.692 141.726 161.05 141.732 161.448 141.615C161.847 141.486 162.269 141.216 162.714 140.806C163.171 140.396 163.628 139.787 164.085 138.978C164.085 138.779 164.085 138.562 164.085 138.328C164.097 138.093 164.079 137.882 164.032 137.695C163.985 137.496 163.897 137.332 163.769 137.203C163.64 137.074 163.446 137.009 163.188 137.009ZM168.675 138.697C168.675 138.392 168.751 138.175 168.903 138.046C169.056 137.906 169.302 137.835 169.642 137.835H169.818C169.853 138.023 169.894 138.24 169.941 138.486C169.987 138.732 170.058 138.984 170.152 139.242C170.245 139.5 170.357 139.74 170.486 139.962C170.614 140.173 170.773 140.343 170.96 140.472C170.972 140.062 171.071 139.669 171.259 139.294C171.458 138.908 171.698 138.568 171.98 138.275C172.273 137.97 172.589 137.718 172.929 137.519C173.28 137.308 173.626 137.167 173.966 137.097H174.353C174.915 137.097 175.396 137.226 175.794 137.484C176.193 137.73 176.521 138.058 176.778 138.468C177.048 138.867 177.253 139.324 177.394 139.839C177.534 140.355 177.64 140.882 177.71 141.421C177.792 141.949 177.839 142.464 177.851 142.968C177.874 143.46 177.886 143.882 177.886 144.234H176.603C176.532 143.531 176.445 142.857 176.339 142.212C176.304 141.955 176.257 141.685 176.198 141.404C176.14 141.111 176.075 140.841 176.005 140.595C175.935 140.337 175.859 140.103 175.777 139.892C175.695 139.669 175.601 139.482 175.495 139.33C175.448 139.283 175.384 139.218 175.302 139.136C175.232 139.054 175.155 138.972 175.073 138.89C174.991 138.808 174.915 138.738 174.845 138.679C174.775 138.621 174.734 138.591 174.722 138.591C174.37 138.498 174.066 138.568 173.808 138.802C173.55 139.025 173.321 139.33 173.122 139.716C172.923 140.103 172.759 140.542 172.63 141.035C172.513 141.527 172.413 142.001 172.331 142.458C172.249 142.904 172.191 143.296 172.155 143.636C172.12 143.964 172.097 144.164 172.085 144.234C171.792 144.445 171.517 144.509 171.259 144.427C171.001 144.333 170.755 144.146 170.521 143.865C170.298 143.583 170.093 143.232 169.905 142.81C169.73 142.388 169.566 141.943 169.413 141.474C169.261 140.994 169.12 140.513 168.991 140.033C168.874 139.552 168.769 139.107 168.675 138.697ZM187.136 137.449C187.136 137.378 187.136 137.255 187.136 137.08C187.148 136.892 187.154 136.699 187.154 136.5C187.154 136.3 187.154 136.119 187.154 135.955C187.166 135.779 187.171 135.656 187.171 135.585C187.253 135.445 187.347 135.31 187.453 135.181C187.57 135.041 187.687 134.947 187.804 134.9C187.933 134.841 188.068 134.83 188.208 134.865C188.361 134.9 188.513 135.017 188.666 135.216V135.357V135.585C188.654 135.644 188.63 135.785 188.595 136.007C188.56 136.218 188.519 136.453 188.472 136.71C188.425 136.968 188.378 137.208 188.332 137.431C188.296 137.642 188.279 137.777 188.279 137.835C188.279 138.058 188.302 138.339 188.349 138.679C188.396 139.007 188.46 139.353 188.542 139.716C188.636 140.08 188.748 140.443 188.876 140.806C189.017 141.169 189.181 141.498 189.369 141.791C189.556 142.072 189.761 142.306 189.984 142.494C190.218 142.681 190.488 142.775 190.792 142.775C191.167 142.775 191.496 142.675 191.777 142.476C192.07 142.277 192.322 142.019 192.533 141.703C192.744 141.386 192.914 141.029 193.042 140.63C193.183 140.232 193.294 139.833 193.376 139.435C193.458 139.025 193.517 138.632 193.552 138.257C193.587 137.882 193.605 137.554 193.605 137.273C193.605 136.992 193.582 136.728 193.535 136.482C193.5 136.224 193.453 135.972 193.394 135.726C193.335 135.48 193.283 135.24 193.236 135.005C193.201 134.759 193.183 134.513 193.183 134.267C193.183 134.044 193.259 133.886 193.412 133.792C193.576 133.699 193.757 133.652 193.957 133.652C194.203 133.652 194.402 133.728 194.554 133.88C194.707 134.021 194.824 134.203 194.906 134.425C195 134.648 195.058 134.906 195.082 135.199C195.117 135.48 195.134 135.761 195.134 136.042C195.134 136.324 195.128 136.593 195.117 136.851C195.105 137.097 195.099 137.296 195.099 137.449C195.099 137.847 195.07 138.298 195.011 138.802C194.953 139.306 194.847 139.828 194.695 140.367C194.554 140.894 194.373 141.416 194.15 141.931C193.939 142.447 193.675 142.91 193.359 143.32C193.054 143.718 192.697 144.041 192.287 144.287C191.888 144.533 191.437 144.656 190.933 144.656C190.406 144.656 189.943 144.533 189.544 144.287C189.146 144.029 188.806 143.695 188.525 143.285C188.255 142.863 188.027 142.388 187.839 141.861C187.652 141.333 187.505 140.806 187.4 140.279C187.306 139.751 187.236 139.242 187.189 138.75C187.154 138.246 187.136 137.812 187.136 137.449ZM196.261 138.134C196.261 136.998 196.525 136.154 197.052 135.603C197.58 135.052 198.388 134.777 199.478 134.777C199.924 134.777 200.381 134.818 200.849 134.9C201.33 134.982 201.769 135.128 202.168 135.339C202.566 135.539 202.888 135.82 203.134 136.183C203.392 136.546 203.521 137.015 203.521 137.589C203.521 138.222 203.381 138.82 203.099 139.382C202.83 139.933 202.484 140.455 202.062 140.947C201.652 141.427 201.195 141.878 200.691 142.3C200.199 142.71 199.736 143.103 199.302 143.478C199.279 143.525 199.256 143.625 199.232 143.777C199.22 143.917 199.215 144.011 199.215 144.058C199.215 144.445 199.326 144.832 199.549 145.218C199.783 145.617 200.035 146.015 200.304 146.414C200.574 146.824 200.82 147.246 201.043 147.679C201.265 148.113 201.377 148.564 201.377 149.033C201.377 149.314 201.318 149.478 201.201 149.525C201.084 149.583 200.838 149.613 200.463 149.613C200.228 149.519 199.994 149.296 199.759 148.945C199.537 148.605 199.308 148.183 199.074 147.679C198.851 147.175 198.629 146.607 198.406 145.974C198.195 145.353 197.99 144.72 197.791 144.076C197.603 143.419 197.422 142.775 197.246 142.142C197.082 141.498 196.935 140.906 196.806 140.367C196.677 139.828 196.56 139.365 196.455 138.978C196.361 138.58 196.297 138.298 196.261 138.134ZM197.756 138.292C197.756 138.468 197.767 138.726 197.791 139.066C197.814 139.394 197.861 139.722 197.931 140.05C198.013 140.378 198.131 140.666 198.283 140.912C198.435 141.146 198.646 141.263 198.916 141.263C199.279 141.263 199.642 141.14 200.006 140.894C200.381 140.648 200.709 140.337 200.99 139.962C201.283 139.587 201.517 139.189 201.693 138.767C201.881 138.333 201.974 137.941 201.974 137.589C201.974 137.296 201.904 137.068 201.763 136.904C201.623 136.728 201.441 136.593 201.218 136.5C201.007 136.394 200.779 136.33 200.533 136.306C200.287 136.271 200.052 136.253 199.83 136.253C199.162 136.253 198.646 136.435 198.283 136.798C197.931 137.15 197.756 137.648 197.756 138.292Z" fill="#513011"/>
<circle r="26.8178" transform="matrix(-1 0 0 1 79.6984 77.8535)" fill="#EFDDC7"/>
<path d="M75.3785 104.97V74.0265C77.2122 72.8805 80.8796 69.4881 80.8796 65.0873C80.8796 59.5862 77.4415 62.3367 70.5651 59.5862C63.6887 56.8356 52.6865 40.3323 47.8731 45.8334C44.0223 50.2343 43.518 63.7119 43.7472 69.9006C43.7472 77.4647 46.7728 92.0426 58.8753 89.8421C74.0033 87.0916 54.7494 79.038 47.8731 96.9166C40.9967 114.795 36.3766 100.355 35.689 99.6671" stroke="#513011" stroke-width="2" stroke-linecap="round" stroke-linejoin="round"/>
<path d="M46.0033 37.7795C47.1035 43.4424 53.0447 55.4963 68.0077 58.4087" stroke="#513011" stroke-width="2" stroke-linecap="round" stroke-linejoin="round"/>
<path d="M43.7472 60.9608C40.0798 55.0012 31.2545 42.0645 37.7526 32.9665C44.6289 23.3389 75.4119 28.2139 84.5119 36.4043C91.3883 42.5933 97.3829 49.9589 96.0076 70.588C94.6324 91.2171 109.761 88.4665 107.698 82.2778C105.635 76.0891 97.5777 99.6668 98.9523 101.73" stroke="#513011" stroke-width="2" stroke-linecap="round" stroke-linejoin="round"/>
<path d="M50.8165 76.2874C51.5041 77.2042 54.2546 78.4878 59.7557 76.2874" stroke="#513011" stroke-width="2" stroke-linecap="round" stroke-linejoin="round"/>
<path d="M282 158.925L271.85 165.616L282 175.577L276.477 180.929L266.477 171.414L259.91 180.929L244.237 143.166L282 158.925Z" stroke="#513011" stroke-width="2" stroke-linecap="round" stroke-linejoin="round"/>
</svg>

