<svg width="361" height="20" viewBox="0 0 361 20" fill="none" xmlns="http://www.w3.org/2000/svg">
<rect x="259" width="28" height="20" rx="2" fill="white"/>
<mask id="mask0" mask-type="alpha" maskUnits="userSpaceOnUse" x="259" y="0" width="28" height="20">
<rect x="259" width="28" height="20" rx="2" fill="white"/>
</mask>
<g mask="url(#mask0)">
<rect x="259" width="28" height="20" fill="#0A17A7"/>
<path d="M259 -0.333333H258.099L258.783 0.253086L263.333 4.15331V5.16179L258.806 8.39542L258.667 8.49513V8.66667V9.33333V9.93475L259.177 9.616L264.429 6.33333H265.56L270.082 9.56351C270.176 9.6306 270.289 9.66667 270.404 9.66667C270.918 9.66667 271.155 9.02698 270.764 8.69237L266.667 5.18002V4.17154L271.054 1.03762C271.229 0.912475 271.333 0.710428 271.333 0.495127V0V-0.601416L270.823 -0.282666L265.571 3H264.44L259.86 -0.271244L259.773 -0.333333H259.667H259Z" fill="#FF2E3B" stroke="white" stroke-width="0.666667"/>
<path fill-rule="evenodd" clip-rule="evenodd" d="M259 3.33333V6H263.667V9.33333C263.667 9.70152 263.965 10 264.333 10H265.667C266.035 10 266.333 9.70152 266.333 9.33333V6H271C271.368 6 271.667 5.70152 271.667 5.33333V4C271.667 3.63181 271.368 3.33333 271 3.33333H266.333V0H263.667V3.33333H259Z" fill="white"/>
<path fill-rule="evenodd" clip-rule="evenodd" d="M259 4H264.333V3.33333V0H265.667V3.33333V4H271V5.33333H265.667V6V9.33333H264.333V6V5.33333H259V4Z" fill="#FF2E3B"/>
<path fill-rule="evenodd" clip-rule="evenodd" d="M279 17.3333L278.057 17.6095L278.333 16.6666L278.057 15.7238L279 16L279.943 15.7238L279.667 16.6666L279.943 17.6095L279 17.3333Z" fill="#CA1931"/>
<path fill-rule="evenodd" clip-rule="evenodd" d="M279 4.66669L278.057 4.94283L278.333 4.00002L278.057 3.05721L279 3.33335L279.943 3.05721L279.667 4.00002L279.943 4.94283L279 4.66669Z" fill="#CA1931"/>
<path fill-rule="evenodd" clip-rule="evenodd" d="M283 8.66669L282.057 8.94283L282.333 8.00002L282.057 7.05721L283 7.33335L283.943 7.05721L283.667 8.00002L283.943 8.94283L283 8.66669Z" fill="#CA1931"/>
<path fill-rule="evenodd" clip-rule="evenodd" d="M275 10L274.057 10.2761L274.333 9.33333L274.057 8.39052L275 8.66667L275.943 8.39052L275.667 9.33333L275.943 10.2761L275 10Z" fill="#CA1931"/>
</g>
<rect x="148" width="28" height="20" rx="2" fill="white"/>
<mask id="mask1" mask-type="alpha" maskUnits="userSpaceOnUse" x="148" y="0" width="28" height="20">
<rect x="148" width="28" height="20" rx="2" fill="white"/>
</mask>
<g mask="url(#mask1)">
<rect x="148" width="28" height="20" fill="#0A17A7"/>
<path fill-rule="evenodd" clip-rule="evenodd" d="M146.718 -1.91644L158.667 6.14335V-1.33333H165.333V6.14335L177.282 -1.91644L178.774 0.294324L169.326 6.66667H176V13.3333H169.326L178.774 19.7057L177.282 21.9165L165.333 13.8567V21.3333H158.667V13.8567L146.718 21.9165L145.226 19.7057L154.674 13.3333H148V6.66667H154.674L145.226 0.294324L146.718 -1.91644Z" fill="white"/>
<path d="M166.668 6.33219L179.333 -2" stroke="#DB1F35" stroke-width="0.666667" stroke-linecap="round"/>
<path d="M168.013 13.6975L179.367 21.3503" stroke="#DB1F35" stroke-width="0.666667" stroke-linecap="round"/>
<path d="M156.006 6.31049L144.163 -1.67096" stroke="#DB1F35" stroke-width="0.666667" stroke-linecap="round"/>
<path d="M157.29 13.6049L144.163 22.3105" stroke="#DB1F35" stroke-width="0.666667" stroke-linecap="round"/>
<path fill-rule="evenodd" clip-rule="evenodd" d="M148 12H160V20H164V12H176V8H164V0H160V8H148V12Z" fill="#E6273E"/>
</g>
<rect x="296.25" y="0.25" width="27.5" height="19.5" rx="1.75" fill="#F5F5F5" stroke="#F5F5F5" stroke-width="0.5"/>
<mask id="mask2" mask-type="alpha" maskUnits="userSpaceOnUse" x="296" y="0" width="28" height="20">
<rect x="296.25" y="0.25" width="27.5" height="19.5" rx="1.75" fill="white" stroke="white" stroke-width="0.5"/>
</mask>
<g mask="url(#mask2)">
<path fill-rule="evenodd" clip-rule="evenodd" d="M296 13.3334H324V6.66669H296V13.3334Z" fill="#0C47B7"/>
<path fill-rule="evenodd" clip-rule="evenodd" d="M296 20H324V13.3333H296V20Z" fill="#E53B35"/>
</g>
<rect x="222.25" y="0.25" width="27.5" height="19.5" rx="1.75" fill="white" stroke="#F5F5F5" stroke-width="0.5"/>
<mask id="mask3" mask-type="alpha" maskUnits="userSpaceOnUse" x="222" y="0" width="28" height="20">
<rect x="222.25" y="0.25" width="27.5" height="19.5" rx="1.75" fill="white" stroke="white" stroke-width="0.5"/>
</mask>
<g mask="url(#mask3)">
<rect x="240.667" width="9.33333" height="20" fill="#E3283E"/>
<path fill-rule="evenodd" clip-rule="evenodd" d="M222 20H231.333V0H222V20Z" fill="#128A60"/>
<path d="M234 9.33331C234 8.96512 233.702 8.66665 233.333 8.66665C232.965 8.66665 232.667 8.96512 232.667 9.33331H234ZM234.329 12.2181C234.647 12.4029 235.055 12.2945 235.24 11.976C235.425 11.6576 235.317 11.2496 234.998 11.0648L234.329 12.2181ZM237.076 11.0198C236.765 11.2182 236.675 11.6305 236.873 11.9406C237.072 12.2508 237.484 12.3414 237.794 12.1431L237.076 11.0198ZM239.333 9.33331C239.333 8.96512 239.035 8.66665 238.667 8.66665C238.298 8.66665 238 8.96512 238 9.33331H239.333ZM232.667 9.33331C232.667 10.5664 233.337 11.6422 234.329 12.2181L234.998 11.0648C234.4 10.7177 234 10.0718 234 9.33331H232.667ZM237.794 12.1431C238.718 11.552 239.333 10.5147 239.333 9.33331H238C238 10.041 237.633 10.6634 237.076 11.0198L237.794 12.1431Z" fill="#8C9157"/>
<path fill-rule="evenodd" clip-rule="evenodd" d="M236 10.6667C236.736 10.6667 237.333 9.77126 237.333 8.66669C237.333 7.56212 236.736 6.66669 236 6.66669C235.264 6.66669 234.667 7.56212 234.667 8.66669C234.667 9.77126 235.264 10.6667 236 10.6667Z" fill="#C59262"/>
</g>
<rect x="185" width="28" height="20" rx="2" fill="white"/>
<mask id="mask4" mask-type="alpha" maskUnits="userSpaceOnUse" x="185" y="0" width="28" height="20">
<rect x="185" width="28" height="20" rx="2" fill="white"/>
</mask>
<g mask="url(#mask4)">
<path fill-rule="evenodd" clip-rule="evenodd" d="M185 20H213V0H185V20Z" fill="#F0371D"/>
<path fill-rule="evenodd" clip-rule="evenodd" d="M198.984 8.14571C199.947 7.33983 200.005 7.15961 200.236 6.44961C200.313 6.21263 200.259 6.01798 200.195 5.78812C200.102 5.45666 199.989 5.05197 200.22 4.34149C199.17 4.00016 197.949 4.85893 197.494 6.2596C197.039 7.66028 197.521 9.07246 198.572 9.41379C198.76 9.47489 198.739 9.43071 198.682 9.31108C198.582 9.10119 198.371 8.65903 198.984 8.14571ZM196.99 9.61761C196.521 8.45288 196.368 8.3415 195.764 7.9027C195.562 7.75623 195.36 7.74774 195.122 7.7377C194.778 7.72324 194.358 7.70557 193.754 7.26647C193.105 8.16009 193.544 9.58627 194.736 10.4519C195.927 11.3176 197.42 11.2949 198.069 10.4013C198.185 10.2414 198.137 10.2477 198.005 10.2651C197.775 10.2955 197.289 10.3595 196.99 9.61761ZM203 10.2538C202.253 10.2538 202.064 10.2538 201 9.58717C200.322 9.16253 199.967 9.49983 199.798 9.65995C199.702 9.75121 199.667 9.78491 199.667 9.58717C199.667 8.4826 200.861 7.58717 202.333 7.58717C203.806 7.58717 205 8.4826 205 9.58717C204.253 9.58717 203.903 9.81962 203.616 10.01C203.418 10.142 203.249 10.2538 203 10.2538ZM203 9C203 9.18409 202.851 9.33333 202.667 9.33333C202.483 9.33333 202.333 9.18409 202.333 9C202.333 8.8159 202.483 8.66666 202.667 8.66666C202.851 8.66666 203 8.8159 203 9ZM200.252 11.9499C199.947 13.1678 200.005 13.3481 200.236 14.0581C200.313 14.295 200.471 14.4206 200.658 14.5689C200.928 14.7826 201.257 15.0437 201.488 15.7542C202.539 15.4128 203.021 14.0007 202.566 12.6C202.111 11.1993 200.891 10.3405 199.84 10.6819C199.652 10.743 199.695 10.7663 199.812 10.8295C200.016 10.9405 200.447 11.1742 200.252 11.9499ZM201.429 13.6706C201.253 13.7275 201.065 13.6317 201.009 13.4566C200.952 13.2815 201.047 13.0935 201.223 13.0366C201.398 12.9797 201.586 13.0755 201.643 13.2506C201.699 13.4257 201.604 13.6137 201.429 13.6706ZM197.774 11.9688C196.521 12.0548 196.368 12.1662 195.764 12.605C195.562 12.7514 195.492 12.9408 195.409 13.1645C195.289 13.487 195.142 13.8808 194.538 14.3199C195.187 15.2135 196.679 15.2362 197.871 14.3705C199.062 13.5048 199.502 12.0787 198.853 11.185C198.736 11.0251 198.727 11.0732 198.703 11.2035C198.661 11.4322 198.572 11.9139 197.774 11.9688ZM196.501 13.6194C196.393 13.4704 196.426 13.262 196.575 13.1538C196.724 13.0455 196.932 13.0786 197.04 13.2275C197.148 13.3764 197.115 13.5849 196.967 13.6931C196.818 13.8013 196.609 13.7683 196.501 13.6194ZM195.027 8.91707C195.135 8.76814 195.344 8.73512 195.493 8.84333C195.642 8.95154 195.675 9.16 195.566 9.30893C195.458 9.45787 195.25 9.49088 195.101 9.38268C194.952 9.27447 194.919 9.06601 195.027 8.91707ZM199.044 6.06215C199.219 6.11904 199.315 6.30709 199.258 6.48218C199.201 6.65726 199.013 6.75308 198.838 6.69619C198.663 6.6393 198.567 6.45125 198.624 6.27617C198.68 6.10108 198.869 6.00526 199.044 6.06215Z" fill="white"/>
</g>
<rect x="111.25" y="0.25" width="27.5" height="19.5" rx="1.75" fill="white" stroke="#F5F5F5" stroke-width="0.5"/>
<mask id="mask5" mask-type="alpha" maskUnits="userSpaceOnUse" x="111" y="0" width="28" height="20">
<rect x="111.25" y="0.25" width="27.5" height="19.5" rx="1.75" fill="white" stroke="white" stroke-width="0.5"/>
</mask>
<g mask="url(#mask5)">
<rect x="129.667" width="9.33333" height="20" fill="#F44653"/>
<path fill-rule="evenodd" clip-rule="evenodd" d="M111 20H120.333V0H111V20Z" fill="#1035BB"/>
</g>
<rect x="333.25" y="0.25" width="27.5" height="19.5" rx="1.75" fill="#F5F5F5" stroke="#F5F5F5" stroke-width="0.5"/>
<mask id="mask6" mask-type="alpha" maskUnits="userSpaceOnUse" x="333" y="0" width="28" height="20">
<rect x="333.25" y="0.25" width="27.5" height="19.5" rx="1.75" fill="white" stroke="white" stroke-width="0.5"/>
</mask>
<g mask="url(#mask6)">
<path fill-rule="evenodd" clip-rule="evenodd" d="M333 10.6667H361V0H333V10.6667Z" fill="#E12237"/>
<path fill-rule="evenodd" clip-rule="evenodd" d="M339.667 9.33331C340.612 9.33331 341.48 9.00554 342.165 8.45746C341.802 8.59271 341.41 8.66665 341 8.66665C339.159 8.66665 337.667 7.17426 337.667 5.33331C337.667 3.49236 339.159 1.99998 341 1.99998C341.41 1.99998 341.802 2.07391 342.165 2.20917C341.48 1.66109 340.612 1.33331 339.667 1.33331C337.457 1.33331 335.667 3.12417 335.667 5.33331C335.667 7.54245 337.457 9.33331 339.667 9.33331ZM341 4.66665C341 5.03484 340.701 5.33331 340.333 5.33331C339.965 5.33331 339.667 5.03484 339.667 4.66665C339.667 4.29846 339.965 3.99998 340.333 3.99998C340.701 3.99998 341 4.29846 341 4.66665ZM341.667 7.99998C342.035 7.99998 342.333 7.7015 342.333 7.33331C342.333 6.96512 342.035 6.66665 341.667 6.66665C341.298 6.66665 341 6.96512 341 7.33331C341 7.7015 341.298 7.99998 341.667 7.99998ZM345 7.33331C345 7.7015 344.701 7.99998 344.333 7.99998C343.965 7.99998 343.667 7.7015 343.667 7.33331C343.667 6.96512 343.965 6.66665 344.333 6.66665C344.701 6.66665 345 6.96512 345 7.33331ZM345.667 5.33331C346.035 5.33331 346.333 5.03484 346.333 4.66665C346.333 4.29846 346.035 3.99998 345.667 3.99998C345.298 3.99998 345 4.29846 345 4.66665C345 5.03484 345.298 5.33331 345.667 5.33331ZM343.667 2.66665C343.667 3.03484 343.368 3.33331 343 3.33331C342.632 3.33331 342.333 3.03484 342.333 2.66665C342.333 2.29846 342.632 1.99998 343 1.99998C343.368 1.99998 343.667 2.29846 343.667 2.66665Z" fill="white"/>
</g>
<rect x="74" width="28" height="20" rx="2" fill="white"/>
<mask id="mask7" mask-type="alpha" maskUnits="userSpaceOnUse" x="74" y="0" width="28" height="20">
<rect x="74" width="28" height="20" rx="2" fill="white"/>
</mask>
<g mask="url(#mask7)">
<rect x="74" width="28" height="20" fill="#F1361D"/>
<path fill-rule="evenodd" clip-rule="evenodd" d="M84.0726 3.10073L85.0411 3.26583L85.7674 3.92733L85.9325 2.95888L86.594 2.23255L85.6256 2.06744L84.8992 1.40594L84.7341 2.37439L84.0726 3.10073ZM86.6667 6.488L87.5059 5.97725L88.488 5.99997L87.9773 5.16076L88 4.1786L87.1608 4.68935L86.1786 4.66664L86.6894 5.50585L86.6667 6.488ZM85.5282 11.9708L84.7074 12.5106L84.6958 11.5282L84.1561 10.7073L85.1384 10.6958L85.9593 10.156L85.9709 11.1384L86.5106 11.9593L85.5282 11.9708ZM86.2411 9.43141L87.2176 9.32317L88.0981 9.75884L87.9899 8.7824L88.4255 7.90187L87.4491 8.0101L86.5686 7.57443L86.6768 8.55087L86.2411 9.43141Z" fill="#FFDC42"/>
<path fill-rule="evenodd" clip-rule="evenodd" d="M80.6667 8.22669L78.3155 9.90275L79.183 7.14875L76.8625 5.43062L79.7497 5.40462L80.6667 2.66669L81.5836 5.40462L84.4709 5.43062L82.1503 7.14875L83.0178 9.90275L80.6667 8.22669Z" fill="#FFDC42"/>
</g>
<rect x="37.25" y="0.25" width="27.5" height="19.5" rx="1.75" fill="white" stroke="#F5F5F5" stroke-width="0.5"/>
<mask id="mask8" mask-type="alpha" maskUnits="userSpaceOnUse" x="37" y="0" width="28" height="20">
<rect x="37.25" y="0.25" width="27.5" height="19.5" rx="1.75" fill="white" stroke="white" stroke-width="0.5"/>
</mask>
<g mask="url(#mask8)">
<rect x="57" width="8" height="20" fill="#FF3131"/>
<path fill-rule="evenodd" clip-rule="evenodd" d="M37 20H45V0H37V20Z" fill="#FF3131"/>
<path fill-rule="evenodd" clip-rule="evenodd" d="M53.1118 9.22151C52.8786 9.45471 52.4845 9.24383 52.5492 8.92043L53 6.66665L51.6666 7.33331L51 5.33331L50.3333 7.33331L49 6.66665L49.4507 8.92043C49.5154 9.24383 49.1214 9.45471 48.8882 9.22151L48.569 8.90235C48.4388 8.77217 48.2278 8.77217 48.0976 8.90235L47.6666 9.33331L46.3333 8.66665L47 9.99998L46.569 10.4309C46.4388 10.5611 46.4388 10.7722 46.569 10.9023L48.3333 12.6666H50.3333L50.6666 14.6666H51.3333L51.6666 12.6666H53.6666L55.4309 10.9023C55.5611 10.7722 55.5611 10.5611 55.4309 10.4309L55 9.99998L55.6666 8.66665L54.3333 9.33331L53.9023 8.90235C53.7722 8.77217 53.5611 8.77217 53.4309 8.90235L53.1118 9.22151Z" fill="#FF3131"/>
</g>
<rect width="28" height="20" rx="2" fill="white"/>
<mask id="mask9" mask-type="alpha" maskUnits="userSpaceOnUse" x="0" y="0" width="28" height="20">
<rect width="28" height="20" rx="2" fill="white"/>
</mask>
<g mask="url(#mask9)">
<path fill-rule="evenodd" clip-rule="evenodd" d="M0 13.3334H28V6.66669H0V13.3334Z" fill="#1047B9"/>
<path fill-rule="evenodd" clip-rule="evenodd" d="M0 6.66667H28V0H0V6.66667Z" fill="#F01C31"/>
<path fill-rule="evenodd" clip-rule="evenodd" d="M0 20H28V13.3333H0V20Z" fill="#FECB2F"/>
</g>
</svg>
